<?xml version="1.0" encoding="UTF-8" standalone="no"?>
<svg
   xmlns:dc="http://purl.org/dc/elements/1.1/"
   xmlns:cc="http://creativecommons.org/ns#"
   xmlns:rdf="http://www.w3.org/1999/02/22-rdf-syntax-ns#"
   xmlns:svg="http://www.w3.org/2000/svg"
   xmlns="http://www.w3.org/2000/svg"
   xmlns:xlink="http://www.w3.org/1999/xlink"
   xmlns:sodipodi="http://sodipodi.sourceforge.net/DTD/sodipodi-0.dtd"
   xmlns:inkscape="http://www.inkscape.org/namespaces/inkscape"
   version="1.1"
   id="Layer_1"
   x="0px"
   y="0px"
   viewBox="0 0 473.39 32.09"
   style="enable-background:new 0 0 473.39 32.09;"
   xml:space="preserve"
   sodipodi:docname="DECHIRE (1).svgz"><metadata
   id="metadata25"><rdf:RDF><cc:Work
       rdf:about=""><dc:format>image/svg+xml</dc:format><dc:type
         rdf:resource="http://purl.org/dc/dcmitype/StillImage" /></cc:Work></rdf:RDF></metadata><defs
   id="defs23" /><sodipodi:namedview
   pagecolor="#ffffff"
   bordercolor="#666666"
   borderopacity="1"
   objecttolerance="10"
   gridtolerance="10"
   guidetolerance="10"
   inkscape:pageopacity="0"
   inkscape:pageshadow="2"
   inkscape:window-width="640"
   inkscape:window-height="480"
   id="namedview21" />
<style
   type="text/css"
   id="style2">
	.st0{opacity:0.4;}
	.st1{fill:#828282;}
	.st2{fill:#FFFFFF;}
</style>
<g
   id="g10">
	<defs
   id="defs5">
		<rect
   id="SVGID_1_"
   x="22.07"
   y="-209.96"
   width="432"
   height="288" />
	</defs>
	<clipPath
   id="SVGID_2_">
		<use
   xlink:href="#SVGID_1_"
   style="overflow:visible;"
   id="use7" />
	</clipPath>
</g>
<g
   id="g18">
	<g
   class="st0"
   id="g14">
		<path
   class="st1"
   d="M468.31,7.78c-1.13-0.31-2.13-0.47-3.22,0.25c-1.89,0.58-3.41,1.27-5.38,1.03c-1.8,0.46-3.61,2.06-5.44,0.44    c-2.73-2.15-5.39-1.44-8.1-1.74c-3.6-1.29-7.24-0.61-10.85,0.02c-2.02-0.01-3.11,0.63-4.91,0.88c-0.77,0.79-1.21,1.48-2.01,0.26    c-2.24,0.37-4.85,2.23-7.03,0.03c-1.01,0.18-1.81-2.44-2.82-1.08c-0.93,1.05-1.91-0.03-2.85-0.1c-1.48,1.85-1.83-0.05-3.18-0.88    c-0.99-2.32-2.02,0.53-3.05-0.28c-3.15,0.85-6.3-0.48-9.45,0.03c-1.95,0.76-4.06-3.14-5.98-0.05c-2.2-1.31-4.05,1.46-6.16,2.21    c-0.98,2.04-1.86-2.05-2.83,0.97c-2.98,2.16-5.87-0.31-9.02,0.85c-1.64,0.2-3.2,1.75-4.75-0.54c-1.06,2.44-1.9-2.61-2.91-1.77    c-1.78-3.47-3.66-2.57-5.6-1.1c-2.16-0.4-4.26,0.28-6.37,0.56c-2.11,0.45-4.22-0.73-6.4,0.6c-1.83-0.25-3.15-0.81-4.74,0.54    c-2.31-0.14-4.59,1.26-6.83,0.13c-1.89,1.4-4.09-3.94-6.02-0.13c-2.51,1.52-5.01-1.56-7.51,0c-2.5-3.39-5.01,4.56-7.51,0    c-2.61,0.94-5.23-1.73-7.84,0.01c-2.19-3.28-3.6-2.01-5.67-1.63c-1.67-0.77-3.43-0.65-5.11-0.17c-0.97-0.29-1.68,1.15-2.57-1.08    c-1.06-3.24-1.86-1.97-2.94-0.64c-1.18-2.87-1.95-0.97-3.22-1.07c-2.31,1.09-5.4,3.14-7.62-0.04c-1.05-0.7-1.78-0.54-2.88-1.56    c-1.31-0.96-2.26,0.2-3.47,0.53c-1.73,0.52-3.38,2.71-5.25,1.73c-1.09,2.27-2.05-0.89-3.11-0.49c-1.1-2.52-2.71-1.97-3.82-0.01    c-0.65-0.11-1.13,0.81-1.88,0.91c-1.31-0.24-2.76,1.41-4.1,0.11c-1.45-1.75-2.83,1.08-4.18-0.38c-1.65-1.58-3.51-2.87-5.42-2.05    c-1.91,1.59-3.88-2.07-5.76-0.27c-2.26,0.34-4.51,1.2-6.8,1.51c-2.28,0.04-4.6,0.02-6.97,0.63c-2.02,1.06-4.05-0.29-6-0.54    c-1.47-0.66-2.31-1.23-3.79-1.62c-2.01,1.02-3.86-0.2-5.65,0.76c-1.19,1.42-2.34,1.34-3.65,1.9c-0.93,0.01-2,0.07-2.95,0.05    c-2.63-0.71-6.01,0.71-8.31,0.57c-1.69,1.63-3.35,0.47-5.27,0.58c-1.49-0.46-2.23,1.64-3.46-0.42c-0.32,0.09-0.57-1.35-0.93-0.61    c-0.75-1.49-1.95-0.49-2.72-0.14c-1.2-0.28-0.81,0.34-1.78,0.88c-1.57,1.65-3.32-0.34-5.15,0.85c-2.09,1.03-4.09-0.66-6.07,0.06    c-1.98,0.2-3.95,1.89-5.97,0.94c-2.49,1.44-4.79,1.73-7.4,1.29c-1.87,0.35-4.23-0.35-6.06-0.06c-0.54-0.23-0.87,0.94-1.4,0.61    c-2.18,1.12-4.53,1.44-6.8,0.58c-1.75-0.61-3.51-0.41-5.26-0.01c-2.24-1.25-4.8-1.05-6.97,0.11c-1.99,2.73-3.44,3.36-5.6,1.63    c-2.57,0.24-5.81-0.44-8.36,0c-1.07,0.23-1.01,0.06-1.89-1.07c-0.55,0.84-1.58-1.21-2.16-0.54c-1.45-0.7-2.75,1.08-4.09-1.68    c-0.74-0.83-1.37,0.31-2.18-1.19c-1.2,0.38-2.56,2.09-3.79-0.11c-2.06-1.51-3.81,0.47-5.82,0.59c-3.09,1.19-6.09-0.19-9.13-0.44    c-1.59-2.1-1.93-1.53-3.32-1.3c-0.99-2.1-0.95-0.14-1.94-0.49c-1.48,0.26-3-3.07-4.46-1.9c-2.84-1.32-6.55-3.69-9.61-0.42    c-1.54-0.19-4.45-0.09-5.74-0.1c-0.41-0.6-0.61-1.19-0.99-1.18c-0.43-2.17-1.1-1.43-1.61-0.86c-1.91-2.22-3.8-0.36-5.85-0.7    c-1.49,0.35-2.51,1.78-3.93-0.44c-1.94-0.67-4.07-0.02-6.06-0.13c-0.63-0.71-1.32-0.37-1.92,0.1c-0.68-0.32-0.88,0.59-1.66,1.08    c-1.02,0.93-2.45-0.19-3.53-0.04c-2.16-0.69-4.32-1.37-6.48,0c-2.69,0.59-4.67,0.82-7.14,1.85c-2.45,0.33-4.69,1.44-7.35,0.98    c-1.38,0.28-3.54-0.89-4.86-0.06c-0.9,2.18-1.07,1.72-1.82,1.38c-0.5-0.32-1.01,0.83-1.54,0.51C7.8,5.74,5.61,8.17,2.83,7.22    C2.83,7.5,0,15.45,0,15.15c0.99,1.37,1.52,0.71,2.41,1.04c0.83-0.28,1.7-0.42,2.55,0.09c1.42-1.33,3.12,1.07,4.52-0.04    c1.52,0.02,2.73,2.14,4.25,1.62c1.85,0.44,3.73-0.7,5.4-0.69c2.22-0.88,4.15-3.23,6.55-4.9c0.5,0.6,1.59-0.93,2.07,0.04    c1.57-0.23,3.66-2.39,5.13,0.25c1.32-0.01,2.48-0.53,4,0.66c1.11-2.22,0.47-1.34,1.92-1.5c1.15,0.82,2.58-2.51,3.78-0.64    c1.93-0.34,2.55-1.29,4.15,2.17c2.43,0.31,6.89-0.24,9.39,0.19c2.28,0.38,4.9-3.05,7.21-0.03c1.66-0.34,3.47,1.73,4.98,1.17    c1.71,0,3.53,0.75,5.35,1.57c2.86-0.37,6.26-1.78,9.18,0.13c1.91,0.36,3.86-0.15,5.77-0.01c2.01-1.68,3.27,2.07,5.3,1.76    c1.85,0.25,4.11,0.96,5.91-0.07c0.6,1.11,1.03,1.05,1.62,0.63c0.82-0.11,1.94-0.32,2.78-0.03c0.55-1.07,1.27-0.31,1.8-0.08    c0.7-0.02,0.96-0.42,1.64-1.53c0.89,0.1,2.83,1.25,3.72-0.09c1.5-0.16,3,0.77,4.36,0.55c2,1.42,3.42,2.29,5.88,2.32    c1.81-2.11,3.67-0.57,5.49-0.03c1.59,0.55,3.28,0.15,4.71-0.33c0.48-0.12,0.87-1.22,1.38-0.81c1.02,0.61,2.19,0.03,3.28-0.57    c1.73-0.44,3.49,1.05,5.22,0.01c1.18,0.64,3.52,2.11,4.59-0.1c0.75-2.96,1.02-1.95,1.75-2.04c1.69-1.16,4.76,0.43,6.73-0.69    c1.04,0.66,0.86-0.3,2.04,0.33c1.55-0.96,2.73,4.44,4.35,2.57c1.85-0.42,3.71,1.65,5.62,0.5c2.21,0.25,4.42,0.96,6.63,0    c0.56,0.28,1.31,0.82,1.86-0.07c1.7,0.97,2.1,1.67,3.57,2.27c1.28,2.02,2.78,0.68,4.11,0.04c1.84-2.35,3.49,0.8,5.38,0.6    c1.89-1.4,3.78-0.06,5.68,0c1.24-0.48,2.67-0.26,3.89-0.03c1.05-0.95,1.96,2.16,3.01,0.62c2.72,0.64,5.65-0.25,8.13-1.27    c1.49-0.1,2.68-1.74,4.22-2.12c0.81,0.59,1.31-2.28,2.06-0.91c1.09-0.86,2.2,0.43,3.39-0.25c1.74,2.29,3.61-0.82,5.34,0.04    c2.53,0.93,4.33-0.92,6.58-3.21c1.38-0.1,3.37,0.93,4.86-0.27c1.91,1.23,3.45,0.04,5.28,1.07c0.59-0.55,1.17,2.92,1.75,0.22    c0.57,0.13,1.15,1.71,1.72,0.92c3.17-1.1,6.5,3.98,9.86,1.82c2.14-0.57,4.3,0.7,6.44-0.07c2.15-1.28,4.28-0.7,6.36,0.49    c1.8,1.52,3.57,2.72,5.26-0.57c1.74-2.85,2.6-1.45,4.52-1.01c3.4-0.16,6.79-0.5,10.19,0c1.95,0.7,3.91,0.27,5.86,0    c1.84-0.35,3.21-0.79,4.99,0.58c3.59,0.89,6.98-1.1,10.18,1.11c1.36,0.96,2.84,3.68,4.24,1.68c2.25-0.04,4.4,1.62,6.9,2.22    c2.85,1.03,4.97-1.78,7.73-0.96c3.63,0.93,7.18-2.51,10.91-0.66c2.27-0.98,5.45,0.95,7.6-0.09c1.71-0.17,2.49-0.96,4.45-2.19    c1.72-1.45,3.63,2.4,5.34-0.05c1.83,0.44,3.48,0.44,5.31,1.25c1.25,2.37,2.61-1.15,3.88-0.06c2.12,0.16,4.25-1.66,6.37,0    c2.12-0.03,4.25-0.16,6.37,0c2.29-3.01,4.63,1.23,6.83,0.7c1.97,2.27,3.25,2.05,5.47,2.16c2.53,1.6,4.18-0.66,6.55-1.33    c2.07,0.11,4.14-0.18,6.22-0.52c2.29-0.08,4.32-0.38,6.41-1.57c2.3-0.32,4-3.09,6.65-1.13c3.38,1.23,6.76,1.72,10.14,0    c1.96,1.15,3.33-0.32,5.29-0.56c2.64-1.43,5.09,1.09,7.68,0.44c2.62,0.37,5.42,1.78,8.07,0.68c1.96,0.23,3.39,0.43,5.19,1.95    c2.14,1.57,4.9-1.17,7.22,0.33c1.95,1.02,3.3-0.98,5.1-1.12c1.7,0.07,5.78,0.28,6.72-2.28c0-2.08,2.83-12.36,2.83-10.77    C472.44,9.26,469.64,7.6,468.31,7.78z"
   id="path12" />
	</g>
	<path
   class="st2"
   d="M468.31,7.78c-1.13-0.31-2.13-0.47-3.22,0.25c-1.89,0.58-3.41,1.27-5.38,1.03c-1.8,0.46-3.61,2.06-5.44,0.44   c-2.73-2.15-5.39-1.44-8.1-1.74c-3.6-1.29-7.24-0.61-10.85,0.02c-2.02-0.01-3.11,0.63-4.91,0.88c-0.77,0.79-1.21,1.48-2.01,0.26   c-2.24,0.37-4.85,2.23-7.03,0.03c-1.01,0.18-1.81-2.44-2.82-1.08c-0.93,1.05-1.91-0.03-2.85-0.1c-1.48,1.85-1.83-0.05-3.18-0.88   c-0.99-2.32-2.02,0.53-3.05-0.28c-3.15,0.85-6.3-0.48-9.45,0.03c-1.95,0.76-4.06-3.14-5.98-0.05c-2.2-1.31-4.05,1.46-6.16,2.21   c-0.98,2.04-1.86-2.05-2.83,0.97c-2.98,2.16-5.87-0.31-9.02,0.85c-1.64,0.2-3.2,1.75-4.75-0.54c-1.06,2.44-1.9-2.61-2.91-1.77   c-1.78-3.47-3.66-2.57-5.6-1.1c-2.16-0.4-4.26,0.28-6.37,0.56c-2.11,0.45-4.22-0.73-6.4,0.6c-1.83-0.25-3.15-0.81-4.74,0.54   c-2.31-0.14-4.59,1.26-6.83,0.13c-1.89,1.4-4.09-3.94-6.02-0.13c-2.51,1.52-5.01-1.56-7.51,0c-2.5-3.39-5.01,4.56-7.51,0   c-2.61,0.94-5.23-1.73-7.84,0.01c-2.19-3.28-3.6-2.01-5.67-1.63c-1.67-0.77-3.43-0.65-5.11-0.17c-0.97-0.29-1.68,1.15-2.57-1.08   c-1.06-3.24-1.86-1.97-2.94-0.64c-1.18-2.87-1.95-0.97-3.22-1.07c-2.31,1.09-5.4,3.14-7.62-0.04c-1.05-0.7-1.78-0.54-2.88-1.56   c-1.31-0.96-2.26,0.2-3.47,0.53c-1.73,0.52-3.38,2.71-5.25,1.73c-1.09,2.27-2.05-0.89-3.11-0.49c-1.1-2.52-2.71-1.97-3.82-0.01   c-0.65-0.11-1.13,0.81-1.88,0.91c-1.31-0.24-2.76,1.41-4.1,0.11c-1.45-1.75-2.83,1.08-4.18-0.38c-1.65-1.58-3.51-2.87-5.42-2.05   c-1.91,1.59-3.88-2.07-5.76-0.27c-2.26,0.34-4.51,1.2-6.8,1.51c-2.28,0.04-4.6,0.02-6.97,0.63c-2.02,1.06-4.05-0.29-6-0.54   c-1.47-0.66-2.31-1.23-3.79-1.62c-2.01,1.02-3.86-0.2-5.65,0.76c-1.19,1.42-2.34,1.34-3.65,1.9c-0.93,0.01-2,0.07-2.95,0.05   c-2.63-0.71-6.01,0.71-8.31,0.57c-1.69,1.63-3.35,0.47-5.27,0.58c-1.49-0.46-2.23,1.64-3.46-0.42c-0.32,0.09-0.57-1.35-0.93-0.61   c-0.75-1.49-1.95-0.49-2.72-0.14c-1.2-0.28-0.81,0.34-1.78,0.88c-1.57,1.65-3.32-0.34-5.15,0.85c-2.09,1.03-4.09-0.66-6.07,0.06   c-1.98,0.2-3.95,1.89-5.97,0.94c-2.49,1.44-4.79,1.73-7.4,1.29c-1.87,0.35-4.23-0.35-6.06-0.06c-0.54-0.23-0.87,0.94-1.4,0.61   c-2.18,1.12-4.53,1.44-6.8,0.58c-1.75-0.61-3.51-0.41-5.26-0.01c-2.24-1.25-4.8-1.05-6.97,0.11c-1.99,2.73-3.44,3.36-5.6,1.63   c-2.57,0.24-5.81-0.44-8.36,0c-1.07,0.23-1.01,0.06-1.89-1.07c-0.55,0.84-1.58-1.21-2.16-0.54c-1.45-0.7-2.75,1.08-4.09-1.68   c-0.74-0.83-1.37,0.31-2.18-1.19c-1.2,0.38-2.56,2.09-3.79-0.11c-2.06-1.51-3.81,0.47-5.82,0.59c-3.09,1.19-6.09-0.19-9.13-0.44   c-1.59-2.1-1.93-1.53-3.32-1.3c-0.99-2.1-0.95-0.14-1.94-0.49c-1.48,0.26-3-3.07-4.46-1.9c-2.84-1.32-6.55-3.69-9.61-0.42   c-1.54-0.19-4.45-0.09-5.74-0.1c-0.41-0.6-0.61-1.19-0.99-1.18c-0.43-2.17-1.1-1.43-1.61-0.86c-1.91-2.22-3.8-0.36-5.85-0.7   c-1.49,0.35-2.51,1.78-3.93-0.44c-1.94-0.67-4.07-0.02-6.06-0.13c-0.63-0.71-1.32-0.37-1.92,0.1c-0.68-0.32-0.88,0.59-1.66,1.08   c-1.02,0.93-2.45-0.19-3.53-0.04c-2.16-0.69-4.32-1.37-6.48,0c-2.69,0.59-4.67,0.82-7.14,1.85c-2.45,0.33-4.69,1.44-7.35,0.98   c-1.38,0.28-3.54-0.89-4.86-0.06c-0.9,2.18-1.07,1.72-1.82,1.38c-0.5-0.32-1.01,0.83-1.54,0.51C7.8,5.74,5.61,8.17,2.83,7.22   C2.83,7.5,0,15.45,0,15.15c0.99,1.37,1.52,0.71,2.41,1.04c0.83-0.28,1.7-0.42,2.55,0.09c1.42-1.33,3.12,1.07,4.52-0.04   c1.52,0.02,2.73,2.14,4.25,1.62c1.85,0.44,3.73-0.7,5.4-0.69c2.22-0.88,4.15-3.23,6.55-4.9c0.5,0.6,1.59-0.93,2.07,0.04   c1.57-0.23,3.66-2.39,5.13,0.25c1.32-0.01,2.48-0.53,4,0.66c1.11-2.22,0.47-1.34,1.92-1.5c1.15,0.82,2.58-2.51,3.78-0.64   c1.93-0.34,2.55-1.29,4.15,2.17c2.43,0.31,6.89-0.24,9.39,0.19c2.28,0.38,4.9-3.05,7.21-0.03c1.66-0.34,3.47,1.73,4.98,1.17   c1.71,0,3.53,0.75,5.35,1.57c2.86-0.37,6.26-1.78,9.18,0.13c1.91,0.36,3.86-0.15,5.77-0.01c2.01-1.68,3.27,2.07,5.3,1.76   c1.85,0.25,4.11,0.96,5.91-0.07c0.6,1.11,1.03,1.05,1.62,0.63c0.82-0.11,1.94-0.32,2.78-0.03c0.55-1.07,1.27-0.31,1.8-0.08   c0.7-0.02,0.96-0.42,1.64-1.53c0.89,0.1,2.83,1.25,3.72-0.09c1.5-0.16,3,0.77,4.36,0.55c2,1.42,3.42,2.29,5.88,2.32   c1.81-2.11,3.67-0.57,5.49-0.03c1.59,0.55,3.28,0.15,4.71-0.33c0.48-0.12,0.87-1.22,1.38-0.81c1.02,0.61,2.19,0.03,3.28-0.57   c1.73-0.44,3.49,1.05,5.22,0.01c1.18,0.64,3.52,2.11,4.59-0.1c0.75-2.96,1.02-1.95,1.75-2.04c1.69-1.16,4.76,0.43,6.73-0.69   c1.04,0.66,0.86-0.3,2.04,0.33c1.55-0.96,2.73,4.44,4.35,2.57c1.85-0.42,3.71,1.65,5.62,0.5c2.21,0.25,4.42,0.96,6.63,0   c0.56,0.28,1.31,0.82,1.86-0.07c1.7,0.97,2.1,1.67,3.57,2.27c1.28,2.02,2.78,0.68,4.11,0.04c1.84-2.35,3.49,0.8,5.38,0.6   c1.89-1.4,3.78-0.06,5.68,0c1.24-0.48,2.67-0.26,3.89-0.03c1.05-0.95,1.96,2.16,3.01,0.62c2.72,0.64,5.65-0.25,8.13-1.27   c1.49-0.1,2.68-1.74,4.22-2.12c0.81,0.59,1.31-2.28,2.06-0.91c1.09-0.86,2.2,0.43,3.39-0.25c1.74,2.29,3.61-0.82,5.34,0.04   c2.53,0.93,4.33-0.92,6.58-3.21c1.38-0.1,3.37,0.93,4.86-0.27c1.91,1.23,3.45,0.04,5.28,1.07c0.59-0.55,1.17,2.92,1.75,0.22   c0.57,0.13,1.15,1.71,1.72,0.92c3.17-1.1,6.5,3.98,9.86,1.82c2.14-0.57,4.3,0.7,6.44-0.07c2.15-1.28,4.28-0.7,6.36,0.49   c1.8,1.52,3.57,2.72,5.26-0.57c1.74-2.85,2.6-1.45,4.52-1.01c3.4-0.16,6.79-0.5,10.19,0c1.95,0.7,3.91,0.27,5.86,0   c1.84-0.35,3.21-0.79,4.99,0.58c3.59,0.89,6.98-1.1,10.18,1.11c1.36,0.96,2.84,3.68,4.24,1.68c2.25-0.04,4.4,1.62,6.9,2.22   c2.85,1.03,4.97-1.78,7.73-0.96c3.63,0.93,7.18-2.51,10.91-0.66c2.27-0.98,5.45,0.95,7.6-0.09c1.71-0.17,2.49-0.96,4.45-2.19   c1.72-1.45,3.63,2.4,5.34-0.05c1.83,0.44,3.48,0.44,5.31,1.25c1.25,2.37,2.61-1.15,3.88-0.06c2.12,0.16,4.25-1.66,6.37,0   c2.12-0.03,4.25-0.16,6.37,0c2.29-3.01,4.63,1.23,6.83,0.7c1.97,2.27,3.25,2.05,5.47,2.16c2.53,1.6,4.18-0.66,6.55-1.33   c2.07,0.11,4.14-0.18,6.22-0.52c2.29-0.08,4.32-0.38,6.41-1.57c2.3-0.32,4-3.09,6.65-1.13c3.38,1.23,6.76,1.72,10.14,0   c1.96,1.15,3.33-0.32,5.29-0.56c2.64-1.43,5.09,1.09,7.68,0.44c2.62,0.37,5.42,1.78,8.07,0.68c1.96,0.23,3.39,0.43,5.19,1.95   c2.14,1.57,4.9-1.17,7.22,0.33c1.95,1.02,3.3-0.98,5.1-1.12c1.7,0.07,5.78,0.28,6.72-2.28c0-2.08,2.83-12.36,2.83-10.77   C472.44,9.26,469.64,7.6,468.31,7.78z"
   id="path16" />
</g>
</svg>
