<svg width="21" height="23" viewBox="0 0 21 23" fill="none" xmlns="http://www.w3.org/2000/svg">
<path d="M10.6251 8.56521C10.6575 8.64597 10.7786 8.51675 10.8109 8.50867C10.7059 8.42791 10.5848 8.59751 10.6251 8.56521Z" fill="#844C3A"/>
<path d="M9.57859 7.45878H9.65161L9.4082 7.31342L9.57859 7.45878Z" fill="#844C3A"/>
<path d="M9.01021 6.06161C8.79925 6.3039 9.26173 6.56233 9.26173 6.85306L9.21305 6.91767L9.47269 6.9419C9.32665 6.65924 9.02644 6.31197 9.01021 6.06161Z" fill="#844C3A"/>
<path d="M9.26091 5.03598C9.18015 5.13289 9.09939 4.89869 9.30936 5.23788C9.30936 5.21365 9.31744 5.20558 9.31744 5.18942C9.30937 5.1652 9.28514 5.11674 9.26091 5.03598Z" fill="#844C3A"/>
<path d="M9.32617 5.1975C9.39886 5.35094 9.36655 5.05213 9.32617 5.1975V5.1975Z" fill="#844C3A"/>
<path d="M8.91992 4.47874L9.11465 4.64834C9.15522 4.57566 9.06597 4.37376 9.14711 4.42221C8.98483 4.22839 8.95238 4.30915 8.91992 4.47874Z" fill="#844C3A"/>
<path d="M8.62891 4.38184L8.72581 4.47067C8.73389 4.43837 8.72582 4.39799 8.62891 4.38184Z" fill="#844C3A"/>
<path d="M8.92077 4.65641L8.72604 4.46259C8.7017 4.51104 8.62056 4.5595 8.80718 4.55142C8.71793 4.57565 8.81529 4.58373 8.92077 4.65641Z" fill="#844C3A"/>
<path d="M8.94518 4.80984C8.94518 4.95521 8.97763 5.11673 8.79102 4.95521C9.00197 5.32671 9.16425 5.18942 8.94518 4.80984Z" fill="#844C3A"/>
<path d="M8.70854 6.10203L8.69238 6.2797L8.82968 6.36853C8.757 6.32815 8.78122 6.05357 8.70854 6.10203Z" fill="#844C3A"/>
<path d="M8.16509 3.05734C8.10855 3.08157 8.0924 3.22694 8.04395 3.29155L8.21354 3.39653C8.18931 3.29962 8.10048 3.13003 8.16509 3.05734Z" fill="#844C3A"/>
<path d="M8.0448 3.29963C7.96366 3.25118 7.87441 3.20272 7.78516 3.15427C7.93932 3.34001 8.00423 3.35617 8.0448 3.29963Z" fill="#844C3A"/>
<path d="M8.31978 4.49489C8.44934 4.58373 8.57891 4.67257 8.70847 4.7614C8.57081 4.64834 8.42505 4.53527 8.2793 4.42221L8.31978 4.49489Z" fill="#844C3A"/>
<path d="M7.37046 2.25784L7.58925 2.26592L7.22461 2.23361L7.37046 2.25784Z" fill="#844C3A"/>
<path d="M6.72992 1.8298C6.90842 1.7975 6.68124 1.56329 6.8354 1.57945C6.64067 1.47446 6.40537 1.48253 6.21875 1.48253C6.39725 1.52291 6.58387 1.61983 6.72992 1.8298Z" fill="#844C3A"/>
<path d="M5.90234 1.49062C5.99958 1.49869 6.10492 1.49062 6.21836 1.48254C6.12112 1.46639 6.01579 1.46639 5.90234 1.49062Z" fill="#844C3A"/>
<path d="M7.47627 2.79084C7.48434 2.75046 7.52472 2.64547 7.42781 2.50818L7.39551 2.71008C7.41974 2.73431 7.44396 2.75854 7.47627 2.79084Z" fill="#844C3A"/>
<path d="M7.3942 2.71815C7.30537 2.62931 7.24884 2.57278 7.22461 2.54855C7.24076 2.56471 7.29729 2.62124 7.3942 2.71815Z" fill="#844C3A"/>
<path d="M7.49329 2.8075L7.47665 2.79086C7.46834 2.8075 7.46834 2.81582 7.49329 2.8075Z" fill="#844C3A"/>
<path d="M8.09242 3.82458C7.92237 3.74382 7.64705 3.56615 7.71183 3.88919C7.87378 3.91341 7.83329 3.71151 8.09242 3.82458Z" fill="#844C3A"/>
<path d="M7.43555 3.05734C7.50037 3.13003 7.54899 3.21079 7.60571 3.29155C7.63812 3.25924 7.65433 3.17041 7.74346 3.20271C7.63812 3.15425 7.54089 3.09772 7.43555 3.05734Z" fill="#844C3A"/>
<path d="M7.29785 3.00084L7.43514 3.05737L7.37053 2.96854L7.29785 3.00084Z" fill="#844C3A"/>
<path d="M6.3489 1.87826C6.19474 1.87826 6.05681 1.81365 5.89453 1.7652C6.05681 1.86211 6.20286 1.9671 6.35702 2.04786C6.4057 2.01555 6.51929 1.9671 6.3489 1.87826Z" fill="#844C3A"/>
<path d="M6.88484 2.27401L6.85254 2.26593C6.86062 2.28208 6.86869 2.29823 6.88484 2.27401Z" fill="#844C3A"/>
<path d="M4.15039 1.47446L4.1827 1.49868L4.19077 1.47446H4.15039Z" fill="#844C3A"/>
<path d="M6.36528 2.08823C6.46251 2.18514 6.54354 2.19322 6.64077 2.18514C6.54354 2.14476 6.45441 2.09631 6.35717 2.04785C6.33286 2.064 6.32476 2.08016 6.36528 2.08823Z" fill="#844C3A"/>
<path d="M5.39941 1.40988C5.46432 1.46641 5.53735 1.52294 5.61849 1.5714C5.56169 1.49871 5.43187 1.37757 5.39941 1.40988Z" fill="#844C3A"/>
<path d="M6.84375 2.20128L6.86798 2.20936C6.85183 2.14475 6.84375 2.16898 6.84375 2.20128Z" fill="#844C3A"/>
<path d="M6.8435 2.2013C6.77889 2.17707 6.70621 2.18515 6.6416 2.19323C6.71429 2.22553 6.78697 2.24976 6.85158 2.26591C6.8435 2.24168 6.8435 2.21745 6.8435 2.2013Z" fill="#844C3A"/>
<path d="M3.88196 2.6374C3.8414 2.47588 4.12538 2.25783 4.38502 2.42743C4.62032 2.29821 4.51484 1.77327 4.18218 1.49869C4.18218 1.57137 4.17407 1.61983 3.87385 1.77327C4.01179 1.82173 4.57164 1.91864 4.32823 2.07208C3.9631 2.17707 4.0199 2.05593 3.80894 1.9994C3.99556 2.15284 3.42759 2.41128 3.62232 2.66163C3.69535 2.59702 3.77649 2.54049 3.85762 2.47588C3.87385 2.52434 3.80083 2.62125 3.88196 2.6374Z" fill="#844C3A"/>
<path d="M4.83172 1.53098C4.88041 1.53098 4.92909 1.52291 4.96966 1.53098C4.8155 1.48253 4.71001 1.40984 4.49094 1.27255C4.23941 1.35331 4.19884 1.41792 4.18262 1.47445C4.41792 1.46638 4.65322 1.48253 4.87229 1.51483L4.83172 1.53098Z" fill="#844C3A"/>
<path d="M5.56271 1.66829C5.40855 1.7975 5.10833 1.7975 5.23004 2.02363C5.56271 2.12054 5.51402 1.95095 5.74121 1.95902C5.16513 1.7975 5.94406 1.91864 5.56271 1.68444C5.69253 1.69252 5.79801 1.72482 5.89537 1.75712C5.80612 1.69251 5.71687 1.63598 5.61951 1.57138L5.62762 1.58753C5.64384 1.61983 5.65196 1.62791 5.62762 1.61176H5.61139C5.59516 1.63598 5.57894 1.65213 5.56271 1.66829C5.40044 1.57945 5.54648 1.61176 5.61139 1.61176C5.61951 1.60368 5.62762 1.5956 5.62762 1.58753C5.41666 1.54715 5.19759 1.53099 4.97852 1.52292C5.10022 1.57945 5.27873 1.5956 5.56271 1.66829Z" fill="#844C3A"/>
<path d="M7.24863 3.9134C7.24863 3.88917 7.26478 3.8811 7.27286 3.87302C7.23248 3.86495 7.21633 3.86495 7.24863 3.9134Z" fill="#844C3A"/>
<path d="M7.2002 3.68732C7.24076 3.69539 7.3219 3.67116 7.3787 3.77615C7.40304 3.88922 7.31379 3.82461 7.27322 3.87306C7.35435 3.89729 7.52475 3.9942 7.45172 3.76L7.41116 3.74385C7.33002 3.55002 7.29756 3.20276 7.33813 3.21083C7.27322 3.37235 7.22454 3.49349 7.2002 3.68732Z" fill="#844C3A"/>
<path d="M6.53436 2.63743C6.3967 2.57282 6.25094 2.52437 6.11328 2.46783C6.15377 2.54859 6.18617 2.62935 6.22665 2.71011L6.26714 2.62935C6.45338 2.79895 6.46958 2.67781 6.53436 2.63743Z" fill="#844C3A"/>
<path d="M4.0761 1.39369L4.14093 1.20795C4.02748 1.29678 3.93024 1.40985 3.83301 1.51483L4.0761 1.39369Z" fill="#844C3A"/>
<path d="M3.34591 1.57946L3.32168 1.41794C3.26515 1.47447 3.20861 1.51485 3.16016 1.57946C3.22476 1.57138 3.2813 1.57946 3.34591 1.57946Z" fill="#844C3A"/>
<path d="M13.1406 15.4379L13.1729 15.3167C13.1487 15.3652 13.1406 15.4055 13.1406 15.4379Z" fill="#844C3A"/>
<path d="M12.6445 16.1243L12.7011 16.1889C12.6849 16.1324 12.6688 16.1001 12.6445 16.1243Z" fill="#844C3A"/>
<path d="M3.31386 14.4607C3.28156 14.6868 3.2008 14.9856 3.33809 14.8645L3.45115 14.7191C3.36232 14.6383 3.32194 14.5495 3.31386 14.4607Z" fill="#844C3A"/>
<path d="M9.43905 20.8488C9.43905 20.8165 9.43098 20.7842 9.43098 20.7438C9.3906 20.7842 9.34214 20.8165 9.30176 20.8488C9.34214 20.8488 9.3906 20.8488 9.43905 20.8488Z" fill="#844C3A"/>
<path d="M9.71582 20.0089L9.76427 20.2593C9.7562 20.1785 9.74005 20.0977 9.71582 20.0089Z" fill="#844C3A"/>
<path d="M15.46 11.4968L15.3712 11.2949C15.2743 11.4645 15.3954 11.4322 15.46 11.4968Z" fill="#844C3A"/>
<path d="M0.57093 7.07922C0.498246 7.24882 0.482095 7.38611 0.490171 7.49917C0.562855 7.2892 0.716298 7.12768 0.57093 7.07922Z" fill="#844C3A"/>
<path d="M14.4864 16.7623C14.5025 16.6816 14.4864 16.6412 14.4541 16.617C14.4379 16.6977 14.446 16.7543 14.4864 16.7623Z" fill="#844C3A"/>
<path d="M0.530632 7.97563C0.546784 7.94333 0.554861 7.91102 0.562937 7.88679C0.522557 7.77373 0.490254 7.65259 0.482178 7.49915C0.425646 7.65259 0.39334 7.83026 0.530632 7.97563Z" fill="#844C3A"/>
<path d="M14.6 3.08157C14.5838 3.08157 14.5757 3.08965 14.5596 3.08157C14.5757 3.1058 14.5838 3.09773 14.6 3.08157Z" fill="#844C3A"/>
<path d="M10.0889 5.52055C10.105 5.47209 10.1454 5.39941 10.1858 5.32672C10.1535 5.35095 10.1212 5.40748 10.0889 5.52055Z" fill="#844C3A"/>
<path d="M1.19727 3.39654C1.2538 3.26733 1.19727 3.36424 1.19727 3.39654V3.39654Z" fill="#844C3A"/>
<path d="M2.12891 3.22696C2.12891 3.25926 2.13698 3.29157 2.16929 3.31579C2.14506 3.28349 2.12891 3.25119 2.12891 3.22696Z" fill="#844C3A"/>
<path d="M1.8291 8.91246V8.92054C1.85333 8.88016 1.85333 8.88823 1.8291 8.91246Z" fill="#844C3A"/>
<path d="M1.3746 3.25119C1.32614 3.28349 1.28576 3.33195 1.2373 3.38041C1.26153 3.36425 1.30191 3.32387 1.3746 3.25119Z" fill="#844C3A"/>
<path d="M1.28516 3.23504C1.31746 3.19466 1.34169 3.17043 1.36592 3.13812C1.34976 3.10582 1.32554 3.1139 1.28516 3.23504Z" fill="#844C3A"/>
<path d="M1.11523 3.57423C1.14754 3.50154 1.18792 3.43693 1.23638 3.3804C1.21215 3.39655 1.19599 3.40463 1.19599 3.39655C1.17984 3.42886 1.15561 3.48539 1.11523 3.57423Z" fill="#844C3A"/>
<path d="M18.9895 4.78561C18.9976 4.77753 19.0057 4.77753 19.0138 4.76946C18.9653 4.64024 18.9653 4.69677 18.9895 4.78561Z" fill="#844C3A"/>
<path d="M6.4944 15.7609H6.48633V15.7771L6.4944 15.7609Z" fill="#844C3A"/>
<path d="M6.84299 15.9951C6.56712 15.9951 6.52656 15.8982 6.48599 15.769L6.15332 16.1728L6.84299 15.9951Z" fill="#844C3A"/>
<path d="M14.2195 13.7338L13.9355 13.8792C13.9031 13.4593 14.1059 13.3139 13.7814 13.4027C14.2195 13.7338 13.2459 14.3153 13.6759 14.6545L13.4812 14.7433C13.5136 14.703 13.4893 14.6787 13.5298 14.6383C13.116 14.7837 13.7165 15.0745 13.3919 15.4136C13.2702 15.5186 13.1404 15.5671 13.1485 15.4379L13.0592 15.8094C12.9943 15.8901 12.9294 15.8174 12.9943 15.7367L12.7103 16.2051L12.7022 16.1889C12.7266 16.302 12.7428 16.5201 12.7347 16.625C12.5886 16.6977 12.7266 16.5362 12.6454 16.5281L12.5805 16.8512C12.3939 16.8673 12.4182 16.5847 12.5562 16.4312C11.9395 16.3505 12.5318 16.7139 11.9152 17.0288L12.0207 16.7543C11.6556 16.73 11.6231 16.9723 11.2823 17.1258C11.4121 17.1177 12.0531 16.8754 11.9801 17.2227C11.8909 17.2711 11.8097 17.36 11.8016 17.5699C11.6393 17.4569 11.5825 17.6265 11.4689 17.8122L11.2661 17.6507C11.1931 17.8849 11.3148 17.9414 11.331 18.1191C11.1606 18.321 10.9659 18.2483 10.7874 18.1999C10.5196 18.5148 11.2174 18.1433 10.974 18.5794C10.7062 18.7975 10.6251 19.0963 10.5521 19.4678C10.4141 19.5082 10.4385 19.3547 10.3573 19.3386C10.3979 19.4032 10.4304 19.4759 10.4628 19.5566C10.4466 19.5728 10.406 19.5163 10.3898 19.492C10.3979 19.6212 10.5683 19.6939 10.5115 19.8958C10.5845 20.0493 10.4547 20.0412 10.3492 20.017C10.2356 20.0008 10.1626 19.9443 10.1464 20.2512C10.1058 20.1866 10.122 20.0089 10.0896 19.8797C10.0409 20.1946 10.0166 20.2754 9.96787 20.4773C9.95976 20.5338 9.92731 20.5904 9.87051 20.6711C9.82994 20.5177 9.78938 20.3804 9.75692 20.2512C9.82183 20.6469 9.67578 20.8407 9.43237 20.8407C9.45671 21.0265 9.48105 21.1961 9.50539 21.293C9.39179 21.2284 9.27009 21.1476 9.14838 21.0588C9.12404 20.9619 9.19707 20.9134 9.28632 20.8488C9.26198 20.8488 9.22952 20.8488 9.20518 20.8488C9.14027 20.6065 9.27009 20.5338 9.39179 20.445C9.39991 20.5419 9.40803 20.6388 9.41614 20.7438C9.53785 20.6388 9.6271 20.4692 9.65144 20.2592C9.63521 20.2835 9.60275 20.2835 9.5703 20.2754C9.59464 20.235 9.61087 20.2027 9.61899 20.1623C9.61899 20.122 9.58653 20.1704 9.53784 20.2108C9.56219 20.0816 9.58653 19.9524 9.61087 19.8393L9.55407 19.9524C9.51351 19.7989 9.48105 19.6616 9.46482 19.5405C9.31877 19.5889 9.11593 19.6212 8.83195 19.5163C8.5723 19.4355 8.30454 19.3224 8.06113 19.0963C8.32889 19.0963 8.35323 18.9106 8.55607 18.7652C8.45871 19.0721 8.95365 19.0963 9.11593 19.3951C9.02668 19.2417 9.14838 19.1932 9.20518 19.2013L8.64532 18.8702C8.81571 18.7571 8.6859 18.6763 8.66156 18.4987C8.41003 18.8379 8.17472 18.3049 7.9232 18.1837C8.02056 18.0868 8.16661 18.0545 8.32889 18.3049C8.36946 17.8607 7.6879 18.2564 7.69601 17.8364C7.74469 17.893 7.7528 17.9334 7.82583 17.9172C7.62298 17.8526 7.44448 17.4649 7.59864 17.473L7.64733 17.5296C7.38769 17.1177 6.74669 16.3585 6.42214 16.5039C6.4546 16.4716 6.79537 16.3101 6.8684 16.2939L5.3998 16.2859C5.68378 16.1728 6.08136 15.5267 6.46271 15.7528C6.42214 15.6398 6.38157 15.4944 6.14627 15.3652C6.1625 15.454 5.91908 15.769 5.82983 15.7044C5.91908 15.2764 5.84606 15.4379 5.85417 14.9856C5.87851 15.1148 5.41603 15.2844 5.31866 15.1229C5.39169 15.1068 5.68379 14.8483 5.76492 14.8726L5.12393 14.7595C5.26187 14.8079 5.44848 14.5576 5.49717 14.3961C5.44848 14.4849 5.27809 14.065 5.17261 13.9923L5.19695 14.2103C4.96165 13.7419 4.37746 14.1376 4.1097 13.6854C4.2233 13.6854 4.68578 13.4996 4.58842 13.2493C4.32877 13.2735 3.34701 13.3946 2.94943 13.0635L3.02245 12.9182L2.70601 12.6759C3.12793 12.7082 4.07725 12.8697 4.49916 12.9989C4.49105 12.7809 4.60464 12.8697 4.44237 12.6355C4.49916 12.4821 4.68578 12.6678 4.73447 12.7405C4.6371 12.5386 4.54785 12.3367 4.46671 12.1348C4.24764 12.2963 3.97177 11.836 3.79327 11.9652L4.39369 12.4498C4.18273 12.6113 3.50928 12.4821 3.32266 12.0217C3.36323 11.8602 3.79326 11.8764 3.86629 11.8198C3.75269 11.8117 3.50117 11.5129 3.53362 11.4403L3.76081 11.5533C3.72836 11.2787 3.24964 11.3353 3.33889 10.9395C3.30643 10.8345 3.52551 10.5034 3.37134 10.5519C3.15227 10.8345 2.29221 11.2707 2.03256 11.2464C2.04068 11.198 2.05691 10.568 2.16239 10.3904C2.32466 10.1319 2.80338 10.4388 2.94131 10.2127C2.86829 10.2369 2.74658 10.1723 2.70601 10.1481C2.72224 10.0189 2.94131 10.1077 2.81961 9.88966C2.54374 9.94619 2.66544 9.41317 2.55996 9.85735C2.39769 9.65545 2.52751 9.59085 2.43015 9.33241C2.29221 9.46971 1.76481 9.25973 1.62687 9.02553C1.6999 9.02553 1.77292 8.94477 1.80538 8.91246C1.6999 8.40367 1.78915 8.11294 1.73236 7.64453C1.79727 7.59607 1.85406 7.36187 1.98388 7.45071C1.92709 7.3861 1.82972 7.33764 1.81349 7.19227C2.04068 6.90961 1.87029 7.50724 2.14616 7.28111C1.97577 7.27303 1.91897 6.93384 1.81349 6.73194C1.57008 6.79655 1.75669 7.20843 1.88652 7.40225C1.53762 7.43455 1.15627 7.08729 1.00211 6.54619C0.945315 6.11817 1.23741 6.3766 1.19684 6.29584C1.24552 5.90819 1.13193 5.72244 1.03457 5.55284C0.937202 5.38325 0.847948 5.22173 1.05079 4.90676C1.33478 4.69679 1.47271 5.00368 1.6431 4.98752C1.63499 5.32672 1.4078 5.45593 1.37535 5.69014L1.5214 5.4317C1.57819 5.55284 1.59442 5.7709 1.51328 5.88396C1.63499 5.79512 1.67556 5.48016 1.76481 5.13289C1.85406 4.78563 2.00822 4.39798 2.21107 4.188C2.18673 4.06686 2.21107 3.87304 2.08936 3.90534C2.06502 3.96187 2.04879 4.02648 2.03256 4.08301C1.78915 4.16377 1.98388 3.64691 1.79726 3.83266C1.80538 3.54192 1.82161 3.1462 2.1705 2.89584L2.4058 3.0089C2.349 2.96045 2.12182 3.10582 2.11371 3.24311C2.13805 3.02506 2.73846 3.02506 2.66544 2.68586C2.55185 2.70202 2.44637 2.72624 2.33278 2.75047C2.44637 2.45974 2.62488 1.98325 3.06302 1.86211C2.77092 1.7329 2.99811 1.91864 2.57619 1.82981C2.78715 1.91057 2.54373 2.04786 2.349 2.2013C2.14616 2.35475 2.00011 2.51627 2.27598 2.51627C1.82972 2.48396 1.8216 2.7747 1.36723 2.92007C1.44837 2.96045 1.57008 2.89584 1.35101 3.15427C1.36723 3.1785 1.36723 3.22696 1.37535 3.25118C1.36723 3.25926 1.36724 3.25926 1.35912 3.26734L1.37535 3.25926C1.37535 3.27541 1.38346 3.28349 1.38346 3.25926C1.45649 3.2108 1.5214 3.1785 1.57819 3.18658C1.6431 3.42078 1.4078 3.83266 1.44026 4.0184C1.33478 4.16377 1.38346 3.91342 1.26175 3.96995C1.27798 4.06686 1.2861 4.1557 1.30233 4.24453C1.12382 4.19608 0.856066 4.5918 0.896635 4.14762C0.847952 4.26876 0.807378 4.3899 0.758695 4.51912C0.596419 4.70486 0.474711 5.01983 0.523394 5.21365C0.458483 5.38325 0.653216 5.68206 0.531509 5.51247C0.531509 5.70629 0.547739 5.90819 0.572081 6.10201H0.523394C0.442256 6.68349 0.783038 7.2488 0.531509 7.91104C0.588306 8.09679 0.685674 8.27446 0.685674 8.58942L0.539625 8.67826C0.628877 8.90439 0.555851 9.42125 0.734355 9.48586C0.385461 9.85735 0.993997 10.6246 1.08325 11.0284L1.27798 10.9638C1.38346 11.2222 1.53762 11.4564 1.7567 11.731L1.91086 11.6341C2.1705 11.836 2.12993 12.369 2.36523 12.7728C2.29221 12.7809 2.25164 12.6678 2.24352 12.5709C2.14616 13.2654 3.07925 13.435 3.08736 14.0084C3.20907 14.0811 3.24152 14.1619 3.24964 14.2588C3.24152 14.2507 3.23341 14.2426 3.2253 14.2345C3.23341 14.2426 3.24152 14.2588 3.24964 14.2749C3.24964 14.3395 3.24964 14.4041 3.26587 14.4688C3.27398 14.4041 3.28209 14.3395 3.26587 14.2911C3.32266 14.3718 3.42003 14.4768 3.53362 14.5737L3.4038 14.7353C3.41191 14.7433 3.42003 14.7514 3.42814 14.7595C3.44437 14.9129 3.56608 14.7999 3.64722 14.6545C3.71213 14.6949 3.78515 14.7272 3.85006 14.7433C3.65533 15.0098 4.14216 14.9856 3.95554 15.3006C4.15027 15.2844 4.4586 15.8094 4.79126 15.664C4.75881 15.6963 4.76692 15.7367 4.71824 15.6802C4.78315 15.8255 4.83995 15.9709 5.01034 16.0193L4.84806 16.2132L5.32678 16.2859C5.32678 16.5362 5.31055 16.6573 5.03468 16.6089C5.57019 16.8269 5.36734 16.8592 5.86229 17.0208L5.72435 17.1015C5.82172 17.2146 6.13815 17.2792 6.08947 17.4246C6.0489 17.8687 7.06313 18.7571 7.36334 19.6132C7.6311 19.1932 7.44448 20.0573 7.75281 19.8635C7.69601 19.9685 7.72035 20.1058 7.55808 20.0573C7.73658 20.1946 7.80149 20.3562 7.87452 20.4854C7.94754 20.6146 8.12604 20.8326 8.35323 20.8811C8.32889 21.0345 8.1585 20.8972 8.1585 21.0022C8.20718 21.0345 8.36134 21.0991 8.36134 21.2122C8.36946 21.3253 8.23964 21.2122 8.13416 21.1557C8.62099 21.7614 8.82383 21.4545 8.99422 21.1395C9.10781 21.5353 9.22952 21.6645 9.40803 21.5514C9.44048 21.7614 9.52973 22.0683 9.28632 21.8098C9.37557 21.9471 9.78937 22.6094 10.0003 22.7709C10.0652 22.6336 10.1058 22.5124 10.0977 22.3994C10.1383 22.4478 10.2681 22.1894 10.2924 22.1006C10.5602 21.7452 10.5926 21.7291 10.8523 21.3253L10.763 21.3818C10.7225 20.8892 10.9334 21.0184 11.12 20.6792L11.1363 20.7115C11.7448 20.235 11.2985 20.2915 11.8584 19.9362L11.6799 19.8554C11.3716 19.5728 12.1992 19.5405 12.2722 19.1528L12.1099 19.2013C12.1018 18.959 12.897 19.0721 13.0511 18.9348C13.1079 18.9186 13.0592 19.0236 13.0511 19.0882C13.5542 18.7975 12.8807 18.8863 13.0511 18.5391C13.2053 18.5552 13.2864 18.8136 13.4568 18.6117C13.6191 18.5714 13.5217 17.7395 13.9436 17.5942C13.8138 17.6022 13.684 17.6022 13.7165 17.4084C13.8463 17.1581 14.471 17.0208 14.3412 16.625C14.3818 16.6089 14.4142 16.617 14.4386 16.6331C14.4873 16.407 14.7145 15.987 14.6333 15.7771C15.3068 15.987 15.0958 14.5011 15.607 14.8483L15.9396 14.283L15.9802 14.3315C16.248 14.0003 16.1993 13.7984 16.1506 13.5885C16.2399 13.5319 16.248 13.6208 16.2723 13.645C16.7023 13.1927 16.7186 13.1201 16.7105 12.5224L16.9133 12.579C16.889 12.4013 17.6435 11.9652 17.7247 11.3191C17.7409 11.3353 17.7734 11.3676 17.7734 11.4241C17.8951 10.7215 19.0391 10.2127 18.4793 9.66353L18.5036 9.17897C18.2115 9.67968 18.2521 8.96899 18.0411 9.13051C18.0979 8.91246 18.4874 8.69441 18.4062 8.96092L18.3576 8.98515C18.6659 9.2355 18.7714 8.37945 18.9986 8.49251C19.4286 7.42648 19.9884 6.41698 20.2805 5.35094L19.9641 5.3994L20.0696 5.03598C20.1588 4.95522 20.3292 4.95522 20.2481 5.22173C20.4428 5.11674 20.2156 4.74524 20.1507 4.72102C20.386 4.22838 20.4428 4.9956 20.4834 4.84216L20.5158 4.61603L20.4672 4.65641C20.386 4.45451 20.2643 4.41413 20.3373 4.08301C20.4266 3.87304 20.5321 3.99418 20.5564 3.91342C20.5726 3.91342 20.5889 3.88919 20.5807 3.77612C20.6051 3.59845 20.6294 3.4127 20.6376 3.2108C20.5564 3.29156 20.4834 3.36425 20.4022 3.43693C20.2968 3.19465 20.4022 2.92007 20.1507 3.1785C20.3536 3.0089 20.3617 2.43551 20.102 1.9348C19.8505 1.41793 19.4124 1.11912 19.3556 0.99798C18.958 0.909144 18.674 0.755699 18.2845 0.610331C18.3738 0.691091 18.3332 0.949524 18.0249 0.828384C18.2845 0.319595 17.4569 0.456887 17.1486 0.109619C17.2865 0.238835 17.0188 0.254987 16.7835 0.311519C16.5482 0.368051 16.3535 0.456888 16.5806 0.602256C16.2885 0.610332 16.5319 0.408432 16.2804 0.327672C15.6557 0.683016 14.7794 0.707244 14.114 1.19988C14.1384 1.26449 14.3088 1.28872 14.2276 1.46639C14.0491 1.44216 13.8625 1.40986 13.684 1.40178C13.5704 1.52292 13.7976 1.82173 13.4244 1.78943C13.4893 1.81366 13.5948 1.85404 13.5217 1.9348C12.7996 2.25784 12.2397 2.84738 11.7367 3.45308C11.2336 4.06686 10.763 4.68064 10.0734 5.1975C10.3005 5.08444 10.2356 5.21365 10.1626 5.35902C10.2437 5.28634 10.3168 5.44786 10.406 5.48016C10.2194 5.61745 10.0328 5.7709 9.85428 5.92434C10.0328 6.15047 9.56219 6.57042 9.77314 6.74002L9.81372 6.53004C9.97599 6.89346 10.5845 6.47351 10.9172 6.68348C10.7387 6.26353 11.6961 6.27969 11.5176 5.65783C11.6393 5.61745 11.5744 5.79513 11.6799 5.8032C11.5988 5.61745 11.6474 5.48016 11.8584 5.31056L11.8746 5.35902C12.2641 4.75332 12.5886 4.60795 13.2215 4.11532L13.043 4.0184C13.1809 3.91342 13.254 3.93764 13.3432 3.91342C13.2864 3.56615 12.9862 4.23646 12.8889 3.88919C13.3189 3.99418 13.8057 3.04928 14.2114 3.31579C14.4224 3.16235 14.0167 3.18658 14.2276 3.03313L14.3575 3.08966L14.3169 2.92814C14.4792 2.84738 14.6333 2.92007 14.6982 3.00083C14.6577 3.01698 14.6171 3.08966 14.5846 3.12197C14.8443 3.10582 15.0715 2.7424 15.1607 2.73432L14.9092 2.807C15.4609 2.30629 16.248 2.09632 16.7835 1.77328L16.7186 1.69252C17.1729 1.46639 17.1161 1.72482 17.5867 1.68444L17.5624 1.70059C17.6679 1.62791 17.8139 1.60368 17.9438 1.66021C17.7977 1.72482 18.0898 1.92672 17.9032 1.98325C18.3738 1.99133 18.1466 1.92672 18.601 1.80558L18.5766 1.9671C18.7389 1.92672 18.8119 1.87019 19.0148 2.03978C18.7876 1.97518 18.9337 2.29822 18.674 2.25784C18.6902 2.52434 18.8038 2.58088 18.9174 2.67779C19.0229 2.7747 19.0959 2.89584 18.8687 3.02506C19.3231 3.18658 19.0229 2.58088 19.1203 2.68586C19.2176 2.52434 19.4854 2.79085 19.461 3.00083C19.4692 3.2108 18.9661 3.32387 18.9174 3.7519C18.9255 3.71152 18.8931 3.70344 18.9012 3.65498C18.7795 3.80035 18.9986 4.01033 18.7795 4.19608C18.9986 4.37375 18.6983 4.48681 19.0067 4.5918C19.0148 4.43028 19.031 4.27684 19.031 4.12339C19.0635 4.3899 19.3637 4.72102 19.0878 5.11674C19.031 5.06828 18.9823 4.92292 18.958 4.81793C18.8363 4.92292 18.9661 5.07636 18.8363 5.18135C18.5361 5.06828 18.9012 4.60795 18.7227 4.28491C18.5604 4.3899 18.8282 4.85023 18.5198 4.64026C18.9012 4.93907 18.3576 5.10866 18.5848 5.52054L18.4062 5.44786C18.4225 5.50439 18.4793 5.64168 18.4468 5.73859L18.2521 5.49631C18.3819 5.81935 17.9275 5.94857 17.9519 6.23123C18.1223 5.70629 18.2115 6.18277 18.4225 6.0051C18.4387 6.74002 17.8302 6.23123 17.6517 6.97422C17.6598 6.86923 17.8951 6.65118 17.9275 6.82885C17.8383 6.94999 17.7003 7.10344 17.5786 7.15189C17.4407 7.63645 17.7896 7.15189 17.8221 7.39417C17.5462 7.47493 17.8221 7.66068 17.7977 7.90296L17.6192 7.83028C17.2784 8.32291 17.9356 8.12909 17.5867 8.55712L17.4245 8.24215L17.3758 8.52481L17.1973 8.37945C17.2216 8.71864 17.1405 8.78325 16.962 9.02553C17.1162 9.02553 17.2703 9.21127 17.1567 9.45355C16.9701 9.55854 17.035 9.28396 16.889 9.62315C16.8159 9.49393 16.7186 9.34857 16.9539 9.28396C16.9052 9.24358 16.8809 9.15474 16.8322 9.11436C16.6293 9.22742 16.5887 9.52624 16.5319 9.64738C16.5644 9.607 16.5969 9.55854 16.6374 9.54239V10.14C16.532 10.1804 16.5157 10.0916 16.4914 10.0108C16.4589 10.1158 16.4995 10.2208 16.4427 10.3742C16.321 10.2612 16.1749 10.1965 16.2155 9.96234L16.1263 10.4954C16.0532 10.4954 15.8342 10.6327 15.8179 10.5519C15.5989 10.7538 15.7449 11.303 15.4447 11.5695C15.4609 11.6018 15.469 11.6502 15.4447 11.731C15.2337 12.0217 14.9011 12.1832 14.8605 12.6517L14.4954 12.7001C14.3737 13.0151 14.9741 12.6193 14.7713 13.1362C14.6333 13.5158 14.4873 13.1281 14.3412 13.2008C14.3575 13.4431 14.4224 13.8873 14.0248 14.0569C14.0897 13.8954 14.1789 13.8388 14.2195 13.7338ZM11.9963 17.2146C12.0126 17.1258 11.9963 16.9239 12.1262 16.94C12.256 17.1419 12.1262 17.1419 11.9963 17.2146ZM9.28632 20.0331C9.35123 20.0089 9.36746 20.0896 9.38369 20.2269C9.34312 20.1946 9.30254 20.13 9.28632 20.0331ZM0.815492 4.81793L0.823607 4.826C0.7019 5.01175 0.750581 4.94714 0.815492 4.81793ZM1.01834 4.4222C1.00211 4.37375 0.977771 4.36567 0.945316 4.37375C0.985885 4.4222 0.953429 4.51104 0.91286 4.61603C0.969656 4.59988 1.02645 4.5595 1.01834 4.4222ZM20.524 3.84881L20.459 3.92149C20.4266 3.73574 20.4672 3.79228 20.524 3.84881Z" fill="#844C3A"/>
<path d="M9.68314 20.1139C9.68314 20.1623 9.67507 20.2188 9.66699 20.2673C9.69122 20.235 9.69929 20.1865 9.68314 20.1139Z" fill="#844C3A"/>
<path d="M15.4771 11.5291L15.4852 11.521C15.4771 11.5129 15.469 11.4968 15.4609 11.4887L15.4771 11.5291Z" fill="#844C3A"/>
<path d="M2.99767 10.0431C2.99767 10.1239 2.98152 10.1723 2.94922 10.2127C2.99767 10.1965 3.02998 10.1562 2.99767 10.0431Z" fill="#844C3A"/>
<path d="M2.07229 2.13672C1.99926 2.22555 1.92624 2.31439 1.86133 2.4113C1.96681 2.29016 2.03983 2.28209 2.12097 2.24978C2.08851 2.21748 1.99926 2.2094 2.07229 2.13672Z" fill="#844C3A"/>
<path d="M4.78999 2.45974C4.83037 2.44359 4.86267 2.46781 4.90305 2.45166L4.91113 2.36283C4.75768 2.33052 4.64462 2.41128 4.78999 2.45974Z" fill="#844C3A"/>
<path d="M2.71387 2.45166C2.83533 2.5728 2.9325 2.41935 3.09446 2.29821C3.08636 2.30629 3.07826 2.31437 3.06206 2.31437C3.00538 2.08016 2.84343 2.26591 2.71387 2.45166Z" fill="#844C3A"/>
<path d="M3.13574 2.274C3.1842 2.23362 3.24073 2.20939 3.29727 2.19324C3.28919 2.09633 3.22458 2.19324 3.13574 2.274Z" fill="#844C3A"/>
<path d="M1.12174 3.85688C1.19443 3.78419 0.952142 3.71151 1.04098 3.69536C0.879458 3.50961 1.01676 4.38989 1.12174 3.85688Z" fill="#844C3A"/>
<path d="M3.15104 2.80701L2.98145 2.6778C2.98145 2.7424 2.98952 2.79894 2.99759 2.86354C3.04605 2.83932 3.10258 2.82316 3.15104 2.80701Z" fill="#844C3A"/>
<path d="M2.13 3.68729C2.19491 3.61461 2.25982 3.55 2.33284 3.48539C2.30039 3.46924 2.3085 3.42886 2.31662 3.3804C2.20302 3.52577 2.0732 3.66306 2.13 3.68729Z" fill="#844C3A"/>
<path d="M2.31641 3.38848C2.37294 3.3158 2.42139 3.25119 2.42947 3.18658C2.39717 3.23504 2.34063 3.3158 2.31641 3.38848Z" fill="#844C3A"/>
<path d="M2.90034 3.07352L2.81109 3.09775C2.76241 3.13813 2.71372 3.17851 2.66504 3.21889C2.74618 3.16235 2.82732 3.12197 2.90034 3.07352Z" fill="#844C3A"/>
<path d="M1.3418 6.51387C1.34987 6.61078 1.38218 6.71577 1.39833 6.81268C1.47101 6.84499 1.51139 6.76423 1.47909 6.65116C1.43063 6.57848 1.41448 6.46541 1.3418 6.51387Z" fill="#844C3A"/>
<path d="M1.98387 5.69821C1.92707 5.76282 1.8865 5.76282 1.81348 5.79512L2.065 5.8355L1.98387 5.69821Z" fill="#844C3A"/>
<path d="M1.95898 6.50581C2.01552 6.53811 2.15281 6.90153 2.13666 6.56234C2.07205 6.53004 2.03974 6.25545 1.95898 6.50581Z" fill="#844C3A"/>
<path d="M2.52625 10.7054L2.49386 10.6407L2.11328 10.8103L2.52625 10.7054Z" fill="#844C3A"/>
<path d="M5.21946 13.5319C5.12228 13.2008 4.96033 13.6046 4.90365 13.2816C4.78219 13.2654 4.95223 13.5481 4.83887 13.5239C5.03321 13.6369 5.04131 13.7581 5.21946 13.5319Z" fill="#844C3A"/>
<path d="M4.83936 13.5239C4.80706 13.5077 4.77476 13.4835 4.73438 13.4673C4.78283 13.5077 4.81513 13.5158 4.83936 13.5239Z" fill="#844C3A"/>
<path d="M9.48822 6.19894L9.31055 6.38469L9.4963 6.30393L9.48822 6.19894Z" fill="#844C3A"/>
<path d="M9.58612 6.74002L9.31836 6.69156L9.48063 6.90961C9.48875 6.86116 9.51309 6.75617 9.58612 6.74002Z" fill="#844C3A"/>
<path d="M11.209 17.4246L11.2495 17.473C11.3226 17.4811 11.3631 17.4407 11.4281 17.368L11.209 17.4246Z" fill="#844C3A"/>
<path d="M13.0823 15.0664L13.0498 15.0987L13.3013 15.1552L13.0823 15.0664Z" fill="#844C3A"/>
<path d="M14.2027 12.8212C14.1378 12.902 14.1216 13.0312 14.0566 13.112C14.1459 12.902 14.4704 12.9585 14.2027 12.8212Z" fill="#844C3A"/>
</svg>
