<svg width="25" height="29" viewBox="0 0 25 29" fill="none" xmlns="http://www.w3.org/2000/svg">
<path d="M12.5606 10.47C12.6006 10.57 12.7506 10.41 12.7906 10.4C12.6606 10.3 12.5106 10.51 12.5606 10.47Z" fill="#BD7C67"/>
<path d="M11.2705 9.10004H11.3605L11.0605 8.92004L11.2705 9.10004Z" fill="#BD7C67"/>
<path d="M10.5699 7.37C10.3099 7.67 10.8799 7.98999 10.8799 8.34999L10.8199 8.42999L11.1399 8.46C10.9599 8.11 10.5899 7.68 10.5699 7.37Z" fill="#BD7C67"/>
<path d="M10.8798 6.09998C10.7798 6.21998 10.6798 5.92998 10.9398 6.34998C10.9398 6.31998 10.9498 6.30998 10.9498 6.28998C10.9398 6.25998 10.9098 6.19998 10.8798 6.09998Z" fill="#BD7C67"/>
<path d="M10.96 6.29995C11.05 6.48995 11.01 6.11995 10.96 6.29995V6.29995Z" fill="#BD7C67"/>
<path d="M10.46 5.41003L10.7 5.62003C10.75 5.53003 10.64 5.28003 10.74 5.34003C10.54 5.10003 10.5 5.20003 10.46 5.41003Z" fill="#BD7C67"/>
<path d="M10.1006 5.29004L10.2206 5.40004C10.2306 5.36004 10.2206 5.31004 10.1006 5.29004Z" fill="#BD7C67"/>
<path d="M10.4604 5.63001L10.2203 5.39001C10.1903 5.45001 10.0904 5.51001 10.3204 5.50001C10.2104 5.53001 10.3304 5.54001 10.4604 5.63001Z" fill="#BD7C67"/>
<path d="M10.4898 5.81995C10.4898 5.99995 10.5298 6.19995 10.2998 5.99995C10.5598 6.45995 10.7598 6.28995 10.4898 5.81995Z" fill="#BD7C67"/>
<path d="M10.1997 7.42004L10.1797 7.64004L10.3497 7.75004C10.2597 7.70004 10.2897 7.36004 10.1997 7.42004Z" fill="#BD7C67"/>
<path d="M9.52988 3.65002C9.45988 3.68002 9.43988 3.86002 9.37988 3.94002L9.58988 4.07002C9.55988 3.95002 9.44988 3.74002 9.52988 3.65002Z" fill="#BD7C67"/>
<path d="M9.38055 3.95002C9.28055 3.89002 9.17055 3.83002 9.06055 3.77002C9.25055 4.00002 9.33055 4.02002 9.38055 3.95002Z" fill="#BD7C67"/>
<path d="M9.71992 5.42997C9.87992 5.53997 10.0399 5.64997 10.1999 5.75997C10.0299 5.61997 9.84992 5.47997 9.66992 5.33997L9.71992 5.42997Z" fill="#BD7C67"/>
<path d="M8.55012 2.66L8.82012 2.67L8.37012 2.63L8.55012 2.66Z" fill="#BD7C67"/>
<path d="M7.75988 2.13001C7.97988 2.09001 7.69988 1.80001 7.88988 1.82001C7.64988 1.69001 7.35988 1.70001 7.12988 1.70001C7.34988 1.75001 7.57988 1.87001 7.75988 2.13001Z" fill="#BD7C67"/>
<path d="M6.74023 1.70997C6.86023 1.71997 6.99023 1.70997 7.13023 1.69997C7.01023 1.67997 6.88023 1.67997 6.74023 1.70997Z" fill="#BD7C67"/>
<path d="M8.68008 3.31997C8.69008 3.26997 8.74008 3.13997 8.62008 2.96997L8.58008 3.21997C8.61008 3.24997 8.64008 3.27997 8.68008 3.31997Z" fill="#BD7C67"/>
<path d="M8.58012 3.23002C8.47012 3.12002 8.40012 3.05002 8.37012 3.02002C8.39012 3.04002 8.46012 3.11002 8.58012 3.23002Z" fill="#BD7C67"/>
<path d="M8.69981 3.33995L8.67981 3.31995C8.66981 3.33995 8.66981 3.34995 8.69981 3.33995Z" fill="#BD7C67"/>
<path d="M9.43996 4.60005C9.22996 4.50005 8.88996 4.28005 8.96996 4.68005C9.16996 4.71005 9.11996 4.46005 9.43996 4.60005Z" fill="#BD7C67"/>
<path d="M8.62988 3.65002C8.70988 3.74002 8.76988 3.84002 8.83988 3.94002C8.87988 3.90002 8.89988 3.79002 9.00988 3.83002C8.87988 3.77002 8.75988 3.70002 8.62988 3.65002Z" fill="#BD7C67"/>
<path d="M8.45996 3.58004L8.62996 3.65004L8.54996 3.54004L8.45996 3.58004Z" fill="#BD7C67"/>
<path d="M7.29047 2.19005C7.10047 2.19005 6.93047 2.11005 6.73047 2.05005C6.93047 2.17005 7.11047 2.30005 7.30047 2.40005C7.36047 2.36005 7.50047 2.30005 7.29047 2.19005Z" fill="#BD7C67"/>
<path d="M7.95016 2.68004L7.91016 2.67004C7.92016 2.69004 7.93016 2.71004 7.95016 2.68004Z" fill="#BD7C67"/>
<path d="M4.58008 1.68994L4.62008 1.71994L4.63008 1.68994H4.58008Z" fill="#BD7C67"/>
<path d="M7.31039 2.45002C7.43039 2.57002 7.53039 2.58002 7.65039 2.57002C7.53039 2.52002 7.42039 2.46002 7.30039 2.40002C7.27039 2.42002 7.26039 2.44002 7.31039 2.45002Z" fill="#BD7C67"/>
<path d="M6.12012 1.61004C6.20012 1.68004 6.29012 1.75004 6.39012 1.81004C6.32012 1.72004 6.16012 1.57004 6.12012 1.61004Z" fill="#BD7C67"/>
<path d="M7.90039 2.58999L7.93039 2.59999C7.91039 2.51999 7.90039 2.54999 7.90039 2.58999Z" fill="#BD7C67"/>
<path d="M7.90039 2.58995C7.82039 2.55995 7.73039 2.56995 7.65039 2.57995C7.74039 2.61995 7.83039 2.64995 7.91039 2.66995C7.90039 2.63995 7.90039 2.60995 7.90039 2.58995Z" fill="#BD7C67"/>
<path d="M4.24977 3.12997C4.19977 2.92997 4.54977 2.65997 4.86977 2.86997C5.15977 2.70997 5.02977 2.05997 4.61977 1.71997C4.61977 1.80997 4.60977 1.86997 4.23977 2.05997C4.40977 2.11997 5.09977 2.23997 4.79977 2.42997C4.34977 2.55997 4.41977 2.40997 4.15977 2.33997C4.38977 2.52997 3.68977 2.84997 3.92977 3.15997C4.01977 3.07997 4.11977 3.00997 4.21977 2.92997C4.23977 2.98997 4.14977 3.10997 4.24977 3.12997Z" fill="#BD7C67"/>
<path d="M5.42012 1.75994C5.48012 1.75994 5.54012 1.74994 5.59012 1.75994C5.40012 1.69994 5.27011 1.60994 5.00011 1.43994C4.69011 1.53994 4.64012 1.61994 4.62012 1.68994C4.91012 1.67994 5.20012 1.69994 5.47012 1.73994L5.42012 1.75994Z" fill="#BD7C67"/>
<path d="M6.32059 1.93C6.13059 2.09 5.76058 2.09 5.91058 2.37C6.32058 2.49 6.26058 2.28 6.54058 2.29C5.83058 2.09 6.79059 2.24 6.32059 1.95C6.48059 1.96 6.61058 2 6.73058 2.04C6.62058 1.96 6.51059 1.89 6.39059 1.81L6.40058 1.83C6.42058 1.87 6.43058 1.88 6.40058 1.86H6.38058C6.36058 1.89 6.34059 1.91 6.32059 1.93C6.12059 1.82 6.30058 1.86 6.38058 1.86C6.39058 1.85 6.40058 1.84 6.40058 1.83C6.14058 1.78 5.87059 1.76 5.60059 1.75C5.75059 1.82 5.97059 1.84 6.32059 1.93Z" fill="#BD7C67"/>
<path d="M8.40019 4.70999C8.40019 4.67999 8.42018 4.66999 8.43018 4.65999C8.38018 4.64999 8.36019 4.64999 8.40019 4.70999Z" fill="#BD7C67"/>
<path d="M8.33984 4.43002C8.38984 4.44002 8.48984 4.41001 8.55984 4.54001C8.58984 4.68001 8.47984 4.60001 8.42984 4.66001C8.52984 4.69001 8.73984 4.81002 8.64984 4.52002L8.59985 4.50001C8.49985 4.26001 8.45984 3.83002 8.50984 3.84002C8.42984 4.04002 8.36984 4.19002 8.33984 4.43002Z" fill="#BD7C67"/>
<path d="M7.52 3.13004C7.35 3.05004 7.17 2.99004 7 2.92004C7.05 3.02004 7.09001 3.12004 7.14001 3.22004L7.19 3.12004C7.42 3.33004 7.44 3.18004 7.52 3.13004Z" fill="#BD7C67"/>
<path d="M4.49043 1.58998L4.57043 1.35999C4.43043 1.46999 4.31043 1.60999 4.19043 1.73999L4.49043 1.58998Z" fill="#BD7C67"/>
<path d="M3.59035 1.82L3.56036 1.62C3.49036 1.69 3.42035 1.74 3.36035 1.82C3.44035 1.81 3.51035 1.82 3.59035 1.82Z" fill="#BD7C67"/>
<path d="M15.6602 18.98L15.7002 18.83C15.6702 18.89 15.6602 18.94 15.6602 18.98Z" fill="#BD7C67"/>
<path d="M15.0498 19.83L15.1198 19.91C15.0998 19.84 15.0798 19.8 15.0498 19.83Z" fill="#BD7C67"/>
<path d="M3.55015 17.77C3.51015 18.05 3.41015 18.42 3.58015 18.27L3.72015 18.09C3.61015 17.99 3.56015 17.88 3.55015 17.77Z" fill="#BD7C67"/>
<path d="M11.0997 25.68C11.0997 25.64 11.0897 25.6 11.0897 25.55C11.0397 25.6 10.9797 25.64 10.9297 25.68C10.9797 25.68 11.0397 25.68 11.0997 25.68Z" fill="#BD7C67"/>
<path d="M11.4404 24.64L11.5004 24.95C11.4904 24.85 11.4704 24.75 11.4404 24.64Z" fill="#BD7C67"/>
<path d="M18.5201 14.1L18.4101 13.85C18.2901 14.06 18.4401 14.02 18.5201 14.1Z" fill="#BD7C67"/>
<path d="M0.169722 8.63C0.0797216 8.84 0.0597231 9.01 0.0697231 9.15C0.159723 8.89 0.349722 8.69 0.169722 8.63Z" fill="#BD7C67"/>
<path d="M17.3202 20.6199C17.3402 20.5199 17.3202 20.4699 17.2802 20.4399C17.2602 20.5399 17.2702 20.6099 17.3202 20.6199Z" fill="#BD7C67"/>
<path d="M0.120157 9.74002C0.140157 9.70002 0.150158 9.66003 0.160158 9.63003C0.110158 9.49003 0.0701591 9.34002 0.0601591 9.15002C-0.00984094 9.34002 -0.0498434 9.56002 0.120157 9.74002Z" fill="#BD7C67"/>
<path d="M17.4602 3.68005C17.4402 3.68005 17.4302 3.69005 17.4102 3.68005C17.4302 3.71005 17.4402 3.70005 17.4602 3.68005Z" fill="#BD7C67"/>
<path d="M11.9004 6.69996C11.9204 6.63996 11.9704 6.54996 12.0204 6.45996C11.9804 6.48996 11.9404 6.55996 11.9004 6.69996Z" fill="#BD7C67"/>
<path d="M0.94043 4.07C1.01043 3.91 0.94043 4.03 0.94043 4.07V4.07Z" fill="#BD7C67"/>
<path d="M2.08984 3.85999C2.08984 3.89999 2.09985 3.93999 2.13985 3.96999C2.10985 3.92999 2.08984 3.88999 2.08984 3.85999Z" fill="#BD7C67"/>
<path d="M1.71973 10.9V10.91C1.74973 10.86 1.74973 10.87 1.71973 10.9Z" fill="#BD7C67"/>
<path d="M1.16023 3.89001C1.10023 3.93001 1.05023 3.99001 0.990234 4.05001C1.02023 4.03001 1.07023 3.98001 1.16023 3.89001Z" fill="#BD7C67"/>
<path d="M1.0498 3.86996C1.0898 3.81996 1.1198 3.78996 1.1498 3.74996C1.1298 3.70996 1.0998 3.71996 1.0498 3.86996Z" fill="#BD7C67"/>
<path d="M0.839844 4.29005C0.879844 4.20005 0.929845 4.12005 0.989845 4.05005C0.959845 4.07005 0.939842 4.08005 0.939842 4.07005C0.919842 4.11005 0.889844 4.18005 0.839844 4.29005Z" fill="#BD7C67"/>
<path d="M22.8703 5.78999C22.8803 5.77999 22.8903 5.77999 22.9003 5.76999C22.8403 5.60999 22.8403 5.67999 22.8703 5.78999Z" fill="#BD7C67"/>
<path d="M7.46996 19.38H7.45996V19.4L7.46996 19.38Z" fill="#BD7C67"/>
<path d="M7.8998 19.67C7.5598 19.67 7.50981 19.55 7.45981 19.39L7.0498 19.89L7.8998 19.67Z" fill="#BD7C67"/>
<path d="M16.9906 16.87L16.6406 17.05C16.6006 16.53 16.8505 16.35 16.4506 16.46C16.9906 16.87 15.7906 17.59 16.3206 18.01L16.0805 18.12C16.1205 18.07 16.0906 18.04 16.1406 17.99C15.6306 18.17 16.3705 18.53 15.9705 18.95C15.8205 19.08 15.6606 19.14 15.6706 18.98L15.5606 19.44C15.4806 19.54 15.4005 19.45 15.4805 19.35L15.1306 19.93L15.1205 19.91C15.1505 20.05 15.1705 20.32 15.1605 20.45C14.9805 20.54 15.1505 20.34 15.0505 20.33L14.9705 20.73C14.7405 20.75 14.7705 20.4 14.9405 20.21C14.1805 20.11 14.9105 20.56 14.1505 20.95L14.2806 20.61C13.8306 20.58 13.7905 20.88 13.3705 21.07C13.5305 21.06 14.3205 20.76 14.2305 21.19C14.1205 21.25 14.0205 21.36 14.0105 21.62C13.8105 21.48 13.7406 21.69 13.6006 21.92L13.3506 21.72C13.2606 22.01 13.4105 22.08 13.4305 22.3C13.2205 22.55 12.9805 22.46 12.7605 22.4C12.4305 22.79 13.2906 22.33 12.9906 22.87C12.6606 23.14 12.5605 23.51 12.4705 23.97C12.3005 24.02 12.3305 23.83 12.2305 23.81C12.2805 23.89 12.3205 23.98 12.3605 24.08C12.3405 24.1 12.2906 24.03 12.2705 24C12.2806 24.16 12.4906 24.25 12.4206 24.5C12.5106 24.69 12.3505 24.68 12.2205 24.65C12.0805 24.63 11.9905 24.56 11.9705 24.94C11.9205 24.86 11.9405 24.64 11.9005 24.48C11.8405 24.87 11.8105 24.97 11.7505 25.22C11.7405 25.29 11.7006 25.36 11.6306 25.46C11.5806 25.27 11.5306 25.1 11.4906 24.94C11.5706 25.43 11.3905 25.67 11.0905 25.67C11.1205 25.9 11.1505 26.11 11.1805 26.23C11.0405 26.15 10.8906 26.05 10.7406 25.94C10.7106 25.82 10.8005 25.76 10.9105 25.68C10.8805 25.68 10.8406 25.68 10.8106 25.68C10.7306 25.38 10.8905 25.29 11.0405 25.18C11.0505 25.3 11.0606 25.42 11.0706 25.55C11.2206 25.42 11.3305 25.21 11.3605 24.95C11.3405 24.98 11.3005 24.98 11.2605 24.97C11.2905 24.92 11.3106 24.88 11.3206 24.83C11.3206 24.78 11.2805 24.84 11.2205 24.89C11.2505 24.73 11.2806 24.57 11.3106 24.43L11.2406 24.57C11.1906 24.38 11.1506 24.21 11.1306 24.06C10.9506 24.12 10.7006 24.16 10.3506 24.03C10.0306 23.93 9.70055 23.79 9.40055 23.51C9.73055 23.51 9.76055 23.28 10.0105 23.1C9.89055 23.48 10.5006 23.51 10.7006 23.88C10.5906 23.69 10.7406 23.63 10.8106 23.64L10.1205 23.23C10.3305 23.09 10.1706 22.99 10.1406 22.77C9.83055 23.19 9.54055 22.53 9.23055 22.38C9.35055 22.26 9.53055 22.22 9.73055 22.53C9.78055 21.98 8.94055 22.47 8.95055 21.95C9.01055 22.02 9.02055 22.07 9.11055 22.05C8.86055 21.97 8.64055 21.49 8.83055 21.5L8.89055 21.57C8.57055 21.06 7.78055 20.12 7.38055 20.3C7.42055 20.26 7.84055 20.06 7.93055 20.04L6.12055 20.03C6.47055 19.89 6.96055 19.09 7.43055 19.37C7.38055 19.23 7.33055 19.05 7.04055 18.89C7.06055 19 6.76055 19.39 6.65055 19.31C6.76055 18.78 6.67055 18.98 6.68055 18.42C6.71055 18.58 6.14055 18.79 6.02055 18.59C6.11055 18.57 6.47055 18.25 6.57055 18.28L5.78055 18.14C5.95055 18.2 6.18055 17.89 6.24055 17.69C6.18055 17.8 5.97055 17.28 5.84055 17.19L5.87055 17.46C5.58055 16.88 4.86055 17.37 4.53055 16.81C4.67055 16.81 5.24055 16.58 5.12055 16.27C4.80055 16.3 3.59055 16.45 3.10055 16.04L3.19055 15.86L2.80055 15.56C3.32055 15.6 4.49055 15.8 5.01055 15.96C5.00055 15.69 5.14055 15.8 4.94055 15.51C5.01055 15.32 5.24055 15.55 5.30055 15.64C5.18055 15.39 5.07055 15.14 4.97055 14.89C4.70055 15.09 4.36055 14.52 4.14055 14.68L4.88055 15.28C4.62055 15.48 3.79055 15.32 3.56055 14.75C3.61055 14.55 4.14055 14.57 4.23055 14.5C4.09055 14.49 3.78055 14.12 3.82055 14.03L4.10055 14.17C4.06055 13.83 3.47055 13.9 3.58055 13.41C3.54055 13.28 3.81055 12.87 3.62055 12.93C3.35055 13.28 2.29055 13.82 1.97055 13.79C1.98055 13.73 2.00055 12.95 2.13055 12.73C2.33055 12.41 2.92055 12.79 3.09055 12.51C3.00055 12.54 2.85055 12.46 2.80055 12.43C2.82055 12.27 3.09055 12.38 2.94055 12.11C2.60055 12.18 2.75055 11.52 2.62055 12.07C2.42055 11.82 2.58055 11.74 2.46055 11.42C2.29055 11.59 1.64055 11.33 1.47055 11.04C1.56055 11.04 1.65055 10.94 1.69055 10.9C1.56055 10.27 1.67055 9.91 1.60055 9.33C1.68055 9.27 1.75055 8.98 1.91055 9.09C1.84055 9.01 1.72055 8.95 1.70055 8.77C1.98055 8.42 1.77055 9.16 2.11055 8.88C1.90055 8.87 1.83055 8.45 1.70055 8.2C1.40055 8.28 1.63055 8.79 1.79055 9.03C1.36055 9.07 0.89055 8.64 0.70055 7.97C0.63055 7.44 0.990548 7.76 0.940548 7.66C1.00055 7.18 0.860551 6.95 0.740551 6.74C0.620551 6.53 0.510548 6.33 0.760548 5.94C1.11055 5.68 1.28055 6.06 1.49055 6.04C1.48055 6.46 1.20055 6.62 1.16055 6.91L1.34055 6.59C1.41055 6.74 1.43055 7.01 1.33055 7.15C1.48055 7.04 1.53055 6.65 1.64055 6.22C1.75055 5.79 1.94055 5.31 2.19055 5.05C2.16055 4.9 2.19055 4.66 2.04055 4.7C2.01055 4.77 1.99055 4.85 1.97055 4.92C1.67055 5.02 1.91055 4.38 1.68055 4.61C1.69055 4.25 1.71055 3.76 2.14055 3.45L2.43055 3.59C2.36055 3.53 2.08055 3.71 2.07055 3.88C2.10055 3.61 2.84055 3.61 2.75055 3.19C2.61055 3.21 2.48055 3.24 2.34055 3.27C2.48055 2.91 2.70055 2.32 3.24055 2.17C2.88055 2.01 3.16055 2.24 2.64055 2.13C2.90055 2.23 2.60055 2.4 2.36055 2.59C2.11055 2.78 1.93055 2.98 2.27055 2.98C1.72055 2.94 1.71055 3.3 1.15055 3.48C1.25055 3.53 1.40055 3.45 1.13055 3.77C1.15055 3.8 1.15055 3.86 1.16055 3.89C1.15055 3.9 1.15055 3.9 1.14055 3.91L1.16055 3.9C1.16055 3.92 1.17055 3.93 1.17055 3.9C1.26055 3.84 1.34055 3.8 1.41055 3.81C1.49055 4.1 1.20055 4.61 1.24055 4.84C1.11055 5.02 1.17055 4.71 1.02055 4.78C1.04055 4.9 1.05055 5.01 1.07055 5.12C0.850553 5.06 0.520553 5.55 0.570553 5C0.510553 5.15 0.460547 5.3 0.400547 5.46C0.200547 5.69 0.0505461 6.08 0.110546 6.32C0.0305461 6.53 0.270548 6.9 0.120548 6.69C0.120548 6.93 0.140551 7.18 0.170551 7.42H0.110546C0.0105461 8.14 0.430548 8.84 0.120548 9.66C0.190548 9.89 0.310551 10.11 0.310551 10.5L0.13055 10.61C0.24055 10.89 0.150548 11.53 0.370548 11.61C-0.0594518 12.07 0.690549 13.02 0.800549 13.52L1.04055 13.44C1.17055 13.76 1.36055 14.05 1.63055 14.39L1.82055 14.27C2.14055 14.52 2.09055 15.18 2.38055 15.68C2.29055 15.69 2.24055 15.55 2.23055 15.43C2.11055 16.29 3.26055 16.5 3.27055 17.21C3.42055 17.3 3.46055 17.4 3.47055 17.52C3.46055 17.51 3.45055 17.5 3.44055 17.49C3.45055 17.5 3.46055 17.52 3.47055 17.54C3.47055 17.62 3.47055 17.7 3.49055 17.78C3.50055 17.7 3.51055 17.62 3.49055 17.56C3.56055 17.66 3.68055 17.79 3.82055 17.91L3.66055 18.11C3.67055 18.12 3.68055 18.13 3.69055 18.14C3.71055 18.33 3.86055 18.19 3.96055 18.01C4.04055 18.06 4.13055 18.1 4.21055 18.12C3.97055 18.45 4.57055 18.42 4.34055 18.81C4.58055 18.79 4.96055 19.44 5.37055 19.26C5.33055 19.3 5.34055 19.35 5.28055 19.28C5.36055 19.46 5.43055 19.64 5.64055 19.7L5.44055 19.94L6.03055 20.03C6.03055 20.34 6.01055 20.49 5.67055 20.43C6.33055 20.7 6.08055 20.74 6.69055 20.94L6.52055 21.04C6.64055 21.18 7.03055 21.26 6.97055 21.44C6.92055 21.99 8.17055 23.09 8.54055 24.15C8.87055 23.63 8.64055 24.7 9.02055 24.46C8.95055 24.59 8.98055 24.76 8.78055 24.7C9.00055 24.87 9.08055 25.07 9.17055 25.23C9.26055 25.39 9.48055 25.66 9.76055 25.72C9.73055 25.91 9.52055 25.74 9.52055 25.87C9.58055 25.91 9.77055 25.99 9.77055 26.13C9.78055 26.27 9.62055 26.13 9.49055 26.06C10.0906 26.81 10.3405 26.43 10.5505 26.04C10.6905 26.53 10.8406 26.69 11.0606 26.55C11.1006 26.81 11.2105 27.19 10.9105 26.87C11.0205 27.04 11.5305 27.86 11.7905 28.06C11.8705 27.89 11.9205 27.74 11.9105 27.6C11.9605 27.66 12.1205 27.34 12.1505 27.23C12.4805 26.79 12.5205 26.77 12.8405 26.27L12.7305 26.34C12.6805 25.73 12.9406 25.89 13.1706 25.47L13.1905 25.51C13.9405 24.92 13.3905 24.99 14.0805 24.55L13.8605 24.45C13.4805 24.1 14.5005 24.06 14.5905 23.58L14.3906 23.64C14.3806 23.34 15.3605 23.48 15.5505 23.31C15.6205 23.29 15.5605 23.42 15.5505 23.5C16.1705 23.14 15.3405 23.25 15.5505 22.82C15.7405 22.84 15.8405 23.16 16.0505 22.91C16.2505 22.86 16.1305 21.83 16.6505 21.65C16.4905 21.66 16.3305 21.66 16.3705 21.42C16.5305 21.11 17.3006 20.94 17.1406 20.45C17.1906 20.43 17.2305 20.44 17.2605 20.46C17.3205 20.18 17.6005 19.66 17.5005 19.4C18.3305 19.66 18.0705 17.82 18.7005 18.25L19.1105 17.55L19.1605 17.61C19.4905 17.2 19.4306 16.95 19.3706 16.69C19.4806 16.62 19.4905 16.73 19.5205 16.76C20.0506 16.2 20.0705 16.11 20.0605 15.37L20.3105 15.44C20.2805 15.22 21.2105 14.68 21.3105 13.88C21.3305 13.9 21.3706 13.94 21.3706 14.01C21.5206 13.14 22.9306 12.51 22.2406 11.83L22.2705 11.23C21.9105 11.85 21.9605 10.97 21.7005 11.17C21.7705 10.9 22.2506 10.63 22.1506 10.96L22.0905 10.99C22.4705 11.3 22.6005 10.24 22.8806 10.38C23.4106 9.06 24.1006 7.81 24.4606 6.49L24.0706 6.55L24.2005 6.1C24.3105 6 24.5205 6 24.4205 6.33C24.6605 6.2 24.3805 5.74 24.3005 5.71C24.5905 5.1 24.6606 6.05 24.7106 5.86L24.7505 5.58L24.6905 5.63C24.5905 5.38 24.4405 5.33 24.5305 4.92C24.6405 4.66 24.7705 4.81 24.8005 4.71C24.8205 4.71 24.8405 4.68 24.8305 4.54C24.8605 4.32 24.8906 4.09 24.9006 3.84C24.8006 3.94 24.7105 4.03 24.6105 4.12C24.4805 3.82 24.6105 3.48 24.3005 3.8C24.5505 3.59 24.5606 2.88 24.2406 2.26C23.9306 1.62 23.3906 1.25 23.3206 1.1C22.8306 0.99 22.4805 0.8 22.0005 0.62C22.1105 0.72 22.0606 1.04 21.6806 0.89C22.0006 0.26 20.9806 0.43 20.6006 0C20.7706 0.16 20.4406 0.18 20.1506 0.25C19.8606 0.32 19.6206 0.430001 19.9006 0.610001C19.5406 0.620001 19.8405 0.37 19.5305 0.27C18.7605 0.71 17.6805 0.74 16.8605 1.35C16.8905 1.43 17.1005 1.46 17.0005 1.68C16.7805 1.65 16.5505 1.61 16.3305 1.6C16.1905 1.75 16.4705 2.12 16.0105 2.08C16.0905 2.11 16.2206 2.16 16.1306 2.26C15.2406 2.66 14.5505 3.39 13.9305 4.14C13.3105 4.9 12.7306 5.66 11.8806 6.3C12.1606 6.16 12.0806 6.32 11.9906 6.5C12.0906 6.41 12.1805 6.61 12.2905 6.65C12.0605 6.82 11.8305 7.01 11.6105 7.2C11.8305 7.48 11.2505 8 11.5105 8.21L11.5606 7.95C11.7606 8.4 12.5106 7.88 12.9206 8.14C12.7006 7.62 13.8805 7.64 13.6605 6.87C13.8105 6.82 13.7305 7.04 13.8605 7.05C13.7605 6.82 13.8205 6.65 14.0805 6.44L14.1006 6.5C14.5806 5.75 14.9805 5.57 15.7605 4.96L15.5405 4.84C15.7105 4.71 15.8005 4.74 15.9105 4.71C15.8405 4.28 15.4706 5.11 15.3506 4.68C15.8806 4.81 16.4805 3.64 16.9805 3.97C17.2405 3.78 16.7405 3.81 17.0005 3.62L17.1605 3.69L17.1105 3.49C17.3105 3.39 17.5005 3.48 17.5805 3.58C17.5305 3.6 17.4805 3.69 17.4405 3.73C17.7605 3.71 18.0406 3.26 18.1506 3.25L17.8405 3.34C18.5205 2.72 19.4906 2.46 20.1506 2.06L20.0706 1.96C20.6306 1.68 20.5605 2 21.1405 1.95L21.1105 1.97C21.2405 1.88 21.4205 1.85 21.5805 1.92C21.4005 2 21.7605 2.25 21.5305 2.32C22.1105 2.33 21.8305 2.25 22.3905 2.1L22.3605 2.3C22.5605 2.25 22.6506 2.18 22.9006 2.39C22.6206 2.31 22.8006 2.71 22.4806 2.66C22.5006 2.99 22.6405 3.06 22.7805 3.18C22.9105 3.3 23.0005 3.45 22.7205 3.61C23.2805 3.81 22.9105 3.06 23.0305 3.19C23.1505 2.99 23.4805 3.32 23.4505 3.58C23.4605 3.84 22.8405 3.98 22.7805 4.51C22.7905 4.46 22.7506 4.45 22.7606 4.39C22.6106 4.57 22.8805 4.83 22.6105 5.06C22.8805 5.28 22.5105 5.42 22.8905 5.55C22.9005 5.35 22.9205 5.16 22.9205 4.97C22.9605 5.3 23.3306 5.71 22.9906 6.2C22.9206 6.14 22.8605 5.96 22.8305 5.83C22.6805 5.96 22.8406 6.15 22.6806 6.28C22.3106 6.14 22.7606 5.57 22.5406 5.17C22.3406 5.3 22.6706 5.87 22.2906 5.61C22.7606 5.98 22.0906 6.19 22.3706 6.7L22.1506 6.61C22.1706 6.68 22.2405 6.85 22.2005 6.97L21.9606 6.67C22.1206 7.07 21.5605 7.23 21.5905 7.58C21.8005 6.93 21.9105 7.52 22.1705 7.3C22.1905 8.21 21.4405 7.58 21.2205 8.5C21.2305 8.37 21.5205 8.1 21.5605 8.32C21.4505 8.47 21.2806 8.66 21.1306 8.72C20.9606 9.32 21.3906 8.72 21.4306 9.02C21.0906 9.12 21.4306 9.35 21.4006 9.65L21.1806 9.56C20.7606 10.17 21.5705 9.93 21.1405 10.46L20.9405 10.07L20.8806 10.42L20.6605 10.24C20.6905 10.66 20.5906 10.74 20.3706 11.04C20.5606 11.04 20.7505 11.27 20.6105 11.57C20.3805 11.7 20.4605 11.36 20.2805 11.78C20.1905 11.62 20.0705 11.44 20.3605 11.36C20.3005 11.31 20.2706 11.2 20.2106 11.15C19.9606 11.29 19.9105 11.66 19.8405 11.81C19.8805 11.76 19.9205 11.7 19.9705 11.68V12.42C19.8405 12.47 19.8206 12.36 19.7906 12.26C19.7506 12.39 19.8006 12.52 19.7306 12.71C19.5806 12.57 19.4005 12.49 19.4505 12.2L19.3405 12.86C19.2505 12.86 18.9806 13.03 18.9606 12.93C18.6906 13.18 18.8705 13.86 18.5005 14.19C18.5205 14.23 18.5305 14.29 18.5005 14.39C18.2405 14.75 17.8306 14.95 17.7806 15.53L17.3305 15.59C17.1805 15.98 17.9206 15.49 17.6706 16.13C17.5006 16.6 17.3206 16.12 17.1406 16.21C17.1606 16.51 17.2405 17.06 16.7505 17.27C16.8305 17.07 16.9406 17 16.9906 16.87ZM14.2505 21.18C14.2705 21.07 14.2505 20.82 14.4105 20.84C14.5705 21.09 14.4105 21.09 14.2505 21.18ZM10.9105 24.67C10.9905 24.64 11.0106 24.74 11.0306 24.91C10.9806 24.87 10.9305 24.79 10.9105 24.67ZM0.470547 5.83L0.480549 5.84C0.330549 6.07 0.390547 5.99 0.470547 5.83ZM0.720547 5.34C0.700547 5.28 0.67055 5.27 0.63055 5.28C0.68055 5.34 0.640549 5.45 0.590549 5.58C0.660549 5.56 0.730547 5.51 0.720547 5.34ZM24.7606 4.63L24.6806 4.72C24.6406 4.49 24.6906 4.56 24.7606 4.63Z" fill="#BD7C67"/>
<path d="M11.3999 24.77C11.3999 24.83 11.3899 24.9 11.3799 24.96C11.4099 24.92 11.4199 24.86 11.3999 24.77Z" fill="#BD7C67"/>
<path d="M18.5405 14.14L18.5505 14.13C18.5405 14.12 18.5305 14.1 18.5205 14.09L18.5405 14.14Z" fill="#BD7C67"/>
<path d="M3.16058 12.3C3.16058 12.4 3.14059 12.46 3.10059 12.51C3.16059 12.49 3.20058 12.44 3.16058 12.3Z" fill="#BD7C67"/>
<path d="M2.01977 2.51001C1.92977 2.62001 1.83977 2.73001 1.75977 2.85001C1.88977 2.70001 1.97977 2.69001 2.07977 2.65001C2.03977 2.61001 1.92977 2.60001 2.01977 2.51001Z" fill="#BD7C67"/>
<path d="M5.37048 2.90995C5.42048 2.88995 5.46048 2.91995 5.51048 2.89995L5.52048 2.78995C5.33048 2.74995 5.19048 2.84995 5.37048 2.90995Z" fill="#BD7C67"/>
<path d="M2.81055 2.90004C2.96055 3.05004 3.08055 2.86004 3.28055 2.71004C3.27055 2.72004 3.26055 2.73004 3.24055 2.73004C3.17055 2.44004 2.97055 2.67004 2.81055 2.90004Z" fill="#BD7C67"/>
<path d="M3.33008 2.68001C3.39008 2.63001 3.46008 2.60001 3.53008 2.58001C3.52008 2.46001 3.44008 2.58001 3.33008 2.68001Z" fill="#BD7C67"/>
<path d="M0.850063 4.63995C0.940063 4.54995 0.640057 4.45995 0.750057 4.43995C0.550057 4.20995 0.720063 5.29995 0.850063 4.63995Z" fill="#BD7C67"/>
<path d="M3.35062 3.34005L3.14062 3.18005C3.14062 3.26005 3.15062 3.33005 3.16062 3.41005C3.22062 3.38005 3.29062 3.36005 3.35062 3.34005Z" fill="#BD7C67"/>
<path d="M2.09023 4.43005C2.17023 4.34005 2.25023 4.26005 2.34023 4.18005C2.30023 4.16005 2.31024 4.11005 2.32024 4.05005C2.18024 4.23005 2.02023 4.40005 2.09023 4.43005Z" fill="#BD7C67"/>
<path d="M2.32031 4.06006C2.39031 3.97006 2.45031 3.89006 2.46031 3.81006C2.42031 3.87006 2.35031 3.97006 2.32031 4.06006Z" fill="#BD7C67"/>
<path d="M3.04 3.67004L2.93 3.70004C2.87 3.75004 2.81 3.80004 2.75 3.85004C2.85 3.78004 2.95 3.73004 3.04 3.67004Z" fill="#BD7C67"/>
<path d="M1.12012 7.93002C1.13012 8.05002 1.17012 8.18002 1.19012 8.30002C1.28012 8.34002 1.33012 8.24002 1.29012 8.10002C1.23012 8.01002 1.21012 7.87002 1.12012 7.93002Z" fill="#BD7C67"/>
<path d="M1.91019 6.92004C1.84019 7.00004 1.7902 7.00004 1.7002 7.04004L2.01019 7.09004L1.91019 6.92004Z" fill="#BD7C67"/>
<path d="M1.87988 7.91998C1.94988 7.95998 2.11988 8.40998 2.09988 7.98998C2.01988 7.94998 1.97988 7.60998 1.87988 7.91998Z" fill="#BD7C67"/>
<path d="M2.58031 13.12L2.54031 13.04L2.07031 13.25L2.58031 13.12Z" fill="#BD7C67"/>
<path d="M5.89969 16.62C5.77969 16.21 5.57969 16.71 5.50969 16.31C5.35969 16.29 5.56969 16.64 5.42969 16.61C5.66969 16.75 5.67969 16.9 5.89969 16.62Z" fill="#BD7C67"/>
<path d="M5.4298 16.61C5.3898 16.59 5.3498 16.56 5.2998 16.54C5.3598 16.59 5.3998 16.6 5.4298 16.61Z" fill="#BD7C67"/>
<path d="M11.1604 7.54004L10.9404 7.77004L11.1704 7.67004L11.1604 7.54004Z" fill="#BD7C67"/>
<path d="M11.2802 8.21003L10.9502 8.15002L11.1502 8.42002C11.1602 8.36002 11.1902 8.23003 11.2802 8.21003Z" fill="#BD7C67"/>
<path d="M13.2803 21.44L13.3303 21.5C13.4203 21.51 13.4703 21.46 13.5503 21.37L13.2803 21.44Z" fill="#BD7C67"/>
<path d="M15.5898 18.52L15.5498 18.56L15.8598 18.63L15.5898 18.52Z" fill="#BD7C67"/>
<path d="M16.97 15.74C16.89 15.84 16.87 16 16.79 16.1C16.9 15.84 17.3 15.91 16.97 15.74Z" fill="#BD7C67"/>
</svg>
