<svg width="21" height="23" viewBox="0 0 21 23" fill="none" xmlns="http://www.w3.org/2000/svg">
<path d="M10.1916 8.45553C10.2239 8.53629 10.345 8.40707 10.3773 8.39899C10.2723 8.31823 10.1512 8.48783 10.1916 8.45553Z" fill="white"/>
<path d="M9.145 7.34898H9.21802L8.97461 7.20361L9.145 7.34898Z" fill="white"/>
<path d="M8.57661 5.95215C8.36565 6.19443 8.82814 6.45286 8.82814 6.7436L8.77946 6.8082L9.0391 6.83243C8.89305 6.54977 8.59284 6.2025 8.57661 5.95215Z" fill="white"/>
<path d="M8.82732 4.92627C8.74656 5.02318 8.6658 4.78898 8.87577 5.12817C8.87577 5.10394 8.88385 5.09587 8.88385 5.07971C8.87577 5.05549 8.85155 5.00703 8.82732 4.92627Z" fill="white"/>
<path d="M8.89258 5.088C8.96526 5.24145 8.93296 4.94263 8.89258 5.088V5.088Z" fill="white"/>
<path d="M8.48633 4.36897L8.68106 4.53857C8.72163 4.46588 8.63238 4.26398 8.71351 4.31244C8.55124 4.11862 8.51878 4.19938 8.48633 4.36897Z" fill="white"/>
<path d="M8.19531 4.27246L8.29222 4.3613C8.3003 4.32899 8.29222 4.28861 8.19531 4.27246Z" fill="white"/>
<path d="M8.48718 4.54685L8.29244 4.35303C8.2681 4.40148 8.18697 4.44994 8.37359 4.44186C8.28434 4.46609 8.3817 4.47417 8.48718 4.54685Z" fill="white"/>
<path d="M8.51159 4.7002C8.51159 4.84556 8.54404 5.00708 8.35742 4.84556C8.56838 5.21706 8.73066 5.07977 8.51159 4.7002Z" fill="white"/>
<path d="M8.27592 5.99253L8.25977 6.1702L8.39706 6.25904C8.32438 6.21866 8.34861 5.94407 8.27592 5.99253Z" fill="white"/>
<path d="M7.73247 2.94775C7.67594 2.97198 7.65978 3.11735 7.61133 3.18196L7.78092 3.28695C7.7567 3.19003 7.66786 3.02044 7.73247 2.94775Z" fill="white"/>
<path d="M7.6112 3.1898C7.53007 3.14135 7.44081 3.09289 7.35156 3.04443C7.50572 3.23018 7.57064 3.24633 7.6112 3.1898Z" fill="white"/>
<path d="M7.88619 4.38518C8.01575 4.47402 8.14531 4.56286 8.27488 4.65169C8.13722 4.53863 7.99146 4.42556 7.8457 4.3125L7.88619 4.38518Z" fill="white"/>
<path d="M6.93687 2.14825L7.15565 2.15633L6.79102 2.12402L6.93687 2.14825Z" fill="white"/>
<path d="M6.29632 1.71997C6.47483 1.68767 6.24765 1.45346 6.40181 1.46961C6.20708 1.36463 5.97177 1.3727 5.78516 1.3727C5.96366 1.41308 6.15028 1.50999 6.29632 1.71997Z" fill="white"/>
<path d="M5.46875 1.38115C5.56599 1.38923 5.67132 1.38115 5.78477 1.37307C5.68753 1.35692 5.58219 1.35692 5.46875 1.38115Z" fill="white"/>
<path d="M7.04365 2.6811C7.05173 2.64072 7.09211 2.53573 6.9952 2.39844L6.96289 2.60034C6.98712 2.62457 7.01135 2.64879 7.04365 2.6811Z" fill="white"/>
<path d="M6.96061 2.60856C6.87177 2.51972 6.81524 2.46319 6.79102 2.43896C6.80717 2.45512 6.8637 2.51165 6.96061 2.60856Z" fill="white"/>
<path d="M7.05872 2.69779L7.04208 2.68115C7.03376 2.69779 7.03377 2.70611 7.05872 2.69779Z" fill="white"/>
<path d="M7.65785 3.71517C7.4878 3.63441 7.21248 3.45674 7.27726 3.77978C7.43921 3.80401 7.39872 3.60211 7.65785 3.71517Z" fill="white"/>
<path d="M7.00195 2.94775C7.06678 3.02044 7.11539 3.1012 7.17212 3.18196C7.20453 3.14965 7.22073 3.06082 7.30987 3.09312C7.20453 3.04467 7.10729 2.98813 7.00195 2.94775Z" fill="white"/>
<path d="M6.86328 2.89119L7.00057 2.94772L6.93596 2.85889L6.86328 2.89119Z" fill="white"/>
<path d="M5.91531 1.76883C5.76115 1.76883 5.62321 1.70422 5.46094 1.65576C5.62321 1.75267 5.76926 1.85766 5.92342 1.93842C5.97211 1.90612 6.0857 1.85766 5.91531 1.76883Z" fill="white"/>
<path d="M6.45027 2.16433L6.41797 2.15625C6.42604 2.1724 6.43412 2.18855 6.45027 2.16433Z" fill="white"/>
<path d="M3.7168 1.36475L3.7491 1.38897L3.75718 1.36475H3.7168Z" fill="white"/>
<path d="M5.93266 1.97886C6.02989 2.07577 6.11092 2.08384 6.20816 2.07577C6.11092 2.03539 6.02179 1.98693 5.92455 1.93848C5.90024 1.95463 5.89214 1.97078 5.93266 1.97886Z" fill="white"/>
<path d="M4.96484 1.30029C5.02975 1.35682 5.10278 1.41335 5.18392 1.46181C5.12712 1.38912 4.9973 1.26798 4.96484 1.30029Z" fill="white"/>
<path d="M6.41016 2.09163L6.43438 2.09971C6.41823 2.0351 6.41016 2.05933 6.41016 2.09163Z" fill="white"/>
<path d="M6.40893 2.09184C6.34432 2.06761 6.27164 2.07568 6.20703 2.08376C6.27972 2.11606 6.3524 2.14029 6.41701 2.15644C6.40893 2.13222 6.40893 2.10799 6.40893 2.09184Z" fill="white"/>
<path d="M3.44935 2.52788C3.40878 2.36636 3.69276 2.1483 3.95241 2.3179C4.18771 2.18868 4.08223 1.66374 3.74956 1.38916C3.74956 1.46184 3.74145 1.5103 3.44124 1.66374C3.57917 1.7122 4.13902 1.80911 3.89561 1.96256C3.53049 2.06754 3.58728 1.9464 3.37633 1.88987C3.56294 2.04332 2.99497 2.30175 3.18971 2.5521C3.26273 2.4875 3.34387 2.43096 3.42501 2.36636C3.44123 2.41481 3.36821 2.51172 3.44935 2.52788Z" fill="white"/>
<path d="M4.39715 1.42152C4.44584 1.42152 4.49452 1.41344 4.53509 1.42152C4.38093 1.37306 4.27544 1.30038 4.05637 1.16309C3.80484 1.24385 3.76427 1.30845 3.74805 1.36499C3.98335 1.35691 4.21865 1.37306 4.43772 1.40537L4.39715 1.42152Z" fill="white"/>
<path d="M5.12912 1.55845C4.97496 1.68767 4.67474 1.68767 4.79645 1.9138C5.12911 2.01071 5.08043 1.84111 5.30762 1.84919C4.73154 1.68767 5.51047 1.80881 5.12912 1.57461C5.25894 1.58268 5.36442 1.61499 5.46178 1.64729C5.37253 1.58268 5.28328 1.52615 5.18591 1.46154L5.19402 1.47769C5.21025 1.51 5.21836 1.51807 5.19402 1.50192H5.1778C5.16157 1.52615 5.14535 1.5423 5.12912 1.55845C4.96684 1.46962 5.11289 1.50192 5.1778 1.50192C5.18591 1.49385 5.19402 1.48577 5.19402 1.47769C4.98306 1.43731 4.76399 1.42116 4.54492 1.41309C4.66663 1.46962 4.84513 1.48577 5.12912 1.55845Z" fill="white"/>
<path d="M6.81601 3.80366C6.81601 3.77943 6.83216 3.77136 6.84024 3.76328C6.79986 3.75521 6.78371 3.75521 6.81601 3.80366Z" fill="white"/>
<path d="M6.76758 3.5777C6.80815 3.58577 6.88929 3.56154 6.94608 3.66653C6.97042 3.7796 6.88117 3.71499 6.8406 3.76344C6.92174 3.78767 7.09213 3.88458 7.0191 3.65038L6.97854 3.63423C6.8974 3.4404 6.86494 3.09314 6.90551 3.10121C6.8406 3.26273 6.79192 3.38387 6.76758 3.5777Z" fill="white"/>
<path d="M6.10077 2.52799C5.96311 2.46339 5.81735 2.41493 5.67969 2.3584C5.72018 2.43916 5.75257 2.51992 5.79306 2.60068L5.83354 2.51992C6.01979 2.68951 6.03599 2.56837 6.10077 2.52799Z" fill="white"/>
<path d="M3.64348 1.28389L3.70831 1.09814C3.59487 1.18698 3.49763 1.30004 3.40039 1.40503L3.64348 1.28389Z" fill="white"/>
<path d="M2.91231 1.46963L2.88809 1.30811C2.83155 1.36464 2.77502 1.40502 2.72656 1.46963C2.79117 1.46155 2.84771 1.46963 2.91231 1.46963Z" fill="white"/>
<path d="M12.707 15.3282L12.7393 15.207C12.7151 15.2555 12.707 15.2959 12.707 15.3282Z" fill="white"/>
<path d="M12.2109 16.0145L12.2675 16.0791C12.2513 16.0226 12.2352 15.9903 12.2109 16.0145Z" fill="white"/>
<path d="M2.88125 14.3511C2.84894 14.5772 2.76818 14.876 2.90547 14.7549L3.01854 14.6095C2.9297 14.5287 2.88932 14.4399 2.88125 14.3511Z" fill="white"/>
<path d="M9.00644 20.7393C9.00644 20.707 8.99836 20.6747 8.99836 20.6343C8.95798 20.6747 8.90952 20.707 8.86914 20.7393C8.90952 20.7393 8.95798 20.7393 9.00644 20.7393Z" fill="white"/>
<path d="M9.2832 19.8994L9.33166 20.1498C9.32358 20.069 9.30743 19.9883 9.2832 19.8994Z" fill="white"/>
<path d="M15.0274 11.387L14.9386 11.1851C14.8417 11.3547 14.9628 11.3224 15.0274 11.387Z" fill="white"/>
<path d="M0.137336 6.96973C0.0646523 7.13932 0.0485015 7.27661 0.0565775 7.38968C0.129262 7.1797 0.282704 7.01818 0.137336 6.96973Z" fill="white"/>
<path d="M14.0518 16.6527C14.068 16.5719 14.0518 16.5316 14.0195 16.5073C14.0034 16.5881 14.0114 16.6446 14.0518 16.6527Z" fill="white"/>
<path d="M0.0970385 7.86613C0.113191 7.83383 0.121267 7.80153 0.129343 7.7773C0.0889632 7.66423 0.0566605 7.54309 0.0485845 7.38965C-0.00794754 7.54309 -0.0402535 7.72076 0.0970385 7.86613Z" fill="white"/>
<path d="M14.1673 2.97217C14.1512 2.97217 14.1431 2.98024 14.127 2.97217C14.1431 2.9964 14.1512 2.98832 14.1673 2.97217Z" fill="white"/>
<path d="M9.65625 5.41111C9.6724 5.36265 9.71278 5.28997 9.75316 5.21729C9.72086 5.24151 9.68855 5.29804 9.65625 5.41111Z" fill="white"/>
<path d="M0.763672 3.28698C0.820204 3.15777 0.763672 3.25468 0.763672 3.28698V3.28698Z" fill="white"/>
<path d="M1.69531 3.11719C1.69531 3.14949 1.70339 3.1818 1.73569 3.20602C1.71147 3.17372 1.69531 3.14142 1.69531 3.11719Z" fill="white"/>
<path d="M1.39453 8.8029V8.81098C1.41876 8.7706 1.41876 8.77868 1.39453 8.8029Z" fill="white"/>
<path d="M0.940025 3.1416C0.891569 3.17391 0.85119 3.22236 0.802734 3.27082C0.826962 3.25467 0.867341 3.21429 0.940025 3.1416Z" fill="white"/>
<path d="M0.851562 3.12536C0.883867 3.08498 0.908093 3.06075 0.932321 3.02844C0.916169 2.99614 0.891943 3.00422 0.851562 3.12536Z" fill="white"/>
<path d="M0.681641 3.46482C0.713945 3.39214 0.754326 3.32753 0.802782 3.271C0.778554 3.28715 0.762399 3.29522 0.762399 3.28715C0.746247 3.31945 0.722021 3.37598 0.681641 3.46482Z" fill="white"/>
<path d="M18.5569 4.67602C18.565 4.66794 18.5731 4.66794 18.5812 4.65987C18.5327 4.53065 18.5327 4.58718 18.5569 4.67602Z" fill="white"/>
<path d="M6.06081 15.6514H6.05273V15.6675L6.06081 15.6514Z" fill="white"/>
<path d="M6.41038 15.8853C6.13451 15.8853 6.09394 15.7884 6.05337 15.6592L5.7207 16.063L6.41038 15.8853Z" fill="white"/>
<path d="M13.7859 13.6242L13.5019 13.7696C13.4695 13.3496 13.6723 13.2043 13.3478 13.2931C13.7859 13.6242 12.8123 14.2057 13.2423 14.5449L13.0476 14.6337C13.08 14.5933 13.0557 14.5691 13.0963 14.5287C12.6824 14.6741 13.2829 14.9648 12.9583 15.304C12.8366 15.409 12.7068 15.4575 12.7149 15.3283L12.6256 15.6997C12.5607 15.7805 12.4958 15.7078 12.5607 15.6271L12.2768 16.0955L12.2686 16.0793C12.293 16.1924 12.3092 16.4104 12.3011 16.5154C12.155 16.5881 12.293 16.4266 12.2118 16.4185L12.1469 16.7416C11.9603 16.7577 11.9847 16.475 12.1226 16.3216C11.5059 16.2408 12.0982 16.6043 11.4816 16.9192L11.5871 16.6446C11.222 16.6204 11.1895 16.8627 10.8487 17.0161C10.9785 17.0081 11.6195 16.7658 11.5465 17.113C11.4573 17.1615 11.3761 17.2503 11.368 17.4603C11.2057 17.3473 11.1489 17.5168 11.0353 17.7026L10.8325 17.5411C10.7595 17.7753 10.8812 17.8318 10.8974 18.0095C10.727 18.2114 10.5323 18.1387 10.3538 18.0902C10.086 18.4052 10.7838 18.0337 10.5404 18.4698C10.2726 18.6879 10.1915 18.9867 10.1185 19.3582C9.98054 19.3986 10.0049 19.2451 9.92375 19.229C9.96432 19.2936 9.99677 19.3663 10.0292 19.447C10.013 19.4632 9.97243 19.4066 9.9562 19.3824C9.96432 19.5116 10.1347 19.5843 10.0779 19.7862C10.1509 19.9396 10.0211 19.9316 9.91563 19.9073C9.80204 19.8912 9.72901 19.8347 9.71279 20.1415C9.67222 20.0769 9.68845 19.8993 9.65599 19.7701C9.60731 20.085 9.58296 20.1658 9.53428 20.3677C9.52617 20.4242 9.49372 20.4807 9.43692 20.5615C9.39635 20.4081 9.35578 20.2708 9.32333 20.1415C9.38824 20.5373 9.24219 20.7311 8.99877 20.7311C9.02311 20.9168 9.04745 21.0864 9.07179 21.1834C8.9582 21.1187 8.8365 21.038 8.71479 20.9491C8.69045 20.8522 8.76347 20.8038 8.85272 20.7392C8.82838 20.7392 8.79593 20.7392 8.77159 20.7392C8.70668 20.4969 8.83649 20.4242 8.9582 20.3354C8.96631 20.4323 8.97443 20.5292 8.98255 20.6342C9.10425 20.5292 9.1935 20.3596 9.21784 20.1496C9.20162 20.1739 9.16916 20.1739 9.13671 20.1658C9.16105 20.1254 9.17728 20.0931 9.18539 20.0527C9.18539 20.0123 9.15293 20.0608 9.10425 20.1012C9.12859 19.972 9.15294 19.8427 9.17728 19.7297L9.12048 19.8427C9.07991 19.6893 9.04746 19.552 9.03123 19.4309C8.88518 19.4793 8.68233 19.5116 8.39835 19.4066C8.13871 19.3259 7.87095 19.2128 7.62754 18.9867C7.89529 18.9867 7.91963 18.8009 8.12248 18.6556C8.02511 18.9625 8.52006 18.9867 8.68233 19.2855C8.59308 19.132 8.71479 19.0836 8.77159 19.0917L8.21173 18.7606C8.38212 18.6475 8.2523 18.5667 8.22796 18.3891C7.97643 18.7282 7.74113 18.1952 7.4896 18.0741C7.58697 17.9772 7.73302 17.9449 7.89529 18.1952C7.93586 17.7511 7.2543 18.1468 7.26242 17.7268C7.3111 17.7834 7.31921 17.8237 7.39223 17.8076C7.18939 17.743 7.01089 17.3553 7.16505 17.3634L7.21374 17.4199C6.95409 17.0081 6.3131 16.2489 5.98855 16.3943C6.021 16.362 6.36178 16.2005 6.4348 16.1843L4.96621 16.1762C5.25019 16.0632 5.64776 15.4171 6.02911 15.6432C5.98854 15.5302 5.94798 15.3848 5.71267 15.2556C5.7289 15.3444 5.48549 15.6594 5.39624 15.5948C5.48549 15.1667 5.41246 15.3283 5.42058 14.876C5.44492 15.0052 4.98243 15.1748 4.88507 15.0133C4.95809 14.9971 5.25019 14.7387 5.33133 14.7629L4.69034 14.6499C4.82827 14.6983 5.01489 14.448 5.06357 14.2864C5.01489 14.3753 4.8445 13.9553 4.73902 13.8826L4.76336 14.1007C4.52806 13.6323 3.94387 14.028 3.67611 13.5758C3.7897 13.5758 4.25219 13.39 4.15482 13.1397C3.89518 13.1639 2.91341 13.285 2.51584 12.9539L2.58886 12.8085L2.27242 12.5663C2.69434 12.5986 3.64365 12.7601 4.06557 12.8893C4.05746 12.6712 4.17105 12.7601 4.00877 12.5259C4.06557 12.3724 4.25219 12.5582 4.30087 12.6309C4.20351 12.429 4.11425 12.2271 4.03311 12.0252C3.81404 12.1867 3.53818 11.7264 3.35967 11.8556L3.96009 12.3401C3.74913 12.5017 3.07569 12.3724 2.88907 11.9121C2.92964 11.7506 3.35967 11.7667 3.43269 11.7102C3.3191 11.7021 3.06758 11.4033 3.10003 11.3306L3.32722 11.4437C3.29476 11.1691 2.81604 11.2256 2.90529 10.8299C2.87284 10.7249 3.09191 10.3938 2.93775 10.4423C2.71868 10.7249 1.85861 11.161 1.59897 11.1368C1.60708 11.0884 1.62331 10.4584 1.72879 10.2808C1.89107 10.0223 2.36978 10.3292 2.50772 10.1031C2.4347 10.1273 2.31299 10.0627 2.27242 10.0385C2.28865 9.90926 2.50772 9.99809 2.38601 9.78004C2.11014 9.83657 2.23185 9.30355 2.12637 9.74773C1.96409 9.54583 2.09392 9.48123 1.99655 9.22279C1.85862 9.36009 1.33121 9.15011 1.19328 8.91591C1.2663 8.91591 1.33933 8.83515 1.37178 8.80284C1.2663 8.29405 1.35556 8.00332 1.29876 7.53491C1.36367 7.48645 1.42047 7.25225 1.55029 7.34109C1.49349 7.27648 1.39613 7.22802 1.3799 7.08265C1.60709 6.79999 1.43669 7.39762 1.71256 7.17149C1.54217 7.16341 1.48538 6.82422 1.3799 6.62232C1.13649 6.68693 1.3231 7.09881 1.45292 7.29263C1.10403 7.32493 0.722681 6.97767 0.568518 6.43657C0.511722 6.00855 0.803817 6.26698 0.763248 6.18622C0.811931 5.79857 0.69834 5.61282 0.600974 5.44323C0.503608 5.27363 0.414354 5.11211 0.617199 4.79715C0.901183 4.58717 1.03912 4.89406 1.20951 4.87791C1.2014 5.2171 0.974208 5.34631 0.941753 5.58052L1.0878 5.32209C1.1446 5.44323 1.16082 5.66128 1.07969 5.77434C1.20139 5.6855 1.24197 5.37054 1.33122 5.02327C1.42047 4.67601 1.57463 4.28836 1.77748 4.07838C1.75313 3.95724 1.77747 3.76342 1.65577 3.79572C1.63143 3.85225 1.6152 3.91686 1.59897 3.97339C1.35556 4.05415 1.55029 3.53729 1.36367 3.72304C1.37178 3.4323 1.38802 3.03658 1.73691 2.78622L1.9722 2.89928C1.91541 2.85083 1.68823 2.9962 1.68011 3.13349C1.70445 2.91544 2.30487 2.91544 2.23185 2.57625C2.11825 2.5924 2.01278 2.61663 1.89918 2.64085C2.01278 2.35012 2.19128 1.87363 2.62943 1.75249C2.33733 1.62328 2.56452 1.80902 2.1426 1.72019C2.35356 1.80095 2.11014 1.93824 1.91541 2.09168C1.71256 2.24513 1.56652 2.40665 1.84239 2.40665C1.39613 2.37435 1.38801 2.66508 0.933637 2.81045C1.01478 2.85083 1.13649 2.78622 0.917413 3.04465C0.93364 3.06888 0.933639 3.11734 0.941753 3.14157C0.933639 3.14964 0.933642 3.14964 0.925528 3.15772L0.941753 3.14964C0.941753 3.16579 0.949869 3.17387 0.949869 3.14964C1.02289 3.10119 1.0878 3.06888 1.1446 3.07696C1.20951 3.31116 0.97421 3.72304 1.00667 3.90879C0.901185 4.05415 0.949867 3.8038 0.82816 3.86033C0.844388 3.95724 0.852504 4.04608 0.868732 4.13491C0.690228 4.08646 0.422472 4.48218 0.463041 4.038C0.414358 4.15914 0.373784 4.28028 0.325101 4.4095C0.162825 4.59525 0.041117 4.91021 0.0897999 5.10403C0.0248894 5.27363 0.219623 5.57244 0.0979155 5.40285C0.0979155 5.59667 0.114146 5.79857 0.138487 5.99239H0.0897999C0.00866178 6.57387 0.349444 7.13919 0.0979155 7.80142C0.154712 7.98717 0.25208 8.16484 0.25208 8.4798L0.106031 8.56864C0.195283 8.79477 0.122257 9.31163 0.300761 9.37624C-0.0481332 9.74774 0.560403 10.515 0.649655 10.9188L0.844385 10.8541C0.949865 11.1126 1.10403 11.3468 1.3231 11.6214L1.47727 11.5245C1.73691 11.7264 1.69634 12.2594 1.93164 12.6632C1.85862 12.6712 1.81804 12.5582 1.80993 12.4613C1.71257 13.1558 2.64565 13.3254 2.65377 13.8988C2.77548 13.9715 2.80793 14.0522 2.81604 14.1492C2.80793 14.1411 2.79982 14.133 2.7917 14.1249C2.79982 14.133 2.80793 14.1492 2.81604 14.1653C2.81604 14.2299 2.81605 14.2945 2.83227 14.3591C2.84039 14.2945 2.8485 14.2299 2.83227 14.1815C2.88907 14.2622 2.98644 14.3672 3.10003 14.4641L2.97021 14.6256C2.97832 14.6337 2.98643 14.6418 2.99455 14.6499C3.01078 14.8033 3.13249 14.6902 3.21362 14.5449C3.27853 14.5853 3.35156 14.6176 3.41647 14.6337C3.22174 14.9002 3.70856 14.876 3.52195 15.191C3.71668 15.1748 4.025 15.6997 4.35767 15.5544C4.32521 15.5867 4.33333 15.6271 4.28465 15.5705C4.34956 15.7159 4.40635 15.8613 4.57675 15.9097L4.41447 16.1035L4.89318 16.1762C4.89318 16.4266 4.87696 16.5477 4.60109 16.4993C5.1366 16.7173 4.93375 16.7496 5.42869 16.9111L5.29076 16.9919C5.38812 17.105 5.70456 17.1696 5.65588 17.3149C5.61531 17.7591 6.62954 18.6475 6.92975 19.5035C7.1975 19.0836 7.01089 19.9477 7.31921 19.7539C7.26242 19.8589 7.28676 19.9962 7.12448 19.9477C7.30299 20.085 7.3679 20.2465 7.44092 20.3758C7.51395 20.505 7.69245 20.723 7.91963 20.7715C7.89529 20.9249 7.7249 20.7876 7.7249 20.8926C7.77359 20.9249 7.92775 20.9895 7.92775 21.1026C7.93586 21.2157 7.80604 21.1026 7.70056 21.0461C8.18739 21.6518 8.39024 21.3449 8.56063 21.0299C8.67422 21.4256 8.79593 21.5548 8.97443 21.4418C9.00689 21.6518 9.09614 21.9586 8.85272 21.7002C8.94198 21.8375 9.35578 22.4997 9.56674 22.6613C9.63165 22.524 9.67222 22.4028 9.66411 22.2898C9.70467 22.3382 9.83449 22.0798 9.85884 21.991C10.1266 21.6356 10.159 21.6195 10.4187 21.2157L10.3294 21.2722C10.2889 20.7796 10.4998 20.9088 10.6864 20.5696L10.7027 20.6019C11.3112 20.1254 10.8649 20.1819 11.4248 19.8266L11.2463 19.7458C10.938 19.4632 11.7656 19.4309 11.8386 19.0432L11.6763 19.0917C11.6682 18.8494 12.4634 18.9625 12.6175 18.8252C12.6743 18.809 12.6256 18.914 12.6175 18.9786C13.1206 18.6879 12.4471 18.7767 12.6175 18.4294C12.7717 18.4456 12.8528 18.704 13.0232 18.5021C13.1855 18.4617 13.0881 17.6299 13.5101 17.4845C13.3802 17.4926 13.2504 17.4926 13.2829 17.2988C13.4127 17.0484 14.0375 16.9111 13.9076 16.5154C13.9482 16.4993 13.9807 16.5073 14.005 16.5235C14.0537 16.2974 14.2809 15.8774 14.1997 15.6674C14.8732 15.8774 14.6622 14.3914 15.1734 14.7387L15.5061 14.1734L15.5466 14.2218C15.8144 13.8907 15.7657 13.6888 15.717 13.4788C15.8063 13.4223 15.8144 13.5112 15.8387 13.5354C16.2688 13.0831 16.285 13.0104 16.2769 12.4128L16.4797 12.4693C16.4554 12.2917 17.2099 11.8556 17.2911 11.2095C17.3073 11.2256 17.3398 11.2579 17.3398 11.3145C17.4615 10.6119 18.6055 10.1031 18.0457 9.55391L18.07 9.06935C17.7779 9.57006 17.8185 8.85937 17.6075 9.02089C17.6643 8.80284 18.0538 8.58479 17.9727 8.8513L17.924 8.87553C18.2323 9.12588 18.3378 8.26983 18.565 8.38289C18.995 7.31686 19.5548 6.30736 19.8469 5.24132L19.5305 5.28978L19.636 4.92636C19.7252 4.8456 19.8956 4.8456 19.8145 5.11211C20.0092 5.00712 19.782 4.63563 19.7171 4.6114C19.9524 4.11876 20.0092 4.88598 20.0498 4.73254L20.0822 4.50641L20.0336 4.54679C19.9524 4.34489 19.8307 4.30451 19.9037 3.97339C19.993 3.76342 20.0985 3.88456 20.1228 3.8038C20.139 3.8038 20.1553 3.77957 20.1472 3.6665C20.1715 3.48883 20.1958 3.30308 20.204 3.10118C20.1228 3.18194 20.0498 3.25463 19.9686 3.32731C19.8632 3.08503 19.9687 2.81045 19.7171 3.06888C19.92 2.89928 19.9281 2.32589 19.6684 1.82518C19.4169 1.30831 18.9788 1.0095 18.922 0.888361C18.5244 0.799524 18.2404 0.64608 17.8509 0.500712C17.9402 0.581472 17.8996 0.839904 17.5913 0.718764C17.8509 0.209976 17.0233 0.347268 16.715 0C16.8529 0.129216 16.5852 0.145368 16.3499 0.2019C16.1146 0.258432 15.9199 0.347269 16.147 0.492637C15.855 0.500713 16.0984 0.298812 15.8468 0.218052C15.2221 0.573397 14.3458 0.597624 13.6804 1.09026C13.7048 1.15487 13.8752 1.1791 13.794 1.35677C13.6155 1.33254 13.4289 1.30024 13.2504 1.29216C13.1368 1.4133 13.364 1.71211 12.9908 1.67981C13.0557 1.70404 13.1612 1.74442 13.0881 1.82518C12.366 2.14822 11.8061 2.73777 11.3031 3.34347C10.8 3.95724 10.3294 4.57102 9.63976 5.08788C9.86695 4.97482 9.80204 5.10403 9.72902 5.2494C9.81015 5.17672 9.88318 5.33824 9.97243 5.37054C9.78581 5.50783 9.59919 5.66128 9.42069 5.81472C9.59919 6.04085 9.12859 6.4608 9.33955 6.6304L9.38012 6.42042C9.5424 6.78384 10.1509 6.36389 10.4836 6.57386C10.3051 6.15391 11.2625 6.17007 11.084 5.54821C11.2057 5.50783 11.1408 5.68551 11.2463 5.69358C11.1652 5.50783 11.2138 5.37054 11.4248 5.20095L11.441 5.2494C11.8305 4.6437 12.155 4.49833 12.7879 4.0057L12.6094 3.90879C12.7474 3.8038 12.8204 3.82802 12.9096 3.8038C12.8528 3.45653 12.5526 4.12684 12.4553 3.77957C12.8853 3.88456 13.3721 2.93966 13.7778 3.20617C13.9888 3.05273 13.5831 3.07696 13.794 2.92351L13.9239 2.98005L13.8833 2.81853C14.0456 2.73777 14.1997 2.81045 14.2646 2.89121C14.2241 2.90736 14.1835 2.98005 14.151 3.01235C14.4107 2.9962 14.6379 2.63278 14.7271 2.6247L14.4756 2.69738C15.0273 2.19667 15.8144 1.9867 16.3499 1.66366L16.285 1.5829C16.7394 1.35677 16.6826 1.6152 17.1532 1.57482L17.1288 1.59097C17.2343 1.51829 17.3803 1.49406 17.5102 1.55059C17.3641 1.6152 17.6562 1.8171 17.4696 1.87363C17.9402 1.88171 17.713 1.8171 18.1674 1.69596L18.143 1.85748C18.3053 1.8171 18.3783 1.76057 18.5812 1.93016C18.354 1.86556 18.5001 2.1886 18.2404 2.14822C18.2566 2.41472 18.3702 2.47126 18.4838 2.56817C18.5893 2.66508 18.6623 2.78622 18.4351 2.91544C18.8895 3.07696 18.5893 2.47126 18.6867 2.57625C18.784 2.41473 19.0518 2.68123 19.0274 2.89121C19.0356 3.10118 18.5325 3.21425 18.4838 3.64228C18.4919 3.6019 18.4595 3.59382 18.4676 3.54537C18.3459 3.69073 18.565 3.90071 18.3459 4.08646C18.565 4.26413 18.2647 4.37719 18.5731 4.48218C18.5812 4.32066 18.5974 4.16722 18.5974 4.01377C18.6299 4.28028 18.9301 4.6114 18.6542 5.00712C18.5974 4.95867 18.5487 4.8133 18.5244 4.70831C18.4027 4.8133 18.5325 4.96674 18.4027 5.07173C18.1025 4.95867 18.4676 4.49833 18.2891 4.17529C18.1268 4.28028 18.3946 4.74061 18.0863 4.53064C18.4676 4.82945 17.924 4.99905 18.1512 5.41092L17.9727 5.33824C17.9889 5.39477 18.0457 5.53206 18.0132 5.62897L17.8185 5.38669C17.9483 5.70973 17.4939 5.83895 17.5183 6.12161C17.6887 5.59667 17.7779 6.07315 17.9889 5.89548C18.0051 6.6304 17.3966 6.12161 17.2181 6.8646C17.2262 6.75961 17.4615 6.54156 17.4939 6.71923C17.4047 6.84037 17.2668 6.99382 17.145 7.04227C17.0071 7.52683 17.356 7.04227 17.3885 7.28455C17.1126 7.36531 17.3885 7.55106 17.3641 7.79334L17.1856 7.72066C16.8448 8.21329 17.502 8.01947 17.1532 8.4475L16.9909 8.13253L16.9422 8.41519L16.7637 8.26983C16.788 8.60902 16.7069 8.67363 16.5284 8.91591C16.6826 8.91591 16.8367 9.10165 16.7231 9.34393C16.5365 9.44892 16.6014 9.17434 16.4554 9.51353C16.3823 9.38431 16.285 9.23895 16.5203 9.17434C16.4716 9.13396 16.4473 9.04512 16.3986 9.00474C16.1957 9.11781 16.1552 9.41662 16.0984 9.53776C16.1308 9.49738 16.1633 9.44892 16.2038 9.43277V10.0304C16.0984 10.0708 16.0821 9.98194 16.0578 9.90118C16.0253 10.0062 16.0659 10.1112 16.0091 10.2646C15.8874 10.1515 15.7413 10.0869 15.7819 9.85272L15.6927 10.3857C15.6196 10.3857 15.4006 10.523 15.3843 10.4423C15.1653 10.6442 15.3113 11.1933 15.0111 11.4598C15.0273 11.4922 15.0354 11.5406 15.0111 11.6214C14.8001 11.9121 14.4675 12.0736 14.4269 12.542L14.0618 12.5905C13.9401 12.9055 14.5405 12.5097 14.3377 13.0266C14.1997 13.4062 14.0537 13.0185 13.9076 13.0912C13.9239 13.3335 13.9888 13.7777 13.5912 13.9473C13.6561 13.7857 13.7454 13.7292 13.7859 13.6242ZM11.5627 17.105C11.579 17.0161 11.5627 16.8142 11.6926 16.8304C11.8224 17.0323 11.6926 17.0323 11.5627 17.105ZM8.85272 19.9235C8.91763 19.8993 8.93386 19.98 8.95009 20.1173C8.90952 20.085 8.86895 20.0204 8.85272 19.9235ZM0.381898 4.70831L0.390013 4.71639C0.268306 4.90213 0.316987 4.83753 0.381898 4.70831ZM0.584743 4.31259C0.568516 4.26413 0.544177 4.25605 0.511722 4.26413C0.552291 4.31259 0.519835 4.40142 0.479266 4.50641C0.536063 4.49026 0.592857 4.44988 0.584743 4.31259ZM20.0904 3.73919L20.0255 3.81187C19.993 3.62613 20.0336 3.68266 20.0904 3.73919Z" fill="white"/>
<path d="M9.25052 20.0044C9.25052 20.0529 9.24245 20.1094 9.23438 20.1578C9.2586 20.1255 9.26668 20.0771 9.25052 20.0044Z" fill="white"/>
<path d="M15.0435 11.4193L15.0516 11.4112C15.0435 11.4031 15.0354 11.387 15.0273 11.3789L15.0435 11.4193Z" fill="white"/>
<path d="M2.56408 9.93359C2.56408 10.0144 2.54793 10.0628 2.51562 10.1032C2.56408 10.087 2.59638 10.0467 2.56408 9.93359Z" fill="white"/>
<path d="M1.6387 2.02734C1.56567 2.11618 1.49264 2.20502 1.42773 2.30193C1.53321 2.18079 1.60624 2.17271 1.68738 2.14041C1.65492 2.1081 1.56567 2.10003 1.6387 2.02734Z" fill="white"/>
<path d="M4.35639 2.34994C4.39677 2.33378 4.42907 2.35801 4.46945 2.34186L4.47753 2.25302C4.32409 2.22072 4.21102 2.30148 4.35639 2.34994Z" fill="white"/>
<path d="M2.2793 2.34179C2.40076 2.46293 2.49793 2.30949 2.65989 2.18835C2.65179 2.19643 2.64369 2.2045 2.62749 2.2045C2.57081 1.9703 2.40886 2.15605 2.2793 2.34179Z" fill="white"/>
<path d="M2.70117 2.16429C2.74963 2.12391 2.80616 2.09968 2.8627 2.08353C2.85462 1.98662 2.79001 2.08353 2.70117 2.16429Z" fill="white"/>
<path d="M0.68815 3.74732C0.760834 3.67464 0.518549 3.60195 0.607385 3.5858C0.445865 3.40005 0.583162 4.28034 0.68815 3.74732Z" fill="white"/>
<path d="M2.71842 2.69758L2.54883 2.56836C2.54883 2.63297 2.5569 2.6895 2.56498 2.75411C2.61343 2.72988 2.66997 2.71373 2.71842 2.69758Z" fill="white"/>
<path d="M1.69738 3.57788C1.76229 3.5052 1.8272 3.44059 1.90023 3.37598C1.86777 3.35983 1.87589 3.31945 1.884 3.271C1.77041 3.41636 1.64058 3.55366 1.69738 3.57788Z" fill="white"/>
<path d="M1.88281 3.27905C1.93934 3.20636 1.9878 3.14176 1.99588 3.07715C1.96357 3.1256 1.90704 3.20636 1.88281 3.27905Z" fill="white"/>
<path d="M2.46577 2.96387L2.37652 2.9881C2.32783 3.02848 2.27915 3.06886 2.23047 3.10924C2.31161 3.0527 2.39275 3.01232 2.46577 2.96387Z" fill="white"/>
<path d="M0.908203 6.40428C0.916279 6.50119 0.948583 6.60618 0.964735 6.70309C1.03742 6.7354 1.0778 6.65464 1.04549 6.54157C0.997038 6.46889 0.980887 6.35583 0.908203 6.40428Z" fill="white"/>
<path d="M1.5493 5.58838C1.4925 5.65299 1.45193 5.65299 1.37891 5.68529L1.63043 5.72567L1.5493 5.58838Z" fill="white"/>
<path d="M1.52539 6.39634C1.58192 6.42865 1.71922 6.79207 1.70306 6.45288C1.63846 6.42057 1.60615 6.14599 1.52539 6.39634Z" fill="white"/>
<path d="M2.09266 10.5959L2.06027 10.5312L1.67969 10.7008L2.09266 10.5959Z" fill="white"/>
<path d="M4.78684 13.4224C4.68967 13.0913 4.52772 13.4951 4.47103 13.1721C4.34957 13.1559 4.51962 13.4386 4.40625 13.4143C4.60059 13.5274 4.60869 13.6485 4.78684 13.4224Z" fill="white"/>
<path d="M4.40577 13.4144C4.37346 13.3983 4.34116 13.3741 4.30078 13.3579C4.34924 13.3983 4.38154 13.4064 4.40577 13.4144Z" fill="white"/>
<path d="M9.05463 6.08936L8.87695 6.2751L9.0627 6.19434L9.05463 6.08936Z" fill="white"/>
<path d="M9.15252 6.63049L8.88477 6.58203L9.04704 6.80008C9.05515 6.75163 9.0795 6.64664 9.15252 6.63049Z" fill="white"/>
<path d="M10.7754 17.3148L10.816 17.3633C10.889 17.3714 10.9296 17.331 10.9945 17.2583L10.7754 17.3148Z" fill="white"/>
<path d="M12.6496 14.9565L12.6172 14.9888L12.8687 15.0454L12.6496 14.9565Z" fill="white"/>
<path d="M13.7691 12.7114C13.7042 12.7922 13.688 12.9214 13.623 13.0022C13.7123 12.7922 14.0369 12.8487 13.7691 12.7114Z" fill="white"/>
</svg>
