<svg width="20" height="18" viewBox="0 0 20 18" fill="none" xmlns="http://www.w3.org/2000/svg">
<path d="M10.0571 17.6039C8.4815 16.242 6.86309 14.926 5.34457 13.504C4.02871 12.2681 3.06964 10.7575 2.15053 9.20392C1.23428 7.65039 0.680537 5.53896 1.02591 3.63066C1.19147 2.71514 1.29993 1.78817 1.50545 0.881227C1.55682 0.649485 1.88508 0.480685 2.08774 0.283275C4.63383 -0.763856 6.33502 1.40193 8.26457 1.86828C8.84686 2.7695 9.34923 3.54483 9.88871 4.38025C11.3787 2.87249 12.7602 1.47632 14.1189 0.10017C15.0408 0.10017 15.8857 0.10017 17.0788 0.10017C17.9551 1.30466 18.9713 2.69511 19.9503 4.04265C18.6373 10.1824 15.3091 14.6513 10.0571 17.6039ZM9.82877 16.0189C11.647 15.1291 12.275 13.2952 13.7564 12.1079C15.1607 10.9835 15.5889 8.73185 16.5936 7.06102C17.6668 5.27575 17.7553 3.78516 15.6231 2.46051C13.939 3.26731 12.1665 4.11703 9.95436 5.17847C8.32737 4.42889 6.30934 3.49906 3.99445 2.42904C3.66905 2.91827 3.28943 3.49047 2.75851 4.2887C2.75851 5.01253 2.75851 6.12833 2.75851 6.94372C5.23896 10.1337 7.57097 13.1235 9.82877 16.0189Z" fill="#844C3A"/>
</svg>
