<svg width="8" height="16" viewBox="0 0 8 16" fill="none" xmlns="http://www.w3.org/2000/svg">
<path d="M5.7067 -0.00012207C6.30394 0.126958 7.24114 -0.371587 7.3514 0.957865C7.43409 2.01361 7.23195 2.58058 6.06504 2.58058C4.97164 2.60013 4.81544 3.48969 4.81544 4.477C4.81544 5.39589 5.13703 5.7869 6.02829 5.7478C6.46933 5.72825 7.27789 5.48387 7.14007 6.41253C7.039 7.11636 7.33302 8.38716 6.35907 8.39693C4.46629 8.42626 4.843 9.71661 4.83382 10.8701C4.82463 11.8379 4.79706 12.8056 4.843 13.7636C4.89813 14.8389 4.82463 15.5623 3.44639 15.5525C2.11409 15.5427 2.20597 14.7998 2.22435 13.8711C2.24273 12.747 2.21516 11.613 2.23354 10.4889C2.25191 9.42335 2.40811 8.31873 0.827734 8.45558C-0.127846 8.54356 0.000790037 7.72243 0.0283548 7.10658C0.0559196 6.53961 -0.256481 5.6305 0.772604 5.7478C2.32542 5.92376 2.21516 4.89734 2.24273 3.79273C2.32542 1.1045 3.33613 0.0292041 5.7067 -0.00012207Z" fill="#CF805E"/>
</svg>
