<svg width="10" height="21" viewBox="0 0 10 21" fill="none" xmlns="http://www.w3.org/2000/svg">
<path d="M7.6161 0C8.41332 0.169632 9.66434 -0.495848 9.81152 1.27877C9.9219 2.68802 9.65207 3.44484 8.09443 3.44484C6.6349 3.47094 6.4264 4.65836 6.4264 5.97627C6.4264 7.20285 6.85567 7.72479 8.04537 7.6726C8.63409 7.6465 9.7134 7.32028 9.52942 8.5599C9.39451 9.49941 9.78699 11.1957 8.48691 11.2088C5.96033 11.2479 6.4632 12.9703 6.45093 14.5101C6.43867 15.8019 6.40187 17.0937 6.46319 18.3725C6.53678 19.8078 6.43866 20.7734 4.59893 20.7604C2.82051 20.7473 2.94316 19.7556 2.96769 18.516C2.99222 17.0154 2.95543 15.5018 2.97996 14.0012C3.00449 12.5789 3.21299 11.1044 1.10343 11.2871C-0.172126 11.4045 -0.000416915 10.3084 0.0363778 9.48636C0.0731726 8.72954 -0.343835 7.51601 1.02984 7.6726C3.10261 7.90747 2.95543 6.53737 2.99222 5.06287C3.10261 1.4745 4.45175 0.0391459 7.6161 0Z" fill="white"/>
</svg>
