<svg width="15" height="13" viewBox="0 0 15 13" fill="none" xmlns="http://www.w3.org/2000/svg">
<path d="M8.40195 7.49001C4.65601 8.09051 2.79523 8.53683 0.926327 8.91823C0.650054 8.97503 0.308776 8.69913 0 8.58552C0.251896 8.30961 0.455038 7.87141 0.763814 7.78215C1.86078 7.45755 2.99025 7.25468 4.11159 7.00312C4.55851 6.90574 5.00542 6.80025 5.4442 6.69476C5.10293 6.37016 4.78602 6.01311 4.40412 5.7372C4.11159 5.50999 3.70531 5.42884 3.40466 5.20974C2.60022 4.6417 1.70639 4.13046 1.08884 3.39201C0.796316 3.05119 2.98212 3.13233 4.51788 3.99251C4.7454 4.12235 4.85103 4.43071 5.0623 4.60112C5.35482 4.84457 5.68797 5.04744 5.99675 5.26654C6.09426 4.78777 6.34615 4.26841 6.25677 3.81398C6.05363 2.83208 5.61484 1.89076 5.40358 0.900749C5.35482 0.657303 5.82611 0.30025 6.05363 0C6.22427 0.243446 6.47617 0.462547 6.54117 0.722222C6.71181 1.46879 6.63868 2.32896 6.98808 2.96192C7.435 3.76529 8.24756 4.35768 7.94691 5.43695C9.57205 5.72909 8.84074 4.07366 9.49079 3.57865C10.3359 2.92946 11.2216 2.32085 12.0829 1.696C12.7167 2.97815 10.4252 2.90512 10.929 4.16292C10.9859 4.30899 10.6934 4.59301 10.5796 4.81211C10.4659 5.03933 10.3602 5.26654 10.2546 5.50187C10.474 5.54245 10.7096 5.66417 10.8965 5.60737C11.1403 5.53433 11.3272 5.20974 11.5547 5.18539C12.7004 5.06367 13.8462 5.00687 15 4.93383C14.4475 6.61361 12.8061 5.80212 11.766 6.36205C11.3109 6.60549 10.864 6.86517 10.409 7.12484C10.8072 7.44944 11.2053 7.79026 11.6197 8.09863C11.7172 8.17166 11.9204 8.0824 12.0179 8.14732C12.8711 8.77216 13.7161 9.42135 14.5612 10.0624C13.3342 11.5474 12.5867 9.42946 11.4735 9.63233C11.0428 9.71348 10.539 9.25094 10.0433 9.15356C9.28765 8.99938 9.14951 9.24282 9.52329 9.95693C9.80769 10.5006 9.88895 11.166 10.0108 11.7909C10.0596 12.0668 9.98646 12.3589 9.97021 12.6511C9.75894 12.5131 9.53142 12.3914 9.32828 12.2372C9.22264 12.1561 9.14951 12.0343 9.06013 11.9288C8.33694 11.0281 8.80823 9.5025 7.47562 8.92634C7.35374 8.87765 7.20748 8.89388 7.06934 8.88577C7.4675 10.7278 4.79415 10.7765 4.95666 12.4806C4.96479 12.6024 4.91603 12.8296 4.86728 12.8458C4.40412 12.927 3.94095 13.0406 3.50217 12.9838C3.40466 12.9675 3.20964 12.2047 3.36403 11.9938C4.39599 10.5412 5.51734 9.14544 8.40195 7.49001C10.214 7.27903 10.3034 7.19788 10.4009 7.11673C10.2059 7.00312 10.019 6.84894 9.80769 6.80025C9.74269 6.78402 9.61268 7.07615 9.51517 7.23034C9.71831 7.27091 9.92145 7.31148 8.40195 7.49001Z" fill="#F6F4EF"/>
<g clip-path="url(#clip0)">
<path d="M8.3532 7.44132C4.63164 8.03371 2.78711 8.48002 0.926327 8.85331C0.650054 8.91011 0.308776 8.64232 0 8.52871C0.251896 8.25281 0.455038 7.82272 0.763814 7.73346C1.85265 7.41698 2.98212 7.21411 4.08722 6.96255C4.526 6.85705 4.97291 6.75156 5.4117 6.65418C5.07042 6.32959 4.75352 5.97253 4.37974 5.69663C4.08722 5.47753 3.68093 5.38826 3.38028 5.17728C2.58397 4.60924 1.69827 4.10612 1.08072 3.37578C0.796316 3.03496 2.96587 3.1161 4.48537 3.96816C4.70477 4.08989 4.81853 4.39825 5.02167 4.57678C5.31419 4.82022 5.63922 5.0231 5.95612 5.2422C6.05363 4.75531 6.30553 4.24407 6.21614 3.79775C6.013 2.80774 5.57421 1.87453 5.37107 0.900749C5.32232 0.657303 5.78548 0.30025 6.013 0C6.17552 0.235331 6.42741 0.454432 6.49242 0.722222C6.67118 1.46067 6.59805 2.31273 6.94745 2.94569C7.38624 3.74095 8.19881 4.33333 7.89816 5.40449C9.50704 5.69663 8.78386 4.05743 9.42579 3.55431C10.2627 2.90512 11.1403 2.30462 12.0016 1.67978C12.6273 2.95381 10.3602 2.88077 10.8559 4.13046C10.9128 4.27653 10.6203 4.55243 10.5065 4.77965C10.3927 5.00687 10.2871 5.23408 10.1815 5.4613C10.3927 5.50187 10.6365 5.61548 10.8234 5.56679C11.0672 5.49376 11.2541 5.17728 11.4816 5.15293C12.6192 5.03121 13.7649 4.98252 14.9025 4.90137C14.3581 6.56492 12.7248 5.76966 11.6847 6.32147C11.2297 6.56492 10.7828 6.82459 10.3359 7.07615C10.734 7.40075 11.1241 7.74157 11.5385 8.04182C11.6278 8.11486 11.8391 8.02559 11.9366 8.09051C12.7817 8.71536 13.6186 9.35643 14.4637 9.9975C13.2449 11.4744 12.4973 9.37266 11.4003 9.57553C10.9697 9.65668 10.4659 9.20225 9.97833 9.09675C9.23077 8.94257 9.08451 9.18602 9.45829 9.90012C9.74269 10.4438 9.82394 11.1011 9.9377 11.7179C9.98646 11.9856 9.91333 12.2859 9.89708 12.5699C9.68581 12.432 9.45829 12.3102 9.26327 12.1561C9.15764 12.0749 9.08451 11.9532 8.99512 11.8477C8.28007 10.9551 8.74323 9.43758 7.41874 8.86142C7.29686 8.81273 7.1506 8.82896 7.01246 8.82085C7.41062 10.6548 4.75352 10.6954 4.90791 12.3914C4.91604 12.5131 4.86728 12.7403 4.81853 12.7484C4.37161 12.8377 3.91658 12.9513 3.47779 12.8945C3.38028 12.8783 3.18527 12.1155 3.33965 11.9126C4.37161 10.4763 5.48483 9.08052 8.3532 7.44132C10.149 7.23034 10.2465 7.14919 10.3359 7.07615C10.1408 6.96255 9.95395 6.80836 9.74269 6.75968C9.67768 6.74345 9.54767 7.03558 9.45016 7.18165C9.65331 7.22222 9.85645 7.27091 8.3532 7.44132Z" fill="white"/>
</g>
<defs>
<clipPath id="clip0">
<rect width="14.9025" height="12.9189" fill="white"/>
</clipPath>
</defs>
</svg>
