<svg width="22" height="22" viewBox="0 0 22 22" fill="none" xmlns="http://www.w3.org/2000/svg">
<g clip-path="url(#clip0)">
<path d="M21.9908 10.5576C21.962 9.65003 21.6934 9.01331 20.518 9.05608C18.4121 9.13685 16.3013 9.08459 14.1905 9.07983C11.0867 9.07033 11.1251 9.06558 11.1107 12.0876C11.1059 13.1092 11.4993 13.3801 12.4539 13.3468C14.037 13.2898 15.6201 13.3325 17.3135 13.3325C16.1238 17.5995 12.1229 18.3312 9.28777 17.495C5.94412 16.5066 3.48315 12.7338 4.81677 8.9658C6.03527 5.53038 9.77229 3.29711 13.5861 4.77487C14.3152 5.05996 15.0972 5.77271 15.7112 5.63966C16.3637 5.50186 16.8434 4.5848 17.4046 4.01461C17.5102 3.90532 17.6397 3.81979 17.7644 3.72951C18.5416 3.12606 18.5368 2.62238 17.6781 2.04744C14.1425 -0.323621 10.4151 -0.61347 6.54377 1.05435C0.0243632 3.8578 -1.89452 11.8168 2.0248 17.2906C4.51935 20.7736 7.97814 22.2751 12.3052 21.9567C15.8599 21.6954 18.6135 20.1986 20.4029 17.1481C21.583 15.1334 22.0723 12.8954 21.9908 10.5576Z" fill="#844C3A"/>
</g>
<defs>
<clipPath id="clip0">
<rect width="22" height="22" fill="white"/>
</clipPath>
</defs>
</svg>
