<svg width="26" height="27" viewBox="0 0 26 27" fill="none" xmlns="http://www.w3.org/2000/svg">
<path d="M6.44887 2.12575C6.38738 2.14112 6.47961 2.27178 6.47961 2.30252C6.56416 2.22567 6.4335 2.08732 6.44887 2.12575Z" fill="white"/>
<path d="M7.38659 1.41008L7.37891 1.47925L7.51725 1.28711L7.38659 1.41008Z" fill="white"/>
<path d="M8.46918 1.25632C8.34621 0.99501 8.06953 1.3255 7.87738 1.26401L7.83896 1.21021L7.78516 1.44078C7.99267 1.36392 8.29241 1.19484 8.46918 1.25632Z" fill="white"/>
<path d="M9.02336 1.8563C8.99262 1.7487 9.14633 1.77176 8.90039 1.81787C8.91576 1.83324 8.91576 1.83324 8.92345 1.84861C8.93882 1.84861 8.96956 1.84861 9.02336 1.8563Z" fill="white"/>
<path d="M8.91528 1.84961C8.81537 1.84961 8.98445 1.94184 8.91528 1.84961V1.84961Z" fill="white"/>
<path d="M9.40775 1.82617L9.26172 1.90303C9.28478 1.9722 9.40006 1.99526 9.35395 2.03369C9.49229 2.00294 9.47692 1.93377 9.40775 1.82617Z" fill="white"/>
<path d="M9.56904 1.64062L9.49219 1.67137C9.49987 1.70211 9.51524 1.7098 9.56904 1.64062Z" fill="white"/>
<path d="M9.32227 1.74099L9.49135 1.67182C9.47598 1.6257 9.48367 1.53348 9.41449 1.69488C9.43755 1.61802 9.39144 1.68719 9.32227 1.74099Z" fill="white"/>
<path d="M9.23726 1.68811C9.1604 1.61894 9.06049 1.58051 9.2142 1.48828C8.92983 1.51902 8.96826 1.71117 9.23726 1.68811Z" fill="white"/>
<path d="M8.51585 0.973342L8.39288 0.896484L8.29297 0.996399C8.33908 0.950284 8.52354 1.05788 8.51585 0.973342Z" fill="white"/>
<path d="M10.2306 2.12498C10.2537 2.07118 10.2306 1.96358 10.2383 1.88672L10.123 1.92515C10.1615 1.97895 10.246 2.04043 10.2306 2.12498Z" fill="white"/>
<path d="M10.2305 1.88665L10.4072 1.83285C10.2766 1.78673 10.2382 1.82516 10.2305 1.88665Z" fill="white"/>
<path d="M9.63776 1.3418C9.53785 1.3956 9.43793 1.45708 9.3457 1.51857C9.46099 1.46477 9.57627 1.3956 9.69156 1.34948L9.63776 1.3418Z" fill="white"/>
<path d="M10.7753 2.31773L10.6523 2.41764L10.8675 2.2793L10.7753 2.31773Z" fill="white"/>
<path d="M11.145 2.44727C11.0374 2.52412 11.145 2.65478 11.0527 2.69321C11.1526 2.71626 11.2679 2.67015 11.3832 2.63172C11.2833 2.63172 11.2141 2.57792 11.145 2.44727Z" fill="white"/>
<path d="M11.5674 2.57812C11.5213 2.57812 11.4521 2.60118 11.3906 2.62424C11.4367 2.62424 11.4982 2.60887 11.5674 2.57812Z" fill="white"/>
<path d="M10.6682 1.94922C10.6682 1.98765 10.6605 2.07988 10.7297 2.14905V1.97228C10.7067 1.96459 10.6836 1.9569 10.6682 1.94922Z" fill="white"/>
<path d="M10.7207 1.96484C10.7822 1.99559 10.8283 2.01864 10.8437 2.02633C10.8283 2.01864 10.7976 2.00327 10.7207 1.96484Z" fill="white"/>
<path d="M10.6523 1.94002L10.6677 1.9477C10.6677 1.93233 10.66 1.92465 10.6523 1.94002Z" fill="white"/>
<path d="M10.0371 1.57123C10.1524 1.50206 10.3753 1.45594 10.2139 1.27148C10.1217 1.36371 10.2139 1.47131 10.0371 1.57123Z" fill="white"/>
<path d="M10.6371 1.71736L10.4757 1.63281C10.468 1.67893 10.4757 1.7481 10.4219 1.77884L10.6371 1.71736Z" fill="white"/>
<path d="M10.7366 1.70312L10.6367 1.7185L10.6982 1.75692L10.7366 1.70312Z" fill="white"/>
<path d="M11.3818 2.31009C11.4817 2.27935 11.5508 2.31009 11.6431 2.34083C11.5739 2.27166 11.4894 2.21018 11.3971 2.16406C11.3587 2.20249 11.2895 2.27166 11.3818 2.31009Z" fill="white"/>
<path d="M11.0742 2.11807H11.0896C11.0896 2.1027 11.0819 2.09501 11.0742 2.11807Z" fill="white"/>
<path d="M12.404 2.82566V2.79492L12.3887 2.81798L12.404 2.82566Z" fill="white"/>
<path d="M11.3976 2.12539C11.3438 2.06391 11.2823 2.08696 11.2285 2.11002C11.2823 2.11771 11.3438 2.12539 11.3976 2.15613C11.413 2.14845 11.4207 2.13308 11.3976 2.12539Z" fill="white"/>
<path d="M11.8134 2.63248C11.7981 2.58637 11.775 2.54025 11.752 2.49414C11.7596 2.55563 11.7827 2.66323 11.8134 2.63248Z" fill="white"/>
<path d="M11.0974 2.17188H11.082C11.0897 2.21799 11.0974 2.19493 11.0974 2.17188Z" fill="white"/>
<path d="M11.0977 2.17089C11.1438 2.16321 11.1822 2.14015 11.2283 2.11709C11.1822 2.10941 11.1361 2.10941 11.0977 2.11709C11.0977 2.13246 11.0977 2.15552 11.0977 2.17089Z" fill="white"/>
<path d="M13.2728 2.16384C13.1652 2.27144 12.9039 2.25607 12.8501 2.01012C12.6272 1.99475 12.4581 2.47895 12.4043 2.79406C12.4504 2.74026 12.4812 2.69415 12.681 2.72489C12.681 2.62498 12.4735 2.33292 12.681 2.30987C12.9269 2.39441 12.8116 2.47127 12.8578 2.60961C12.8962 2.39441 13.2728 2.58655 13.4111 2.34061L13.1729 2.27144C13.1959 2.23301 13.2958 2.23301 13.2728 2.16384Z" fill="white"/>
<path d="M12.1434 2.59337L12.0742 2.57031C12.128 2.63948 12.1434 2.71634 12.1588 2.87774C12.2971 2.88543 12.3432 2.85468 12.3816 2.81625C12.2971 2.7394 12.1972 2.67023 12.105 2.60106L12.1434 2.59337Z" fill="white"/>
<path d="M11.8058 2.40905C11.9365 2.29376 12.1209 2.31682 12.1209 2.1093C11.9288 2.00939 11.9211 2.15542 11.7751 2.14773C12.0902 2.28608 11.6444 2.17848 11.8135 2.38599C11.7443 2.3783 11.6905 2.35525 11.6367 2.33219C11.6828 2.3783 11.7136 2.4321 11.7443 2.4859V2.47053C11.7443 2.44747 11.7443 2.4321 11.752 2.44748H11.7597C11.7751 2.43979 11.7904 2.42442 11.8058 2.40905C11.8673 2.4859 11.7981 2.45516 11.7597 2.45516L11.7443 2.47822C11.8519 2.50896 11.9672 2.53202 12.0748 2.57045C12.0364 2.50896 11.9518 2.47053 11.8058 2.40905Z" fill="white"/>
<path d="M10.4902 0.972656C10.4979 0.988028 10.4902 1.0034 10.4902 1.01108C10.521 1.0034 10.5363 0.988028 10.4902 0.972656Z" fill="white"/>
<path d="M10.6132 1.11163C10.5825 1.127 10.5441 1.1808 10.4672 1.14238C10.4057 1.0732 10.4903 1.06552 10.498 1.01172C10.4365 1.04246 10.2904 1.08089 10.4288 1.19618L10.4595 1.1808C10.5902 1.28072 10.6978 1.52666 10.667 1.54203C10.667 1.396 10.667 1.28072 10.6132 1.11163Z" fill="white"/>
<path d="M11.2988 1.69486C11.3987 1.71023 11.5063 1.71791 11.5986 1.74097C11.5755 1.6718 11.5448 1.61031 11.5217 1.54883L11.491 1.63337C11.3526 1.53346 11.3449 1.64874 11.2988 1.69486Z" fill="white"/>
<path d="M12.3825 2.91016L12.2441 3.03313L12.5208 2.92553L12.3825 2.91016Z" fill="white"/>
<path d="M12.6741 3.11719L12.5742 3.22479L12.7049 3.2171L12.6741 3.11719Z" fill="white"/>
<path d="M6.95526 17.6973L6.84766 17.705C6.89377 17.7126 6.92451 17.705 6.95526 17.6973Z" fill="white"/>
<path d="M7.64681 17.9032L7.68524 17.834C7.63912 17.8647 7.61607 17.8955 7.64681 17.9032Z" fill="white"/>
<path d="M16.0629 11.1719C15.9092 11.2718 15.671 11.3717 15.8477 11.3794L16.0168 11.364C15.9938 11.2795 16.0168 11.2257 16.0629 11.1719Z" fill="white"/>
<path d="M13.2422 16.6596L13.3037 16.6903C13.3037 16.6211 13.3114 16.5597 13.3114 16.5059C13.2883 16.552 13.2652 16.6058 13.2422 16.6596Z" fill="white"/>
<path d="M13.4416 17.3279L13.2188 17.3125C13.2725 17.3202 13.3417 17.3279 13.4416 17.3279Z" fill="white"/>
<path d="M3.34241 16.0059L3.14258 16.0673C3.28861 16.1826 3.28092 16.0673 3.34241 16.0059Z" fill="white"/>
<path d="M15.0341 6.02919C15.0264 6.15216 15.0341 6.24439 15.0572 6.31356C15.0956 6.15985 15.1802 5.99845 15.0341 6.02919Z" fill="white"/>
<path d="M7.7171 16.082C7.65562 16.0974 7.62487 16.1205 7.61719 16.1589C7.67867 16.1435 7.7171 16.1205 7.7171 16.082Z" fill="white"/>
<path d="M15.1864 6.59114C15.1941 6.56808 15.1941 6.54502 15.2018 6.52197C15.1403 6.46048 15.0865 6.399 15.0634 6.31445C15.0327 6.42974 15.0404 6.54502 15.1864 6.59114Z" fill="white"/>
<path d="M2.5293 2.88697C2.54467 2.88697 2.55235 2.87929 2.56773 2.8716C2.54467 2.85623 2.53698 2.8716 2.5293 2.88697Z" fill="white"/>
<path d="M6.5175 1.78711C6.48676 1.80248 6.44065 1.82554 6.39453 1.84091C6.41759 1.8486 6.45602 1.83322 6.5175 1.78711Z" fill="white"/>
<path d="M13.666 4.18602C13.6045 4.13222 13.643 4.18602 13.666 4.18602V4.18602Z" fill="white"/>
<path d="M13.8965 3.45457C13.9195 3.45457 13.9503 3.44689 13.981 3.42383C13.9426 3.44689 13.9195 3.45457 13.8965 3.45457Z" fill="white"/>
<path d="M16.4551 6.98317C16.4781 6.95242 16.4781 6.96011 16.4551 6.98317V6.98317Z" fill="white"/>
<path d="M13.6426 4.04688C13.6426 4.0853 13.658 4.11605 13.6733 4.15447C13.6733 4.13142 13.6656 4.10067 13.6426 4.04688Z" fill="white"/>
<path d="M13.5963 4.10836C13.5809 4.0853 13.5733 4.06225 13.5656 4.04688C13.5348 4.06225 13.5271 4.07762 13.5963 4.10836Z" fill="white"/>
<path d="M13.7429 4.2619C13.7121 4.23115 13.6891 4.19273 13.6737 4.1543C13.6737 4.16967 13.6737 4.18504 13.666 4.18504C13.6814 4.20041 13.7044 4.22347 13.7429 4.2619Z" fill="white"/>
<path d="M0.460303 10.0652C0.467989 10.0576 0.467989 10.0499 0.475675 10.0422C0.398818 9.94996 0.414189 9.98839 0.460303 10.0652Z" fill="white"/>
<path d="M17.1307 13.7615C17.1307 13.7615 17.1307 13.7538 17.1307 13.7461L17.123 13.7538L17.1307 13.7615Z" fill="white"/>
<path d="M17.0863 14.1385C16.9787 13.9079 17.0248 13.8464 17.117 13.7619L16.6328 13.6543C16.7865 13.808 16.9402 13.9694 17.0863 14.1385Z" fill="white"/>
<path d="M5.31851 17.0971L5.47222 17.3353C5.09562 17.4429 4.94191 17.2508 5.05719 17.5505C5.31851 17.1048 5.9641 17.9041 6.18699 17.4199L6.29459 17.5813C6.25616 17.5582 6.2331 17.589 6.19468 17.5659C6.3945 17.9041 6.53285 17.2969 6.87102 17.4891C6.9863 17.5659 7.05547 17.6735 6.94787 17.7043L7.27067 17.6658C7.35522 17.6966 7.3091 17.7811 7.22456 17.7504C7.37827 17.7811 7.5243 17.8119 7.67802 17.8272L7.67033 17.8426C7.75487 17.7811 7.92396 17.6889 8.0085 17.6505C8.10841 17.7504 7.93933 17.6889 7.9547 17.7657L8.2237 17.6966C8.30056 17.8503 8.06999 17.9348 7.89322 17.881C8.02387 18.4344 8.12379 17.8042 8.58493 18.1885L8.3313 18.2115C8.4389 18.5343 8.6541 18.4575 8.91541 18.6727C8.85393 18.5727 8.41584 18.1347 8.71559 18.0501C8.78476 18.0962 8.89236 18.1347 9.05376 18.0424C9.0307 18.2269 9.1921 18.1961 9.37656 18.2038L9.34581 18.4498C9.55333 18.396 9.54564 18.2653 9.66861 18.1654C9.8915 18.2038 9.93761 18.3883 9.99141 18.5497C10.3603 18.5881 9.73778 18.2423 10.1759 18.1961C10.4756 18.2884 10.6985 18.1731 11.029 17.9963C11.2442 18.0578 11.0059 18.15 11.0905 18.2115L11.2519 17.9963C11.298 17.9963 11.2903 18.0578 11.2903 18.0885C11.4363 17.9886 11.2672 17.8426 11.4978 17.7427C11.5055 17.466 12.0666 18.0347 12.2894 17.6581C12.3817 17.7043 12.2971 17.8119 12.3432 17.8964C12.6891 17.5813 12.6583 17.6581 12.8812 17.2815C12.9888 17.2969 13.0964 17.32 13.204 17.3277C12.9427 17.2431 13.1041 16.928 13.2271 16.6821C13.1272 16.6283 13.0426 16.5821 12.9888 16.5668C13.0734 16.4822 13.1579 16.3977 13.2348 16.3055C13.2886 16.3208 13.2963 16.4131 13.2963 16.5283C13.3039 16.4976 13.3193 16.4745 13.327 16.4438C13.4807 16.4669 13.4884 16.6206 13.4653 16.7897C13.4039 16.7666 13.3424 16.7359 13.2809 16.7128C13.2655 16.8819 13.2578 17.0663 13.3347 17.1893C13.3424 17.1509 13.3808 17.1125 13.4192 17.0817C13.4115 17.1278 13.4192 17.1663 13.4346 17.1816C13.4577 17.197 13.473 17.1355 13.4961 17.051L13.6959 17.2585L13.6652 17.1509C13.8419 17.1278 14.0187 17.0971 14.1878 17.0587C14.3646 16.6359 14.3799 16.1364 14.7027 15.7213C14.7335 15.9596 14.8872 15.9903 15.0409 16.1825C14.7719 16.0826 14.7719 16.536 14.4952 16.6667C14.6336 16.6052 14.672 16.7128 14.6643 16.7666C14.7642 16.6052 14.8641 16.4361 14.9487 16.267C15.064 16.4284 15.1255 16.3055 15.2869 16.2824C14.9641 16.0595 15.4098 15.8366 15.4713 15.5984C15.5712 15.6829 15.6327 15.8059 15.4175 15.9673C15.8325 15.975 15.3637 15.3909 15.7249 15.3601C15.6865 15.4062 15.6481 15.4216 15.6788 15.4831C15.7019 15.3063 15.9863 15.0911 16.0247 15.2218L15.9863 15.2756C16.3091 14.9912 16.7395 14.2226 16.4705 14.0151C16.5089 14.0305 16.7856 14.2534 16.8317 14.3149C16.6472 13.9152 16.4167 13.5309 16.1707 13.1927C16.4013 13.3695 17.1237 13.4003 17.1161 13.7845C17.2006 13.7077 17.2928 13.6078 17.2775 13.3695C17.216 13.4233 16.8394 13.3772 16.8471 13.285C17.2313 13.162 17.0699 13.1927 17.4235 12.9699C17.3313 13.0467 16.9547 12.8008 17.0085 12.6624C17.0623 12.7085 17.4312 12.77 17.4542 12.8392C17.3543 12.6624 17.2467 12.501 17.1391 12.3396C17.1929 12.4549 17.4927 12.4472 17.631 12.3857C17.5388 12.4088 17.7155 12.0399 17.6848 11.9246L17.5541 12.0783C17.6925 11.6325 17.0315 11.548 17.093 11.1407C17.1775 11.1945 17.631 11.3174 17.7002 11.0945C17.4927 10.9639 16.6626 10.595 16.4858 10.2722L16.6088 10.203L16.4551 9.94169C16.8009 10.0724 17.5157 10.5566 17.7693 10.8717C17.8769 10.7026 17.9231 10.8332 17.9154 10.5719C18.0383 10.4797 18.0921 10.7179 18.0921 10.7948C18.1306 10.595 18.1459 10.3875 18.169 10.18C17.9154 10.2107 17.8923 9.73418 17.6771 9.77261C17.777 9.98012 17.8769 10.1876 17.9692 10.4028C17.7155 10.4259 17.239 10.0493 17.2467 9.66501C17.3389 9.55741 17.7079 9.70344 17.8001 9.68807C17.7079 9.64195 17.5926 9.31147 17.6541 9.27304L17.8155 9.43444C17.8846 9.1885 17.4312 9.10395 17.631 8.80421C17.631 8.71198 17.9077 8.46604 17.754 8.47372C17.4927 8.68892 16.6011 8.8657 16.3629 8.8119C16.3782 8.78115 16.555 8.32001 16.6703 8.18167C16.8624 7.98184 17.2544 8.2739 17.4235 8.10481C17.3543 8.1125 17.2467 8.05101 17.216 8.02795C17.2544 7.92035 17.4389 8.01258 17.3543 7.81276C17.093 7.8435 17.2698 7.39004 17.1161 7.77433C16.9931 7.59756 17.1084 7.55144 17.0315 7.32087C16.8932 7.44384 16.4167 7.29013 16.286 7.12873C16.3552 7.12104 16.4243 7.04418 16.4474 7.01344C16.3321 6.62147 16.3629 6.37553 16.2091 6.02199C16.2553 5.96819 16.2399 5.76067 16.3782 5.78373C16.3091 5.75299 16.2091 5.7453 16.1553 5.6377C16.2553 5.33027 16.3014 5.86827 16.4705 5.5839C16.3321 5.63002 16.14 5.39176 15.9786 5.28416C15.7941 5.43787 16.1169 5.64539 16.2783 5.76836C15.9863 5.9067 15.5559 5.79142 15.2484 5.5301C15.0332 5.30722 15.3637 5.3149 15.3022 5.29184C15.0563 4.76153 14.5798 5.17656 14.5183 4.6693C14.5798 4.4003 14.8488 4.42336 14.9487 4.30808C15.1562 4.47716 15.064 4.70005 15.1562 4.83839L15.1255 4.60782C15.2254 4.63856 15.3637 4.75385 15.356 4.86913C15.4329 4.62319 14.8488 4.01602 14.6797 3.56256C14.5721 3.5395 14.4337 3.47802 14.4107 3.58562L14.526 3.67785C14.4799 3.88536 14.1801 3.62405 14.2339 3.8085C14.0264 3.73933 13.7574 3.71628 13.6421 3.46265L13.7728 3.26282C13.7267 3.31662 13.7958 3.47802 13.8957 3.4857C13.7497 3.47802 13.8419 2.97076 13.5422 3.10911L13.5576 3.35505C13.3424 3.30125 13.0119 3.34736 12.9043 3.14753C12.8274 3.38579 12.9658 3.16291 12.8966 3.46265C13.0273 3.11679 13.2886 3.84693 13.3808 3.44728C13.2655 3.78545 13.4884 3.73933 13.4192 4.06982C13.473 4.01602 13.4807 3.9161 13.5729 4.0775C13.596 4.06982 13.6267 4.06213 13.6498 4.06213L13.6575 4.0775V4.06213C13.6729 4.06213 13.6729 4.06213 13.6575 4.05445C13.6575 4.00065 13.6575 3.94685 13.6805 3.90842C13.8804 3.85462 14.0648 4.09288 14.2032 4.10825C14.2493 4.21585 14.1033 4.1313 14.0802 4.22353L14.28 4.25427C14.1571 4.37725 14.2262 4.66162 13.9957 4.51559L14.1263 4.70773C14.1263 4.86913 14.1955 5.0459 14.3261 5.0997C14.3569 5.2073 14.6336 5.23036 14.4722 5.22267C14.5644 5.30722 14.6643 5.39176 14.7565 5.4763L14.7181 5.49936C14.8795 5.81447 15.333 6.02967 15.2177 6.53693C15.3022 6.62916 15.4021 6.72907 15.4329 6.93659L15.3099 7.02881C15.4175 7.15947 15.333 7.51301 15.4944 7.52838C15.1716 7.80507 15.625 8.26621 15.6173 8.55058L15.8095 8.51984C15.8402 8.7043 15.9325 8.8657 16.0401 9.08858L16.2091 9.05015C16.3859 9.23461 16.163 9.58815 16.2015 9.90327C16.1323 9.88789 16.1477 9.80335 16.1784 9.74187C15.8249 10.1338 16.5012 10.5335 16.2015 10.8794C16.2553 10.9639 16.2322 11.0254 16.1861 11.0792C16.1861 11.0715 16.1861 11.0638 16.1784 11.0561C16.1784 11.0638 16.1707 11.0792 16.1707 11.0869C16.14 11.1176 16.1015 11.156 16.0708 11.1945C16.1169 11.1637 16.1553 11.133 16.1707 11.1099C16.1707 11.1791 16.1784 11.2713 16.2091 11.3789L16.0247 11.3943C16.0247 11.402 16.0247 11.4097 16.0247 11.4173C15.9478 11.5019 16.1015 11.5019 16.2476 11.4711C16.2706 11.5249 16.3014 11.5711 16.3398 11.6172C16.0324 11.6402 16.3936 11.8939 16.0554 11.9323C16.2015 12.0322 16.0554 12.4242 16.3475 12.5702C16.3091 12.5625 16.2783 12.5856 16.2937 12.5318C16.2245 12.624 16.1553 12.7162 16.2091 12.8469L15.9709 12.8085L16.1553 13.1159C15.9632 13.1927 15.8633 13.2081 15.7557 13.0083C15.8633 13.431 15.7403 13.3003 15.8325 13.6923L15.7096 13.6078C15.6711 13.7 15.748 13.9536 15.602 13.9459C15.2484 13.9844 14.8641 14.8913 14.2032 15.0681C14.5798 15.3371 13.865 15.0911 14.0571 15.3755C13.9649 15.314 13.865 15.314 13.8804 15.1833C13.7036 15.4523 13.4269 15.2986 13.4039 15.6522C13.3193 15.5753 13.3808 15.4831 13.3193 15.4447C13.3116 15.4754 13.2886 15.5676 13.2271 15.5292C13.1733 15.4908 13.2194 15.4293 13.2348 15.3678C12.9965 15.5369 13.1118 15.8289 13.2348 16.1133C13.0196 16.0595 12.9658 16.1133 12.935 16.3439C12.8428 16.2747 12.7121 16.2209 12.8812 16.1056C12.7736 16.1441 12.2126 16.2286 12.2741 16.4515C12.2203 16.4054 12.1204 16.4822 12.0973 16.5207C11.8514 16.5745 11.8206 16.5591 11.5824 16.6359L11.6592 16.659C11.6208 16.9664 11.4671 16.7666 11.2672 16.8358V16.805C10.7754 16.659 11.0751 16.9357 10.5986 16.7359L10.637 16.9203C10.614 17.32 10.2143 16.7128 9.95298 16.8511L10.0529 16.9587C9.8915 17.0971 9.66093 16.4054 9.53027 16.3516C9.49953 16.3131 9.58407 16.2978 9.6225 16.2824C9.27664 16.0211 9.56101 16.5207 9.27664 16.5514C9.23821 16.4131 9.37656 16.2286 9.19978 16.1825C9.13061 16.0672 8.60799 16.5283 8.40047 16.2209C8.43121 16.3285 8.46964 16.4438 8.32362 16.4899C8.10842 16.4822 7.88553 15.998 7.6319 16.2517C7.61653 16.2209 7.61653 16.1902 7.61653 16.1671C7.44744 16.2055 7.0939 16.1441 6.94787 16.267C7.03242 15.6445 5.91799 16.1825 6.15625 15.6368C6.01022 15.583 5.86419 15.5138 5.71816 15.4523L5.75659 15.4062C5.51065 15.2371 5.35693 15.2909 5.18785 15.3601C5.14942 15.2909 5.21859 15.2679 5.24165 15.2448C4.92653 14.9067 4.88811 14.9067 4.41159 14.922L4.49614 14.7453C4.34242 14.7683 4.18102 14.1227 3.72757 13.9921C3.74294 13.9767 3.78136 13.9613 3.81979 13.9613C3.28948 13.7692 3.45857 12.7931 2.81297 13.0775C2.70537 13.0237 2.59008 12.9775 2.48248 12.9161C2.67462 13.3003 2.19811 13.039 2.19811 13.2465C2.06745 13.1159 2.12894 12.7547 2.27497 12.9161L2.26728 12.9622C2.60545 12.8315 2.09051 12.4472 2.32108 12.3319C1.90605 11.6249 1.85225 10.8179 1.78308 10.1185L1.51408 10.2414L1.49871 9.98012C1.56788 9.90327 1.70623 9.87252 1.71391 10.0493C1.85225 9.9417 1.56788 9.75724 1.49871 9.74955C1.59863 9.38832 1.8292 9.87252 1.83688 9.76492L1.80614 9.62658L1.7754 9.65732C1.66011 9.54204 1.52177 9.53435 1.54483 9.31147C1.60631 9.17312 1.7216 9.24998 1.73697 9.19618C1.76003 9.19618 1.76771 9.18081 1.75234 9.11164C1.76771 9.00404 1.79077 8.90412 1.80614 8.79653L1.56788 8.89644C1.46797 8.74273 1.62168 8.58901 1.345 8.71198C1.73697 8.53521 1.73697 7.50533 1.91374 7.39773C1.82151 7.1441 1.89837 6.94427 2.01365 6.70601C1.94448 6.75213 1.69854 6.69833 1.81383 6.49081C2.2596 6.7675 2.18274 6.18339 2.59777 6.1757C2.30571 6.21413 2.82065 5.57622 2.39794 5.64539C2.52091 5.49167 2.57471 5.72224 2.7438 5.64539C2.77454 5.1535 3.32791 4.84607 3.58154 4.36956C3.52774 4.32345 3.38939 4.33882 3.38171 4.1851L3.85822 4.1313C3.89665 4.0237 3.60459 3.81619 3.91202 3.8085C3.85054 3.79313 3.75831 3.77776 3.78137 3.7009C4.24251 3.38579 4.55762 2.94771 4.94959 2.57879C5.33388 2.20988 5.81808 1.91014 6.3945 2.00236C6.22542 1.94088 6.29459 1.87939 6.3945 1.84096C6.31765 1.83328 6.33302 1.68725 6.2869 1.60271C6.45599 1.63345 6.61739 1.64882 6.7711 1.69494C6.7711 1.42594 7.19382 1.56428 7.19382 1.32602L7.06316 1.40288C7.2015 1.08008 6.6635 0.834138 6.57896 0.488281C6.5021 0.680424 6.31765 0.603567 6.10245 0.58051C5.89493 0.542081 5.65668 0.549767 5.57213 0.857195C5.45685 0.826452 5.5875 0.711166 5.51065 0.657367C5.47991 0.849509 5.38768 0.926366 5.14942 0.987852V0.941738C4.61142 1.31065 4.29631 1.35677 3.66608 1.77948L3.82748 1.87939C3.70451 1.96394 3.63534 1.94856 3.55079 1.97162C3.61228 2.29442 3.88128 1.67956 3.97351 2.01774C3.55079 1.87939 3.22031 2.78631 2.81297 2.62491C2.65925 2.80936 3.02048 2.70176 2.86677 2.88622L2.73611 2.86316L2.81297 3.00151C2.69768 3.10911 2.53628 3.08605 2.45174 3.03225C2.48248 3.00919 2.49785 2.93233 2.51322 2.89391C2.27497 2.97076 2.2058 3.39348 2.12894 3.42422L2.32108 3.27819C2.02903 3.86999 1.49103 4.47716 1.42185 5.13813H1.52177C1.46028 5.63002 1.26814 5.43019 1.12211 5.92976L1.11443 5.9067C1.15286 6.03736 1.13748 6.1757 1.076 6.30636C1.02988 6.14496 0.799313 6.46007 0.760884 6.26024C0.737827 6.80593 0.791627 6.5523 0.98377 6.97501L0.82237 7.00576C0.906913 7.15178 0.968398 7.18253 0.937656 7.43615C0.883856 7.1979 0.684027 7.53607 0.591799 7.25938C0.130657 7.72053 0.699399 8.12018 0.207514 8.28927C0.55337 8.60438 0.507256 7.85118 0.568742 8.01258C0.71477 7.92804 0.814684 8.2739 0.753199 8.42761C0.722456 8.58901 0.199828 8.6505 0.184457 9.11932C0.192143 9.07321 0.1614 9.06553 0.1614 9.01941C0.0537999 9.1885 0.276685 9.36527 0.122971 9.57278C0.368914 9.68807 0.122971 9.84947 0.422714 9.87252L0.338171 9.4575C0.438085 9.70344 0.76857 9.88789 0.653285 10.2722C0.591799 10.2491 0.491885 10.1492 0.438085 10.0724C0.361228 10.1953 0.522628 10.2799 0.453456 10.4105C0.138343 10.4182 0.322799 9.91864 0.0922284 9.66501C-0.0307428 9.80335 0.330485 10.1492 0 10.0416C0.430399 10.1876 0.00768572 10.5181 0.368914 10.7794L0.184457 10.7948C0.222885 10.8409 0.330485 10.9255 0.345857 11.01L0.0922284 10.8794C0.353542 11.0869 0.0230571 11.4173 0.222885 11.6325C0.0614856 11.1253 0.399656 11.4558 0.468828 11.2098C0.883856 11.7325 0.0999141 11.7017 0.453456 12.3627C0.391971 12.2781 0.407342 11.9861 0.545685 12.0937C0.561056 12.232 0.576428 12.4242 0.522628 12.5395C0.753199 12.9622 0.66097 12.3934 0.845427 12.5318C0.707085 12.7777 1.02988 12.6932 1.1836 12.8392L1.0222 12.9314C1.17591 13.4541 1.41417 12.8623 1.53714 13.3311L1.21434 13.3003L1.40648 13.4694L1.19897 13.5386C1.47565 13.6846 1.48334 13.7692 1.59863 14.0151C1.6678 13.8921 1.89068 13.8383 2.02903 14.0151C2.03671 14.2073 1.8292 14.0612 2.05977 14.2918C1.92143 14.3149 1.75234 14.3379 1.80614 14.1227C1.75234 14.1458 1.6678 14.1381 1.614 14.1611C1.614 14.384 1.86763 14.5224 1.94448 14.6069C1.92143 14.5685 1.89068 14.5224 1.89068 14.4839L2.39794 14.6684C2.39794 14.7683 2.3134 14.7683 2.23654 14.7606C2.3134 14.8221 2.42868 14.8067 2.53628 14.8913C2.40562 14.9681 2.29802 15.0834 2.10588 14.9912L2.55165 15.1987C2.5286 15.2679 2.59777 15.4985 2.52091 15.4985C2.65925 15.7367 3.18188 15.706 3.37402 15.9903C3.40477 15.975 3.45088 15.975 3.52005 16.0057C3.74294 16.2209 3.88128 16.536 4.30399 16.5668L4.34242 16.9049C4.62679 17.0049 4.27325 16.4669 4.74208 16.6283C5.08025 16.7205 4.74208 16.8896 4.81125 17.0125C5.02645 16.9741 5.39536 16.8665 5.59519 17.1893C5.47222 17.1893 5.41842 17.1201 5.31851 17.0971ZM8.72327 18.0347C8.64641 18.0655 8.4927 18.1577 8.46196 18.0424C8.57724 17.8426 8.61567 17.9579 8.72327 18.0347ZM13.8419 16.7435C13.8266 16.8204 13.742 16.8358 13.6344 16.8127C13.6882 16.7666 13.7497 16.7435 13.8419 16.7435ZM14.3031 4.76922H14.3108C14.3338 4.91525 14.3261 4.86145 14.3031 4.76922ZM14.2109 4.5079C14.1724 4.50022 14.1571 4.51559 14.1417 4.54633C14.1878 4.53096 14.2262 4.57707 14.257 4.63856C14.2877 4.59245 14.2954 4.54633 14.2109 4.5079ZM1.69085 9.1347L1.63705 9.18081C1.59094 9.06552 1.63705 9.10395 1.69085 9.1347Z" fill="white"/>
<path d="M13.4192 17.2429C13.3885 17.2198 13.3654 17.1968 13.3501 17.166C13.3424 17.2044 13.3501 17.2352 13.4192 17.2429Z" fill="white"/>
<path d="M3.38218 15.9979L3.37449 15.9902C3.35912 15.9979 3.35144 16.0056 3.34375 16.0133L3.38218 15.9979Z" fill="white"/>
<path d="M17.5008 7.92773C17.4854 7.99691 17.4624 8.04302 17.4316 8.07376C17.4778 8.06608 17.5085 8.02765 17.5008 7.92773Z" fill="white"/>
<path d="M13.0664 3.66305L13.2124 3.74759C13.1509 3.69379 13.1586 3.64768 13.1509 3.60156C13.1202 3.63231 13.1048 3.70148 13.0664 3.66305Z" fill="white"/>
<path d="M12.5898 1.82486C12.5513 1.83255 12.5437 1.79412 12.5052 1.8018L12.4668 1.87866C12.559 1.93246 12.6666 1.92477 12.5898 1.82486Z" fill="white"/>
<path d="M13.3722 3.1096C13.4644 2.98663 13.3492 2.9482 13.2416 2.88672C13.2492 2.8944 13.2569 2.8944 13.2569 2.90209C13.0802 3.04043 13.2262 3.07886 13.3722 3.1096Z" fill="white"/>
<path d="M13.2124 2.86995C13.1817 2.8469 13.1433 2.83152 13.1202 2.80078C13.051 2.86227 13.1433 2.8469 13.2124 2.86995Z" fill="white"/>
<path d="M13.9266 4.30018C13.9189 4.23101 13.7498 4.4001 13.7805 4.33093C13.5807 4.40778 14.2033 4.47695 13.9266 4.30018Z" fill="white"/>
<path d="M13.643 2.66406L13.5508 2.84083L13.7045 2.77166L13.643 2.66406Z" fill="white"/>
<path d="M14.2645 3.49292L14.1646 3.30078C14.1416 3.32384 14.1108 3.31615 14.0801 3.30078C14.1569 3.40838 14.2261 3.53904 14.2645 3.49292Z" fill="white"/>
<path d="M14.0797 3.3089C14.0413 3.2551 13.9952 3.21667 13.9414 3.20898C13.9721 3.23204 14.0259 3.28584 14.0797 3.3089Z" fill="white"/>
<path d="M13.8965 2.81641L13.9119 2.89326L14.0041 3.00855L13.8965 2.81641Z" fill="white"/>
<path d="M15.502 5.33881L15.6557 5.51558C15.7248 5.50789 15.7325 5.43104 15.671 5.36955C15.6019 5.33881 15.5404 5.27732 15.502 5.33881Z" fill="white"/>
<path d="M15.6024 4.46875C15.6024 4.54561 15.5716 4.56866 15.5332 4.63783L15.7407 4.51486L15.6024 4.46875Z" fill="white"/>
<path d="M16.002 5.03089C16.0711 5.01552 16.3324 5.24609 16.1787 4.98478C16.1019 5.00015 15.9405 4.81569 16.002 5.03089Z" fill="white"/>
<path d="M16.9388 8.43453L16.9235 8.37305L16.5469 8.46527L16.9388 8.43453Z" fill="white"/>
<path d="M18.015 11.6086C18.1456 11.3166 17.7844 11.5087 17.9304 11.2474C17.8459 11.1705 17.8151 11.4626 17.7383 11.3781C17.8151 11.5702 17.7537 11.6624 18.015 11.6086Z" fill="white"/>
<path d="M17.7395 11.387C17.7241 11.3563 17.7087 11.3255 17.6934 11.2871C17.7087 11.3409 17.7241 11.364 17.7395 11.387Z" fill="white"/>
<path d="M7.07812 1.82528C7.13192 1.84066 7.17804 1.86371 7.23184 1.87908L7.11655 1.77148L7.07812 1.82528Z" fill="white"/>
<path d="M7.29297 1.49609L7.36214 1.73435L7.41594 1.49609C7.39288 1.51147 7.3314 1.54989 7.29297 1.49609Z" fill="white"/>
<path d="M9.2067 18.5951L9.22976 18.5336C9.2067 18.4645 9.16059 18.4568 9.06836 18.4414L9.2067 18.5951Z" fill="white"/>
<path d="M6.64844 17.8577L6.68687 17.873L6.67918 17.6348L6.64844 17.8577Z" fill="white"/>
<path d="M4.48828 17.2043C4.56514 17.2581 4.68811 17.2658 4.76497 17.3196C4.56514 17.2581 4.61125 16.9507 4.48828 17.2043Z" fill="white"/>
<path d="M16.5619 15.5981C16.5465 15.5597 16.4313 15.6673 16.4082 15.6826C16.4774 15.7134 16.5927 15.5673 16.5619 15.5981Z" fill="white"/>
<path d="M17.2627 15.8828L17.2012 15.9136L17.3856 15.8905L17.2627 15.8828Z" fill="white"/>
<path d="M17.6391 16.3673C17.8159 16.1521 17.4623 16.2213 17.47 16.0753L17.5084 16.0215L17.3086 16.1214C17.4162 16.1983 17.6391 16.2444 17.6391 16.3673Z" fill="white"/>
<path d="M17.3783 16.989C17.4474 16.9044 17.4936 16.989 17.3552 16.9121C17.3475 16.9275 17.3475 16.9275 17.3398 16.9429C17.3552 16.9505 17.3706 16.9659 17.3783 16.989Z" fill="white"/>
<path d="M17.3471 16.9355C17.301 16.8894 17.301 17.0277 17.3471 16.9355V16.9355Z" fill="white"/>
<path d="M17.5848 17.1346L17.4542 17.127C17.4158 17.1808 17.4542 17.2499 17.4004 17.2576C17.4926 17.2884 17.531 17.2346 17.5848 17.1346Z" fill="white"/>
<path d="M17.7856 17.0741L17.7241 17.0664C17.7164 17.0895 17.7164 17.0971 17.7856 17.0741Z" fill="white"/>
<path d="M17.6074 17.0431L17.7304 17.0661C17.7611 17.0277 17.8226 16.9739 17.6766 17.0508C17.7458 17.0047 17.6766 17.0354 17.6074 17.0431Z" fill="white"/>
<path d="M17.5994 16.9737C17.6148 16.8969 17.6071 16.8277 17.7378 16.8354C17.6071 16.7355 17.4688 16.8738 17.5994 16.9737Z" fill="white"/>
<path d="M17.8853 16.2132L17.9084 16.1133L17.8008 16.1287C17.8546 16.121 17.8162 16.267 17.8853 16.2132Z" fill="white"/>
<path d="M17.8008 17.6338C17.8469 17.6031 17.9007 17.5108 17.9622 17.4647L17.87 17.457C17.8546 17.5108 17.87 17.58 17.8008 17.6338Z" fill="white"/>
<path d="M17.9609 17.4652L18.0993 17.4729C18.0532 17.4037 18.0071 17.4191 17.9609 17.4652Z" fill="white"/>
<path d="M18.0387 16.8965L17.7773 16.9042L18.054 16.9119L18.0387 16.8965Z" fill="white"/>
<path d="M18.0231 17.9275L17.8848 17.9659L18.1 17.9121L18.0231 17.9275Z" fill="white"/>
<path d="M18.1843 18.0957C18.069 18.1341 18.069 18.2571 17.9922 18.2648C18.046 18.3032 18.1613 18.2878 18.2535 18.2725C18.1843 18.2648 18.1613 18.211 18.1843 18.0957Z" fill="white"/>
<path d="M18.4076 18.258C18.3692 18.2503 18.3154 18.2656 18.2539 18.2733C18.3 18.281 18.3461 18.281 18.4076 18.258Z" fill="white"/>
<path d="M18.1763 17.6191C18.1533 17.6499 18.0918 17.7191 18.0918 17.7805L18.1994 17.6499L18.1763 17.6191Z" fill="white"/>
<path d="M18.1992 17.6504C18.2146 17.6888 18.23 17.7119 18.2376 17.7196C18.23 17.7119 18.2223 17.6888 18.1992 17.6504Z" fill="white"/>
<path d="M18.1699 17.6126L18.1776 17.6202C18.1853 17.6126 18.1853 17.6049 18.1699 17.6126Z" fill="white"/>
<path d="M18.0762 17.1809C18.1838 17.1656 18.3298 17.1963 18.3682 17.0195C18.2529 17.058 18.2299 17.1579 18.0762 17.1809Z" fill="white"/>
<path d="M18.3002 17.4495L18.2695 17.3496C18.2387 17.3804 18.2003 17.4342 18.1465 17.4418L18.3002 17.4495Z" fill="white"/>
<path d="M18.368 17.4589L18.2988 17.4512L18.3142 17.4896L18.368 17.4589Z" fill="white"/>
<path d="M18.4227 18.0274C18.5073 18.0197 18.538 18.0505 18.5841 18.0812C18.5764 18.0197 18.5534 17.9582 18.515 17.9121C18.4688 17.9505 18.3766 17.989 18.4227 18.0274Z" fill="white"/>
<path d="M18.3223 17.835H18.3376C18.3453 17.8274 18.3453 17.8197 18.3223 17.835Z" fill="white"/>
<path d="M18.9062 18.4957L18.9293 18.4727L18.9062 18.488V18.4957Z" fill="white"/>
<path d="M18.5295 17.8954C18.5295 17.8416 18.4834 17.8493 18.4219 17.857C18.4526 17.8724 18.4834 17.8954 18.5064 17.9185C18.5295 17.9108 18.5448 17.9031 18.5295 17.8954Z" fill="white"/>
<path d="M18.5613 18.3262C18.5766 18.2878 18.5843 18.2494 18.5843 18.2109C18.5613 18.2647 18.5228 18.3493 18.5613 18.3262Z" fill="white"/>
<path d="M18.3144 17.8809H18.3067C18.2836 17.9116 18.299 17.8962 18.3144 17.8809Z" fill="white"/>
<path d="M18.3145 17.8802C18.3452 17.8802 18.3913 17.8725 18.4297 17.8649C18.4067 17.8495 18.3759 17.8418 18.3452 17.8418C18.3298 17.8495 18.3221 17.8649 18.3145 17.8802Z" fill="white"/>
<path d="M19.8288 17.9654C19.7058 18.0576 19.5214 18.0499 19.5905 17.8732C19.4445 17.8655 19.091 18.2344 18.9219 18.4726C18.9757 18.4342 19.0218 18.3958 19.1524 18.4188C19.1986 18.342 19.1678 18.1268 19.3292 18.1037C19.4752 18.1575 19.3523 18.219 19.3292 18.3189C19.4445 18.1575 19.652 18.2805 19.8518 18.0807L19.7058 18.0499C19.7442 18.0269 19.8211 18.0192 19.8288 17.9654Z" fill="white"/>
<path d="M18.8223 18.318L18.7839 18.2949C18.7916 18.3487 18.7685 18.4102 18.707 18.5332C18.8069 18.5409 18.8607 18.5178 18.8992 18.4871L18.7916 18.318H18.8223Z" fill="white"/>
<path d="M18.6685 18.1582C18.8146 18.0814 18.9375 18.1121 19.0374 17.9507C18.9529 17.8662 18.876 17.9738 18.7761 17.9584C18.9298 18.0814 18.6685 17.9738 18.6839 18.1429C18.6378 18.1275 18.607 18.1121 18.584 18.0891C18.5917 18.1275 18.5917 18.1736 18.584 18.212L18.5917 18.2044C18.5994 18.1813 18.607 18.1736 18.607 18.189H18.6147C18.6301 18.1736 18.6455 18.1659 18.6685 18.1582C18.6762 18.2274 18.6378 18.189 18.6147 18.189L18.5917 18.2044L18.7838 18.2966C18.7761 18.2505 18.7377 18.212 18.6685 18.1582Z" fill="white"/>
<path d="M18.7145 16.8809C18.7068 16.8962 18.6991 16.9039 18.6914 16.9116C18.7068 16.9039 18.7221 16.8962 18.7145 16.8809Z" fill="white"/>
<path d="M18.6832 17.0043C18.6601 17.0043 18.5986 17.0428 18.5833 16.9967C18.5986 16.9352 18.6448 16.9505 18.6832 16.9121C18.6294 16.9198 18.5295 16.9121 18.5218 17.0274H18.5448C18.5525 17.1273 18.4526 17.3271 18.4219 17.3348C18.5295 17.2195 18.5986 17.135 18.6832 17.0043Z" fill="white"/>
<path d="M18.7148 17.5573L18.8762 17.6342L18.9377 17.4805L18.8762 17.5343C18.8378 17.442 18.7686 17.5266 18.7148 17.5573Z" fill="white"/>
<path d="M18.8531 18.5645L18.707 18.6567L18.9607 18.5721L18.8531 18.5645Z" fill="white"/>
<path d="M18.9999 18.7188L18.877 18.8033L18.9846 18.7879L18.9999 18.7188Z" fill="white"/>
<path d="M22.1343 25.882L22.1881 25.8359C22.1497 25.8513 22.1266 25.8744 22.1343 25.882Z" fill="white"/>
<path d="M22.2187 22.7148C22.1495 22.8609 22.0265 23.053 22.1572 22.9377L22.2725 22.8148C22.2187 22.8071 22.211 22.761 22.2187 22.7148Z" fill="white"/>
<path d="M24.9629 24.9892L25.0091 24.9662C24.9476 24.9508 24.8938 24.9354 24.8477 24.9277C24.8861 24.9431 24.9245 24.9662 24.9629 24.9892Z" fill="white"/>
<path d="M25.6542 25.0664C25.6158 25.1202 25.5774 25.174 25.5312 25.2278C25.5774 25.1971 25.6158 25.1433 25.6542 25.0664Z" fill="white"/>
<path d="M20.4055 24.3828L20.2441 24.4597C20.3056 24.5212 20.3364 24.4366 20.4055 24.3828Z" fill="white"/>
<path d="M20.383 20.3487C20.3676 20.4332 20.3753 20.487 20.3984 20.5254C20.4291 20.4178 20.506 20.2795 20.383 20.3487Z" fill="white"/>
<path d="M23.1956 24.4375C23.1572 24.4375 23.1264 24.4529 23.0957 24.4836C23.1418 24.4836 23.1726 24.4759 23.1956 24.4375Z" fill="white"/>
<path d="M20.5046 20.6639C20.5123 20.6485 20.5123 20.6331 20.5123 20.6177C20.4662 20.6024 20.4201 20.5793 20.397 20.5332C20.374 20.6177 20.3816 20.6869 20.5046 20.6639Z" fill="white"/>
<path d="M16.1554 18.9039C16.1554 18.8962 16.1554 18.8885 16.1631 18.8809C16.1478 18.8885 16.1478 18.8962 16.1554 18.9039Z" fill="white"/>
<path d="M16.4863 16.3281C16.5017 16.3358 16.5248 16.3666 16.5401 16.3896C16.5401 16.3666 16.5324 16.3512 16.4863 16.3281Z" fill="white"/>
<path d="M19.4689 19.4184C19.4382 19.3876 19.4535 19.426 19.4689 19.4184V19.4184Z" fill="white"/>
<path d="M19.8516 18.8412C19.8746 18.8335 19.8977 18.8258 19.9284 18.8027C19.89 18.8258 19.8669 18.8335 19.8516 18.8412Z" fill="white"/>
<path d="M21.5977 20.364C21.613 20.3333 21.613 20.341 21.5977 20.364V20.364Z" fill="white"/>
<path d="M19.4901 19.3184C19.4825 19.3414 19.4825 19.3722 19.4901 19.3952C19.4901 19.3798 19.4901 19.3568 19.4901 19.3184Z" fill="white"/>
<path d="M19.4292 19.3724C19.4215 19.357 19.4215 19.3417 19.4138 19.334C19.3984 19.3494 19.3831 19.3647 19.4292 19.3724Z" fill="white"/>
<path d="M19.5149 19.4637C19.4995 19.4483 19.4918 19.4253 19.4841 19.3945C19.4841 19.4099 19.4764 19.4176 19.4688 19.4176C19.4841 19.4253 19.4918 19.4406 19.5149 19.4637Z" fill="white"/>
<path d="M18.7229 21.5935C18.7229 21.5858 18.7229 21.5858 18.7306 21.5781C18.6538 21.5858 18.6691 21.5935 18.7229 21.5935Z" fill="white"/>
<path d="M24.2947 22.5391H24.2793V22.5467L24.2947 22.5391Z" fill="white"/>
<path d="M24.487 22.5833C24.2794 22.6602 24.2794 22.6141 24.2794 22.5449L23.9336 22.8831L24.487 22.5833Z" fill="white"/>
<path d="M21.2434 25.0678L21.2203 25.2522C20.9513 25.3291 20.9359 25.1984 20.8667 25.4213C21.2433 25.0678 21.2203 25.698 21.5969 25.3368L21.5738 25.4674C21.5585 25.4521 21.5354 25.4674 21.5277 25.4521C21.4585 25.7364 21.8736 25.2599 21.9504 25.4444C21.9658 25.5212 21.9504 25.6058 21.8736 25.6212L22.0734 25.6288C22.0965 25.6673 22.0273 25.7288 22.0042 25.6903L22.2117 25.8287L22.1964 25.8364C22.2809 25.7979 22.4193 25.7595 22.4884 25.7441C22.4884 25.844 22.4269 25.7672 22.3962 25.8287L22.5883 25.821C22.5499 25.967 22.3731 25.9901 22.3117 25.9055C22.0888 26.3974 22.4731 25.8825 22.5499 26.3129L22.3885 26.2744C22.2886 26.5742 22.4577 26.5665 22.5422 26.8278C22.5269 26.7125 22.4731 26.2283 22.6959 26.2206C22.7113 26.2821 22.7651 26.3359 22.9035 26.2975C22.8112 26.4589 22.9188 26.4743 23.0495 26.5204L22.9342 26.7356C23.1033 26.7356 23.1417 26.6126 23.2647 26.5434C23.403 26.6203 23.3953 26.8124 23.3953 26.9815C23.7181 27.0968 23.2493 26.6357 23.6336 26.6741C23.8642 26.8048 24.0717 26.7125 24.3099 26.5281C24.4867 26.5819 24.3099 26.6818 24.3791 26.7433C24.4175 26.6741 24.456 26.5972 24.4867 26.5204C24.5251 26.5127 24.5251 26.5742 24.5328 26.6049C24.6327 26.4973 24.479 26.3667 24.6251 26.2437C24.5943 26.1054 24.7096 26.1745 24.8556 26.1976C25.0017 26.2283 25.2015 26.1899 25.1861 25.9824C25.286 25.9824 25.2707 26.113 25.3552 26.1668C25.4244 25.9516 25.4321 25.8594 25.4397 25.7672C25.4397 25.6826 25.4244 25.5904 25.3475 25.4213C25.4244 25.3675 25.4935 25.306 25.5627 25.2369C25.3475 25.3752 25.1861 25.0985 24.994 24.9986C24.9094 25.037 24.8249 25.0601 24.7865 25.0678C24.748 25.014 24.7019 24.9756 24.6558 24.9448C24.6942 24.9218 24.7788 24.9218 24.8864 24.9371C24.8633 24.9294 24.8403 24.9218 24.8249 24.9141C24.9094 24.8449 25.0478 24.8449 25.1938 24.8833C25.1477 24.9141 25.1016 24.9448 25.0478 24.9679C25.2015 25.0063 25.3629 25.0832 25.5089 25.0755C25.4782 25.0524 25.4628 25.014 25.4474 24.9832C25.4859 24.9986 25.5243 25.014 25.5473 25.0063C25.5704 24.9986 25.5166 24.9602 25.4551 24.9218C25.5473 24.891 25.6319 24.8603 25.7241 24.8295L25.6165 24.8218C25.6549 24.6835 25.678 24.5452 25.6934 24.3991C25.3398 24.2377 24.9017 24.2992 24.6635 24.1532C24.8633 24.0917 24.9402 23.9764 25.14 23.8458C24.9786 24.0533 25.3629 23.9841 25.409 24.1839C25.3859 24.0917 25.4935 24.0533 25.5473 24.0533C25.4244 23.9841 25.3091 23.938 25.1861 23.8996C25.3552 23.7996 25.2707 23.7612 25.2937 23.6536C25.017 23.9226 24.9632 23.6382 24.8018 23.6306C24.9017 23.546 25.017 23.4768 25.0785 23.6075C25.2092 23.3078 24.6097 23.7458 24.725 23.4845C24.748 23.5076 24.7403 23.5306 24.8018 23.4999C24.6712 23.5153 24.6327 23.3308 24.748 23.2924L24.7711 23.3154C24.6865 23.131 24.4022 22.8466 24.1255 23.0234C24.1562 22.9926 24.4483 22.8005 24.5098 22.7621L23.4338 23.1771C23.672 23.0234 24.1178 22.5161 24.3484 22.5469C24.3484 22.4854 24.3484 22.4085 24.21 22.3932C24.2023 22.4393 23.941 22.7083 23.8949 22.6929C24.064 22.4008 23.9718 22.5238 24.0871 22.2394C24.0717 22.3163 23.6951 22.5469 23.6567 22.4777C23.7181 22.447 23.9948 22.201 24.0486 22.1933L23.5952 22.3163C23.6874 22.3009 23.8872 22.0934 23.9564 21.9858C23.9026 22.055 23.8642 21.8552 23.795 21.8398L23.7643 21.9628C23.6797 21.7552 23.1571 22.178 23.0418 22.0012C23.1263 21.9628 23.5106 21.7091 23.4876 21.5862C23.2801 21.6861 22.5192 22.078 22.2732 22.0396L22.3501 21.932L22.1503 21.909C22.4654 21.7706 23.1725 21.5324 23.4722 21.4632C23.5029 21.3402 23.5721 21.3556 23.4953 21.2634C23.5644 21.1558 23.6797 21.2019 23.7028 21.2249L23.5875 20.9636C23.3953 21.1327 23.2493 20.9559 23.0879 21.102L23.4876 21.1711C23.2954 21.3402 22.8035 21.4939 22.719 21.3095C22.7651 21.2096 23.1033 21.0482 23.1648 20.9944C23.0802 21.0328 22.9188 20.9559 22.9573 20.9021L23.1187 20.8791C23.1263 20.733 22.7421 20.9559 22.8497 20.6946C22.8343 20.6485 23.0264 20.3795 22.9035 20.4717C22.719 20.71 22.0119 21.2941 21.8121 21.394C21.8198 21.371 21.8813 21.0328 21.9658 20.9021C22.0965 20.7023 22.4654 20.6485 22.5807 20.4717C22.5269 20.5102 22.4269 20.5332 22.3962 20.5409C22.4116 20.464 22.5807 20.4179 22.4884 20.3565C22.2732 20.5102 22.3731 20.1797 22.2886 20.4564C22.1656 20.4256 22.2655 20.3411 22.181 20.2489C22.0734 20.3872 21.6661 20.5255 21.5431 20.4948C21.5969 20.4564 21.6507 20.3872 21.6737 20.3565C21.5661 20.1797 21.5892 20.0183 21.4662 19.8646C21.5047 19.8108 21.5047 19.6878 21.6199 19.6494C21.5661 19.6571 21.4816 19.6955 21.4355 19.6494C21.5431 19.4188 21.5431 19.7339 21.7045 19.4957C21.5815 19.5879 21.4432 19.5033 21.3202 19.4957C21.1511 19.6647 21.4047 19.6801 21.5354 19.6878C21.2818 19.8876 20.9205 19.9875 20.6823 19.9184C20.5209 19.8415 20.8053 19.7339 20.7515 19.7416C20.6054 19.4726 20.1443 19.8953 20.175 19.5495C20.275 19.3419 20.4902 19.2881 20.5978 19.1805C20.7438 19.2343 20.6208 19.4188 20.6823 19.488L20.69 19.3419C20.7668 19.3343 20.8668 19.365 20.8514 19.4419C20.9436 19.2574 20.5593 19.0191 20.5516 18.7271C20.4748 18.7348 20.3672 18.7271 20.3288 18.8039L20.3979 18.8424C20.3134 18.9961 20.1289 18.8808 20.1289 18.9961C19.9752 18.9884 19.76 19.0191 19.7523 18.8501L19.9214 18.681C19.8676 18.7271 19.8676 18.8424 19.9522 18.827C19.8369 18.8501 20.0674 18.4581 19.7908 18.6041L19.7216 18.7809C19.5679 18.7732 19.2912 18.8347 19.2758 18.6963C19.1298 18.8885 19.3142 18.704 19.1528 18.9423C19.368 18.6733 19.3373 19.1959 19.5371 18.8808C19.345 19.1498 19.5294 19.0883 19.3911 19.3496C19.4526 19.2958 19.4833 19.2267 19.5141 19.3266C19.5371 19.3189 19.5679 19.3035 19.5832 19.3035V19.3112V19.3035C19.5986 19.3035 19.5986 19.2958 19.5832 19.3035C19.5909 19.2651 19.614 19.219 19.6447 19.1882C19.8138 19.1191 19.9137 19.2497 20.0213 19.2343C20.029 19.3035 19.9368 19.2728 19.8907 19.3496L20.0521 19.3266C19.9214 19.4419 19.9291 19.634 19.76 19.5802L19.8369 19.6878C19.8061 19.8108 19.8446 19.9184 19.9445 19.9184C19.9522 19.9875 20.1904 19.9184 20.0521 19.9645L20.2596 20.0567L20.2288 20.0874C20.3364 20.2565 20.713 20.2335 20.6131 20.6101C20.69 20.6331 20.7745 20.6562 20.8053 20.7792L20.7054 20.8868C20.7976 20.9252 20.7515 21.1865 20.8975 21.1173C20.6439 21.4401 21.0896 21.5016 21.1357 21.6707L21.2895 21.5554C21.3433 21.6476 21.4509 21.6861 21.5969 21.7399L21.7275 21.6246C21.912 21.6246 21.8121 21.932 21.9351 22.055C21.8736 22.0857 21.8582 22.0396 21.8736 21.9935C21.7045 22.4008 22.3731 22.1703 22.2732 22.5008C22.3501 22.5008 22.3578 22.5392 22.3424 22.593C22.3424 22.593 22.3347 22.5853 22.327 22.593C22.327 22.6007 22.3347 22.6007 22.3347 22.6084C22.327 22.6468 22.3117 22.6852 22.304 22.716C22.327 22.6775 22.3424 22.6391 22.3424 22.616C22.3655 22.6391 22.4193 22.6775 22.4884 22.6929L22.3578 22.8236C22.3655 22.8236 22.3655 22.8236 22.3731 22.8312C22.3501 22.9158 22.4654 22.8082 22.5576 22.7006C22.596 22.7006 22.6421 22.7006 22.6883 22.6852C22.4807 22.9081 22.8573 22.739 22.6498 22.985C22.7959 22.9158 22.9111 23.131 23.1878 22.9465C23.1571 22.9773 23.1494 23.0003 23.1263 22.9773C23.134 23.0464 23.1417 23.1233 23.2493 23.1079L23.0802 23.277L23.4107 23.1848C23.3492 23.3385 23.3031 23.4154 23.111 23.4692C23.4491 23.4461 23.2954 23.5306 23.6105 23.4845L23.4876 23.5768C23.526 23.6229 23.7489 23.5691 23.672 23.6767C23.5183 23.9457 24.0871 24.2454 24.0256 24.622C24.3637 24.3223 23.9333 24.8372 24.2177 24.6528C24.1409 24.7219 24.1024 24.7834 24.0025 24.7988C24.1562 24.8526 23.9257 24.9986 24.21 24.9294C24.1101 24.9756 24.0563 24.9679 24.0025 24.9986C24.0256 24.9986 24.0947 24.9832 24.0333 25.0063C23.9718 25.0294 23.9487 25.0294 23.9026 25.037C23.9257 25.0447 24.2408 24.9756 24.5482 24.9371C24.4099 25.0063 24.4329 24.9909 24.6327 25.037C24.5328 25.0524 24.4252 25.0447 24.3945 25.014C24.3714 25.0524 24.2561 25.0063 24.4637 25.1293C24.4099 25.0985 24.4329 25.137 24.456 25.16C24.4099 25.1831 24.3945 25.1677 24.3561 25.2215L24.3945 25.2446C24.5175 25.5136 24.3637 25.3368 24.3176 25.3906L24.3099 25.3598C24.1178 25.1908 24.2485 25.4905 24.0717 25.2599L24.0871 25.4444C24.0871 25.6442 24.0333 25.5827 23.9871 25.4905C23.9333 25.3983 23.9257 25.2753 23.8565 25.3291L23.8642 25.4367C23.7489 25.552 23.8795 24.8756 23.8949 24.8218C23.9026 24.7834 23.9333 24.7757 23.9487 24.7604C23.9718 24.5144 23.8411 24.9756 23.7335 24.9832C23.7796 24.8603 23.9103 24.7066 23.8795 24.6528C23.9333 24.5605 23.4876 24.8987 23.5414 24.622C23.4953 24.7142 23.4491 24.8065 23.3569 24.8295C23.257 24.7911 23.4184 24.3761 23.134 24.5375C23.1417 24.5067 23.1571 24.4837 23.1725 24.4683C23.0572 24.4683 22.8881 24.3761 22.7267 24.4606C23.1187 23.9534 22.1349 24.3146 22.5499 23.8996L22.3501 23.7382L22.3962 23.6997C22.3117 23.5537 22.1656 23.6152 22.0273 23.669C22.0273 23.6152 22.0888 23.5921 22.1118 23.5768C22.0273 23.3231 21.9965 23.3231 21.643 23.3769L21.766 23.2309C21.643 23.2693 21.7429 22.7774 21.4278 22.7544C21.4432 22.739 21.4739 22.7236 21.5047 22.716C21.1588 22.6698 21.4739 21.8936 20.8898 22.2856L20.6439 22.2702C20.7515 22.4777 20.3979 22.447 20.3749 22.593C20.2826 22.5546 20.3749 22.2779 20.4748 22.3394L20.4594 22.3778C20.7592 22.1703 20.3672 22.078 20.5593 21.9243C20.2519 21.6015 20.1289 21.1404 19.8753 20.8099L19.6908 21.0251L19.614 20.9021C19.637 20.833 19.7523 20.7254 19.8061 20.8099C19.8984 20.6639 19.5909 20.7561 19.5448 20.7945C19.5064 20.564 19.8522 20.6485 19.8138 20.5947L19.7446 20.5409L19.7293 20.5793C19.5986 20.5947 19.4987 20.6716 19.4295 20.564C19.4218 20.4641 19.5371 20.4256 19.5294 20.3949C19.5448 20.3795 19.5448 20.3718 19.5064 20.3565L19.4142 20.1951L19.2835 20.3872C19.1452 20.3949 19.1836 20.2412 19.0376 20.464C19.2681 20.1259 18.7224 19.8415 18.7762 19.7032C18.5764 19.7108 18.5149 19.6186 18.4458 19.4957C18.4304 19.5495 18.2459 19.7185 18.1921 19.6033C18.6302 19.3343 18.2382 19.2958 18.4842 18.9961C18.3382 19.2113 18.2382 18.7578 18.0307 19.0729C18.0077 18.9653 18.1844 18.9577 18.2382 18.8193C17.9385 18.7425 18.0384 18.3197 17.8155 18.1199C17.754 18.1583 17.7002 18.2506 17.585 18.2583L17.7771 17.9355C17.7156 17.9047 17.4236 18.1122 17.5619 17.8893C17.5235 17.9355 17.462 17.9969 17.4236 17.9816C17.3698 17.3283 16.5397 17.1438 16.7549 16.3138C16.6857 16.4521 16.6473 16.4137 16.6089 16.3599C16.6012 16.4137 16.4628 16.4444 16.3937 16.5059L16.4859 16.1601C16.2476 16.2523 16.3322 15.9449 16.1093 16.0525L16.1862 16.0986C15.8864 16.1601 15.7173 16.552 15.3945 16.7365C15.7327 16.6673 15.1486 17.2591 15.6482 17.1746C15.6097 17.2514 15.5252 17.2053 15.4714 17.2745C15.6328 17.2361 15.6943 17.2668 15.6943 17.3975L15.6558 17.4051C15.8557 17.6511 15.7942 17.8432 15.9018 18.1968L16.0401 18.0738C16.0632 18.1507 16.0248 18.1968 16.0017 18.2506C16.2784 18.1737 15.9018 18.0661 16.1938 17.9662C15.9402 18.2583 16.4782 18.412 16.1708 18.704C16.2323 18.8039 16.3245 18.558 16.386 18.6579L16.3091 18.7501L16.4475 18.6887C16.4705 18.7655 16.3706 18.8808 16.2938 18.9346C16.2938 18.9115 16.24 18.9039 16.2246 18.8962C16.1708 19.0576 16.4167 19.1037 16.4014 19.1498L16.3937 19.0191C16.6627 19.219 16.7626 19.6263 17.1315 19.7339L17.1853 19.6647C17.4543 19.757 17.216 19.8722 17.4312 20.0336L17.4082 20.0413C17.5081 20.0337 17.585 20.0644 17.6157 20.1259C17.4389 20.1413 17.4697 20.3411 17.3313 20.3411C17.6234 20.441 17.5158 20.3641 17.8693 20.3027L17.7771 20.4179C17.9154 20.3872 17.9692 20.3488 18.0768 20.4256C17.9154 20.4179 17.9539 20.6254 17.754 20.6254C17.6695 21.0328 18.2459 20.7484 17.9616 21.125C18.3458 20.979 17.9923 20.8099 18.0999 20.8099C18.1691 20.6869 18.392 20.71 18.415 20.7945C18.4611 20.8637 18.1076 21.2249 18.2459 21.3863C18.2306 21.371 18.2075 21.3863 18.1998 21.371C18.1691 21.4939 18.4073 21.4094 18.3382 21.5862C18.561 21.4786 18.4073 21.6938 18.6533 21.517L18.4765 21.4094C18.6072 21.4478 18.953 21.3018 18.93 21.5554C18.8762 21.5862 18.7762 21.5938 18.7148 21.5938C18.6763 21.6938 18.8224 21.64 18.7916 21.7399C18.5457 21.9243 18.5918 21.5938 18.3305 21.6476C18.269 21.7706 18.6456 21.6861 18.3535 21.8475C18.7301 21.6476 18.4458 22.0473 18.7916 21.9551L18.6456 22.0627C18.684 22.0627 18.7762 22.0473 18.807 22.078L18.5764 22.1703C18.807 22.1318 18.5918 22.4623 18.7455 22.4777C18.5841 22.3009 18.8762 22.2932 18.9146 22.1318C19.2912 22.201 18.6533 22.5699 18.9376 22.7621C18.8915 22.7467 18.9146 22.5622 19.0222 22.5622C19.0376 22.6314 19.0376 22.739 18.9914 22.8312C19.1605 22.9696 19.1144 22.6852 19.2604 22.6775C19.1375 22.8774 19.3988 22.7006 19.5141 22.7236L19.3757 22.8466C19.4526 23.1156 19.7062 22.6468 19.7446 22.9004L19.491 23.0003L19.6217 23.0464L19.4449 23.1694C19.6447 23.1617 19.6447 23.2155 19.6832 23.3462C19.76 23.2386 19.9445 23.131 20.0213 23.2155C19.9906 23.3462 19.8599 23.3001 19.9829 23.4C19.8753 23.4538 19.737 23.523 19.8215 23.3539C19.7754 23.3923 19.7139 23.4077 19.6601 23.4384C19.6217 23.5844 19.7754 23.6075 19.8138 23.6536C19.8061 23.6306 19.7908 23.6075 19.8061 23.5768L20.152 23.5691C20.1212 23.6459 20.0674 23.6613 20.006 23.6767C20.0521 23.6997 20.1366 23.6613 20.1904 23.6997C20.0674 23.792 19.9522 23.8996 19.8369 23.8765L20.1059 23.9226C20.0674 23.9764 20.0521 24.1301 19.9906 24.1455C20.006 24.2915 20.4056 24.1609 20.4287 24.3607C20.4594 24.3453 20.4902 24.3376 20.5286 24.3453C20.6054 24.476 20.567 24.6989 20.836 24.6835L20.713 24.9525C20.8514 25.0063 20.8591 24.622 21.0973 24.7142C21.2741 24.768 20.9743 24.9218 20.959 25.014C21.1127 24.9756 21.4124 24.8833 21.3586 25.1446C21.2895 25.1446 21.2895 25.0832 21.2434 25.0678ZM22.6806 26.213C22.6268 26.2206 22.4807 26.2668 22.5192 26.1592C22.6883 26.0208 22.6575 26.1207 22.6806 26.213ZM25.2707 24.6451C25.3398 24.6604 25.3245 24.7219 25.263 24.7911C25.2399 24.745 25.2399 24.7066 25.2707 24.6451ZM19.8907 19.7032H19.8984C19.8907 19.8031 19.8984 19.7646 19.8907 19.7032ZM19.8599 19.5341C19.8292 19.5418 19.8138 19.5571 19.7908 19.5802C19.8369 19.5571 19.8599 19.5802 19.8676 19.6186C19.906 19.5802 19.9214 19.5495 19.8599 19.5341ZM19.3988 20.441L19.3834 20.4948C19.2989 20.4794 19.345 20.4641 19.3988 20.441Z" fill="white"/>
<path d="M25.5784 25.0508C25.5477 25.0662 25.5093 25.0662 25.4785 25.0738C25.5016 25.0969 25.54 25.0969 25.5784 25.0508Z" fill="white"/>
<path d="M20.4293 24.3672L20.4062 24.3826L20.4293 24.3672Z" fill="white"/>
<path d="M22.5423 20.3711C22.5423 20.4095 22.527 20.448 22.5039 20.4787C22.5346 20.448 22.5577 20.4172 22.5423 20.3711Z" fill="white"/>
<path d="M19.123 19.1103L19.223 19.1564C19.1845 19.1257 19.2076 19.0873 19.2153 19.0488C19.1768 19.0796 19.1384 19.1334 19.123 19.1103Z" fill="white"/>
<path d="M19.4982 17.7415C19.4752 17.7415 19.4752 17.7185 19.4521 17.7262L19.3906 17.78C19.4214 17.8261 19.5059 17.8184 19.4982 17.7415Z" fill="white"/>
<path d="M19.5442 18.6576C19.6595 18.5577 19.5827 18.5423 19.5212 18.5039L19.5289 18.5116C19.3444 18.6346 19.4443 18.6499 19.5442 18.6576Z" fill="white"/>
<path d="M19.5069 18.4953C19.4915 18.48 19.4684 18.4723 19.4684 18.4492C19.3916 18.4953 19.4684 18.48 19.5069 18.4953Z" fill="white"/>
<path d="M19.6594 19.4486C19.6671 19.3948 19.4904 19.5562 19.5288 19.5024C19.352 19.6024 19.8516 19.5255 19.6594 19.4486Z" fill="white"/>
<path d="M19.9137 18.2949L19.7754 18.4333L19.9214 18.3641L19.9137 18.2949Z" fill="white"/>
<path d="M20.1372 18.795L20.1141 18.6797C20.091 18.7027 20.068 18.7027 20.0449 18.6951C20.0757 18.7565 20.091 18.8334 20.1372 18.795Z" fill="white"/>
<path d="M20.0358 18.7039C20.0205 18.6731 19.9897 18.6501 19.959 18.6577C19.9744 18.6654 20.0051 18.6962 20.0358 18.7039Z" fill="white"/>
<path d="M20.0525 18.373L20.0371 18.4268L20.0755 18.496L20.0525 18.373Z" fill="white"/>
<path d="M20.8281 19.7258L20.9434 19.7796C21.0049 19.7489 21.0126 19.6951 20.9665 19.6797C20.9127 19.6874 20.8666 19.672 20.8281 19.7258Z" fill="white"/>
<path d="M21.0123 19.1189C21.0046 19.165 20.9662 19.1957 20.9277 19.2495L21.1199 19.1035L21.0123 19.1189Z" fill="white"/>
<path d="M21.2745 19.3481C21.336 19.3173 21.5281 19.3635 21.4282 19.2559C21.3667 19.2866 21.2514 19.2328 21.2745 19.3481Z" fill="white"/>
<path d="M22.1431 20.9234L22.1201 20.9004L21.8203 21.1463L22.1431 20.9234Z" fill="white"/>
<path d="M23.8409 21.5548C23.8255 21.3857 23.6334 21.6778 23.6411 21.5087C23.5488 21.5394 23.6334 21.647 23.5488 21.6701C23.6795 21.6778 23.6641 21.747 23.8409 21.5548Z" fill="white"/>
<path d="M23.5573 21.6699C23.5343 21.6699 23.5112 21.6699 23.4805 21.6699C23.5189 21.6776 23.5343 21.6776 23.5573 21.6699Z" fill="white"/>
<path d="M16.5009 15.9434L16.524 15.8281L16.4395 15.9434H16.5009Z" fill="white"/>
<path d="M16.1637 15.9507L16.3635 15.8047L16.1406 15.8739C16.1637 15.8815 16.2021 15.9046 16.1637 15.9507Z" fill="white"/>
<path d="M22.7494 26.8428L22.7878 26.7967C22.7955 26.7275 22.7724 26.7044 22.7109 26.666L22.7494 26.8428Z" fill="white"/>
<path d="M21.6191 25.7121L21.6268 25.7351L21.7575 25.543L21.6191 25.7121Z" fill="white"/>
<path d="M20.6738 25.1746C20.6969 25.213 20.7661 25.213 20.7891 25.2514C20.6969 25.213 20.866 24.9748 20.6738 25.1746Z" fill="white"/>
</svg>
