<svg width="20" height="19" viewBox="0 0 20 19" fill="none" xmlns="http://www.w3.org/2000/svg">
<path d="M0 9.7589C0 7.80196 0 5.84217 0 3.87665C1.46714 2.80377 1.74687 0.555014 3.83056 0.0600586C5.53747 0.0600586 7.24438 0.0600586 8.98268 0.0600586C10.2786 0.984166 11.6001 1.9283 12.876 2.84096C12.5364 5.16125 13.4526 7.44434 11.6515 9.66162C14.346 11.5528 16.972 13.3952 19.5467 15.2005C19.5467 16.385 19.5467 17.3263 19.5467 18.2532C19.2698 18.3677 18.9901 18.5966 18.7903 18.5451C17.5115 18.2017 16.2499 17.7926 14.4459 17.2433C13.3813 16.1933 11.8713 14.7085 10.3613 13.2236C10.9579 12.7401 11.5573 12.2594 12.7362 11.3067C11.3547 11.1436 10.4356 10.7746 10.1444 11.0492C8.72008 12.3882 6.78768 12.6228 5.18067 13.5211C3.28537 12.4997 0.416737 12.7715 0 9.7589ZM15.445 15.1147C15.3907 15.1691 15.3336 15.2234 15.2794 15.2778C15.4792 15.5067 15.6762 15.7356 15.876 15.9644C15.9645 15.8757 16.0558 15.7871 16.1443 15.6984C15.9102 15.5038 15.679 15.3064 15.2908 15.2892C15.3451 15.2349 15.4022 15.1805 15.4564 15.1262C15.2566 14.8973 15.0596 14.6684 14.8598 14.4395C14.7713 14.5282 14.68 14.6169 14.5915 14.7056C14.8227 14.9001 15.0568 15.0947 15.445 15.1147ZM11.0778 4.67487C9.35946 2.91535 7.4242 1.32463 4.94947 0.761007C3.77918 1.914 2.78301 2.89532 1.66124 3.99681C2.16075 6.15688 0.716445 8.78901 2.72021 10.8747C7.44418 11.6128 10.0274 9.50141 11.0778 4.67487Z" fill="#CF8065"/>
</svg>
