<svg width="16" height="17" viewBox="0 0 16 17" fill="none" xmlns="http://www.w3.org/2000/svg">
<path d="M7.8833 16.4807C0.443944 16.4807 0.40918 16.444 0.40918 8.60239C0.40918 0.785179 0.443942 0.748535 7.90647 0.748535C15.3574 0.748535 15.3922 0.785179 15.3922 8.61461C15.3922 16.3952 15.2995 16.4807 7.8833 16.4807Z" fill="#CF805E"/>
<path d="M12.6979 2.24622C13.3206 2.27376 13.7773 2.5217 13.8742 3.16909C13.9711 3.94044 13.6528 4.45008 12.8224 4.49141C12.2135 4.51895 11.7429 4.29857 11.6599 3.60986C11.563 2.82473 11.8952 2.34264 12.6979 2.24622Z" fill="white"/>
<path d="M8.10889 11.9866C5.94382 11.9603 4.92565 10.7762 4.90225 8.5921C4.87884 6.5396 5.90871 5.34231 7.69928 5.25021C9.58348 5.15811 10.8474 6.13173 10.8942 8.43421C10.9293 10.6578 9.85265 11.7629 8.10889 11.9866Z" fill="white"/>
</svg>
