<svg width="20" height="21" viewBox="0 0 20 21" fill="none" xmlns="http://www.w3.org/2000/svg">
<path d="M9.9768 21C0.0464048 21 0 20.9511 0 10.4837C0 0.0489134 0.0464026 0 10.0077 0C19.9536 0 20 0.0489142 20 10.5C20 20.8859 19.8763 21 9.9768 21Z" fill="#FDFDFD"/>
<path d="M16.4073 2C17.2386 2.03677 17.8483 2.36773 17.9776 3.23189C18.1069 4.26153 17.682 4.94183 16.5736 4.99698C15.7608 5.03376 15.1327 4.73957 15.0218 3.82025C14.8925 2.77223 15.3359 2.1287 16.4073 2Z" fill="#CF805E"/>
<path d="M10.2809 15C7.39086 14.9649 6.03176 13.3842 6.00052 10.4688C5.96928 7.72908 7.344 6.13088 9.73414 6.00794C12.2492 5.885 13.9364 7.18464 13.9989 10.2581C14.0458 13.2262 12.6085 14.7014 10.2809 15Z" fill="#CF805E"/>
</svg>
