<svg width="16" height="16" viewBox="0 0 16 16" fill="none" xmlns="http://www.w3.org/2000/svg">
<path d="M7.71131 2.06407C9.70017 2.06407 9.93483 2.07162 10.7196 2.10559C11.4467 2.13957 11.8391 2.2566 12.1007 2.35852C12.4469 2.49065 12.6969 2.6492 12.9547 2.9059C13.2163 3.1626 13.3778 3.40421 13.5125 3.74396C13.6163 4.00066 13.7356 4.38949 13.7702 5.0992C13.8048 5.8693 13.8125 6.09958 13.8125 8.05127C13.8125 10.003 13.8048 10.2332 13.7702 11.0033C13.7356 11.7168 13.6163 12.1019 13.5125 12.3586C13.3778 12.6983 13.2163 12.9437 12.9547 13.2004C12.6931 13.4571 12.4469 13.6157 12.1007 13.7478C11.8391 13.8497 11.4428 13.9667 10.7196 14.0007C9.93483 14.0347 9.70017 14.0422 7.71131 14.0422C5.72245 14.0422 5.48779 14.0347 4.70302 14.0007C3.97595 13.9667 3.58357 13.8497 3.32197 13.7478C2.97575 13.6157 2.7257 13.4571 2.46411 13.2004C2.20252 12.9437 2.04095 12.7021 1.90631 12.3586C1.80629 12.1019 1.68319 11.7131 1.64856 11.0033C1.61394 10.2332 1.60625 10.003 1.60625 8.05127C1.60625 6.09958 1.61394 5.8693 1.64856 5.0992C1.68319 4.38571 1.80244 4.00066 1.90631 3.74396C2.04095 3.40421 2.20252 3.15883 2.46411 2.9059C2.7257 2.6492 2.97191 2.49065 3.32197 2.35852C3.58357 2.2566 3.9798 2.13957 4.70302 2.10559C5.48779 2.07162 5.7263 2.06407 7.71131 2.06407ZM7.71131 0.746582C5.69168 0.746582 5.43778 0.754132 4.64147 0.791882C3.849 0.825858 3.30659 0.950434 2.83342 1.13164C2.34486 1.31661 1.92939 1.56954 1.51392 1.97347C1.09845 2.38117 0.844557 2.7851 0.656058 3.2683C0.471406 3.73263 0.344457 4.26491 0.309835 5.04257C0.275212 5.82023 0.263672 6.06938 0.263672 8.05505C0.263672 10.0369 0.271365 10.2861 0.309835 11.0675C0.344457 11.8452 0.471406 12.3775 0.656058 12.8418C0.844557 13.3212 1.1023 13.7289 1.51392 14.1366C1.92939 14.5443 2.34101 14.7935 2.83342 14.9785C3.30659 15.1597 3.849 15.2842 4.64147 15.3182C5.43394 15.3522 5.68783 15.3635 7.71131 15.3635C9.73095 15.3635 9.98484 15.356 10.7812 15.3182C11.5736 15.2842 12.116 15.1597 12.5892 14.9785C13.0778 14.7935 13.4932 14.5406 13.9087 14.1366C14.3242 13.7289 14.5781 13.325 14.7666 12.8418C14.9512 12.3775 15.0782 11.8452 15.1128 11.0675C15.1474 10.2899 15.159 10.0407 15.159 8.05505C15.159 6.07315 15.1513 5.824 15.1128 5.04257C15.0782 4.26491 14.9512 3.73263 14.7666 3.2683C14.5781 2.78888 14.3203 2.38117 13.9087 1.97347C13.4932 1.56576 13.0816 1.31661 12.5892 1.13164C12.116 0.950434 11.5736 0.825858 10.7812 0.791882C9.98869 0.754132 9.73479 0.746582 7.71131 0.746582Z" fill="white" stroke="#536D57" stroke-width="0.268326" stroke-miterlimit="10"/>
<path d="M7.70861 4.29932C5.59665 4.29932 3.88477 5.97921 3.88477 8.0517C3.88477 10.1242 5.59665 11.8041 7.70861 11.8041C9.82057 11.8041 11.5324 10.1242 11.5324 8.0517C11.5324 5.97921 9.82057 4.29932 7.70861 4.29932ZM7.70861 10.4866C6.3391 10.4866 5.22734 9.39561 5.22734 8.0517C5.22734 6.70779 6.3391 5.6168 7.70861 5.6168C9.07811 5.6168 10.1899 6.70779 10.1899 8.0517C10.1899 9.39561 9.07811 10.4866 7.70861 10.4866Z" fill="white" stroke="#536D57" stroke-width="0.268326" stroke-miterlimit="10"/>
<path d="M12.576 4.15217C12.576 4.63538 12.1759 5.02798 11.6835 5.02798C11.1911 5.02798 10.791 4.63538 10.791 4.15217C10.791 3.66897 11.1911 3.27637 11.6835 3.27637C12.1759 3.27637 12.576 3.66897 12.576 4.15217Z" fill="white" stroke="#536D57" stroke-width="0.268326" stroke-miterlimit="10"/>
</svg>
