<svg width="28" height="28" viewBox="0 0 28 28" fill="none" xmlns="http://www.w3.org/2000/svg">
<path d="M8.38118 0.312622C3.84243 0.312622 0.187988 3.96905 0.187988 8.51028V19.2845C0.187988 23.8257 3.84243 27.4811 8.38118 27.4811H19.1485C23.6883 27.4811 27.3417 23.8257 27.3417 19.2845V8.51028C27.3417 3.96905 23.6873 0.312622 19.1485 0.312622H8.38118ZM9.29405 2.61723H18.2357C22.0043 2.61723 25.0384 5.65292 25.0384 9.42365V18.3701C25.0384 22.1408 22.0043 25.1775 18.2357 25.1775H9.29405C5.52538 25.1775 2.49134 22.1408 2.49134 18.3701V9.42365C2.49134 5.65391 5.52538 2.61723 9.29405 2.61723ZM20.9162 5.04302C19.9127 5.04302 19.0983 5.85786 19.0983 6.86188C19.0983 7.86688 19.9117 8.68172 20.9162 8.68172C21.9206 8.68172 22.735 7.86786 22.735 6.86286V6.86188C22.735 5.85786 21.9206 5.04302 20.9162 5.04302ZM13.886 6.62048C9.93611 6.62048 6.73368 9.82367 6.73368 13.7757V13.7767C6.73368 17.7287 9.93611 20.9329 13.886 20.9319C17.8358 20.9319 21.0383 17.7287 21.0383 13.7767C21.0383 9.82466 17.8368 6.62048 13.886 6.62048ZM13.886 9.65223C16.1627 9.65223 18.0072 11.4987 18.0072 13.7767C18.0072 16.0537 16.1618 17.9001 13.886 17.9001C11.6102 17.9001 9.76476 16.0537 9.76476 13.7767C9.76378 11.4987 11.6092 9.65223 13.886 9.65223C13.885 9.65223 13.886 9.65223 13.886 9.65223Z" fill="#844C3A"/>
</svg>
