<?xml version="1.0" encoding="UTF-8" standalone="no"?>
<svg
   xmlns:dc="http://purl.org/dc/elements/1.1/"
   xmlns:cc="http://creativecommons.org/ns#"
   xmlns:rdf="http://www.w3.org/1999/02/22-rdf-syntax-ns#"
   xmlns:svg="http://www.w3.org/2000/svg"
   xmlns="http://www.w3.org/2000/svg"
   xmlns:sodipodi="http://sodipodi.sourceforge.net/DTD/sodipodi-0.dtd"
   xmlns:inkscape="http://www.inkscape.org/namespaces/inkscape"
   version="1.1"
   id="Calque_1"
   x="0px"
   y="0px"
   viewBox="0 0 302.07 138.04"
   style="enable-background:new 0 0 302.07 138.04;"
   xml:space="preserve"
   sodipodi:docname="logo site.svgz"><metadata
   id="metadata39"><rdf:RDF><cc:Work
       rdf:about=""><dc:format>image/svg+xml</dc:format><dc:type
         rdf:resource="http://purl.org/dc/dcmitype/StillImage" /></cc:Work></rdf:RDF></metadata><defs
   id="defs37" /><sodipodi:namedview
   pagecolor="#ffffff"
   bordercolor="#666666"
   borderopacity="1"
   objecttolerance="10"
   gridtolerance="10"
   guidetolerance="10"
   inkscape:pageopacity="0"
   inkscape:pageshadow="2"
   inkscape:window-width="640"
   inkscape:window-height="480"
   id="namedview35" />
<style
   type="text/css"
   id="style2">
	.st0{fill:#854D3B;}
</style>
<g
   id="g32">
	<path
   class="st0"
   d="M37.54,104.06c-0.03-0.68-0.06-1.33-0.08-1.98C37.49,102.76,37.53,103.44,37.54,104.06 M35.96,93.33   c-0.12-0.33-0.25-0.66-0.39-0.99c0.04,0.08,0.08,0.15,0.11,0.23C35.78,92.83,35.87,93.08,35.96,93.33 M35.54,114.51   c-0.08,0.2-0.13,0.3-0.18,0.4C35.43,114.78,35.49,114.65,35.54,114.51 M34.58,90.44c-0.03-0.04-0.05-0.09-0.08-0.13   c0.01,0.02,0.03,0.05,0.05,0.07L34.58,90.44z M31.75,105.57c0-0.53,0-1.05,0.02-1.51C31.77,104.57,31.76,105.07,31.75,105.57    M31,111.44c-0.1,0.63-0.25,1.29-0.41,1.94C30.75,112.74,30.89,112.09,31,111.44 M30.55,113.51c-0.15,0.59-0.32,1.18-0.52,1.76   C30.22,114.69,30.4,114.11,30.55,113.51 M28.97,119.34c-1.3,1.89-3.17,3.52-5.41,4.49C25.75,122.87,27.65,121.22,28.97,119.34    M29.99,115.41c0.67-1.92,1.04-3.63,1.37-5.72c-0.02,0.64-0.28,1.99-0.28,2.32c-0.48,2.48-1.32,4.9-2.71,6.91   c-1.36,2.03-3.3,3.55-5.51,4.39c0.83-0.44,1.48-0.8,2.07-1.13c0.59-0.35,1.12-0.67,1.59-1.13c1.63-1.59,2.75-3.64,3.5-5.77   C30.02,115.32,30,115.36,29.99,115.41 M29.82,85.43c-2.82-2.01-6.1-3.12-9.34-3.74c2.64,0.24,4.14,1.07,5.88,1.75   c2.39,0.95,4.6,2.49,6.3,4.41c0.21,0.24,0.46,0.45,0.64,0.72l0.55,0.78c0.22,0.32,0.46,0.64,0.66,0.96   c-0.25-0.37-0.51-0.74-0.76-1.1c1.65,2.32,2.57,4.61,3.12,7.4c-0.13-0.41-0.29-1.07-0.44-1.67c-0.22-0.59-0.43-1.12-0.54-1.32   C34.7,90.42,32.63,87.45,29.82,85.43 M19.9,126.54c0.17,0,0.4-0.01,0.66-0.04c-0.53,0.1-1.06,0.18-1.58,0.24   C19.3,126.68,19.6,126.63,19.9,126.54 M15.56,83.48c0.2,0.05,0.46,0.09,0.75,0.13c-0.61-0.04-1.23-0.1-1.84-0.13   C14.83,83.47,15.19,83.49,15.56,83.48 M13.06,126.88c0.67,0.03,1.37,0.06,2.06,0.08c-0.69,0-1.38,0-2.07,0   C13.18,126.93,13.08,126.9,13.06,126.88 M10.68,123.12c0.01,0.04,0.01,0.07,0.02,0.1c0.02,0.05,0.04,0.09,0.06,0.13   C10.73,123.28,10.7,123.19,10.68,123.12 M32.51,104.06c0-0.76-0.02-1.49-0.05-2.19c-0.02,0.5-0.06,0.85-0.12,0.97   c-0.14,0.27-0.17-0.96-0.24-2.61c-0.08-0.82-0.18-1.75-0.27-2.64c-0.1-0.9-0.33-1.73-0.47-2.43c0.05,0.37,0.05,0.37,0.1,0.74   c-0.05-0.37-0.1-0.74-0.21-1.05c0.1,0.74,0.39,2.15,0.34,2.57c-0.04-0.22-0.13-0.42-0.19-0.63c0.1,0.93,0.13,2.29,0.25,3.63   c-0.01,1.35-0.03,2.7-0.1,3.64c0.04-1.14,0.07-2.34,0.08-3.59c-0.05-0.63-0.1-1.25-0.15-1.89c-0.07-0.64-0.08-1.3-0.24-1.95   c-0.13-0.65-0.26-1.31-0.4-1.97c-0.16-0.65-0.41-1.29-0.62-1.95c-0.19-0.67-0.54-1.27-0.84-1.9c-0.16-0.3-0.28-0.64-0.49-0.92   l-0.6-0.87c-1.61-2.3-4.04-4.04-6.8-4.84c-2.73-0.86-5.64-1.02-8.45-1.01l-0.59,0.01c-0.2,0-0.32,0.01-0.48,0.04   c-0.3,0.06-0.59,0.18-0.84,0.34c-0.5,0.33-0.84,0.87-0.9,1.42c-0.02,0.15-0.02,0.24-0.01,0.45L10.23,86l0.03,1.13   c0.02,0.75,0.05,1.49,0.08,2.23c0.11,2.95,0.24,5.8,0.39,8.55c0.04,1.04,0.02,3.54,0,5.33c0.05,3.17,0.1,6.33,0.21,9.46   c0.06,3.33,0.06,6.62,0.03,9.95v0.15l0.01,0.07c0,0.05,0.01,0.09,0.01,0.14c0.01,0.09,0.04,0.17,0.08,0.26   c0.08,0.17,0.2,0.33,0.35,0.46c0.15,0.14,0.34,0.24,0.54,0.29c0.1,0.03,0.2,0.05,0.31,0.05c0.03,0,0.14,0.01,0.25,0.01h0.32   c1.71,0.02,3.4,0.02,5.07-0.17c0.66-0.07,1.45-0.12,1.68-0.09c0.22,0.03-0.1,0.24-1.77,0.46c-1.38,0.18-2.8,0.24-4.26,0.26   l-1.09,0.01c-0.33,0-0.52-0.02-0.77-0.1c-0.46-0.15-0.86-0.48-1.08-0.9c0.08,0.08,0.23,0.31,0.47,0.5c0.23,0.2,0.54,0.33,0.75,0.35   c-0.65-0.2-1.1-0.73-1.21-1.27c-0.01-0.07-0.02-0.14-0.02-0.21c0-0.06-0.01-0.13,0-0.28c0-0.24,0-0.49,0-0.74c0-0.5,0-1.01,0-1.54   l0.01,2.13v0.26c0,0.09,0.01,0.11,0.01,0.17c0,0.02,0.01,0.04,0.01,0.07c-0.03-0.22-0.02-0.7-0.02-1.1c0-0.93,0-1.87-0.01-2.82   c-0.01-1.91-0.03-3.85-0.04-5.79c-0.01-1.42,0.28-2.66,0.07-4.67c-0.04,2.53-0.09,5.1-0.14,7.67l-0.05,3.88l-0.01,1.94l0,0.49   l0,0.23l0,0.16c0.02,0.2,0.08,0.4,0.17,0.59l-0.01-0.01c0.16,0.33,0.44,0.6,0.76,0.78c0.16,0.08,0.33,0.16,0.52,0.19   c0.09,0.02,0.18,0.03,0.27,0.04c0.09,0,0.17,0.01,0.33,0.01c1.09,0,2.16,0.01,3.25-0.03c-0.68,0.04-1.38,0.06-1.98,0.04   c3.21,0.09,6.36-0.08,9.17-1.23c-1.93,0.89-4.18,1.29-6.49,1.43c-1.16,0.07-2.33,0.08-3.52,0.08c-0.66,0.01-1.05,0.01-1.49-0.18   c-0.42-0.18-0.78-0.5-1.01-0.89c-0.11-0.2-0.19-0.41-0.24-0.62c-0.02-0.11-0.03-0.22-0.04-0.34v-0.43v-1.8c0-1.2,0-2.39,0.01-3.58   c-0.02-2.37-0.03-4.72-0.04-7.01c-0.15,2.58,0.06,6-0.12,8.24c0.02-4.2,0.04-8.41,0.06-12.73c0.01,0.31,0.03,0.63,0.04,0.95   c0.1-2.68,0.02-5.53,0.04-8.2c-0.03,2.46-0.05,4.87-0.08,7.25c-0.03-1.09-0.03-2.25-0.01-3.64c-0.06,0.75-0.09,1.83-0.12,2.91   c0,1.42-0.01,2.85-0.02,4.25c-0.01-2.18-0.05-4.32-0.12-6.29c-0.06,2.95-0.06,6-0.1,8.96c-0.01-1.63-0.02-3.26-0.03-4.89   c0.02-2.73,0.05-5.49,0.07-8.27l0.01,0.32l0-0.64c0-1.09,0.01-2.18,0.02-3.28c0-0.99-0.04-1.95-0.09-2.91v-0.49   c0.03,0.31,0.06,0.45,0.07-0.14c0.04-1.27,0.03-2.59,0.02-3.96c0-0.69,0-1.38,0-2.09c-0.01-0.66,0.25-1.29,0.73-1.73   c0.24-0.24,0.58-0.47,0.99-0.62c0.42-0.17,0.88-0.17,1.45-0.17c0.3,0.02,0.46,0.01,0.6-0.01c0.24-0.01,0.48-0.01,0.72,0   c0.59,0.02,1.18,0.02,1.75,0.05c-0.57-0.05-1.16-0.04-1.75-0.05c-0.22-0.01-0.44-0.01-0.66-0.01c0.15-0.02,0.31-0.05,0.64-0.04   c-0.51-0.02-1.02-0.02-1.53-0.03c-0.52-0.02-0.98,0.02-1.43,0.22c-0.9,0.36-1.56,1.27-1.58,2.25c-0.01,2.1-0.01,4.21-0.01,6.33   c-0.02-0.26-0.05-0.6-0.06-0.76c0.02,0.42,0.04,0.84,0.06,1.25c0.01,1.37,0.02,2.74,0.03,4.12c-0.02-0.41-0.04-0.79-0.07-1.12   c-0.01,3.91,0.01,7.84,0.04,11.78c-0.04,3.7-0.08,7.36-0.11,11c0.08-1.96,0.12-4.02,0.14-6.11l0.03,8.35l0,2.09   c0,0.35-0.02,0.7,0.03,1.01c0.05,0.31,0.16,0.62,0.31,0.89c0.26,0.44,0.66,0.79,1.13,1.02c0.84,0.02,1.62,0.04,2.39,0.06   c0.14,0,0.28,0,0.41,0c0.22-0.03,0.57-0.08,0.97-0.1c0.89-0.02,1.75-0.06,2.58-0.14c0.93-0.06,1.86-0.16,2.79-0.29   c0.25-0.04,0.52-0.08,0.76-0.13c-0.05,0.02-0.1,0.03-0.15,0.04c0.95-0.15,1.89-0.34,2.81-0.59   C28.57,121.72,32.51,116.47,32.51,104.06 M2.54,82.68l0-0.04c0.1,0.04,0.2,0.08,0.3,0.14c-0.08-0.01-0.14-0.02-0.22-0.02   c-0.02-0.01-0.06,0-0.07-0.01L2.54,82.68z M5.25,100.9c0.02-4.71,0.13-9.37,0.07-14.01c0.01,2.49-0.1,5.12-0.1,7.78l-0.02-5.32   c-0.02-1.76,0.1-3.57-0.72-5.11c-0.09-0.1-0.12-0.22-0.25-0.32l-0.55-0.3c-0.22-0.2-0.28-0.43-0.46-0.56   c-0.12-0.12-0.25-0.21-0.38-0.28c0.11,0,0.22,0.01,0.33,0.02c-0.2-0.07-0.4-0.13-0.62-0.17v0.01c-0.01,0-0.02-0.01-0.04-0.01   c-0.2-0.04-0.42-0.05-0.64-0.06c0.01,0,0.02,0,0.02,0.01l0.14,0.16c0.04,0.05,0.08,0.16,0.13,0.24l0.06,0.13   c0.02,0.05,0.04,0.13,0.06,0.18l0.06,0.19l0.03,0.1c0.02,0.03-0.02,0.07,0.1,0.09c0.61,0.21,1.55,0.41,1.5,0.63   c0.07,0.1,0.2,0.23,0.23,0.3l0.1,0.22c0.13,0.29,0.21,0.62,0.28,0.96c0.14,0.68,0.18,1.41,0.19,2.14c0.01,3.02,0.03,6.01,0.04,8.92   c0.08-1.64,0.06-3.55,0.05-5.41c0-0.93,0-1.84,0-2.71c0.01-0.87,0.02-1.63-0.02-2.32c0.15,1.25,0.08,2.61,0.09,3.95   C4.9,91.7,4.9,93.05,4.89,94.4c-0.02,2.7-0.03,5.41-0.05,8.16c-0.01-0.4-0.02-0.8-0.04-1.2c-0.1,3.4-0.01,7.04-0.04,10.44   c0.03-3.13,0.05-6.21,0.08-9.24c0.04,1.4,0.04,2.87,0.02,4.64c0.06-0.96,0.08-2.33,0.11-3.71c0-1.81,0.01-3.62,0.02-5.41   c0.01,2.77,0.05,5.51,0.12,8.01c0.03-3.77,0.07-7.63,0.1-11.41C5.23,96.76,5.24,98.83,5.25,100.9c-0.03,3.48-0.05,6.99-0.07,10.53   l-0.01-0.4l0,0.81c0,1.39-0.01,2.78-0.01,4.18c0,1.25,0.04,2.49,0.09,3.71c0,0.21,0,0.41-0.01,0.61c-0.02-0.39-0.05-0.58-0.07,0.17   c-0.05,0.61-0.09,1.23-0.21,1.84c-0.06,0.3-0.13,0.6-0.24,0.89c-0.1,0.3-0.2,0.55-0.48,0.89c-0.02,0.08-0.22,0.16-0.35,0.24   c-0.13,0.08-0.3,0.16-0.41,0.23c-0.1,0.14-0.18,0.34-0.3,0.44c-0.2,0.24-0.45,0.36-0.7,0.46c0.04-0.01,0.09-0.02,0.14-0.03   c0.26-0.1,0.53-0.2,0.76-0.43c0.13-0.09,0.23-0.25,0.34-0.39c0.13-0.15,0.46-0.29,0.62-0.45c0.25-0.33,0.38-0.61,0.48-0.91   c0.11-0.31,0.18-0.63,0.24-0.95c0.13-0.65,0.16-1.32,0.18-1.99c0.01,0.08,0.01,0.17,0.01,0.27c0-0.3,0.01-0.59-0.01-0.89   c-0.01-1.75-0.02-3.49-0.03-5.24c0.02,0.52,0.04,1,0.07,1.43C5.27,110.93,5.27,105.92,5.25,100.9 M1.33,125.77   c-0.02,0.01-0.05,0.02-0.07,0.02l0-0.12c-0.02-0.07,0.03-0.05,0.07-0.05h0.01v0.05V125.77z M2.92,84.13l-1.75-0.41   c0,0,0.01,0.01,0.01,0.01l0.35,0.08C1.98,83.92,2.45,84.03,2.92,84.13 M1.05,83.7L1.05,83.7c0.01,0,0.02,0,0.04,0.01L1.05,83.7z    M1.03,83.63l-0.02-0.19c0.01,0.08,0.02,0.17,0.04,0.26c0,0-0.02,0-0.02-0.01L1.03,83.63z M0.85,82.33l0-0.09   c0.03,0,0.06-0.01,0.09,0c0.07,0,0.14,0.04,0.21,0.13c-0.06,0.01-0.12,0.01-0.19,0.02L0.88,82.4l-0.04,0.01L0.85,82.33z M0.78,82.3   c-0.01-0.01-0.01-0.03-0.02-0.04c-0.01,0-0.01,0-0.01,0C0.76,82.28,0.77,82.29,0.78,82.3 M0.45,81.6l0.03-0.02l0.22-0.11   l-0.17,0.08L0.46,81.6C0.45,81.6,0.45,81.6,0.45,81.6 M0.36,82.3c0-0.1,0.02-0.26,0.03-0.39l0.02-0.2c0-0.01,0-0.02,0-0.04v0.01   l-0.02,0.26L0.37,82.2C0.36,82.24,0.35,82.32,0.36,82.3 M37.77,104.05c-0.19,3.01-0.53,6.35-1.6,9.73   c-0.54,1.68-1.29,3.36-2.32,4.91c-1.02,1.56-2.37,2.94-3.94,4.04c-3.16,2.22-7.04,3.19-10.81,3.62c-3.8,0.45-7.56,0.35-11.16,0.39   c-1.29,0.02-2.58,0.03-3.85,0.05l-1.18,0.02H2.76l-0.08-0.02l-0.17-0.04l-0.34-0.08c-0.45-0.11-0.9-0.22-1.34-0.32l-0.05-0.6   c-0.01-0.08,0.03-0.02,0.04-0.03l0.06,0.02l0.12,0.03c0.08,0.01,0.17,0.02,0.24,0.02l0.01,0.42c0.39,0.04,0.78,0.07,1.17,0.11   c0.19,0.02,0.39,0.04,0.58,0.07l0.29,0.04c0.1,0.01,0.24,0.01,0.37,0.01c0.56,0.02,1.26,0.02,2.03,0.02   c0.65-0.01,1.35-0.02,2.09-0.02c0.38,0.02,0.58,0.01,0.77-0.01c0.3-0.01,0.62-0.01,0.92-0.01c-0.28,0-0.56,0-0.84,0   c0.19-0.02,0.39-0.05,0.81-0.05c-1.33,0-2.66-0.01-4.01-0.01l-1.12,0c-0.36-0.01-0.79,0.01-1.07-0.02   c-0.63-0.04-1.26-0.08-1.9-0.12l0-0.42c0.05-0.01,0.1-0.01,0.14-0.04c0.02,0,0.03-0.02,0.04-0.03v-0.08l-0.09,0h-0.1v-0.02   c0.01,0,0.04,0,0.05,0h0.14v-0.04c0.05,0,0.1,0,0.15,0c0.07-0.1,0.13-0.24,0.18-0.42c0.03-0.1,0.05-0.24,0.07-0.35l0.03-0.18   c0-0.01,0-0.03,0.02-0.05l0.12-0.04l0.25-0.08l1.01-0.32c0.22-0.05,0.22-0.11,0.27-0.16l0.14-0.16c0.08-0.1,0.23-0.24,0.25-0.3   l0.08-0.19c0.06-0.12,0.09-0.27,0.13-0.4c0.08-0.29,0.13-0.58,0.17-0.89c0.07-0.61,0.1-1.25,0.08-1.89   c-0.1-2.67-0.19-5.28-0.29-7.85c-0.03-1.32-0.02-4.51,0-6.79c-0.05-4.03-0.1-8.06-0.21-12.05c-0.01-1.07-0.02-2.12-0.03-3.18   c-0.02-1.04,0-2.15-0.04-3.07c-0.02-0.48-0.09-0.92-0.17-1.34c-0.04-0.2-0.1-0.4-0.15-0.57c-0.03-0.1-0.07-0.16-0.1-0.24   l-0.02-0.06c-0.01-0.02,0-0.03-0.06-0.09L3.1,84.59l-0.14-0.15L2.9,84.38l-0.04-0.04c-0.01-0.01-0.01-0.02-0.08-0.04l-1.39-0.28   L0,83.73l0-0.42l0.01-1.06c0-0.34,0.01-0.24,0.01-0.13v0.1c0,0.06,0.01-0.06,0.02-0.14l0.05-0.51c0.01-0.1,0.08-0.08,0.11-0.13   l0.26-0.18l1.03-0.71l0.06-0.05c0.05,0,0.13,0,0.19,0h0.4l0.8,0l1.61,0c0.79,0,1.58,0,2.38,0c2.19,0.02,4.36-0.01,6.69,0.03   c0.92-0.01,2.02,0.13,2.31,0.24c0.15,0.05,0.09,0.09-0.28,0.1c-0.44,0-1.11,0.01-2.21,0.01c-1.86,0.03-3.72,0.06-5.58,0.08L4.4,81   l-1.16,0H2.67H2.38c-0.12,0-0.11,0.03-0.17,0.04l-1.06,0.42C1.26,81.38,1.66,81.2,2.11,81c0.05-0.07,0.35-0.05,0.61-0.06   c0.26,0,0.51,0,0.75-0.01c0.49,0,0.93-0.02,1.28-0.03c-0.6,0-1.19-0.01-1.77-0.01c-0.29-0.01-0.57-0.01-0.86-0.01l-0.36,0.16   c-0.24,0.1-0.47,0.21-0.71,0.31L0.7,81.51l-0.17,0.08l-0.08,0.04c-0.02,0.03-0.01,0.09-0.02,0.13l-0.05,0.53l0.01,0   c0.01-0.01,0.03-0.02,0.04-0.04c-0.01,0.02-0.03,0.03-0.05,0.04v0.02l0.11-0.09c0.02-0.01,0.04-0.02,0.06-0.03v-0.01   c-0.01,0.01-0.02,0.01-0.03,0.01c-0.02,0.01-0.05,0.02-0.08,0.05c0.01-0.01,0.03-0.03,0.04-0.03l0.06-0.03l0.02-0.27l0.01-0.19   c-0.01-0.08,0.06-0.05,0.09-0.08l0.47-0.18l-0.01,0.01c0.28-0.11,0.55-0.22,0.82-0.32l0.2-0.08l0.1-0.04   c0.03-0.02,0.06-0.03,0.15-0.02h0.88h3.2h4.18c-0.88,0.01-1.78,0.03-2.56,0.01c4.11,0.1,8.29-0.03,12.42,0.76   c-2.92-0.44-5.94-0.53-8.96-0.5c-1.51,0.01-3.02,0.02-4.54,0.03c-0.96,0-1.92,0-2.88,0l-0.83,0c-0.26,0-0.6-0.02-0.71,0.04   l-0.96,0.23l-0.72,0.17l-0.06,0.02c-0.01,0.01,0,0.05-0.01,0.07l-0.01,0.16l-0.01,0.24c-0.03,0-0.06,0.01-0.08,0.02   c0.01,0.02,0.03,0.04,0.04,0.07c0.03,0.12,0.07,0.14,0.1,0.37l0.05,0.28l0.04,0.43v0.03C1,83.32,0.99,83.21,0.97,83.09   c-0.04-0.32-0.09-0.58-0.14-0.68c-0.01-0.03-0.02-0.06-0.04-0.08c0.03,0.1,0.06,0.14,0.09,0.29l0.04,0.25l0.02,0.13l0.02,0.2   l0.04,0.4c0.02,0.03-0.03,0.07,0.05,0.1l0.31,0.07l0.62,0.14l1.25,0.29c0.12,0.1,0.18,0.2,0.28,0.3c0.08,0.09,0.2,0.21,0.24,0.28   l0.07,0.15c0.09,0.19,0.17,0.42,0.22,0.67c0.12,0.49,0.19,1.03,0.22,1.6c0.03,0.56,0.03,1.15,0.03,1.78   c0.01,1.23,0.02,2.47,0.03,3.7c0,1.81-0.28,3.38-0.08,5.94c0.05-3.22,0.09-6.48,0.14-9.77c0.01-0.84,0.02-1.6-0.06-2.35   c-0.04-0.37-0.1-0.73-0.18-1.07c-0.05-0.16-0.1-0.32-0.16-0.48l-0.09-0.22L3.88,84.7L3.8,84.6l-0.33-0.39   c-0.02-0.02-0.03-0.03-0.04-0.05l-0.19-0.05l-0.37-0.1l-0.75-0.19l-0.38-0.09L1.56,83.7c-0.02-0.01-0.08-0.02-0.08-0.02l-0.01-0.03   l-0.07-0.51c-0.02-0.18-0.06-0.24-0.08-0.36c-0.06-0.19-0.12-0.32-0.18-0.4c0.04-0.01,0.08-0.01,0.13-0.01h0   c0-0.03-0.01-0.05,0-0.1l0.01-0.35c0.1-0.02,0.21-0.02,0.31-0.03l0.63-0.04l1.27-0.08l1.53,0.01l2.78,0.02   C7,81.86,5.91,81.92,5.11,81.98h1.16c0.3,0,0.59,0,0.89-0.01c0.14,0,0.27,0.01,0.4,0.01l-0.38,0h3.17c0.2-0.11,0.41-0.21,0.62-0.28   c0.11-0.04,0.23-0.06,0.34-0.09c-1.37-0.01-2.74-0.02-4.12-0.04c1.4,0.02,2.84,0,4.29-0.01c0.28-0.06,0.56-0.1,0.84-0.1l1.04,0.01   c0.22,0.02,0.44,0.04,0.64,0.08c0.34-0.02,0.7-0.01,0.87-0.02c0.55,0.02,1.06,0.08,1.56,0.14c0.49,0.05,0.96,0.11,1.43,0.2   c0.17,0,0.5-0.02,0.87,0.03c0.73,0.12,1.43,0.29,2.13,0.43c0.62,0.21,1.26,0.38,1.89,0.62c2.42,0.64,4.75,1.64,6.63,3.06   c-1.89-1.4-4.16-2.38-6.57-3.03c0.15,0.06,0.29,0.12,0.43,0.19c0.16,0.07,0.32,0.15,0.48,0.22c7.64,2.31,13.1,8,13.1,20.67   c0,0.84-0.03,1.64-0.07,2.42c0.06-0.43,0.11-0.73,0.17-0.85c0.07-0.17,0.12,0.14,0.09,0.76c-0.02,0.31-0.04,0.7-0.06,1.14   c-0.05,0.44-0.1,0.94-0.16,1.47c-0.25,2.12-0.95,4.71-1.64,6.4c0.11-0.24,0.17-0.36,0.22-0.48c-0.13,0.3-0.26,0.6-0.35,0.89   c0.44-0.86,1.06-2.64,1.26-3.14l-0.15,0.86c0.44-1.17,0.88-2.91,1.14-4.68C37.56,107.08,37.64,105.3,37.77,104.05"
   id="path4" />
	<path
   class="st0"
   d="M52.79,85.2c0,0.04-0.01,0.07-0.01,0.11c0-0.12,0-0.23-0.01-0.35C52.78,85.04,52.79,85.12,52.79,85.2    M52.79,85.43c-0.01,0.18-0.01,0.37-0.03,0.56c0.01-0.22,0.02-0.45,0.02-0.68C52.78,85.35,52.79,85.39,52.79,85.43 M52.61,87.4   c0.01-0.11,0.03-0.23,0.05-0.35C52.64,87.17,52.64,87.28,52.61,87.4L52.61,87.4z M51.52,79.01c-0.14-0.18-0.28-0.36-0.43-0.52   C51.26,78.65,51.41,78.83,51.52,79.01 M50.46,91.68c0.12-0.12,0.23-0.25,0.33-0.37c0,0.01,0,0.01-0.01,0.02   C50.68,91.45,50.57,91.57,50.46,91.68 M50.16,84.36c0.03,0.1,0.06,0.2,0.08,0.32C50.21,84.55,50.18,84.45,50.16,84.36 M49.64,88.56   c0.39-0.73,0.64-1.59,0.73-2.51c0.03-0.47,0.08-0.94,0.02-1.33c-0.02-0.19-0.06-0.38-0.12-0.53c-0.06-0.14-0.09-0.2-0.16-0.27l0,0   c-0.01-0.01-0.03-0.02-0.06-0.03c0.01,0.01,0.03,0.02,0.05,0.04c-0.08,0.03-0.22-0.1-0.31-0.03c0.19,0.1,0.25,0.13,0.35,0.47   c-0.02-0.06-0.04-0.13-0.07-0.17c-0.01-0.02-0.02-0.02-0.02-0.03c0.01,0.03,0.03,0.07,0.06,0.14c0.08,0.19,0.12,0.47,0.15,0.77   c0.03,0.62,0,1.37-0.1,2.01C50.09,87.57,49.72,87.89,49.64,88.56 M49.69,89.68c-0.02,0.02-0.04,0.06-0.06,0.08   c0.02-0.01,0.03-0.03,0.05-0.04C49.68,89.7,49.68,89.69,49.69,89.68 M49.74,89.53c-0.24,0.29-0.5,0.58-0.77,0.86   c0.25-0.22,0.46-0.42,0.67-0.63c0.02-0.04,0.04-0.08,0.07-0.13C49.71,89.61,49.72,89.57,49.74,89.53 M48.93,90.42   c-0.11,0.11-0.23,0.21-0.35,0.32c0.06-0.03,0.12-0.06,0.18-0.08C48.82,90.56,48.9,90.48,48.93,90.42 M48.04,91.64l-0.01,0   c-0.03,0.02-0.06,0.04-0.09,0.06C47.97,91.68,48.01,91.67,48.04,91.64 M48.09,91.12c-0.15,0.1-0.29,0.2-0.45,0.29   c0.1-0.05,0.2-0.12,0.3-0.17C47.99,91.2,48.04,91.16,48.09,91.12 M47.72,83.54c-0.61-0.03-1.28-0.28-1.7-0.74   c0.12,0.08,0.24,0.16,0.37,0.23c0.45,0.3,1,0.44,1.53,0.46c0.28,0.02,0.56-0.02,0.81-0.07c0.13-0.03,0.26-0.06,0.38-0.1   c0.12-0.04,0.2-0.05,0.32-0.07C49.02,83.35,48.33,83.61,47.72,83.54 M45.63,92.69C45.63,92.69,45.63,92.69,45.63,92.69   C45.63,92.69,45.63,92.69,45.63,92.69 M45.42,92.75v0.03l0.14-0.06l0.05-0.02v-0.01l-0.05,0.02L45.42,92.75z M46.12,93.5   c-0.15,0.05-0.31,0.11-0.47,0.15l-0.23,0.06l0-0.24v-0.46c0.02,0.11,0.04,0.23,0.06,0.3c-0.02-0.15-0.04-0.3-0.06-0.44l-0.01-0.06   v0.06l0,0.14c-0.03-0.12-0.06-0.18-0.07,0.05c-0.01,0.14-0.02,0.27-0.02,0.4l-0.02,0.36l0.37-0.09c0.11-0.03,0.22-0.07,0.33-0.1   L46.12,93.5z M45.48,81.81c-0.52-0.9-0.42-2.11,0.17-2.85C45.08,79.71,44.98,80.88,45.48,81.81 M52.46,87.5   c-0.01,0.03,0,0.1,0.01,0.19c-0.19,1.08-0.64,2.09-0.98,2.59c-0.11,0.19-0.25,0.37-0.38,0.54c0.25-0.28,0.48-0.58,0.71-0.97   c0.02-0.08,0.08-0.24,0.12-0.39c0.06-0.08,0.13-0.16,0.18-0.25c-0.3,0.75-0.75,1.46-1.31,2.1c0.1-0.13,0.15-0.27,0.18-0.34   c0.04-0.05,0.08-0.1,0.12-0.15c-0.08,0.08-0.16,0.15-0.23,0.19c-0.07,0.12-0.14,0.24-0.23,0.35c-0.4,0.44-0.85,0.8-1.31,1.13   c-0.17,0.09-0.34,0.18-0.52,0.26c-0.09,0.07-0.19,0.14-0.28,0.2c0,0,0,0.01,0,0.02c-0.04,0.02-0.07,0.03-0.11,0.06   c-0.82,0.56-1.69,0.99-2.57,1.32l-1.01,0.38l-0.13-1.25l-0.06-0.59l-0.06-0.63l0.8-0.31c0.7-0.27,1.34-0.61,1.86-1.01   c0.31-0.18,0.99-0.62,1.39-1.02c0.33-0.38,0.6-0.8,0.8-1.26c0.19-0.46,0.31-0.96,0.37-1.47c0.07-0.55,0.12-1.1,0.12-1.67   c0.02-0.54-0.07-1.06-0.15-1.21c0-0.02,0-0.01,0-0.02c0-0.01,0-0.01-0.01-0.01c-0.01,0,0.03-0.01-0.09,0.01l-0.15,0.03l-0.03,0.01   l-0.15,0.04c-0.21,0.06-0.42,0.11-0.67,0.16c-0.13,0.02-0.26,0.04-0.4,0.05c-0.14,0.01-0.31,0.01-0.41,0.01   c-0.24,0-0.5-0.03-0.77-0.08c-0.43-0.07-0.91-0.36-0.99-0.5c-0.05-0.07-0.01-0.09,0.17-0.05c0.17,0.04,0.48,0.14,0.96,0.21   c0.4,0.04,0.76,0.04,1.19-0.02c0.2-0.03,0.38-0.08,0.55-0.13l0.25-0.08l0.17-0.06c0.1-0.03,0.21-0.06,0.3-0.07   c0.06-0.01,0.1-0.01,0.14-0.01c-0.05,0-0.1-0.01-0.15,0c-0.06,0.01-0.14,0.02-0.22,0.04l-0.1,0.02l-0.16,0.05   c-0.24,0.07-0.5,0.14-0.8,0.18c0.37-0.06,0.69-0.17,0.94-0.24c-0.34,0.09-0.73,0.18-1.18,0.19c-0.44,0-0.81-0.04-1.24-0.17   c-0.41-0.13-0.82-0.34-1.15-0.62c-0.34-0.3-0.58-0.6-0.79-0.94c0.17,0.24,0.34,0.44,0.56,0.64c0.22,0.2,0.47,0.39,0.75,0.53   c0.56,0.28,1.16,0.37,1.71,0.35c0.32,0,0.6-0.06,0.87-0.13c0.13-0.03,0.26-0.08,0.38-0.12c0.06-0.02,0.17-0.05,0.26-0.07   c0.34-0.07,0.56-0.03,0.78,0.15c0.1,0.09,0.17,0.18,0.23,0.33c0.07,0.15,0.12,0.33,0.16,0.52c0.07,0.39,0.08,0.81,0.06,1.26   c-0.03,0.89-0.16,1.75-0.42,2.53c0.48-0.84,0.43-2.15,0.58-2.99c0.01,0.98-0.12,1.98-0.45,2.89c0.03-0.06,0.06-0.1,0.08-0.16   c0.28-0.6,0.48-1.23,0.63-1.88c0.03-0.52,0.03-1.04-0.03-1.54c-0.08-0.52-0.22-1.02-0.57-1.33c-0.37-0.33-0.86-0.35-1.38-0.23   c0.23-0.14,0.54-0.22,0.81-0.26c-0.06-0.01-0.13-0.01-0.19-0.01c-0.05,0-0.1,0.01-0.16,0.01c-0.1,0.01-0.2,0.02-0.3,0.04   l-0.12,0.02h0c-0.05,0.01-0.09,0.02-0.14,0.03c-0.44,0.14-0.79,0.21-1.08,0.21c-0.84,0-1.49-0.28-1.97-0.84   c-0.49-0.57-0.73-1.19-0.73-1.89c0-0.7,0.24-1.32,0.74-1.88c0.5-0.55,1.13-0.82,1.94-0.82c1.13,0,2.09,0.57,2.95,1.74   c0.16,0.22,0.29,0.47,0.42,0.72c-0.04-0.17-0.07-0.31-0.04-0.38c0.06-0.17,0.35,0.26,0.58,0.91c0.24,0.65,0.35,1.49,0.43,2.05   c0.01-0.15,0.01-0.15,0.02-0.31c0,0.16-0.02,0.31,0.04,0.44c0.03-0.31-0.03-0.9,0.03-1.1l0.12,0.26c0.03-0.41-0.05-1-0.22-1.58   c-0.16-0.59-0.42-1.16-0.6-1.58c0.88,1.72,1.13,3.72,1.05,5.76c0.01,0.09,0.01,0.17,0.01,0.27c-0.01-0.05-0.01-0.1-0.02-0.15   c-0.01,0.28-0.03,0.56-0.06,0.84c-0.01,0.18-0.04,0.37-0.07,0.55c-0.01,0.15-0.01,0.3-0.02,0.47C52.57,86.9,52.52,87.19,52.46,87.5    M44.94,82.36c-0.36-0.39-0.5-0.85-0.53-1.25c-0.03-0.4,0.03-0.74,0.06-1.1c0.03-0.5,0.2-1.02,0.46-1.45   c0.25-0.43,0.55-0.79,0.98-1.12c0.42-0.32,0.93-0.52,1.41-0.6c0.05-0.01,0.1,0,0.16-0.01c-0.03,0-0.06,0.01-0.09,0.01   c0.24-0.03,0.47-0.04,0.7-0.03c0.49,0.02,1.01,0.14,1.49,0.39c-0.31-0.1-1-0.3-1.17-0.21c-0.62-0.06-1.27-0.01-1.9,0.28   c-0.63,0.29-1.11,0.77-1.46,1.29C44.28,79.68,44.26,81.2,44.94,82.36"
   id="path6" />
	<path
   class="st0"
   d="M103.17,125.57c-0.01,0.18-0.02,0.37-0.02,0.56l-0.04,0.97h-0.03l0.06-0.97   C103.14,125.92,103.16,125.74,103.17,125.57 M102.84,127.09l0.23,0.01L102.84,127.09z M102.25,124.83   c-0.77-0.04-1.35-0.17-1.83-0.55C100.93,124.68,101.55,124.78,102.25,124.83 M92.79,125.27c0.06-0.03,0.11-0.08,0.17-0.11   C92.87,125.17,92.81,125.2,92.79,125.27 M92.42,125.31c0.02,0,0.04,0,0.07,0c0.1-0.08,0.18-0.17,0.22-0.29   C92.64,125.13,92.53,125.23,92.42,125.31 M92.42,125.37c-0.09,0.05-0.16,0.08-0.23,0.1c0.01,0,0.03-0.01,0.04-0.01   C92.3,125.44,92.36,125.41,92.42,125.37 M92.32,125.38c-0.07,0.04-0.14,0.08-0.21,0.11c0.03,0,0.06-0.01,0.08-0.01   c0.06-0.03,0.13-0.06,0.18-0.1H92.32z M91.74,125.54c0.12-0.01,0.24-0.02,0.36-0.04c0.01-0.05,0.03-0.08,0.06-0.1   C91.97,125.4,91.81,125.43,91.74,125.54 M90.95,125.76c-0.04,0-0.08-0.01-0.13-0.01v-0.09c0.01-0.05,0.08-0.02,0.13-0.02   c0,0.02,0,0.05,0,0.07L90.95,125.76z M102.2,127.05l0.63,0.04L102.2,127.05c-1.71-0.07-3.5-0.14-5.35-0.19   c-1.07-0.02-2.15-0.05-3.25-0.08c-1.59,0.07-2.13-0.26-3.05-0.45l-0.02-0.47l-0.01-0.11c0-0.02,0-0.05,0-0.05l0.03,0l0.13,0.03   c0.05,0.01,0.09,0,0.14,0.01v0.11c0,0.13,0,0.26,0,0.38c0.49,0.07,0.88,0.14,1.06,0.2c-0.34-0.03-0.68-0.06-1.02-0.11   c0.29,0.07,0.61,0.15,0.96,0.24c0.18,0.04,0.32,0.1,0.55,0.14c0.3,0.01,0.6,0.02,0.91,0.03c1.08,0.03,2.23,0.07,3.4,0.1   C98.67,126.9,100.69,126.96,102.2,127.05 M88.08,109.91c0.03,0.1,0.04,0.19,0,0.28C88.11,110.09,88.1,110.01,88.08,109.91    M96,115.59c-3.05-7.41-6.01-14.89-8.88-22.15c1.37,2.79,1.83,4.68,2.67,6.7c2.3,5.54,4.62,11.13,6.72,16.18l-2.51-6.07   c1.25,3.03,2.29,5.6,3.51,8.72C97.05,118.07,96.28,116.05,96,115.59 M86.68,94.36c1.44,3.47,2.85,7.01,4.13,10.35   C89.52,101.38,88.12,97.9,86.68,94.36 M81.55,81.16l-0.13-0.13c0,0,0.02,0,0.02,0.01l0.2,0.22l0.41,0.43L81.55,81.16z M81.43,81.04   L81.43,81.04L81.43,81.04L81.43,81.04z M84.18,87.67c0.39,0.98,0.77,1.96,1.15,2.93c-0.19-0.44-0.39-0.89-0.59-1.34   c-0.72-1.79-1.45-3.58-2.18-5.4l-0.33-0.82l-0.33-0.59l-0.34-0.59c-0.06-0.09-0.1-0.21-0.18-0.28c-0.12,0.02-0.3-0.05-0.32,0.09   l-0.65,1.18c-0.11,0.16-0.21,0.49-0.32,0.75l-0.32,0.84l0.35-0.93l0.17-0.46c0.06-0.13,0.12-0.22,0.18-0.34l0.36-0.66l0.18-0.33   l0.09-0.16h0.22c0.09-0.03,0.1,0.06,0.14,0.11l0.3,0.48l0.39,0.65l0.1,0.16c0.03,0.06,0.06,0.15,0.1,0.23l0.2,0.47l0.39,0.95   C83.36,85.64,83.77,86.66,84.18,87.67 M79.42,112.61c0.38,0.01,0.74,0.01,1.1,0.01c-0.44,0.01-0.89,0.02-1.33,0.02   C79.29,112.62,79.37,112.6,79.42,112.61 M78.13,93.72c0.08-0.2,0.17-0.38,0.26-0.59c0.08-0.28,0.16-0.55,0.24-0.82l0.09-0.25   c-0.04,0.17-0.04,0.26,0.09-0.05c0.15-0.35,0.26-0.61,0.36-0.88c0.12-0.27,0.17-0.6,0.43-0.79c0.25-0.19,0.61-0.24,0.9-0.09   c0.15,0.08,0.27,0.19,0.35,0.34c0.08,0.15,0.12,0.32,0.17,0.48c0.05,0.17,0.12,0.35,0.2,0.55c0.1,0.24,0.22,0.51,0.34,0.8   c0.04,0.16,0.09,0.24,0.13,0.3l0.16,0.37l-0.14-0.34c0.06,0.07,0.11,0.14,0.18,0.31c-0.2-0.52-0.41-1.04-0.61-1.57l-0.27-0.7   c-0.08-0.24-0.21-0.47-0.44-0.6c-0.43-0.28-1.09-0.1-1.3,0.38c-0.2,0.5-0.35,0.92-0.56,1.51c0.03-0.15,0.07-0.33,0.09-0.42   c-0.06,0.23-0.12,0.45-0.18,0.67C78.47,92.78,78.3,93.25,78.13,93.72 M86.69,110.31c-0.36,0.06-1.13,0.01-1.32,0.1   c-2.87,0-5.75-0.11-8.55-0.21c1.11-0.2,1.8,0.08,2.58,0.08c2.15-0.05,4.31-0.04,6.27-0.06l-2.35,0.02   C84.5,110.23,85.49,110.26,86.69,110.31 M74.29,112.59c0.16-0.02,0.33-0.03,0.49-0.06c0.09,0.03,0.2,0.06,0.34,0.08   C74.84,112.61,74.56,112.6,74.29,112.59 M74.05,100.39l0.29-0.79c-0.07,0.15-0.14,0.3-0.21,0.47   C74.12,100.14,74.08,100.26,74.05,100.39 M74.01,125.61c0-0.01-0.01,0-0.01-0.01h0.04c0.02,0,0.06-0.01,0.08,0.01l0,0.1v0.06   c-0.03,0-0.06,0-0.1,0v-0.01V125.61z M88.76,109.65l-0.38-0.97c0.03,0.18,0.04,0.32,0.01,0.38c-0.16,0.38-1.04-2.54-1.63-3.99   l0.1,0.41c-0.05-0.2-0.1-0.41-0.2-0.57c0.1,0.41,0.34,1.18,0.34,1.43l-0.2-0.32c0.19,1.06,0.88,2.92,1.08,3.98   c-1.26-5.05-4.19-11.61-6.57-17.41l-0.26-0.6l-0.12-0.27l-0.08-0.16c-0.12-0.21-0.17-0.44-0.34-0.56c-0.17-0.13-0.42-0.11-0.6,0.01   c-0.18,0.12-0.22,0.36-0.26,0.54l-0.05,0.26c0,0.03,0,0.03-0.02,0.07l-0.04,0.15l-0.08,0.29l-0.33,1.15   c-0.21,0.75-0.41,1.5-0.62,2.25c-0.16,0.55-0.67,1.84-1.04,2.76c-0.57,1.66-1.13,3.32-1.63,4.98c-0.46,1.38-0.95,2.73-1.47,4.08   c-0.26,0.67-0.52,1.35-0.78,2.03c-0.03,0.06-0.02,0.05-0.02,0.05l-0.01,0l-0.01,0.01l-0.02,0.03c0.01,0,0.02,0.01,0.03,0.01l0.02,0   h0.01l0.3,0c0.78-0.01,1.86,0.28-0.07,0.35l-0.15,0.01l-0.07,0l-0.03,0l-0.08,0.02l-0.19,0.03c-0.13,0.02-0.28,0.03-0.42,0.04   l0.11-0.37l0.21-0.58c0,0.05-0.01,0.14-0.04,0.24c-0.01,0.04-0.03,0.09-0.04,0.14c-0.02,0.08-0.05,0.16-0.03,0.2   c0.04-0.08,0.08-0.15,0.12-0.22c0.01-0.03,0.01,0,0.03-0.07l0.08-0.19l0.15-0.38c0.2-0.51,0.4-1.02,0.6-1.57l-0.79,2.19   c0.65-1.81,1.43-3.86,2.13-5.88c0.27-0.74,0.77-1.28,0.97-2.39c-1.07,2.58-2.18,5.24-3.18,7.93v-0.02c-0.13,0.35-0.25,0.67-0.37,1   h0.42c-0.15,0.01-0.31,0.03-0.41,0.01c0.14,0.02,0.29,0.03,0.46,0.05l0.26,0.02l0.63,0.01c0.9,0.01,1.78,0.02,2.67,0.03   c-0.88,0.05-1.77,0.09-2.68,0.12c-0.59,0.02-1.18,0.03-1.77,0.05c0.18-0.49,0.36-1,0.55-1.5c0.3-0.81,0.6-1.61,0.91-2.42   c0.6-1.61,1.19-3.2,1.73-4.76c-0.64,1.28-1.1,3.13-1.71,4.23c0.81-2.18,1.65-4.36,2.52-6.58c-0.04,0.16-0.09,0.32-0.14,0.5   c0.61-1.35,1.09-2.86,1.62-4.24c-0.5,1.27-0.99,2.51-1.48,3.74c0.18-0.58,0.4-1.18,0.69-1.89c-0.2,0.37-0.44,0.92-0.67,1.47   c-0.28,0.73-0.56,1.47-0.84,2.2c0.42-1.14,0.79-2.26,1.1-3.31c-0.06,0.13-0.1,0.27-0.16,0.4c-0.95,2.55-1.91,5.12-2.87,7.71   l-0.01,0c0.81-2.23,1.88-5.01,2.77-7.43c-0.53,1.3-1.03,2.63-1.55,3.94l0.92-2.55c0.54-1.38,1.08-2.77,1.63-4.16   c0.2-0.6,0.38-1.13,0.5-1.57c0.02-0.03,0.03-0.07,0.05-0.1c0.02-0.09,0.05-0.19,0.07-0.28c-0.77,2.02-1.51,4.07-2.25,6.12   c-0.18,0.44-0.34,0.87-0.52,1.31c-0.26,0.71-0.52,1.44-0.78,2.18c-0.01,0.03-0.02,0.06-0.03,0.09c0.14-0.34,0.28-0.68,0.42-1.03   c-0.53,1.45-1.05,2.9-1.58,4.34c-0.28,0.72-0.55,1.44-0.82,2.16c-0.07,0.17-0.14,0.34-0.2,0.52c-0.15,0.4-0.29,0.79-0.42,1.17   c0.06,0,0.12,0,0.18,0c0.03-0.07,0.06-0.14,0.08-0.2l-0.08,0.2h0.06c0.11,0,0.22,0,0.33,0.01c0.38,0,0.76-0.01,1.14-0.01h0.04   c0.26-0.02,0.57-0.05,0.92-0.05h3.2c1.22,0.01,2.45,0.02,3.69,0.02c1.49,0.02,2.97,0.03,4.45,0.04c0.73,0.01,1.47,0.02,2.21,0.02   l0.5,0C88.82,110.47,88.92,110.05,88.76,109.65 M70.08,115.59c0.02-0.06,0.04-0.12,0.07-0.17c0.03-0.11,0.07-0.23,0.12-0.38   C70.21,115.22,70.14,115.4,70.08,115.59 M70.3,115.09c0,0,0,0.01,0,0.02c-0.1,0.29-0.2,0.59-0.3,0.88   c0.02-0.08,0.04-0.17,0.06-0.27c-0.1,0.26-0.2,0.51-0.3,0.77c-0.34,1.01-0.68,2.03-0.94,3.07c-0.2,0.77-0.35,1.55-0.39,2.33   c-0.01,0.39,0,0.78,0.09,1.15c0.1,0.38,0.19,0.7,0.57,1.06c0.13,0.08,0.2,0.17,0.36,0.25l0.57,0.24c0.18,0.15,0.3,0.31,0.47,0.4   c0.31,0.22,0.65,0.33,1,0.42c0.01,0,0.02,0,0.03,0c0.08,0.01,0.15,0.02,0.23,0.04c-0.16-0.04-0.33-0.08-0.49-0.14   c-0.21-0.1-0.42-0.21-0.62-0.38c-0.1-0.08-0.19-0.21-0.28-0.31c-0.23-0.11-0.64-0.23-0.87-0.34c-0.4-0.21-0.63-0.49-0.71-0.72   c-0.11-0.22-0.17-0.47-0.21-0.72c-0.08-0.51-0.05-1.05,0.03-1.59c0.16-1.13,0.57-2.66,1.09-4.29c0.17-0.44,0.24-0.67,0.28-0.89   C70.08,115.75,70.19,115.42,70.3,115.09 M68.63,115.26c0.34-0.91,0.68-1.81,1.02-2.72h-0.04   C69.29,113.45,68.97,114.36,68.63,115.26c-0.77,1.96-1.57,3.93-2.53,5.81c-0.51,0.94-0.98,1.83-1.71,2.69l-0.08,0.09l-0.14,0.08   l-0.28,0.16l-0.58,0.32c-0.24,0.2-0.37,0.47-0.58,0.63c-0.27,0.25-0.57,0.38-0.88,0.47c0.03,0,0.06-0.01,0.08-0.01   c0.47-0.1,0.92-0.33,1.31-0.7l0.32-0.33l0.5-0.34c0.4-0.21,0.55-0.51,0.73-0.73c0.35-0.48,0.67-0.98,0.95-1.51   C66.9,119.78,67.78,117.52,68.63,115.26 M61.32,125.51c-0.02,0.01-0.04,0.03-0.06,0.04h0.01   C61.29,125.54,61.31,125.53,61.32,125.51 M60.64,125.74v-0.03v-0.09l-0.09,0c-0.06-0.02-0.02,0.08-0.03,0.12v0.01   C60.56,125.74,60.6,125.74,60.64,125.74 M60.11,125.7c0-0.01,0.01-0.01,0.03-0.01C60.13,125.69,60.12,125.69,60.11,125.7l0,0.15   l0.01,0.31l-0.01-0.31L60.11,125.7z M90.96,125.64c0,0-0.01,0-0.01,0c0-0.03,0-0.05,0.04-0.03c0.04,0,0.08-0.01,0.13,0v-0.04   c0.17,0,0.34-0.01,0.51-0.02c0.03-0.03,0.05-0.05,0.07-0.09c0.09-0.08,0.14-0.28,0.21-0.45c0.06-0.18,0.09-0.46,0.14-0.69l0.4-0.03   c0.14-0.01,0.25-0.02,0.32-0.04c0.14-0.02,0.18-0.06,0.24-0.09l0.05-0.17c0.02-0.1,0.02-0.21,0.04-0.31c0.03-0.21-0.01-0.45,0-0.68   l-0.11-0.71l-0.16-0.72c-0.28-0.97-0.62-1.93-1.03-2.9c-0.77-1.95-1.56-3.93-2.35-5.92c-0.09-0.33-0.42-0.57-0.76-0.54l-1.46,0   c-1.02,0-2.04,0.01-3.07,0.01c-2.05,0.01-4.09,0.02-6.13,0.03c-1.99,0.01-3.98,0.02-5.94,0.03c-0.14,0.02-0.33-0.03-0.43,0.04   l-0.15,0.43c-0.16,0.44-0.31,0.88-0.46,1.32c-0.32,0.94-0.64,1.87-0.96,2.79c-0.35,1.12-0.7,2.25-0.92,3.35   c-0.22,1.09-0.33,2.23,0,3.03l0.07,0.14l0.03,0.07c0.02,0.03,0.07,0.08,0.1,0.11l0.22,0.23c0.09,0.07,0.32,0.13,0.48,0.2l0.26,0.1   l0.13,0.05l0.27,0.06l1.1,0.25l0.28,0.06c0.09,0.02,0.22,0.04,0.19,0.06l0.06,0.14l0.11,0.27c0.13,0.27,0.26,0.43,0.4,0.54   c0.31,0.01,0.64,0.02,1,0.02v0.03l0.07,0c0.03,0.01,0.09-0.01,0.1,0.02l-0.12,0h-0.05v0.18c0.06,0,0.12-0.01,0.18-0.02v0.31v0.08   c-0.01,0.01-0.05,0-0.07,0.01l-0.14,0.01l-1.15,0.05l-1.15,0.05l-0.58,0.03h-0.69c0.2-0.01,0.44-0.02,0.66-0.03   c0.19-0.02,0.35-0.04,0.45-0.04l-0.43,0.03l-0.5,0.02l-1.03,0.03l-3.41,0.01l-1.8,0.01c-0.6,0-1.26,0.02-1.72-0.02   c0.57,0.04,1.37-0.01,1.94-0.04c-1.44,0.02-2.52-0.06-3.75-0.1l0-0.43c-0.04,0-0.08,0-0.12-0.01l0,0.15l0,0.31   c1.22,0.08,2.21,0.24,3.89,0.2c0.84-0.01,1.67-0.02,2.5-0.03l2.46-0.06h0.85c-0.49,0.03-0.74,0.06,0.37,0.07   c0.65,0.02,1.03-0.02,1.51-0.05c0.45-0.03,0.91-0.06,1.37-0.1l0.34-0.03l0.17-0.01c0.06,0,0.14,0.01,0.11-0.08l0-0.34   c0.03-0.01,0.06-0.01,0.1-0.01c0.14-0.02,0.27-0.05,0.4-0.07l0.05-0.01c0.02-0.01,0.01,0.06,0.01,0.09l0,0.24   c-0.01,0.15,0.03,0.36-0.1,0.34c-0.37,0.12-0.73,0.24-1.08,0.37l-0.51,0.19l-0.25,0.1c-0.04,0.02-0.08,0.04-0.13,0.05l-0.32,0   c-1.73,0.03-3.44,0.06-5.15,0.09c-0.64,0.02-1.27,0.03-1.9,0.05c-0.94,0.02-1.87,0.03-2.8,0.05l-0.72,0.02   c-0.11-0.01-0.26,0.01-0.33,0l-0.15-0.06l-0.56-0.24c-0.37-0.16-0.73-0.33-1.07-0.5l-0.04-0.41c-0.01-0.12-0.04-0.34-0.01-0.25   c0.06,0.07,0.13,0.21,0.22,0.15c0.02-0.04,0.04-0.1,0.07-0.16c0.02-0.05,0.04-0.26,0.07-0.39c0.02-0.08,0.04-0.5,0.06-0.77   l0.02-0.23l0.01-0.12l0-0.06c0.01-0.02-0.02-0.04,0.05-0.05c0.42-0.1,0.84-0.21,1.27-0.31c0.42-0.11,0.85-0.21,1.28-0.32l0.64-0.16   l0.08-0.02c0.01-0.01,0.01-0.01,0.02-0.02l0.05-0.05l0.09-0.1c0.31-0.36,0.33-0.42,0.45-0.56c0.2-0.27,0.39-0.59,0.59-0.87   c0.18-0.32,0.35-0.63,0.53-0.93c0.17-0.32,0.32-0.63,0.47-0.93c2-4.31,3.37-9.05,5.02-13.6c1.73-4.86,3.5-9.61,5.32-14.45   c0.94-2.49,1.88-5,2.84-7.55l0.69-1.84l0.34-0.92c0.12-0.14,0.25-0.2,0.38-0.3l0.75-0.57l0.19-0.14c0.1-0.01,0.23,0,0.34-0.01   c0.15,0.07,0.27,0.18,0.4,0.26l0.78,0.56c0.06,0.04,0.13,0.09,0.19,0.14l0.19,0.46l0.38,0.93c0.38,0.92,0.76,1.85,1.15,2.78   c0.84,2.02,1.73,4.92-0.4-0.06l-0.9-2.08l-0.56-1.32c-0.02-0.05-0.05-0.12-0.07-0.15l-0.07-0.06l-0.14-0.14l-0.28-0.26l-0.56-0.54   c-0.05-0.12-0.28-0.1-0.44-0.08l-0.27,0.3l-0.53,0.59l-0.26,0.3c-0.08,0.15-0.16,0.43-0.24,0.63c-0.89,2.42-1.77,4.83-2.66,7.25   c0.1-0.53,0.9-2.54,1.19-3.51c-1.21,3.1-2.19,5.68-3.31,8.74c-1.24,3.37-2.52,6.86-3.8,10.34c-0.75,2.06-1.71,3.75-2.54,6.75   c2.74-7.31,5.69-14.8,8.46-22.32l-0.01,0.04c0.62-1.68,1.21-3.28,1.8-4.86l0.65-1.77l0.36-0.97l0.09-0.24l0.29-0.33   c0.26-0.29,0.52-0.58,0.78-0.88h0.2c0.05,0,0.1,0,0.14,0.02c-0.06-0.02-0.16,0-0.24-0.01c-0.1-0.02-0.14,0.03-0.17,0.08l-0.12,0.14   c-0.16,0.19-0.32,0.37-0.48,0.54l-0.23,0.26l-0.11,0.13c0,0-0.01,0.01-0.01,0.01c0.02-0.02,0.03-0.03,0.05-0.05l0.15-0.16   l0.29-0.32l0.29-0.32l0.14-0.16l0.07-0.08c0.02-0.03,0.05-0.05,0.1-0.04c0.09,0.01,0.21-0.02,0.28,0.02l0.15,0.16l0.29,0.33   l0.58,0.65c0.38,0.8,0.76,1.85,1.11,2.7l0.7,1.73c0.94,2.3,1.87,4.6,2.8,6.9c-0.7-1.61-1.39-3.24-2.1-4.88   c-0.78-1.85-1.57-3.72-2.36-5.6l-0.19-0.46c-0.06-0.1-0.13-0.17-0.2-0.26l-0.39-0.51l-0.39-0.51c-0.02-0.06-0.11-0.02-0.17-0.04   c-0.06,0.01-0.16-0.02-0.18,0.03l-0.18,0.26l-0.74,1.07l-0.7,1.89c-0.66,1.78-1.32,3.57-1.98,5.36c-2.58,6.95-5.2,13.92-7.61,20.59   c1.52-3.69,3.17-8.72,4.54-11.91c-1.13,3.04-2.27,6.09-3.42,9.16c-1.18,3.06-2.21,6.2-3.48,9.25c0.17-0.46,0.33-0.91,0.5-1.37   c-0.79,1.89-1.58,3.87-2.57,5.7c-0.24,0.46-0.5,0.91-0.78,1.32c-0.13,0.22-0.28,0.41-0.43,0.6l-0.17,0.22   c-0.08,0.07-0.09,0.15-0.24,0.22l-1.06,0.37l-0.53,0.18l-0.26,0.09c-0.11,0.03-0.06,0.07-0.09,0.11l-0.17,0.46   c-0.03,0.07-0.06,0.16-0.09,0.22l-0.1,0.13c-0.06,0.08-0.12,0.16-0.18,0.23c0.23-0.2,0.45-0.54,0.66-1.14l1.84-0.65   c0.19-0.12,0.25-0.25,0.37-0.39l0.2-0.26c0.26-0.35,0.51-0.73,0.74-1.11c0.91-1.56,1.65-3.25,2.35-4.94   c-0.61,1.56-1.29,3.22-2.33,5.03c0.63-0.93,1.36-2.43,2.03-3.94c0.85-2.01,1.61-4.07,2.35-6.11c-1.13,3.17-2.23,6.29-3.53,9.02   c1.38-2.67,2.46-5.55,3.52-8.43c-0.05,0-0.1,0-0.16,0c0.07-0.19,0.15-0.37,0.22-0.56c-0.02,0.11,0.06-0.03,0.1-0.06   c-0.08,0.18-0.15,0.37-0.23,0.56c0.03,0,0.06,0,0.1,0c0.53-1.45,1.06-2.9,1.61-4.33c-0.54,1.44-1.05,2.89-1.56,4.33h0.04   c0.72-1.93,1.45-3.86,2.17-5.78c0.16-0.52,0.46-1.37,0.79-2.32c-0.35,0.9-0.7,1.8-1.04,2.71c0,0.02-0.01,0.05-0.02,0.07   c-0.01,0.02-0.02,0.04-0.03,0.06c-0.12,0.31-0.23,0.62-0.35,0.93l0.32-0.87c-0.13,0.22-0.26,0.45-0.39,0.72   c0.63-1.68,1.27-3.36,1.91-5.07h0c-0.46,1.31-1.25,3.12-1.43,4.09l2.36-6.41c-0.04,0.08-0.09,0.15-0.14,0.23   c0.41-1.06,0.82-2.14,1.25-3.24l0.58-1.57c1.54-4.08,3.07-8.15,4.6-12.23c-0.25,0.81-0.54,1.73-0.81,2.59   c-0.08,0.25-0.15,0.49-0.22,0.73l0.54-1.45c0.11-0.3,0.21-0.59,0.32-0.89c0.06-0.16,0.12-0.3,0.17-0.46l-0.16,0.45l1.04-2.79h0.26   l15.59,37.94c2.09,5.02,3.26,5.52,5.22,5.64v0.57h-2.33c0.5,0.04,0.85,0.08,1,0.13c0.35,0.12-0.96,0.14-2.93,0.13   c-0.99-0.01-2.15-0.02-3.36-0.04c-0.66-0.01-1.38,0-1.97-0.04c-0.57-0.04-1.12-0.08-1.66-0.12l0-0.32v-0.1   c0.06,0.01,0.12,0.02,0.17,0.02v-0.14C91.06,125.64,91.01,125.64,90.96,125.64"
   id="path8" />
	<path
   class="st0"
   d="M152.15,81.07c0.65,0,1.3,0,1.96,0C153.49,81.07,152.83,81.07,152.15,81.07 M148.27,108.44   c0.01,2.07,0.01,4.18,0.02,6.27c-0.02-0.48-0.04-0.86-0.04-1.08C148.26,111.84,148.27,110.11,148.27,108.44 M145.82,91.26   c0,0.1,0,0.19,0,0.29c0-0.12,0-0.24-0.01-0.36C145.82,91.21,145.82,91.24,145.82,91.26 M145.74,89.74   c0.03,0.47,0.06,0.96,0.08,1.44c-0.02-0.54-0.05-1.09-0.1-1.62C145.73,89.63,145.74,89.68,145.74,89.74 M145.55,88.03   c-0.04-0.23-0.08-0.46-0.12-0.69c0.03,0.16,0.07,0.31,0.1,0.47C145.53,87.88,145.54,87.96,145.55,88.03 M145.42,87.34   c-0.02-0.1-0.04-0.21-0.06-0.31c0.01,0.03,0.02,0.06,0.02,0.1C145.4,87.2,145.41,87.27,145.42,87.34 M140.26,82.28   c0.01,0,0.01,0.01,0.02,0.01c-0.04-0.01-0.07-0.02-0.1-0.02C140.21,82.27,140.24,82.28,140.26,82.28 M140.18,82.26   C140.18,82.26,140.18,82.26,140.18,82.26c-0.05,0-0.1-0.01-0.15-0.02C140.07,82.24,140.12,82.26,140.18,82.26 M133.29,101.77   l0.21-0.08c0.03,0.03,0.06,0.07,0.08,0.1l-0.21,0.07L133.29,101.77z M132.51,102.24l0.35-0.12c-0.02-0.02-0.03-0.04-0.05-0.06   l-0.36,0.12L132.51,102.24z M132.38,102.08l0.36-0.12c-0.13-0.17-0.27-0.34-0.4-0.51l0,0.58L132.38,102.08z M132.27,101.35   c-0.1-0.13-0.2-0.26-0.31-0.4v0.6l0.31,0.39V101.35z M131.81,100.76c-0.08-0.11-0.17-0.22-0.25-0.32l0.01,0.6l0.25,0.31V100.76z    M131.82,100.2c-0.09-0.11-0.18-0.22-0.26-0.33l0.01,0.48l0.25,0.33L131.82,100.2z M131.69,99.44l0,0.29   c-0.02-0.02-0.04-0.05-0.06-0.07l-0.09-0.25v-0.14C131.6,99.32,131.64,99.38,131.69,99.44 M131.22,99.44v0.08l-0.04-0.14   C131.19,99.4,131.2,99.42,131.22,99.44 M130.91,99.59c0.03,0.04,0.05,0.07,0.08,0.1v0.11v0.01L130.91,99.59z M123.61,126.12   c0,0.09,0,0.19-0.02,0.26c0.01-0.01,0.02-0.03,0.01-0.06l0.01-0.26l0.01-0.26c0-0.03-0.01-0.03-0.03-0.04   C123.64,125.82,123.61,126,123.61,126.12 M123.22,126.16l0-0.4h0V126.16z M123.22,125.75L123.22,125.75l0-0.03h0V125.75z    M123.11,125.7c-0.01,0-0.01,0-0.01,0C123.1,125.7,123.11,125.7,123.11,125.7 M123.07,125.69c0.01,0,0.01,0,0.02,0   c0,0,0.01,0,0.01,0.01v0.04c0.04,0,0.08,0.01,0.11,0.01c0-0.01,0-0.02,0-0.03c-0.03-0.01-0.07-0.02-0.1-0.02   c0.04,0.01,0.08,0.01,0.1,0.02c-0.02-0.04-0.08-0.02-0.12-0.03h0L123.07,125.69L123.07,125.69z M122.26,125.5   c0.07,0.04,0.15,0.06,0.22,0.1c0.02,0.01,0.04,0.01,0.06,0.03h0c-0.02-0.01-0.04-0.01-0.06-0.02   C122.42,125.57,122.34,125.54,122.26,125.5 M122.01,125.28l0.23,0.2h0L122.01,125.28z M117.86,81.74l0.97,1.22L118,81.91   C117.96,81.86,117.91,81.8,117.86,81.74 M117.54,81.49c0.09,0.06,0.19,0.12,0.29,0.2c-0.02-0.02-0.04-0.05-0.06-0.07l-0.21-0.13   L117.54,81.49z M127.26,101.64c-0.93-1.18-1.89-2.4-2.85-3.63c-0.36-0.45-0.71-0.91-1.06-1.36c0.26,0.29,0.54,0.61,1.06,1.28   c-1.63-2.1-3.27-4.23-4.92-6.37c-0.44-0.56-0.76-1-1.14-1.46c-0.26-0.31-0.7-0.36-1.05-0.22v0.18c0.12-0.06,0.25-0.1,0.38-0.1   c0.19,0,0.41,0.07,0.57,0.21c0.16,0.15,0.28,0.34,0.42,0.52c0.33,0.42,0.68,0.88,1.04,1.35c0.79,1.01,1.65,2.11,2.55,3.25   c0.47,0.63,0.73,0.95,0.97,1.23c0.39,0.49,0.78,0.99,1.17,1.48C125.37,99.23,126.31,100.46,127.26,101.64 M117.26,90.91   c-0.08,0.27-0.02,0.55-0.03,0.82l0.01,1.43c0.02,1.36,0.04,2.7,0.05,4.04c0-1,0-1.99,0-2.97c0-1.16-0.01-2.29-0.01-3.37   C117.27,90.88,117.26,90.9,117.26,90.91 M117.28,90.08V89.9c-0.06,0.03-0.12,0.06-0.17,0.1c0,0.07,0,0.14,0,0.2   C117.16,90.15,117.22,90.11,117.28,90.08 M117.06,119.56c-0.01,0.1-0.02,0.2-0.03,0.3c0.13,0.92,0.33,1.81,0.68,2.64   c-0.38-0.84-0.56-1.7-0.71-2.48c0,0.01,0,0.02,0,0.03c0.13,0.87,0.31,1.73,0.66,2.53c0.19,0.46,0.45,0.84,0.78,1.24   c0.22,0.19,0.39,0.38,0.68,0.55c0.29,0.16,0.68,0.33,0.83,0.46c0.56,0.39,1.18,0.58,1.81,0.7c-0.42-0.1-0.82-0.27-1.21-0.53   c-0.14-0.11-0.22-0.21-0.42-0.32l-0.87-0.38c-0.24-0.13-0.38-0.28-0.57-0.42c-0.1-0.07-0.16-0.14-0.24-0.23l-0.16-0.2   C117.5,122.34,117.22,120.94,117.06,119.56 M117.01,119.76c0.01-0.1,0.02-0.22,0.03-0.33c-0.01-0.08-0.01-0.16-0.02-0.24   c-0.01,0.13-0.02,0.24-0.03,0.36C116.99,119.62,117,119.69,117.01,119.76 M116.96,119.79   C116.96,119.79,116.95,119.79,116.96,119.79c0.01,0.08,0.02,0.14,0.03,0.21c0-0.01,0-0.02,0-0.03   C116.98,119.91,116.96,119.85,116.96,119.79 M116.84,81.08c0.11,0.06,0.22,0.14,0.33,0.2c0.1,0.07,0.2,0.12,0.3,0.17l-0.34-0.2   C117.03,81.19,116.93,81.13,116.84,81.08 M116.79,90.41c-0.08,0.23-0.06,0.49-0.07,0.73v0.72   C116.74,91.41,116.76,90.91,116.79,90.41 M116.38,80.92l0.06,0.01l0.12,0.03c0.06,0,0.16,0.04,0.26,0.1   c-0.04-0.02-0.08-0.05-0.13-0.07l-0.3-0.08H116.38z M115.42,80.95c0-0.02,0.01-0.03,0.03-0.03h0.35h0.44l-0.43,0h-0.38   C115.43,80.93,115.43,80.94,115.42,80.95 M115.53,119.7c0.03-0.24,0.04-0.48,0.06-0.72c0-0.05-0.01-0.1-0.01-0.14   c-0.03,0.43-0.08,0.85-0.14,1.27c-0.11,0.77-0.28,1.54-0.57,2.25C115.23,121.53,115.41,120.61,115.53,119.7 M114.8,82.45l0.02-0.05   l0.06-0.16l0.13-0.31l0.26-0.62l0.13-0.32c0.01-0.01,0.01-0.02,0.02-0.03c0,0.01-0.01,0.01-0.01,0.02l-0.04,0.1l-0.34,0.81   l-0.17,0.41C114.84,82.35,114.82,82.39,114.8,82.45 M114.83,106.53c-0.06,3.64-0.12,6.76-0.21,12.08c0.24-3.16,0.15-6.53,0.21-9.86   c0.02-3.34,0.04-6.69,0.06-10.06c0.02-3.36,0.03-6.74,0.05-10.12l0.01-2.54l0-1.77v-1.05v-0.52c0.03-0.1,0.07-0.2,0.1-0.3   l0.41-1.16c0.02-0.04,0.02-0.11,0.06-0.13h0.61c0.33-0.03,0.41,0.06,0.56,0.11c0.15,0.08,0.38,0.24,0.56,0.36l0.29,0.19l0.14,0.1   c0.03,0.01,0.05,0.03,0.07,0.05l0.08,0.1l1.29,1.64c-0.02-0.03-0.05-0.06-0.07-0.08c3.78,4.8,7.2,9.14,10.84,13.76   c-1.13-1.41-2.28-2.85-3.26-4.12c1.53,1.97,3.04,3.93,4.56,5.88v-0.26c-1.95-2.44-3.91-4.88-5.87-7.34   c-2.07-2.61-4.13-5.22-6.21-7.84c0.31,0.36,0.49,0.57,0.82,0.97c0.31,0.39,0.68,0.85,1.07,1.33c0.77,0.97,1.6,2.01,2.15,2.67   c-0.87-1.12-1.69-2.19-2.5-3.23c-0.41-0.53-0.82-1.06-1.22-1.57c-0.35-0.44-0.7-0.89-1.04-1.34l-0.52-0.67   c-0.04-0.05-0.09-0.12-0.13-0.15l-0.35-0.22l-0.46-0.29l-0.23-0.14l-0.17-0.05l-0.17-0.04c-0.09-0.01-0.21,0-0.31,0l-0.64,0   c-0.13,0.28-0.24,0.58-0.37,0.87l-0.18,0.44l-0.09,0.22c-0.02,0.1,0,0.27-0.01,0.4v5.18l0-2.97l0-2.45v-0.13   c0,0.01-0.01,0.01-0.01,0.03v0.4c0,2.78,0.01,5.63,0.01,8.5C114.8,96.39,114.81,101.47,114.83,106.53 M110.33,125.53   c0.1-0.02,0.21-0.03,0.32-0.06c0.7-0.15,1.38-0.37,1.98-0.92c0.21-0.04,0.29-0.1,0.42-0.16l0.36-0.16   c0.22-0.12,0.32-0.25,0.49-0.37c0.29-0.28,0.45-0.52,0.63-0.8c-0.18,0.28-0.34,0.51-0.63,0.79c-0.17,0.12-0.29,0.26-0.5,0.37   l-0.38,0.17c-0.14,0.06-0.21,0.11-0.44,0.16c-0.6,0.55-1.29,0.78-1.98,0.93c-0.1,0.02-0.19,0.03-0.29,0.05   C110.31,125.54,110.32,125.53,110.33,125.53 M131.22,99.52l0.1,0.3v-0.02v-0.23c-0.03-0.04-0.07-0.09-0.1-0.13v-0.02l-0.05-0.06   c-2.89-3.65-5.82-7.35-8.75-11.06l-2.2-2.79l-1.11-1.41l-0.8-1.01l-0.4-0.51c-0.07-0.08-0.14-0.18-0.2-0.24l-0.18-0.15l-0.73-0.58   l-0.29-0.19c-0.15-0.02-0.35-0.01-0.52-0.01c-0.48-0.12-0.38,0.32-0.48,0.56l-0.19,0.84l-0.05,0.21c-0.01,0.09,0,0.21,0,0.31v1.93   v1.86c0.01,9.46,0.02,18.86,0.03,27.92c0.16-6.71-0.06-15.65,0.13-21.51c0,5.26-0.01,10.53-0.02,15.83   c-0.01,2.65,0.02,5.32-0.08,7.96c-0.06,1.32-0.16,2.63-0.46,3.87c-0.15,0.62-0.36,1.2-0.67,1.71l-0.25,0.36   c-0.08,0.08-0.22,0.27-0.42,0.43l-0.34,0.22l-0.17,0.11l-0.08,0.06l-0.17,0.05l-0.72,0.19l-0.36,0.1   c-0.08,0.01-0.09,0.03-0.21,0.04l-0.33,0.05c-0.12,0.21-0.24,0.45-0.38,0.56c-0.13,0.16-0.27,0.25-0.4,0.34   c0.13-0.08,0.25-0.17,0.36-0.33c0.12-0.11,0.22-0.36,0.33-0.58l0.37-0.05c0.1-0.02,0.14-0.03,0.22-0.05l0.4-0.1l0.8-0.21   c0.29-0.16,0.52-0.32,0.75-0.48c-0.24,0.17-0.47,0.32-0.78,0.48l-0.84,0.21l-0.42,0.1c-0.08,0.02-0.12,0.03-0.23,0.05l-0.39,0.05   c-0.39,0.79-0.8,1.01-1.22,1.15c0.05,0,0.1-0.01,0.15-0.01c0.17-0.05,0.34-0.12,0.51-0.22c-0.16,0.1-0.32,0.17-0.5,0.22   c0.05,0,0.1-0.01,0.16-0.01c0.56-0.12,1.11-0.34,1.6-1.08c0.42-0.05,0.51-0.11,0.73-0.17l0.59-0.18c0.24-0.05,0.26-0.13,0.38-0.19   l0.29-0.2c0.4-0.33,0.48-0.53,0.67-0.78c0.32-0.5,0.53-1.08,0.68-1.68c0.31-1.21,0.41-2.49,0.48-3.77c-0.06,1.3-0.16,2.6-0.47,3.81   c-0.16,0.6-0.37,1.18-0.68,1.68c-0.17,0.24-0.28,0.46-0.66,0.77l-0.28,0.19c-0.1,0.06-0.15,0.13-0.37,0.18l-0.54,0.17   c-0.19,0.05-0.29,0.11-0.65,0.16c-0.5,0.72-1.06,0.9-1.63,1.05c-0.01,0-0.01,0-0.02,0c0.03,0,0.07-0.01,0.1-0.02   c0.06-0.01,0.12-0.01,0.17-0.03c0.65-0.15,1.3-0.36,1.88-0.97c0.72-0.19,1.18-0.4,1.44-0.64c0.17-0.11,0.28-0.27,0.38-0.38   c0.1-0.1,0.17-0.23,0.26-0.35c0.32-0.49,0.55-1.04,0.72-1.61c0.27-0.97,0.4-1.98,0.47-3c-0.06-0.76-0.1-1.51-0.11-2.25   c0.01-1.62,0.04-3.11,0.09-4.43c-0.04-0.69-0.06-1.53-0.08-2.46c0,0.56,0,1.13,0.02,1.61c-0.03,0.05-0.06,0.11-0.09,0.33   c0.01-1.44,0.02-2.88,0.04-4.31c-0.01-1.48-0.02-3.09-0.02-4.78c0-1.94,0.01-3.97,0.01-5.94c0-0.98,0.01-1.95,0.01-2.9v-1.39v-0.98   c-0.01-0.39,0.02-0.75,0.1-1.06l-0.01,0.01c0.04-0.15,0.1-0.3,0.17-0.44v-0.78v-2.73c0.02-0.84-0.04-2.15,0.04-2.99l0.05-0.66   l0.03-0.34l0.02-0.16c0.01-0.02-0.01-0.07,0.02-0.07h0.09h0.36h0.18c0.06,0,0.13-0.01,0.15,0.05l0.44,0.47   c0.61,0.59,1.31,1.57,1.9,2.3c2.23,2.86,4.47,5.72,6.7,8.58c-1.11-1.31-2.47-2.94-3.59-4.26l2.02,2.57   c0.19,0.24,0.39,0.48,0.58,0.73c0.17,0.22,0.34,0.43,0.51,0.64c-0.16-0.2-0.33-0.41-0.5-0.62l4.69,5.95l1.22,1.55v0.01l0.6,0.78   V100c-0.06-0.08-0.12-0.16-0.18-0.24v0.06L131,99.71c0,0-0.01-0.01-0.01-0.02v-0.02l-0.08-0.1c-1.91-2.44-3.87-4.96-5.85-7.49   c1.92,2.44,3.9,4.94,5.89,7.46l0.09,0.12v0.02l0.18,0.24V99.52z M109.02,125.69h0.04v-0.01L109.02,125.69   C109.02,125.68,109.02,125.69,109.02,125.69 M109,125.71c0.02,0,0.04-0.01,0.06-0.01v-0.01h-0.05C109,125.7,109,125.7,109,125.71    M122.82,126.27l-1.42,0.05l-0.71,0.03c-0.23,0.01-0.47,0.02-0.76,0.02l-1.64,0l-3.13,0h-3.29l-2.84-0.11   c0.01-0.17-0.02-0.38,0.02-0.53c-0.02,0-0.04,0.01-0.07,0.01c0,0.02,0,0.04,0,0.06l0,0.16v0.32l1.68,0.1l0.84,0.05   c0.15,0,0.26,0.02,0.44,0.02l0.52,0c1.35,0,2.7,0.01,4.05,0.01c1.23,0,2.85,0.02,4.16,0l1.71-0.11c0.27-0.03,0.6-0.01,0.83-0.09   l0.01-0.48c0-0.01,0-0.01,0-0.02c-0.04,0-0.08-0.01-0.11-0.01v0.06l0,0.38c-0.01,0.02,0.01,0.08-0.02,0.08l-0.09,0L122.82,126.27z    M108.99,125.72c0.02,0,0.04,0,0.07,0v-0.01C109.03,125.72,109.01,125.72,108.99,125.72 M108.85,125.73c0.03,0,0.06,0,0.08-0.01   C108.9,125.73,108.88,125.73,108.85,125.73L108.85,125.73z M108.85,125.72h0.03c0.02,0,0.04-0.01,0.06-0.01v-0.01L108.85,125.72   L108.85,125.72z M108.84,126.3c0.57,0.05,1.14,0.1,1.7,0.16c0.29,0.02,0.57,0.04,0.85,0.06l0.21,0.01h0.28l0.58,0   c-0.84,0.01-1.3-0.06-1.87-0.1c-0.56-0.05-1.12-0.1-1.68-0.14c0.01-0.18-0.02-0.4,0.01-0.55c-0.01,0-0.03,0-0.04,0l-0.03,0   C108.82,125.91,108.85,126.12,108.84,126.3 M108.66,125.74h0.08v0h-0.04C108.69,125.74,108.67,125.74,108.66,125.74 M108.64,125.75   l0,0.12l0.01,0.48c0.74,0.13,1.52,0.26,2.33,0.4l0.15,0.02c0.05,0.01,0.17,0.01,0.24,0.01h0.52h1.07c0.72,0,1.46,0.01,2.22,0.01   c-1.07-0.02-2.32-0.04-3.69-0.06c-0.08,0-0.18,0-0.24,0l-0.16-0.03l-0.32-0.05c-0.22-0.04-0.43-0.07-0.65-0.11   c-0.45-0.07-0.91-0.14-1.38-0.2l0-0.42c0-0.05,0-0.12,0-0.17L108.64,125.75z M121.87,126.75l-0.58,0.12   c-0.09,0.01-0.23,0-0.34,0.01l-1.39-0.01c-0.9,0-1.8,0-2.69-0.01c-1.61,0-3.23-0.01-4.83-0.02h-0.67l-0.33,0l-0.19-0.04l-0.74-0.15   l-1.49-0.28l-0.01-0.48l0-0.12c0-0.01,0.01-0.01,0.01-0.01h-0.06c-0.04-0.03-0.01,0.08-0.02,0.12l0,0.17l0.01,0.33l1.48,0.32   l0.74,0.17c0.08,0.01,0.09,0.03,0.22,0.03h0.35l0.71,0c1.65,0,3.3-0.01,4.94-0.01h2.77l1.39-0.01h0.17l0.09-0.02l0.19-0.04   l0.37-0.08c0.5-0.11,1-0.22,1.49-0.32l0.09-0.02c0.02,0,0.03,0,0.04-0.01l-0.18,0.04L121.87,126.75z M155.08,81.79   c0,0.19-0.01,0.37-0.02,0.57l-0.02,0.9l-0.85,0.05c-1.17,0.06-2.38,0.2-3.36,0.65c-0.99,0.44-1.67,1.28-2.04,2.44   c-0.38,1.15-0.53,2.47-0.62,3.8c-0.09,1.35-0.12,2.73-0.15,4.13c-0.07,5.62-0.1,11.52-0.12,17.58c0,3.03-0.01,6.09-0.01,9.19   c0,0.88,0,1.75,0,2.64c0.06,1.17-0.14,1.76-0.26,2.53c0.06,0.27-0.29,0.15-0.49,0.18h-0.34c-0.08-0.03-0.13-0.1-0.2-0.14   c-0.12-0.09-0.27-0.23-0.42-0.37l-0.45-0.41c-0.14-0.1-0.32-0.37-0.48-0.56l-0.48-0.61l-0.85-1.08c-3.88-4.9-7.8-9.84-11.67-14.72   l-0.12-0.16v-0.02c-0.31-0.39-0.62-0.78-0.92-1.18v0.04l-1.05-1.34c-0.11-0.14-0.22-0.29-0.33-0.42l-0.2,0.07l0-0.03l-0.02-0.31   c-2.5-3.2-4.97-6.36-7.39-9.46c-1.24-1.57-2.46-3.13-3.68-4.67c-0.18-0.21-0.32-0.5-0.61-0.54c-0.25-0.05-0.51,0.08-0.63,0.3   c0,0.7,0,1.41,0,2.11c0,1.51,0,3.04,0,4.55c0.03,2.49,0.06,4.96,0.1,7.4c0.03,1.93,0.06,3.83,0.09,5.73   c0.05,1.88,0.1,3.74,0.15,5.59c0.07,1.82,0.21,3.65,0.68,5.18c0.12,0.38,0.26,0.73,0.44,1.04c0.1,0.14,0.17,0.31,0.28,0.42   l0.08,0.1l0.04,0.05c-0.01-0.02,0.05,0.08,0.06,0.08l0.06,0.06c0.04,0.04,0.07,0.07,0.12,0.11l0.17,0.09l0.34,0.19l0.7,0.37   c0.46,0.13,1.02,0.27,1.53,0.4l0.79,0.2l0.39,0.1c0.06,0.02,0.15,0.03,0.18,0.05l0.01,0.05l0.08,0.37c0.02,0.1,0.05,0.29,0.08,0.33   l0.08,0.17c0.02,0.05,0.05,0.13,0.07,0.16l0.07,0.07c0.06,0.1,0.14,0.08,0.21,0.1c0.04-0.01,0.08-0.02,0.12-0.03l0.03-0.01   c0.01-0.01,0,0.13,0,0.19c-0.01,0.15-0.02,0.31-0.03,0.47c-0.29,0.19-0.62,0.36-0.96,0.56c-0.17,0.1-0.34,0.19-0.52,0.3l-0.14,0.07   l-0.07,0.04h-0.22h-0.88c-1.93,0-3.95-0.01-5.93-0.01c-1.19,0-2.36-0.01-3.5-0.01c-1.07-0.03-2.62,0.08-2.59-0.19l-1.43-0.77   c-0.01-0.22-0.04-0.52-0.04-0.67l0.09,0.04c0.06,0.01,0.11,0.03,0.17-0.02c0.02,0,0.05-0.04,0.08-0.09   c0.01-0.03,0.03-0.04,0.04-0.08l0.04-0.14c0.01-0.06,0.02-0.07,0.03-0.17l0.04-0.27l0.02-0.13l0.01-0.22l0.03-0.46l0.72-0.07   c0.21-0.03,0.27-0.04,0.41-0.07l0.74-0.13l1.47-0.26c0.16-0.02,0.14-0.05,0.21-0.07l0.14-0.08l0.28-0.15   c0.18-0.1,0.4-0.19,0.54-0.31c0.13-0.1,0.27-0.26,0.32-0.33c0.04-0.04,0.08-0.09,0.12-0.15c0.07-0.11,0.15-0.21,0.21-0.33   c0.26-0.47,0.44-1.05,0.57-1.67c0.26-1.26,0.32-2.67,0.35-4.08c0.04-2.83-0.03-5.74-0.06-8.61c-0.01-4.07-0.03-8.1-0.05-12.14   v-6.06l0-3.03l0-1.77v-2.28v-0.67c0.01-0.02,0.02-0.03,0.02-0.04l0.75-1.33l0.04-0.08c0.01-0.03,0.03-0.06,0.08-0.05l0.27,0.01   h0.55h0.34l0.14,0c0.05,0.01,0.13,0.06,0.19,0.09l0.81,0.4c0.07,0.04,0.13,0.04,0.21,0.12l0.24,0.3l0.47,0.6l1.56,1.99   c1.27,1.61,2.54,3.23,3.82,4.87c2.39,3.03,4.81,6.11,7.27,9.25v-0.03l2.64,3.39l0.12,0.16c2.26,2.9,5.14,7.06-0.4,0.06l-0.06-0.08   l-0.01,0.01h0c-0.6-0.75-1.2-1.5-1.81-2.26v-0.02l-0.14-0.17v0.02c-0.03-0.04-0.06-0.07-0.08-0.1l0.08,0.24v0.15   c0.03,0.03,0.06,0.07,0.09,0.11l0.06,0.16v-0.01v-0.08c0.04,0.06,0.08,0.11,0.13,0.17v-0.03l1.47,1.9l-0.01,0.01   c0.02,0.03,0.05,0.06,0.08,0.1l0.01-0.01l0.04,0.05c2.9,3.76,5.78,7.49,8.67,11.23c-2.88-3.64-5.82-7.36-8.8-11.13l-0.02-0.03   l-0.01,0c-0.02-0.02-0.03-0.04-0.05-0.06l0.01,0l-0.07-0.1l-0.02,0c-0.38-0.48-0.76-0.97-1.15-1.45l0,0.48l0.31,0.4v-0.03   l0.55,0.72l0.28-0.1c0.03,0.03,0.05,0.06,0.08,0.1l-0.28,0.1l0.05,0.06l0.28-0.1c0.01,0.02,0.02,0.03,0.03,0.04l-0.28,0.1   l0.05,0.07c1.75,2.26,3.49,4.51,5.16,6.73c-0.51-0.63-1.02-1.27-1.54-1.92c-1.2-1.57-2.41-3.14-3.67-4.77l0,0l-0.01,0.01   c-0.02-0.03-0.04-0.06-0.06-0.08l-0.36,0.12l0.06,0.08l0.35-0.13c0,0.01,0.01,0.02,0.01,0.02l-0.36,0.12l0.08,0.1v-0.02l3.33,4.29   l8.81,11.35c0.48,0.62,1.35,0.51,1.75-0.03c0-0.14-0.01-0.29-0.01-0.45c-0.09,0.26-0.3,0.48-0.56,0.58c-0.33,0.13-0.73,0.08-1-0.17   c-0.25-0.26-0.44-0.55-0.66-0.83l-0.72-0.93c-0.49-0.63-0.98-1.27-1.48-1.91l1.46,1.88l0.72,0.92c0.22,0.28,0.42,0.56,0.65,0.82   c0.26,0.24,0.64,0.32,0.97,0.2c0.3-0.1,0.52-0.35,0.6-0.65c-0.01-0.97,0.01-2.09-0.01-2.86c0.01,0.18,0.02,0.29,0.04,0.27   c-0.06-3.15,0.02-3.74,0.05-6.58c-0.02-0.63-0.03-1.24-0.04-1.86c0-0.31,0-0.62,0.01-0.94c0.15-3.21,0.1-6.4,0.1-9.97   c0.01-1.01,0.03-2.03,0.05-3.05c-0.01-0.46-0.02-0.89-0.04-1.32c-0.22-6.17-1.27-8.45-6.21-8.86c0.02,0.01,0.04,0.02,0.07,0.03   c0.14,0.03,0.28,0.23,0.43,0.36c0.07,0.11,0.14,0.27,0.21,0.4l0.08,0.15c0.02,0.02-0.01,0.04,0.08,0.06l0.76,0.22   c0.25,0.08,0.5,0.15,0.75,0.22l0.37,0.11c0.14,0.04,0.14,0.07,0.22,0.11c0.24,0.14,0.47,0.28,0.69,0.42   c0.24,0.13,0.35,0.34,0.4,0.39c0.07,0.09,0.14,0.16,0.19,0.26c0.23,0.34,0.37,0.67,0.47,0.84c0.53,1.43,0.66,3.11,0.74,4.76   c0.06,1.67,0.03,3.37,0.06,5.05c0.02,3.37-0.02,6.75-0.03,10.12c-0.02,3.37-0.04,6.72-0.07,10.05l-0.01,0.7   c0.01,0.17-0.03,0.36-0.19,0.46c-0.14,0.1-0.34,0.12-0.49,0.03c-0.15-0.09-0.23-0.26-0.34-0.38c-0.95-1.25-1.91-2.5-2.86-3.74   c0.84,1,1.58,1.92,2.26,2.79c0.17,0.22,0.33,0.43,0.49,0.64c0.07,0.09,0.14,0.19,0.21,0.28c0.1,0.14,0.2,0.32,0.39,0.33   c0.18,0.03,0.36-0.06,0.43-0.22c0.06-0.16,0.04-0.33,0.06-0.52c0.01-0.41,0.02-0.82,0.03-1.23c0-0.46,0.01-0.91,0.01-1.37   c-0.02-5.06-0.03-10.14-0.04-15.12c0-2.39-0.04-4.73-0.06-7.04c0.01,0.3,0.02,0.59,0.02,0.89c-0.01-0.41-0.01-0.81-0.02-1.21   c-0.05-1.28-0.12-2.53-0.33-3.72c-0.12-0.58-0.25-1.16-0.47-1.67c-0.09-0.27-0.24-0.49-0.37-0.73c-0.07-0.11-0.16-0.21-0.24-0.31   c-0.15-0.24-0.46-0.36-0.72-0.54c-0.13-0.32-2.18-0.67-2.65-0.99l-0.18-0.45c-0.06-0.13-0.13-0.17-0.19-0.26l-0.1-0.12l-0.1-0.05   c-0.02-0.01-0.03-0.01-0.04-0.02c-0.03,0-0.06-0.01-0.09-0.01v-0.03c-0.02-0.01-0.04-0.02-0.07-0.03c0.02,0.01,0.04,0.01,0.07,0.01   v-0.5h13.77v0.57c-1.9,0.14-3.26,0.5-4.25,1.17c0.24-0.15,0.48-0.27,0.68-0.36c0.47-0.2,0.82-0.25,1-0.27   c0.37,0.01-0.29,0.09-1.32,0.7c-0.51,0.31-1.08,0.81-1.48,1.57c-0.42,0.75-0.67,1.72-0.84,2.77c-0.31,2.12-0.31,4.57-0.34,6.93   c-0.01,2.36-0.02,4.64-0.03,6.49c0.03-0.98,0.03-0.98,0.06-1.96c-0.03,0.98-0.06,1.96-0.03,2.83c0.06-1.95,0.12-5.76,0.22-6.84   l0.07,1.74c0.04-1.23,0.09-2.67,0.14-4.25c0.06-1.58,0.12-3.29,0.38-4.92c0.15-0.81,0.34-1.6,0.66-2.27   c0.32-0.68,0.78-1.17,1.34-1.53c1.14-0.7,2.62-0.82,3.81-0.87l0.84-0.03l0.03-0.9C155.06,82.14,155.07,81.97,155.08,81.79"
   id="path10" />
	<path
   class="st0"
   d="M180.3,81.26c-0.64,0-1.25,0-1.86,0C179.09,81.25,179.73,81.24,180.3,81.26 M171.7,94.59   c-0.04-2.95,0.09-5.94-0.2-8.71C171.8,88.65,171.68,91.6,171.7,94.59 M171.51,97.72c0.01,0.38,0.03,0.76,0.04,1.14   c-0.02,2.89-0.05,5.82-0.08,8.8C171.49,104.42,171.4,100.96,171.51,97.72 M170.23,126.45l-0.22,0.58c0.1-0.24,0.18-0.49,0.27-0.74   L170.23,126.45z M168.74,81.07h-0.23c0.08,0,0.2,0,0.29,0c0.5,0,1,0,1.49,0l-1.04,0H168.74z M168.51,81.08   c-0.02,0-0.04,0.01-0.05,0.01l0.02-0.01H168.51z M167.34,82.16c0.01,0.02,0.03,0.02,0.05,0.04l-0.15,0.03l-0.42,0.1   c-0.01,0.01-0.04,0.02-0.05,0.01l0-0.09l0,0l-0.03,0.01c0.01,0,0.02-0.01,0.03-0.01l0-0.01c0.03-0.01,0.06-0.03,0.08-0.03   c0.12-0.03,0.19-0.12,0.3-0.1C167.23,82.13,167.24,82.08,167.34,82.16 M166.73,82.26l0.03-0.01   C166.74,82.25,166.73,82.26,166.73,82.26C166.72,82.26,166.72,82.26,166.73,82.26c-0.02,0.01-0.05,0.02-0.06,0.02   c-0.01,0-0.02,0.01-0.03,0.01l0.02-0.01l0.06-0.02c-0.04,0.01-0.08,0.01-0.09-0.04l0.01-0.07l0.02-0.27   c-0.03-0.24,0.15-0.18,0.25-0.25c0.46-0.15,0.91-0.3,1.37-0.45l0.17-0.06c0.06-0.01,0.1-0.04,0.24-0.03l0.72,0   c0.48,0.01,0.96,0.01,1.45,0.01c0.8,0.01,1.63,0.02,2.49,0.03c-0.19,0.02-0.45,0.03-0.73,0.03c-0.4,0-0.83,0.01-1.24,0.01   c-0.88,0.01-1.67,0.02-1.91,0.06h-0.65l-0.35,0.09l-1.41,0.36l-0.18,0.04c-0.01,0-0.03,0.01-0.04,0.01l-0.01,0.06l-0.01,0.12   l-0.02,0.25v0.02C166.77,82.24,166.74,82.25,166.73,82.26 M166.62,82.29c0,0.01,0.01,0.01,0.01,0l-0.01,0.01V82.29z M166.62,82.23   v0.05V82.23L166.62,82.23z M166.62,82.22L166.62,82.22c-0.01-0.04-0.01-0.13,0.01-0.28l0.02-0.21c0.01-0.01,0.03-0.01,0.04-0.01   l0.18-0.06l0.36-0.12c0.24-0.08,0.47-0.17,0.71-0.25l0.35-0.13l0.17-0.06c0,0,0,0,0.01,0l-0.1,0.03l-0.95,0.34l-0.48,0.17   l-0.24,0.08c-0.06-0.01-0.04,0.08-0.05,0.14l-0.01,0.19L166.62,82.22z M165.73,135.64c0.24-0.09,0.47-0.2,0.71-0.3   c-0.01,0.01-0.02,0.01-0.04,0.02C166.19,135.46,165.97,135.55,165.73,135.64 M175.82,116.42c0,0.7-0.04,1.43-0.07,2.15   c-0.02,0.27-0.03,0.54-0.04,0.8c-0.01-0.18-0.03-0.38-0.01-0.78c-0.17,2.47-0.52,5-1.28,7.45c-0.75,2.44-2.01,4.81-3.9,6.64   c0.21-0.24,0.48-0.58,0.61-0.72c-0.35,0.38-0.65,0.8-1.05,1.12c-1.06,0.97-2.32,1.68-3.63,2.26c0.17-0.1,0.35-0.2,0.53-0.3   c-0.95,0.45-1.94,0.79-2.95,1.07c-0.17,0.09-0.35,0.18-0.53,0.26c1.23-0.31,2.47-0.68,3.62-1.26c0.27-0.14,0.54-0.26,0.81-0.41   l0.75-0.5c0.51-0.31,0.95-0.73,1.39-1.12c0.15-0.13,0.32-0.24,0.45-0.4c-0.12,0.15-0.22,0.24-0.22,0.26   c0.01,0.01,0.13-0.06,0.38-0.33c1.18-1.05,2.07-2.47,2.81-3.98c0.75-1.52,1.19-3.21,1.64-4.94c0.1-0.46,0.19-1,0.29-1.59   c0.1-0.59,0.14-1.25,0.21-1.93c0.06-0.36,0.08-0.56,0.06-0.73c0.01-0.29,0.02-0.59,0.04-0.88   C175.79,117.85,175.84,117.13,175.82,116.42 M163.47,136.38c0.17-0.08,0.33-0.17,0.5-0.25c-0.15,0.04-0.29,0.07-0.43,0.1   c-0.19,0.09-0.38,0.18-0.58,0.27c0.12-0.02,0.24-0.04,0.35-0.08C163.36,136.4,163.42,136.39,163.47,136.38 M161.41,136.67   c-0.14,0.03-0.27,0.05-0.4,0.08l-0.11,0.01l-0.04-0.11l-0.19-0.5l-0.06-0.14l0.15-0.05c0.19-0.07,0.38-0.14,0.57-0.22l-0.1-0.06   c-0.16,0.06-0.33,0.12-0.5,0.18l-0.24,0.08l0.09,0.23c0.06,0.17,0.13,0.34,0.19,0.5l0.07,0.19l0.19-0.03   c0.11-0.02,0.23-0.04,0.34-0.06L161.41,136.67z M181.26,81.99c-0.01,0.16-0.02,0.33-0.03,0.5l-0.06,1l-0.87-0.07   c-1.23-0.09-2.45,0.24-3.17,1.3c-0.36,0.52-0.61,1.18-0.74,1.89c-0.14,0.72-0.18,1.45-0.18,2.28c-0.07,3.24-0.09,6.65-0.09,10.13   c0.01,3.48,0.03,7.03,0.04,10.56c0,3.52,0.16,7.04-0.17,10.48c-0.16,1.94-0.46,3.84-0.92,5.7c-0.51,1.84-1.21,3.63-2.23,5.24   c-1,1.63-2.4,2.98-3.94,4.02c-1.55,1.04-3.24,1.79-4.93,2.26c-0.61,0.21-1.63,0.38-2.79,0.58l-0.99,0.17l-0.38-0.98   c-0.06-0.16-0.13-0.33-0.19-0.5l-0.48-1.23l1.25-0.44c0.96-0.34,1.96-0.76,2.75-1.18c1.55-0.87,2.85-2.05,3.87-3.44   c1.02-1.4,1.73-3.02,2.21-4.72c0.28-0.9,0.46-1.83,0.65-2.76c0.12-0.95,0.3-1.88,0.35-2.85c0.04-0.48,0.09-0.95,0.11-1.44   l0.04-1.46c0.04-0.95,0.02-1.99,0.03-3c0.02-4.05,0.05-8.16,0.03-12.48c-0.01-1.72,0.27-4.08,0.36,0.16   c0.1,3.51,0.14,7.07,0.14,10.63c-0.09-0.42-0.04-2.11-0.1-2.9c-0.06,2.62-0.06,4.81-0.08,7.36c0.02-1.69,0-3.42,0-5.14   c-0.01,2.13,0.04,4.44-0.04,6.66c-0.11,2.24-0.37,4.52-0.95,6.68c-0.12,0.39-0.24,0.77-0.38,1.14c-0.16,0.36-0.33,0.72-0.51,1.1   c-0.37,0.75-0.79,1.55-1.32,2.54c0.82-1.15,1.42-2.47,1.93-3.84c0.22-0.7,0.46-1.4,0.61-2.14c0.08-0.36,0.18-0.72,0.25-1.09   l0.18-1.12c0.47-2.99,0.4-6.1,0.42-9.26l0.01,0.03c0-2.81,0-5.34-0.01-8.05c0.01,0.84,0.03,1.69,0.01,2.44   c0.08-3.94,0.1-7.83,0.11-11.71c0.15,5.48,0.18,11.28,0.18,17.1c0,1.45-0.01,2.91-0.01,4.36l-0.06,2.14   c-0.06,0.71-0.12,1.41-0.17,2.12c-0.29,2.81-0.98,5.53-2.18,7.92c0.79-1.28,1.34-2.99,1.71-4.67c0.08-0.42,0.18-0.84,0.26-1.25   c0.06-0.42,0.12-0.83,0.18-1.23c0.15-0.79,0.18-1.55,0.3-2.21c-0.17,2.5-0.58,5.01-1.45,7.35c-0.86,2.34-2.22,4.51-4.16,6.11   c0.26-0.26,0.54-0.5,0.78-0.77c-0.82,0.74-1.71,1.44-2.71,2.01c-0.99,0.57-2.05,1.05-3.14,1.44l-0.65,0.23l0.25,0.63l0.2,0.5   l0.2,0.51l0.5-0.1c0.77-0.15,1.54-0.25,2.29-0.43c-0.77,0.18-1.55,0.28-2.29,0.41l-0.5,0.09l-0.18-0.49   c-0.07-0.17-0.13-0.34-0.19-0.5l-0.24-0.62l0.62-0.22c1.87-0.65,3.61-1.49,5.05-2.71c-0.95,0.84-2.11,1.57-3.61,2.21   c0.84-0.28,1.98-0.86,3.02-1.59c1.35-0.98,2.49-2.23,3.36-3.63c-0.32,0.56-0.73,1.05-1.1,1.56c-0.43,0.46-0.82,0.95-1.3,1.36   c-0.91,0.84-1.91,1.55-2.95,2.09c1.58-0.77,3.04-1.83,4.22-3.17c1.19-1.34,2.07-2.92,2.71-4.58c-0.68,1.83-1.66,3.55-2.99,4.98   c-1.3,1.41-2.94,2.45-4.73,3.23c0.1-0.01,0.19-0.03,0.29-0.05c1.67-0.78,3.21-1.81,4.44-3.18c1.53-1.6,2.63-3.57,3.34-5.66   c0.73-2.09,1.1-4.28,1.29-6.48c-0.25,2.11-0.64,4.3-1.38,6.42l0.13-0.45c0.11-0.4,0.25-0.8,0.34-1.21   c0.16-0.82,0.38-1.63,0.47-2.47l0.18-1.24l0.1-1.25c0.09-0.84,0.1-1.67,0.12-2.51c0.03-3.37,0.05-6.74,0.08-10.12   c0.07,0.8,0.12,1.79,0.19,2.59v-1.22c0-0.24,0-0.49-0.01-0.74c0-0.13,0-0.26,0-0.38l0,0.37V95.91c0-11.29,0-13.26-3.84-13.41   c0.01,0.03,0.03,0.06,0.04,0.1l0.08,0.2c0.03,0.07,0.06,0.11,0.08,0.26l0.13,0.73l0.26,0.01c0.02,0,0.02,0,0.02,0.01l0.07,0.03   l0.14,0.05l0.28,0.1l0.55,0.2l0.56,0.21l0.14,0.05c0.04,0.02,0.02,0.03,0.03,0.04l0.02,0.07c0.06,0.2,0.15,0.37,0.19,0.6   c0.11,0.42,0.17,0.88,0.22,1.34c0.09,0.93,0.13,1.89,0.14,2.85c0.03,1.93-0.01,3.86-0.03,5.78c-0.21-2.43,0.08-3.93,0.02-5.63   c-0.03-0.99-0.1-1.98-0.2-2.94c-0.07-0.46-0.14-0.94-0.25-1.36c-0.04-0.23-0.13-0.39-0.19-0.59l-0.03-0.07   c0-0.01-0.01-0.02-0.01-0.03l-0.16-0.05l-1.29-0.43l-0.32-0.11l-0.16-0.06l-0.08-0.02c-0.01,0-0.01-0.01-0.03-0.01l-0.1-0.01   l-0.21-0.01l-0.13-0.92c-0.04-0.16-0.09-0.28-0.14-0.41c-0.06,0-0.1,0-0.16,0v-0.21c-0.04-0.03-0.08-0.06-0.12-0.09l0.03-0.01   c0.03,0,0.06,0.01,0.09,0.01v-0.21h12.79v0.5c-0.65,0-1.24,0.09-1.76,0.27c0.39-0.1,0.68-0.09,0.8-0.07   c0.17,0.06-0.12,0.11-0.64,0.28c-0.52,0.18-1.29,0.54-1.85,1.32c-0.57,0.76-0.89,1.85-1,2.91c-0.1,1.07-0.07,2.14-0.08,3   c0.03-0.45,0.03-0.45,0.06-0.91c-0.03,0.45-0.06,0.91-0.03,1.31c0.06-0.91,0.11-2.69,0.24-3.15c0,0.26,0.03,0.52,0.04,0.78   c0.1-1.03,0.29-2.53,1.06-3.6c0.39-0.52,0.9-0.88,1.46-1.07c0.57-0.19,1.17-0.21,1.69-0.17l0.84,0.07l0.08-0.99   C181.23,82.3,181.24,82.14,181.26,81.99"
   id="path12" />
	<path
   class="st0"
   d="M227.71,104.37c-0.02-0.63-0.04-1.24-0.06-1.85C227.67,103.16,227.7,103.8,227.71,104.37 M226.74,95.21   c-0.21-0.68-0.44-1.35-0.68-2.03C226.31,93.86,226.55,94.54,226.74,95.21 M225.05,90.86c-0.04-0.07-0.07-0.14-0.1-0.2   c-0.05-0.1-0.1-0.2-0.16-0.31C224.88,90.52,224.96,90.69,225.05,90.86 M222.28,105.98c0.01-0.56,0.02-1.12,0.05-1.61   C222.32,104.92,222.3,105.45,222.28,105.98 M221.41,112.24c-0.04,0.34-0.14,0.67-0.23,1C221.26,112.92,221.35,112.58,221.41,112.24    M221.14,113.48c0.31-0.97,0.44-2,0.68-3.1c-0.06,0.68-0.34,2.12-0.35,2.47c-0.58,2.63-1.61,5.19-3.22,7.25   c-0.62,0.79-1.32,1.5-2.09,2.12c1.46-1.25,2.61-2.87,3.45-4.6c0.46-0.85,0.76-1.78,1.09-2.67c0.15-0.45,0.25-0.91,0.38-1.37   c0.03-0.12,0.06-0.23,0.09-0.35c-0.1,0.38-0.2,0.75-0.29,1.13c-0.17,0.71-0.47,1.37-0.71,2.06c0.19-0.51,0.37-1,0.55-1.48   C220.89,114.47,221,113.97,221.14,113.48 M216,122.35c0.05-0.05,0.11-0.08,0.16-0.13c-0.01,0.01-0.02,0.02-0.03,0.03   C216.09,122.29,216.05,122.32,216,122.35 M221.23,86.76c-1.83-2.07-4.4-3.66-7.23-4.54C216.8,83.06,219.42,84.68,221.23,86.76    M213.7,81.37c0.31,0.06,0.6,0.11,0.88,0.18c0.27,0.09,0.53,0.19,0.77,0.28c0.49,0.19,0.94,0.38,1.36,0.58   c0.39,0.24,0.77,0.48,1.15,0.7c0.37,0.22,0.74,0.44,1.09,0.71c0.49,0.36,1.01,0.68,1.47,1.08l1.35,1.22   c0.4,0.46,0.79,0.92,1.18,1.37c0.38,0.46,0.69,0.98,1.03,1.46c0.35,0.56,0.66,1.13,0.96,1.7c0.06,0.13,0.13,0.25,0.19,0.38   c-0.03-0.06-0.05-0.12-0.08-0.18c0.03,0.06,0.06,0.12,0.08,0.18c0.02,0.05,0.04,0.1,0.07,0.14c0.12,0.25,0.25,0.5,0.36,0.76   c-0.08-0.18-0.17-0.35-0.25-0.53c0.9,1.94,1.46,3.81,1.86,6c-0.24-0.76-0.56-2.45-0.82-2.81c-0.92-3.02-2.4-5.95-4.57-8.33   C219.59,83.91,216.71,82.25,213.7,81.37 M218.82,120.56c-1.52,1.93-3.64,3.52-6.09,4.43C215.13,124.08,217.28,122.48,218.82,120.56    M214.34,123.35c0.62-0.27,1.13-0.62,1.66-1c-1.19,0.93-2.52,1.66-3.96,2.07c0.47-0.18,0.86-0.41,1.25-0.57   C213.68,123.7,214.02,123.52,214.34,123.35 M209.02,82.91c0.18,0.05,0.42,0.06,0.68,0.13c-0.56-0.07-1.12-0.08-1.67-0.12   C208.35,82.92,208.68,82.92,209.02,82.91 M209.28,127.47c-0.58,0.08-1.15,0.08-1.73,0.09c0.34-0.02,0.68-0.06,1.02-0.09   C208.76,127.49,209,127.48,209.28,127.47 M204.4,80.57c-0.77,0.13-1.54,0.25-2.24,0.35C202.9,80.77,203.64,80.66,204.4,80.57    M202.16,80.92c-0.01,0-0.03,0.01-0.04,0.01c-0.06,0.01-0.12,0.02-0.18,0.02C202.01,80.94,202.08,80.93,202.16,80.92    M199.76,124.48c0.09,0.04,0.18,0.07,0.28,0.1c-0.11-0.04-0.21-0.08-0.31-0.12C199.74,124.47,199.75,124.47,199.76,124.48    M199.56,82.6c0.17-0.06,0.34-0.12,0.52-0.17c0.17-0.08,0.35-0.16,0.52-0.23c-0.21,0.07-0.43,0.15-0.64,0.22   C199.82,82.48,199.69,82.54,199.56,82.6 M198.15,122.03l0.11,0.08c-0.06-0.05-0.12-0.09-0.17-0.14   C198.11,121.99,198.12,122.01,198.15,122.03 M195.35,83.36c0.56-0.36,1.16-0.65,1.73-0.98C196.49,82.67,195.91,82.99,195.35,83.36    M195.99,119.77c0.31,0.34,0.59,0.72,0.9,1.07c-1.8-1.99-3.08-4.7-3.81-7.53c-0.22-0.69-0.25-1.39-0.34-2.15   c-0.04-0.38-0.11-0.77-0.17-1.2c-0.04-0.43-0.11-0.9-0.21-1.41c0.07,0.65,0.07,1.32,0.19,1.96c0.1,0.65,0.21,1.3,0.31,1.95   c0.15,0.63,0.31,1.27,0.47,1.91c0.16,0.64,0.42,1.24,0.62,1.87c0.1,0.31,0.24,0.61,0.38,0.9l0.42,0.88c0.28,0.59,0.68,1.11,1,1.67   c0.4,0.51,0.79,1.03,1.23,1.49c0.48,0.43,0.91,0.92,1.45,1.27l-0.03-0.01c0.05,0.04,0.1,0.07,0.16,0.11   c-0.04-0.04-0.09-0.06-0.13-0.1c0.17,0.06,0.49,0.34,0.9,0.57c0.41,0.22,0.84,0.48,1.15,0.59   C198.6,122.63,197.26,121.44,195.99,119.77 M223.06,104.37c0-0.71-0.02-1.39-0.05-2.06c-0.02,0.38-0.06,0.65-0.12,0.75   c-0.07,0.15-0.11-0.12-0.14-0.63c-0.03-0.51-0.04-1.28-0.14-2.16c-0.07-0.88-0.13-1.88-0.3-2.82c-0.08-0.48-0.15-0.95-0.22-1.39   c-0.1-0.44-0.21-0.84-0.31-1.21c0.07,0.39,0.07,0.39,0.15,0.78c-0.07-0.39-0.15-0.78-0.26-1.12c0.08,0.4,0.19,0.96,0.29,1.5   c0.06,0.54,0.11,1.03,0.1,1.26l-0.19-0.68c0.27,2,0.42,5.78,0.23,7.78c0.1-2.44,0.15-5.16-0.38-7.95c-0.51-2.78-1.45-5.68-3.2-8.15   c-0.89-1.21-1.95-2.32-3.18-3.22c-1.25-0.87-2.64-1.53-4.1-1.95c-2.7-0.7-5.6-0.69-8.18,0.04c0.27-0.03,0.55-0.05,0.82-0.08   c-0.34,0.05-0.67,0.09-1,0.14c-0.16,0.05-0.33,0.09-0.49,0.14c-0.77,0.24-1.49,0.62-2.19,0.97c-0.67,0.43-1.34,0.84-1.91,1.37   l-0.44,0.37c-0.14,0.13-0.27,0.28-0.4,0.42c-0.26,0.28-0.53,0.55-0.77,0.84c-0.44,0.63-0.94,1.19-1.28,1.87   c-1.52,2.59-2.25,5.48-2.59,8.29c-0.04,0.27-0.1,0.62-0.16,1.04c-0.06,0.42-0.09,0.9-0.15,1.4c-0.05,0.51-0.1,1.03-0.15,1.55   c-0.02,0.52-0.04,1.03-0.06,1.5c-0.03,3.29,0.19,6.63,1.01,9.7c0.45,1.62,0.93,3.22,1.69,4.66c0.33,0.75,0.8,1.39,1.22,2.08   c0.5,0.61,0.96,1.27,1.56,1.79c1.14,1.1,2.5,1.99,4.03,2.57c1.54,0.57,3.24,0.86,5,0.88c0.7,0.01,1.53,0.03,1.76,0.09   c0.23,0.05-0.14,0.23-1.91,0.26c-1.46,0.03-2.93-0.17-4.32-0.58c-0.65-0.16-1.26-0.44-1.87-0.71c1.26,0.62,2.59,1.03,4.02,1.25   c-0.35-0.04-0.69-0.13-1.02-0.18c-0.05-0.01-0.09-0.02-0.13-0.03c1.3,0.33,2.66,0.49,4.02,0.49c1.65,0,3.28-0.24,4.8-0.76   c-2.13,0.79-4.57,1.08-6.99,0.82c-1.21-0.08-2.39-0.4-3.55-0.77c-1.12-0.45-2.24-0.97-3.2-1.73c-1.97-1.44-3.47-3.47-4.46-5.71   c-1.01-2.24-1.56-4.65-1.95-7.02c0.07,0.67,0.19,1.39,0.32,2.14c0.12,0.75,0.38,1.48,0.56,2.22c0.19,0.74,0.52,1.41,0.74,2.09   c0.24,0.66,0.56,1.24,0.76,1.79c-2.07-3.87-2.69-8.41-2.76-12.94c0.02,0.33,0.05,0.66,0.07,1c-0.05-2.82,0.05-5.84,0.49-8.61   c-0.14,0.63-0.21,1.27-0.28,1.91c-0.06,0.64-0.16,1.27-0.19,1.91c-0.03,0.64-0.05,1.27-0.08,1.91l-0.03,0.95l0.02,0.94   c-0.1-1.15,0-2.38,0.04-3.84c-0.08,0.79-0.16,1.93-0.19,3.08c0.04,1.51,0.05,3.02,0.23,4.5c-0.06-0.58-0.12-1.14-0.18-1.71   c-0.02-0.57-0.05-1.13-0.08-1.69c-0.08-1.12-0.06-2.21-0.06-3.26c-0.2,3.13-0.05,6.39,0.51,9.49c-0.15-0.86-0.34-1.7-0.4-2.57   c-0.05-0.57-0.13-1.14-0.18-1.71c0.21,3.62,0.85,7.25,2.47,10.47c-0.2-0.48-0.46-0.94-0.62-1.46c-0.18-0.51-0.35-1.02-0.52-1.53   c-0.15-0.52-0.27-1.06-0.41-1.59l-0.2-0.8l-0.14-0.82c0.58,2.89,1.57,5.74,3.25,8.15c0.87,1.17,1.85,2.28,3.05,3.13   c0.56,0.47,1.23,0.79,1.85,1.18c0.41,0.17,0.82,0.37,1.24,0.54c0.19,0.04,0.37,0.09,0.56,0.14c0.24,0.07,0.46,0.18,0.69,0.22   c0.39,0.02,0.78,0.07,0.98,0.08c0.01,0,0.02,0,0.03,0.01c-0.29-0.06-0.57-0.14-0.85-0.22c0.65,0.17,1.33,0.3,2.01,0.39   c0.51,0.06,1.01,0.1,1.49,0.13c0.32,0.01,0.65,0.02,0.97,0.02c0.18-0.02,0.39-0.06,0.62-0.07c0.41-0.02,0.81-0.03,1.2-0.05   c0.4-0.01,0.78-0.03,1.16-0.1c0.89-0.13,1.8-0.19,2.67-0.44c0.33-0.08,0.66-0.16,0.98-0.25   C218.89,122.42,223.06,116.59,223.06,104.37 M191.22,106.76c-0.02-0.73-0.03-1.45-0.04-2.19c0-0.73,0.05-1.46,0.08-2.19l0.04-1.1   l0.12-1.1c0.1-0.73,0.12-1.47,0.27-2.19l-0.05,0.33l0.12-0.66c0.1-0.57,0.2-1.14,0.31-1.71c0.15-0.56,0.3-1.12,0.45-1.69   c0.11-0.51,0.29-1,0.46-1.48c0.17-0.48,0.28-0.99,0.5-1.45l0.22-0.46c-0.12,0.31-0.16,0.46,0.13-0.1l0.46-0.91   c0.18-0.29,0.36-0.58,0.55-0.88c0.34-0.61,0.78-1.16,1.23-1.73c0.21-0.3,0.47-0.55,0.73-0.81c0.26-0.26,0.51-0.53,0.79-0.77   c0.59-0.45,1.16-0.95,1.85-1.29c0.34-0.2,0.74-0.44,1.22-0.65c0.23-0.11,0.47-0.23,0.72-0.35c0.26-0.11,0.53-0.2,0.8-0.3   c0.31-0.08,0.46-0.15,0.59-0.22c0.24-0.07,0.49-0.13,0.74-0.19c0.6-0.17,1.22-0.24,1.82-0.34c-0.6,0.08-1.22,0.16-1.82,0.34   l-0.68,0.17c0.15-0.06,0.3-0.13,0.64-0.2c-2.09,0.47-4.12,1.44-5.81,2.88c-1.7,1.43-3.02,3.31-3.96,5.35   c0.1-0.26,0.24-0.6,0.3-0.76c-0.17,0.41-0.35,0.82-0.52,1.23c-0.31,0.66-0.51,1.36-0.77,2.04c-0.24,0.69-0.38,1.41-0.56,2.11   c0.09-0.42,0.17-0.82,0.23-1.17C191.23,98.32,191.01,102.57,191.22,106.76 M204.67,126.83c-0.69-0.06-1.39-0.17-2.11-0.25   c-0.26-0.04-0.53-0.06-0.78-0.13c0.21,0.02,0.42,0.04,0.76,0.08c-2.4-0.44-4.81-1.25-6.94-2.61c-2.13-1.35-3.93-3.24-5.25-5.43   c0.15,0.27,0.45,0.59,0.56,0.73c-0.15-0.2-0.31-0.39-0.45-0.6l-0.39-0.64c-0.19-0.36-0.41-0.72-0.59-1.08l-0.49-1.13   c-0.36-0.74-0.56-1.55-0.84-2.32c0.17,0.46,0.33,0.89,0.48,1.26c-0.79-2.21-1.2-4.53-1.43-6.86c-0.22-2.33-0.24-4.69-0.02-7.04   c-0.31,3.24-0.27,6.56,0.29,9.86l-0.07-0.38l0.12,0.75c0.14,0.63,0.29,1.27,0.44,1.91c0.16,0.64,0.39,1.26,0.58,1.89   c0.43,1.11,0.9,2.18,1.53,3.15l0.28,0.51c-0.2-0.31-0.31-0.46,0.02,0.18c1.53,2.67,4.15,4.94,7.29,6.51   c0.42,0.2,0.93,0.38,1.49,0.59c0.55,0.23,1.19,0.36,1.84,0.51c0.35,0.11,0.54,0.14,0.71,0.16c0.28,0.08,0.57,0.11,0.86,0.14   C203.26,126.67,203.97,126.8,204.67,126.83 M186.45,98.54c0.53-3.06,1.51-6.14,3.15-8.93c1.61-2.8,4.07-5.16,6.94-6.71l-0.02,0.02   c0.3-0.17,0.61-0.32,0.92-0.47c-0.3,0.14-0.6,0.28-0.9,0.44c0.17-0.13,0.63-0.44,1.18-0.67c0.55-0.22,1.15-0.46,1.52-0.64   c-2.48,0.78-4.42,1.96-6.29,3.67c-0.49,0.46-0.96,0.93-1.4,1.44c-1.58,1.83-2.81,4-3.61,6.28c-0.29,0.83-0.6,1.6-0.9,2.47   C186.81,96.32,186.51,97.29,186.45,98.54 M227.94,104.37c-0.19,2.83-0.55,5.94-1.52,9.08c-0.99,3.12-2.59,6.34-5.21,8.8l-1.01,0.89   c-0.33,0.31-0.73,0.52-1.09,0.79c-0.72,0.55-1.54,0.92-2.35,1.35c-0.39,0.23-0.84,0.34-1.25,0.52c-0.42,0.15-0.84,0.34-1.28,0.46   l-1.31,0.33c-0.44,0.12-0.87,0.23-1.32,0.28c-3.19,0.52-6.42,0.53-9.5-0.03c0.02,0.01,0.04,0.01,0.06,0.02   c0.38,0.14,0.76,0.21,1.15,0.31c-0.39-0.09-0.78-0.15-1.16-0.27l-0.4-0.13c-0.22-0.04-0.45-0.08-0.68-0.14   c-0.47-0.11-0.94-0.21-1.41-0.34c-0.46-0.16-0.91-0.32-1.36-0.48l-0.68-0.24l-0.64-0.31c-0.43-0.21-0.86-0.42-1.28-0.63   c-0.78-0.54-1.63-0.98-2.32-1.61c-0.36-0.31-0.73-0.58-1.06-0.92l-0.96-1.01c-0.33-0.32-0.59-0.71-0.87-1.07   c-0.26-0.37-0.57-0.72-0.8-1.11c-0.46-0.78-0.96-1.53-1.3-2.35c-0.19-0.4-0.39-0.8-0.56-1.21c-0.15-0.41-0.3-0.82-0.46-1.24   c-0.33-0.81-0.5-1.65-0.75-2.48c-0.15-0.63-0.33-1.71-0.48-2.91c-0.05-0.6-0.1-1.23-0.16-1.85c-0.03-0.61-0.03-1.22-0.04-1.77   c-0.14-3.88,0.29-7.8,1.43-11.58c1.27-3.98,3.73-7.75,7.37-10.16c1.8-1.2,3.81-2.12,5.94-2.62c1.05-0.32,2.14-0.43,3.23-0.6   c0.54-0.1,1.09-0.08,1.64-0.12c0.55-0.02,1.11-0.06,1.66-0.07c1.79,0.08,4.17,0.47-0.17,0.35c-3.22,0.08-6.55,0.68-9.57,2.11   c1.52-0.71,3.05-1.18,4.63-1.5c0.44-0.06,0.88-0.11,1.31-0.17c0.5-0.06,0.99-0.15,1.49-0.14l1.49-0.06c0.25,0,0.5-0.02,0.74-0.02   l0.74,0.04c0.99,0.06,1.97,0.08,2.95,0.27c0.49,0.08,0.98,0.15,1.46,0.24l1.44,0.38c-2.72-0.7-5.59-0.9-8.46-0.66   c-2.86,0.22-5.79,0.88-8.42,2.27c-2.63,1.38-4.87,3.48-6.45,5.94c-1.59,2.46-2.57,5.21-3.12,7.94c0.22-0.75,0.39-1.58,0.69-2.41   c0.14-0.42,0.27-0.84,0.41-1.26c0.17-0.42,0.34-0.83,0.5-1.24l0.25-0.61c0.1-0.2,0.21-0.39,0.31-0.58c0.2-0.38,0.41-0.76,0.6-1.13   c0.45-0.7,0.91-1.33,1.34-1.86c-1.56,2.05-2.67,4.41-3.42,6.86c-0.75,2.46-1.16,5.02-1.32,7.62c-0.01-0.39,0.03-0.76,0.05-1.14   c-0.36,3.22-0.16,6.69,0.42,9.88c0.04,0.29,0.12,0.56,0.18,0.85c-0.06-0.28-0.14-0.56-0.18-0.85c-0.53-2.94-0.63-5.87-0.46-8.74   c-0.01,0.66-0.02,1.34-0.03,2.06c0.02,0.72,0.04,1.49,0.06,2.33c0.05-0.91-0.02-2.21,0.08-3.51c0.02-0.43,0.02-0.86,0.04-1.28   l0.12-1.27c0.05-0.85,0.22-1.69,0.34-2.53c-0.45,2.59-0.52,5.18-0.36,7.53c-0.03-3.53,0.24-7.2,1.29-10.61   c-0.44,1.61-0.76,3.24-0.93,4.89c0.1-0.81,0.26-1.61,0.39-2.42c0.26-1.07,0.49-2.14,0.86-3.17c0.71-2.07,1.61-4.08,2.94-5.82   c-1.46,1.84-2.55,4.11-3.26,6.51c0.93-3.19,2.46-6.29,4.86-8.67c2.28-2.27,5.23-3.79,8.34-4.5c0.26-0.1,0.52-0.19,0.78-0.27   c0.24-0.07,0.49-0.09,0.72-0.12c0.24-0.08,0.49-0.15,0.69-0.2c-0.79,0.1-1.59,0.24-2.39,0.42c0.84-0.2,1.69-0.36,2.57-0.47   c0.02-0.01,0.06-0.02,0.08-0.03c0.61-0.09,1.18-0.13,1.72-0.19c0.45,0,0.88,0,1.31,0.01c0.11,0,0.22-0.01,0.33-0.01   c0.2-0.01,0.52-0.06,0.89-0.04c0.4,0.01,0.8,0.06,1.19,0.12c0.38,0.06,0.76,0.08,1.13,0.17c0.2,0.03,0.41,0.06,0.62,0.09   c-0.15-0.02-0.29-0.04-0.44-0.05c0.39,0.1,0.77,0.18,1.16,0.29c0.43,0.15,0.86,0.31,1.3,0.46c0.11,0.04,0.21,0.1,0.31,0.15   c9.72,2.67,13.62,11.75,13.62,22.16c0,0.73-0.02,1.44-0.06,2.15c0.05-0.34,0.1-0.58,0.14-0.68c0.08-0.15,0.11,0.14,0.11,0.72   c-0.02,0.58-0.11,1.44-0.22,2.43c-0.28,1.97-0.91,4.39-1.49,5.99c0.17-0.42,0.17-0.42,0.33-0.84c-0.17,0.42-0.31,0.84-0.44,1.22   c0.37-0.81,0.96-2.47,1.13-2.94l-0.12,0.8c0.18-0.55,0.39-1.22,0.6-1.97c0.16-0.75,0.33-1.57,0.47-2.39   c0.1-0.82,0.23-1.65,0.3-2.42C227.8,105.66,227.87,104.95,227.94,104.37"
   id="path14" />
	<path
   class="st0"
   d="M273.28,81.26c1.08,0,2.18,0,3.3,0C275.56,81.26,274.44,81.26,273.28,81.26 M270.5,100.03   c0.01,1.71,0.01,3.46,0.02,5.19c-0.02-0.39-0.04-0.7-0.03-0.89C270.49,102.85,270.49,101.41,270.5,100.03 M267.48,85.98   c0.03,0.12,0.06,0.24,0.09,0.35c-0.02-0.09-0.03-0.18-0.06-0.27C267.5,86.03,267.49,86,267.48,85.98 M266.88,84.71   c0.02,0.02,0.02,0.03,0.04,0.05l0-0.01C266.9,84.74,266.89,84.72,266.88,84.71 M266.86,84.68c0.01,0.01,0.01,0.02,0.02,0.03   c-0.01-0.01-0.03-0.03-0.06-0.04L266.86,84.68z M262.41,82.24h0.02h-0.03C262.4,82.24,262.41,82.24,262.41,82.24 M261.66,82.41   l-0.08,0.02c-0.03,0,0-0.14,0-0.19c0.02-0.15-0.01-0.34,0.04-0.44c0.4-0.11,0.8-0.22,1.21-0.33c-0.22,0.08-0.53,0.17-0.87,0.26   c-0.09,0.03-0.18,0.05-0.26,0.07c-0.06-0.01-0.06,0.07-0.06,0.14l0,0.22C261.62,82.31,261.63,82.38,261.66,82.41 M267.12,118.66   c-0.26,0.6-0.63,1.14-1.02,1.68c-0.75,1-1.74,1.79-2.82,2.42c-0.53,0.33-1.12,0.56-1.7,0.81c-0.61,0.18-1.2,0.4-1.83,0.5   c-1.7,0.35-3.49,0.41-5.24,0.23c2.03,0.19,4.15,0.05,6.13-0.5C263.45,123.07,265.83,121.15,267.12,118.66 M253.27,124.15   c0.41,0.07,0.83,0.12,1.25,0.16C254.09,124.27,253.68,124.21,253.27,124.15 M248.19,82.43l-0.06-0.01L248.19,82.43l0.06,0.01   L248.19,82.43z M248.06,82.45c-0.03,0.01-0.07,0-0.11-0.01v0.02l0.06,0C248.03,82.47,248.05,82.47,248.06,82.45 M247.95,82.39   L247.95,82.39c0.03,0.01,0.06,0.01,0.1,0.01C248.02,82.4,247.98,82.4,247.95,82.39 M247.88,82.46v-0.02   c-0.01-0.01-0.02-0.01-0.02-0.01v0.03H247.88z M247.85,82.38c0.01,0,0.02,0,0.03,0v-0.01C247.87,82.38,247.86,82.38,247.85,82.38   L247.85,82.38z M247.87,82.5h-0.02c0,0,0,0.02-0.01,0.02h0.02C247.87,82.52,247.87,82.5,247.87,82.5 M249.09,122.05   c-0.52-0.32-1-0.69-1.44-1.1c0.22,0.21,0.44,0.4,0.68,0.59C248.57,121.72,248.83,121.89,249.09,122.05 M245.14,116.43   c-0.01-0.03-0.02-0.06-0.03-0.09C245.12,116.37,245.13,116.4,245.14,116.43 M244.82,115.14c0.02,0.1,0.05,0.2,0.08,0.31   c0.01,0.06,0.02,0.13,0.03,0.19C244.9,115.47,244.85,115.31,244.82,115.14 M244.73,114.59c0.01,0.06,0.02,0.11,0.03,0.17   c0.01,0.08,0.02,0.15,0.03,0.23C244.77,114.86,244.75,114.73,244.73,114.59 M244.76,114.77c-0.05-0.32-0.1-0.65-0.14-0.98   c0.01,0.07,0.01,0.13,0.02,0.2c-0.03-0.22-0.05-0.44-0.06-0.66c0.01,0.12,0.02,0.23,0.03,0.35c-0.04-0.45-0.06-0.9-0.08-1.36   c-0.01-0.99,0-2.03-0.01-3.05c-0.01-4.11-0.03-8.32-0.04-12.5c0-1.53,0.06-2.97,0.11-4.56c0.02-0.79,0.04-1.63,0.03-2.54   c0.01-0.91-0.04-1.9-0.03-2.89c-0.08,1.24-0.06,2.66-0.08,4.02c-0.01,1.37-0.02,2.74-0.04,4.13c-0.02,2.76-0.05,5.53-0.07,8.32   c-0.01,2.78-0.03,5.58-0.05,8.37c-0.06,2.7,0.42,5.35,1.77,7.52c-0.01-0.01-0.02-0.03-0.03-0.04c0.17,0.26,0.35,0.51,0.54,0.75   c-0.17-0.23-0.35-0.46-0.5-0.71c0.22,0.25,0.71,0.95,1.36,1.6c0.67,0.62,1.48,1.21,2.07,1.47c-0.92-0.52-1.71-1.15-2.34-1.89   c-0.35-0.34-0.6-0.76-0.88-1.14c-0.24-0.42-0.49-0.82-0.68-1.26c-0.06-0.15-0.11-0.31-0.17-0.47c0.35,0.89,0.82,1.72,1.43,2.46   c-0.79-0.99-1.38-2.16-1.77-3.45c0.05,0.17,0.11,0.35,0.17,0.52c-0.06-0.18-0.12-0.36-0.18-0.55c-0.1-0.32-0.17-0.65-0.24-0.98   C244.85,115.22,244.8,114.99,244.76,114.77 M243.98,85.59c-0.09,0.67-0.15,1.36-0.16,2.05c0-0.71,0.06-1.41,0.15-2.1   c0.02-0.12,0.06-0.24,0.08-0.36C244.03,85.32,244,85.46,243.98,85.59 M247.95,82.36l0.12,0.02l-0.02-0.5   c-0.78-0.09-1.56-0.17-2.34-0.24c-1.04,0.01-2.07,0.02-3.07,0.03c1,0.01,2,0.02,3.01,0.03c0.77,0.07,1.53,0.14,2.31,0.21   L247.95,82.36z M248.26,82.41c0-0.02,0-0.06,0-0.08c-0.01-0.17-0.02-0.34-0.02-0.51c-0.44-0.08-0.89-0.16-1.35-0.25   c-0.23-0.04-0.46-0.08-0.7-0.13c-0.08-0.03-0.32-0.02-0.5-0.02h-0.59c-1.36,0-2.81,0-4.36-0.01c0.86,0.03,1.65,0.05,3.23,0.07   c0.35,0,0.71,0.01,1.08,0.01l0.55,0.01c0.19,0,0.38,0,0.48,0.03c0.48,0.08,0.98,0.16,1.48,0.24l0.56,0.08l0.02,0.54l0.1,0.01   C248.24,82.41,248.25,82.41,248.26,82.41 M238.66,84.28l-0.21-0.22l-0.01-0.01c0,0,0.01,0.01,0.01,0.01L238.66,84.28z    M247.05,125.43c-1.12-0.59-2.23-1.31-3.18-2.22c-0.35-0.34-0.65-0.72-0.99-1.08c0.24,0.23,0.49,0.48,0.98,1   c-1.59-1.58-2.71-3.63-3.35-5.79c-0.66-2.17-0.81-4.47-0.8-6.73c0-4.53,0-9.1,0.01-13.69c0.02,0.56,0.05,1.32,0.06,1.66l-0.06-2.71   c-0.01-2.96,0-5.94-0.05-8.88c0.03,0.87,0.06,1.68,0.09,2.42c-0.01-0.9,0.01-1.81-0.03-2.7c-0.06-0.89-0.12-1.79-0.52-2.6   c-0.08-0.1-0.11-0.21-0.22-0.32l-0.41-0.31l-0.22-0.29c-0.08-0.08-0.16-0.15-0.25-0.22c-0.18-0.13-0.38-0.22-0.59-0.28   c-0.06-0.01-0.12-0.03-0.19-0.04c0.12,0.05,0.24,0.1,0.36,0.18c0.12,0.06,0.2,0.19,0.3,0.29c0.04,0.06,0.08,0.14,0.13,0.21   c0.06,0.07,0.03,0.14,0.2,0.22c0.62,0.29,0.79,0.6,0.9,0.86c0.19,0.51,0.29,1.08,0.34,1.66c0.12,1.15,0.07,2.33,0.08,3.52   c0.01,2.13,0.04,4.22,0.09,6.29c0,0.36,0,0.7,0,1.05c-0.03-0.67-0.06-0.99-0.07,0.3c-0.04,2.74-0.03,5.6-0.02,8.55   c0,1.48,0,2.99,0.01,4.51c-0.02,1.52,0.02,3.1,0.22,4.68c0.24,1.65,0.82,3.9,2.14,5.98c0.37,0.56,0.58,0.84,0.78,1.08   c0.35,0.4,0.7,0.8,1.08,1.18C244.82,124.11,245.92,124.85,247.05,125.43 M238.39,83.99l-0.04-0.04L238,83.83l-0.7-0.26   c-0.08-0.03-0.17-0.06-0.24-0.09c0.07,0.03,0.16,0.06,0.22,0.08l0.7,0.25l0.35,0.13C238.35,83.96,238.37,83.98,238.39,83.99    M236.94,83.32c-0.05-0.17-0.09-0.38-0.15-0.47c-0.06-0.12-0.11-0.22-0.18-0.28c0.07,0.06,0.13,0.16,0.18,0.28   C236.84,82.93,236.88,83.14,236.94,83.32l0.03,0.13L236.94,83.32z M236.64,81.9c1.57-0.11,3.94-0.05,5.6-0.07l2.98-0.01   c0.92,0.02,1.75,0.08,2.63,0.11l0,0.4l0.03,0.01l0-0.42l-1.64-0.1l-0.83-0.05h-1c-1.25-0.01-2.51-0.01-3.77-0.02   c-1.34,0-2.84-0.04-3.84,0.07c-0.29,0.06-0.72,0-0.96,0.11l0.14,0L236.64,81.9z M235.8,82.45v-0.11c-0.04,0.01-0.08,0.01-0.12,0.02   c0.01,0.05,0.01,0.09,0.03,0.14h0.09V82.45z M235.82,81.95c-0.12,0.07-0.17,0.19-0.13,0.4c0.04,0,0.08-0.01,0.12-0.02V82.1   C235.81,82.05,235.79,81.98,235.82,81.95 M235.93,81.66l0.77-0.17l0.39-0.08c0.13-0.03,0.23-0.06,0.49-0.05   c0.88,0,1.75,0.01,2.62,0.01c1.48,0.01,2.96,0.02,4.43,0.02l1.27,0c0.25-0.01,0.34,0.02,0.47,0.05l0.37,0.08l1.5,0.31   c0,0.17,0.01,0.34,0.01,0.51v0.08c0.03,0.01,0.05,0.01,0.07,0.01l-0.01-0.21l-0.01-0.42c-0.49-0.11-0.98-0.23-1.47-0.35l-0.37-0.09   l-0.19-0.04c-0.07-0.01-0.21,0-0.32-0.01h-1.34c-1.52,0-3.05,0-4.57,0c-0.9,0-1.78,0-2.67,0.01c-0.13-0.01-0.16,0.02-0.23,0.03   l-0.19,0.04l-0.38,0.09l-0.76,0.18l-0.38,0.09l-0.1,0.02c-0.03,0.01-0.07,0.01-0.06,0.07l-0.03,0.58c0,0.01,0.02,0,0.02,0   c-0.01,0-0.01,0-0.01-0.01l0.02-0.39c0.02-0.07-0.02-0.2,0.04-0.23l0.19-0.05L235.93,81.66z M277.54,81.98   c-0.01,0.18-0.01,0.37-0.02,0.56l-0.03,0.96l-0.91-0.02c-1.22-0.03-2.49-0.04-3.59,0.22c-1.14,0.23-1.8,0.93-2.17,2.12   c-0.35,1.18-0.44,2.56-0.52,3.95c-0.07,1.39-0.08,2.82-0.1,4.26c-0.04,5.81-0.07,11.91-0.11,18.14c0,1.59-0.24,3.2-0.66,4.76   c-0.42,1.57-1.11,3.08-2.07,4.41c-0.54,0.76-1.17,1.44-1.85,2.07l0.16-0.13c0.29-0.22,0.52-0.5,0.79-0.75   c0.33-0.23,0.67-0.62,1.07-1.07c-0.64,0.82-1.41,1.52-2.23,2.13c-0.47,0.41-0.96,0.8-1.49,1.14c-1.4,0.87-2.94,1.48-4.52,1.89   c-0.8,0.17-1.59,0.36-2.4,0.43c-0.8,0.12-1.61,0.14-2.41,0.17c-1.61,0.03-3.24-0.1-4.81-0.49c-3.13-0.8-6.03-2.71-7.75-5.4   c-1-1.5-1.66-3.16-2.09-4.84c-0.45-1.69-0.56-3.41-0.62-5.1c-0.05-3.29-0.1-6.53-0.15-9.72c-0.06-3.18-0.12-6.31-0.18-9.39   c-0.03-1.53-0.07-3.05-0.1-4.56c-0.02-0.72-0.08-1.43-0.19-2.07c-0.06-0.32-0.13-0.62-0.23-0.86l-0.04-0.09   c-0.02-0.04,0.02-0.04-0.09-0.12l-0.46-0.37c0.03-0.11-0.77-0.29-1.32-0.45l-0.88-0.24l-0.22-0.06c-0.07-0.02-0.18-0.04-0.14-0.06   l-0.02-0.14c-0.02-0.27-0.04-0.61-0.07-0.76c-0.02-0.24-0.07-0.3-0.12-0.42c-0.15-0.15-0.15-0.1-0.17-0.01   c-0.03,0.04-0.07,0.09-0.1,0.15c-0.02,0.01-0.04,0.07-0.05,0.05c0.01-0.15,0.03-0.3,0.04-0.45c0.01-0.07,0.01-0.16,0.02-0.22   l0.12-0.07l0.25-0.14c0.17-0.1,0.34-0.19,0.52-0.29c0.12-0.57,2.89-0.34,4.74-0.38c1.47,0.01,2.91,0.01,4.21,0.02l1.85-0.01h0.47   h0.23c0.08,0,0.17-0.01,0.18,0.01l0.32,0.18l1.29,0.71l0.05,0.63c0.01,0.08,0,0.05,0,0.05l-0.05-0.08l-0.07-0.13   c0-0.04,0-0.1,0.02-0.13l0.04-0.1c0,0,0.01-0.01,0-0.01l-0.08,0.09c-0.02,0.01-0.06,0.08-0.1,0.16c-0.04,0.08-0.1,0.12-0.11,0.24   c-0.01,0.27-0.03,0.46-0.03,0.95l-0.01,0.32l0,0.16v0.04c0,0.02-0.07,0.02-0.1,0.02l-0.24,0.04l-1.95,0.33l-0.97,0.16   c-0.07,0.07-0.08,0.12-0.14,0.23l-0.08,0.18c-0.08,0.22-0.14,0.48-0.19,0.77c-0.1,0.56-0.14,1.19-0.15,1.83   c0,2.65,0.06,5.44,0.1,8.13c0.02,3.6,0.04,7.17,0.05,10.74v5.36c0,1.73,0.14,3.33,0.61,4.86c0.47,1.52,1.26,2.91,2.36,4   c1.12,1.07,2.55,1.84,4.13,2.3c1.58,0.46,3.32,0.62,5.05,0.54c1.73-0.08,3.44-0.41,4.95-1.13c0.6-0.29,1.23-0.64,1.72-1   c0.51-0.34,0.86-0.7,1.05-0.8c0.16-0.14,0.17-0.03-0.21,0.36c-0.18,0.2-0.45,0.49-0.88,0.81c-0.2,0.18-0.45,0.36-0.75,0.52   c-0.29,0.19-0.62,0.38-1.02,0.54c-2.56,1.19-5.71,1.38-8.63,0.94c-1.06-0.17-2.08-0.46-3.04-0.89c0.31,0.14,0.62,0.28,0.94,0.4   c1.54,0.51,3.19,0.76,4.88,0.77c-0.46,0-0.93-0.01-1.37-0.05c2.96,0.28,6.05-0.11,8.5-1.58c1.36-0.81,2.51-1.97,3.29-3.37   c0.79-1.39,1.26-2.97,1.5-4.6c-0.29,2.3-1.07,4.59-2.61,6.33c-0.77,0.86-1.69,1.61-2.73,2.15c-1.06,0.53-2.2,0.92-3.39,1.14   c-1.2,0.2-2.43,0.3-3.67,0.25c-1.24-0.02-2.47-0.2-3.65-0.51c-2.36-0.63-4.52-1.99-5.87-4.02c-0.67-1.01-1.17-2.13-1.49-3.32   c-0.29-1.2-0.5-2.43-0.5-3.68c-0.03-2.55-0.01-5.15-0.01-7.71c-0.01-5.12-0.03-10.19-0.04-15.14c-0.15,5.56,0.06,12.95-0.12,17.8   c0-4.54,0.01-9.08,0.02-13.65c0.01-2.27-0.02-4.61,0.04-6.86c0.03-0.56,0.08-1.11,0.18-1.64c0.04-0.27,0.12-0.51,0.19-0.76   c0.02-0.06,0.05-0.11,0.07-0.17c0.03-0.06,0.03-0.09,0.1-0.22c-0.04-0.09,0.32-0.16,0.56-0.24l0.78-0.22   c0.36-0.06,0.27-0.19,0.32-0.3l0.09-0.33c0.07-0.17,0.14-0.31,0.22-0.45c0.05-0.05,0.1-0.08,0.16-0.12   c-0.11,0.01-0.21,0.01-0.31,0.02c-0.28,0.2-0.45,0.48-0.6,1c-0.2,0.22-1.07,0.36-1.31,0.56c-0.06,0.12-0.09,0.2-0.12,0.26   c-0.03,0.07-0.06,0.14-0.08,0.22c-0.04,0.13-0.08,0.27-0.11,0.41c0.04-0.15,0.06-0.32,0.11-0.46c0.02-0.08,0.06-0.15,0.09-0.22   c0.03-0.06,0.05-0.19,0.16-0.28l0.74-0.26l0.37-0.13c0.09-0.05,0.06-0.12,0.1-0.17l0.12-0.35l0.14-0.25   c0.04-0.09,0.11-0.14,0.18-0.19c0.05-0.04,0.1-0.09,0.15-0.12c-0.09,0.01-0.18,0.02-0.27,0.04c-0.15,0.06-0.31,0.14-0.46,0.27   c-0.1,0.13-0.2,0.22-0.29,0.38c-0.12,0.16-0.06,0.34-0.43,0.47c-0.26,0.14-0.65,0.26-0.63,0.44c-0.05,0.13-0.12,0.25-0.15,0.39   c-0.19,0.54-0.25,1.12-0.32,1.7c-0.11,1.16-0.07,2.36-0.08,3.55c-0.01,1.19-0.01,2.37-0.01,3.55l-0.02-5.28   c0-0.88,0.02-1.75,0.16-2.6c0.08-0.42,0.16-0.85,0.32-1.23c0.06-0.09,0.04-0.21,0.18-0.31l0.49-0.3c0.1-0.05,0.12-0.1,0.15-0.16   l0.1-0.16c0.06-0.12,0.13-0.19,0.21-0.28c0.18-0.21,0.43-0.33,0.66-0.42h-0.01c-0.23,0.09-0.48,0.2-0.66,0.42   c-0.09,0.09-0.17,0.19-0.24,0.32l-0.11,0.18c-0.03,0.06-0.17,0.12-0.24,0.17l-0.28,0.17L244.17,84l-0.05,0.1l-0.15,0.34   c-0.15,0.46-0.26,0.93-0.31,1.42c-0.13,0.97-0.14,1.96-0.14,2.95c-0.01,1.99-0.02,3.96-0.03,5.94c-0.02,3.96-0.03,7.9-0.05,11.84   c0.08-4.24,0.12-8.68,0.14-13.2c0.01,6.01,0.02,12.02,0.03,18.03c-0.07,2.97,0.46,6.01,2.13,8.46c1.65,2.45,4.43,3.98,7.34,4.47   c-1.07-0.12-2.3-0.46-3.39-0.9c-0.42-0.2-0.82-0.39-1.18-0.6c0.03,0.02,0.06,0.05,0.1,0.07c0.02,0.02,0.05,0.03,0.07,0.04   c0.26,0.15,0.52,0.29,0.79,0.42c0.14,0.07,0.28,0.14,0.43,0.2c0.17,0.08,0.36,0.15,0.54,0.22c0.23,0.09,0.46,0.17,0.69,0.24   c-0.2-0.06-0.4-0.13-0.6-0.21c0.23,0.09,0.46,0.17,0.7,0.24c-0.03-0.01-0.07-0.02-0.1-0.03c0.16,0.05,0.32,0.1,0.48,0.14   c-0.04-0.01-0.09-0.02-0.13-0.03c0.05,0.02,0.1,0.02,0.15,0.04c-0.01,0-0.02,0-0.02-0.01c0.33,0.09,0.66,0.18,0.99,0.24   c-0.05-0.01-0.1-0.02-0.14-0.03c1.16,0.26,2.41,0.4,3.76,0.4c3.02,0,5.52-0.66,7.49-1.89c0.39-0.28,0.76-0.57,1.1-0.91   c0.95-0.93,1.76-2,2.35-3.21c0.57-1.21,1.01-2.49,1.24-3.83c0.13-0.67,0.2-1.35,0.25-2.03c0.02-0.69,0.06-1.36,0.06-2.08   c0.02-0.18,0.06-0.23,0.09-0.27c-0.04-0.89-0.01-2.13-0.04-2.92c0.01,0.15,0.02,0.25,0.04,0.22c-0.06-2.61,0.02-3.1,0.05-5.44   c0-0.53-0.03-1.02-0.04-1.54c0-0.26,0-0.52,0.01-0.78c0.15-2.65,0.09-5.29,0.11-8.25c0-0.19,0.01-0.38,0.01-0.56   c-0.19-6.97-1.14-8.54-5.41-8.74c0.04,0.03,0.08,0.08,0.12,0.15l0.12,0.18l0.09,0.14c0.01,0.01,0,0.02,0.02,0.02l0.08,0.04   l1.37,0.65l0.59,0.29l1.06,0.53c0.07,0.07,0.09,0.14,0.14,0.21c0.08,0.14,0.17,0.28,0.24,0.42l0.16,0.44   c0.4,1.18,0.51,2.57,0.6,3.94c0.14,2.75,0.09,5.54,0.08,8.33c-0.02,2.79-0.04,5.56-0.07,8.32c-0.01,1.38-0.02,2.76-0.03,4.13   c0,1.4-0.04,2.67-0.23,3.96c0.02-0.52,0.08-1,0.09-1.47c0.01-0.48,0.02-0.92,0.02-1.35c0-0.91,0.01-1.75,0.03-2.54   c0.04-1.6,0.12-3.03,0.11-4.56c-0.04-4.18-0.01-8.4-0.08-12.48c-0.06-2.03-0.12-4.07-0.58-5.82c-0.06-0.18-0.11-0.36-0.18-0.53   c-0.01-0.03-0.02-0.07-0.03-0.1c-0.08-0.19-0.17-0.38-0.29-0.56l-0.08-0.14c0.01,0.02,0.02,0.05,0.05,0.07l0.13,0.22   c0.05,0.06,0.08,0.13,0.12,0.2c-0.08-0.16-0.16-0.31-0.26-0.47c0.05-0.09-0.4-0.25-0.68-0.39l-0.92-0.42l-1.18-0.54l-0.6-0.27   c-0.09-0.04-0.22-0.1-0.28-0.13l-0.03-0.08l-0.14-0.31l-0.04-0.08c-0.03,0-0.06,0-0.09,0c0.02,0.03,0.03,0.08,0.05,0.1l0.1,0.22   L263.2,83c-0.02,0.01,0.07,0.05,0.15,0.08l0.22,0.1l1.74,0.79l1.35,0.61c0.08,0.03,0.13,0.06,0.17,0.08l-0.18-0.08l-0.87-0.39   c-0.71-0.32-1.41-0.64-2.11-0.96l-0.28-0.13c-0.09-0.04-0.23-0.1-0.2-0.11l-0.07-0.14l-0.13-0.28c0,0,0-0.01,0-0.01   c-0.18,0-0.37,0-0.56,0v-0.23c-0.17,0.01-0.35,0.03-0.54,0.07c-0.07-0.01-0.17,0.07-0.23,0.01l0.01,0l0.34-0.08   c0.14-0.02,0.28-0.04,0.41-0.05v-0.29h14.15v0.57c-1.47,0-2.63,0.08-3.55,0.29c0.22-0.05,0.43-0.07,0.61-0.08   c0.42-0.04,0.72-0.04,0.86,0c0.3,0.06-0.23,0.1-1.23,0.29c-0.24,0.07-0.52,0.13-0.81,0.23c-0.27,0.13-0.59,0.23-0.85,0.46   c-0.56,0.39-1.01,1.06-1.24,1.9c-0.47,1.67-0.51,3.72-0.57,5.66c-0.04,1.95-0.04,3.84-0.04,5.37c0.03-0.81,0.03-0.81,0.06-1.62   c-0.03,0.81-0.06,1.62-0.03,2.34c0.06-1.62,0.12-4.76,0.22-5.65l0.06,1.44c0.06-0.99,0.1-2.18,0.18-3.47   c0.09-1.27,0.17-2.69,0.55-3.91c0.56-2.63,3.81-2.3,5.76-2.29l0.89,0l0.04-0.94C277.53,82.34,277.54,82.16,277.54,81.98"
   id="path16" />
	<path
   class="st0"
   d="M37.7,33.15c0.36-0.57,0.68-1.01,0.94-1.48c3.1-5.49,6.26-10.95,9.25-16.49c1.57-2.9,2.87-5.95,4.22-8.97   c0.53-1.2,0.84-2.51,1.26-3.77c-3.05,1.27-7.04,6.95-10.34,14.03C40.43,22.07,37.62,30.75,37.7,33.15 M32.08,41.44   c0.26-0.35,0.36-0.82,0.47-1.27c-0.3,0.6-0.93,0.56-1.58,0.62c-0.82,0.07-1.75,0.11-2.43,0.52c-3.33,2-5.83,4.81-7.45,8.35   c-0.28,0.61-0.29,1.33-0.43,2c0.13,0.09,0.26,0.18,0.4,0.28c1.01-0.64,2.09-1.2,3.02-1.94C27.17,47.54,29.73,44.58,32.08,41.44    M60.48,46.4c-0.16,0.39-9.17,12.17-15.99,15.58c-0.87,0.43-1.81,0.75-2.75,1.02c-2.82,0.8-5.08-0.17-6.47-2.76   c-1.15-2.15-1.64-4.51-1.61-6.91c0.04-3.05,0.34-6.09,0.53-9.14c0.02-0.35,0.03-0.7,0.07-1.37c-0.6,0.66-0.99,1.11-1.41,1.53   c-2.34,2.33-4.61,4.73-7.05,6.95c-1.02,0.92-2.32,1.62-3.61,2.12c-2.19,0.86-3.66-0.44-3.25-2.77c0.13-0.71,0.38-1.43,0.69-2.08   c1.91-4.01,4.68-7.31,8.38-9.78c0.79-0.53,1.75-0.93,2.68-1.1c1.45-0.27,2.14,0.56,1.98,2.08c0.27-0.08,0.65-0.08,0.78-0.26   c1.01-1.37,2.03-2.69,2.43-4.46c1.77-7.97,4.16-15.73,7.99-22.98c1.75-3.31,3.69-6.49,6.14-9.34c0.75-0.87,1.61-1.7,2.57-2.32   c1.36-0.89,2.61-0.29,2.78,1.31c0.1,1.01,0,2.1-0.28,3.08c-0.52,1.82-1.12,3.63-1.87,5.37C48.82,20.45,43.11,30,36.79,39.2   c-0.78,1.14-1.29,2.29-1.51,3.67c-0.6,3.76-0.95,7.53-0.64,11.33c0.15,1.85,0.55,3.63,1.47,5.26c1.22,2.15,2.77,2.79,5.07,1.97   c1.15-0.4,2.29-0.89,3.33-1.5c5.76-3.36,10.53-7.75,14-13.48c0.32-0.52,1.56-2.2,2.16-1.85C61.29,44.96,60.75,45.76,60.48,46.4"
   id="path18" />
	<path
   class="st0"
   d="M64.73,35.96c-0.64-0.76-0.5-1.59-0.11-2.41c0.42-0.89,0.83-1.8,1.92-1.93c0.97-0.02,1.65,0.79,1.44,1.73   c-0.17,0.77-0.39,1.54-0.7,2.26C66.82,36.69,65.49,36.86,64.73,35.96 M89.99,47.25c-2.02,1.49-14.97,11.46-22.89,13.1   c-0.71,0.15-1.45,0.17-2.61,0.3c-0.8-0.2-2.03-0.35-3.14-0.8c-2.01-0.8-3.33-2.33-3.65-4.5c-0.54-3.64,0.5-7.03,1.92-10.33   c0.05-0.11,0.13-0.21,0.2-0.31c0.65-0.84,1.69-1.05,2.41-0.48c0.69,0.56,0.8,1.45,0.06,2.26c-1.61,1.77-2.14,3.95-2.6,6.17   c-0.07,0.36-0.11,0.73-0.12,1.09c-0.12,2.85,1.46,4.73,4.31,4.86c1.26,0.06,2.58-0.12,3.81-0.44c7.08-1.87,14.07-7.24,20.01-12.08   c0.47-0.29,0.93-0.62,1.43-0.81c0.61-0.24,0.95-0.47,1.33,0.16C90.83,46.06,90.46,46.78,89.99,47.25"
   id="path20" />
	<path
   class="st0"
   d="M124.95,47.46c-6.81,4.44-12.86,9.41-20.42,12.55c-2.15,0.89-4.37,1.54-6.75,1.55   c-3.55,0.02-6.05-1.61-7.69-4.7c-0.15-0.27-0.26-0.56-0.39-0.83c-0.13-0.27-0.28-0.53-0.45-0.86c-0.26,0.17-0.49,0.27-0.64,0.43   c-2.22,2.44-4.45,4.88-6.64,7.35c-0.52,0.58-0.94,1.18-0.61,2.14c0.34,0.99-0.06,1.67-0.84,1.93c-0.85,0.29-1.58,0.03-2.11-0.67   c-0.62-0.81-0.65-1.74-0.15-2.59c0.45-0.79,0.97-1.57,1.6-2.22c2.54-2.65,5.1-5.29,7.72-7.84c0.82-0.79,1.14-1.56,1.11-2.71   c-0.06-2.26,0.12-4.52,0.21-6.78c0.03-0.81,0.39-1.49,1.22-1.61c0.47-0.06,1.11,0.13,1.47,0.44c0.62,0.54,0.59,1.32,0.19,2.02   c-0.91,1.55-0.81,3.27-0.95,5.4c0.7-0.55,1.08-0.83,1.43-1.13c2.05-1.74,4.13-3.46,6.15-5.23c1.99-1.74,4.36-2.66,6.88-3.3   c0.81-0.21,1.46-0.06,1.85,0.72c0.35,0.7,0.01,1.52-0.9,1.92c-0.6,0.27-1.28,0.41-1.94,0.47c-1.89,0.19-3.59,0.85-5.02,2.05   c-2.48,2.08-4.88,4.26-7.35,6.37c-0.7,0.6-0.83,1.23-0.57,2.11c1.02,3.41,3.47,5.22,7.02,4.82c1.61-0.19,3.25-0.64,4.75-1.29   c2.35-1.02,4.69-2.13,6.85-3.49c4.6-2.9,9.09-5.99,13.62-9c0.05-0.03,0.1-0.08,0.15-0.11c1.17-0.84,1.58-1.23,2.19-0.51   C126.58,45.62,126.1,46.71,124.95,47.46"
   id="path22" />
	<path
   class="st0"
   d="M163.12,56.34c-3.19,1.25-7.11,5.14-7.28,7.22C158.63,63.8,162.59,59.87,163.12,56.34 M181.45,46.53   c-3.86,0.64-6.92,2.98-10.29,4.65c-1.8,0.89-3.48,2.04-5.24,3.03c-0.76,0.43-1.03,1-1.19,1.87c-0.78,4.15-3.35,6.96-7.01,8.85   c-0.52,0.27-1.18,0.35-1.77,0.35c-1.5-0.02-2.49-1.16-2.01-2.57c0.4-1.18,1.04-2.4,1.9-3.27c1.67-1.68,3.57-3.15,5.39-4.68   c0.5-0.42,1.06-0.79,1.64-1.21c-0.61-1.26-1.5-2.08-2.43-2.87c-0.84-0.71-1.73-1.38-2.48-2.17c-1.27-1.33-1.41-2.79-0.47-4.36   c1.17-1.96,2.85-3.37,5.03-4.05c0.78-0.25,1.7-0.27,2.52-0.14c1.29,0.19,2.1,1.34,2.08,2.64c-0.01,0.87-0.33,1.58-1.22,1.84   c-0.89,0.27-1.54-0.12-1.96-0.92c-0.16-0.31-0.31-0.64-0.48-0.97c-1.55,0.17-2.73,0.89-3.72,1.92c-1.28,1.33-1.26,2.14,0.05,3.42   c0.17,0.17,0.37,0.32,0.55,0.49c1.35,1.31,2.7,2.62,4.18,4.05c0.35-0.21,0.86-0.52,1.37-0.83c3.85-2.25,7.69-4.52,11.56-6.74   c0.79-0.45,1.65-0.8,2.5-1.12c0.74-0.27,1.46-0.1,2.04,0.46C182.78,44.99,182.53,46.36,181.45,46.53"
   id="path24" />
	<path
   class="st0"
   d="M181.19,47.62c1.9-0.59,3.56-1.54,4.7-3.27C183.69,44.51,182.37,45.97,181.19,47.62 M205.26,48.19   c-0.44,0.42-11.64,7.12-18.88,7.67c-1.66,0.13-3.44-0.11-5.04-0.58c-1.98-0.58-3.07-2.03-3.07-4.27c0-1.33,0.23-2.42,1.01-3.57   c1.03-1.53,2-3.1,3.48-4.21c0.77-0.58,1.66-1.06,2.57-1.36c1.11-0.36,2.28,0.18,2.89,1.1c0.65,1,0.59,2.04-0.13,2.9   c-0.69,0.84-1.49,1.66-2.42,2.2c-1.99,1.16-4.1,2.14-6.31,3.26c0.12,1.86,0.75,2.7,2.53,3.28c2.3,0.74,4.63,0.47,6.89-0.1   c5.51-1.4,10.52-3.93,15.21-7.11c0.7-0.47,1.25-1.17,1.87-1.75c0.87-0.82,1.27-1.04,1.83-0.44   C208.24,45.83,206.48,47.4,205.26,48.19"
   id="path26" />
	<path
   class="st0"
   d="M224.8,42.1c0.32-0.83,0.45-1.76-0.1-2.84c-0.62,0.22-1.28,0.33-1.8,0.66c-0.81,0.52-1.58,1.15-2.29,1.82   c-3.38,3.2-6.22,6.86-8.98,10.59c-0.11,0.15-0.13,0.37-0.31,0.93c3.42-2.21,6.69-3.8,10.11-5.09c0.46-0.17,0.94-0.63,1.16-1.08   C223.39,45.46,224.14,43.8,224.8,42.1 M220.16,50.54c-0.2-0.06-0.31-0.12-0.42-0.11c-0.18,0.02-0.36,0.07-0.53,0.14   c-4,1.63-7.69,3.79-10.76,6.85c-1.15,1.15-2.02,2.59-2.95,3.95c-0.28,0.4-0.33,0.96-0.5,1.5c1.64,0.06,1.86,0.03,3.42-0.96   c4.49-2.85,8.18-6.57,11.44-10.75C219.99,50.98,220.05,50.75,220.16,50.54 M244.47,46.16c-0.07,0.73-0.6,1.02-1.27,1.1   c-0.24,0.03-0.49,0.01-0.73-0.01c-5.72-0.36-11.36,0.35-16.98,1.34c-1.16,0.2-1.92,0.75-2.58,1.78   c-2.96,4.63-6.62,8.64-11.13,11.83c-1.14,0.81-2.37,1.51-3.63,2.13c-1.41,0.69-2.89,1.02-4.51-0.03   c-4.27,7.17-7.65,14.46-9.43,22.43c-0.12,0.53,0.04,1.19,0.26,1.72c0.57,1.43-0.33,3.78-1.74,4.33c-0.88,0.35-1.76-0.1-1.93-1.07   c-0.09-0.53-0.08-1.11,0.04-1.64c0.52-2.38,0.97-4.8,1.68-7.13c3.77-12.48,8.49-24.63,13.13-36.81c0.83-2.17,1.62-4.36,2.47-6.52   c0.29-0.74,0.62-1.5,1.11-2.1c0.39-0.47,1.04-0.85,1.64-1.01c0.75-0.19,1.48,0.44,1.61,1.17c0.14,0.77-0.17,1.47-0.9,1.57   c-1.19,0.17-1.65,0.97-2,1.89c-2.72,7.14-5.42,14.3-8.11,21.45c-0.06,0.16-0.04,0.34-0.09,0.88c0.54-0.84,0.9-1.38,1.25-1.93   c3.64-5.82,7.59-11.42,12.13-16.58c1.73-1.97,3.66-3.78,5.6-5.54c0.79-0.72,1.81-1.29,2.82-1.67c2.05-0.77,3.64,0.31,3.57,2.49   c-0.04,1.44-0.48,2.88-0.82,4.3c-0.18,0.76-0.54,1.47-0.92,2.43c1.31-0.25,2.42-0.54,3.54-0.68c4.37-0.56,8.74-1.08,13.11-1.59   c0.54-0.06,1.11-0.01,1.64,0.09C244.05,44.91,244.55,45.35,244.47,46.16"
   id="path28" />
	<path
   class="st0"
   d="M302.07,10.75c-7.42-0.1-14.84-0.08-22.26,0.42c-4.94,0.33-9.88,0.68-14.82,1.03   c-2.22,0.16-4.44,0.33-6.95,0.52c0.72-1.39,0.99-2.63,2.27-3.32c1.16-0.63,1.4-1.52,0.82-2.39c-0.59-0.87-1.87-1.07-2.74-0.26   c-0.57,0.52-1.01,1.23-1.36,1.92c-0.71,1.41-1.32,2.87-2.04,4.46c-5.44,0.35-10.87,0.72-16.3,1.05c-1.34,0.08-2.7,0.07-4.04-0.03   c-0.98-0.07-2.05-0.01-3.12-1.08c0.53-0.38,1.04-0.64,1.39-1.04c0.46-0.51,0.41-1.15-0.04-1.68c-0.44-0.51-1.02-0.63-1.66-0.35   c-0.94,0.41-1.86,2.07-1.77,3.22c0.09,1.09,0.85,1.84,2.25,2.02c1.03,0.13,2.09,0.18,3.12,0.1c5.37-0.43,10.73-0.92,16.09-1.38   c1.2-0.1,2.39-0.18,3.85-0.28c-0.32,0.9-0.52,1.53-0.75,2.14c-3.54,9.19-7.11,18.38-9.93,27.82c-1.87,6.28-3.61,12.59-4.4,19.11   c-0.27,2.26-0.4,4.52,0.17,6.75c0.67,2.58,2.36,3.47,4.86,2.52c0.96-0.36,1.9-0.86,2.76-1.43c1.57-1.06,3.12-2.16,4.6-3.34   c7.37-5.88,13.63-12.01,20.47-18.5c0.49-0.46,2.42-2.47,2.57-2.86c0.24-0.63,0.11-1.2-0.56-1.44c-0.42-0.16-0.65,0.11-1.15,0.25   c-0.19,0.06-0.31,0.36-0.47,0.54c-1.28,1.48-2.46,3.06-3.86,4.41c-5,4.78-10.04,9.52-15.15,14.18c-1.98,1.81-4.15,3.42-6.3,5.04   c-0.97,0.73-2.06,1.34-3.18,1.82c-1.87,0.78-2.81,0.27-3.13-1.7c-0.21-1.32-0.34-2.7-0.16-4.01c0.39-2.97,0.86-5.94,1.55-8.85   c3.39-14.35,8.85-27.97,14.47-41.55c0.46-1.11,1.19-1.4,2.24-1.48c6.89-0.5,13.78-1.21,20.68-1.51c6.84-0.3,13.72-0.49,20.55-0.19   c0.48,0.02,0.95,0.06,1.43,0.09C302.05,11.24,302.05,10.99,302.07,10.75"
   id="path30" />
</g>
</svg>
