<svg width="28" height="29" viewBox="0 0 28 29" fill="none" xmlns="http://www.w3.org/2000/svg">
<path d="M6.80737 2.48778C6.74276 2.50393 6.83967 2.64123 6.83967 2.67353C6.92851 2.59277 6.79121 2.4474 6.80737 2.48778Z" fill="#844C3A"/>
<path d="M7.79812 1.7367L7.79004 1.80938L7.93541 1.60748L7.79812 1.7367Z" fill="#844C3A"/>
<path d="M8.94186 1.5752C8.81204 1.30061 8.51994 1.64788 8.31709 1.58327L8.27652 1.52674L8.21973 1.76902C8.4388 1.68826 8.75524 1.51059 8.94186 1.5752Z" fill="#844C3A"/>
<path d="M9.5257 2.20512C9.4934 2.09206 9.65492 2.11628 9.39648 2.16474C9.41264 2.18089 9.41264 2.18089 9.42071 2.19704C9.43686 2.19704 9.46917 2.19704 9.5257 2.20512Z" fill="#844C3A"/>
<path d="M9.41205 2.19702C9.30706 2.19702 9.48473 2.29393 9.41205 2.19702V2.19702Z" fill="#844C3A"/>
<path d="M9.93079 2.17279L9.77734 2.25355C9.80157 2.32623 9.92271 2.35046 9.87426 2.39084C10.0196 2.35854 10.0035 2.28585 9.93079 2.17279Z" fill="#844C3A"/>
<path d="M10.1013 1.97897L10.0205 2.01128C10.0286 2.04358 10.0447 2.05166 10.1013 1.97897Z" fill="#844C3A"/>
<path d="M9.8418 2.08397L10.0195 2.01129C10.0033 1.96283 10.0114 1.86592 9.93871 2.03551C9.96294 1.95475 9.91448 2.02744 9.8418 2.08397Z" fill="#844C3A"/>
<path d="M9.7534 2.02742C9.67226 1.95474 9.56678 1.91436 9.72906 1.81744C9.42885 1.84975 9.46942 2.05165 9.7534 2.02742Z" fill="#844C3A"/>
<path d="M8.99018 1.27638L8.86036 1.19562L8.75488 1.30061C8.80357 1.25215 8.9983 1.36521 8.99018 1.27638Z" fill="#844C3A"/>
<path d="M10.7986 2.48778C10.8228 2.43125 10.7986 2.31819 10.8067 2.23743L10.6855 2.27781C10.7259 2.33434 10.8148 2.39895 10.7986 2.48778Z" fill="#844C3A"/>
<path d="M10.7998 2.23743L10.9856 2.18089C10.8483 2.13244 10.8079 2.17282 10.7998 2.23743Z" fill="#844C3A"/>
<path d="M10.1741 1.664C10.0688 1.72053 9.96345 1.78514 9.86621 1.84975C9.98776 1.79322 10.1093 1.72053 10.2308 1.67208L10.1741 1.664Z" fill="#844C3A"/>
<path d="M11.3759 2.68967L11.2461 2.79466L11.4733 2.64929L11.3759 2.68967Z" fill="#844C3A"/>
<path d="M11.7652 2.82697C11.6518 2.90773 11.7652 3.04502 11.668 3.0854C11.7733 3.10963 11.8949 3.06117 12.0164 3.02079C11.9111 3.02079 11.8381 2.96426 11.7652 2.82697Z" fill="#844C3A"/>
<path d="M12.2111 2.96426C12.1627 2.96426 12.09 2.98849 12.0254 3.01272C12.0738 3.01272 12.1385 2.99657 12.2111 2.96426Z" fill="#844C3A"/>
<path d="M11.262 2.30203C11.262 2.34241 11.2539 2.43932 11.3266 2.51201V2.32626C11.3024 2.31819 11.2781 2.31011 11.262 2.30203Z" fill="#844C3A"/>
<path d="M11.3193 2.31818C11.3839 2.35048 11.4324 2.37471 11.4486 2.38278C11.4324 2.37471 11.4001 2.35856 11.3193 2.31818Z" fill="#844C3A"/>
<path d="M11.2461 2.29393L11.2622 2.30201C11.2622 2.28585 11.2542 2.27778 11.2461 2.29393Z" fill="#844C3A"/>
<path d="M10.5967 1.9063C10.7184 1.83362 10.9537 1.78516 10.7833 1.59134C10.6859 1.68825 10.7833 1.80132 10.5967 1.9063Z" fill="#844C3A"/>
<path d="M11.2301 2.05972L11.0597 1.97089C11.0516 2.01934 11.0597 2.09203 11.0029 2.12433L11.2301 2.05972Z" fill="#844C3A"/>
<path d="M11.3345 2.04358L11.2295 2.05973L11.2941 2.10011L11.3345 2.04358Z" fill="#844C3A"/>
<path d="M12.0161 2.68158C12.1214 2.64928 12.1944 2.68158 12.2916 2.71388C12.2187 2.6412 12.1295 2.57659 12.0323 2.52814C11.9918 2.56852 11.9189 2.6412 12.0161 2.68158Z" fill="#844C3A"/>
<path d="M11.6924 2.47971H11.7085C11.7085 2.46356 11.7005 2.45548 11.6924 2.47971Z" fill="#844C3A"/>
<path d="M13.0962 3.2227V3.1904L13.0801 3.21463L13.0962 3.2227Z" fill="#844C3A"/>
<path d="M12.0331 2.48778C11.9766 2.42317 11.912 2.4474 11.8555 2.47162C11.912 2.4797 11.9766 2.48778 12.0331 2.52008C12.0493 2.51201 12.0574 2.49585 12.0331 2.48778Z" fill="#844C3A"/>
<path d="M12.4718 3.02077C12.4557 2.97231 12.4315 2.92385 12.4072 2.8754C12.4153 2.94 12.4395 3.05307 12.4718 3.02077Z" fill="#844C3A"/>
<path d="M11.7163 2.53622H11.7002C11.7083 2.58468 11.7163 2.56045 11.7163 2.53622Z" fill="#844C3A"/>
<path d="M11.7168 2.53622C11.7653 2.52815 11.8056 2.50392 11.8541 2.47969C11.8056 2.47161 11.7572 2.47161 11.7168 2.47969C11.7168 2.49584 11.7168 2.52007 11.7168 2.53622Z" fill="#844C3A"/>
<path d="M14.0126 2.52814C13.899 2.6412 13.6231 2.62505 13.5663 2.36662C13.331 2.35046 13.1525 2.85925 13.0957 3.19037C13.1444 3.13384 13.1768 3.08538 13.3878 3.11769C13.3878 3.0127 13.1687 2.70581 13.3878 2.68158C13.6474 2.77042 13.5257 2.85118 13.5744 2.99655C13.615 2.77042 14.0126 2.97232 14.1586 2.71389L13.9071 2.6412C13.9314 2.60082 14.0369 2.60082 14.0126 2.52814Z" fill="#844C3A"/>
<path d="M12.82 2.9804L12.7471 2.95618C12.8038 3.02886 12.82 3.10962 12.8362 3.27922C12.9821 3.28729 13.0307 3.25499 13.0712 3.21461C12.9821 3.13385 12.8767 3.06116 12.7795 2.98848L12.82 2.9804Z" fill="#844C3A"/>
<path d="M12.4627 2.78658C12.6006 2.66544 12.7954 2.68967 12.7954 2.47162C12.5925 2.36663 12.5844 2.52008 12.4302 2.512C12.7629 2.65737 12.2923 2.5443 12.4708 2.76236C12.3978 2.75428 12.341 2.73005 12.2842 2.70582C12.3329 2.75428 12.3653 2.81081 12.3978 2.86734V2.85119C12.3978 2.82696 12.3978 2.81081 12.4059 2.82696H12.414C12.4302 2.81889 12.4465 2.80274 12.4627 2.78658C12.5276 2.86734 12.4546 2.83504 12.414 2.83504L12.3978 2.85927C12.5114 2.89157 12.6331 2.9158 12.7467 2.95618C12.7061 2.89157 12.6168 2.85119 12.4627 2.78658Z" fill="#844C3A"/>
<path d="M11.0762 1.27637C11.0842 1.29252 11.0762 1.30867 11.0762 1.31675C11.1085 1.30867 11.1246 1.29252 11.0762 1.27637Z" fill="#844C3A"/>
<path d="M11.2055 1.42173C11.1731 1.43788 11.1326 1.49441 11.0515 1.45403C10.9867 1.38135 11.0758 1.37327 11.0839 1.31674C11.0191 1.34905 10.8652 1.38943 11.011 1.51057L11.0434 1.49441C11.1812 1.5994 11.2946 1.85783 11.2622 1.87399C11.2622 1.72054 11.2622 1.5994 11.2055 1.42173Z" fill="#844C3A"/>
<path d="M11.9277 2.03552C12.0331 2.05168 12.1465 2.05975 12.2438 2.08398C12.2194 2.0113 12.187 1.94669 12.1627 1.88208L12.1303 1.97092C11.9845 1.86593 11.9764 1.98707 11.9277 2.03552Z" fill="#844C3A"/>
<path d="M13.0718 3.31152L12.9258 3.44074L13.2179 3.32768L13.0718 3.31152Z" fill="#844C3A"/>
<path d="M13.3804 3.5296L13.2754 3.64267L13.4127 3.63459L13.3804 3.5296Z" fill="#844C3A"/>
<path d="M7.34353 18.8497L7.23047 18.8578C7.27892 18.8659 7.31123 18.8578 7.34353 18.8497Z" fill="#844C3A"/>
<path d="M8.0733 19.0678L8.11368 18.9951C8.06523 19.0274 8.041 19.0597 8.0733 19.0678Z" fill="#844C3A"/>
<path d="M16.9583 11.9932C16.796 12.0982 16.5445 12.2032 16.7311 12.2113L16.9096 12.1951C16.8853 12.1063 16.9096 12.0498 16.9583 11.9932Z" fill="#844C3A"/>
<path d="M13.9805 17.7595L14.0451 17.7918C14.0451 17.7191 14.0532 17.6545 14.0532 17.598C14.0289 17.6464 14.0047 17.7029 13.9805 17.7595Z" fill="#844C3A"/>
<path d="M14.1914 18.4621L13.9561 18.446C14.0129 18.454 14.0859 18.4621 14.1914 18.4621Z" fill="#844C3A"/>
<path d="M3.52834 17.073L3.31836 17.1376C3.4718 17.2588 3.46373 17.1376 3.52834 17.073Z" fill="#844C3A"/>
<path d="M15.8712 6.59039C15.8631 6.7196 15.8712 6.81651 15.8954 6.8892C15.9358 6.72768 16.0246 6.55808 15.8712 6.59039Z" fill="#844C3A"/>
<path d="M8.14698 17.1538C8.08237 17.17 8.05007 17.1942 8.04199 17.2346C8.1066 17.2184 8.14698 17.1942 8.14698 17.1538Z" fill="#844C3A"/>
<path d="M16.0323 7.17993C16.0403 7.1557 16.0403 7.13147 16.0484 7.10724C15.9838 7.04264 15.9273 6.97803 15.9031 6.88919C15.8707 7.01033 15.8788 7.13147 16.0323 7.17993Z" fill="#844C3A"/>
<path d="M2.66992 3.28728C2.68607 3.28728 2.69415 3.2792 2.7103 3.27113C2.68607 3.25497 2.678 3.27112 2.66992 3.28728Z" fill="#844C3A"/>
<path d="M6.88117 2.13242C6.84887 2.14857 6.80041 2.1728 6.75195 2.18895C6.77618 2.19702 6.81656 2.18087 6.88117 2.13242Z" fill="#844C3A"/>
<path d="M14.4265 4.65214C14.3619 4.59561 14.4023 4.65214 14.4265 4.65214V4.65214Z" fill="#844C3A"/>
<path d="M14.6699 3.88493C14.6941 3.88493 14.7265 3.87686 14.7588 3.85263C14.7184 3.87686 14.6941 3.88493 14.6699 3.88493Z" fill="#844C3A"/>
<path d="M17.3721 7.5918C17.3963 7.5595 17.3963 7.56757 17.3721 7.5918V7.5918Z" fill="#844C3A"/>
<path d="M14.4023 4.50677C14.4023 4.54715 14.4185 4.57946 14.4346 4.61984C14.4346 4.59561 14.4266 4.56331 14.4023 4.50677Z" fill="#844C3A"/>
<path d="M14.3539 4.57138C14.3378 4.54715 14.3297 4.52293 14.3216 4.50677C14.2893 4.52293 14.2812 4.53908 14.3539 4.57138Z" fill="#844C3A"/>
<path d="M14.5075 4.73291C14.4752 4.7006 14.451 4.66022 14.4348 4.61984C14.4348 4.63599 14.4348 4.65215 14.4268 4.65215C14.4429 4.6683 14.4671 4.69253 14.5075 4.73291Z" fill="#844C3A"/>
<path d="M0.486669 10.8303C0.494745 10.8222 0.494745 10.8141 0.502821 10.8061C0.422061 10.7092 0.438213 10.7495 0.486669 10.8303Z" fill="#844C3A"/>
<path d="M18.0862 14.7149C18.0862 14.7149 18.0862 14.7068 18.0862 14.6987L18.0781 14.7068L18.0862 14.7149Z" fill="#844C3A"/>
<path d="M18.0373 15.1106C17.9237 14.8683 17.9724 14.8037 18.0698 14.7148L17.5586 14.6018C17.7209 14.7633 17.8831 14.9329 18.0373 15.1106Z" fill="#844C3A"/>
<path d="M5.61476 18.2198L5.77704 18.4702C5.37946 18.5832 5.21718 18.3813 5.33889 18.6963C5.61476 18.2279 6.29632 19.0678 6.53162 18.559L6.64522 18.7286C6.60465 18.7044 6.5803 18.7367 6.53974 18.7125C6.75069 19.0678 6.89674 18.4298 7.25375 18.6317C7.37546 18.7125 7.44848 18.8255 7.33489 18.8578L7.67567 18.8174C7.76492 18.8497 7.71624 18.9386 7.62699 18.9063C7.78926 18.9386 7.94343 18.9709 8.1057 18.987L8.09759 19.0032C8.18684 18.9386 8.36534 18.8417 8.4546 18.8013C8.56007 18.9063 8.38157 18.8417 8.3978 18.9224L8.68178 18.8497C8.76292 19.0113 8.51951 19.1001 8.33289 19.0436C8.47082 19.625 8.5763 18.9628 9.06313 19.3666L8.79538 19.3908C8.90897 19.73 9.13616 19.6493 9.41203 19.8754C9.34712 19.7704 8.88463 19.3101 9.20107 19.2212C9.27409 19.2697 9.38768 19.3101 9.55807 19.2132C9.53373 19.407 9.70412 19.3747 9.89886 19.3828L9.8664 19.6412C10.0855 19.5847 10.0774 19.4474 10.2072 19.3424C10.4425 19.3828 10.4912 19.5766 10.548 19.7462C10.9374 19.7866 10.2802 19.4231 10.7427 19.3747C11.0591 19.4716 11.2944 19.3505 11.6433 19.1647C11.8705 19.2293 11.619 19.3262 11.7082 19.3908L11.8786 19.1647C11.9273 19.1647 11.9192 19.2293 11.9192 19.2616C12.0734 19.1566 11.8949 19.0032 12.1383 18.8982C12.1464 18.6075 12.7387 19.2051 12.974 18.8094C13.0714 18.8578 12.9821 18.9709 13.0308 19.0597C13.3959 18.7286 13.3635 18.8094 13.5988 18.4136C13.7123 18.4298 13.8259 18.454 13.9395 18.4621C13.6637 18.3733 13.8341 18.0421 13.9639 17.7837C13.8584 17.7272 13.7691 17.6787 13.7123 17.6626C13.8016 17.5737 13.8909 17.4849 13.972 17.388C14.0288 17.4041 14.0369 17.5011 14.0369 17.6222C14.045 17.5899 14.0612 17.5657 14.0694 17.5334C14.2316 17.5576 14.2397 17.7191 14.2154 17.8968C14.1505 17.8725 14.0856 17.8402 14.0207 17.816C14.0044 17.9937 13.9963 18.1875 14.0775 18.3167C14.0856 18.2764 14.1262 18.236 14.1667 18.2037C14.1586 18.2521 14.1667 18.2925 14.1829 18.3087C14.2073 18.3248 14.2235 18.2602 14.2479 18.1714L14.4588 18.3894L14.4264 18.2764C14.613 18.2521 14.7996 18.2198 14.9781 18.1794C15.1647 17.7353 15.1809 17.2103 15.5217 16.7742C15.5542 17.0246 15.7165 17.0569 15.8787 17.2588C15.5948 17.1538 15.5948 17.6303 15.3027 17.7676C15.4487 17.703 15.4893 17.816 15.4812 17.8726C15.5866 17.703 15.6921 17.5253 15.7814 17.3476C15.9031 17.5172 15.968 17.388 16.1384 17.3638C15.7976 17.1296 16.2682 16.8954 16.3331 16.645C16.4386 16.7338 16.5035 16.8631 16.2763 17.0326C16.7145 17.0407 16.2195 16.4269 16.6009 16.3946C16.5603 16.4431 16.5197 16.4593 16.5522 16.5239C16.5765 16.3381 16.8767 16.112 16.9173 16.2493L16.8767 16.3058C17.2175 16.007 17.6719 15.1994 17.3879 14.9813C17.4285 14.9975 17.7206 15.2317 17.7693 15.2963C17.5745 14.8764 17.3311 14.4726 17.0715 14.1172C17.3149 14.303 18.0776 14.3353 18.0695 14.7391C18.1587 14.6583 18.2561 14.5533 18.2399 14.303C18.1749 14.3595 17.7774 14.311 17.7855 14.2141C18.1912 14.0849 18.0208 14.1172 18.394 13.883C18.2967 13.9638 17.8991 13.7053 17.9559 13.56C18.0127 13.6084 18.4021 13.673 18.4265 13.7457C18.321 13.56 18.2074 13.3904 18.0938 13.2208C18.1506 13.3419 18.467 13.3338 18.6131 13.2692C18.5157 13.2935 18.7023 12.9058 18.6699 12.7847L18.532 12.9462C18.678 12.4778 17.9802 12.3889 18.0451 11.9609C18.1344 12.0174 18.6131 12.1467 18.6861 11.9125C18.467 11.7752 17.5908 11.3875 17.4041 11.0483L17.534 10.9756L17.3717 10.7011C17.7368 10.8384 18.4914 11.3471 18.7591 11.6783C18.8727 11.5006 18.9214 11.6379 18.9133 11.3633C19.0431 11.2664 19.0999 11.5167 19.0999 11.5975C19.1405 11.3875 19.1567 11.1695 19.1811 10.9514C18.9133 10.9837 18.889 10.483 18.6618 10.5234C18.7673 10.7414 18.8727 10.9595 18.9701 11.1856C18.7023 11.2098 18.1993 10.8141 18.2074 10.4103C18.3048 10.2973 18.6942 10.4507 18.7916 10.4346C18.6942 10.3861 18.5725 10.0388 18.6374 9.99845L18.8078 10.168C18.8808 9.90961 18.4021 9.82078 18.6131 9.50581C18.6131 9.4089 18.9052 9.15047 18.7429 9.15854C18.467 9.38467 17.5258 9.57042 17.2743 9.51389C17.2905 9.48158 17.4772 8.99702 17.5989 8.85166C17.8017 8.64168 18.2155 8.94857 18.394 8.7709C18.321 8.77897 18.2074 8.71436 18.1749 8.69014C18.2155 8.57707 18.4102 8.67398 18.321 8.46401C18.0451 8.49631 18.2317 8.01983 18.0695 8.42363C17.9396 8.23788 18.0614 8.18942 17.9802 7.94714C17.8342 8.07636 17.3311 7.91484 17.1932 7.74524C17.2662 7.73717 17.3392 7.65641 17.3636 7.6241C17.2419 7.21223 17.2743 6.9538 17.112 6.5823C17.1607 6.52577 17.1445 6.30772 17.2905 6.33194C17.2175 6.29964 17.112 6.29156 17.0552 6.1785C17.1607 5.85546 17.2094 6.42078 17.3879 6.12197C17.2419 6.17042 17.039 5.92007 16.8686 5.807C16.6739 5.96852 17.0147 6.18658 17.1851 6.31579C16.8767 6.46116 16.4224 6.34002 16.0978 6.06543C15.8706 5.83123 16.2195 5.83931 16.1546 5.81508C15.895 5.25784 15.3919 5.69394 15.327 5.16092C15.3919 4.87826 15.6759 4.90249 15.7814 4.78135C16.0004 4.95902 15.9031 5.19323 16.0004 5.33859L15.968 5.09631C16.0735 5.12862 16.2195 5.24976 16.2114 5.3709C16.2925 5.11247 15.6759 4.47446 15.4974 3.99798C15.3838 3.97375 15.2377 3.90914 15.2134 4.02221L15.3351 4.11912C15.2864 4.33717 14.97 4.06259 15.0268 4.25641C14.8077 4.18373 14.5237 4.1595 14.402 3.89299L14.54 3.68301C14.4913 3.73955 14.5643 3.90914 14.6698 3.91722C14.5156 3.90914 14.613 3.37613 14.2965 3.52149L14.3128 3.77993C14.0856 3.72339 13.7367 3.77185 13.6231 3.56187C13.542 3.81223 13.688 3.57803 13.615 3.89299C13.7529 3.52957 14.0288 4.29679 14.1262 3.87684C14.0044 4.23218 14.2397 4.18373 14.1667 4.53099C14.2235 4.47446 14.2316 4.36948 14.329 4.53907C14.3533 4.531 14.3858 4.52292 14.4101 4.52292L14.4183 4.53907V4.52292C14.4345 4.52292 14.4345 4.52292 14.4183 4.51484C14.4183 4.45831 14.4183 4.40178 14.4426 4.3614C14.6536 4.30487 14.8483 4.55522 14.9943 4.57138C15.043 4.68444 14.8889 4.5956 14.8645 4.69251L15.0755 4.72482C14.9456 4.85403 15.0187 5.15285 14.7753 4.9994L14.9132 5.2013C14.9132 5.3709 14.9862 5.55665 15.1242 5.61318C15.1566 5.72624 15.4487 5.75047 15.2783 5.7424C15.3757 5.83123 15.4812 5.92007 15.5785 6.0089L15.538 6.03313C15.7083 6.36425 16.1871 6.59038 16.0654 7.12339C16.1546 7.2203 16.2601 7.32529 16.2925 7.54334L16.1627 7.64026C16.2763 7.77755 16.1871 8.14904 16.3575 8.1652C16.0167 8.45593 16.4954 8.94049 16.4873 9.2393L16.6901 9.207C16.7226 9.40082 16.8199 9.57042 16.9335 9.80462L17.112 9.76424C17.2987 9.95807 17.0634 10.3296 17.1039 10.6607C17.0309 10.6445 17.0471 10.5557 17.0796 10.4911C16.7063 10.903 17.4204 11.3229 17.1039 11.6863C17.1607 11.7752 17.1364 11.8398 17.0877 11.8963C17.0877 11.8882 17.0877 11.8802 17.0796 11.8721C17.0796 11.8802 17.0715 11.8963 17.0715 11.9044C17.039 11.9367 16.9984 11.9771 16.966 12.0174C17.0147 11.9851 17.0552 11.9528 17.0715 11.9286C17.0715 12.0013 17.0796 12.0982 17.112 12.2113L16.9173 12.2274C16.9173 12.2355 16.9173 12.2436 16.9173 12.2517C16.8362 12.3405 16.9984 12.3405 17.1526 12.3082C17.1769 12.3647 17.2094 12.4132 17.25 12.4616C16.9254 12.4859 17.3068 12.7524 16.9498 12.7927C17.1039 12.8977 16.9498 13.3096 17.2581 13.4631C17.2175 13.455 17.1851 13.4792 17.2013 13.4227C17.1283 13.5196 17.0552 13.6165 17.112 13.7538L16.8605 13.7134L17.0552 14.0364C16.8524 14.1172 16.7469 14.1334 16.6333 13.9234C16.7469 14.3676 16.6171 14.2303 16.7145 14.6421L16.5846 14.5533C16.5441 14.6502 16.6252 14.9167 16.471 14.9087C16.0978 14.949 15.6921 15.902 14.9943 16.0878C15.3919 16.3704 14.6373 16.112 14.8402 16.4108C14.7428 16.3462 14.6373 16.3462 14.6536 16.2089C14.4669 16.4916 14.1748 16.33 14.1505 16.7015C14.0612 16.6208 14.1262 16.5239 14.0612 16.4835C14.0531 16.5158 14.0288 16.6127 13.9639 16.5723C13.9071 16.5319 13.9558 16.4673 13.972 16.4027C13.7205 16.5804 13.8422 16.8873 13.972 17.1861C13.7448 17.1296 13.688 17.1861 13.6556 17.4284C13.5582 17.3557 13.4203 17.2992 13.5988 17.178C13.4852 17.2184 12.8929 17.3072 12.9578 17.5414C12.901 17.493 12.7955 17.5737 12.7711 17.6141C12.5115 17.6707 12.479 17.6545 12.2275 17.7353L12.3087 17.7595C12.2681 18.0825 12.1058 17.8726 11.8949 17.9452V17.9129C11.3756 17.7595 11.692 18.0502 11.189 17.8402L11.2295 18.0341C11.2052 18.454 10.7833 17.816 10.5074 17.9614L10.6129 18.0745C10.4425 18.2198 10.1991 17.493 10.0611 17.4364C10.0287 17.3961 10.1179 17.3799 10.1585 17.3638C9.79338 17.0892 10.0936 17.6141 9.79338 17.6464C9.75281 17.5011 9.89886 17.3072 9.71224 17.2588C9.63921 17.1376 9.08747 17.6222 8.8684 17.2992C8.90086 17.4122 8.94143 17.5334 8.78726 17.5818C8.56008 17.5737 8.32477 17.065 8.05702 17.3315C8.04079 17.2992 8.04079 17.2668 8.04079 17.2426C7.86229 17.283 7.48905 17.2184 7.33489 17.3476C7.42414 16.6935 6.24764 17.2588 6.49917 16.6854C6.345 16.6288 6.19084 16.5562 6.03668 16.4916L6.07725 16.4431C5.81761 16.2654 5.65533 16.322 5.47683 16.3946C5.43626 16.322 5.50928 16.2977 5.53362 16.2735C5.20096 15.9182 5.16039 15.9182 4.65733 15.9343L4.74658 15.7486C4.58431 15.7728 4.41392 15.0944 3.9352 14.9571C3.95143 14.941 3.992 14.9248 4.03257 14.9248C3.47271 14.7229 3.65122 13.6973 2.96966 13.9961C2.85606 13.9395 2.73436 13.8911 2.62076 13.8265C2.82361 14.2303 2.32055 13.9557 2.32055 14.1737C2.18262 14.0364 2.24753 13.6569 2.40169 13.8265L2.39358 13.8749C2.75058 13.7376 2.20696 13.3338 2.45037 13.2127C2.01223 12.4697 1.95543 11.6217 1.88241 10.8868L1.59842 11.016L1.58219 10.7414C1.65522 10.6607 1.80127 10.6284 1.80938 10.8141C1.95543 10.7011 1.65522 10.5072 1.58219 10.4992C1.68767 10.1196 1.93109 10.6284 1.9392 10.5153L1.90675 10.3699L1.87429 10.4022C1.75258 10.2811 1.60654 10.273 1.63088 10.0388C1.69579 9.89346 1.81749 9.97422 1.83372 9.91769C1.85806 9.91769 1.86618 9.90154 1.84995 9.82885C1.86618 9.71579 1.89052 9.6108 1.90675 9.49774L1.65522 9.60273C1.54974 9.44121 1.71202 9.27969 1.41992 9.4089C1.83372 9.22315 1.83372 8.14097 2.02034 8.0279C1.92297 7.7614 2.00411 7.55142 2.12582 7.30106C2.0528 7.34952 1.79315 7.29299 1.91486 7.07494C2.38546 7.36567 2.30432 6.7519 2.74247 6.74382C2.43414 6.7842 2.97777 6.11389 2.53151 6.18658C2.66133 6.02506 2.71813 6.26734 2.89663 6.18658C2.92909 5.66971 3.51328 5.34667 3.78104 4.84596C3.72424 4.7975 3.57819 4.81365 3.57008 4.65213L4.07314 4.5956C4.1137 4.48254 3.80538 4.26449 4.12993 4.25641C4.06502 4.24026 3.96766 4.22411 3.992 4.14335C4.47883 3.81223 4.81149 3.3519 5.2253 2.96425C5.63099 2.5766 6.14216 2.26164 6.75069 2.35855C6.57219 2.29394 6.64522 2.22933 6.75069 2.18895C6.66956 2.18088 6.68578 2.02743 6.6371 1.9386C6.81561 1.9709 6.986 1.98705 7.14827 2.03551C7.14827 1.75285 7.59453 1.89822 7.59453 1.64786L7.4566 1.72862C7.60265 1.38943 7.03468 1.131 6.94543 0.767578C6.86429 0.969478 6.66956 0.888718 6.44237 0.86449C6.2233 0.82411 5.97177 0.832186 5.88252 1.15523C5.76081 1.12292 5.89874 1.00178 5.81761 0.94525C5.78515 1.14715 5.68778 1.22791 5.43626 1.29252V1.24406C4.86829 1.63171 4.53562 1.68017 3.87029 2.12435L4.04068 2.22933C3.91086 2.31817 3.83783 2.30202 3.74858 2.32625C3.81349 2.66544 4.09748 2.01936 4.19484 2.3747C3.74858 2.22933 3.39969 3.1823 2.96966 3.01271C2.80738 3.20653 3.18873 3.09347 3.02645 3.28729L2.88852 3.26306L2.96966 3.40843C2.84795 3.52149 2.67756 3.49727 2.58831 3.44073C2.62076 3.41651 2.63699 3.33575 2.65322 3.29537C2.40169 3.37613 2.32867 3.82031 2.24753 3.85261L2.45037 3.69917C2.14205 4.32102 1.57408 4.95902 1.50106 5.65356H1.60654C1.54162 6.17042 1.33878 5.96045 1.18462 6.48539L1.1765 6.46116C1.21707 6.59845 1.20084 6.74382 1.13593 6.88111C1.08725 6.71152 0.843837 7.04263 0.803268 6.83266C0.778926 7.40605 0.835723 7.13954 1.03857 7.58372L0.868178 7.61603C0.95743 7.76947 1.02234 7.80177 0.989885 8.06828C0.933089 7.81793 0.72213 8.17327 0.624764 7.88254C0.137935 8.3671 0.738357 8.78705 0.219073 8.96472C0.584195 9.29584 0.535512 8.50439 0.600422 8.67398C0.754585 8.58515 0.860064 8.94857 0.795154 9.11009C0.762699 9.27968 0.210959 9.34429 0.194732 9.83693C0.202845 9.78847 0.17039 9.7804 0.17039 9.73194C0.0567967 9.90961 0.292097 10.0954 0.129821 10.3134C0.389463 10.4346 0.129821 10.6041 0.44626 10.6284L0.357008 10.1923C0.462487 10.4507 0.811382 10.6445 0.689674 11.0483C0.624764 11.0241 0.519284 10.9191 0.462487 10.8384C0.381349 10.9676 0.551739 11.0564 0.478715 11.1937C0.146049 11.2018 0.34078 10.6768 0.0973658 10.4103C-0.0324553 10.5557 0.348894 10.9191 0 10.806C0.454374 10.9595 0.00811383 11.3068 0.389463 11.5813L0.194732 11.5975C0.235301 11.646 0.348894 11.7348 0.365122 11.8236L0.0973658 11.6863C0.373235 11.9044 0.0243415 12.2517 0.235301 12.4778C0.0649105 11.9448 0.421918 12.292 0.494943 12.0336C0.933089 12.5828 0.10548 12.5505 0.478715 13.245C0.413805 13.1562 0.430032 12.8493 0.576081 12.9623C0.592308 13.1077 0.608536 13.3096 0.551739 13.4307C0.795154 13.8749 0.697788 13.2773 0.89252 13.4227C0.746471 13.6811 1.08725 13.5923 1.24953 13.7457L1.07914 13.8426C1.24141 14.3918 1.49294 13.7699 1.62276 14.2626L1.28198 14.2303L1.48483 14.4079L1.26576 14.4806C1.55785 14.6341 1.56597 14.7229 1.68767 14.9813C1.7607 14.8521 1.996 14.7956 2.14205 14.9813C2.15016 15.1832 1.93109 15.0298 2.1745 15.2721C2.02845 15.2963 1.84995 15.3205 1.90675 15.0944C1.84995 15.1186 1.7607 15.1106 1.7039 15.1348C1.7039 15.369 1.97166 15.5144 2.0528 15.6032C2.02845 15.5628 1.996 15.5144 1.996 15.474L2.53151 15.6678C2.53151 15.7728 2.44226 15.7728 2.36112 15.7647C2.44226 15.8293 2.56397 15.8132 2.67756 15.902C2.53962 15.9828 2.42603 16.1039 2.22319 16.007L2.69379 16.225C2.66945 16.2977 2.74247 16.54 2.66133 16.54C2.80738 16.7904 3.35912 16.7581 3.56196 17.0569C3.59442 17.0407 3.6431 17.0407 3.71613 17.073C3.95143 17.2992 4.09748 17.6303 4.54374 17.6626L4.58431 18.0179C4.88452 18.1229 4.51128 17.5576 5.00622 17.7272C5.36323 17.8241 5.00622 18.0018 5.07925 18.131C5.30644 18.0906 5.6959 17.9775 5.90686 18.3167C5.77704 18.3167 5.72024 18.244 5.61476 18.2198ZM9.20918 19.2051C9.12804 19.2374 8.96577 19.3343 8.93331 19.2132C9.05502 19.0032 9.09559 19.1243 9.20918 19.2051ZM14.613 17.8483C14.5968 17.9291 14.5075 17.9452 14.3939 17.921C14.4507 17.8726 14.5156 17.8483 14.613 17.8483ZM15.0998 5.26591H15.1079C15.1323 5.41935 15.1242 5.36282 15.0998 5.26591ZM15.0024 4.99133C14.9619 4.98325 14.9456 4.9994 14.9294 5.03171C14.9781 5.01555 15.0187 5.06401 15.0511 5.12862C15.0836 5.08016 15.0917 5.03171 15.0024 4.99133ZM1.78504 9.85308L1.72824 9.90154C1.67956 9.7804 1.72824 9.82078 1.78504 9.85308Z" fill="#844C3A"/>
<path d="M14.167 18.3733C14.1347 18.349 14.1105 18.3248 14.0943 18.2925C14.0862 18.3329 14.0943 18.3652 14.167 18.3733Z" fill="#844C3A"/>
<path d="M3.56968 17.065L3.5616 17.0569C3.54545 17.065 3.53737 17.073 3.5293 17.0811L3.56968 17.065Z" fill="#844C3A"/>
<path d="M18.475 8.58514C18.4589 8.65783 18.4346 8.70628 18.4023 8.73859C18.4508 8.73051 18.4831 8.69013 18.475 8.58514Z" fill="#844C3A"/>
<path d="M13.7939 4.10297L13.9474 4.1918C13.8828 4.13527 13.8909 4.08682 13.8828 4.03836C13.8505 4.07066 13.8343 4.14335 13.7939 4.10297Z" fill="#844C3A"/>
<path d="M13.2894 2.17282C13.249 2.1809 13.2409 2.14052 13.2005 2.1486L13.1602 2.22936C13.2571 2.28589 13.3701 2.27781 13.2894 2.17282Z" fill="#844C3A"/>
<path d="M14.1185 3.5215C14.2159 3.39228 14.0942 3.3519 13.9806 3.28729C13.9887 3.29537 13.9968 3.29537 13.9968 3.30344C13.8102 3.44881 13.9643 3.48919 14.1185 3.5215Z" fill="#844C3A"/>
<path d="M13.9469 3.27114C13.9146 3.24691 13.8742 3.23076 13.85 3.19846C13.7773 3.26306 13.8742 3.24691 13.9469 3.27114Z" fill="#844C3A"/>
<path d="M14.7036 4.77327C14.6954 4.70059 14.5169 4.87826 14.5494 4.80558C14.3384 4.88634 14.9957 4.95902 14.7036 4.77327Z" fill="#844C3A"/>
<path d="M14.4026 3.05307L14.3057 3.23882L14.4672 3.16613L14.4026 3.05307Z" fill="#844C3A"/>
<path d="M15.0591 3.92529L14.9541 3.72339C14.9298 3.74762 14.8975 3.73954 14.8652 3.72339C14.946 3.83645 15.0187 3.97374 15.0591 3.92529Z" fill="#844C3A"/>
<path d="M14.8641 3.73148C14.8237 3.67495 14.7753 3.63457 14.7188 3.6265C14.7511 3.65072 14.8076 3.70726 14.8641 3.73148Z" fill="#844C3A"/>
<path d="M14.6699 3.2146L14.6861 3.29536L14.783 3.4165L14.6699 3.2146Z" fill="#844C3A"/>
<path d="M16.3652 5.86352L16.5275 6.04927C16.6005 6.04119 16.6086 5.96043 16.5437 5.89583C16.4707 5.86352 16.4058 5.79891 16.3652 5.86352Z" fill="#844C3A"/>
<path d="M16.4715 4.95096C16.4715 5.03172 16.439 5.05595 16.3984 5.12863L16.6175 4.99941L16.4715 4.95096Z" fill="#844C3A"/>
<path d="M16.8933 5.5405C16.9664 5.52435 17.2422 5.76663 17.08 5.49204C16.9988 5.5082 16.8284 5.31437 16.8933 5.5405Z" fill="#844C3A"/>
<path d="M17.8827 9.11817L17.8665 9.05356L17.4697 9.15047L17.8827 9.11817Z" fill="#844C3A"/>
<path d="M19.0192 12.4536C19.157 12.1467 18.7762 12.3486 18.9301 12.074C18.841 11.9932 18.8086 12.3001 18.7275 12.2113C18.8086 12.4132 18.7437 12.5101 19.0192 12.4536Z" fill="#844C3A"/>
<path d="M18.7262 12.2193C18.71 12.187 18.6939 12.1547 18.6777 12.1143C18.6939 12.1709 18.71 12.1951 18.7262 12.2193Z" fill="#844C3A"/>
<path d="M7.47266 2.1728C7.52919 2.18896 7.57764 2.21318 7.63418 2.22934L7.51304 2.11627L7.47266 2.1728Z" fill="#844C3A"/>
<path d="M7.7002 1.82553L7.77288 2.07589L7.82941 1.82553C7.80518 1.84168 7.74058 1.88206 7.7002 1.82553Z" fill="#844C3A"/>
<path d="M9.71959 19.7947L9.74381 19.7301C9.71959 19.6574 9.67113 19.6493 9.57422 19.6331L9.71959 19.7947Z" fill="#844C3A"/>
<path d="M7.01953 19.0194L7.05991 19.0355L7.05184 18.7852L7.01953 19.0194Z" fill="#844C3A"/>
<path d="M4.73828 18.3329C4.81942 18.3894 4.94924 18.3975 5.03038 18.454C4.81942 18.3894 4.8681 18.0664 4.73828 18.3329Z" fill="#844C3A"/>
<path d="M17.4848 16.645C17.4686 16.6046 17.3475 16.7177 17.3232 16.7338C17.3959 16.7661 17.5171 16.6127 17.4848 16.645Z" fill="#844C3A"/>
<path d="M18.2228 16.9438L18.1582 16.9761L18.352 16.9519L18.2228 16.9438Z" fill="#844C3A"/>
<path d="M18.6207 17.4526C18.8069 17.2265 18.4344 17.2991 18.4425 17.1457L18.483 17.0892L18.2725 17.1942C18.3858 17.2749 18.6207 17.3234 18.6207 17.4526Z" fill="#844C3A"/>
<path d="M18.3451 18.1068C18.4178 18.0179 18.4662 18.1068 18.3208 18.026C18.3128 18.0422 18.3128 18.0422 18.3047 18.0583C18.3208 18.0664 18.337 18.0825 18.3451 18.1068Z" fill="#844C3A"/>
<path d="M18.3127 18.0502C18.2643 18.0017 18.2643 18.1471 18.3127 18.0502V18.0502Z" fill="#844C3A"/>
<path d="M18.5639 18.2602L18.4266 18.2521C18.3863 18.3086 18.4266 18.3813 18.3701 18.3894C18.467 18.4217 18.5074 18.3652 18.5639 18.2602Z" fill="#844C3A"/>
<path d="M18.7752 18.1956L18.7106 18.1875C18.7025 18.2117 18.7025 18.2198 18.7752 18.1956Z" fill="#844C3A"/>
<path d="M18.5889 18.1633L18.7181 18.1875C18.7504 18.1471 18.815 18.0906 18.6616 18.1713C18.7342 18.1229 18.6616 18.1552 18.5889 18.1633Z" fill="#844C3A"/>
<path d="M18.5806 18.0906C18.5968 18.0098 18.5887 17.9372 18.726 17.9452C18.5887 17.8402 18.4433 17.9856 18.5806 18.0906Z" fill="#844C3A"/>
<path d="M18.8799 17.2911L18.9041 17.1861L18.791 17.2022C18.8475 17.1941 18.8072 17.3476 18.8799 17.2911Z" fill="#844C3A"/>
<path d="M18.791 18.7851C18.8395 18.7528 18.896 18.6559 18.9606 18.6074L18.8637 18.5994C18.8475 18.6559 18.8637 18.7286 18.791 18.7851Z" fill="#844C3A"/>
<path d="M18.9619 18.6074L19.1073 18.6155C19.0588 18.5428 19.0104 18.559 18.9619 18.6074Z" fill="#844C3A"/>
<path d="M19.0425 18.0098L18.7666 18.0179L19.0587 18.026L19.0425 18.0098Z" fill="#844C3A"/>
<path d="M19.0269 19.092L18.8809 19.1324L19.108 19.0759L19.0269 19.092Z" fill="#844C3A"/>
<path d="M19.197 19.2697C19.0753 19.3101 19.0753 19.4393 18.9941 19.4474C19.0509 19.4877 19.1726 19.4716 19.27 19.4554C19.197 19.4474 19.1726 19.3908 19.197 19.2697Z" fill="#844C3A"/>
<path d="M19.4311 19.4393C19.3907 19.4312 19.3341 19.4473 19.2695 19.4554C19.318 19.4635 19.3664 19.4635 19.4311 19.4393Z" fill="#844C3A"/>
<path d="M19.1884 18.769C19.1642 18.8013 19.0996 18.8739 19.0996 18.9385L19.2127 18.8013L19.1884 18.769Z" fill="#844C3A"/>
<path d="M19.2139 18.8013C19.23 18.8416 19.2462 18.8659 19.2542 18.874C19.2462 18.8659 19.2381 18.8416 19.2139 18.8013Z" fill="#844C3A"/>
<path d="M19.1816 18.7612L19.1903 18.7698C19.199 18.7612 19.199 18.7525 19.1816 18.7612Z" fill="#844C3A"/>
<path d="M19.083 18.3086C19.1964 18.2925 19.3504 18.3248 19.3909 18.139C19.2694 18.1794 19.2451 18.2844 19.083 18.3086Z" fill="#844C3A"/>
<path d="M19.3187 18.5913L19.2864 18.4863C19.2541 18.5186 19.2138 18.5751 19.1572 18.5832L19.3187 18.5913Z" fill="#844C3A"/>
<path d="M19.392 18.5994L19.3193 18.5913L19.3355 18.6317L19.392 18.5994Z" fill="#844C3A"/>
<path d="M19.4488 19.197C19.5376 19.1889 19.5699 19.2212 19.6183 19.2535C19.6103 19.1889 19.586 19.1243 19.5457 19.0759C19.4972 19.1162 19.4003 19.1566 19.4488 19.197Z" fill="#844C3A"/>
<path d="M19.3428 18.9954H19.3594C19.3677 18.9871 19.3677 18.9787 19.3428 18.9954Z" fill="#844C3A"/>
<path d="M19.9609 19.6904L19.9859 19.6654L19.9609 19.682V19.6904Z" fill="#844C3A"/>
<path d="M19.5623 19.0597C19.5623 19.0032 19.5138 19.0112 19.4492 19.0193C19.4815 19.0355 19.5138 19.0597 19.5381 19.0839C19.5623 19.0759 19.5784 19.0678 19.5623 19.0597Z" fill="#844C3A"/>
<path d="M19.5943 19.5119C19.6105 19.4716 19.6185 19.4312 19.6185 19.3908C19.5943 19.4473 19.5539 19.5362 19.5943 19.5119Z" fill="#844C3A"/>
<path d="M19.3355 19.0435H19.3272C19.3022 19.0768 19.3189 19.0602 19.3355 19.0435Z" fill="#844C3A"/>
<path d="M19.335 19.0436C19.3673 19.0436 19.4157 19.0355 19.4561 19.0274C19.4319 19.0113 19.3996 19.0032 19.3673 19.0032C19.3511 19.0112 19.343 19.0274 19.335 19.0436Z" fill="#844C3A"/>
<path d="M20.934 19.1324C20.8042 19.2293 20.6094 19.2212 20.6825 19.0355C20.5283 19.0274 20.1551 19.4151 19.9766 19.6654C20.0334 19.625 20.082 19.5847 20.22 19.6089C20.2687 19.5281 20.2362 19.302 20.4066 19.2778C20.5608 19.3343 20.4309 19.3989 20.4066 19.5039C20.5283 19.3343 20.7474 19.4635 20.9583 19.2535L20.8042 19.2212C20.8447 19.197 20.9259 19.1889 20.934 19.1324Z" fill="#844C3A"/>
<path d="M19.8702 19.5039L19.8298 19.4796C19.8379 19.5362 19.8136 19.6008 19.749 19.73C19.854 19.7381 19.9105 19.7138 19.9509 19.6815L19.8379 19.5039H19.8702Z" fill="#844C3A"/>
<path d="M19.7082 19.3343C19.8621 19.2535 19.9916 19.2858 20.0969 19.1162C20.0078 19.0274 19.9268 19.1405 19.8216 19.1243C19.9835 19.2535 19.7082 19.1405 19.7244 19.3181C19.6758 19.302 19.6434 19.2858 19.6191 19.2616C19.6272 19.302 19.6272 19.3504 19.6191 19.3908L19.6272 19.3828C19.6353 19.3585 19.6434 19.3504 19.6434 19.3666H19.6515C19.6677 19.3504 19.6839 19.3424 19.7082 19.3343C19.7163 19.407 19.6758 19.3666 19.6515 19.3666L19.6272 19.3828L19.8297 19.4797C19.8216 19.4312 19.7811 19.3908 19.7082 19.3343Z" fill="#844C3A"/>
<path d="M19.7576 17.9937C19.7496 18.0098 19.7415 18.0179 19.7334 18.026C19.7496 18.0179 19.7657 18.0098 19.7576 17.9937Z" fill="#844C3A"/>
<path d="M19.7251 18.1229C19.7007 18.1229 19.6358 18.1633 19.6196 18.1148C19.6358 18.0502 19.6845 18.0664 19.7251 18.026C19.6683 18.0341 19.5628 18.026 19.5547 18.1471H19.579C19.5872 18.2521 19.4817 18.4621 19.4492 18.4702C19.5628 18.349 19.6358 18.2602 19.7251 18.1229Z" fill="#844C3A"/>
<path d="M19.7578 18.7044L19.9282 18.7851L19.9931 18.6236L19.9282 18.6801C19.8876 18.5832 19.8146 18.6721 19.7578 18.7044Z" fill="#844C3A"/>
<path d="M19.9032 19.7623L19.749 19.8592L20.0168 19.7704L19.9032 19.7623Z" fill="#844C3A"/>
<path d="M20.056 19.9238L19.9268 20.0127L20.0398 19.9965L20.056 19.9238Z" fill="#844C3A"/>
<path d="M23.3678 27.4507L23.4243 27.4022C23.3839 27.4184 23.3597 27.4426 23.3678 27.4507Z" fill="#844C3A"/>
<path d="M23.4562 24.1234C23.3835 24.2768 23.2543 24.4787 23.3916 24.3576L23.5127 24.2283C23.4562 24.2203 23.4481 24.1718 23.4562 24.1234Z" fill="#844C3A"/>
<path d="M26.3536 26.5139L26.402 26.4896C26.3374 26.4735 26.2809 26.4573 26.2324 26.4492C26.2728 26.4654 26.3132 26.4896 26.3536 26.5139Z" fill="#844C3A"/>
<path d="M27.0833 26.5946C27.0429 26.6511 27.0026 26.7077 26.9541 26.7642C27.0026 26.7319 27.0429 26.6754 27.0833 26.5946Z" fill="#844C3A"/>
<path d="M21.5407 25.8759L21.3711 25.9566C21.4357 26.0212 21.468 25.9324 21.5407 25.8759Z" fill="#844C3A"/>
<path d="M21.5172 21.636C21.501 21.7248 21.5091 21.7813 21.5333 21.8217C21.5656 21.7086 21.6464 21.5633 21.5172 21.636Z" fill="#844C3A"/>
<path d="M24.4868 25.9324C24.4464 25.9324 24.4141 25.9485 24.3818 25.9808C24.4303 25.9808 24.4626 25.9728 24.4868 25.9324Z" fill="#844C3A"/>
<path d="M21.6473 21.9671C21.6554 21.9509 21.6554 21.9348 21.6554 21.9186C21.6069 21.9025 21.5585 21.8782 21.5343 21.8298C21.51 21.9186 21.5181 21.9913 21.6473 21.9671Z" fill="#844C3A"/>
<path d="M17.0553 20.1184C17.0553 20.1101 17.0553 20.1018 17.0636 20.0934C17.047 20.1018 17.047 20.1101 17.0553 20.1184Z" fill="#844C3A"/>
<path d="M17.4033 17.4122C17.4195 17.4203 17.4437 17.4526 17.4599 17.4768C17.4599 17.4526 17.4518 17.4364 17.4033 17.4122Z" fill="#844C3A"/>
<path d="M20.5524 20.6591C20.5191 20.6259 20.5358 20.6675 20.5524 20.6591V20.6591Z" fill="#844C3A"/>
<path d="M20.957 20.053C20.9813 20.045 21.0055 20.0369 21.0378 20.0127C20.9974 20.0369 20.9732 20.045 20.957 20.053Z" fill="#844C3A"/>
<path d="M22.7998 21.6521C22.816 21.6198 22.816 21.6279 22.7998 21.6521V21.6521Z" fill="#844C3A"/>
<path d="M20.5764 20.5537C20.5683 20.578 20.5683 20.6103 20.5764 20.6345C20.5764 20.6183 20.5764 20.5941 20.5764 20.5537Z" fill="#844C3A"/>
<path d="M20.5118 20.6103C20.5037 20.5941 20.5037 20.578 20.4956 20.5699C20.4795 20.5861 20.4633 20.6022 20.5118 20.6103Z" fill="#844C3A"/>
<path d="M20.6002 20.7072C20.5841 20.6911 20.576 20.6668 20.5679 20.6345C20.5679 20.6507 20.5598 20.6587 20.5518 20.6587C20.5679 20.6668 20.576 20.683 20.6002 20.7072Z" fill="#844C3A"/>
<path d="M19.7643 22.9443C19.7643 22.9362 19.7643 22.9362 19.7724 22.9281C19.6916 22.9362 19.7078 22.9443 19.7643 22.9443Z" fill="#844C3A"/>
<path d="M25.648 23.9376H25.6318V23.9457L25.648 23.9376Z" fill="#844C3A"/>
<path d="M25.8508 23.9861C25.6317 24.0668 25.6317 24.0184 25.6317 23.9457L25.2666 24.301L25.8508 23.9861Z" fill="#844C3A"/>
<path d="M22.4266 26.5946L22.4022 26.7884C22.1182 26.8692 22.102 26.7319 22.029 26.9661C22.4266 26.5946 22.4022 27.2569 22.7998 26.8773L22.7755 27.0146C22.7592 26.9984 22.7349 27.0146 22.7268 26.9984C22.6538 27.2972 23.0919 26.7965 23.173 26.9903C23.1893 27.0711 23.173 27.1599 23.0919 27.1761L23.3029 27.1842C23.3272 27.2246 23.2542 27.2892 23.2298 27.2488L23.4489 27.3941L23.4327 27.4022C23.5219 27.3618 23.668 27.3215 23.741 27.3053C23.741 27.4103 23.6761 27.3295 23.6436 27.3941L23.8465 27.3861C23.8059 27.5395 23.6193 27.5637 23.5544 27.4749C23.3191 27.9918 23.7248 27.4507 23.8059 27.9029L23.6355 27.8626C23.53 28.1775 23.7085 28.1694 23.7978 28.444C23.7816 28.3229 23.7248 27.8141 23.9601 27.806C23.9763 27.8706 24.0331 27.9272 24.1792 27.8868C24.0818 28.0564 24.1954 28.0725 24.3333 28.121L24.2116 28.3471C24.3901 28.3471 24.4307 28.2179 24.5605 28.1452C24.7065 28.226 24.6984 28.4279 24.6984 28.6055C25.0392 28.7267 24.5443 28.2421 24.95 28.2825C25.1934 28.4198 25.4125 28.3229 25.664 28.1291C25.8506 28.1856 25.664 28.2906 25.737 28.3552C25.7776 28.2825 25.8181 28.2017 25.8506 28.121C25.8912 28.1129 25.8912 28.1775 25.8993 28.2098C26.0048 28.0968 25.8425 27.9595 25.9966 27.8303C25.9642 27.6849 26.0859 27.7576 26.2401 27.7818C26.3942 27.8141 26.6052 27.7737 26.589 27.5557C26.6944 27.5557 26.6782 27.693 26.7675 27.7495C26.8405 27.5234 26.8486 27.4265 26.8567 27.3295C26.8567 27.2407 26.8405 27.1438 26.7593 26.9661C26.8405 26.9096 26.9135 26.845 26.9865 26.7723C26.7593 26.9177 26.589 26.6269 26.3861 26.5219C26.2969 26.5623 26.2076 26.5865 26.167 26.5946C26.1265 26.5381 26.0778 26.4977 26.0291 26.4654C26.0697 26.4412 26.1589 26.4412 26.2725 26.4573C26.2482 26.4493 26.2238 26.4412 26.2076 26.4331C26.2969 26.3604 26.4429 26.3604 26.5971 26.4008C26.5484 26.4331 26.4997 26.4654 26.4429 26.4896C26.6052 26.53 26.7756 26.6108 26.9297 26.6027C26.8973 26.5785 26.8811 26.5381 26.8648 26.5058C26.9054 26.5219 26.946 26.5381 26.9703 26.53C26.9946 26.5219 26.9378 26.4816 26.8729 26.4412C26.9703 26.4089 27.0596 26.3766 27.1569 26.3443L27.0433 26.3362C27.0839 26.1908 27.1082 26.0455 27.1245 25.892C26.7512 25.7224 26.2887 25.787 26.0372 25.6336C26.2482 25.569 26.3293 25.4478 26.5403 25.3105C26.3699 25.5286 26.7756 25.4559 26.8243 25.6659C26.7999 25.569 26.9135 25.5286 26.9703 25.5286C26.8405 25.4559 26.7188 25.4075 26.589 25.3671C26.7675 25.2621 26.6782 25.2217 26.7025 25.1086C26.4104 25.3913 26.3537 25.0925 26.1833 25.0844C26.2887 24.9956 26.4105 24.9229 26.4754 25.0602C26.6133 24.7452 25.9804 25.2056 26.1021 24.931C26.1265 24.9552 26.1184 24.9794 26.1833 24.9471C26.0453 24.9633 26.0048 24.7694 26.1265 24.7291L26.1508 24.7533C26.0616 24.5595 25.7613 24.2607 25.4692 24.4464C25.5017 24.4141 25.81 24.2122 25.8749 24.1718L24.739 24.6079C24.9905 24.4464 25.4611 23.9134 25.7045 23.9457C25.7045 23.8811 25.7045 23.8003 25.5585 23.7842C25.5504 23.8326 25.2745 24.1153 25.2258 24.0991C25.4043 23.7923 25.307 23.9215 25.4287 23.6227C25.4125 23.7034 25.0149 23.9457 24.9743 23.873C25.0392 23.8407 25.3313 23.5823 25.3881 23.5742L24.9094 23.7034C25.0068 23.6873 25.2177 23.4692 25.2907 23.3561C25.2339 23.4288 25.1934 23.2189 25.1204 23.2027L25.0879 23.3319C24.9986 23.1139 24.4469 23.558 24.3252 23.3723C24.4145 23.3319 24.8201 23.0654 24.7958 22.9362C24.5767 23.0412 23.7735 23.4531 23.5138 23.4127L23.595 23.2996L23.384 23.2754C23.7167 23.13 24.4631 22.8797 24.7796 22.807C24.812 22.6778 24.8851 22.6939 24.8039 22.597C24.8769 22.4839 24.9986 22.5324 25.023 22.5566L24.9013 22.282C24.6984 22.4597 24.5443 22.274 24.3739 22.4274L24.7958 22.5001C24.593 22.6778 24.0737 22.8393 23.9844 22.6455C24.0331 22.5405 24.3901 22.3709 24.455 22.3143C24.3658 22.3547 24.1954 22.274 24.2359 22.2174L24.4063 22.1932C24.4145 22.0398 24.0088 22.274 24.1224 21.9994C24.1061 21.9509 24.309 21.6683 24.1792 21.7652C23.9844 22.0155 23.2379 22.6293 23.027 22.7343C23.0351 22.7101 23.1 22.3547 23.1893 22.2174C23.3272 22.0075 23.7167 21.9509 23.8384 21.7652C23.7816 21.8056 23.6761 21.8298 23.6436 21.8379C23.6599 21.7571 23.8384 21.7086 23.741 21.644C23.5138 21.8056 23.6193 21.4583 23.53 21.749C23.4002 21.7167 23.5057 21.6279 23.4165 21.531C23.3029 21.6763 22.8728 21.8217 22.743 21.7894C22.7998 21.749 22.8566 21.6763 22.8809 21.644C22.7673 21.4583 22.7917 21.2887 22.6619 21.1272C22.7024 21.0706 22.7024 20.9414 22.8241 20.901C22.7673 20.9091 22.6781 20.9495 22.6294 20.901C22.743 20.6588 22.743 20.9899 22.9134 20.7395C22.7836 20.8364 22.6375 20.7476 22.5077 20.7395C22.3292 20.9172 22.597 20.9333 22.7349 20.9414C22.4671 21.1514 22.0858 21.2564 21.8343 21.1837C21.6639 21.1029 21.9641 20.9899 21.9073 20.998C21.7531 20.7153 21.2663 21.1595 21.2987 20.7961C21.4042 20.578 21.6314 20.5215 21.745 20.4084C21.8992 20.4649 21.7693 20.6588 21.8343 20.7314L21.8424 20.578C21.9235 20.5699 22.029 20.6022 22.0128 20.683C22.1101 20.4892 21.7044 20.2388 21.6963 19.9319C21.6152 19.94 21.5016 19.9319 21.461 20.0127L21.534 20.0531C21.4448 20.2146 21.2501 20.0934 21.2501 20.2146C21.0878 20.2065 20.8606 20.2388 20.8525 20.0611L21.031 19.8835C20.9742 19.9319 20.9742 20.0531 21.0634 20.0369C20.9417 20.0611 21.1852 19.6493 20.8931 19.8027L20.82 19.9885C20.6578 19.9804 20.3657 20.045 20.3494 19.8996C20.1953 20.1015 20.39 19.9077 20.2196 20.1581C20.4468 19.8754 20.4143 20.4246 20.6253 20.0934C20.4225 20.3761 20.6172 20.3115 20.4711 20.5861C20.536 20.5295 20.5685 20.4569 20.601 20.5619C20.6253 20.5538 20.6578 20.5376 20.674 20.5376V20.5457V20.5376C20.6902 20.5376 20.6902 20.5295 20.674 20.5376C20.6821 20.4972 20.7064 20.4488 20.7389 20.4165C20.9174 20.3438 21.0229 20.4811 21.1365 20.4649C21.1446 20.5376 21.0472 20.5053 20.9985 20.5861L21.1689 20.5619C21.031 20.683 21.0391 20.8849 20.8606 20.8284L20.9417 20.9414C20.9093 21.0706 20.9499 21.1837 21.0553 21.1837C21.0634 21.2564 21.315 21.1837 21.1689 21.2322L21.388 21.3291L21.3555 21.3614C21.4691 21.539 21.8667 21.5148 21.7612 21.9105C21.8424 21.9348 21.9316 21.959 21.9641 22.0882L21.8586 22.2013C21.956 22.2417 21.9073 22.5162 22.0614 22.4436C21.7937 22.7827 22.2643 22.8474 22.313 23.025L22.4752 22.9039C22.532 23.0008 22.6456 23.0412 22.7998 23.0977L22.9377 22.9766C23.1325 22.9766 23.027 23.2996 23.1568 23.4288C23.0919 23.4611 23.0757 23.4127 23.0919 23.3642C22.9134 23.7923 23.6193 23.55 23.5138 23.8972C23.595 23.8972 23.6031 23.9376 23.5868 23.9942C23.5868 23.9942 23.5787 23.9861 23.5706 23.9942C23.5706 24.0022 23.5787 24.0022 23.5787 24.0103C23.5706 24.0507 23.5544 24.0911 23.5463 24.1234C23.5706 24.083 23.5868 24.0426 23.5868 24.0184C23.6112 24.0426 23.668 24.083 23.741 24.0991L23.6031 24.2364C23.6112 24.2364 23.6112 24.2364 23.6193 24.2445C23.595 24.3333 23.7167 24.2203 23.814 24.1072C23.8546 24.1072 23.9033 24.1072 23.952 24.0911C23.7329 24.3253 24.1305 24.1476 23.9114 24.406C24.0656 24.3333 24.1873 24.5595 24.4794 24.3656C24.4469 24.398 24.4388 24.4222 24.4145 24.398C24.4226 24.4706 24.4307 24.5514 24.5443 24.5352L24.3658 24.7129L24.7147 24.616C24.6498 24.7775 24.6011 24.8583 24.3982 24.9148C24.7552 24.8906 24.593 24.9794 24.9256 24.931L24.7958 25.0279C24.8364 25.0763 25.0717 25.0198 24.9905 25.1329C24.8283 25.4155 25.4287 25.7305 25.3638 26.1262C25.7208 25.8113 25.2664 26.3523 25.5666 26.1585C25.4855 26.2312 25.4449 26.2958 25.3394 26.312C25.5017 26.3685 25.2583 26.5219 25.5585 26.4493C25.453 26.4977 25.3962 26.4896 25.3394 26.5219C25.3638 26.5219 25.4368 26.5058 25.3719 26.53C25.307 26.5542 25.2826 26.5542 25.2339 26.5623C25.2583 26.5704 25.591 26.4977 25.9155 26.4573C25.7695 26.53 25.7938 26.5139 26.0048 26.5623C25.8993 26.5785 25.7857 26.5704 25.7532 26.5381C25.7289 26.5785 25.6072 26.53 25.8263 26.6592C25.7695 26.6269 25.7938 26.6673 25.8181 26.6915C25.7695 26.7158 25.7532 26.6996 25.7127 26.7561L25.7532 26.7804C25.8831 27.063 25.7208 26.8773 25.6721 26.9338L25.664 26.9015C25.4611 26.7238 25.5991 27.0388 25.4125 26.7965L25.4287 26.9903C25.4287 27.2003 25.3719 27.1357 25.3232 27.0388C25.2664 26.9419 25.2583 26.8127 25.1853 26.8692L25.1934 26.9823C25.0717 27.1034 25.2096 26.3927 25.2258 26.3362C25.2339 26.2958 25.2664 26.2877 25.2826 26.2716C25.307 26.0132 25.169 26.4977 25.0554 26.5058C25.1041 26.3766 25.2421 26.2151 25.2096 26.1585C25.2664 26.0616 24.7958 26.417 24.8526 26.1262C24.8039 26.2231 24.7552 26.32 24.6579 26.3443C24.5524 26.3039 24.7228 25.8678 24.4226 26.0374C24.4307 26.0051 24.4469 25.9808 24.4631 25.9647C24.3414 25.9647 24.1629 25.8678 23.9925 25.9566C24.4063 25.4236 23.3678 25.8032 23.8059 25.3671L23.595 25.1975L23.6436 25.1571C23.5544 25.0037 23.4002 25.0683 23.2542 25.1248C23.2542 25.0683 23.3191 25.044 23.3434 25.0279C23.2542 24.7614 23.2217 24.7614 22.8485 24.8179L22.9783 24.6645C22.8485 24.7048 22.954 24.188 22.6213 24.1637C22.6375 24.1476 22.67 24.1314 22.7024 24.1234C22.3373 24.0749 22.67 23.2592 22.0533 23.6711L21.7937 23.655C21.9073 23.873 21.534 23.8407 21.5097 23.9942C21.4123 23.9538 21.5097 23.663 21.6152 23.7276L21.599 23.768C21.9154 23.55 21.5016 23.4531 21.7044 23.2915C21.3799 22.9523 21.2501 22.4678 20.9823 22.1205L20.7876 22.3466L20.7064 22.2174C20.7308 22.1447 20.8525 22.0317 20.9093 22.1205C21.0066 21.9671 20.6821 22.064 20.6334 22.1044C20.5928 21.8621 20.958 21.9509 20.9174 21.8944L20.8444 21.8379L20.8281 21.8782C20.6902 21.8944 20.5847 21.9752 20.5117 21.8621C20.5036 21.7571 20.6253 21.7167 20.6172 21.6844C20.6334 21.6683 20.6334 21.6602 20.5928 21.644L20.4955 21.4744L20.3575 21.6763C20.2115 21.6844 20.2521 21.5229 20.0979 21.7571C20.3413 21.4018 19.7652 21.1029 19.822 20.9576C19.6111 20.9656 19.5462 20.8687 19.4731 20.7395C19.4569 20.7961 19.2622 20.9737 19.2054 20.8526C19.6679 20.5699 19.2541 20.5295 19.5137 20.2146C19.3595 20.4407 19.2541 19.9642 19.035 20.2953C19.0107 20.1823 19.1973 20.1742 19.2541 20.0288C18.9376 19.9481 19.0431 19.5039 18.8078 19.2939C18.7429 19.3343 18.6861 19.4312 18.5644 19.4393L18.7672 19.1001C18.7023 19.0678 18.394 19.2858 18.54 19.0516C18.4995 19.1001 18.4346 19.1647 18.394 19.1486C18.3372 18.4621 17.4609 18.2683 17.6881 17.3961C17.6151 17.5414 17.5745 17.501 17.5339 17.4445C17.5258 17.501 17.3798 17.5334 17.3067 17.598L17.4041 17.2345C17.1526 17.3314 17.2418 17.0084 17.0065 17.1215L17.0877 17.1699C16.7712 17.2345 16.5927 17.6464 16.252 17.8402C16.609 17.7676 15.9923 18.3894 16.5197 18.3006C16.4791 18.3813 16.3899 18.3329 16.3331 18.4056C16.5035 18.3652 16.5684 18.3975 16.5684 18.5348L16.5278 18.5429C16.7388 18.8013 16.6739 19.0032 16.7875 19.3747L16.9335 19.2455C16.9579 19.3262 16.9173 19.3747 16.8929 19.4312C17.185 19.3505 16.7875 19.2374 17.0958 19.1324C16.828 19.4393 17.396 19.6008 17.0714 19.9077C17.1364 20.0127 17.2337 19.7543 17.2986 19.8592L17.2175 19.9562L17.3635 19.8915C17.3879 19.9723 17.2824 20.0934 17.2013 20.15C17.2013 20.1257 17.1445 20.1177 17.1282 20.1096C17.0714 20.2792 17.3311 20.3276 17.3149 20.3761L17.3067 20.2388C17.5907 20.4488 17.6962 20.8768 18.0857 20.9899L18.1425 20.9172C18.4265 21.0141 18.1749 21.1352 18.4021 21.3048L18.3778 21.3129C18.4833 21.3048 18.5644 21.3371 18.5968 21.4018C18.4102 21.4179 18.4427 21.6279 18.2966 21.6279C18.605 21.7329 18.4914 21.6521 18.8646 21.5875L18.7672 21.7086C18.9133 21.6763 18.9701 21.636 19.0837 21.7167C18.9133 21.7086 18.9539 21.9267 18.7429 21.9267C18.6536 22.3547 19.2622 22.0559 18.962 22.4516C19.3677 22.2982 18.9944 22.1205 19.108 22.1205C19.181 21.9913 19.4163 22.0155 19.4407 22.1044C19.4894 22.1771 19.1161 22.5566 19.2622 22.7262C19.246 22.7101 19.2216 22.7262 19.2135 22.7101C19.181 22.8393 19.4326 22.7504 19.3595 22.9362C19.5948 22.8231 19.4326 23.0493 19.6922 22.8635L19.5056 22.7504C19.6435 22.7908 20.0087 22.6374 19.9843 22.9039C19.9275 22.9362 19.822 22.9443 19.7571 22.9443C19.7166 23.0493 19.8707 22.9927 19.8383 23.0977C19.5786 23.2915 19.6273 22.9443 19.3514 23.0008C19.2865 23.13 19.6841 23.0412 19.3758 23.2108C19.7733 23.0008 19.4731 23.4208 19.8383 23.3238L19.6841 23.4369C19.7247 23.4369 19.822 23.4208 19.8545 23.4531L19.6111 23.55C19.8545 23.5096 19.6273 23.8569 19.7896 23.873C19.6192 23.6873 19.9275 23.6792 19.9681 23.5096C20.3657 23.5823 19.6922 23.9699 19.9924 24.1718C19.9437 24.1557 19.9681 23.9618 20.0817 23.9618C20.0979 24.0345 20.0979 24.1476 20.0492 24.2445C20.2277 24.3899 20.179 24.0911 20.3332 24.083C20.2034 24.293 20.4793 24.1072 20.601 24.1314L20.4549 24.2607C20.536 24.5433 20.8038 24.0507 20.8444 24.3172L20.5766 24.4222L20.7146 24.4706L20.5279 24.5999C20.7389 24.5918 20.7389 24.6483 20.7795 24.7856C20.8606 24.6725 21.0553 24.5595 21.1365 24.6483C21.104 24.7856 20.9661 24.7371 21.0959 24.8421C20.9823 24.8987 20.8363 24.9713 20.9255 24.7937C20.8768 24.8341 20.8119 24.8502 20.7551 24.8825C20.7146 25.036 20.8768 25.0602 20.9174 25.1086C20.9093 25.0844 20.8931 25.0602 20.9093 25.0279L21.2744 25.0198C21.242 25.1006 21.1852 25.1167 21.1202 25.1329C21.1689 25.1571 21.2582 25.1167 21.315 25.1571C21.1852 25.254 21.0634 25.3671 20.9417 25.3428L21.2257 25.3913C21.1852 25.4478 21.1689 25.6094 21.104 25.6255C21.1202 25.7789 21.5422 25.6417 21.5665 25.8516C21.599 25.8355 21.6314 25.8274 21.672 25.8355C21.7531 25.9728 21.7126 26.207 21.9965 26.1908L21.8667 26.4735C22.0128 26.53 22.0209 26.1262 22.2724 26.2231C22.459 26.2797 22.1426 26.4412 22.1264 26.5381C22.2886 26.4977 22.6051 26.4008 22.5483 26.6754C22.4753 26.6754 22.4753 26.6108 22.4266 26.5946ZM23.9439 27.7979C23.8871 27.806 23.7329 27.8545 23.7735 27.7414C23.952 27.596 23.9195 27.701 23.9439 27.7979ZM26.6782 26.1504C26.7512 26.1666 26.735 26.2312 26.6701 26.3039C26.6458 26.2554 26.6458 26.2151 26.6782 26.1504ZM20.9985 20.9576H21.0066C20.9985 21.0626 21.0066 21.0222 20.9985 20.9576ZM20.9661 20.7799C20.9336 20.788 20.9174 20.8041 20.8931 20.8284C20.9417 20.8041 20.9661 20.8284 20.9742 20.8687C21.0148 20.8284 21.031 20.7961 20.9661 20.7799ZM20.4793 21.7329L20.463 21.7894C20.3738 21.7733 20.4225 21.7571 20.4793 21.7329Z" fill="#844C3A"/>
<path d="M27.0024 26.5785C26.9701 26.5946 26.9298 26.5946 26.8975 26.6027C26.9217 26.6269 26.9621 26.6269 27.0024 26.5785Z" fill="#844C3A"/>
<path d="M21.5669 25.8597L21.542 25.8763L21.5669 25.8597Z" fill="#844C3A"/>
<path d="M23.7982 21.6602C23.7982 21.7006 23.782 21.7409 23.7578 21.7733C23.7901 21.7409 23.8143 21.7086 23.7982 21.6602Z" fill="#844C3A"/>
<path d="M20.1875 20.3357L20.2925 20.3842C20.2521 20.3519 20.2763 20.3115 20.2844 20.2711C20.244 20.3034 20.2037 20.36 20.1875 20.3357Z" fill="#844C3A"/>
<path d="M20.5838 18.8982C20.5595 18.8982 20.5595 18.874 20.5353 18.882L20.4707 18.9386C20.503 18.987 20.5918 18.979 20.5838 18.8982Z" fill="#844C3A"/>
<path d="M20.6323 19.8592C20.7534 19.7542 20.6727 19.7381 20.608 19.6977L20.6161 19.7058C20.4223 19.835 20.5273 19.8511 20.6323 19.8592Z" fill="#844C3A"/>
<path d="M20.5915 19.6896C20.5754 19.6735 20.5512 19.6654 20.5512 19.6412C20.4704 19.6896 20.5512 19.6735 20.5915 19.6896Z" fill="#844C3A"/>
<path d="M20.7558 20.6911C20.7639 20.6345 20.5773 20.8041 20.6178 20.7476C20.4312 20.8526 20.9586 20.7718 20.7558 20.6911Z" fill="#844C3A"/>
<path d="M21.0223 19.4796L20.877 19.625L21.0304 19.5523L21.0223 19.4796Z" fill="#844C3A"/>
<path d="M21.2571 20.0046L21.2328 19.8835C21.2086 19.9077 21.1844 19.9077 21.1602 19.8996C21.1925 19.9642 21.2086 20.045 21.2571 20.0046Z" fill="#844C3A"/>
<path d="M21.153 19.9077C21.1369 19.8754 21.1046 19.8512 21.0723 19.8592C21.0884 19.8673 21.1207 19.8996 21.153 19.9077Z" fill="#844C3A"/>
<path d="M21.1685 19.5604L21.1523 19.617L21.1927 19.6896L21.1685 19.5604Z" fill="#844C3A"/>
<path d="M21.9883 20.9818L22.1094 21.0383C22.174 21.006 22.1821 20.9495 22.1336 20.9333C22.0771 20.9414 22.0287 20.9252 21.9883 20.9818Z" fill="#844C3A"/>
<path d="M22.1826 20.3438C22.1745 20.3922 22.1341 20.4245 22.0938 20.4811L22.2957 20.3276L22.1826 20.3438Z" fill="#844C3A"/>
<path d="M22.4602 20.5861C22.5248 20.5538 22.7267 20.6022 22.6217 20.4892C22.5571 20.5215 22.436 20.4649 22.4602 20.5861Z" fill="#844C3A"/>
<path d="M23.3755 22.2416L23.3512 22.2174L23.0352 22.4758L23.3755 22.2416Z" fill="#844C3A"/>
<path d="M25.1692 22.9039C25.153 22.7262 24.9505 23.0331 24.9586 22.8554C24.8613 22.8878 24.9505 23.0008 24.8613 23.025C24.9991 23.0331 24.9829 23.1058 25.1692 22.9039Z" fill="#844C3A"/>
<path d="M24.8679 23.025C24.8436 23.025 24.8194 23.025 24.7871 23.025C24.8275 23.0331 24.8436 23.0331 24.8679 23.025Z" fill="#844C3A"/>
<path d="M17.4201 17.0084L17.4443 16.8873L17.3555 17.0084H17.4201Z" fill="#844C3A"/>
<path d="M17.0634 17.0165L17.2744 16.863L17.0391 16.9357C17.0634 16.9438 17.104 16.968 17.0634 17.0165Z" fill="#844C3A"/>
<path d="M24.016 28.4602L24.0563 28.4117C24.0644 28.339 24.0402 28.3148 23.9756 28.2744L24.016 28.4602Z" fill="#844C3A"/>
<path d="M22.8232 27.273L22.8313 27.2972L22.9686 27.0953L22.8232 27.273Z" fill="#844C3A"/>
<path d="M21.8252 26.7077C21.8494 26.7481 21.9221 26.7481 21.9463 26.7885C21.8494 26.7481 22.0271 26.4977 21.8252 26.7077Z" fill="#844C3A"/>
</svg>
