<svg width="20" height="19" viewBox="0 0 20 19" fill="none" xmlns="http://www.w3.org/2000/svg">
<path d="M0 9.75896C0 7.80202 0 5.84223 0 3.87671C1.46714 2.80383 1.74687 0.555075 3.83056 0.0601196C5.53747 0.0601196 7.24438 0.0601196 8.98268 0.0601196C10.2786 0.984227 11.6001 1.92836 12.876 2.84103C12.5364 5.16131 13.4526 7.4444 11.6515 9.66168C14.346 11.5528 16.972 13.3953 19.5467 15.2006C19.5467 16.3851 19.5467 17.3263 19.5467 18.2533C19.2698 18.3678 18.9901 18.5966 18.7903 18.5451C17.5115 18.2018 16.2499 17.7927 14.4459 17.2434C13.3813 16.1934 11.8713 14.7085 10.3613 13.2236C10.9579 12.7401 11.5573 12.2595 12.7362 11.3068C11.3547 11.1437 10.4356 10.7746 10.1444 11.0493C8.72008 12.3882 6.78768 12.6228 5.18067 13.5212C3.28537 12.4998 0.416737 12.7716 0 9.75896ZM15.445 15.1148C15.3907 15.1691 15.3336 15.2235 15.2794 15.2779C15.4792 15.5067 15.6762 15.7356 15.876 15.9645C15.9645 15.8758 16.0558 15.7871 16.1443 15.6984C15.9102 15.5039 15.679 15.3065 15.2908 15.2893C15.3451 15.2349 15.4022 15.1806 15.4564 15.1262C15.2566 14.8973 15.0596 14.6685 14.8598 14.4396C14.7713 14.5283 14.68 14.617 14.5915 14.7057C14.8227 14.9002 15.0568 15.0948 15.445 15.1148ZM11.0778 4.67494C9.35946 2.91541 7.4242 1.32469 4.94947 0.761068C3.77918 1.91406 2.78301 2.89538 1.66124 3.99688C2.16075 6.15694 0.716445 8.78907 2.72021 10.8748C7.44418 11.6129 10.0274 9.50147 11.0778 4.67494Z" fill="#844C3A"/>
</svg>
