<svg width="25" height="19" viewBox="0 0 25 19" fill="none" xmlns="http://www.w3.org/2000/svg">
<path d="M2.59621 15.9731C2.2651 16.2306 1.84836 16.5338 1.41735 16.8485C-0.0440832 14.7714 2.24512 13.052 1.97396 11.0264C1.69708 8.96073 1.91401 6.83213 1.91401 4.43174C3.79789 4.43174 5.70175 4.43174 7.7569 4.43174C7.7569 3.47044 7.7569 2.81241 7.7569 2.30029C8.61035 1.45915 9.31538 0.766783 10.0233 0.0686951C10.871 0.0686951 11.7216 0.0686951 12.7463 0.0686951C13.5142 1.02141 14.3533 2.06282 15.2525 3.17862C16.8481 3.48761 18.6806 3.84237 20.1363 4.12561C22.2799 7.62463 23.9469 10.8633 24.9973 14.7657C24.4093 15.3437 23.7585 16.365 22.8222 16.8085C21.652 17.3635 20.259 17.498 18.9432 17.7154C16.9365 18.0444 14.7587 18.8942 12.9319 18.4364C9.63222 17.6124 6.34685 17.8585 2.87594 17.6925C2.82456 17.0975 2.77603 16.5767 2.59621 15.9731C5.31071 16.0446 7.8568 15.9702 10.3972 16.0646C12.9319 16.159 15.5236 15.5697 18.2067 16.7055C20.299 13.1121 17.7729 8.90923 19.8794 4.941C14.4133 6.72342 9.00711 5.53037 3.33263 6.12546C4.76267 7.25842 4.59998 8.21686 4.00056 9.45568C3.55813 10.3683 3.82358 11.5871 3.59238 12.6285C3.34119 13.7615 2.87879 14.8487 2.59621 15.9731ZM9.46381 3.51336C10.7397 3.4075 11.8643 3.31309 13.7311 3.15859C11.9271 2.60069 10.8853 2.2774 9.74354 1.92263C9.68075 2.27168 9.61509 2.64361 9.68931 3.50191C9.63507 3.44755 9.57798 3.39319 9.52375 3.33883C9.28969 3.53338 9.05849 3.73079 8.82444 3.92534C8.91292 4.01403 9.00426 4.10273 9.09275 4.19142C9.29255 3.95967 9.49235 3.73079 9.46381 3.51336ZM21.3094 10.3312C20.9384 11.9305 20.3532 13.6099 21.0839 15.3494C21.6862 15.1434 22.0516 15.0175 22.5825 14.8373C22.1429 13.2837 21.7262 11.8074 21.3094 10.3312Z" fill="#844C3A"/>
</svg>
