<svg width="16" height="21" viewBox="0 0 16 21" fill="none" xmlns="http://www.w3.org/2000/svg">
<g clip-path="url(#clip0)">
<path d="M6.69097 13.7062C6.38199 14.9078 6.11583 16.0659 5.78237 17.2052C5.38466 18.5687 4.61985 19.736 3.77855 20.8567C3.72654 20.9252 3.62252 20.9532 3.54604 20.9999C3.50933 20.9127 3.4512 20.8318 3.43897 20.7415C3.16669 18.9547 3.22788 17.1896 3.67759 15.4277C4.13648 13.6284 4.53419 11.8136 4.94107 10.0018C4.98084 9.82439 4.95025 9.6096 4.89518 9.42905C4.54642 8.31461 4.47606 7.20017 4.9992 6.13243C5.20417 5.71529 5.53151 5.32306 5.8925 5.03355C6.41258 4.61642 7.04279 4.55727 7.65464 4.86545C8.25426 5.17052 8.53572 5.74331 8.48065 6.36901C8.40723 7.17527 8.20226 7.97218 8.01564 8.76599C7.86268 9.4166 7.65159 10.0516 7.47721 10.696C7.07032 12.2058 8.30627 13.3607 9.7839 13.0837C10.5977 12.9311 11.2065 12.4548 11.6898 11.8011C12.5311 10.6649 12.9166 9.34811 13.0298 7.96284C13.094 7.15659 13.1002 6.3192 12.9655 5.52229C12.7177 4.0592 11.8428 3.00391 10.4814 2.49027C8.40111 1.70269 6.34834 1.84589 4.54336 3.22804C2.71698 4.62576 2.0317 6.56513 2.43552 8.85315C2.51813 9.31698 2.81182 9.75902 3.06574 10.173C3.234 10.4439 3.35331 10.6711 3.23705 10.9949C3.14528 11.2501 3.10551 11.5241 3.03208 11.7856C2.91889 12.184 2.7231 12.2774 2.34681 12.1062C1.42596 11.6891 0.807991 10.9637 0.462293 10.0236C-0.36677 7.76673 -0.0547238 5.62502 1.23629 3.63895C2.54566 1.62175 4.45465 0.538446 6.75828 0.149327C8.57855 -0.158856 10.3499 -0.0125471 12.0478 0.799934C14.8042 2.12294 16.3216 4.97752 15.9453 8.05935C15.7342 9.79015 15.2814 11.412 14.2229 12.8128C13.0757 14.3351 11.5491 15.1538 9.66765 15.1818C8.48065 15.2005 7.44967 14.7584 6.69097 13.7062Z" fill="white"/>
</g>
<defs>
<clipPath id="clip0">
<rect width="16" height="21" fill="white"/>
</clipPath>
</defs>
</svg>
