<svg width="13" height="17" viewBox="0 0 13 17" fill="none" xmlns="http://www.w3.org/2000/svg">
<g clip-path="url(#clip0)">
<path d="M5.42038 11.0163C5.1889 11.9165 4.98951 12.784 4.7397 13.6376C4.44176 14.659 3.8688 15.5335 3.23854 16.3731C3.19957 16.4244 3.12165 16.4454 3.06435 16.4804C3.03685 16.4151 2.99331 16.3544 2.98414 16.2868C2.78016 14.9482 2.826 13.6259 3.1629 12.306C3.50668 10.958 3.80462 9.59843 4.10944 8.24116C4.13923 8.10823 4.11632 7.94732 4.07506 7.81206C3.81379 6.97718 3.76108 6.1423 4.15299 5.3424C4.30654 5.0299 4.55177 4.73606 4.82221 4.51918C5.21182 4.20668 5.68394 4.16237 6.14231 4.39325C6.59152 4.62179 6.80237 5.05089 6.76111 5.51964C6.70611 6.12364 6.55256 6.72065 6.41275 7.31533C6.29816 7.80273 6.14002 8.27848 6.00939 8.76121C5.70457 9.89227 6.63048 10.7575 7.73744 10.5499C8.34708 10.4356 8.80316 10.0788 9.16527 9.5891C9.79553 8.73789 10.0843 7.75143 10.1691 6.71366C10.2172 6.10965 10.2218 5.48232 10.121 4.88531C9.93533 3.78924 9.27986 2.99867 8.25999 2.61388C6.70153 2.02386 5.16369 2.13114 3.8115 3.16658C2.44326 4.21368 1.92989 5.66656 2.23241 7.38063C2.29429 7.72811 2.51431 8.05926 2.70453 8.36943C2.83059 8.57232 2.91997 8.74256 2.83288 8.98509C2.76412 9.17632 2.73433 9.38155 2.67932 9.57744C2.59452 9.87594 2.44785 9.94591 2.16595 9.81764C1.4761 9.50514 1.01315 8.96177 0.754166 8.25749C0.133074 6.56674 0.366843 4.96227 1.334 3.47441C2.31492 1.96323 3.74504 1.15167 5.4708 0.860159C6.83445 0.629284 8.16144 0.738891 9.43342 1.34756C11.4984 2.33869 12.6351 4.4772 12.3532 6.78595C12.1951 8.08258 11.8559 9.29759 11.0629 10.347C10.2035 11.4874 9.05984 12.1007 7.65035 12.1217C6.76112 12.1357 5.98876 11.8046 5.42038 11.0163Z" fill="#CF805E"/>
</g>
<defs>
<clipPath id="clip0">
<rect width="11.9864" height="15.7321" fill="white" transform="translate(0.40918 0.748535)"/>
</clipPath>
</defs>
</svg>
