<svg width="20" height="19" viewBox="0 0 20 19" fill="none" xmlns="http://www.w3.org/2000/svg">
<path d="M18.0427 18.5137C17.1778 16.5682 16.7126 14.3394 15.3796 12.8803C14.1522 11.5385 11.9914 11.0264 10.7869 10.4227C9.25124 10.7374 8.21511 10.952 6.51106 11.301C5.6576 12.3796 4.41881 13.9475 3.12578 15.584C3.02017 16.5253 2.90314 17.5609 2.74044 19.0029C1.73285 18.322 1.07635 17.8757 0.476929 17.4723C0.542579 13.8359 0.542577 13.8359 5.63476 8.8234C3.57962 5.33869 4.83554 2.50342 7.72987 0.0686951C9.14278 0.0686951 10.5643 0.0686951 11.9772 0.0686951C12.8877 0.964193 13.7925 1.85683 14.8287 2.87535C14.8287 4.23433 14.8287 5.73923 14.8287 7.3414C14.4262 7.73908 13.9238 8.23117 13.3958 8.75188C13.49 8.93498 13.5356 9.19247 13.6926 9.31264C15.2112 10.4599 16.7497 11.5843 18.0256 12.5227C18.5137 14.1392 18.8876 15.3866 19.3528 16.9287C18.9618 17.4007 18.4766 17.9901 18.0427 18.5137ZM10.0134 2.78094C9.1856 3.31595 8.18086 3.9654 7.28744 4.54046C7.28744 5.58473 7.28744 6.41729 7.28744 7.22982C7.70704 7.64466 8.1095 8.03948 8.54622 8.4715C9.85637 8.38281 11.3892 8.94643 12.3111 7.13254C12.3111 6.11974 12.3111 4.90381 12.3111 3.72221C11.6346 3.44183 11.0267 3.19579 10.0134 2.78094Z" fill="#844C3A"/>
</svg>
