<svg width="24" height="32" viewBox="0 0 24 32" fill="none" xmlns="http://www.w3.org/2000/svg">
<path d="M10.2458 2.1766C10.1812 2.1766 10.2377 2.33812 10.2377 2.37042C10.3346 2.30582 10.2377 2.12814 10.2458 2.1766Z" fill="#844C3A"/>
<path d="M11.1946 1.61126L11.1865 1.68395L11.3157 1.4982L11.1946 1.61126Z" fill="#844C3A"/>
<path d="M12.1525 1.53859C12.0551 1.24785 11.8117 1.59512 11.6332 1.50628L11.6007 1.44975L11.5439 1.68396C11.7387 1.62742 12.0064 1.45783 12.1525 1.53859Z" fill="#844C3A"/>
<path d="M12.5891 2.17659C12.5729 2.06352 12.686 2.08775 12.4922 2.13621C12.5003 2.15236 12.5003 2.15236 12.5083 2.16851C12.5245 2.16851 12.5487 2.16851 12.5891 2.17659Z" fill="#844C3A"/>
<path d="M12.5087 2.16852C12.4279 2.16852 12.5572 2.26543 12.5087 2.16852V2.16852Z" fill="#844C3A"/>
<path d="M12.8975 2.14429L12.7764 2.22505C12.7925 2.28966 12.8814 2.32196 12.841 2.36234C12.954 2.33004 12.946 2.25735 12.8975 2.14429Z" fill="#844C3A"/>
<path d="M13.0441 1.95047L12.9795 1.98277C12.9795 2.01508 12.9956 2.02315 13.0441 1.95047Z" fill="#844C3A"/>
<path d="M12.8418 2.05544L12.9791 1.99083C12.971 1.9343 12.9791 1.84546 12.9145 2.00698C12.9387 1.92622 12.8983 1.99891 12.8418 2.05544Z" fill="#844C3A"/>
<path d="M12.7764 1.99893C12.7199 1.92624 12.6391 1.87779 12.7683 1.79703C12.5341 1.81318 12.5583 2.01508 12.7764 1.99893Z" fill="#844C3A"/>
<path d="M12.1919 1.23979L12.0869 1.15903L11.998 1.25594C12.0465 1.20748 12.1999 1.32862 12.1919 1.23979Z" fill="#844C3A"/>
<path d="M13.4742 2.44309C13.4985 2.38655 13.4985 2.28157 13.5227 2.20081L13.4258 2.24119C13.45 2.29772 13.5065 2.36233 13.4742 2.44309Z" fill="#844C3A"/>
<path d="M13.5225 2.20888L13.6678 2.15234C13.5709 2.10389 13.5386 2.13619 13.5225 2.20888Z" fill="#844C3A"/>
<path d="M13.1255 1.64355L12.874 1.8293C12.9714 1.76469 13.0688 1.70816 13.1661 1.65163L13.1255 1.64355Z" fill="#844C3A"/>
<path d="M13.8311 2.62076L13.71 2.71768C13.7746 2.66922 13.8392 2.62076 13.9038 2.58038L13.8311 2.62076Z" fill="#844C3A"/>
<path d="M14.0669 2.75C13.9615 2.82268 14.002 2.9519 13.9209 2.97613C13.9858 3.00036 14.0994 2.95998 14.2049 2.92767C14.1237 2.92767 14.0832 2.87922 14.0669 2.75Z" fill="#844C3A"/>
<path d="M14.3747 2.89536C14.3343 2.89536 14.2697 2.91151 14.2051 2.92766C14.2535 2.92766 14.302 2.91958 14.3747 2.89536Z" fill="#844C3A"/>
<path d="M13.8396 2.25735C13.8315 2.28966 13.8073 2.38657 13.8396 2.45118L13.8799 2.28158C13.8638 2.27351 13.8557 2.26543 13.8396 2.25735Z" fill="#844C3A"/>
<path d="M13.8799 2.27353C13.9203 2.30583 13.9445 2.33006 13.9606 2.33814C13.9526 2.33006 13.9283 2.31391 13.8799 2.27353Z" fill="#844C3A"/>
<path d="M13.8311 2.24928L13.8391 2.25736C13.8391 2.24121 13.8391 2.23313 13.8311 2.24928Z" fill="#844C3A"/>
<path d="M13.4258 1.87778C13.5231 1.8051 13.7179 1.75664 13.6124 1.57089C13.515 1.6678 13.5718 1.77279 13.4258 1.87778Z" fill="#844C3A"/>
<path d="M13.871 2.03125L13.766 1.94241C13.7499 1.98279 13.7499 2.05548 13.6934 2.08778L13.871 2.03125Z" fill="#844C3A"/>
<path d="M13.9528 2.01508L13.8721 2.03123L13.9044 2.07161L13.9528 2.01508Z" fill="#844C3A"/>
<path d="M14.31 2.62887C14.3993 2.60464 14.4561 2.64502 14.521 2.67733C14.4804 2.60464 14.4318 2.53196 14.3668 2.49158C14.3263 2.53196 14.237 2.58849 14.31 2.62887Z" fill="#844C3A"/>
<path d="M14.1152 2.43559H14.1319C14.1319 2.41063 14.1236 2.41063 14.1152 2.43559Z" fill="#844C3A"/>
<path d="M15.0493 3.203L15.066 3.17804L15.041 3.19468L15.0493 3.203Z" fill="#844C3A"/>
<path d="M14.3746 2.45925C14.3504 2.39465 14.2938 2.4108 14.2373 2.43503C14.2858 2.4431 14.3261 2.45925 14.3665 2.49156C14.3827 2.47541 14.3907 2.45925 14.3746 2.45925Z" fill="#844C3A"/>
<path d="M14.5771 2.96804C14.5771 2.91959 14.5771 2.87113 14.569 2.83075C14.5529 2.88728 14.5367 2.99227 14.5771 2.96804Z" fill="#844C3A"/>
<path d="M14.1153 2.48349H14.107C14.0986 2.52508 14.107 2.50845 14.1153 2.48349Z" fill="#844C3A"/>
<path d="M14.1152 2.48347C14.1556 2.4754 14.196 2.45924 14.2364 2.43502C14.2041 2.42694 14.1637 2.42694 14.1314 2.42694C14.1233 2.44309 14.1233 2.46732 14.1152 2.48347Z" fill="#844C3A"/>
<path d="M16.0553 2.66923C15.9255 2.75806 15.6902 2.71768 15.7064 2.48348C15.5036 2.45117 15.2034 2.88728 15.0654 3.17801C15.1222 3.13763 15.1709 3.08918 15.3413 3.14571C15.3738 3.0488 15.2602 2.75806 15.463 2.74999C15.6659 2.85497 15.536 2.91958 15.536 3.0488C15.6334 2.8469 15.9336 3.06495 16.1283 2.8469L15.9255 2.76614C15.9579 2.72576 16.0634 2.73383 16.0553 2.66923Z" fill="#844C3A"/>
<path d="M14.8855 2.95996L14.8287 2.93573C14.8531 3.00034 14.845 3.0811 14.8125 3.23454C14.9342 3.25069 14.991 3.22647 15.0397 3.19416L14.8531 2.96803L14.8855 2.95996Z" fill="#844C3A"/>
<path d="M14.6425 2.75807C14.7886 2.66116 14.9508 2.70961 15.0158 2.50771C14.8697 2.39465 14.821 2.53194 14.6912 2.51579C14.9265 2.66923 14.5695 2.54002 14.6506 2.74192C14.5938 2.72577 14.5533 2.70154 14.5127 2.67731C14.537 2.72577 14.5533 2.77422 14.5614 2.83075V2.82268C14.5695 2.79845 14.5695 2.79037 14.5776 2.80653H14.5857C14.6019 2.7823 14.6263 2.76615 14.6425 2.75807C14.675 2.83883 14.6182 2.79845 14.5857 2.79845L14.5695 2.8146C14.6587 2.84691 14.748 2.88729 14.8291 2.93574C14.8048 2.87113 14.748 2.82268 14.6425 2.75807Z" fill="#844C3A"/>
<path d="M13.8801 1.27206C13.8801 1.28822 13.8801 1.30437 13.8721 1.31244C13.9044 1.29629 13.9205 1.28822 13.8801 1.27206Z" fill="#844C3A"/>
<path d="M13.9607 1.40938C13.9283 1.42553 13.8877 1.48207 13.8228 1.44169C13.7822 1.369 13.8552 1.36093 13.8715 1.31247C13.8147 1.3367 13.6849 1.37708 13.7822 1.50629L13.8066 1.49014C13.9039 1.58705 13.9445 1.84549 13.912 1.86164C13.9607 1.70012 13.9851 1.58705 13.9607 1.40938Z" fill="#844C3A"/>
<path d="M14.416 2.03124C14.4972 2.05546 14.5783 2.07162 14.6594 2.10392L14.6432 1.9101L14.5945 1.99086C14.5053 1.87779 14.4647 1.98278 14.416 2.03124Z" fill="#844C3A"/>
<path d="M14.9999 3.28302L14.8457 3.37993L15.1297 3.31532L14.9999 3.28302Z" fill="#844C3A"/>
<path d="M15.2269 3.50916L15.0977 3.59799L15.2269 3.60607V3.50916Z" fill="#844C3A"/>
<path d="M9.3518 15.7523L9.25488 15.7685C9.29526 15.7685 9.32757 15.7604 9.3518 15.7523Z" fill="#844C3A"/>
<path d="M9.96939 15.922L10.0017 15.8493C9.96132 15.8816 9.94516 15.9058 9.96939 15.922Z" fill="#844C3A"/>
<path d="M17.4168 10.5514C17.2545 10.6322 17.003 10.6887 17.1815 10.7129H17.36C17.3519 10.6403 17.3763 10.5918 17.4168 10.5514Z" fill="#844C3A"/>
<path d="M14.8379 14.9043L14.8863 14.9447C14.8944 14.8801 14.9106 14.8155 14.9187 14.7671C14.8944 14.8074 14.8702 14.8559 14.8379 14.9043Z" fill="#844C3A"/>
<path d="M14.9426 15.6312L14.7568 15.5585C14.7972 15.5908 14.8537 15.6151 14.9426 15.6312Z" fill="#844C3A"/>
<path d="M6.10549 14.1776L5.89551 14.226C6.0328 14.3471 6.0328 14.226 6.10549 14.1776Z" fill="#844C3A"/>
<path d="M17.1488 6.17422C17.1165 6.27921 17.1165 6.34382 17.1246 6.40035C17.1892 6.27921 17.2942 6.14192 17.1488 6.17422Z" fill="#844C3A"/>
<path d="M10.0576 14.0241C10.0091 14.0402 9.9849 14.0725 9.96875 14.1129C10.0253 14.0887 10.0576 14.0645 10.0576 14.0241Z" fill="#844C3A"/>
<path d="M17.205 6.61031C17.2212 6.59415 17.2212 6.578 17.2292 6.56185C17.1808 6.51339 17.1404 6.47301 17.1243 6.40033C17.0839 6.48917 17.0677 6.578 17.205 6.61031Z" fill="#844C3A"/>
<path d="M6.21973 2.33005C6.2278 2.33005 6.24396 2.32197 6.25203 2.32197C6.24396 2.29774 6.23588 2.30582 6.21973 2.33005Z" fill="#844C3A"/>
<path d="M9.94483 2.03931C9.9206 2.05546 9.88022 2.07161 9.83984 2.08776C9.86407 2.09584 9.89638 2.07969 9.94483 2.03931Z" fill="#844C3A"/>
<path d="M15.998 4.61615C15.9481 4.56624 15.9814 4.62447 15.998 4.61615V4.61615Z" fill="#844C3A"/>
<path d="M16.3389 3.92104C16.3631 3.92104 16.3873 3.91296 16.4277 3.88873C16.3873 3.91296 16.3631 3.92104 16.3389 3.92104Z" fill="#844C3A"/>
<path d="M18.4316 6.99842C18.4566 6.97346 18.4566 6.98178 18.4316 6.99842V6.99842Z" fill="#844C3A"/>
<path d="M15.9971 4.48633C15.9971 4.51863 16.0051 4.55901 16.0132 4.59132C16.0132 4.56709 16.0132 4.53478 15.9971 4.48633Z" fill="#844C3A"/>
<path d="M15.9413 4.54286C15.9332 4.51863 15.9251 4.50248 15.9171 4.48633C15.8848 4.4944 15.8767 4.51056 15.9413 4.54286Z" fill="#844C3A"/>
<path d="M16.0698 4.68824C16.0455 4.65594 16.0294 4.62363 16.0132 4.58325C16.0132 4.5994 16.0051 4.61556 15.9971 4.61556C16.0132 4.63171 16.0375 4.65594 16.0698 4.68824Z" fill="#844C3A"/>
<path d="M4.47588 8.60508C4.48395 8.597 4.48395 8.597 4.49203 8.58893C4.41935 8.51624 4.42742 8.54855 4.47588 8.60508Z" fill="#844C3A"/>
<path d="M18.5943 12.9096V12.8935L18.5781 12.9015L18.5943 12.9096Z" fill="#844C3A"/>
<path d="M18.5608 13.2488C18.4312 13.0227 18.4879 12.9742 18.577 12.9015L18.083 12.7643C18.245 12.9177 18.4069 13.0792 18.5608 13.2488Z" fill="#844C3A"/>
<path d="M7.88418 15.2436C7.92474 15.3243 7.96531 15.4051 8.014 15.4778C7.6651 15.607 7.51905 15.4131 7.60831 15.72C7.87606 15.2516 8.43591 16.035 8.6631 15.5262L8.75235 15.6797C8.7199 15.6635 8.69556 15.6877 8.6631 15.6716C8.83349 16.0108 8.98766 15.3728 9.27975 15.5424C9.37712 15.615 9.44203 15.712 9.34466 15.7523L9.63676 15.6958C9.70978 15.7281 9.66922 15.8169 9.59619 15.7846C9.73413 15.8089 9.86395 15.8169 10.0019 15.8331L9.99377 15.8493C10.0668 15.7766 10.221 15.6716 10.294 15.6312C10.3751 15.7281 10.2372 15.6797 10.2453 15.7523C10.3264 15.7281 10.4076 15.6877 10.4806 15.6554C10.5455 15.8089 10.3427 15.9219 10.1966 15.8735C10.3021 16.455 10.3995 15.7685 10.797 16.1561L10.578 16.1965C10.6672 16.5276 10.8538 16.4388 11.081 16.6569C11.0242 16.5519 10.651 16.1238 10.9106 16.0108C10.9755 16.0592 11.0648 16.0835 11.2027 15.9865C11.1865 16.1804 11.3163 16.1481 11.4786 16.1481L11.4543 16.4065C11.6328 16.3419 11.6246 16.2046 11.7301 16.0996C11.9167 16.1319 11.9573 16.3338 11.9979 16.5034C12.3062 16.5438 11.7869 16.1804 12.152 16.1319C12.4036 16.2288 12.5902 16.1319 12.8742 15.9542C13.0527 16.035 12.8498 16.1158 12.9229 16.1804L13.0689 15.9623C13.1095 15.9623 13.1014 16.0269 13.0932 16.0592C13.215 15.9704 13.0851 15.8089 13.2799 15.712C13.2961 15.4212 13.7424 16.0835 13.9533 15.7281C14.0263 15.7927 13.9452 15.8896 13.9777 15.9865C14.286 15.72 14.2535 15.7846 14.4726 15.4535L14.7485 15.5666C14.5294 15.4212 14.7079 15.1466 14.8377 14.9124C14.7566 14.8398 14.6917 14.7671 14.643 14.7428L14.8864 14.5329C14.927 14.5652 14.927 14.654 14.9107 14.7751C14.927 14.7509 14.9351 14.7267 14.9432 14.7025C15.073 14.7671 15.0649 14.9205 15.0243 15.082C14.9756 15.0417 14.927 15.0013 14.8783 14.9609C14.8458 15.1305 14.8215 15.3162 14.8702 15.4616C14.8864 15.4293 14.9189 15.3889 14.9513 15.3647C14.9432 15.4131 14.9351 15.4535 14.9513 15.4778C14.9675 15.502 14.9838 15.4374 15.0162 15.3566L15.1623 15.6151L15.146 15.502C15.3002 15.5181 15.4544 15.5343 15.6166 15.5424C15.8195 15.1547 15.9006 14.6782 16.2252 14.3552C16.2333 14.5975 16.3712 14.6702 16.4929 14.8882C16.2495 14.7267 16.209 15.1709 15.9331 15.2274C16.071 15.2032 16.0872 15.3243 16.071 15.3728C16.1846 15.2355 16.2901 15.0982 16.3875 14.9528C16.4767 15.1386 16.5497 15.0417 16.7039 15.0497C16.4199 14.7509 16.8662 14.6379 16.9392 14.4198C17.0284 14.5167 17.0771 14.6621 16.8662 14.7751C17.2719 14.864 16.8499 14.2017 17.1988 14.2421C17.1583 14.2825 17.1258 14.2825 17.1502 14.3552C17.1745 14.1856 17.4666 14.0241 17.499 14.1614L17.4585 14.2017C17.7911 13.9756 18.2049 13.2892 17.921 13.0711C17.9615 13.0873 18.2536 13.3295 18.2942 13.3861C18.0914 12.9903 17.8398 12.6269 17.564 12.3039C17.8074 12.4816 18.5457 12.5704 18.562 12.9257C18.6431 12.8611 18.7323 12.7804 18.708 12.5623C18.6431 12.6027 18.2536 12.53 18.2617 12.4493C18.6512 12.3766 18.4808 12.3846 18.8459 12.2151C18.7567 12.2797 18.351 12.0293 18.4078 11.9162C18.4646 11.9566 18.8459 12.0455 18.8784 12.1101C18.7648 11.9485 18.6512 11.7951 18.5376 11.6497C18.5944 11.7547 18.9109 11.7709 19.0488 11.7224C18.9514 11.7386 19.1299 11.4317 19.1056 11.3267L18.9676 11.4478C19.1137 11.0763 18.4159 10.9552 18.497 10.6079C18.5863 10.6645 19.0569 10.8018 19.138 10.616C18.919 10.4868 18.067 10.1072 17.9047 9.8084L18.0427 9.75995L17.9047 9.52574C18.2536 9.67111 18.9676 10.1476 19.2192 10.4303C19.3409 10.301 19.3815 10.406 19.3896 10.188C19.5194 10.1234 19.5681 10.3253 19.5681 10.3899C19.6168 10.2203 19.6492 10.0507 19.6898 9.88109C19.422 9.88109 19.4382 9.48536 19.2111 9.49344C19.3003 9.67111 19.3815 9.85686 19.4626 10.0507C19.1948 10.0426 18.7161 9.68727 18.7729 9.36423C18.8865 9.28347 19.2597 9.44498 19.349 9.43691C19.2597 9.38845 19.1786 9.10579 19.2435 9.07349L19.3896 9.21886C19.495 9.02503 19.0326 8.90389 19.2922 8.66969C19.3084 8.58893 19.6411 8.42741 19.4788 8.41126C19.1705 8.54855 18.2131 8.597 17.9778 8.52432C18.0021 8.50009 18.2617 8.1286 18.4078 8.03168C18.6431 7.88632 19.0001 8.18513 19.2029 8.07206C19.1299 8.07206 19.0326 8.00746 19.0001 7.97515C19.0569 7.88632 19.2354 7.99938 19.1867 7.81363C18.9109 7.80556 19.1786 7.44214 18.9433 7.74902C18.8459 7.57943 18.9839 7.5552 18.9433 7.34522C18.7729 7.43406 18.3185 7.24024 18.2131 7.09487C18.2861 7.09487 18.3672 7.03834 18.4078 7.01411C18.3672 6.66684 18.4403 6.44879 18.3348 6.13382C18.3916 6.08537 18.4078 5.89962 18.5457 5.92385C18.4808 5.89154 18.3835 5.88347 18.3348 5.78656C18.4727 5.5039 18.4646 5.99653 18.6674 5.7381C18.5133 5.77848 18.351 5.56043 18.1968 5.47159C17.994 5.61696 18.2942 5.79463 18.4484 5.9077C18.1238 6.02076 17.71 5.93192 17.426 5.73002C17.2394 5.55235 17.5721 5.52812 17.5072 5.51197C17.3124 5.05972 16.7931 5.47159 16.785 5.01126C16.8743 4.7609 17.142 4.7609 17.2475 4.63976C17.4423 4.77706 17.3205 4.99511 17.4017 5.10817L17.3936 4.8982C17.4909 4.91435 17.6208 5.01126 17.6045 5.11625C17.71 4.89012 17.1745 4.38133 17.0771 3.96946C16.9798 3.9533 16.8418 3.90485 16.8094 4.00176L16.9067 4.08252C16.8337 4.27634 16.5741 4.04214 16.5984 4.21981C16.4037 4.16328 16.1359 4.13098 16.071 3.8887L16.2414 3.70295C16.1846 3.7514 16.2171 3.91292 16.3144 3.921C16.1684 3.91292 16.3631 3.43644 16.0386 3.5495L15.998 3.78371C15.7951 3.72718 15.4706 3.73525 15.4057 3.54143C15.2677 3.76756 15.4544 3.55758 15.3164 3.84832C15.5193 3.52528 15.6166 4.25212 15.7951 3.87254C15.6248 4.18751 15.8438 4.16328 15.7302 4.48632C15.7951 4.42979 15.8114 4.34095 15.8844 4.4944C15.9087 4.48632 15.9412 4.47824 15.9655 4.47824V4.4944V4.47824C15.9818 4.47824 15.9818 4.47824 15.9655 4.47017C15.9655 4.41364 15.9818 4.36518 16.0142 4.3248C16.2171 4.27634 16.3712 4.4944 16.5092 4.51055C16.5335 4.61554 16.4118 4.53478 16.3712 4.63169L16.566 4.65592C16.428 4.77706 16.4686 5.04356 16.2495 4.92242L16.3631 5.09202C16.3469 5.24546 16.4037 5.39891 16.5173 5.43929C16.5335 5.5362 16.8094 5.52812 16.6471 5.5362L16.8986 5.7381L16.8581 5.76233C16.9717 6.01268 17.4098 6.1742 17.1988 6.578C17.2719 6.65069 17.353 6.72337 17.3449 6.89297L17.1988 6.95758C17.28 7.06256 17.1177 7.33715 17.2881 7.36138C16.8905 7.54712 17.2719 7.96708 17.207 8.20936H17.4098C17.4098 8.37088 17.4666 8.52432 17.5558 8.7343L17.7343 8.71814C17.8885 8.89582 17.6126 9.17848 17.6126 9.45306C17.5477 9.42883 17.564 9.36422 17.6045 9.31577C17.1826 9.62266 17.8723 10.0345 17.5315 10.301C17.5883 10.3818 17.5558 10.4303 17.5072 10.4787C17.5072 10.4706 17.5072 10.4626 17.499 10.4626C17.499 10.4706 17.4909 10.4787 17.4909 10.4949C17.4585 10.5191 17.4179 10.5514 17.3773 10.5756C17.426 10.5514 17.4666 10.5272 17.4828 10.511C17.4747 10.5675 17.4909 10.6564 17.5153 10.7452H17.3124C17.3124 10.7533 17.3124 10.7533 17.3124 10.7614C17.2232 10.826 17.3936 10.8421 17.5396 10.826C17.564 10.8744 17.5964 10.9148 17.637 10.9552C17.3205 10.9552 17.6938 11.1975 17.3449 11.2056C17.499 11.3025 17.353 11.6255 17.6613 11.7789C17.6208 11.7709 17.5883 11.787 17.6045 11.7386C17.5315 11.8113 17.4666 11.8839 17.5315 12.0051L17.2881 11.9485C17.3692 12.0455 17.4422 12.1504 17.5153 12.2635C17.3287 12.32 17.2232 12.312 17.1015 12.1343C17.2313 12.5139 17.1096 12.3846 17.2313 12.74L17.1015 12.6431C17.069 12.7158 17.1664 12.958 17.0203 12.9257C16.6877 12.9096 16.3631 13.6364 15.7708 13.6203C16.0872 13.9837 15.4787 13.5476 15.6329 13.8706C15.5598 13.7818 15.4706 13.7576 15.4949 13.6364C15.3245 13.8383 15.1055 13.6203 15.0487 13.9675C14.9838 13.8706 15.0406 13.7979 15 13.7414C14.9919 13.7737 14.9594 13.8545 14.9107 13.806C14.8621 13.7495 14.9107 13.7091 14.9351 13.6526C14.716 13.7495 14.7809 14.0806 14.8539 14.3956C14.6754 14.2906 14.6186 14.3229 14.57 14.5571C14.4969 14.4683 14.3915 14.3794 14.5456 14.2987C14.4483 14.3148 13.9371 14.2744 13.9777 14.5248C13.9371 14.4683 13.8397 14.5248 13.8154 14.5652C13.5882 14.5813 13.572 14.5652 13.3529 14.6136L13.4178 14.6459C13.3691 14.9609 13.2393 14.7348 13.0689 14.7913V14.759C12.647 14.5571 12.8985 14.8801 12.4847 14.6459L12.5091 14.8398C12.4766 15.2516 12.1439 14.6055 11.9167 14.7509L11.9979 14.864C11.8599 15.0013 11.6652 14.2825 11.5516 14.226C11.5273 14.1856 11.6003 14.1694 11.6328 14.1452C11.3325 13.8787 11.576 14.3956 11.3325 14.436C11.3001 14.2987 11.4218 14.0968 11.2676 14.0564C11.2108 13.9433 10.7565 14.444 10.578 14.1452C10.6023 14.2583 10.6348 14.3633 10.5131 14.4279C10.3345 14.4279 10.1479 13.9514 9.92075 14.226C9.90452 14.1937 9.90452 14.1614 9.91263 14.1371C9.76658 14.1856 9.46637 14.1614 9.33655 14.2987C9.45014 13.6445 8.44403 14.2987 8.70367 13.7333L8.34666 13.5799L8.38723 13.5314C8.1925 13.378 8.05457 13.4507 7.89229 13.5234C7.86795 13.4588 7.93286 13.4345 7.9572 13.4103C7.73001 13.1034 7.70567 13.1115 7.26753 13.1438L7.38112 12.9742C7.22696 12.9984 7.23507 12.4089 6.86184 12.2877C6.87806 12.2797 6.91863 12.2554 6.95109 12.2635C6.50483 12.0778 6.96731 11.254 6.26141 11.4317L5.99366 11.254C6.0748 11.6094 5.67722 11.3186 5.62042 11.5044C5.52305 11.3751 5.69345 11.0683 5.79081 11.2217L5.76647 11.2621C6.1397 11.1894 5.74213 10.7937 5.99366 10.721C5.76647 10.0507 5.85572 9.34 5.83138 8.71007L5.53928 8.80698V8.57278C5.60419 8.50817 5.76647 8.48394 5.76647 8.64546C5.92875 8.55662 5.62042 8.38703 5.5474 8.37895C5.66099 8.06399 5.89629 8.49202 5.90441 8.3951L5.88006 8.26589L5.84761 8.29819C5.7259 8.1932 5.59608 8.18513 5.61231 7.9913C5.67722 7.87016 5.79892 7.93477 5.80704 7.88632C5.83138 7.88632 5.83949 7.87016 5.82327 7.81363L5.86384 7.53905L5.62042 7.63596C5.51494 7.49867 5.66099 7.36945 5.37701 7.47444C5.7827 7.31292 5.67722 6.42456 5.84761 6.33572C5.7259 6.12575 5.7827 5.94808 5.86384 5.74618C5.79893 5.77848 5.53928 5.73002 5.63665 5.56043C6.12348 5.81078 5.97743 5.31007 6.39935 5.3343C6.09914 5.35045 6.56162 4.84166 6.14782 4.86589C6.2533 4.74475 6.33444 4.94665 6.49671 4.90627C6.5454 4.44594 7.07279 4.26019 7.29187 3.89677C7.24318 3.84832 7.11336 3.83216 7.08902 3.69487C7.22696 3.70295 7.37301 3.72718 7.51094 3.7514C7.5434 3.67064 7.25941 3.41221 7.55151 3.46874C7.49471 3.44452 7.40546 3.40414 7.4298 3.3476C7.86795 3.15378 8.16005 2.82266 8.52517 2.55616C8.88218 2.28965 9.32844 2.08775 9.83149 2.26542C9.67733 2.17658 9.74224 2.12813 9.83149 2.1039C9.76658 2.08775 9.78281 1.9343 9.74224 1.84547C9.88829 1.89392 10.0343 1.94238 10.1723 2.00699C10.1804 1.7324 10.5455 1.91008 10.5455 1.65972L10.4319 1.72433C10.5455 1.39321 10.083 1.10248 10.0181 0.730979C9.90452 1.10248 9.31221 0.375635 9.1337 0.973259C9.02822 0.924803 9.14993 0.835967 9.08502 0.763283C9.05256 0.949031 8.97143 1.01364 8.76047 1.02979L8.76858 0.981335C8.27364 1.25592 7.98154 1.22362 7.373 1.50628L7.52717 1.63549C7.39735 1.69202 7.34055 1.6678 7.25941 1.6678C7.30809 1.99084 7.58397 1.44974 7.65699 1.79701C7.26753 1.57896 6.91052 2.37041 6.52917 2.14428C6.37501 2.28965 6.73201 2.25734 6.57785 2.40271L6.43992 2.3381L6.51294 2.48347C6.39935 2.56423 6.24519 2.51578 6.16405 2.45117C6.1965 2.43502 6.21273 2.36233 6.22896 2.32195C5.99366 2.36233 5.91252 2.7419 5.83949 2.76613L6.02611 2.65307C5.7259 3.16186 5.19039 3.6868 5.15793 4.30057H5.2553C5.22285 4.74475 5.01189 4.559 4.90641 5.01934L4.89829 5.00318C4.94697 5.12432 4.95509 5.25354 4.89829 5.3666C4.83338 5.22124 4.63054 5.51197 4.56562 5.32622C4.60619 5.81886 4.63054 5.59273 4.87395 5.96423L4.71167 5.98846C4.82527 6.11767 4.88206 6.1419 4.87395 6.35995C4.7847 6.15805 4.62242 6.45686 4.4926 6.21458C4.07068 6.63454 4.69545 6.95758 4.19239 7.1191C4.58185 7.37753 4.46826 6.73952 4.5494 6.86874C4.70356 6.78798 4.82527 7.08679 4.77659 7.21601C4.75224 7.3533 4.21673 7.41791 4.20862 7.80556C4.21673 7.76518 4.18427 7.76518 4.18427 7.7248C4.07068 7.87016 4.32221 8.00746 4.14371 8.18513C4.39523 8.28204 4.13559 8.41933 4.45203 8.43548C4.41958 8.32242 4.39524 8.20936 4.3709 8.08822C4.45203 8.29012 4.83338 8.45164 4.67111 8.77468C4.60619 8.75852 4.50883 8.66969 4.46014 8.60508C4.37089 8.70199 4.53317 8.78275 4.44392 8.88774C4.11937 8.87966 4.34655 8.47586 4.10314 8.26589C3.97332 8.37895 4.34655 8.66969 3.99766 8.57278C4.44392 8.70199 3.9652 8.96042 4.33032 9.19463H4.13559C4.16805 9.23501 4.27353 9.30769 4.27353 9.38038L4.00577 9.27539C4.24107 9.46114 3.87595 9.71149 4.022 9.90532C3.94898 9.47729 4.23296 9.76802 4.34655 9.5742C4.68733 10.0426 3.89218 9.95377 4.11125 10.5352C4.06257 10.4626 4.15993 10.2122 4.27353 10.3172C4.2573 10.4383 4.22484 10.5999 4.14371 10.6887C4.28164 11.0683 4.32221 10.5837 4.47637 10.7129C4.28164 10.8987 4.61431 10.8744 4.73601 11.0117L4.5494 11.0683C4.56562 11.5367 4.97132 11.0521 4.95509 11.4801L4.63865 11.4075L4.77659 11.5851L4.5494 11.6174C4.7847 11.7789 4.77658 11.8597 4.80904 12.102C4.91452 11.997 5.14171 11.9889 5.23907 12.1585C5.1985 12.3362 5.03623 12.1747 5.1985 12.417C5.06057 12.417 4.89018 12.417 4.99566 12.2231C4.93075 12.2393 4.85772 12.2151 4.79281 12.2312C4.73601 12.4331 4.94697 12.5946 5.00377 12.6915C4.98754 12.6512 4.97132 12.6027 4.98754 12.5623C5.13359 12.6512 5.28776 12.7319 5.44192 12.7965C5.41758 12.8934 5.33644 12.8773 5.2553 12.8611C5.32021 12.9257 5.4338 12.9257 5.52306 13.0227C5.36889 13.0873 5.23907 13.1842 5.06868 13.0711L5.46626 13.3215C5.42569 13.3861 5.45003 13.6122 5.36889 13.6041C5.46626 13.8545 5.97743 13.8626 6.12348 14.1452C6.15593 14.1371 6.20462 14.1371 6.26141 14.1614C6.43992 14.3875 6.5454 14.6944 6.94297 14.7267L6.95109 15.0659C7.21073 15.1547 6.92675 14.6298 7.35678 14.7751C7.6651 14.864 7.33244 15.0417 7.38112 15.1709C7.60019 15.1224 7.94909 14.9932 8.10325 15.3162C8.02211 15.3324 7.96531 15.2678 7.88418 15.2436ZM10.9106 15.9865C10.8457 16.0269 10.7159 16.1238 10.6834 16.0108C10.7808 15.8008 10.8133 15.9139 10.9106 15.9865ZM15.357 15.1466C15.3327 15.2193 15.2596 15.2113 15.1704 15.1628C15.211 15.1305 15.2759 15.1224 15.357 15.1466ZM16.5822 5.14048H16.5903C16.5903 5.27777 16.5903 5.22931 16.5822 5.14048ZM16.5173 4.90627C16.4848 4.90627 16.4605 4.92242 16.4443 4.94665C16.4929 4.9305 16.5254 4.97088 16.5497 5.02741C16.5822 4.97896 16.5903 4.93858 16.5173 4.90627ZM5.79081 7.82171L5.73402 7.86209C5.68533 7.76518 5.73402 7.79748 5.79081 7.82171Z" fill="#844C3A"/>
<path d="M14.9269 15.5424C14.9027 15.5181 14.8865 15.4778 14.8784 15.4455C14.8623 15.4858 14.8704 15.5262 14.9269 15.5424Z" fill="#844C3A"/>
<path d="M6.1478 14.1695L6.13973 14.1614C6.12357 14.1695 6.1155 14.1695 6.10742 14.1775L6.1478 14.1695Z" fill="#844C3A"/>
<path d="M19.3157 7.94287C19.2914 7.9994 19.2591 8.03171 19.2188 8.05593C19.2672 8.05593 19.3076 8.03171 19.3157 7.94287Z" fill="#844C3A"/>
<path d="M15.4707 4.07447L15.608 4.1633C15.5515 4.10677 15.5757 4.06639 15.5757 4.00986C15.5353 4.05024 15.503 4.11485 15.4707 4.07447Z" fill="#844C3A"/>
<path d="M15.5179 2.28157C15.4856 2.28157 15.4775 2.24927 15.4452 2.24927L15.3887 2.32195C15.4614 2.37848 15.5663 2.37848 15.5179 2.28157Z" fill="#844C3A"/>
<path d="M15.9004 3.56568C16.0221 3.45261 15.9166 3.41223 15.8273 3.34763C15.8354 3.3557 15.8354 3.3557 15.8354 3.36378C15.6326 3.47684 15.7624 3.51722 15.9004 3.56568Z" fill="#844C3A"/>
<path d="M15.8021 3.33144C15.7779 3.30721 15.7536 3.28299 15.7375 3.25876C15.6567 3.29914 15.7456 3.29914 15.8021 3.33144Z" fill="#844C3A"/>
<path d="M16.2491 4.7286C16.2491 4.66399 16.0624 4.82551 16.0949 4.76898C15.8921 4.84167 16.5006 4.88205 16.2491 4.7286Z" fill="#844C3A"/>
<path d="M16.265 3.16187L16.1357 3.31531L16.2973 3.26685L16.265 3.16187Z" fill="#844C3A"/>
<path d="M16.6952 3.95331L16.6306 3.77563C16.6063 3.79986 16.574 3.79179 16.5498 3.77563C16.6063 3.87255 16.6467 3.99369 16.6952 3.95331Z" fill="#844C3A"/>
<path d="M16.5408 3.77565C16.5085 3.7272 16.4762 3.68682 16.4277 3.67874C16.452 3.71105 16.4923 3.7595 16.5408 3.77565Z" fill="#844C3A"/>
<path d="M16.4678 3.31531V3.37992L16.5324 3.49298L16.4678 3.31531Z" fill="#844C3A"/>
<path d="M17.71 5.55236L17.8473 5.69773C17.9199 5.68966 17.9361 5.61697 17.8796 5.56851C17.8149 5.54429 17.7584 5.49583 17.71 5.55236Z" fill="#844C3A"/>
<path d="M17.8966 4.76093C17.8885 4.83361 17.856 4.85784 17.8154 4.91437L18.0345 4.78515L17.8966 4.76093Z" fill="#844C3A"/>
<path d="M18.245 5.25356C18.318 5.23741 18.5614 5.4393 18.4235 5.2051C18.3586 5.21318 18.2044 5.05973 18.245 5.25356Z" fill="#844C3A"/>
<path d="M18.6418 8.29013L18.6337 8.24167L18.2207 8.2659L18.6418 8.29013Z" fill="#844C3A"/>
<path d="M19.4701 11.0764C19.616 10.8341 19.227 10.9714 19.3891 10.7614C19.3 10.6887 19.2595 10.931 19.1865 10.8583C19.2595 11.0279 19.1865 11.1006 19.4701 11.0764Z" fill="#844C3A"/>
<path d="M19.1862 10.8664C19.17 10.8422 19.1619 10.8099 19.1377 10.7776C19.1538 10.826 19.17 10.8502 19.1862 10.8664Z" fill="#844C3A"/>
<path d="M10.4482 2.1443L10.5855 2.21698L10.4805 2.08777L10.4482 2.1443Z" fill="#844C3A"/>
<path d="M10.6436 1.81317L10.7082 2.0716L10.7566 1.82125C10.7243 1.8374 10.6678 1.86163 10.6436 1.81317Z" fill="#844C3A"/>
<path d="M11.3155 16.56L11.3316 16.4954C11.3074 16.4227 11.2751 16.4146 11.1943 16.3984L11.3155 16.56Z" fill="#844C3A"/>
<path d="M9.06836 15.9381L9.10874 15.9543V15.712L9.06836 15.9381Z" fill="#844C3A"/>
<path d="M7.08887 15.3889C7.15378 15.4454 7.27549 15.4454 7.3404 15.4939C7.15378 15.4535 7.2268 15.1224 7.08887 15.3889Z" fill="#844C3A"/>
<path d="M1.87098 30.7737C1.79022 30.7576 1.82253 30.9272 1.81445 30.9595C1.94367 30.9191 1.87098 30.7253 1.87098 30.7737Z" fill="#844C3A"/>
<path d="M3.15411 30.3619L3.12988 30.4345L3.31563 30.265L3.15411 30.3619Z" fill="#844C3A"/>
<path d="M4.34631 30.3538C4.23271 30.0711 3.91628 30.4103 3.6972 30.3053L3.66475 30.2407L3.56738 30.4749C3.82702 30.4345 4.1678 30.273 4.34631 30.3538Z" fill="#844C3A"/>
<path d="M4.99497 30.9595C4.95459 30.8464 5.13227 30.8626 4.84961 30.9272C4.86576 30.9352 4.86576 30.9433 4.87384 30.9514C4.89806 30.9595 4.93037 30.9595 4.99497 30.9595Z" fill="#844C3A"/>
<path d="M4.87422 30.9595C4.745 30.9676 4.95498 31.0483 4.87422 30.9595V30.9595Z" fill="#844C3A"/>
<path d="M5.45818 30.8868L5.2959 30.9918C5.32835 31.0564 5.48252 31.0725 5.42572 31.121C5.588 31.0564 5.55554 30.9918 5.45818 30.8868Z" fill="#844C3A"/>
<path d="M5.61227 30.6687L5.52344 30.7091C5.53959 30.7414 5.56382 30.7495 5.61227 30.6687Z" fill="#844C3A"/>
<path d="M5.34375 30.806L5.52142 30.7172C5.4972 30.6687 5.4972 30.5799 5.44066 30.7495C5.45682 30.6607 5.41643 30.7495 5.34375 30.806Z" fill="#844C3A"/>
<path d="M5.23963 30.7657C5.14227 30.701 5.02867 30.6687 5.19095 30.5638C4.87451 30.6122 4.92319 30.8141 5.23963 30.7657Z" fill="#844C3A"/>
<path d="M4.40394 30.0469L4.28224 29.9661L4.17676 30.063C4.22544 30.0146 4.42017 30.1438 4.40394 30.0469Z" fill="#844C3A"/>
<path d="M6.48777 31.016C6.49584 30.9514 6.43124 30.8545 6.41508 30.7737L6.29395 30.8464C6.35855 30.8868 6.47969 30.9272 6.48777 31.016Z" fill="#844C3A"/>
<path d="M6.42365 30.7737L6.60132 30.6687C6.4398 30.6607 6.4075 30.7091 6.42365 30.7737Z" fill="#844C3A"/>
<path d="M5.63575 30.3538L5.33594 30.5799L5.69247 30.3457L5.63575 30.3538Z" fill="#844C3A"/>
<path d="M7.19386 31.016L7.08887 31.1614L7.27461 30.9433L7.19386 31.016Z" fill="#844C3A"/>
<path d="M7.65662 30.9837C7.58369 31.1049 7.76196 31.1776 7.68093 31.2583C7.81057 31.2341 7.91591 31.1291 8.01315 31.0403C7.90781 31.0887 7.80247 31.0726 7.65662 30.9837Z" fill="#844C3A"/>
<path d="M8.17519 30.903C8.12674 30.9353 8.0702 30.9837 8.01367 31.0402C8.0702 31.0079 8.11866 30.9676 8.17519 30.903Z" fill="#844C3A"/>
<path d="M6.91895 30.693C6.9351 30.7333 6.95933 30.8303 7.06431 30.8626L6.99163 30.693C6.9674 30.693 6.94317 30.693 6.91895 30.693Z" fill="#844C3A"/>
<path d="M6.9834 30.693C7.06416 30.701 7.12069 30.701 7.14492 30.7091C7.12069 30.701 7.07223 30.693 6.9834 30.693Z" fill="#844C3A"/>
<path d="M6.89453 30.693H6.91068C6.91068 30.6768 6.90261 30.6688 6.89453 30.693Z" fill="#844C3A"/>
<path d="M6.11523 30.4992C6.22022 30.4022 6.44635 30.2973 6.2283 30.1519C6.15561 30.273 6.27675 30.3538 6.11523 30.4992Z" fill="#844C3A"/>
<path d="M6.80373 30.483L6.6099 30.4507C6.61798 30.4992 6.65028 30.5638 6.59375 30.6122L6.80373 30.483Z" fill="#844C3A"/>
<path d="M6.9016 30.4265L6.80469 30.483L6.87737 30.4911L6.9016 30.4265Z" fill="#844C3A"/>
<path d="M7.83531 30.7414C7.91634 30.6688 8.01358 30.6607 8.11081 30.6445C7.99737 30.6122 7.88393 30.5961 7.77049 30.5961C7.76238 30.6526 7.72187 30.7495 7.83531 30.7414Z" fill="#844C3A"/>
<path d="M7.42188 30.7016L7.43851 30.6933C7.43019 30.6767 7.42188 30.6767 7.42188 30.7016Z" fill="#844C3A"/>
<path d="M9.14115 30.6284L9.125 30.5961V30.6284H9.14115Z" fill="#844C3A"/>
<path d="M7.76166 30.5638C7.6809 30.5315 7.63244 30.5718 7.58398 30.6284C7.64859 30.6122 7.7132 30.5961 7.78588 30.5961C7.78588 30.5718 7.78589 30.5557 7.76166 30.5638Z" fill="#844C3A"/>
<path d="M8.45884 30.8141C8.41846 30.7818 8.36193 30.7495 8.31348 30.7253C8.35386 30.7737 8.44269 30.8626 8.45884 30.8141Z" fill="#844C3A"/>
<path d="M7.47074 30.7414L7.4541 30.7497C7.48738 30.783 7.48738 30.7664 7.47074 30.7414Z" fill="#844C3A"/>
<path d="M7.47052 30.7414C7.5109 30.7172 7.5432 30.6768 7.58358 30.6364C7.53513 30.6526 7.48667 30.6687 7.44629 30.693C7.45437 30.7011 7.46244 30.7253 7.47052 30.7414Z" fill="#844C3A"/>
<path d="M9.43333 29.522C9.4171 29.6835 9.20614 29.8369 9.01141 29.6673C8.82479 29.7885 8.95461 30.3134 9.125 30.6042C9.13312 30.5315 9.12501 30.4669 9.31974 30.37C9.25483 30.2811 8.8897 30.1761 9.05198 30.0227C9.30351 29.9338 9.26294 30.0792 9.38465 30.16C9.27917 29.9662 9.70109 29.8612 9.64429 29.5704L9.42522 29.6754C9.4171 29.635 9.49824 29.5624 9.43333 29.522Z" fill="#844C3A"/>
<path d="M8.75969 30.588L8.67871 30.6122C8.76778 30.6364 8.83257 30.701 8.95403 30.8222C9.08359 30.7414 9.10789 30.6849 9.11598 30.6284L8.7273 30.6122L8.75969 30.588Z" fill="#844C3A"/>
<path d="M8.32131 30.6203C8.37811 30.4426 8.57284 30.3699 8.45113 30.1842C8.21583 30.2003 8.28886 30.3295 8.15092 30.4103C8.52416 30.3618 8.04544 30.5072 8.3132 30.6041C8.24017 30.6364 8.17526 30.6445 8.11035 30.6526C8.17526 30.6687 8.24017 30.701 8.30508 30.7253L8.29697 30.7172C8.28074 30.693 8.27263 30.6849 8.29697 30.693H8.30508C8.30508 30.6607 8.3132 30.6364 8.32131 30.6203C8.42679 30.6526 8.33754 30.6687 8.30508 30.6849L8.29697 30.7091L8.67021 30.6041C8.59718 30.588 8.49982 30.596 8.32131 30.6203Z" fill="#844C3A"/>
<path d="M6.42285 29.7723C6.43093 29.7885 6.43093 29.7965 6.439 29.8127C6.46323 29.7885 6.47131 29.7804 6.42285 29.7723Z" fill="#844C3A"/>
<path d="M6.57758 29.8773C6.55329 29.9015 6.529 29.9742 6.43992 29.9581C6.35895 29.9096 6.43992 29.8773 6.43182 29.8208C6.37514 29.8692 6.24558 29.95 6.41563 30.0307L6.43992 30.0065C6.59378 30.063 6.78812 30.2811 6.76383 30.3053C6.72334 30.1357 6.68285 30.0307 6.57758 29.8773Z" fill="#844C3A"/>
<path d="M7.46191 30.2003L7.76983 30.1115L7.60777 29.9661L7.61587 30.055C7.44571 30.0227 7.48622 30.1357 7.46191 30.2003Z" fill="#844C3A"/>
<path d="M9.18198 30.7172L9.1416 30.903L9.31927 30.6364L9.18198 30.7172Z" fill="#844C3A"/>
<path d="M9.58744 30.6849L9.57129 30.8464L9.67627 30.7495L9.58744 30.6849Z" fill="#844C3A"/>
<path d="M16.6223 21.8578L16.5254 21.8417C16.5738 21.8578 16.5981 21.8578 16.6223 21.8578Z" fill="#844C3A"/>
<path d="M17.0931 22.2374L17.1577 22.1889C17.1092 22.2051 17.0769 22.2212 17.0931 22.2374Z" fill="#844C3A"/>
<path d="M19.584 30.5072C19.7219 30.6526 19.8761 30.8868 19.8599 30.7011L19.8112 30.5234C19.7219 30.5638 19.6489 30.5476 19.584 30.5072Z" fill="#844C3A"/>
<path d="M20.9874 25.7989L20.9551 25.8555C21.0197 25.8555 21.0843 25.8635 21.1408 25.8635C21.1004 25.8393 21.0439 25.8151 20.9874 25.7989Z" fill="#844C3A"/>
<path d="M20.2988 26.0412L20.3231 25.8393C20.3069 25.8958 20.2988 25.9604 20.2988 26.0412Z" fill="#844C3A"/>
<path d="M13.6519 20.5576L13.5146 20.703C13.6519 20.7353 13.6116 20.6383 13.6519 20.5576Z" fill="#844C3A"/>
<path d="M13.7578 30.5557C13.8714 30.6203 13.9688 30.6526 14.0499 30.6607C13.9039 30.5557 13.7903 30.4103 13.7578 30.5557Z" fill="#844C3A"/>
<path d="M17.9691 20.5414C17.9045 20.5253 17.8641 20.5414 17.8398 20.5737C17.9045 20.5818 17.9529 20.5818 17.9691 20.5414Z" fill="#844C3A"/>
<path d="M14.3833 30.6526C14.359 30.6364 14.3428 30.6284 14.3185 30.6122C14.2374 30.6445 14.1483 30.6687 14.043 30.6607C14.1483 30.7334 14.2699 30.7737 14.3833 30.6526Z" fill="#844C3A"/>
<path d="M3.75398 25.0317C3.74591 25.0317 3.73783 25.0398 3.72168 25.0478C3.73783 25.064 3.74591 25.0478 3.75398 25.0317Z" fill="#844C3A"/>
<path d="M0.695312 27.8744C0.695312 27.8341 0.711465 27.7695 0.727617 27.7129C0.703389 27.7371 0.695312 27.7856 0.695312 27.8744Z" fill="#844C3A"/>
<path d="M11.2259 30.7414C11.1371 30.7495 11.2098 30.7576 11.2259 30.7414V30.7414Z" fill="#844C3A"/>
<path d="M10.7969 30.055C10.813 30.0388 10.8292 30.0065 10.8292 29.9661C10.8211 30.0065 10.813 30.0388 10.7969 30.055Z" fill="#844C3A"/>
<path d="M15.2182 29.5462C15.202 29.5139 15.202 29.522 15.2182 29.5462V29.5462Z" fill="#844C3A"/>
<path d="M11.0977 30.6607C11.13 30.6849 11.1703 30.7011 11.2107 30.7091C11.1865 30.7011 11.1542 30.6849 11.0977 30.6607Z" fill="#844C3A"/>
<path d="M11.1126 30.7414C11.0803 30.7334 11.0561 30.7334 11.0399 30.7253C11.0238 30.7576 11.0399 30.7737 11.1126 30.7414Z" fill="#844C3A"/>
<path d="M11.3482 30.7253C11.2998 30.7253 11.2513 30.7253 11.2109 30.7091C11.2271 30.7172 11.2352 30.7334 11.2271 30.7334C11.2513 30.7334 11.2836 30.7334 11.3482 30.7253Z" fill="#844C3A"/>
<path d="M8.20871 20.3396C8.20063 20.3396 8.19256 20.3315 8.18448 20.3315C8.13602 20.4284 8.16833 20.4042 8.20871 20.3396Z" fill="#844C3A"/>
<path d="M21.0127 28.6659V28.674L21.0288 28.682L21.0127 28.6659Z" fill="#844C3A"/>
<path d="M21.0049 28.5367C21.2077 28.7547 21.1185 28.7224 21.0292 28.6821C21.2077 28.8436 21.4025 29.0132 21.6053 29.1747C21.4349 28.9647 21.2321 28.7547 21.0049 28.5367Z" fill="#844C3A"/>
<path d="M15.3816 21.1229L15.479 21.349C15.1463 21.4621 15.049 21.3167 15.0976 21.5913C15.3897 21.1148 15.763 21.8982 16.0713 21.4621L16.12 21.6317C16.0956 21.6075 16.0713 21.6317 16.0388 21.6075C16.0956 21.9628 16.4202 21.3733 16.6474 21.6398C16.7204 21.7448 16.7366 21.8498 16.6312 21.8578C16.7285 21.8659 16.8259 21.8901 16.9151 21.9063C16.9638 21.9628 16.8908 22.0274 16.8421 21.9709C16.9557 22.0436 17.0693 22.1082 17.1748 22.1809L17.1586 22.1889C17.2559 22.1566 17.4425 22.1405 17.5237 22.1405C17.548 22.2697 17.4425 22.1486 17.4182 22.2213L17.6697 22.2697C17.6373 22.4312 17.4101 22.4151 17.3127 22.302C17.1018 22.8431 17.548 22.3182 17.6373 22.8512L17.4425 22.7623C17.3208 23.0773 17.5075 23.1015 17.5237 23.3923C17.5642 23.2873 17.5561 22.73 17.8158 22.7946C17.832 22.8754 17.8807 22.9481 18.0511 22.9642C17.9131 23.1015 18.0348 23.15 18.1403 23.2631L17.9375 23.4246C18.0998 23.4973 18.1971 23.4003 18.3513 23.4003C18.4568 23.5619 18.3269 23.7234 18.2215 23.8607C18.3756 24.111 18.3432 23.4973 18.6028 23.7395C18.684 23.998 18.8706 24.0707 19.1789 24.2241C19.2114 24.4179 19.0328 24.2887 19.0085 24.3856L19.2681 24.3937C19.2844 24.426 19.2276 24.4502 19.1951 24.4664C19.3412 24.531 19.4142 24.3291 19.5927 24.4664C19.8686 24.3614 19.4791 25.0559 19.8848 25.1044C19.8523 25.1932 19.7306 25.1609 19.6576 25.2255C20.0227 25.4193 19.9416 25.4113 20.3392 25.5324L20.3067 25.8393C20.3879 25.5809 20.7043 25.6859 20.9721 25.7908C21.0288 25.6859 21.0694 25.597 21.0856 25.5486L21.3696 25.7989C21.3534 25.8555 21.256 25.8635 21.1343 25.8635C21.1668 25.8716 21.1911 25.8878 21.2155 25.8958C21.183 26.0493 21.0207 26.0574 20.8503 26.0412C20.8828 25.9847 20.9071 25.9201 20.9396 25.8635C20.7611 25.8555 20.5664 25.8716 20.4447 25.9524C20.4771 25.9604 20.5258 25.9847 20.5582 26.017C20.5096 26.017 20.469 26.025 20.4528 26.0412C20.4365 26.0654 20.5014 26.0654 20.5826 26.0897L20.3554 26.2835L20.4852 26.2431L20.5096 26.7115C20.899 26.865 21.4102 26.9538 21.7104 27.3899C21.467 27.3495 21.3777 27.4949 21.1424 27.5756C21.3453 27.3495 20.8909 27.2607 20.8422 27.0022C20.8666 27.1395 20.7449 27.1557 20.6962 27.1395L21.0938 27.4707C20.8909 27.5191 21.0045 27.6564 20.9315 27.721C21.2966 27.5353 21.2642 27.8341 21.4427 27.9471C21.2966 27.9471 21.1424 27.9229 21.1343 27.8098C21.0045 27.8906 21.1343 27.9068 21.2885 27.9633C21.4427 28.0117 21.6049 28.0925 21.4913 28.1571C21.4751 28.1167 21.4913 28.1006 21.4102 28.0764C21.5725 28.1813 21.54 28.3752 21.3777 28.2783L21.3615 28.2459C21.3696 28.3429 21.4183 28.4882 21.5157 28.6659C21.5644 28.7547 21.6536 28.8678 21.7104 28.9566C21.7266 29.0051 21.7672 29.0778 21.8646 29.1585C21.8078 29.1182 21.3696 28.7547 21.2885 28.6821C21.6861 29.0616 21.9133 29.4412 21.9619 29.8208C21.8727 29.6754 21.6049 29.4331 21.394 29.207C21.183 28.9809 21.0207 28.7628 21.0126 28.6821C20.9234 28.6417 20.8422 28.5932 20.8341 28.6982C20.8828 28.7386 21.256 29.1182 21.2155 29.1424C20.8179 28.8193 20.9558 28.9728 20.6475 28.6982C20.7286 28.7628 20.9071 29.2231 20.7611 29.207C20.753 29.1343 20.5826 28.7547 20.5907 28.7063C20.5907 28.8597 20.5582 29.0132 20.4852 29.1585C20.542 29.0778 20.4122 28.7709 20.3635 28.6497C20.3797 28.6901 20.3392 28.6901 20.2905 28.6821C20.2093 28.674 20.0876 28.6659 20.039 28.6901L20.1931 28.7951C19.7793 28.7305 19.7955 29.4412 19.3899 29.425C19.4385 29.3281 19.5035 28.8436 19.2925 28.7951C19.2032 29.0293 18.8949 29.9177 18.5298 30.1034L18.4568 29.9742L18.1809 30.1277C18.3513 29.7723 18.8219 29.0293 19.0815 28.7386C18.9274 28.6336 19.0328 28.5851 18.8057 28.6013C18.7245 28.4802 18.9274 28.4075 18.9923 28.3994L18.4487 28.3267C18.4811 28.6013 18.043 28.6094 18.0673 28.8274L18.6515 28.5367C18.684 28.8032 18.3269 29.312 17.9456 29.2716C17.8482 29.1666 18.0105 28.787 18.0024 28.6982C17.9537 28.7951 17.6454 28.884 17.6048 28.8193L17.759 28.6659C17.5399 28.569 17.4182 29.0293 17.1586 28.779C17.0693 28.7628 16.8908 28.4317 16.8746 28.5932C17.0287 28.9001 17.0693 29.8611 16.9801 30.0954C16.9476 30.0711 16.5095 29.8046 16.404 29.6592C16.2498 29.417 16.6149 29.0778 16.4851 28.8678C16.4851 28.9405 16.404 29.0374 16.3715 29.0616C16.2741 28.997 16.404 28.8274 16.2011 28.8678C16.1687 29.1424 15.7873 28.8516 16.1119 29.102C15.9171 29.1828 15.9009 29.0455 15.6656 29.0616C15.7468 29.2393 15.4709 29.6673 15.2762 29.7481C15.2843 29.6754 15.2437 29.5866 15.2194 29.5462C14.8137 29.53 14.5946 29.4089 14.2214 29.4089C14.1889 29.3443 14.0023 29.2635 14.0753 29.1424C14.0185 29.1908 13.9698 29.2878 13.8562 29.2958C13.629 29.0616 14.1159 29.2554 13.9374 28.9728C13.9293 29.1343 13.6372 29.1989 13.4749 29.3039C13.5317 29.5462 13.8562 29.3443 14.0266 29.2393C14.0347 29.5785 13.7508 29.9419 13.3613 30.1034C13.053 30.1923 13.2234 29.8854 13.1666 29.9338C12.5743 29.8854 12.6716 30.5395 12.1848 30.2973C11.9901 30.0873 12.1686 29.8692 12.1199 29.7077C12.3714 29.6189 12.5175 29.8369 12.6878 29.8288L12.4769 29.7319C12.558 29.6592 12.7284 29.6027 12.8177 29.6592C12.6473 29.4735 11.8197 29.6512 11.3653 29.4735C11.2842 29.5462 11.1462 29.6269 11.2111 29.7077L11.3572 29.6754C11.4951 29.845 11.0894 29.9258 11.276 29.9984C11.0813 30.1277 10.8704 30.3215 10.6026 30.2246L10.5377 29.9904C10.5458 30.063 10.7162 30.1357 10.7892 30.055C10.6756 30.168 10.3673 29.7239 10.2456 30.055L10.4403 30.2246C10.2456 30.3538 10.0103 30.6203 9.77499 30.5476C9.88858 30.7899 9.83178 30.5153 10.0022 30.806C9.84801 30.4507 10.6188 30.8141 10.3754 30.4426C10.5539 30.7737 10.6837 30.5799 10.919 30.8545C10.9109 30.7737 10.8379 30.7011 11.0407 30.7334C11.0489 30.7091 11.0732 30.6768 11.0813 30.6607L11.0975 30.6687L11.0894 30.6607C11.0975 30.6445 11.0975 30.6445 11.0813 30.6607C11.0326 30.6284 10.9921 30.5799 10.9758 30.5395C11.0732 30.3538 11.3977 30.3538 11.5032 30.2488C11.6249 30.2892 11.4545 30.3457 11.5195 30.4265L11.6817 30.2811C11.698 30.4588 12.0063 30.5799 11.7223 30.6849H11.9738C12.128 30.7818 12.3308 30.8222 12.4607 30.7414C12.5824 30.7818 12.7609 30.5395 12.6554 30.6768L13.053 30.5557L13.0611 30.6041C13.4587 30.6203 13.8643 30.2892 14.3187 30.6122C14.4485 30.5638 14.5865 30.5072 14.8055 30.5557L14.8542 30.7091C15.0246 30.6526 15.3654 30.8545 15.4384 30.693C15.6332 31.1129 16.266 30.7737 16.5662 30.8383L16.5744 30.6364C16.7772 30.6445 16.9801 30.5799 17.2316 30.4992L17.2154 30.3215C17.4344 30.168 17.7833 30.4426 18.1322 30.4184C18.1079 30.4911 18.0186 30.4749 17.9618 30.4265C18.3837 30.8303 18.83 30.1115 19.2195 30.4103C19.3087 30.3457 19.3817 30.3619 19.4467 30.4103C19.4385 30.4103 19.4304 30.4103 19.4223 30.4184C19.4304 30.4184 19.4467 30.4184 19.4629 30.4184C19.5035 30.4507 19.5521 30.483 19.5927 30.5153C19.5521 30.4749 19.5116 30.4345 19.4791 30.4184C19.5521 30.4103 19.6576 30.3861 19.7712 30.3457L19.8199 30.5395C19.828 30.5395 19.8361 30.5395 19.8442 30.5315C19.9497 30.6041 19.9254 30.4345 19.8686 30.2892C19.9254 30.2569 19.9741 30.2165 20.0065 30.168C20.1201 30.483 20.2418 30.055 20.4609 30.3861C20.5582 30.2246 21.2804 30.2488 21.1911 29.9096C21.2155 29.95 21.2641 29.9742 21.1911 29.9823C21.3615 30.0227 21.5562 30.055 21.6374 29.9581L21.8727 30.2003C21.9214 30.0873 21.9538 29.9742 21.9619 29.8611C22.2865 29.9984 22.4812 30.0792 22.4244 30.273C22.6922 29.9661 22.7814 30.1438 22.8626 29.8611L23.0411 30.0146C23.3088 30.0792 22.8382 29.5785 23.0086 29.6269C23.1547 29.5866 23.0411 29.1505 22.895 28.6578C22.749 28.1571 22.5705 27.616 22.5218 27.0992C22.1323 27.398 22.5948 26.7034 22.2459 26.8246C22.3352 26.7438 22.3514 26.6307 22.4893 26.6954C22.254 26.4127 22.4406 26.13 22.0593 26.0331C22.1404 25.9524 22.2378 26.0331 22.2865 25.9766C22.254 25.9604 22.1486 25.912 22.1972 25.8555C22.2459 25.7908 22.3027 25.8635 22.3757 25.8958C22.2053 25.5647 21.8727 25.6859 21.5725 25.807C21.6293 25.5809 21.5725 25.5001 21.3209 25.484C21.3859 25.379 21.4345 25.2336 21.5725 25.4193C21.5319 25.2982 21.3453 24.6683 21.11 24.7813C21.1506 24.7167 21.037 24.6198 20.9964 24.6037C20.8585 24.3533 20.8747 24.321 20.7043 24.103L20.7124 24.1918C20.3879 24.2645 20.5258 24.0384 20.3716 23.8768L20.4041 23.8607C20.2986 23.3115 20.1931 23.7395 20.1039 23.1823L19.9659 23.3196C19.6089 23.5376 19.8929 22.8189 19.5765 22.6897L19.5602 22.8431C19.3574 22.8108 19.7063 22.1324 19.6252 21.9709C19.6252 21.9224 19.7063 21.9709 19.7631 21.9951C19.6495 21.5025 19.5359 22.1163 19.2763 21.9224C19.3331 21.7851 19.5846 21.7448 19.4467 21.5671C19.4467 21.3975 18.684 21.4298 18.6353 21.0422C18.6109 21.1633 18.5947 21.2844 18.4243 21.2441C18.2377 21.1229 18.2052 20.5334 17.832 20.6707C17.8239 20.6303 17.832 20.598 17.8482 20.5818C17.6535 20.5414 17.3046 20.3557 17.118 20.4526C17.3533 19.7904 16.0388 20.1538 16.3553 19.6369C16.1849 19.5642 16.0226 19.4835 15.8603 19.4189L15.9009 19.3704C15.6007 19.1847 15.4303 19.2654 15.2599 19.3543C15.2031 19.2816 15.2762 19.2574 15.3005 19.2251C14.8786 18.9182 14.8056 18.9262 14.3187 19.0797L14.3349 18.8778C14.197 18.9585 13.7021 18.3609 13.1503 18.5063C13.1584 18.4821 13.1747 18.4498 13.2234 18.4255C12.6554 18.5467 11.8765 17.7148 11.6412 18.4498L11.276 18.6355C11.7466 18.684 11.2192 18.9505 11.4059 19.0716C11.2355 19.112 10.9353 18.8778 11.1543 18.8213L11.1949 18.8536C11.2598 18.4659 10.6026 18.7566 10.5945 18.5063C9.66139 18.6274 8.71207 18.6678 7.86824 18.9989L8.07108 19.2331L7.7871 19.33C7.68973 19.2977 7.59237 19.1604 7.80333 19.0878C7.62482 18.9747 7.51935 19.3623 7.54369 19.427C7.10554 19.4996 7.5518 19.0393 7.43009 19.0958L7.27593 19.1928L7.29216 19.2008C7.21102 19.3704 7.25159 19.4835 7.01629 19.5966C6.8459 19.6208 6.85401 19.4754 6.7891 19.4996C6.78099 19.4835 6.75664 19.4835 6.69173 19.54C6.57003 19.5885 6.45644 19.6531 6.34284 19.7177L6.59437 19.8388C6.50512 20.0246 6.27793 20.0165 6.57003 20.1457C6.12377 19.9115 5.31239 20.816 5.12577 20.8322C5.04463 21.1068 4.88236 21.2683 4.64705 21.4379C4.73631 21.4217 4.93915 21.5832 4.74442 21.7286C4.42798 21.2764 4.25759 21.874 3.83567 21.7609C4.144 21.8013 3.40564 22.3343 3.87624 22.3666C3.70585 22.4958 3.71396 22.2455 3.51112 22.2859C3.35696 22.7946 2.71597 23.0692 2.4401 23.6346C2.49689 23.683 2.64294 23.6507 2.65917 23.8203L2.18857 23.9091C2.15611 24.0303 2.48066 24.2079 2.16423 24.2806C2.22914 24.2806 2.33462 24.2887 2.31027 24.3695C1.86401 24.8056 1.66117 25.387 1.45832 25.9604C1.25548 26.5338 1.06075 27.0992 0.582031 27.5918C0.760535 27.4707 0.744307 27.5837 0.711852 27.7049C0.768649 27.6322 0.882244 27.7533 0.97961 27.7614C0.849789 27.8987 0.719968 28.036 0.590147 28.1813C0.825447 28.3348 0.484666 28.7144 0.72808 28.8193L0.711852 28.6578C0.96338 28.9243 1.43398 28.5205 1.80722 28.6417C1.52324 28.3348 2.4401 28.2136 2.06686 27.7372C2.16423 27.6806 2.16423 27.8341 2.26159 27.826C2.13177 27.6887 2.13177 27.5756 2.26159 27.406L2.29405 27.4383C2.4401 26.8892 2.68351 26.7115 3.0324 26.1785L2.83767 26.1462C2.91881 26.0331 2.98372 26.0331 3.05674 25.9927C2.8539 25.7262 2.87824 26.3319 2.65105 26.0735C3.07297 26.0654 3.07297 25.1932 3.53546 25.2982C3.64094 25.1205 3.30827 25.2498 3.41375 25.064L3.54358 25.0721L3.43809 24.9509C3.52735 24.846 3.69774 24.8621 3.78699 24.9106C3.76265 24.9348 3.76265 25.0075 3.75453 25.0398C3.96549 24.9671 3.96549 24.5956 4.03852 24.5714L3.86813 24.7006C4.07097 24.1595 4.59837 23.6992 4.76876 23.1419L4.6714 23.1177C4.81744 22.6897 4.97161 22.9319 5.23125 22.5443V22.5685C5.23125 22.4393 5.28805 22.3182 5.38541 22.2374C5.3773 22.3908 5.68562 22.2374 5.65317 22.4312C5.86413 22.0032 5.71808 22.1809 5.73431 21.7286L5.88847 21.8013C5.88035 21.6317 5.83978 21.5671 6.00206 21.3894C5.92904 21.6075 6.2617 21.4783 6.19679 21.7448C6.76476 21.7205 6.58625 21.0583 7.04063 21.3329C7.00006 20.8564 6.57003 21.3733 6.61871 21.2279C6.45643 21.1794 6.60248 20.8645 6.75665 20.816C6.90269 20.7433 7.2597 21.1229 7.59237 20.9372C7.55991 20.9533 7.56803 20.9856 7.53557 21.0018C7.71408 21.0341 7.71408 20.7353 7.94938 20.816C7.92504 20.5495 8.16033 20.7353 8.05485 20.4284L7.76276 20.6464C7.90881 20.493 7.92503 20.0569 8.3145 20.0973C8.3145 20.1699 8.2577 20.283 8.20902 20.3557C8.33884 20.4042 8.36318 20.2265 8.493 20.2749C8.59037 20.5818 8.11977 20.5011 8.03051 20.816C8.17656 20.8968 8.29827 20.4365 8.33884 20.7999C8.30639 20.3395 8.69585 20.703 8.81756 20.3072L8.86624 20.493C8.89058 20.4526 8.93926 20.3395 9.01229 20.3153L8.97172 20.5899C9.09342 20.3153 9.39363 20.6464 9.5478 20.4849C9.16645 20.6061 9.39364 20.2911 9.19079 20.2023C9.62082 19.8065 9.61271 20.598 10.1158 20.388C10.0509 20.4203 9.81555 20.3395 9.91292 20.2265C10.0265 20.2346 10.1807 20.2911 10.2618 20.3799C10.6107 20.2749 10.1726 20.1942 10.3024 20.0488C10.4647 20.2507 10.4647 19.9277 10.6269 19.8308L10.6513 20.0246C11.0894 20.0973 10.7243 19.6046 11.13 19.7258L10.9839 20.0084L11.1787 19.9277L11.1462 20.1538C11.3491 19.9761 11.4221 20.0246 11.633 20.0811C11.5844 19.9438 11.6655 19.7177 11.8602 19.7258C11.9901 19.8469 11.7791 19.9034 12.0469 19.8954C11.9738 20.0165 11.9089 20.1619 11.7953 19.9761C11.7791 20.0407 11.7304 20.0973 11.7223 20.1619C11.8521 20.2992 12.055 20.2103 12.1523 20.2103C12.1199 20.2023 12.0712 20.1861 12.055 20.1619C12.1848 20.073 12.3227 20.0084 12.4607 19.9277C12.5093 20.0084 12.4525 20.0569 12.4039 20.1134C12.485 20.1053 12.5499 20.0165 12.6635 20.0165C12.6067 20.1699 12.5905 20.3315 12.4282 20.388C12.5499 20.3395 12.6797 20.2992 12.8096 20.2669C12.8258 20.3395 12.9556 20.4849 12.8988 20.5334C13.0611 20.6626 13.4424 20.3315 13.6696 20.5334C13.694 20.5091 13.7264 20.4849 13.7913 20.4849C14.0266 20.598 14.1646 20.8483 14.5216 20.7595L14.5621 21.0825C14.8055 21.1148 14.4972 20.6626 14.9029 20.7272C15.195 20.7676 14.8948 20.9937 14.9516 21.1068C15.1382 21.0341 15.4952 20.8968 15.6088 21.2198C15.4952 21.2037 15.4628 21.1391 15.3816 21.1229ZM17.8239 22.7946C17.759 22.7785 17.5805 22.7946 17.6292 22.6816C17.8401 22.5604 17.8077 22.6735 17.8239 22.7946ZM20.8585 26.3804C20.7773 26.3642 20.7773 26.2916 20.8098 26.1866C20.8503 26.235 20.8747 26.2996 20.8585 26.3804ZM12.1686 30.5638C12.1686 30.5638 12.1686 30.5557 12.1767 30.5557C12.3227 30.6284 12.2659 30.5961 12.1686 30.5638ZM11.8765 30.483C11.844 30.5072 11.8521 30.5395 11.8602 30.5638C11.8765 30.5153 11.9414 30.5072 12.0225 30.5234C11.9982 30.4749 11.9657 30.4426 11.8765 30.483ZM6.7891 19.5723L6.87024 19.5885C6.77287 19.7096 6.7891 19.645 6.7891 19.5723Z" fill="#844C3A"/>
<path d="M20.3789 26.017C20.4031 25.9847 20.4274 25.9685 20.4597 25.9443C20.4193 25.9362 20.387 25.9523 20.3789 26.017Z" fill="#844C3A"/>
<path d="M13.6783 20.5253C13.6616 20.5336 13.6533 20.5419 13.6533 20.5503L13.6783 20.5253Z" fill="#844C3A"/>
<path d="M16.3711 28.7628C16.4276 28.787 16.468 28.8274 16.4922 28.8597C16.4922 28.8113 16.4599 28.7709 16.3711 28.7628Z" fill="#844C3A"/>
<path d="M10.334 30.8383L10.5197 30.7818C10.4309 30.7899 10.3986 30.7495 10.3501 30.7172C10.3582 30.7737 10.3905 30.8383 10.334 30.8383Z" fill="#844C3A"/>
<path d="M8.69502 29.6592C8.67079 29.6835 8.63849 29.6592 8.61426 29.6835L8.62233 29.7723C8.7354 29.7723 8.81616 29.6996 8.69502 29.6592Z" fill="#844C3A"/>
<path d="M10.1486 30.1923C10.1324 30.0307 10.0188 30.0873 9.88086 30.1196C9.88897 30.1196 9.89709 30.1196 9.9052 30.1196C9.87275 30.3538 10.0107 30.273 10.1486 30.1923Z" fill="#844C3A"/>
<path d="M9.85509 30.1277C9.81471 30.1357 9.77433 30.1438 9.73395 30.1357C9.71779 30.2246 9.7824 30.1519 9.85509 30.1277Z" fill="#844C3A"/>
<path d="M11.5105 30.596C11.4459 30.5557 11.4782 30.806 11.4379 30.7414C11.3732 30.9514 11.8417 30.483 11.5105 30.596Z" fill="#844C3A"/>
<path d="M10.0342 29.6592L10.0826 29.8611L10.1553 29.6915L10.0342 29.6592Z" fill="#844C3A"/>
<path d="M11.0724 29.7885L10.8615 29.7319C10.8615 29.7642 10.8371 29.7885 10.8047 29.8046C10.9345 29.8127 11.0806 29.8531 11.0724 29.7885Z" fill="#844C3A"/>
<path d="M10.8044 29.8046C10.7398 29.8046 10.6751 29.8046 10.6348 29.8369C10.6751 29.8369 10.7559 29.8288 10.8044 29.8046Z" fill="#844C3A"/>
<path d="M10.3184 29.5946L10.383 29.635L10.5283 29.6431L10.3184 29.5946Z" fill="#844C3A"/>
<path d="M13.3199 29.7965L13.5471 29.7319C13.5714 29.6593 13.5065 29.6189 13.4254 29.6512C13.3686 29.6996 13.2875 29.7239 13.3199 29.7965Z" fill="#844C3A"/>
<path d="M12.623 29.2474C12.6877 29.2877 12.6877 29.3362 12.728 29.4008V29.1505L12.623 29.2474Z" fill="#844C3A"/>
<path d="M13.2882 29.1828C13.3125 29.1101 13.6127 28.9809 13.3288 28.997C13.3044 29.0616 13.0772 29.1262 13.2882 29.1828Z" fill="#844C3A"/>
<path d="M16.7362 29.4412L16.6797 29.4493L16.6958 29.8611L16.7362 29.4412Z" fill="#844C3A"/>
<path d="M19.7449 28.4075C19.4694 28.3106 19.6882 28.6659 19.437 28.5448C19.3722 28.6417 19.6395 28.6417 19.5747 28.7305C19.7368 28.6255 19.8259 28.682 19.7449 28.4075Z" fill="#844C3A"/>
<path d="M19.5837 28.7305C19.5595 28.7467 19.5272 28.7709 19.5029 28.7951C19.5433 28.7628 19.5675 28.7467 19.5837 28.7305Z" fill="#844C3A"/>
<path d="M0.313524 28.464L0.192383 28.6255L0.353903 28.5447L0.313524 28.464Z" fill="#844C3A"/>
<path d="M0.540218 28.8759L0.272461 28.8678L0.483422 29.0212C0.483422 28.9728 0.475308 28.892 0.540218 28.8759Z" fill="#844C3A"/>
<path d="M17.75 23.473L17.8065 23.4407C17.8388 23.3761 17.8227 23.3438 17.7742 23.2873L17.75 23.473Z" fill="#844C3A"/>
<path d="M16.3145 21.9467L16.3387 21.9709L16.4194 21.7367L16.3145 21.9467Z" fill="#844C3A"/>
<path d="M14.6748 21.341C14.7313 21.3813 14.8283 21.3652 14.8848 21.4056C14.7313 21.3813 14.7798 21.0664 14.6748 21.341Z" fill="#844C3A"/>
</svg>
