<svg width="22" height="31" viewBox="0 0 22 31" fill="none" xmlns="http://www.w3.org/2000/svg">
<path d="M11.3945 0.00194707C8.80192 -0.0447463 6.20928 0.741094 3.61754 3.14829C1.04272 5.65284 0.265468 8.72865 0.558386 12.7443C1.38817 17.7007 2.77886 17.4573 4.13661 18.0902C5.52195 17.5954 5.74008 15.7446 5.23349 14.9349C5.23349 14.9349 3.39318 13.3056 3.40832 10.1751C4.7999 5.90817 7.03907 2.09818 13.1983 2.48166C24.5794 5.90519 16.8442 24.9054 10.5265 16.6357L11.0055 14.613C11.2601 12.8059 14.3887 9.50654 11.8593 7.62688C5.99115 4.21826 7.3952 14.4491 7.3952 14.4491L5.00289 25.1111L5.4071 30.7143L8.29265 26.0767L9.6219 20.4596C10.0742 20.9077 10.5576 21.2683 11.0633 21.5683C19.4511 23.746 23.6543 14.9955 21.3947 7.07749C20.0004 3.55363 16.9591 0.269192 11.3945 0.00194707Z" fill="#844C3A"/>
</svg>
