<svg width="27" height="22" viewBox="0 0 27 22" fill="none" xmlns="http://www.w3.org/2000/svg">
<path d="M14.6316 12.6763C8.10821 13.6926 4.86776 14.448 1.61315 15.0934C1.13204 15.1896 0.537717 14.7226 0 14.5304C0.438664 14.0634 0.792425 13.3218 1.33014 13.1707C3.24045 12.6214 5.20737 12.278 7.16013 11.8523C7.93841 11.6875 8.71668 11.5089 9.4808 11.3304C8.88649 10.781 8.33462 10.1767 7.66955 9.7098C7.16013 9.32525 6.45261 9.18791 5.92904 8.8171C4.52815 7.85573 2.9716 6.9905 1.89616 5.74073C1.38674 5.16391 5.19322 5.30125 7.86765 6.75703C8.26387 6.97677 8.44782 7.49865 8.81573 7.78706C9.32515 8.19908 9.90532 8.54242 10.443 8.91323C10.6128 8.10294 11.0515 7.22398 10.8959 6.45489C10.5421 4.7931 9.77796 3.19998 9.41005 1.52445C9.32515 1.11244 10.1459 0.508151 10.5421 0C10.8392 0.412014 11.2779 0.782826 11.3911 1.22231C11.6883 2.48582 11.5609 3.9416 12.1694 5.01284C12.9477 6.37248 14.3627 7.37505 13.8391 9.20164C16.6692 9.69606 15.3957 6.89437 16.5277 6.0566C17.9994 4.9579 19.5418 3.92787 21.0417 2.87036C22.1455 5.0403 18.155 4.9167 19.0324 7.04544C19.1314 7.29265 18.622 7.77333 18.4239 8.14414C18.2258 8.52869 18.0418 8.91324 17.8579 9.31152C18.2399 9.38018 18.6503 9.58619 18.9758 9.49005C19.4003 9.36645 19.7257 8.8171 20.1219 8.7759C22.1172 8.56989 24.1124 8.47375 26.1217 8.35015C25.1595 11.193 22.3011 9.81967 20.4899 10.7673C19.6974 11.1793 18.9192 11.6188 18.1267 12.0583C18.8201 12.6076 19.5135 13.1844 20.2352 13.7063C20.405 13.8299 20.7587 13.6789 20.9285 13.7887C22.4143 14.8462 23.886 15.9449 25.3576 17.0299C23.2209 19.5432 21.9191 15.9587 19.9804 16.302C19.2305 16.4394 18.3531 15.6565 17.49 15.4917C16.174 15.2308 15.9334 15.6428 16.5843 16.8514C17.0796 17.7715 17.2211 18.8977 17.4334 19.9552C17.5183 20.4222 17.3909 20.9166 17.3626 21.411C16.9947 21.1775 16.5985 20.9715 16.2447 20.7106C16.0608 20.5732 15.9334 20.3672 15.7778 20.1887C14.5184 18.6642 15.3391 16.0823 13.0184 15.1072C12.8062 15.0248 12.5515 15.0522 12.3109 15.0385C13.0043 18.1561 8.34877 18.2385 8.63178 21.1226C8.64593 21.3286 8.56102 21.7131 8.47612 21.7406C7.66955 21.8779 6.86297 22.0702 6.09885 21.9741C5.92904 21.9466 5.58943 20.6556 5.85829 20.2986C7.6554 17.8402 9.60816 15.478 14.6316 12.6763C17.7871 12.3192 17.9428 12.1819 18.1126 12.0445C17.773 11.8523 17.4475 11.5913 17.0796 11.5089C16.9664 11.4815 16.74 11.9759 16.5702 12.2368C16.9239 12.3055 17.2777 12.3742 14.6316 12.6763Z" fill="white"/>
</svg>
