<svg width="23" height="32" viewBox="0 0 23 32" fill="none" xmlns="http://www.w3.org/2000/svg">
<path d="M1.56531 11.3907C1.56531 11.2908 1.4116 11.3523 1.38086 11.3369C1.43466 11.4983 1.60374 11.3753 1.56531 11.3907Z" fill="white"/>
<path d="M2.14143 12.9587L2.07227 12.9434L2.26441 13.1586L2.14143 12.9587Z" fill="white"/>
<path d="M2.30335 14.4877C2.56466 14.3186 2.20343 13.9343 2.2726 13.6576L2.33409 13.6038L2.10352 13.5039C2.17269 13.8344 2.35715 14.2494 2.30335 14.4877Z" fill="white"/>
<path d="M1.78112 15.3484C1.88104 15.2869 1.88873 15.5175 1.7965 15.1562C1.78881 15.1716 1.78112 15.1793 1.77344 15.1947C1.77344 15.2254 1.78112 15.2715 1.78112 15.3484Z" fill="white"/>
<path d="M1.77371 15.1956C1.75065 15.0342 1.68917 15.3032 1.77371 15.1956V15.1956Z" fill="white"/>
<path d="M1.88903 15.9263L1.78143 15.7188C1.71994 15.7649 1.71994 15.957 1.67383 15.8878C1.73531 16.103 1.78911 16.0569 1.88903 15.9263Z" fill="white"/>
<path d="M2.09518 16.1174L2.04907 16.0098C2.02601 16.0251 2.01833 16.0559 2.09518 16.1174Z" fill="white"/>
<path d="M1.94922 15.7793L2.04913 16.0022C2.09524 15.9714 2.17979 15.9638 2.01071 15.8946C2.09525 15.9176 2.01839 15.8792 1.94922 15.7793Z" fill="white"/>
<path d="M1.98792 15.6483C2.04172 15.5253 2.06477 15.3716 2.17237 15.5791C2.1032 15.1718 1.91874 15.2486 1.98792 15.6483Z" fill="white"/>
<path d="M2.59495 14.5419L2.65643 14.3728L2.54883 14.2422C2.60263 14.3114 2.5104 14.5573 2.59495 14.5419Z" fill="white"/>
<path d="M1.81055 17.2479C1.87203 17.2556 1.96426 17.171 2.04112 17.1557L1.97195 17.002C1.92583 17.0788 1.89509 17.2325 1.81055 17.2479Z" fill="white"/>
<path d="M2.04102 17.1475L2.14861 17.3781C2.14861 17.1706 2.1025 17.1322 2.04102 17.1475Z" fill="white"/>
<path d="M2.40245 16.1326L2.17188 15.7637L2.41013 16.2094L2.40245 16.1326Z" fill="white"/>
<path d="M1.83366 18.1307L1.69531 18L1.90283 18.2306L1.83366 18.1307Z" fill="white"/>
<path d="M1.86483 18.7223C1.74954 18.6224 1.68037 18.8607 1.60352 18.7531C1.62657 18.9145 1.72648 19.0451 1.81103 19.1681C1.76491 19.0375 1.7726 18.8991 1.86483 18.7223Z" fill="white"/>
<path d="M1.93352 19.3755C1.91046 19.3063 1.86435 19.2448 1.81055 19.168C1.84129 19.2371 1.87204 19.3063 1.93352 19.3755Z" fill="white"/>
<path d="M2.13406 17.7773C2.09563 17.7927 2.01108 17.8311 1.97266 17.9618L2.13406 17.8696C2.13406 17.8388 2.13406 17.8081 2.13406 17.7773Z" fill="white"/>
<path d="M2.13463 17.8691C2.12695 17.9691 2.12695 18.0382 2.12695 18.069C2.12695 18.0459 2.13463 17.9844 2.13463 17.8691Z" fill="white"/>
<path d="M2.13477 17.7539V17.777C2.15014 17.7693 2.15014 17.7616 2.13477 17.7539Z" fill="white"/>
<path d="M2.28711 16.7559C2.38702 16.8865 2.49462 17.1709 2.62528 16.8865C2.50999 16.7943 2.44082 16.9557 2.28711 16.7559Z" fill="white"/>
<path d="M2.33391 17.6323L2.36465 17.3787C2.31853 17.3863 2.25705 17.4325 2.21094 17.3633L2.33391 17.6323Z" fill="white"/>
<path d="M2.38753 17.7538L2.33373 17.6309L2.31836 17.7308L2.38753 17.7538Z" fill="white"/>
<path d="M2.08834 18.9535C2.15751 19.0611 2.17289 19.1764 2.18057 19.3071C2.21132 19.1687 2.22669 19.015 2.22669 18.8767C2.17289 18.8613 2.08066 18.7998 2.08834 18.9535Z" fill="white"/>
<path d="M2.12695 18.4238L2.13463 18.4469C2.15001 18.4392 2.1577 18.4238 2.12695 18.4238Z" fill="white"/>
<path d="M2.15625 20.6129L2.18699 20.5975L2.16394 20.5898L2.15625 20.6129Z" fill="white"/>
<path d="M2.2568 18.8614C2.28754 18.7538 2.24911 18.6923 2.19531 18.6309C2.21068 18.7077 2.22606 18.7923 2.22606 18.8845C2.24911 18.8922 2.26449 18.8922 2.2568 18.8614Z" fill="white"/>
<path d="M2.01133 19.745C2.04976 19.6912 2.07281 19.6297 2.10355 19.5605C2.04975 19.6143 1.96521 19.7219 2.01133 19.745Z" fill="white"/>
<path d="M2.09494 18.4841L2.08725 18.4688C2.04882 18.5072 2.06419 18.4995 2.09494 18.4841Z" fill="white"/>
<path d="M2.0957 18.4857C2.11876 18.5395 2.15719 18.5856 2.19562 18.624C2.18024 18.5626 2.16487 18.5011 2.14182 18.4473C2.12644 18.4626 2.11107 18.478 2.0957 18.4857Z" fill="white"/>
<path d="M3.20201 21.0434C3.0483 21.0204 2.91765 20.7283 3.08673 20.4901C2.97913 20.2441 2.47187 20.3978 2.1875 20.5977C2.25667 20.6053 2.31816 20.6053 2.39502 20.859C2.47956 20.7744 2.61021 20.3133 2.74087 20.5285C2.81004 20.859 2.67939 20.7975 2.59485 20.9512C2.78699 20.8205 2.85616 21.3816 3.14053 21.3201L3.0483 21.0281C3.09441 21.0204 3.1559 21.128 3.20201 21.0434Z" fill="white"/>
<path d="M2.21898 20.1292L2.20361 20.0293C2.17287 20.1446 2.11138 20.2291 1.99609 20.3752C2.06527 20.5442 2.11907 20.5827 2.17287 20.5904L2.20361 20.0908L2.21898 20.1292Z" fill="white"/>
<path d="M2.20343 19.5756C2.36483 19.6525 2.43401 19.8984 2.61846 19.7524C2.61078 19.4527 2.48012 19.5449 2.41094 19.3604C2.44937 19.8446 2.31872 19.2221 2.2188 19.568C2.18806 19.4757 2.18038 19.3912 2.18038 19.3066C2.15732 19.3912 2.13426 19.4757 2.10352 19.5526L2.1112 19.5449C2.13426 19.5218 2.14194 19.5142 2.13426 19.5372V19.5449C2.165 19.5526 2.18038 19.5603 2.20343 19.5756C2.165 19.714 2.15732 19.5987 2.14195 19.5526C2.13426 19.5526 2.12658 19.5449 2.11889 19.5449L2.20343 20.0214C2.2188 19.9292 2.2188 19.7985 2.20343 19.5756Z" fill="white"/>
<path d="M2.99546 17.1328C2.98009 17.1482 2.9724 17.1482 2.95703 17.1482C2.98009 17.1789 2.98778 17.1943 2.99546 17.1328Z" fill="white"/>
<path d="M2.90173 17.3405C2.87868 17.3097 2.8095 17.279 2.82488 17.1637C2.87099 17.0638 2.90173 17.1637 2.95553 17.156C2.90942 17.0868 2.83256 16.9177 2.75571 17.1406L2.77876 17.1714C2.72496 17.3712 2.53282 17.6248 2.50977 17.5941C2.65579 17.5249 2.7557 17.4711 2.90173 17.3405Z" fill="white"/>
<path d="M2.60352 18.4766L2.68806 18.8762L2.8264 18.6687L2.74186 18.6764C2.78029 18.4535 2.67269 18.5073 2.60352 18.4766Z" fill="white"/>
<path d="M2.07338 20.6593L1.9043 20.6055L2.14255 20.836L2.07338 20.6593Z" fill="white"/>
<path d="M2.07949 21.1754L1.92578 21.1523L2.01801 21.2907L2.07949 21.1754Z" fill="white"/>
<path d="M16.8529 24.4258L16.8145 24.3105C16.8221 24.3567 16.8375 24.3951 16.8529 24.4258Z" fill="white"/>
<path d="M16.791 25.2644L16.8679 25.2875C16.8218 25.249 16.791 25.2337 16.791 25.2644Z" fill="white"/>
<path d="M6.50781 30.7129C6.66921 30.8589 6.85367 31.0972 6.8383 30.9204L6.79219 30.7513C6.6769 30.7821 6.58467 30.759 6.50781 30.7129Z" fill="white"/>
<path d="M15.3993 30.5518L15.3532 30.498C15.3071 30.5518 15.261 30.598 15.2148 30.6364C15.2763 30.6133 15.3378 30.5826 15.3993 30.5518Z" fill="white"/>
<path d="M15.6152 29.8906C15.6767 29.9367 15.6921 29.9752 15.7459 30.0136C15.7075 29.9752 15.6921 29.9291 15.6152 29.8906Z" fill="white"/>
<path d="M16.6514 19.7986L16.4746 19.668C16.4823 19.8832 16.5668 19.7833 16.6514 19.7986Z" fill="white"/>
<path d="M1.67324 26.4707C1.5887 26.609 1.54259 26.7166 1.51953 26.8166C1.6425 26.6628 1.8039 26.5399 1.67324 26.4707Z" fill="white"/>
<path d="M18.5961 24.8478C18.5731 24.771 18.5346 24.7402 18.5039 24.7402C18.527 24.8171 18.55 24.8632 18.5961 24.8478Z" fill="white"/>
<path d="M1.46555 27.2391C1.4886 27.2161 1.49629 27.193 1.51935 27.17C1.50397 27.0624 1.49628 26.9471 1.52703 26.8164C1.4348 26.9394 1.37332 27.0777 1.46555 27.2391Z" fill="white"/>
<path d="M9.29038 11.8064C9.27501 11.7987 9.25964 11.7987 9.25195 11.791C9.25195 11.8064 9.26733 11.8064 9.29038 11.8064Z" fill="white"/>
<path d="M4.29297 10.1532C4.33908 10.1455 4.42362 10.1455 4.49279 10.1455C4.46205 10.1301 4.40057 10.1301 4.29297 10.1532Z" fill="white"/>
<path d="M1.88769 23.2579C1.88769 23.1426 1.87232 23.2349 1.88769 23.2579V23.2579Z" fill="white"/>
<path d="M2.58789 22.7656C2.60326 22.7887 2.62632 22.8117 2.66475 22.8117C2.62632 22.8041 2.60326 22.7887 2.58789 22.7656Z" fill="white"/>
<path d="M2.31055 28.4919V28.4996C2.34898 28.4611 2.34129 28.4688 2.31055 28.4919Z" fill="white"/>
<path d="M1.9736 23.0957C1.95054 23.1341 1.92748 23.1802 1.91211 23.234C1.93517 23.211 1.95054 23.1649 1.9736 23.0957Z" fill="white"/>
<path d="M1.89627 23.112C1.90396 23.0736 1.91164 23.0429 1.91933 23.0198C1.89627 23.0044 1.87321 23.0121 1.89627 23.112Z" fill="white"/>
<path d="M1.88867 23.4033C1.88867 23.3418 1.90404 23.2804 1.91942 23.2266C1.90404 23.2496 1.89636 23.2573 1.88867 23.2496C1.88867 23.288 1.88867 23.3342 1.88867 23.4033Z" fill="white"/>
<path d="M16.5149 11.8983C16.5226 11.8907 16.5226 11.883 16.5303 11.8753C16.4457 11.7677 16.4611 11.8138 16.5149 11.8983Z" fill="white"/>
<path d="M9.52709 29.1758L9.51172 29.1835L9.53477 29.1912L9.52709 29.1758Z" fill="white"/>
<path d="M9.94237 29.0918C9.75023 29.2839 9.658 29.2532 9.52734 29.1994L9.61957 29.6913L9.94237 29.0918Z" fill="white"/>
<path d="M16.8445 22.3968L16.6908 22.6735C16.4448 22.343 16.5294 22.1047 16.3218 22.3584C16.8445 22.3968 16.3756 23.4267 16.8829 23.4728L16.7676 23.6496C16.7753 23.5958 16.7446 23.5881 16.7522 23.5343C16.4909 23.8801 17.1212 23.811 17.0366 24.2644C16.9905 24.4258 16.906 24.5334 16.8522 24.4181L16.9598 24.7794C16.9444 24.8793 16.8522 24.8485 16.8675 24.7486L16.8752 25.2943L16.8598 25.2866C16.9367 25.3712 17.052 25.5556 17.0981 25.6402C17.0136 25.7708 17.0443 25.5633 16.9828 25.5941L17.0827 25.9015C16.9367 26.0091 16.8291 25.7555 16.8675 25.5479C16.3295 25.7862 16.9751 25.8093 16.6216 26.378L16.5755 26.109C16.2604 26.2627 16.3526 26.4856 16.1374 26.7853C16.2373 26.7239 16.66 26.2012 16.7599 26.5394C16.7138 26.6239 16.6831 26.7469 16.7676 26.9314C16.5832 26.916 16.6062 27.0851 16.5908 27.3003L16.3449 27.2542C16.3833 27.4924 16.514 27.4847 16.6062 27.6385C16.5524 27.8921 16.3526 27.9151 16.1835 27.9536C16.0913 28.3532 16.5217 27.7153 16.5063 28.2072C16.3526 28.53 16.4141 28.7759 16.4909 29.214C16.3756 29.3985 16.3449 29.1602 16.268 29.214C16.3218 29.2832 16.3833 29.3216 16.4371 29.3754C16.4294 29.3985 16.368 29.3677 16.3449 29.36C16.3987 29.4676 16.5832 29.4446 16.6062 29.6444C16.7215 29.7366 16.6139 29.7981 16.5063 29.8289C16.391 29.8596 16.3218 29.8827 16.3987 30.1132C16.2988 30.0287 16.3065 29.9442 16.2142 29.8366C16.1912 29.9365 16.1451 29.9672 16.122 30.0056C16.0913 30.0441 16.0759 30.0979 15.976 30.2208C15.8838 30.1517 15.8069 30.0902 15.7454 30.0287C15.9068 30.2362 15.7454 30.436 15.3996 30.5667C15.4764 30.6666 15.5379 30.7512 15.5917 30.7973L15.1229 30.8664C15.0768 30.8203 15.1306 30.7435 15.2151 30.6512C15.1844 30.6666 15.1536 30.682 15.1229 30.6974C14.9768 30.5821 15.0768 30.4591 15.2074 30.3361C15.2535 30.3899 15.2996 30.4514 15.3458 30.5052C15.4764 30.3746 15.5994 30.2208 15.5994 30.0748C15.5686 30.0979 15.5072 30.1132 15.4457 30.1209C15.4764 30.0825 15.5072 30.0518 15.4918 30.0287C15.4764 29.998 15.4226 30.0518 15.3458 30.0979L15.2843 29.8135L15.2458 29.9211L14.6771 29.6752C14.2236 29.8904 13.8086 30.2516 13.1323 30.29C13.3167 30.1056 13.2091 29.9672 13.2399 29.729C13.3936 29.998 13.7702 29.6828 14.1084 29.7751C13.9316 29.729 13.9854 29.6214 14.0315 29.5829L13.3859 29.7366C13.4243 29.5445 13.2706 29.5752 13.1169 29.4753C13.1938 29.875 12.625 29.6752 12.3637 29.7674C12.3637 29.6367 12.4329 29.5138 12.7403 29.5752C12.4329 29.2524 12.2561 29.9749 11.9487 29.6982C12.0255 29.7059 12.064 29.729 12.0947 29.6675C11.9102 29.7674 11.4875 29.629 11.6028 29.5291L11.6797 29.5368C11.1878 29.4369 10.1656 29.3908 10.0657 29.7136C10.0657 29.6675 10.1656 29.3293 10.204 29.2601L9.22794 30.2823C9.32785 30.0056 9.08191 29.3216 9.50463 29.191C9.38934 29.1448 9.24331 29.0834 8.98968 29.1679C9.06654 29.214 9.15877 29.5906 9.05117 29.606C8.77448 29.2755 8.85134 29.4215 8.49779 29.1295C8.61308 29.1986 8.45168 29.629 8.25954 29.5983C8.29028 29.5368 8.27491 29.1602 8.34408 29.1218L7.83683 29.5214C7.9598 29.4523 7.88294 29.1602 7.78303 29.0296C7.82914 29.1141 7.368 28.9988 7.23734 29.0296L7.43717 29.1448C6.89917 29.0526 6.86843 29.7213 6.33811 29.6675C6.40729 29.5829 6.52257 29.1295 6.25357 29.0603C6.11523 29.2755 5.65408 30.0979 5.17757 30.2516L5.09303 30.1209L4.72412 30.2516C4.96237 29.9288 5.61566 29.2524 5.98457 28.9988C5.78474 28.8912 5.93846 28.8451 5.63103 28.8451C5.53112 28.7221 5.8078 28.6683 5.89234 28.6683L5.18526 28.5607C5.20832 28.822 4.63189 28.799 4.65494 29.0142L5.4312 28.7759C5.45426 29.0372 4.96237 29.4907 4.4628 29.4292C4.33983 29.3216 4.5704 28.9758 4.56272 28.8835C4.49355 28.9681 4.0862 29.0372 4.04009 28.9758L4.25529 28.8451C3.95555 28.7375 3.81721 29.1756 3.66349 28.922C3.58664 28.9066 3.62506 28.5915 3.54821 28.7375C3.47135 29.0296 3.21772 29.9365 2.94872 30.1517C2.88724 30.1286 2.33386 29.8596 2.36461 29.7136C2.37229 29.5983 2.58749 29.4676 2.76426 29.337C2.94872 29.2063 3.08706 29.0834 3.12549 28.9834C3.064 29.0526 2.92566 29.1372 2.86418 29.1679C2.84112 29.1064 3.10243 28.9527 2.92566 28.9834C2.77963 29.0987 2.65666 29.1372 2.71046 29.0449C2.7412 28.9834 2.72584 28.9758 2.59518 29.1986C2.49527 29.1218 2.67972 28.9681 2.69509 28.7913C2.59518 28.8758 2.44146 28.9296 2.31081 28.8989C2.18015 28.8682 2.08024 28.7529 2.07255 28.6222C2.14172 28.6222 2.24164 28.5377 2.28775 28.4992C2.39535 27.9843 2.55675 27.7461 2.64129 27.2542C2.71046 27.2157 2.81806 26.9929 2.91798 27.1081C2.87955 27.0313 2.80269 26.9544 2.81806 26.8007C3.08706 26.5394 2.80269 27.1389 3.10243 26.9544C2.95641 26.916 2.94872 26.5317 2.88724 26.3088C2.64129 26.3473 2.77195 26.793 2.83344 27.0236C2.51064 26.9775 2.23395 26.5548 2.14941 26.0398C2.11867 25.6325 2.37998 25.8938 2.34155 25.8169C2.48758 25.0714 1.85735 25.1099 2.15709 24.5181C2.38766 24.2875 2.56444 24.5488 2.71815 24.5104C2.76426 24.8485 2.54138 25.0023 2.51832 25.2251L2.64898 24.9638C2.71047 25.0791 2.73352 25.302 2.65666 25.4173C2.87186 25.2328 2.83343 24.1415 3.04863 23.565C2.98715 23.4574 2.93335 23.2653 2.84112 23.3498L2.85649 23.5343C2.67972 23.688 2.65666 23.1654 2.55675 23.3959C2.45684 23.1346 2.30312 22.8503 2.41072 22.5121L2.64898 22.4583C2.57981 22.4583 2.49527 22.6812 2.56444 22.7811C2.47221 22.6274 2.91029 22.2661 2.61055 22.0894L2.43378 22.3276C2.32618 22.074 2.09561 21.7512 2.18783 21.4515C1.94958 21.5821 2.21089 21.5206 1.92652 21.7281C2.27238 21.5591 1.87272 22.5121 2.24163 22.2277C1.91115 22.4352 2.08792 22.6043 1.79587 22.881C1.87272 22.881 1.94958 22.7888 1.89578 23.0424C1.91884 23.0578 1.94189 23.0885 1.95727 23.1039C1.95727 23.1116 1.94958 23.1116 1.94958 23.1193L1.95727 23.1039C1.96495 23.1193 1.97264 23.1193 1.95727 23.0962C1.99569 23.0347 2.04181 22.9886 2.08792 22.9732C2.25701 23.1116 2.21858 23.5266 2.30312 23.6726C2.25701 23.8263 2.21858 23.6035 2.12635 23.6803L2.24932 23.8955C2.07255 23.9032 1.92652 24.2721 1.85735 23.9109L1.81892 24.2337C1.70364 24.4105 1.64215 24.6718 1.69595 24.8409C1.64215 24.9869 1.84198 25.2482 1.72669 25.0945L1.7728 25.6094H1.72669C1.64984 26.1013 1.87272 26.6701 1.48844 27.1927C1.50381 27.3694 1.52687 27.5385 1.43464 27.8306L1.27324 27.8998C1.27324 28.2533 0.91201 29.0757 1.05035 29.1833C0.796725 29.46 0.673751 29.9903 0.596894 30.4898C0.581522 30.6128 0.566153 30.7358 0.550781 30.8664C0.689124 30.8588 0.835153 30.8588 0.96581 30.8511C1.22712 30.8434 1.4577 30.8357 1.62678 30.8588L1.81124 30.6666C2.26469 30.682 2.72584 30.6359 3.24846 30.5667L3.26383 30.3976C3.47135 30.3284 3.76341 30.3669 3.98629 30.4207C4.18612 30.4745 4.409 30.5436 4.63189 30.5436C4.60114 30.6051 4.48586 30.5898 4.409 30.5436C4.93163 30.951 5.54649 30.3054 6.023 30.6051C6.14597 30.5513 6.23052 30.5744 6.31506 30.6205C6.30737 30.6205 6.292 30.6205 6.28431 30.6282C6.29969 30.6282 6.31505 30.6359 6.33043 30.6359C6.38423 30.6666 6.43803 30.705 6.49183 30.7358C6.44572 30.6897 6.3996 30.6512 6.35349 30.6359C6.44572 30.6359 6.59174 30.6205 6.73009 30.5898L6.7762 30.7742C6.79157 30.7742 6.79926 30.7742 6.80694 30.7742C6.9376 30.8511 6.92223 30.6897 6.85305 30.5513C6.92223 30.5283 6.9914 30.4898 7.0452 30.4514C7.13743 30.7588 7.41411 30.3746 7.54477 30.6974C7.64468 30.5513 8.25185 30.6282 8.34408 30.3054C8.34408 30.3515 8.38251 30.3746 8.31334 30.3669C8.46705 30.413 8.62077 30.4591 8.7668 30.3822L8.81291 30.6205L9.17414 30.3284C9.36628 30.4898 9.44314 30.5744 9.22794 30.7435C9.74288 30.5052 9.63528 30.6743 10.0734 30.4284L10.0426 30.5744C10.1887 30.5821 10.45 30.3976 10.5268 30.536C10.8343 30.8511 12.1792 30.7281 13.0016 31.097C12.8863 30.6359 13.3782 31.343 13.4474 31.0048C13.4858 31.1124 13.5934 31.1892 13.4474 31.2661C13.8932 31.2123 14.0776 31.512 14.4158 31.2584C14.4542 31.3737 14.3005 31.3968 14.3389 31.4659C14.3774 31.4506 14.485 31.3891 14.5234 31.4582C14.5618 31.5274 14.4465 31.5351 14.3774 31.5735C14.8231 31.612 14.9077 31.2968 14.9845 30.9971C15.192 31.1739 15.2996 31.1662 15.5072 30.9894C15.5994 31.1047 15.7685 31.2354 15.3996 31.22C15.561 31.2584 16.8137 31.5658 16.6984 31.3045C16.7984 31.3814 17.0059 31.366 17.0366 31.343C17.0981 31.3506 17.1519 31.366 17.198 31.3737C17.2441 31.3814 17.2979 31.4044 17.2902 31.343C17.3056 31.2738 17.3287 31.2123 17.344 31.1508C17.3748 31.0278 17.3978 30.9049 17.4363 30.6666L17.3748 30.7588C17.1596 30.3515 17.3902 30.3592 17.4363 29.9826L17.4593 30.0056C17.8359 29.2601 17.4286 29.6214 17.7898 29.0219H17.6054C17.2211 28.8989 17.9435 28.4992 17.8359 28.1073L17.713 28.2226C17.6054 28.0074 18.3201 27.7307 18.397 27.5308C18.4354 27.4924 18.4431 27.6077 18.4585 27.6769C18.7582 27.1696 18.2279 27.577 18.2279 27.1696C18.3662 27.1081 18.5507 27.3003 18.5968 27.0313C18.7121 26.9006 18.251 26.2089 18.5353 25.8631C18.4277 25.9399 18.3201 26.0091 18.2586 25.8169C18.2433 25.5326 18.6813 25.0714 18.3816 24.7947C18.4123 24.7563 18.4354 24.7486 18.4662 24.7486C18.4047 24.5257 18.3586 24.0339 18.1895 23.9032C18.8427 23.7187 17.9128 22.5505 18.4892 22.5659L18.4585 21.8972L18.52 21.9126C18.5507 21.4822 18.4047 21.3362 18.2586 21.1901C18.2971 21.0902 18.3509 21.1594 18.3816 21.1671C18.4892 20.5445 18.4585 20.4754 18.1434 19.9681L18.3278 19.9066C18.2125 19.7683 18.5891 18.992 18.3201 18.4002C18.3432 18.4079 18.3816 18.4156 18.4124 18.4617C18.151 17.7931 18.812 16.7786 18.1049 16.5864L17.8897 16.156C17.8897 16.7401 17.5823 16.0945 17.4901 16.3482C17.4286 16.1253 17.6438 15.741 17.7053 16.0177L17.6745 16.0638C18.0434 16.133 17.736 15.3336 17.982 15.326C17.8436 14.1885 17.9205 13.0587 17.8129 11.9904L17.5516 12.1441L17.5208 11.7675C17.5746 11.6599 17.7206 11.6138 17.7437 11.8751C17.8129 11.7828 17.7744 11.7137 17.6976 11.5753C17.6207 11.4447 17.5208 11.3524 17.4901 11.3601C17.5054 10.9835 17.59 11.0066 17.6745 11.1296C17.7591 11.2525 17.8436 11.4677 17.8282 11.3371L17.7668 10.9989L17.7437 11.0911C17.5977 10.8606 17.4824 10.9067 17.444 10.4455C17.4593 10.1151 17.5823 10.1612 17.5823 10.0382C17.5977 10.0228 17.6054 9.96902 17.5669 9.84605L17.5362 9.46945L17.5285 9.37722C17.5285 9.33879 17.4824 9.36954 17.4593 9.36185L17.2826 9.37722C17.3056 9.41565 17.321 9.44639 17.3364 9.48482C17.3364 9.53862 17.3978 9.52325 17.344 9.63085C17.2057 9.63085 17.0212 9.70002 16.9444 9.70771C16.8522 9.73077 16.8368 9.76919 16.8829 9.89216C16.8291 9.70002 16.2142 9.73845 15.6224 9.79994C15.3765 9.83068 15.1382 9.85374 14.9461 9.87679C14.7847 9.89217 14.654 9.89985 14.6079 9.86911C14.3389 10.0613 14.0469 10.0843 13.6933 10.092C13.7856 10.1304 13.8624 10.3764 13.555 10.3687C13.6242 9.84605 12.9786 10.1919 12.7019 9.83837C12.9401 10.0689 11.8411 9.96134 12.21 10.2841C11.9487 10.2611 12.1793 10.092 11.9794 9.98439C11.3876 10.2227 10.6421 9.93828 9.8966 10.0382C9.88891 10.1074 10.0196 10.2073 9.85817 10.3149L9.45083 9.99208C9.3048 10.0305 9.32785 10.3841 9.05117 10.1612C9.08959 10.215 9.15108 10.2995 9.05117 10.3226C7.5832 10.0382 6.04606 10.6454 4.56272 9.99977C4.76255 10.1304 4.6242 10.1458 4.47049 10.1458C4.5704 10.1765 4.46281 10.3149 4.48586 10.4071L3.871 10.1381C3.74803 10.3917 3.20235 10.1304 3.12549 10.3764L3.32532 10.3379C3.04863 10.6146 3.67118 10.9912 3.62506 11.3524C3.93249 11.0296 4.40132 11.8597 4.90089 11.3986C5.00849 11.4754 4.80866 11.5138 4.86246 11.5984C4.99312 11.4447 5.13915 11.4139 5.41583 11.4831L5.38509 11.5215C6.16903 11.4908 6.49951 11.6445 7.38337 11.7367L7.3142 11.5523C7.50634 11.5753 7.54477 11.6291 7.62931 11.6752C7.84451 11.3986 7.099 11.6676 7.29114 11.3601C7.54477 11.729 8.62077 11.3448 8.79754 11.7598C9.0896 11.7521 8.70531 11.5523 8.99737 11.5446L9.07422 11.6522L9.1434 11.5062C9.33554 11.5215 9.43545 11.6599 9.44314 11.7598C9.39702 11.7521 9.31248 11.7905 9.26636 11.7982C9.51999 11.9212 9.96577 11.729 10.0503 11.7675L9.76594 11.706C10.5499 11.5676 11.5337 11.6676 12.2792 11.3832L12.2177 11.2986C12.7864 11.0988 12.6942 11.3601 13.3244 11.2372L13.3014 11.2602C13.4243 11.168 13.5857 11.1065 13.7625 11.0988C13.6088 11.2141 14.0853 11.2679 13.8778 11.3986C14.4926 11.1757 14.1775 11.2372 14.5618 10.8836L14.6694 11.0143C14.8001 10.8759 14.8001 10.8068 15.1152 10.7376C14.8692 10.8836 15.3381 10.9297 15.0614 11.1219C15.4687 11.2372 15.5148 11.1526 15.6455 11.0758C15.7608 11.0066 15.8991 10.9451 15.853 11.1757C16.2527 10.7299 15.6148 10.9835 15.7531 10.8836C15.6686 10.7606 16.0298 10.5531 16.1989 10.5762C16.2834 10.5685 16.2834 10.6992 16.268 10.8221L16.2604 10.9144C16.2527 10.9528 16.2219 11.0143 16.2066 11.0604C16.1758 11.1603 16.1528 11.2372 16.1604 11.2986C16.1604 11.2679 16.1297 11.291 16.1297 11.2679C16.0452 11.4293 16.2834 11.3755 16.1374 11.583C16.3756 11.56 16.1451 11.7367 16.4448 11.6906L16.3372 11.4062C16.4294 11.5138 16.7984 11.6061 16.6908 12.121C16.6293 12.0903 16.5294 11.9673 16.4756 11.8828C16.3987 12.0288 16.5678 12.1287 16.4909 12.2824C16.1835 12.2901 16.3449 11.6214 16.1143 11.6445C16.0528 11.6983 16.1143 11.7367 16.1528 11.7752C16.1835 11.7982 16.2066 11.9212 16.0298 11.852C16.4679 12.0134 16.0375 12.3823 16.3987 12.7051H16.2142C16.2527 12.7589 16.3526 12.8665 16.3603 12.9741L16.1066 12.8127C16.3449 13.0817 15.9914 13.3892 16.1374 13.6582C16.0682 13.074 16.3372 13.5044 16.4448 13.2431C16.7676 13.9348 16.0221 13.712 16.1912 14.5036C16.1528 14.396 16.2604 14.0809 16.3603 14.2423C16.3372 14.396 16.2911 14.6112 16.2066 14.7111C16.2988 15.2414 16.3833 14.6112 16.5217 14.8264C16.3218 15.0339 16.637 15.08 16.7369 15.3029L16.5524 15.326C16.4909 15.9485 16.9521 15.4489 16.8598 16.01L16.5832 15.8025L16.6754 16.0792L16.4602 16.0407C16.6446 16.3328 16.6139 16.4404 16.5832 16.7478C16.7061 16.6633 16.9213 16.7555 16.9521 17.0245C16.8598 17.2166 16.7676 16.94 16.8214 17.3166C16.6984 17.2397 16.5447 17.1552 16.7061 16.9784C16.6446 16.963 16.5832 16.9015 16.5217 16.8938C16.4141 17.1014 16.5294 17.3934 16.5447 17.5318C16.5447 17.478 16.5524 17.4165 16.5755 17.378L16.8752 17.9084C16.8137 18.0006 16.7522 17.9391 16.6908 17.8699C16.7215 17.9775 16.8137 18.0544 16.8368 18.2158C16.6831 18.185 16.5294 18.2081 16.4448 17.9775L16.6446 18.4925C16.5832 18.5309 16.4832 18.7768 16.4218 18.7077C16.3526 18.9997 16.7599 19.4071 16.66 19.799C16.6908 19.8144 16.7215 19.8528 16.7446 19.9374C16.7292 20.2986 16.5601 20.6291 16.7753 21.0518L16.514 21.2977C16.5832 21.6282 16.8445 20.9596 16.9598 21.5206C17.052 21.9203 16.7292 21.6743 16.66 21.8127C16.7984 22.0048 17.075 22.3507 16.8522 22.7119C16.8214 22.6043 16.8598 22.5121 16.8445 22.3968ZM16.7676 26.524C16.7369 26.4395 16.6293 26.2704 16.7446 26.2243C16.9444 26.3319 16.8368 26.3934 16.7676 26.524ZM14.8308 30.1209C14.9 30.0671 14.9922 30.1132 15.0844 30.1901C15.0076 30.1978 14.923 30.1747 14.8308 30.1209ZM1.93421 24.4643L1.94189 24.4719C1.84966 24.6487 1.8881 24.5872 1.93421 24.4643ZM2.04949 24.103C2.02643 24.0646 2.00338 24.0646 1.97263 24.08C2.01875 24.1107 2.01107 24.1953 1.98801 24.2875C2.04181 24.2644 2.08023 24.2183 2.04949 24.103ZM17.5439 10.0228L17.5131 10.1689C17.4363 9.97671 17.4824 9.99976 17.5439 10.0228Z" fill="white"/>
<path d="M15.5918 29.9668C15.6072 29.9975 15.6149 30.036 15.6149 30.0744C15.6379 30.0437 15.6533 30.0052 15.5918 29.9668Z" fill="white"/>
<path d="M16.6831 19.8219V19.8065C16.6754 19.7988 16.66 19.7988 16.6523 19.7988L16.6831 19.8219Z" fill="white"/>
<path d="M3.15612 28.8828C3.1715 28.9059 3.16381 28.9443 3.14844 28.975C3.18687 28.9289 3.20224 28.8982 3.15612 28.8828Z" fill="white"/>
<path d="M1.88086 22.1133L1.91928 22.3515C1.91928 22.2363 1.95772 22.1978 1.98846 22.144C1.94234 22.1517 1.88086 22.1901 1.88086 22.1133Z" fill="white"/>
<path d="M3.10174 20.0763C3.07868 20.0379 3.10174 19.9995 3.07868 19.9688L2.99414 19.9764C2.99414 20.1225 3.06331 20.2301 3.10174 20.0763Z" fill="white"/>
<path d="M2.50328 21.9281C2.65699 21.9205 2.61857 21.7667 2.59551 21.5977C2.59551 21.6053 2.59551 21.6207 2.59551 21.6284C2.38031 21.5669 2.4418 21.7437 2.50328 21.9281Z" fill="white"/>
<path d="M2.59592 21.5521C2.58823 21.4983 2.58823 21.4445 2.59592 21.3984C2.51137 21.3753 2.58055 21.4599 2.59592 21.5521Z" fill="white"/>
<path d="M1.9889 23.6256C2.03502 23.5488 1.79676 23.5565 1.85824 23.518C1.6661 23.4104 2.05807 24.0637 1.9889 23.6256Z" fill="white"/>
<path d="M3.02613 21.8203L2.83398 21.8664L2.98001 21.974L3.02613 21.8203Z" fill="white"/>
<path d="M2.8024 23.1427L2.87926 22.8737C2.84852 22.8737 2.83314 22.843 2.81777 22.7969C2.79472 22.966 2.7486 23.1504 2.8024 23.1427Z" fill="white"/>
<path d="M2.8181 22.8049C2.82579 22.7204 2.82579 22.6358 2.80273 22.582C2.80273 22.6281 2.80273 22.7357 2.8181 22.8049Z" fill="white"/>
<path d="M3.06331 22.1895L3.0172 22.2663L2.99414 22.4585L3.06331 22.1895Z" fill="white"/>
<path d="M2.47266 26.0393L2.48803 26.339C2.54951 26.3774 2.60331 26.3006 2.58794 26.193C2.5572 26.1084 2.54183 26.0008 2.47266 26.0393Z" fill="white"/>
<path d="M3.11062 25.209C3.0645 25.2858 3.01839 25.2858 2.94922 25.3243L3.18747 25.3627L3.11062 25.209Z" fill="white"/>
<path d="M3.05664 26.0786C3.11813 26.117 3.1873 26.532 3.22573 26.1554C3.16424 26.117 3.14118 25.8172 3.05664 26.0786Z" fill="white"/>
<path d="M2.96342 29.5293H2.89425L2.64062 29.9136C2.74822 29.7906 2.85582 29.66 2.96342 29.5293Z" fill="white"/>
<path d="M6.88392 28.7384C6.53806 28.6231 6.78401 28.9766 6.47658 28.8383C6.39203 28.9228 6.73021 28.9459 6.64566 29.0227C6.86086 28.9382 6.96846 28.9997 6.88392 28.7384Z" fill="white"/>
<path d="M6.64458 29.0215C6.60616 29.0369 6.57541 29.0522 6.5293 29.0753C6.59078 29.0599 6.62153 29.0369 6.64458 29.0215Z" fill="white"/>
<path d="M3.47875 9.91462L3.25586 9.83008L3.40189 9.96074L3.47875 9.91462Z" fill="white"/>
<path d="M3.04175 10.1911L2.99564 9.9375L2.84961 10.1604C2.90341 10.1527 3.00332 10.1373 3.04175 10.1911Z" fill="white"/>
<path d="M16.1992 27.0775L16.253 27.1006C16.3222 27.0775 16.3299 27.0237 16.3529 26.9238L16.1992 27.0775Z" fill="white"/>
<path d="M16.6132 24.1341L16.6055 24.1879L16.836 24.0957L16.6132 24.1341Z" fill="white"/>
<path d="M16.3523 21.6273C16.3446 21.7272 16.3984 21.8502 16.3907 21.9501C16.3446 21.7349 16.6367 21.5966 16.3523 21.6273Z" fill="white"/>
<path d="M11.9488 10.6614C11.9334 10.6921 12.0948 10.6998 12.1179 10.7075C12.0871 10.646 11.9027 10.6537 11.9488 10.6614Z" fill="white"/>
<path d="M11.6412 10.1081L11.7104 10.1235L11.5566 10.0312L11.6412 10.1081Z" fill="white"/>
<path d="M11.6949 9.63867C11.4182 9.65404 11.7179 9.81544 11.6103 9.88461L11.5488 9.8923L11.764 9.95379C11.741 9.84619 11.6103 9.70016 11.6949 9.63867Z" fill="white"/>
<path d="M12.3114 9.44724C12.2038 9.45492 12.2268 9.38575 12.2729 9.50104C12.2883 9.50104 12.2883 9.49335 12.3037 9.49335C12.3037 9.48567 12.3037 9.4703 12.3114 9.44724Z" fill="white"/>
<path d="M12.3027 9.49272C12.3027 9.54652 12.395 9.46967 12.3027 9.49272V9.49272Z" fill="white"/>
<path d="M12.2637 9.2544L12.3482 9.33126C12.4097 9.32358 12.4328 9.26209 12.4789 9.29283C12.4328 9.21598 12.3713 9.22366 12.2637 9.2544Z" fill="white"/>
<path d="M12.0723 9.16992L12.1107 9.20835C12.1338 9.20835 12.1414 9.20066 12.0723 9.16992Z" fill="white"/>
<path d="M12.1874 9.29365L12.1106 9.2168C12.0644 9.22448 11.9799 9.2168 12.1413 9.25522C12.0568 9.23217 12.1336 9.25522 12.1874 9.29365Z" fill="white"/>
<path d="M12.1414 9.33203C12.0799 9.36277 12.0338 9.40889 11.9492 9.33203C11.9723 9.46269 12.1644 9.46269 12.1414 9.33203Z" fill="white"/>
<path d="M11.4185 9.58594L11.334 9.62437L11.4185 9.67817C11.3801 9.65511 11.5031 9.59362 11.4185 9.58594Z" fill="white"/>
<path d="M12.4415 8.85567C12.38 8.84798 12.2878 8.86335 12.2109 8.86335L12.2724 8.91715C12.3185 8.8941 12.357 8.84798 12.4415 8.85567Z" fill="white"/>
<path d="M12.2104 8.86384L12.1182 8.7793C12.1028 8.84847 12.149 8.86384 12.2104 8.86384Z" fill="white"/>
<path d="M11.7733 9.13243L11.9655 9.27077L11.7656 9.10938L11.7733 9.13243Z" fill="white"/>
<path d="M12.4716 8.57749L12.6023 8.63129L12.4102 8.53906L12.4716 8.57749Z" fill="white"/>
<path d="M12.4648 8.38639C12.5724 8.42482 12.657 8.35565 12.7262 8.39407C12.7108 8.34027 12.6186 8.29416 12.534 8.24805C12.5801 8.29416 12.5648 8.34027 12.4648 8.38639Z" fill="white"/>
<path d="M12.4102 8.17969C12.4332 8.20274 12.4793 8.2258 12.5331 8.25654C12.5101 8.2258 12.4716 8.20274 12.4102 8.17969Z" fill="white"/>
<path d="M12.1562 8.65549C12.1947 8.65549 12.2869 8.6478 12.3253 8.60938L12.1562 8.62475V8.65549Z" fill="white"/>
<path d="M12.1562 8.6318C12.1716 8.60106 12.1716 8.578 12.1793 8.57031C12.1716 8.578 12.1716 8.59337 12.1562 8.6318Z" fill="white"/>
<path d="M11.9341 8.95512C11.8496 8.90132 11.7574 8.80909 11.6113 8.87826C11.7189 8.92437 11.8035 8.87826 11.9341 8.95512Z" fill="white"/>
<path d="M11.9485 8.68555L11.9023 8.7624C11.9485 8.7624 12.0099 8.75472 12.0561 8.77778L11.9485 8.68555Z" fill="white"/>
<path d="M11.9023 8.64062L11.9485 8.68674L11.9638 8.656L11.9023 8.64062Z" fill="white"/>
<path d="M12.2497 8.29497C12.1805 8.25654 12.1805 8.21812 12.1728 8.17969C12.1344 8.21812 12.119 8.26423 12.1113 8.31034C12.1574 8.31803 12.2497 8.34877 12.2497 8.29497Z" fill="white"/>
<path d="M12.1883 8.45495L12.1806 8.44727C12.1653 8.45495 12.1653 8.45495 12.1883 8.45495Z" fill="white"/>
<path d="M12.1948 7.77148L12.1641 7.77917H12.1948V7.77148Z" fill="white"/>
<path d="M12.0794 8.31742C12.0487 8.34816 12.0871 8.37122 12.1332 8.39428C12.1178 8.37122 12.1102 8.34048 12.1102 8.30974C12.0871 8.30205 12.0717 8.30205 12.0794 8.31742Z" fill="white"/>
<path d="M12.3403 8.05664C12.3018 8.07201 12.2711 8.08738 12.248 8.11044C12.3018 8.09507 12.3864 8.06433 12.3403 8.05664Z" fill="white"/>
<path d="M12.2269 8.44052C12.2038 8.42515 12.1654 8.40209 12.127 8.38672C12.1346 8.40978 12.1577 8.42515 12.1808 8.44821C12.1961 8.44821 12.2115 8.4482 12.2269 8.44052Z" fill="white"/>
<path d="M11.1582 7.57918C11.3119 7.59455 11.4426 7.68678 11.2735 7.75595C11.3811 7.84049 11.8883 7.82512 12.165 7.77901C12.0959 7.77132 12.0344 7.77132 11.9498 7.68678C11.8653 7.70984 11.7423 7.84049 11.6117 7.77132C11.5425 7.66372 11.6731 7.69447 11.7577 7.64835C11.5655 7.67909 11.4887 7.50232 11.212 7.51001L11.3042 7.60224C11.2658 7.59455 11.1966 7.55612 11.1582 7.57918Z" fill="white"/>
<path d="M12.1406 7.91764L12.156 7.94838C12.1867 7.91764 12.2482 7.89458 12.3712 7.85615C12.302 7.79467 12.2482 7.78698 12.1944 7.7793L12.1637 7.93301L12.1406 7.91764Z" fill="white"/>
<path d="M12.1495 8.09525C11.9881 8.05682 11.919 7.97996 11.7422 8.0107C11.7499 8.10293 11.8728 8.08756 11.942 8.14905C11.9113 7.99533 12.0342 8.19516 12.1342 8.09525C12.1572 8.12599 12.1649 8.15673 12.1726 8.17979C12.1956 8.15673 12.2187 8.13368 12.2571 8.11062H12.2494C12.2264 8.1183 12.2187 8.1183 12.2264 8.11062C12.188 8.10293 12.1726 8.10293 12.1495 8.09525C12.188 8.05682 12.1956 8.09525 12.211 8.10293H12.2341L12.1572 7.94922C12.1342 7.98765 12.1342 8.02608 12.1495 8.09525Z" fill="white"/>
<path d="M11.2578 8.77059C11.2732 8.77059 11.2809 8.77059 11.2962 8.77059C11.2809 8.76291 11.2655 8.75522 11.2578 8.77059Z" fill="white"/>
<path d="M11.3642 8.71661C11.3873 8.73198 11.4488 8.74735 11.4334 8.77809C11.3796 8.80115 11.3565 8.77041 11.3027 8.77041C11.3412 8.79346 11.418 8.85495 11.5026 8.79347L11.4795 8.77809C11.541 8.72429 11.7562 8.66281 11.7792 8.67818C11.6255 8.68587 11.5179 8.69355 11.3642 8.71661Z" fill="white"/>
<path d="M11.7191 8.40214L11.6499 8.27148L11.5039 8.32528H11.5884C11.5423 8.39446 11.6499 8.38677 11.7191 8.40214Z" fill="white"/>
<path d="M12.2801 7.76461L12.4569 7.79535L12.2109 7.70312L12.2801 7.76461Z" fill="white"/>
<path d="M12.2715 7.60288L12.4252 7.61825L12.333 7.56445L12.2715 7.60288Z" fill="white"/>
<path d="M9.48242 2.25391L9.50548 2.29233C9.49779 2.27696 9.49011 2.26928 9.48242 2.25391Z" fill="white"/>
<path d="M9.55197 2.19235L9.50586 2.13086C9.52892 2.1616 9.55197 2.19235 9.55197 2.19235Z" fill="white"/>
<path d="M12.3574 3.61411C12.4958 3.56031 12.7186 3.49883 12.5496 3.50651L12.3805 3.52189C12.4112 3.56031 12.3882 3.59106 12.3574 3.61411Z" fill="white"/>
<path d="M10.857 1.10042L10.834 1.16191C10.8801 1.10811 10.9262 1.06199 10.957 1.03125C10.9262 1.05431 10.8955 1.06968 10.857 1.10042Z" fill="white"/>
<path d="M10.3809 1.82962L10.4193 1.68359C10.4039 1.73739 10.3885 1.78351 10.3809 1.82962Z" fill="white"/>
<path d="M9.01367 3.33008L9.14433 3.44536C9.16738 3.39156 9.08284 3.37619 9.01367 3.33008Z" fill="white"/>
<path d="M12.2871 5.9356C12.3563 5.88948 12.3794 5.85874 12.3948 5.82031C12.2948 5.87411 12.1488 5.92023 12.2871 5.9356Z" fill="white"/>
<path d="M8.31446 0.900391C8.30677 0.946505 8.32215 0.984933 8.35289 1.00799C8.35289 0.961876 8.35289 0.923448 8.31446 0.900391Z" fill="white"/>
<path d="M12.3959 5.68945C12.3805 5.69714 12.3728 5.70482 12.3574 5.71251C12.3882 5.74325 12.4035 5.78168 12.3959 5.82011C12.465 5.78168 12.5111 5.73557 12.3959 5.68945Z" fill="white"/>
<path d="M7.60704 7.80273C7.59935 7.80273 7.59936 7.81042 7.58398 7.81042C7.60704 7.81042 7.60704 7.81042 7.60704 7.80273Z" fill="white"/>
<path d="M5.93208 9.30172C5.9167 9.28635 5.91671 9.26329 5.91671 9.24023C5.90902 9.24792 5.90902 9.27098 5.93208 9.30172Z" fill="white"/>
<path d="M12.3789 6.94922C12.3866 6.98765 12.3943 6.9569 12.3789 6.94922V6.94922Z" fill="white"/>
<path d="M11.7116 7.07982C11.6963 7.07214 11.6732 7.06445 11.6348 7.06445C11.6732 7.07214 11.6963 7.07214 11.7116 7.07982Z" fill="white"/>
<path d="M11.366 5.32812C11.3352 5.33581 11.3429 5.32812 11.366 5.32812V5.32812Z" fill="white"/>
<path d="M12.3027 6.99546C12.3258 6.98009 12.3412 6.9724 12.3565 6.95703C12.3412 6.96472 12.3258 6.9724 12.3027 6.99546Z" fill="white"/>
<path d="M12.3806 6.99609C12.3729 7.01147 12.3652 7.01915 12.3652 7.02684C12.396 7.03452 12.4113 7.02684 12.3806 6.99609Z" fill="white"/>
<path d="M12.3727 6.90234C12.3727 6.9254 12.365 6.94077 12.3496 6.95614C12.365 6.94846 12.3727 6.94846 12.3727 6.94846C12.3804 6.94077 12.3804 6.9254 12.3727 6.90234Z" fill="white"/>
<path d="M7.62279 5.17383C7.6151 5.17383 7.61511 5.17383 7.60742 5.17383C7.66122 5.21994 7.65353 5.20457 7.62279 5.17383Z" fill="white"/>
<path d="M10.6035 2.76758L10.6112 2.77526L10.6189 2.76758H10.6035Z" fill="white"/>
<path d="M10.4727 2.65234C10.6802 2.69077 10.6571 2.7292 10.611 2.76763L11.0875 2.71383L10.4727 2.65234Z" fill="white"/>
<path d="M9.26627 2.63745L9.43536 2.65282C9.59676 2.86802 9.48916 2.8757 9.70436 2.9295C9.48916 2.78348 9.51221 2.7143 9.54296 2.64513C9.56601 2.59133 9.58139 2.53753 9.37388 2.38382L9.48916 2.41456C9.48147 2.42225 9.50453 2.43762 9.48916 2.44531C9.7351 2.53753 9.22785 2.16093 9.33545 2.14556C9.38156 2.15325 9.44305 2.19936 9.48148 2.25316C9.45842 2.21473 9.44305 2.16862 9.41999 2.12251C9.43536 2.12251 9.49685 2.19168 9.48148 2.19168L9.50453 2.10713L9.51222 2.12251C9.46611 2.04565 9.41999 1.92268 9.39693 1.86119C9.45842 1.90731 9.41999 1.91499 9.45841 1.96879C9.44304 1.92268 9.43536 1.86888 9.42768 1.82276C9.51222 1.93805 9.55064 2.07639 9.5199 2.07639C9.81964 2.52216 9.48147 1.93036 9.6813 2.16862L9.68899 2.25316C9.83502 2.52985 9.79659 2.41456 9.86576 2.6067C9.8427 2.4991 9.65056 2.16093 9.61982 2.01491C9.64288 2.04565 9.65825 2.06102 9.64288 1.93805C9.70436 2.13019 9.70436 2.07639 9.72742 2.04565L9.79659 2.31465C9.7889 2.23011 9.75816 2.09176 9.75047 1.96111C9.7889 1.96879 9.81964 2.19168 9.8427 2.37613C9.87344 2.40688 9.77353 2.03028 9.81964 1.96111C9.86576 2.06102 9.87345 1.93036 9.9503 1.73822C9.97336 1.83813 9.92724 1.92268 9.93493 2.00722L9.98873 1.76128C9.99642 1.76896 9.98104 1.84582 9.98104 1.87656C10.0195 1.78433 10.0195 1.56914 10.0886 1.48459C10.1809 1.14642 10.081 1.97648 10.2347 1.61525C10.2193 1.70748 10.1655 1.79971 10.1348 1.91499C10.2885 1.69211 10.25 1.75359 10.4576 1.46922C10.4499 1.54608 10.4345 1.61525 10.4191 1.69211C10.496 1.45385 10.6728 1.23865 10.8572 1.10799C10.8956 1.00039 10.911 0.931222 10.9187 0.877422C10.9802 0.869736 11.0417 0.862051 11.1032 0.862051C11.0955 0.908165 11.034 0.96965 10.9571 1.03882L11.0109 1.00808C11.0032 1.10799 10.8803 1.23096 10.7573 1.36162C10.7804 1.30014 10.8034 1.23865 10.8342 1.16948C10.7112 1.30782 10.5882 1.47691 10.496 1.63062C10.519 1.59988 10.5421 1.58451 10.5652 1.57682C10.5344 1.61525 10.5037 1.65368 10.496 1.68442C10.4806 1.71516 10.519 1.66136 10.5728 1.60756L10.3884 1.90731L10.4652 1.79971C10.4499 1.88425 10.4191 1.96111 10.3961 2.03796C10.642 1.82276 11.0263 1.55376 11.1954 1.67673C10.9956 1.76896 10.8956 1.89193 10.6804 2.05333C10.8956 1.83813 10.5498 2.03796 10.5728 1.96111C10.5652 2.00722 10.4652 2.09945 10.4268 2.12251C10.5037 2.08408 10.5805 2.05333 10.6651 2.03028C10.4883 2.16862 10.5421 2.15325 10.4729 2.23011C10.8188 1.95342 10.7266 2.13788 10.8495 2.13019C10.7266 2.19936 10.6036 2.26085 10.619 2.19168C10.3576 2.39151 11.0647 2.03028 10.8418 2.22242C10.8342 2.20705 10.8572 2.19168 10.788 2.21473C10.9033 2.19936 10.8265 2.32233 10.7189 2.34539L10.7112 2.33002C10.6804 2.42993 10.7342 2.57596 11.057 2.59133C11.0186 2.59133 10.6651 2.59902 10.5959 2.6067C10.9648 2.62208 11.3337 2.73736 11.7026 2.80653C11.4183 2.79116 10.7573 2.89876 10.5959 2.78348C10.5575 2.8219 10.5114 2.86802 10.6113 2.93719C10.6497 2.91413 11.0186 2.86802 11.0417 2.89876C10.7342 2.99868 10.8726 2.96793 10.6113 3.08322C10.6728 3.04479 11.1108 3.07553 11.0955 3.12933C11.0263 3.12165 10.6574 3.1447 10.6113 3.12165L11.0494 3.2523C10.9725 3.22156 10.6804 3.2523 10.5652 3.29073C10.6497 3.27536 10.5575 3.4137 10.6036 3.45213L10.7035 3.39065C10.642 3.55205 11.3184 3.53667 11.2953 3.69807C11.2031 3.6827 10.7419 3.65965 10.6881 3.7365C10.911 3.76725 11.7564 3.89022 11.9255 4.03625L11.8026 4.06699L11.9486 4.17459C11.6181 4.10542 10.911 3.92096 10.642 3.82105C10.5421 3.88253 10.496 3.83642 10.5037 3.92865C10.3884 3.95939 10.3269 3.88253 10.3192 3.85179L10.2424 4.0593C10.5037 4.05162 10.5037 4.2207 10.7189 4.20533L10.4499 3.98245C10.7035 3.97476 11.1877 4.1131 11.1416 4.25913C11.0417 4.29756 10.6804 4.22839 10.5959 4.23607C10.6881 4.25145 10.765 4.37442 10.7035 4.38979L10.5652 4.3283C10.4652 4.41284 10.911 4.46664 10.6574 4.55887C10.6497 4.58962 10.3346 4.65879 10.4883 4.66647C10.7804 4.61267 11.695 4.60499 11.9178 4.64342C11.8948 4.65879 11.6335 4.82787 11.4874 4.8663C11.2569 4.9201 10.9341 4.77407 10.7419 4.82019C10.8111 4.82019 10.8956 4.85862 10.9264 4.8663C10.8649 4.90473 10.7112 4.85093 10.7419 4.92779C11.0032 4.94316 10.7189 5.08919 10.9648 4.96622C11.0417 5.04307 10.911 5.05076 10.9187 5.1353C11.0878 5.11224 11.4951 5.22753 11.5643 5.30439C11.4951 5.2967 11.4106 5.31207 11.3722 5.31976C11.3414 5.48116 11.2261 5.55801 11.2184 5.70404C11.157 5.71941 11.0724 5.7809 10.9648 5.75016C11.0109 5.77321 11.0955 5.79627 11.1032 5.84239C10.8726 5.91924 11.0724 5.74247 10.7957 5.79627C10.9494 5.80396 11.0032 5.91924 11.0955 5.98841C11.3337 5.97304 11.1416 5.84239 11.0494 5.77321C11.3722 5.7809 11.7103 5.90387 11.8564 6.06527C11.9332 6.18824 11.6488 6.11139 11.6873 6.13444C11.6181 6.36501 12.2483 6.35733 12.0024 6.54178C11.7949 6.61096 11.595 6.52641 11.4413 6.5341C11.3645 6.43418 11.5797 6.38807 11.572 6.3189L11.4721 6.39576C11.4029 6.35733 11.3568 6.29584 11.4183 6.25741C11.2338 6.31121 11.3645 6.64938 11.1877 6.81847C11.2569 6.8569 11.326 6.9107 11.4106 6.88764L11.3875 6.82616C11.5566 6.78004 11.6104 6.94144 11.695 6.87995C11.8102 6.9645 11.987 7.05673 11.8871 7.15664L11.6488 7.16433C11.718 7.16433 11.7949 7.10284 11.7257 7.06441C11.8179 7.13358 11.3875 7.22581 11.695 7.29498L11.864 7.22581C11.9793 7.31035 12.2253 7.41795 12.1407 7.51018C12.379 7.47944 12.1177 7.48713 12.3944 7.43333C12.0562 7.47175 12.4251 7.18738 12.0639 7.26424C12.3867 7.21044 12.2022 7.14895 12.4789 7.0721C12.402 7.0721 12.3252 7.09515 12.3713 7.0183C12.3482 7.01061 12.3175 7.00293 12.3021 6.99524L12.3098 6.98756L12.3021 6.99524C12.2944 6.98756 12.2868 6.98756 12.3021 6.99524C12.2637 7.01061 12.2253 7.02598 12.1792 7.03367C12.0024 6.98756 12.0178 6.8569 11.9255 6.81078C11.964 6.76467 12.0101 6.83384 12.0946 6.81078L11.9563 6.74161C12.1254 6.74161 12.2483 6.62633 12.3482 6.7493L12.3636 6.64938C12.4635 6.59558 12.502 6.51104 12.4328 6.45724C12.4712 6.41113 12.2483 6.32658 12.379 6.3727L12.2791 6.2113H12.3252C12.3559 6.05758 12.0485 5.88081 12.3636 5.71173C12.3252 5.65793 12.2714 5.60413 12.3175 5.5119L12.4635 5.50421C12.4097 5.43504 12.6172 5.30439 12.4635 5.27364C12.8709 5.20447 12.5558 4.94316 12.6249 4.82787L12.4328 4.82019C12.4482 4.73564 12.3944 4.65879 12.3098 4.55887L12.1407 4.56656C12.0024 4.48202 12.2637 4.34367 12.2483 4.20533C12.3175 4.21302 12.2944 4.25145 12.256 4.2745C12.648 4.10542 11.9716 3.92865 12.256 3.77493C12.1945 3.7365 12.2176 3.71345 12.256 3.6827C12.256 3.6827 12.256 3.69039 12.2637 3.69039C12.2637 3.6827 12.2637 3.6827 12.2637 3.67502C12.2944 3.65965 12.3252 3.63659 12.3559 3.62122C12.3175 3.63659 12.2791 3.65196 12.2637 3.66733C12.2637 3.63659 12.2406 3.59816 12.1945 3.55205L12.379 3.52899C12.379 3.5213 12.379 3.5213 12.3713 3.5213C12.4405 3.47519 12.2868 3.49056 12.1407 3.51362C12.11 3.49056 12.0716 3.47519 12.0254 3.45982C12.3252 3.42139 11.9255 3.35222 12.2406 3.29842C12.0869 3.27536 12.1177 3.08322 11.7949 3.06785C11.841 3.06785 11.8564 3.05248 11.864 3.07553C11.9025 3.02942 11.9332 2.97562 11.841 2.93719L12.0792 2.89876L11.7564 2.80653C11.8948 2.73736 11.9793 2.70662 12.1638 2.7681C11.8794 2.62208 12.0562 2.6605 11.7718 2.51448H11.9255C11.9178 2.44531 11.7103 2.38382 11.8333 2.33002C12.11 2.12251 11.8102 1.65368 11.8794 1.17716C11.5412 1.51534 11.9716 0.885108 11.6873 1.10031C11.7641 1.00808 11.7795 0.923536 11.8794 0.91585C11.7103 0.823622 11.8333 0.539251 11.5566 0.662222C11.6104 0.562308 11.6873 0.569994 11.7103 0.508508C11.6873 0.516194 11.6104 0.531565 11.6335 0.47008C11.6565 0.408594 11.7103 0.423966 11.7641 0.408594C11.6027 0.262566 11.3952 0.52388 11.2108 0.769822C11.2338 0.593051 11.18 0.569994 11.0263 0.716022C11.057 0.616108 11.0647 0.485451 11.1723 0.52388C11.1416 0.462394 10.9033 0.185709 10.7957 0.423966C10.8034 0.36248 10.7266 0.370166 10.7035 0.393223C10.5805 0.347109 10.5728 0.30868 10.4345 0.316366L10.4576 0.36248C10.3423 0.646851 10.3423 0.408594 10.227 0.447023L10.2347 0.41628C10.0195 0.208766 10.1271 0.516194 9.90419 0.30868L9.91187 0.493137C9.8965 0.900479 9.71205 0.300994 9.58139 0.508508L9.64288 0.600737C9.60445 0.762136 9.36619 0.139595 9.2509 0.131909C9.22785 0.108852 9.26628 0.0627376 9.28933 0.0243091C9.00496 -0.0986622 9.32008 0.277937 9.18173 0.41628C9.11256 0.30868 9.12024 0.0704233 8.99727 0.108852C8.88199 0.0473662 8.85893 0.700651 8.62068 0.57768C8.70522 0.639165 8.77439 0.708337 8.75902 0.823622C8.70522 0.923536 8.28251 0.746765 8.40548 1.07725C8.37473 1.06956 8.35167 1.05419 8.3363 1.03882C8.32862 1.16948 8.2287 1.36931 8.34399 1.50765C7.78293 1.18485 8.33631 2.05333 7.85979 1.72285L7.77525 1.92268L7.72913 1.88425C7.62153 1.97648 7.72145 2.09176 7.81367 2.20705C7.76756 2.21473 7.72913 2.16862 7.70608 2.14556C7.50625 2.25316 7.51394 2.29159 7.69071 2.57596L7.51393 2.4991C7.59079 2.58365 7.11428 2.61439 7.22957 2.88339C7.21419 2.8757 7.18345 2.85265 7.16039 2.82959C7.26031 3.11396 6.45331 3.0909 7.05279 3.44445L7.1527 3.64427C7.27567 3.49825 7.42171 3.7903 7.55236 3.76725C7.56005 3.8441 7.29105 3.85179 7.29105 3.75956H7.32948C7.00668 3.59047 7.12965 3.92096 6.89908 3.82105C6.77611 4.15922 6.47636 4.42822 6.36108 4.7587L6.63776 4.80482L6.58396 4.91242C6.51479 4.9201 6.36108 4.88936 6.39951 4.8125C6.23042 4.8125 6.48405 4.98927 6.54554 5.00464C6.38414 5.1353 6.25348 4.85093 6.23042 4.89704V4.9739L6.26885 4.96622C6.36108 5.05076 6.47637 5.08919 6.43794 5.18142C6.36877 5.22753 6.26117 5.16604 6.2458 5.1891C6.23043 5.18142 6.21505 5.1891 6.23042 5.22753L6.16893 5.36587H6.39951C6.49174 5.4581 6.35339 5.49653 6.61471 5.49653C6.20736 5.49653 6.36108 6.00379 6.22273 6.03453C6.36876 6.11139 6.35339 6.20361 6.31497 6.31121C6.36876 6.28816 6.61471 6.3189 6.56859 6.40344C6.06902 6.28047 6.31497 6.54178 5.93837 6.56484C6.192 6.5341 5.96142 6.84921 6.32265 6.78773C6.26885 6.86458 6.13051 6.76467 5.99985 6.81078C6.16893 7.02598 5.82308 7.22581 5.86919 7.47944C5.93836 7.48713 6.04596 7.45638 6.13819 7.51787L5.79234 7.61778C5.82308 7.67158 6.17662 7.68695 5.93837 7.75612C5.99217 7.74844 6.08439 7.73307 6.09977 7.76381C5.73854 8.23264 6.34571 8.70915 5.75391 9.21641C5.88456 9.13955 5.89994 9.18567 5.90762 9.23178C5.93837 9.20104 6.07671 9.22409 6.16893 9.20872L5.93068 9.42392C6.18431 9.43929 5.96911 9.63912 6.20737 9.63144L6.16125 9.56995C6.45331 9.62375 6.78379 9.39318 7.1527 9.37781C6.82222 9.31632 7.61385 9.11649 7.14502 9.00889C7.22188 8.97047 7.26799 9.03195 7.35253 9.00889C7.19113 8.98584 7.16039 8.93972 7.22957 8.85518L7.26799 8.86287C7.21419 8.63998 7.37559 8.54007 7.47551 8.30181L7.29105 8.31718C7.3141 8.26338 7.37559 8.2557 7.42171 8.23264C7.14502 8.16347 7.40633 8.37867 7.0989 8.32487C7.46782 8.2557 7.11428 7.94058 7.53699 7.90984C7.54467 7.83298 7.32179 7.92521 7.32948 7.84067L7.44476 7.8253L7.29873 7.79455C7.32179 7.74075 7.46782 7.72538 7.56773 7.72538C7.55236 7.74075 7.59079 7.76381 7.59848 7.77918C7.72913 7.7177 7.56774 7.58704 7.61385 7.56398L7.53699 7.63315C7.44476 7.40258 7.62154 7.15664 7.42171 6.9107L7.33716 6.91838C7.19882 6.73393 7.44476 6.8031 7.40633 6.61096L7.42171 6.61864C7.34485 6.57253 7.30642 6.51104 7.32948 6.46493C7.42171 6.52641 7.53699 6.41113 7.63691 6.49567C7.49856 6.28816 7.52162 6.38807 7.22957 6.2113H7.37559C7.2603 6.14981 7.19114 6.12676 7.17577 6.02684C7.27568 6.12676 7.39865 6.01147 7.54468 6.12676C7.89053 6.01147 7.29873 5.7809 7.75987 5.79627C7.39865 5.6195 7.50625 5.90387 7.43708 5.84239C7.30642 5.85776 7.16039 5.70404 7.22188 5.65024C7.24494 5.58876 7.73682 5.6733 7.76756 5.51959C7.75988 5.53496 7.79062 5.54264 7.78294 5.55801C7.89054 5.52727 7.68302 5.41199 7.85211 5.38893C7.63691 5.28901 7.89053 5.30439 7.60616 5.21216L7.63691 5.36587C7.58311 5.26596 7.26031 5.09687 7.46782 5.01233C7.52162 5.04307 7.59079 5.10456 7.62153 5.14299C7.72145 5.1353 7.5831 5.05076 7.68302 5.04307C7.96739 5.14299 7.69839 5.22753 7.89054 5.37356C8.02888 5.37356 7.72914 5.15836 8.02888 5.2967C7.64459 5.11993 8.1211 5.17373 7.84442 4.98159L8.0135 5.04307C7.99045 5.02002 7.92128 4.95853 7.92896 4.93547L8.13648 5.05844C7.96739 4.91242 8.35168 4.96622 8.27482 4.85862C8.22871 5.01233 8.05193 4.82019 7.90591 4.84324C7.75988 4.58962 8.41316 4.90473 8.40548 4.66647C8.42085 4.7049 8.26713 4.73564 8.19796 4.65879C8.24407 4.62804 8.32862 4.60499 8.42853 4.61267C8.45159 4.45896 8.24408 4.56656 8.16722 4.46664C8.39011 4.49739 8.11342 4.36673 8.0673 4.2745L8.23639 4.34367C8.41316 4.22839 7.89822 4.15922 8.09036 4.0593L8.30556 4.2207L8.27482 4.12847L8.45928 4.22839C8.34399 4.09005 8.39779 4.07467 8.49002 4.02087C8.35936 3.99013 8.19028 3.87485 8.21333 3.79799C8.33631 3.79799 8.35936 3.8979 8.38242 3.7903C8.47465 3.85947 8.59762 3.94402 8.42085 3.92096C8.47465 3.9517 8.52076 3.98245 8.56688 4.02087C8.70522 4.02087 8.65142 3.90559 8.66679 3.86716C8.65142 3.87485 8.63605 3.89022 8.61299 3.89022L8.4439 3.63659C8.52076 3.64427 8.55919 3.6827 8.59762 3.72882C8.58993 3.69039 8.52845 3.63659 8.53613 3.58279C8.66679 3.65965 8.80513 3.72882 8.84356 3.81336L8.75902 3.61353C8.8205 3.63659 8.95116 3.6289 8.99727 3.66733C9.11256 3.63659 8.82819 3.35222 8.9819 3.31379C8.95885 3.29842 8.94348 3.27536 8.93579 3.24462C9.01265 3.16776 9.22016 3.18313 9.09719 2.97562L9.3585 3.05248C9.3585 2.94488 9.02033 2.96025 9.01265 2.7681C8.99728 2.62976 9.23553 2.85265 9.32008 2.86033C9.23553 2.74505 9.05108 2.51448 9.28933 2.54522C9.31239 2.59902 9.26627 2.59902 9.26627 2.63745ZM9.6275 2.00722C9.63519 2.05333 9.67362 2.18399 9.61982 2.07639C9.53528 1.86888 9.58907 1.96111 9.6275 2.00722ZM10.7112 1.58451C10.6574 1.63062 10.6651 1.59219 10.7035 1.49996C10.7266 1.49996 10.7342 1.52302 10.7112 1.58451ZM12.2483 6.56484H12.2406C12.3098 6.51104 12.2868 6.52641 12.2483 6.56484ZM12.1638 6.68013C12.1868 6.6955 12.2176 6.6955 12.2406 6.68781C12.1945 6.68013 12.1945 6.64938 12.2099 6.61864C12.1561 6.62633 12.1254 6.6417 12.1638 6.68013ZM6.32265 5.18142L6.37645 5.17373C6.40719 5.23522 6.36877 5.21216 6.32265 5.18142Z" fill="white"/>
<path d="M10.4355 1.74614C10.4509 1.70772 10.474 1.66929 10.497 1.63086C10.474 1.6616 10.4509 1.70003 10.4355 1.74614Z" fill="white"/>
<path d="M8.98242 3.30664V3.31433L9.01317 3.3297L8.98242 3.30664Z" fill="white"/>
<path d="M10.6426 4.85861C10.6733 4.83556 10.7041 4.82019 10.7425 4.8125C10.6887 4.8125 10.6503 4.82787 10.6426 4.85861Z" fill="white"/>
<path d="M12.4494 7.31123L12.4033 7.23438C12.411 7.2728 12.3725 7.28049 12.3418 7.29586C12.3802 7.29586 12.4417 7.28818 12.4494 7.31123Z" fill="white"/>
<path d="M11.2578 7.87824C11.2809 7.89361 11.2578 7.9013 11.2809 7.91667H11.3654C11.3654 7.87055 11.2962 7.83212 11.2578 7.87824Z" fill="white"/>
<path d="M11.8268 7.3418C11.6731 7.3418 11.7192 7.38791 11.75 7.44171V7.43403C11.9652 7.46477 11.896 7.40328 11.8268 7.3418Z" fill="white"/>
<path d="M11.75 7.45703C11.7577 7.4724 11.7577 7.48777 11.75 7.50315C11.8422 7.51852 11.7731 7.48777 11.75 7.45703Z" fill="white"/>
<path d="M12.2575 6.83452C12.2191 6.85758 12.4573 6.85758 12.3882 6.87295C12.588 6.90369 12.1653 6.68849 12.2575 6.83452Z" fill="white"/>
<path d="M11.3105 7.35666L11.5027 7.34898L11.349 7.31055L11.3105 7.35666Z" fill="white"/>
<path d="M11.4737 6.95703L11.4199 7.03389C11.4507 7.03389 11.4737 7.04926 11.4814 7.05695C11.4891 7.01083 11.5352 6.95703 11.4737 6.95703Z" fill="white"/>
<path d="M11.4813 7.06445C11.4736 7.08751 11.4813 7.11825 11.512 7.13362C11.512 7.11825 11.5043 7.08751 11.4813 7.06445Z" fill="white"/>
<path d="M11.2578 7.24092L11.3039 7.21786L11.3193 7.16406L11.2578 7.24092Z" fill="white"/>
<path d="M11.5493 6.07223L11.4955 5.98001C11.4264 5.97232 11.3879 5.99538 11.411 6.02612C11.4648 6.05686 11.4879 6.0876 11.5493 6.07223Z" fill="white"/>
<path d="M11.0122 6.32736C11.0506 6.30431 11.0967 6.30431 11.1582 6.29662L10.9199 6.28125L11.0122 6.32736Z" fill="white"/>
<path d="M10.9662 6.06452C10.897 6.05683 10.7817 5.92617 10.7894 6.04146C10.8586 6.05683 10.9124 6.14137 10.9662 6.06452Z" fill="white"/>
<path d="M11.2969 4.72852L11.3046 4.75157H11.6888L11.2969 4.72852Z" fill="white"/>
<path d="M10.358 3.55894C10.2657 3.66654 10.6039 3.58199 10.4809 3.67422C10.5732 3.69728 10.5732 3.59736 10.6577 3.62042C10.5578 3.55894 10.6116 3.52819 10.358 3.55894Z" fill="white"/>
<path d="M10.6582 3.62109C10.6736 3.62878 10.6889 3.64415 10.7197 3.65184C10.6966 3.63647 10.6736 3.62878 10.6582 3.62109Z" fill="white"/>
<path d="M5.74691 9.58594L5.67773 9.67048L5.80071 9.60899L5.74691 9.58594Z" fill="white"/>
<path d="M6.04672 9.70117L5.80078 9.74729L6.03135 9.76266C6.02366 9.74729 5.99292 9.71654 6.04672 9.70117Z" fill="white"/>
<path d="M9.85067 2.49967L9.82762 2.43819C9.80456 2.36901 9.80456 2.36901 9.79688 2.36133L9.85067 2.49967Z" fill="white"/>
<path d="M9.6437 2.43717H9.65138L9.47461 2.29883L9.6437 2.43717Z" fill="white"/>
<path d="M9.56653 3.07465C9.58958 3.05928 9.56652 3.00548 9.58958 2.98242C9.58958 3.05159 9.32058 2.93631 9.56653 3.07465Z" fill="white"/>
<path d="M22.6306 25.9027C22.6229 25.9257 22.7767 25.8796 22.8074 25.8719C22.7613 25.8489 22.5922 25.9181 22.6306 25.9027Z" fill="white"/>
<path d="M22.1779 25.6168L22.2471 25.6091L22.0703 25.5938L22.1779 25.6168Z" fill="white"/>
<path d="M22.0858 25.2637C21.8321 25.3713 22.1626 25.379 22.0858 25.4712L22.032 25.4942L22.2548 25.4635C22.1934 25.3943 22.0243 25.3328 22.0858 25.2637Z" fill="white"/>
<path d="M22.6074 24.918C22.5075 24.9564 22.5075 24.9026 22.5843 24.9718C22.592 24.9641 22.5997 24.9641 22.6074 24.9564C22.6074 24.9487 22.6074 24.941 22.6074 24.918Z" fill="white"/>
<path d="M22.6152 24.9565C22.6306 24.9873 22.6921 24.9104 22.6152 24.9565V24.9565Z" fill="white"/>
<path d="M22.5078 24.7943L22.6154 24.8173C22.6769 24.7943 22.6769 24.7405 22.723 24.7481C22.6538 24.7174 22.6 24.7405 22.5078 24.7943Z" fill="white"/>
<path d="M22.3008 24.8029L22.3469 24.8182C22.37 24.8106 22.3776 24.7952 22.3008 24.8029Z" fill="white"/>
<path d="M22.4476 24.8491L22.3477 24.8184C22.3093 24.8337 22.2247 24.8645 22.3861 24.8337C22.3016 24.8491 22.3861 24.8414 22.4476 24.8491Z" fill="white"/>
<path d="M22.4091 24.8945C22.3553 24.9406 22.3322 24.9868 22.2246 24.956C22.2938 25.0406 22.4782 24.9791 22.4091 24.8945Z" fill="white"/>
<path d="M21.8094 25.3184L21.7402 25.3799L21.8401 25.3876C21.7863 25.3799 21.894 25.2954 21.8094 25.3184Z" fill="white"/>
<path d="M22.5629 24.457C22.5091 24.4724 22.4168 24.5108 22.3477 24.5339L22.4245 24.5493C22.4553 24.5262 22.4783 24.4801 22.5629 24.457Z" fill="white"/>
<path d="M22.3466 24.5346L22.239 24.5039C22.2313 24.5577 22.2851 24.5577 22.3466 24.5346Z" fill="white"/>
<path d="M22.002 24.8728L22.2325 24.9112L22.002 24.8574V24.8728Z" fill="white"/>
<path d="M22.4551 24.1113C22.5704 24.1036 22.6318 24.0344 22.701 24.0344C22.6703 24.0037 22.5704 23.996 22.4781 23.9883C22.5319 24.0113 22.5319 24.0498 22.4551 24.1113Z" fill="white"/>
<path d="M22.3477 23.9805C22.3784 23.9882 22.4245 23.9958 22.486 23.9958C22.4476 23.9805 22.4091 23.9805 22.3477 23.9805Z" fill="white"/>
<path d="M22.2401 24.4029C22.2709 24.3875 22.3631 24.3568 22.3861 24.3184L22.2324 24.3798C22.2324 24.3875 22.2401 24.3952 22.2401 24.4029Z" fill="white"/>
<path d="M22.1078 24.6953C22.0079 24.6876 21.9003 24.6492 21.7773 24.7491C21.8926 24.7337 21.9618 24.6799 22.1078 24.6953Z" fill="white"/>
<path d="M22.0465 24.4883L22.0234 24.5575C22.0619 24.5421 22.1233 24.519 22.1695 24.519L22.0465 24.4883Z" fill="white"/>
<path d="M21.9863 24.4725L22.0478 24.4879L22.0555 24.4648L21.9863 24.4725Z" fill="white"/>
<path d="M22.2234 24.1181C22.1465 24.1104 22.1312 24.0874 22.1158 24.0566C22.0927 24.0951 22.085 24.1335 22.0927 24.1719C22.1465 24.1566 22.2388 24.1489 22.2234 24.1181Z" fill="white"/>
<path d="M22.2079 24.25C22.2002 24.25 22.2002 24.25 22.2002 24.25C22.1848 24.2577 22.1848 24.2577 22.2079 24.25Z" fill="white"/>
<path d="M22.0327 23.75C22.025 23.7577 22.0173 23.7577 22.002 23.7654C22.0173 23.7654 22.025 23.7577 22.0327 23.75Z" fill="white"/>
<path d="M22.0615 24.1794C22.0385 24.2102 22.0769 24.2179 22.1307 24.2179C22.1076 24.2025 22.0923 24.1871 22.0846 24.1641C22.0692 24.1717 22.0538 24.1717 22.0615 24.1794Z" fill="white"/>
<path d="M22.2468 23.911C22.216 23.9341 22.193 23.9571 22.1699 23.9802C22.216 23.9494 22.2929 23.9033 22.2468 23.911Z" fill="white"/>
<path d="M22.2383 24.2257H22.246C22.2844 24.2103 22.269 24.218 22.2383 24.2257Z" fill="white"/>
<path d="M22.2385 24.2264C22.2154 24.2187 22.1693 24.2188 22.1309 24.2188C22.1462 24.2341 22.1693 24.2418 22.1923 24.2495C22.2077 24.2418 22.2231 24.2341 22.2385 24.2264Z" fill="white"/>
<path d="M20.9941 23.9347C21.1402 23.8963 21.2939 23.927 21.1555 24.0269C21.2785 24.05 21.755 23.8886 22.0087 23.7656C21.9472 23.781 21.8857 23.7964 21.7858 23.7656C21.7089 23.8041 21.6321 23.9424 21.486 23.927C21.3938 23.8732 21.5245 23.8502 21.5859 23.7964C21.4092 23.8732 21.2939 23.7733 21.0249 23.8579L21.1402 23.8963C21.1017 23.9117 21.0249 23.904 20.9941 23.9347Z" fill="white"/>
<path d="M22.0234 23.8797L22.0465 23.8951C22.0619 23.8643 22.1157 23.8259 22.2233 23.7567C22.1387 23.7337 22.0849 23.7414 22.0311 23.7567L22.0388 23.8797H22.0234Z" fill="white"/>
<path d="M22.0771 24.0042C21.9157 24.0273 21.8312 23.9888 21.6621 24.0734C21.6929 24.1426 21.8081 24.0888 21.8927 24.1118C21.8235 24.0119 21.9926 24.1195 22.0618 24.0119C22.0925 24.0273 22.1079 24.0426 22.1233 24.058C22.1386 24.035 22.154 24.0042 22.177 23.9812C22.177 23.9812 22.1694 23.9812 22.1694 23.9888C22.154 23.9965 22.1386 24.0042 22.1463 23.9965C22.1463 23.9965 22.1463 23.9965 22.1386 23.9965C22.1156 23.9965 22.0925 23.9965 22.0771 24.0042C22.1002 23.9658 22.1156 23.9888 22.1386 23.9965C22.1463 23.9965 22.154 23.9965 22.1617 23.9888L22.0464 23.9043C22.031 23.9274 22.0387 23.9504 22.0771 24.0042Z" fill="white"/>
<path d="M21.4238 24.7712C21.4392 24.7635 21.4469 24.7635 21.4623 24.7559C21.4392 24.7559 21.4238 24.7635 21.4238 24.7712Z" fill="white"/>
<path d="M21.509 24.7025C21.5321 24.7025 21.6012 24.6949 21.5935 24.7256C21.5551 24.764 21.5167 24.7487 21.4629 24.764C21.509 24.7717 21.5935 24.7871 21.655 24.7179H21.632C21.6781 24.6564 21.8625 24.5488 21.8856 24.5488C21.7396 24.5949 21.6397 24.6334 21.509 24.7025Z" fill="white"/>
<path d="M21.7483 24.3563L21.6484 24.2871L21.5254 24.3717L21.6099 24.3486C21.5869 24.4101 21.6868 24.3717 21.7483 24.3563Z" fill="white"/>
<path d="M22.1081 23.7182L22.2849 23.6875L22.0312 23.6952L22.1081 23.7182Z" fill="white"/>
<path d="M22.0547 23.6047L22.2084 23.5663L22.1085 23.5586L22.0547 23.6047Z" fill="white"/>
<path d="M18.4113 17.279L18.3652 17.2637C18.3806 17.2714 18.396 17.2714 18.4113 17.279Z" fill="white"/>
<path d="M18.4512 17.4783L18.528 17.4629C18.4896 17.4629 18.4589 17.4629 18.4512 17.4783Z" fill="white"/>
<path d="M21.248 20.6443C21.371 20.5675 21.5785 20.4675 21.4094 20.5137L21.248 20.5675C21.2865 20.5905 21.2788 20.6136 21.248 20.6443Z" fill="white"/>
<path d="M19.7414 18.8691C19.7261 18.8768 19.7107 18.8845 19.6953 18.8922C19.7568 18.8845 19.8029 18.8845 19.8567 18.8768C19.8183 18.8768 19.7799 18.8691 19.7414 18.8691Z" fill="white"/>
<path d="M19.0645 19.0163L19.1567 18.9395C19.1259 18.9625 19.0952 18.9856 19.0645 19.0163Z" fill="white"/>
<path d="M17.9503 16.2402L17.7812 16.2556C17.7889 16.3017 17.8658 16.2556 17.9503 16.2402Z" fill="white"/>
<path d="M21.6699 22.3809C21.7237 22.3271 21.7391 22.2964 21.7467 22.2656C21.6622 22.3348 21.5315 22.404 21.6699 22.3809Z" fill="white"/>
<path d="M20.1408 16.8944C20.1101 16.8868 20.0716 16.8868 20.0332 16.8944C20.0716 16.9098 20.1024 16.9098 20.1408 16.8944Z" fill="white"/>
<path d="M21.7163 22.1738C21.7009 22.1815 21.6932 22.1892 21.6855 22.2046C21.7163 22.2199 21.747 22.243 21.747 22.2737C21.8008 22.2199 21.8393 22.1738 21.7163 22.1738Z" fill="white"/>
<path d="M17.0358 12.2908C17.0435 12.2831 17.0435 12.2831 17.0512 12.2754C17.0282 12.2754 17.0282 12.2831 17.0358 12.2908Z" fill="white"/>
<path d="M18.3574 10.7148C18.3728 10.7225 18.3728 10.7379 18.3805 10.761C18.3882 10.7456 18.3882 10.7302 18.3574 10.7148Z" fill="white"/>
<path d="M22.002 23.0957C22.0173 23.1188 22.0173 23.0957 22.002 23.0957V23.0957Z" fill="white"/>
<path d="M21.3931 23.3965C21.3701 23.3965 21.347 23.3965 21.3086 23.4042C21.3547 23.3965 21.3778 23.3965 21.3931 23.3965Z" fill="white"/>
<path d="M20.6403 22.1816C20.6403 22.1816 20.648 22.1816 20.6403 22.1816C20.6173 22.197 20.6173 22.197 20.6403 22.1816Z" fill="white"/>
<path d="M21.9395 23.1574C21.9548 23.1421 21.9702 23.1267 21.9779 23.1113C21.9625 23.119 21.9471 23.1344 21.9395 23.1574Z" fill="white"/>
<path d="M22.0096 23.1348C22.0019 23.1425 22.002 23.1501 22.002 23.1578C22.0327 23.1578 22.0481 23.1501 22.0096 23.1348Z" fill="white"/>
<path d="M21.9784 23.0664C21.9861 23.0818 21.9784 23.0971 21.9707 23.1125C21.9784 23.1048 21.9861 23.0971 21.9938 23.0971C21.9938 23.0895 21.9861 23.0818 21.9784 23.0664Z" fill="white"/>
<path d="M18.0267 14.274C18.0344 14.274 18.0344 14.2663 18.0421 14.2663C17.9652 14.251 17.9806 14.2663 18.0267 14.274Z" fill="white"/>
<path d="M19.3965 20.4217H19.4042L19.4119 20.4141L19.3965 20.4217Z" fill="white"/>
<path d="M19.25 20.3597C19.4575 20.3443 19.4421 20.3751 19.4114 20.4135L19.8649 20.2598L19.25 20.3597Z" fill="white"/>
<path d="M18.235 16.8173L18.1043 16.9172C17.843 16.9018 17.9122 16.825 17.7277 16.9403C18.235 16.8173 17.843 17.1785 18.3503 17.0555L18.258 17.1247C18.258 17.1093 18.2273 17.117 18.235 17.1017C18.0121 17.2477 18.6193 17.0632 18.5732 17.1939C18.5424 17.24 18.4809 17.2861 18.4118 17.2784L18.5578 17.3245C18.5578 17.3476 18.4656 17.3707 18.4656 17.3399L18.5424 17.4552H18.527C18.6116 17.4552 18.7422 17.4629 18.8037 17.4629C18.7422 17.5167 18.7422 17.4629 18.6884 17.4859L18.8268 17.5244C18.7038 17.5859 18.5578 17.5628 18.5655 17.509C18.0813 17.7088 18.7115 17.5321 18.4502 17.7549L18.3656 17.7088C18.089 17.8318 18.2119 17.8549 18.0505 17.9778C18.1428 17.9317 18.4579 17.7088 18.6039 17.7473C18.5732 17.778 18.5578 17.8087 18.6731 17.8241C18.4963 17.8702 18.5501 17.901 18.5732 17.9471L18.3349 18.0086C18.4194 18.047 18.5347 18.0086 18.65 18.0086C18.6423 18.0777 18.4656 18.1392 18.3118 18.193C18.2965 18.3006 18.5885 18.047 18.6654 18.1469C18.5962 18.2545 18.7115 18.2853 18.8729 18.3391C18.8037 18.4159 18.7269 18.3698 18.6654 18.4082H18.8652C18.8652 18.4236 18.8037 18.4313 18.773 18.439C18.8575 18.462 19.0112 18.3775 19.0958 18.4313C19.3648 18.3775 18.7499 18.6695 19.065 18.6695C19.0036 18.708 18.919 18.7003 18.8268 18.731C19.0497 18.7925 18.9959 18.7925 19.2802 18.8079L19.1419 18.9309C19.3033 18.8233 19.5339 18.8463 19.726 18.8617C19.8029 18.8156 19.8797 18.7771 19.9105 18.7618L20.0642 18.8309C20.0258 18.854 19.9412 18.8617 19.8413 18.8771C19.8644 18.8771 19.8874 18.8771 19.9028 18.8771C19.8259 18.9385 19.6799 18.9539 19.5416 18.9616C19.5877 18.9385 19.6338 18.9078 19.6799 18.8847C19.5262 18.9001 19.3648 18.9155 19.2264 18.9616C19.2572 18.9616 19.2802 18.9693 19.3033 18.977C19.2649 18.977 19.2264 18.9847 19.2034 18.9923C19.1803 19 19.2341 19 19.3033 19L19.042 19.0923L19.1496 19.0692L19.0189 19.246C19.311 19.269 19.726 19.2537 19.8797 19.3766C19.6722 19.392 19.5569 19.4535 19.3264 19.515C19.5569 19.4074 19.188 19.4227 19.2188 19.3305C19.2034 19.3766 19.0958 19.3997 19.0497 19.3997L19.311 19.4842C19.1188 19.5303 19.1803 19.5534 19.1112 19.6072C19.4724 19.4765 19.3878 19.6456 19.5185 19.6764C19.3955 19.7148 19.2649 19.7302 19.2726 19.6533C19.0112 19.807 19.7337 19.6379 19.5185 19.7763C19.5108 19.7609 19.5262 19.7455 19.4647 19.7532C19.5877 19.7609 19.5262 19.8839 19.4109 19.8916L19.4032 19.8762C19.3878 19.9992 19.4954 20.2221 19.8106 20.1529C19.7721 20.1683 19.4263 20.2374 19.3571 20.2528L20.4715 20.1683C20.1948 20.2221 19.5646 20.468 19.3878 20.4142C19.3571 20.4526 19.3187 20.4987 19.434 20.5295C19.4647 20.4987 19.8106 20.3758 19.849 20.3988C19.5646 20.5525 19.703 20.4911 19.4647 20.6448C19.5185 20.5987 19.9489 20.5218 19.9489 20.5679C19.8797 20.5756 19.5339 20.6832 19.4801 20.6832H19.9258C19.8413 20.6755 19.5723 20.7754 19.457 20.8292C19.5339 20.7985 19.4724 20.9291 19.5262 20.9445L19.6107 20.8753C19.58 21.0137 20.2333 20.8369 20.241 20.9676C20.1487 20.9753 19.703 21.0752 19.6645 21.152C19.8874 21.1213 20.7252 21.006 20.9173 21.0675L20.802 21.1213L20.9634 21.1674C20.6252 21.1981 19.9105 21.2366 19.6261 21.2289C19.5416 21.2981 19.4878 21.2827 19.5185 21.3442C19.4109 21.398 19.334 21.3519 19.3187 21.3365L19.2879 21.5133C19.5339 21.4364 19.5723 21.5671 19.7798 21.5056L19.4724 21.398C19.7183 21.3211 20.2102 21.3057 20.1948 21.4364C20.1026 21.4902 19.7414 21.5363 19.6645 21.5594C19.7568 21.5517 19.8567 21.6209 19.8029 21.6516L19.6568 21.6362C19.58 21.7285 20.0181 21.6516 19.7952 21.7899C19.7875 21.8207 19.4954 21.9513 19.6415 21.9206C19.9182 21.8053 20.7943 21.5594 21.0172 21.5286C21.0018 21.544 20.779 21.7361 20.6483 21.8053C20.4331 21.9052 20.0949 21.8822 19.9182 21.9744C19.9873 21.959 20.0796 21.959 20.1103 21.959C20.0565 22.0051 19.8951 22.0051 19.9412 22.0589C20.1948 21.9975 19.9489 22.1896 20.1641 22.0282C20.2486 22.0666 20.1257 22.1051 20.1564 22.1665C20.3178 22.0974 20.7328 22.082 20.8174 22.1204C20.7559 22.1358 20.6714 22.1665 20.6329 22.1896C20.6406 22.3126 20.5484 22.4125 20.5714 22.5201C20.51 22.5431 20.4562 22.62 20.3409 22.6277C20.387 22.6354 20.4792 22.62 20.4946 22.6584C20.2948 22.7814 20.4408 22.5893 20.1872 22.7122C20.3332 22.6738 20.4177 22.7507 20.5176 22.7737C20.7405 22.6969 20.533 22.6507 20.4254 22.62C20.7405 22.5354 21.0864 22.5355 21.2632 22.6123C21.3631 22.6815 21.071 22.7045 21.1171 22.7122C21.1094 22.9044 21.7012 22.7122 21.5168 22.9197C21.3323 23.0273 21.1171 23.0273 20.9788 23.0811C20.8866 23.0273 21.071 22.9274 21.0556 22.8813L20.9788 22.9735C20.9096 22.9658 20.8404 22.9274 20.8942 22.889C20.7252 22.9889 20.9404 23.1964 20.8097 23.3732C20.8866 23.3809 20.9634 23.4039 21.0403 23.3578L21.0018 23.3194C21.1556 23.2349 21.2478 23.3424 21.3093 23.2656C21.4399 23.2963 21.6321 23.3117 21.5629 23.4116L21.34 23.4885C21.4092 23.4654 21.463 23.3962 21.3861 23.3962C21.4937 23.4039 21.1094 23.6038 21.4169 23.5576L21.5629 23.4577C21.6936 23.4808 21.9549 23.4885 21.9011 23.5807C22.1163 23.4885 21.8703 23.573 22.124 23.4501C21.8088 23.5807 22.0855 23.2656 21.7627 23.427C22.0548 23.2963 21.8703 23.304 22.1086 23.1657C22.0317 23.1887 21.9702 23.2272 21.9933 23.158C21.9702 23.158 21.9395 23.1657 21.9241 23.1657C21.9241 23.1657 21.9241 23.1657 21.9318 23.158C21.9318 23.158 21.9241 23.158 21.9241 23.1657C21.9088 23.1657 21.9088 23.1657 21.9241 23.1657C21.8934 23.1887 21.855 23.2118 21.8165 23.2272C21.6398 23.2425 21.6167 23.1503 21.5168 23.1349C21.5398 23.0888 21.609 23.1272 21.6782 23.0888L21.5322 23.0734C21.7012 23.0273 21.7858 22.9044 21.9011 22.9658L21.8857 22.889C21.9702 22.8198 21.9856 22.7507 21.9088 22.7276C21.9318 22.6815 21.7012 22.6892 21.8396 22.6815L21.7012 22.5893L21.7397 22.5739C21.732 22.4509 21.4015 22.4048 21.6628 22.1973C21.609 22.1665 21.5475 22.1435 21.5783 22.0666L21.7166 22.0128C21.6551 21.9744 21.8165 21.8207 21.6628 21.8437C22.0394 21.6823 21.6782 21.5747 21.7243 21.4671L21.5322 21.5133C21.5245 21.4518 21.4553 21.4057 21.3631 21.3519L21.2017 21.398C21.048 21.3672 21.2785 21.1981 21.2324 21.0982C21.3016 21.0905 21.2862 21.1213 21.2555 21.1443C21.6013 20.9215 20.9096 20.9599 21.1556 20.7677C21.0864 20.7524 21.1018 20.7293 21.1402 20.6986L21.1479 20.7063C21.1479 20.7063 21.1479 20.6986 21.1479 20.6909C21.1709 20.6678 21.2017 20.6525 21.2247 20.6294C21.1863 20.6525 21.1556 20.6755 21.1479 20.6832C21.1402 20.6601 21.1094 20.6371 21.0556 20.614L21.2324 20.5525C21.2324 20.5525 21.2324 20.5449 21.2247 20.5449C21.2785 20.4987 21.1325 20.5449 21.0018 20.5987C20.9711 20.591 20.9327 20.5833 20.8789 20.5833C21.1632 20.4834 20.7559 20.5218 21.0556 20.4065C20.9019 20.4219 20.9019 20.2759 20.5791 20.345C20.6176 20.3297 20.6406 20.322 20.6406 20.3373C20.6637 20.2912 20.6944 20.2451 20.5945 20.2374L20.8174 20.1606L20.4946 20.1683C20.6176 20.0837 20.6944 20.0453 20.8866 20.0453C20.5868 20.0069 20.7636 19.9838 20.4715 19.9531L20.6176 19.9146C20.6022 19.8839 20.3947 19.8762 20.51 19.8224C20.7713 19.6687 20.4485 19.4304 20.656 19.1614C20.2333 19.3151 20.8251 19.0154 20.4869 19.0999C20.5868 19.0615 20.6329 19.0154 20.7328 19.0231C20.6022 18.9462 20.8558 18.8309 20.5561 18.8309C20.656 18.7925 20.7098 18.8156 20.7713 18.7848C20.7482 18.7848 20.6714 18.7771 20.7328 18.7464C20.7943 18.7233 20.8251 18.7387 20.8712 18.7387C20.8251 18.6388 20.51 18.7157 20.2102 18.7848C20.3332 18.6926 20.3101 18.6772 20.1026 18.6849C20.1948 18.6388 20.2871 18.585 20.3409 18.6388C20.3486 18.6004 20.4254 18.3775 20.1872 18.439C20.241 18.4082 20.1948 18.3852 20.1641 18.3852C20.1564 18.3006 20.1795 18.2853 20.1334 18.2161L20.1026 18.2468C19.8106 18.2929 20.0181 18.2007 19.972 18.1392L20.0027 18.1315C20.1718 17.9317 19.8874 18.0931 20.0872 17.8856L19.9105 17.9394C19.5262 18.0316 20.1026 17.7473 19.9335 17.7088L19.8413 17.7626C19.6953 17.7549 20.3255 17.4936 20.3639 17.4321C20.3947 17.4168 20.4254 17.4321 20.4485 17.4398C20.6406 17.2554 20.2102 17.4859 20.1334 17.4091C20.2563 17.3553 20.4562 17.3476 20.4638 17.2784C20.5561 17.2246 20.0104 17.2093 20.2256 17.0632C20.1334 17.1093 20.0411 17.1478 19.9566 17.1324C19.9028 17.0786 20.2794 16.8634 19.9566 16.8865C19.9796 16.8711 20.0027 16.8634 20.0258 16.8557C19.9335 16.825 19.849 16.7327 19.6799 16.7481C20.2794 16.5406 19.2956 16.5252 19.8644 16.3715L19.7952 16.2255L19.8567 16.2101C19.872 16.1025 19.726 16.1025 19.58 16.1102C19.6107 16.0795 19.6722 16.0795 19.703 16.0718C19.7798 15.9027 19.7491 15.895 19.434 15.8489L19.6184 15.7874C19.5031 15.7874 19.849 15.503 19.603 15.4262C19.6261 15.4185 19.6645 15.4185 19.6876 15.4185C19.4263 15.3186 20.0949 14.9112 19.4109 15.0342L19.2188 14.9727C19.2034 15.1187 18.919 15.0342 18.8268 15.1187C18.773 15.0803 18.9959 14.9266 19.042 14.9881L19.0112 15.0035C19.3648 14.9343 19.0881 14.8036 19.3264 14.7421C19.2418 14.4885 19.3648 14.1811 19.311 13.9275L19.0497 14.0274L19.042 13.9352C19.0958 13.8967 19.2495 13.8506 19.2495 13.9121C19.3955 13.8352 19.0958 13.8429 19.0343 13.8583C19.1112 13.7123 19.3648 13.8199 19.3571 13.7814L19.3264 13.7353L19.311 13.8122C19.188 13.8045 19.0727 13.8276 19.065 13.7507C19.1035 13.6892 19.2264 13.6815 19.2341 13.6585C19.2572 13.6508 19.2572 13.6431 19.2341 13.6277L19.2264 13.5124L19.0266 13.6124C18.9113 13.5893 19.0112 13.5048 18.7807 13.62C19.1342 13.4433 18.8114 13.182 18.9113 13.1051C18.7346 13.082 18.7192 13.0129 18.7192 12.9283C18.6808 12.9591 18.4425 13.0359 18.4502 12.9591C18.9574 12.8515 18.6346 12.7746 18.9728 12.6209C18.7499 12.7362 18.8575 12.4364 18.5424 12.6055C18.5655 12.5364 18.7269 12.5517 18.8345 12.4749C18.6039 12.3903 18.8806 12.1367 18.7653 11.9753C18.6961 11.9907 18.6039 12.0445 18.4963 12.0368L18.796 11.86C18.7576 11.837 18.4118 11.9292 18.6193 11.8062C18.5655 11.8293 18.4886 11.8677 18.4579 11.8446C18.6884 11.4219 18.0121 11.2221 18.5194 10.7225C18.4041 10.7994 18.381 10.7763 18.3733 10.7379C18.3503 10.7686 18.2119 10.784 18.1274 10.8071L18.3349 10.5996C18.0813 10.638 18.2734 10.4535 18.0352 10.4996L18.089 10.5304C17.7969 10.5458 17.4972 10.7763 17.1359 10.8686C17.4664 10.8532 16.7209 11.176 17.1974 11.1606C17.1282 11.2067 17.0744 11.1683 16.9976 11.2067C17.159 11.1914 17.1974 11.2221 17.1436 11.299H17.1052C17.1897 11.468 17.0591 11.5833 17.013 11.8062L17.182 11.7447C17.1667 11.7908 17.1206 11.8139 17.0821 11.8523C17.3588 11.8293 17.0668 11.7294 17.3742 11.6909C17.0283 11.8446 17.451 11.9907 17.0514 12.1444C17.0668 12.2136 17.2512 12.0675 17.2666 12.1367L17.159 12.1828L17.305 12.1598C17.2896 12.2059 17.159 12.2674 17.0668 12.2981C17.0744 12.2827 17.036 12.275 17.0206 12.2674C16.9054 12.3596 17.1052 12.4134 17.0668 12.4441L17.1206 12.3596C17.2743 12.5133 17.1897 12.7669 17.4587 12.8822L17.5356 12.8438C17.7277 12.936 17.4741 12.9744 17.5817 13.0974H17.5586C17.6509 13.1051 17.7047 13.1358 17.7047 13.1743C17.5971 13.1666 17.5356 13.2972 17.4126 13.2742C17.6124 13.3741 17.5586 13.3126 17.8968 13.3203L17.7662 13.3818C17.8968 13.3818 17.966 13.3664 18.0198 13.4279C17.8891 13.3972 17.82 13.5278 17.6509 13.5048C17.3896 13.7353 18.0121 13.6508 17.5971 13.8352C17.9967 13.8045 17.7738 13.6431 17.8661 13.6662C17.9814 13.597 18.1658 13.6508 18.1428 13.7046C18.1504 13.7584 17.6739 13.9198 17.72 14.0351C17.72 14.0197 17.6893 14.0274 17.6893 14.0197C17.6048 14.0889 17.843 14.0735 17.7047 14.1734C17.9429 14.1427 17.7124 14.2503 18.0044 14.1811L17.9045 14.0889C17.9967 14.135 18.358 14.0966 18.2196 14.2503C18.1581 14.258 18.0736 14.2503 18.0198 14.2349C17.9429 14.2887 18.0966 14.281 18.0121 14.3348C17.7124 14.404 17.9122 14.2118 17.6662 14.2042C17.551 14.2733 17.9122 14.2733 17.5894 14.3271C18.0044 14.2656 17.574 14.4655 17.9045 14.4655L17.7277 14.5039C17.7585 14.5116 17.8507 14.5116 17.8507 14.5423L17.6124 14.5577C17.8276 14.5731 17.4741 14.7345 17.5971 14.7729C17.5586 14.6422 17.8046 14.6884 17.9122 14.5961C18.1889 14.696 17.4741 14.819 17.6124 14.9804C17.5817 14.965 17.6893 14.8574 17.7815 14.8728C17.7585 14.9189 17.697 14.9804 17.6124 15.0265C17.6816 15.1418 17.7892 14.9573 17.9122 14.9804C17.7124 15.0803 18.0121 15.0188 18.0966 15.0573L17.9199 15.1034C17.843 15.2725 18.3042 15.0419 18.1966 15.2033L17.9352 15.2187L18.0198 15.2648L17.8123 15.3032C17.9814 15.3339 17.9506 15.3647 17.9122 15.4569C18.0352 15.4031 18.2427 15.3801 18.2657 15.4415C18.1735 15.5107 18.089 15.4646 18.1351 15.5415C18.0198 15.5491 17.8738 15.5645 18.0275 15.4877C17.966 15.503 17.9122 15.4953 17.8507 15.5107C17.7431 15.5876 17.8507 15.6337 17.8661 15.6644C17.8661 15.6491 17.8738 15.6337 17.8968 15.6183L18.1812 15.6798C18.1197 15.7182 18.0582 15.7182 18.0044 15.7182C18.0275 15.7413 18.1197 15.7336 18.1428 15.772C17.9967 15.8028 17.843 15.8412 17.7585 15.8105L17.9506 15.8873C17.8891 15.9104 17.7969 15.9949 17.7354 15.9949C17.6816 16.1179 18.0736 16.1179 17.9814 16.2332C18.0121 16.2332 18.0428 16.2332 18.0659 16.2485C18.0582 16.3408 17.8968 16.4637 18.1197 16.5099L17.8738 16.6328C17.9506 16.6943 18.1812 16.4714 18.3118 16.5713C18.4194 16.6405 18.0966 16.6636 18.0352 16.7174C18.1812 16.7251 18.4656 16.7327 18.2811 16.8788C18.235 16.8634 18.2657 16.8327 18.235 16.8173ZM18.6116 17.7473C18.5655 17.7396 18.4425 17.7319 18.5424 17.6935C18.7576 17.655 18.6654 17.7011 18.6116 17.7473ZM19.434 19.0999C19.3725 19.0999 19.3955 19.0692 19.457 19.0308C19.4801 19.0461 19.4724 19.0692 19.434 19.0999ZM21.7781 22.8583H21.7704C21.8242 22.7968 21.8012 22.8198 21.7781 22.8583ZM21.7243 22.9658C21.755 22.9658 21.7781 22.9582 21.8012 22.9505C21.755 22.9582 21.7474 22.9351 21.755 22.9121C21.7089 22.9274 21.6782 22.9505 21.7243 22.9658ZM19.165 13.6738L19.1265 13.7046C19.0574 13.6815 19.1035 13.6815 19.165 13.6738Z" fill="white"/>
<path d="M19.1504 18.9995C19.1811 18.9841 19.2119 18.9764 19.2426 18.9688C19.2119 18.9688 19.1734 18.9764 19.1504 18.9995Z" fill="white"/>
<path d="M17.9819 16.2401C17.9819 16.2325 17.9819 16.2325 17.9819 16.2401C17.9742 16.2401 17.9589 16.2401 17.9512 16.2401H17.9819Z" fill="white"/>
<path d="M19.8496 22.0283C19.8727 22.0052 19.9034 21.9822 19.9342 21.9668C19.888 21.9822 19.8496 21.9975 19.8496 22.0283Z" fill="white"/>
<path d="M22.1467 23.343L22.0852 23.2969C22.1005 23.3199 22.0621 23.343 22.0391 23.366C22.0852 23.3507 22.139 23.3276 22.1467 23.343Z" fill="white"/>
<path d="M21.1719 24.1186C21.1949 24.1186 21.1796 24.134 21.2026 24.134L21.2872 24.1109C21.2718 24.0802 21.1949 24.0725 21.1719 24.1186Z" fill="white"/>
<path d="M21.5707 23.5508C21.4247 23.5969 21.4785 23.62 21.5169 23.6507V23.643C21.7321 23.5969 21.6475 23.5738 21.5707 23.5508Z" fill="white"/>
<path d="M21.5254 23.6582C21.5331 23.6659 21.5408 23.6813 21.5408 23.6966C21.6253 23.6736 21.5561 23.6736 21.5254 23.6582Z" fill="white"/>
<path d="M21.8557 23.0502C21.825 23.0809 22.0479 23.0118 21.9941 23.0348C22.1862 23.0041 21.7251 22.9733 21.8557 23.0502Z" fill="white"/>
<path d="M21.0781 23.7197L21.2626 23.6582L21.1089 23.6736L21.0781 23.7197Z" fill="white"/>
<path d="M21.1322 23.3738L21.0938 23.4506C21.1245 23.443 21.1475 23.443 21.1629 23.4506C21.1629 23.4122 21.1937 23.3584 21.1322 23.3738Z" fill="white"/>
<path d="M21.1719 23.4492C21.1719 23.4723 21.1796 23.4876 21.218 23.4876C21.2103 23.48 21.1949 23.4569 21.1719 23.4492Z" fill="white"/>
<path d="M21.002 23.6491L21.0404 23.6184V23.5723L21.002 23.6491Z" fill="white"/>
<path d="M20.994 22.6964L20.9248 22.6426C20.8557 22.6503 20.8249 22.681 20.8557 22.6964C20.9018 22.7041 20.9325 22.7194 20.994 22.6964Z" fill="white"/>
<path d="M20.5413 23.036C20.5721 23.0052 20.6182 22.9975 20.672 22.9668L20.4414 23.0283L20.5413 23.036Z" fill="white"/>
<path d="M20.4335 22.851C20.3644 22.8587 20.226 22.8049 20.2644 22.8818C20.3259 22.8741 20.3951 22.9279 20.4335 22.851Z" fill="white"/>
<path d="M20.4492 21.7525L20.4569 21.7679L20.8335 21.668L20.4492 21.7525Z" fill="white"/>
<path d="M19.3032 21.0988C19.234 21.2064 19.5415 21.0527 19.4492 21.1603C19.5415 21.1526 19.5261 21.0758 19.6106 21.0758C19.503 21.045 19.5491 21.0066 19.3032 21.0988Z" fill="white"/>
<path d="M19.6113 21.0684C19.6267 21.0684 19.6498 21.076 19.6728 21.076C19.6421 21.076 19.6267 21.0684 19.6113 21.0684Z" fill="white"/>
<path d="M18.5108 10.4694L18.5723 10.3926L18.457 10.4617L18.5108 10.4694Z" fill="white"/>
<path d="M18.2051 10.446L18.4433 10.3691L18.2204 10.3999C18.2281 10.3999 18.2512 10.4229 18.2051 10.446Z" fill="white"/>
<path d="M18.166 18.0241L18.2275 18.0088C18.289 17.9857 18.289 17.9703 18.2967 17.9473L18.166 18.0241Z" fill="white"/>
<path d="M18.1582 17.2703V17.2857L18.3657 17.2012L18.1582 17.2703Z" fill="white"/>
<path d="M17.7207 16.7555C17.7207 16.7786 17.7745 16.794 17.7745 16.8247C17.7207 16.7863 17.9897 16.6787 17.7207 16.7555Z" fill="white"/>
<path d="M21.9873 23.8509C22.0027 23.8662 22.0411 23.7125 22.0565 23.6895C22.0181 23.7125 21.9796 23.8893 21.9873 23.8509Z" fill="white"/>
<path d="M21.6417 24.1336L21.6571 24.0645L21.5879 24.2182L21.6417 24.1336Z" fill="white"/>
<path d="M21.4176 24.0884C21.4022 24.3651 21.5022 24.0577 21.5329 24.1576L21.5252 24.2191L21.5867 24.0039C21.5252 24.0346 21.4407 24.173 21.4176 24.0884Z" fill="white"/>
<path d="M21.3485 23.4805C21.3485 23.5881 21.3101 23.565 21.3793 23.5189C21.3793 23.5035 21.3793 23.5035 21.3793 23.4882C21.3716 23.4882 21.3639 23.4882 21.3485 23.4805Z" fill="white"/>
<path d="M21.3799 23.4883C21.4107 23.4883 21.3723 23.396 21.3799 23.4883V23.4883Z" fill="white"/>
<path d="M21.2404 23.5433L21.2865 23.4511C21.2865 23.3896 21.2481 23.3742 21.2635 23.3281C21.2174 23.3742 21.225 23.4357 21.2404 23.5433Z" fill="white"/>
<path d="M21.1953 23.7421L21.2184 23.7036C21.2107 23.6729 21.2107 23.6652 21.1953 23.7421Z" fill="white"/>
<path d="M21.2649 23.6191L21.2188 23.7037C21.2188 23.7498 21.2187 23.8343 21.2418 23.6729C21.2264 23.7498 21.2418 23.6729 21.2649 23.6191Z" fill="white"/>
<path d="M21.2792 23.6576C21.2945 23.7191 21.3176 23.7575 21.2715 23.8498C21.3407 23.819 21.356 23.6269 21.2792 23.6576Z" fill="white"/>
<path d="M21.3633 24.3643L21.371 24.4489L21.4017 24.3643C21.3863 24.4028 21.371 24.2798 21.3633 24.3643Z" fill="white"/>
<path d="M21.0098 23.3887C21.0098 23.4502 21.0251 23.5424 21.0251 23.6192L21.0559 23.5501C21.0328 23.5116 21.0098 23.4809 21.0098 23.3887Z" fill="white"/>
<path d="M21.0267 23.6191L20.9883 23.7191C21.019 23.7344 21.0267 23.6883 21.0267 23.6191Z" fill="white"/>
<path d="M21.1716 24.0415L21.2408 23.834L21.1562 24.0492L21.1716 24.0415Z" fill="white"/>
<path d="M20.8494 23.3883L20.8647 23.25L20.834 23.4575L20.8494 23.3883Z" fill="white"/>
<path d="M20.7408 23.4196C20.7485 23.3044 20.7024 23.2352 20.7177 23.166C20.687 23.1891 20.6716 23.289 20.6562 23.3735C20.6716 23.3197 20.7024 23.3274 20.7408 23.4196Z" fill="white"/>
<path d="M20.627 23.4959C20.6346 23.4651 20.6423 23.419 20.65 23.3652C20.6423 23.396 20.6346 23.4344 20.627 23.4959Z" fill="white"/>
<path d="M20.9193 23.6966C20.9116 23.6581 20.9039 23.5659 20.8809 23.5352L20.9039 23.6966H20.9193Z" fill="white"/>
<path d="M20.9038 23.697C20.8884 23.6893 20.873 23.6893 20.873 23.6816C20.873 23.6893 20.8807 23.6893 20.9038 23.697Z" fill="white"/>
<path d="M21.0807 23.8887C21.0576 23.9809 21.0115 24.0731 21.0499 24.2192C21.073 24.1116 21.0499 24.027 21.0807 23.8887Z" fill="white"/>
<path d="M20.9414 23.8965L20.9798 23.935C20.9798 23.8889 20.9722 23.8274 20.9798 23.7812L20.9414 23.8965Z" fill="white"/>
<path d="M20.9258 23.9502L20.9412 23.8964L20.9258 23.8887V23.9502Z" fill="white"/>
<path d="M20.7179 23.643C20.7025 23.7122 20.6871 23.7199 20.6641 23.7353C20.6871 23.766 20.7179 23.7814 20.7409 23.7814C20.7409 23.7276 20.7409 23.6353 20.7179 23.643Z" fill="white"/>
<path d="M20.457 23.7656L20.4647 23.7964L20.457 23.7656Z" fill="white"/>
<path d="M20.7499 23.8115C20.7729 23.8422 20.7729 23.8038 20.7806 23.75C20.7652 23.7654 20.7576 23.7807 20.7422 23.7807C20.7422 23.8038 20.7422 23.8192 20.7499 23.8115Z" fill="white"/>
<path d="M20.5723 23.5817C20.5876 23.6124 20.603 23.6432 20.6107 23.6662C20.603 23.6201 20.5723 23.5356 20.5723 23.5817Z" fill="white"/>
<path d="M20.7964 23.6497C20.7887 23.6036 20.7964 23.6266 20.7964 23.6497V23.6497Z" fill="white"/>
<path d="M20.7947 23.6504C20.787 23.6734 20.7793 23.7119 20.7793 23.7503C20.787 23.7349 20.7947 23.7196 20.8024 23.6965C20.8024 23.6811 20.8024 23.6658 20.7947 23.6504Z" fill="white"/>
<path d="M20.58 24.8113C20.5569 24.6652 20.5646 24.5192 20.6184 24.6729C20.6261 24.5576 20.5416 24.0657 20.457 23.7891C20.4647 23.8582 20.4724 23.912 20.457 24.0119C20.4878 24.0888 20.5646 24.1887 20.5569 24.3347C20.5262 24.4193 20.5108 24.2886 20.4801 24.2118C20.5339 24.3962 20.4724 24.4885 20.5416 24.7651L20.5569 24.6652C20.5646 24.7037 20.5646 24.7805 20.58 24.8113Z" fill="white"/>
<path d="M20.5409 23.7972L20.5563 23.7742C20.5332 23.7511 20.5101 23.6896 20.4717 23.582C20.4563 23.6589 20.4563 23.7127 20.464 23.7665L20.5486 23.7742L20.5409 23.7972Z" fill="white"/>
<path d="M20.6258 23.7659C20.6335 23.935 20.6028 24.0042 20.6489 24.181C20.6873 24.1656 20.6642 24.0349 20.6796 23.9658C20.6104 24.0119 20.6873 23.8735 20.6258 23.7813C20.6412 23.7506 20.6489 23.7429 20.6642 23.7352C20.6489 23.7198 20.6335 23.6891 20.6181 23.666V23.6737C20.6258 23.6968 20.6258 23.7044 20.6181 23.6968C20.6258 23.7275 20.6258 23.7506 20.6258 23.7659C20.6028 23.7352 20.6181 23.7198 20.6258 23.7044V23.6814L20.5566 23.7813C20.572 23.7967 20.5951 23.789 20.6258 23.7659Z" fill="white"/>
<path d="M21.0175 24.5716C21.0175 24.5563 21.0175 24.5486 21.0175 24.5332C21.0098 24.5563 21.0098 24.5716 21.0175 24.5716Z" fill="white"/>
<path d="M20.9953 24.4719C21.003 24.4489 21.003 24.3797 21.0184 24.4028C21.0338 24.4566 21.0184 24.4796 21.0184 24.5334C21.0261 24.4873 21.0491 24.4181 21.0184 24.3336L21.0107 24.3566C20.9876 24.2952 20.9492 24.0953 20.9492 24.0723C20.9646 24.226 20.98 24.3259 20.9953 24.4719Z" fill="white"/>
<path d="M20.8253 24.1582L20.7715 24.2427L20.8099 24.3811L20.8022 24.2965C20.8407 24.335 20.8253 24.2274 20.8253 24.1582Z" fill="white"/>
<path d="M20.4333 23.6885L20.418 23.5117V23.7653L20.4333 23.6885Z" fill="white"/>
<path d="M20.3569 23.7202L20.3262 23.5742V23.6664L20.3569 23.7202Z" fill="white"/>
<path d="M18.7969 27.2695L18.8276 27.3003C18.8199 27.2849 18.8046 27.2772 18.7969 27.2695Z" fill="white"/>
<path d="M18.8348 27.1929L18.7656 27.1621C18.8041 27.1852 18.8348 27.1929 18.8348 27.1929Z" fill="white"/>
<path d="M18.5738 24.5733C18.4662 24.4734 18.3048 24.3274 18.4124 24.458L18.52 24.581C18.52 24.5426 18.5431 24.5502 18.5738 24.5733Z" fill="white"/>
<path d="M18.4597 26.0943L18.5058 26.1174C18.4597 26.0789 18.4212 26.0482 18.3828 26.0098C18.4059 26.0405 18.4366 26.0713 18.4597 26.0943Z" fill="white"/>
<path d="M19.012 26.5168L18.9121 26.4707C18.9429 26.4861 18.9736 26.5014 19.012 26.5168Z" fill="white"/>
<path d="M18.7812 27.7617L18.935 27.8309C18.9503 27.8155 18.8658 27.7925 18.7812 27.7617Z" fill="white"/>
<path d="M19.5649 24.0262C19.5188 23.9724 19.488 23.957 19.4727 23.957C19.5341 24.0339 19.611 24.1569 19.5649 24.0262Z" fill="white"/>
<path d="M17.207 26.4941C17.2301 26.5172 17.2608 26.5326 17.2916 26.5479C17.2685 26.5249 17.2378 26.5095 17.207 26.4941Z" fill="white"/>
<path d="M19.4123 23.9889C19.4277 24.0043 19.4277 24.012 19.443 24.0197C19.443 23.9889 19.4507 23.9582 19.4738 23.9582C19.4277 23.9044 19.3816 23.8736 19.4123 23.9889Z" fill="white"/>
<path d="M18.2594 29.5137C18.2517 29.5137 18.2517 29.5137 18.2363 29.5137C18.2594 29.5214 18.2594 29.5214 18.2594 29.5137Z" fill="white"/>
<path d="M16.5145 29.8766C16.5068 29.8689 16.5068 29.8612 16.5068 29.8535C16.4914 29.8535 16.4914 29.8612 16.5145 29.8766Z" fill="white"/>
<path d="M20.0039 23.7264C20.0193 23.711 20.0039 23.711 20.0039 23.7264V23.7264Z" fill="white"/>
<path d="M20.2578 24.3418C20.2578 24.3572 20.2655 24.3879 20.2732 24.4187C20.2655 24.3879 20.2578 24.3572 20.2578 24.3418Z" fill="white"/>
<path d="M19.7344 24.9883C19.7497 25.0113 19.7421 25.0113 19.7344 24.9883V24.9883Z" fill="white"/>
<path d="M20.0501 23.7962C20.0348 23.7809 20.0271 23.7655 20.0117 23.7578C20.0194 23.7655 20.0348 23.7809 20.0501 23.7962Z" fill="white"/>
<path d="M20.0273 23.7199C20.035 23.7276 20.0427 23.7276 20.0504 23.7353C20.0427 23.7045 20.035 23.6891 20.0273 23.7199Z" fill="white"/>
<path d="M19.9805 23.7419C19.9882 23.7342 20.0035 23.7419 20.0112 23.7496C20.0035 23.7419 20.0035 23.7342 20.0035 23.7266C19.9958 23.7342 19.9958 23.7342 19.9805 23.7419Z" fill="white"/>
<path d="M17.9978 28.4238C17.9901 28.4238 17.9901 28.4238 17.9824 28.4238C18.0439 28.4469 18.0362 28.4392 17.9978 28.4238Z" fill="white"/>
<path d="M19.4276 26.1169L19.4199 26.1092V26.1016L19.4276 26.1169Z" fill="white"/>
<path d="M19.4894 26.2326C19.3587 26.0712 19.3818 26.0866 19.4202 26.1097L19.082 25.7715L19.4894 26.2326Z" fill="white"/>
<path d="M18.7597 27.4787L18.9057 27.5094C19.1209 27.6324 19.0363 27.617 19.2362 27.6785C18.752 27.4787 19.2208 27.5709 18.7443 27.3557L18.8519 27.3788C18.8442 27.3788 18.8749 27.3941 18.8672 27.3941C19.1132 27.4633 18.5291 27.2174 18.6213 27.202C18.6674 27.202 18.7366 27.2251 18.7904 27.2635L18.6905 27.1789C18.7058 27.1713 18.7827 27.2174 18.775 27.2174L18.7597 27.1482L18.775 27.1559C18.7058 27.1098 18.5982 27.0406 18.5521 27.0099C18.629 27.0329 18.5982 27.0406 18.6597 27.0637L18.5598 26.9791C18.6828 27.0252 18.7904 27.1098 18.7673 27.1175C19.2438 27.325 18.6597 27.0329 18.9595 27.1175L19.0056 27.1713C19.2746 27.2865 19.1901 27.2251 19.3668 27.2865C19.2823 27.2481 18.9287 27.1251 18.8211 27.0406C18.8596 27.0483 18.8826 27.0483 18.7981 26.9868C18.9595 27.0713 18.9287 27.0406 18.9287 27.0099L19.1439 27.1251C19.0901 27.0713 18.9825 27.0175 18.8903 26.9484C18.921 26.9407 19.0901 27.0252 19.2362 27.1021C19.29 27.0867 18.9595 26.9791 18.9364 26.9099C19.0363 26.9253 18.9595 26.8561 18.8519 26.7485C18.9364 26.7716 18.9748 26.8331 19.044 26.8561L18.8903 26.7332C18.898 26.7332 18.9441 26.7639 18.9748 26.7793C18.921 26.7255 18.7673 26.6486 18.7212 26.5871C18.4983 26.4334 19.0901 26.7485 18.8442 26.5564C18.9057 26.5871 18.9672 26.6409 19.0517 26.6947C18.9134 26.5487 18.9518 26.5795 18.752 26.395L18.9057 26.4565C18.7443 26.3719 18.5829 26.2182 18.4522 26.0799C18.3754 26.0338 18.3062 26.003 18.2754 25.98L18.1986 25.857C18.237 25.8724 18.2985 25.9339 18.3754 25.9953L18.3369 25.9492C18.4215 25.9877 18.5291 26.0799 18.629 26.1721C18.5829 26.1491 18.5444 26.1183 18.4983 26.0953C18.6136 26.1952 18.7366 26.3028 18.8596 26.3796C18.8365 26.3643 18.8211 26.3412 18.8135 26.3258C18.8442 26.3489 18.8749 26.3719 18.8903 26.3873C18.9134 26.4027 18.8672 26.3643 18.8211 26.3258L19.044 26.4795L18.9595 26.4104L19.1286 26.4719C18.9364 26.272 18.6444 25.9877 18.6059 25.8493C18.7443 25.9953 18.8519 26.0645 19.0363 26.2182C18.8288 26.0722 19.0901 26.3258 19.0286 26.3181C19.0594 26.3181 19.1439 26.395 19.1747 26.4257L19.0363 26.2336C19.1824 26.3566 19.1516 26.3181 19.2285 26.3566C18.9287 26.1183 19.0671 26.1567 18.9902 26.0568C19.0901 26.1414 19.1824 26.2336 19.1362 26.2336C19.3745 26.4027 18.8288 25.9031 19.0363 26.0415C19.0363 26.0491 19.0133 26.0415 19.0594 26.0876C18.9902 25.9953 19.0824 26.0261 19.1593 26.1106V26.1183C19.2208 26.1106 19.2669 26.0184 19.044 25.7725C19.0748 25.8032 19.313 26.0568 19.3591 26.1106C19.1209 25.8263 18.898 25.5419 18.6751 25.2421C18.8596 25.4497 19.3361 25.9262 19.4129 26.0645C19.4514 26.0876 19.4898 26.1106 19.436 26.0184C19.4052 25.9953 19.1516 25.734 19.1362 25.7033C19.3668 25.9108 19.2669 25.8109 19.4667 25.9877C19.4206 25.9492 19.1362 25.6111 19.1593 25.6111C19.2054 25.6649 19.4437 25.9415 19.4667 25.98L19.2208 25.6187C19.2592 25.6879 19.459 25.9031 19.5436 25.9877C19.4821 25.9262 19.5743 25.9723 19.559 25.9262L19.4821 25.8647C19.559 25.8801 19.1439 25.3574 19.2054 25.3344C19.2515 25.4112 19.5282 25.7801 19.582 25.8032C19.4514 25.6187 18.9902 24.9193 18.9441 24.7426L19.0286 24.8348L18.9825 24.6888C19.1516 24.9808 19.4975 25.5957 19.6358 25.8339C19.7127 25.9031 19.728 25.9492 19.7434 25.9262C19.8203 26.0184 19.8356 26.0799 19.8356 26.0876L19.9279 26.1183C19.7742 25.9108 19.8126 25.8801 19.6896 25.7033L19.7895 25.9646C19.6358 25.7571 19.3976 25.3421 19.4744 25.3497C19.5436 25.4266 19.7204 25.734 19.7742 25.8032C19.728 25.7263 19.7204 25.6418 19.7588 25.6879L19.8203 25.8109C19.8971 25.8801 19.6666 25.5035 19.828 25.6956C19.8433 25.7033 20.0278 25.9646 19.9509 25.8339C19.7818 25.588 19.2976 24.8194 19.19 24.6273C19.2054 24.6427 19.4052 24.8271 19.4898 24.9424C19.6204 25.1345 19.7434 25.4343 19.8587 25.5957C19.8203 25.5342 19.7895 25.4573 19.7742 25.4266C19.8126 25.4727 19.8818 25.6187 19.8894 25.5803C19.7665 25.3497 19.9432 25.5726 19.7895 25.3805C19.7742 25.3036 19.8433 25.4112 19.8587 25.3882C19.7665 25.2421 19.6128 24.8655 19.6051 24.7887C19.6358 24.8502 19.6819 24.9193 19.6973 24.9578C19.7665 24.9501 19.8433 25.0423 19.8971 25.0193C19.9279 25.0731 19.9817 25.1345 20.0201 25.2421C20.0047 25.196 19.9817 25.1115 19.9894 25.1038C20.1046 25.2959 19.974 25.1499 20.1046 25.3882C20.0432 25.2498 20.0585 25.1807 20.0432 25.0807C19.9432 24.8655 19.974 25.0654 19.9894 25.1576C19.8587 24.8655 19.7588 24.5351 19.7665 24.366C19.7895 24.2661 19.8664 24.5504 19.8587 24.5043C19.9663 24.5197 19.7434 23.9433 19.9125 24.1354C20.0124 24.3199 20.0432 24.5274 20.1046 24.6657C20.0893 24.7503 20.0047 24.5658 19.974 24.5812L20.0432 24.658C20.0508 24.7272 20.0508 24.781 20.0124 24.7349C20.097 24.904 20.1738 24.7195 20.2891 24.8579C20.2814 24.7887 20.2814 24.7118 20.2507 24.635L20.2353 24.6657C20.1661 24.512 20.2122 24.4351 20.1661 24.366C20.1661 24.243 20.1584 24.0585 20.2276 24.1354L20.2968 24.3583C20.2814 24.2891 20.2353 24.2276 20.2353 24.3045C20.2276 24.1969 20.3813 24.5965 20.3275 24.2891L20.2584 24.1354C20.266 24.0124 20.2584 23.7588 20.3198 23.8203C20.2507 23.5974 20.3122 23.851 20.2276 23.5897C20.3275 23.9125 20.097 23.6051 20.2276 23.9433C20.12 23.6435 20.1354 23.828 20.0201 23.582C20.0432 23.6589 20.0739 23.7204 20.0278 23.6973C20.0278 23.7204 20.0355 23.7511 20.0355 23.7665L20.0278 23.7588L20.0355 23.7665C20.0355 23.7819 20.0355 23.7819 20.0355 23.7665C20.0508 23.7972 20.0739 23.8357 20.0893 23.8741C20.12 24.0509 20.0585 24.0585 20.0662 24.1585C20.0355 24.1277 20.0508 24.0739 20.0124 23.9971L20.0278 24.1354C19.974 23.974 19.8818 23.8818 19.9048 23.7665L19.851 23.7742C19.7895 23.6896 19.7357 23.6666 19.7357 23.7511C19.6973 23.7281 19.7434 23.9509 19.7127 23.8203L19.6742 23.9509L19.6589 23.9125C19.5743 23.9279 19.6281 24.2353 19.4206 23.9894C19.4129 24.0432 19.4129 24.097 19.3514 24.0739L19.2746 23.9433C19.2669 24.0047 19.1132 23.8587 19.1747 24.0047C18.9518 23.6666 18.9825 24.0047 18.898 23.974L18.9979 24.1431C18.9595 24.1585 18.9518 24.2199 18.9518 24.3122L19.044 24.4582C19.0901 24.5965 18.8903 24.4121 18.8442 24.4659C18.8135 24.4121 18.8365 24.4121 18.8672 24.4428C18.5752 24.1661 18.898 24.7733 18.6751 24.5812C18.6982 24.6427 18.6751 24.635 18.6367 24.6042V24.5965H18.629C18.6059 24.5812 18.5752 24.5581 18.5521 24.5427C18.5829 24.5735 18.6136 24.5965 18.629 24.6042C18.6213 24.6119 18.6136 24.6427 18.629 24.6888L18.506 24.5504C18.506 24.5504 18.506 24.5504 18.506 24.5581C18.4445 24.5197 18.5521 24.635 18.6444 24.7426C18.652 24.7733 18.6751 24.8041 18.6982 24.8425C18.4983 24.6196 18.7212 24.9501 18.506 24.7195C18.5982 24.8502 18.506 24.8732 18.7135 25.1269C18.6828 25.0961 18.6674 25.0807 18.6751 25.0731C18.6367 25.0577 18.5906 25.0423 18.6444 25.1269L18.483 24.9578L18.6597 25.2268C18.5444 25.1422 18.4753 25.0884 18.3754 24.9347C18.5137 25.1883 18.4061 25.05 18.5598 25.2883L18.4522 25.1807C18.4445 25.196 18.5598 25.3651 18.4676 25.2883C18.2216 25.1192 18.2908 25.4266 18.0064 25.3344C18.36 25.6034 17.8143 25.2498 18.0833 25.4727C17.9988 25.4112 17.9373 25.3882 17.8835 25.3113C17.9219 25.4266 17.6913 25.2806 17.8912 25.4958C17.7989 25.4343 17.7759 25.3882 17.7221 25.3574C17.7374 25.3728 17.7836 25.4266 17.7298 25.3959C17.676 25.3651 17.6683 25.3344 17.6375 25.2959C17.6068 25.3651 17.8681 25.5649 18.1064 25.7494C17.968 25.6879 17.9757 25.711 18.1294 25.8493C18.0449 25.7955 17.945 25.7494 17.9373 25.7033C17.9142 25.711 17.7374 25.734 17.945 25.8724C17.8912 25.8416 17.9142 25.8877 17.9373 25.9108C17.8989 25.9415 17.8758 25.9339 17.8681 25.9877L17.9065 25.9953C18.1448 26.1721 17.945 26.0645 17.9526 26.1106L17.9296 26.0953C17.7067 26.0568 17.9988 26.1798 17.7451 26.126L17.9065 26.2182C18.2447 26.4257 17.6683 26.1644 17.7759 26.2797L17.8758 26.3181C17.9834 26.4027 17.3685 26.1183 17.3147 26.126C17.284 26.1183 17.2686 26.0876 17.2533 26.0722C17.015 26.0261 17.4608 26.1952 17.4838 26.272C17.3608 26.2182 17.1995 26.1029 17.161 26.126C17.0611 26.0953 17.4838 26.4104 17.2456 26.3489C17.3378 26.3796 17.4377 26.4181 17.4915 26.4719C17.5069 26.518 17.1072 26.4027 17.3762 26.5641C17.3532 26.5564 17.3224 26.5487 17.2994 26.541C17.3609 26.6025 17.3839 26.6794 17.5376 26.7639C16.9458 26.5333 17.7605 27.0406 17.2148 26.8177L17.2071 26.9099L17.1533 26.8869C17.0995 26.9253 17.2225 26.9945 17.3455 27.0637C17.307 27.0637 17.2532 27.0329 17.2302 27.0252C17.0918 27.056 17.1149 27.079 17.3609 27.2404L17.1764 27.1866C17.2763 27.2404 16.8536 27.202 17.0457 27.348C17.0227 27.3403 16.9919 27.325 16.9689 27.3173C17.1533 27.4633 16.4001 27.3711 17.0534 27.6017L17.1995 27.7016C17.2686 27.6478 17.4838 27.7938 17.6068 27.7938C17.6375 27.8322 17.3839 27.8092 17.3609 27.7631L17.3993 27.7707C17.0534 27.6631 17.2532 27.8245 17.015 27.7554C16.9996 27.9014 16.7691 27.9859 16.7229 28.1166L16.9996 28.1627L16.9766 28.2011C16.9074 28.2011 16.7614 28.1704 16.7767 28.1397C16.6153 28.1243 16.892 28.2242 16.9535 28.2396C16.8305 28.278 16.6384 28.1473 16.6307 28.1627L16.6461 28.1935H16.6768C16.7844 28.2396 16.8997 28.2703 16.8843 28.3011C16.8229 28.3164 16.7153 28.278 16.6999 28.2857C16.6768 28.278 16.6691 28.2857 16.6922 28.3011L16.6538 28.3549L16.8767 28.3779C16.9766 28.424 16.8536 28.4317 17.1072 28.4548C16.7153 28.4163 16.9305 28.6392 16.8075 28.6392C16.9612 28.7007 16.9535 28.7391 16.9228 28.7776C16.9689 28.7776 17.2148 28.8083 17.1841 28.8391C16.6768 28.7391 16.9535 28.8698 16.5846 28.8391C16.8305 28.8544 16.6307 28.9543 16.9766 28.9697C16.9305 28.9928 16.7844 28.939 16.6615 28.9467C16.8459 29.0543 16.5077 29.0927 16.5615 29.1926C16.6307 29.2003 16.7306 29.2003 16.8305 29.2387H16.4924C16.5231 29.2618 16.8767 29.3079 16.6384 29.3079C16.6922 29.3079 16.7844 29.3156 16.7998 29.3309C16.4463 29.4616 17.015 29.7306 16.3848 29.8228C16.5154 29.8151 16.5308 29.8305 16.5308 29.8536C16.5615 29.8459 16.6999 29.8766 16.7844 29.8843L16.5231 29.9227C16.7767 29.9688 16.5308 30.0073 16.7691 30.0457L16.7306 30.015C17.015 30.0841 17.3685 30.0534 17.7298 30.0995C17.407 30.0226 18.2217 30.0688 17.7682 29.9535C17.8451 29.9535 17.8835 29.9765 17.968 29.9842C17.8143 29.9535 17.7836 29.9304 17.8604 29.9074L17.8988 29.9151C17.8758 29.8228 18.0295 29.7998 18.1448 29.7152L17.9603 29.6998C17.9911 29.6845 18.0449 29.6845 18.091 29.6845C17.822 29.623 18.0679 29.746 17.7682 29.6768C18.1371 29.6999 17.7913 29.5231 18.214 29.5615C18.2217 29.5308 18.0065 29.5384 18.0141 29.5077L18.1294 29.5154L17.9834 29.4847C18.0141 29.4693 18.1525 29.477 18.2524 29.4923C18.237 29.4923 18.2754 29.5077 18.2831 29.5154C18.4215 29.5077 18.2524 29.4309 18.2908 29.4309L18.214 29.4539C18.1217 29.3463 18.2831 29.2618 18.0679 29.1465L17.9834 29.1388C17.8374 29.0466 18.0833 29.1004 18.0218 29.0158L18.0449 29.0235C17.9603 28.9928 17.9219 28.9697 17.9373 28.9467C18.0295 28.9851 18.1371 28.9467 18.2447 28.9928C18.091 28.8929 18.1217 28.939 17.8143 28.8314L17.9526 28.8467C17.8297 28.8083 17.7605 28.7929 17.7298 28.7545C17.845 28.8083 17.945 28.7699 18.0987 28.8314C18.4215 28.816 17.8066 28.6623 18.2678 28.7161C17.8912 28.6085 18.0372 28.7391 17.9603 28.7007C17.8297 28.693 17.676 28.6162 17.7221 28.6008C17.7374 28.5777 18.2216 28.6623 18.2293 28.6008C18.2293 28.6085 18.2524 28.6162 18.2524 28.6162C18.3523 28.6162 18.1294 28.547 18.2908 28.5547C18.0603 28.4932 18.3139 28.5239 18.0141 28.4548L18.0679 28.5239C17.9988 28.4778 17.6529 28.3702 17.8374 28.3549C17.8988 28.3702 17.968 28.4087 18.0141 28.424C18.1064 28.4317 17.9603 28.3856 18.0526 28.3856C18.3523 28.4548 18.0987 28.4625 18.3216 28.547C18.4522 28.5624 18.1217 28.4394 18.4368 28.5239C18.0295 28.4087 18.4983 28.4778 18.1986 28.3702L18.3677 28.4163C18.3446 28.401 18.2601 28.3702 18.2678 28.3625L18.4906 28.4394C18.2985 28.3625 18.6751 28.424 18.5752 28.3702C18.5675 28.4317 18.36 28.3318 18.2216 28.3241C18.0064 28.1858 18.6982 28.3933 18.629 28.2934C18.652 28.3087 18.5137 28.3087 18.4368 28.2703C18.4753 28.2626 18.5521 28.2626 18.6444 28.278C18.6213 28.2165 18.4599 28.2396 18.36 28.1858C18.5829 28.2242 18.2831 28.132 18.214 28.0935L18.3907 28.1397C18.5214 28.1089 18.0218 28.0244 18.1755 28.0013L18.4138 28.0935L18.36 28.0474L18.5598 28.1089C18.4215 28.0321 18.4599 28.0321 18.5291 28.0244C18.3984 27.9936 18.2063 27.9245 18.2063 27.8937C18.3139 27.9091 18.3754 27.9552 18.36 27.9091C18.4676 27.9552 18.6059 28.0013 18.4368 27.9706C18.4906 27.9936 18.5444 28.009 18.6059 28.0321C18.7366 28.0474 18.6444 27.9936 18.6521 27.9783C18.6444 27.9783 18.629 27.9859 18.6059 27.9783L18.3754 27.8476C18.4445 27.863 18.4983 27.886 18.5445 27.9091C18.5291 27.8937 18.4522 27.8553 18.4368 27.8399C18.5829 27.886 18.7289 27.9321 18.7904 27.9783L18.6444 27.8783C18.7058 27.8937 18.8211 27.9091 18.8749 27.9321C18.9672 27.9321 18.6213 27.7707 18.7443 27.7707C18.7135 27.7631 18.6905 27.7477 18.6751 27.7323C18.7212 27.7093 18.9057 27.74 18.7289 27.6324L18.9902 27.7016C18.9441 27.6478 18.6597 27.6093 18.5829 27.5248C18.5137 27.4556 18.8058 27.594 18.8749 27.6093C18.752 27.5402 18.5137 27.4095 18.7289 27.4556C18.7827 27.4633 18.7443 27.4556 18.7597 27.4787ZM18.8211 27.0483C18.8519 27.0713 18.9518 27.1405 18.8519 27.0944C18.6674 26.9868 18.7596 27.0329 18.8211 27.0483ZM18.7904 26.2567C18.8365 26.2951 18.8058 26.2874 18.7443 26.2567C18.7366 26.2413 18.7443 26.2336 18.7904 26.2567ZM19.8664 23.9356V23.9433C19.8203 23.8818 19.8356 23.9048 19.8664 23.9356ZM19.9432 23.9894C19.9432 23.9663 19.9356 23.9356 19.9202 23.9125C19.9279 23.9586 19.9202 23.9663 19.9048 23.9586C19.9279 24.0047 19.9432 24.0355 19.9432 23.9894ZM16.746 28.3011H16.7921C16.8459 28.3318 16.7998 28.3164 16.746 28.3011Z" fill="white"/>
<path d="M18.9439 26.464C18.9209 26.4486 18.8901 26.4255 18.8594 26.4102C18.8901 26.4332 18.9132 26.4563 18.9439 26.464Z" fill="white"/>
<path d="M18.7596 27.7539H18.752L18.7827 27.7616L18.7596 27.7539Z" fill="white"/>
<path d="M19.9423 25.7019C19.9193 25.6865 19.9039 25.6557 19.8809 25.625C19.9039 25.6634 19.927 25.6942 19.9423 25.7019Z" fill="white"/>
<path d="M20.1655 23.6035L20.1348 23.6573C20.1501 23.6419 20.1655 23.6804 20.1809 23.7111C20.1809 23.665 20.1578 23.6035 20.1655 23.6035Z" fill="white"/>
<path d="M20.6727 24.6719C20.6727 24.6489 20.6804 24.6719 20.6804 24.6412L20.665 24.5566C20.6496 24.572 20.6496 24.6412 20.6727 24.6719Z" fill="white"/>
<path d="M20.334 24.196C20.3724 24.3498 20.3801 24.2883 20.3955 24.2575H20.3878C20.357 24.0423 20.3494 24.1192 20.334 24.196Z" fill="white"/>
<path d="M20.4043 24.2497C20.412 24.242 20.4197 24.2344 20.4274 24.242C20.412 24.1575 20.412 24.2267 20.4043 24.2497Z" fill="white"/>
<path d="M19.98 23.8662C20.003 23.8969 19.9262 23.674 19.9569 23.7278C19.9108 23.5357 19.9492 23.9891 19.98 23.8662Z" fill="white"/>
<path d="M20.4641 24.6884L20.418 24.5039L20.441 24.6576L20.4641 24.6884Z" fill="white"/>
<path d="M20.2737 24.5963L20.3198 24.6424C20.3121 24.6116 20.3121 24.5886 20.3121 24.5732C20.289 24.5732 20.2583 24.5425 20.2737 24.5963Z" fill="white"/>
<path d="M20.3105 24.5716C20.3182 24.5716 20.3336 24.5639 20.3259 24.5332C20.3259 24.5332 20.3182 24.5486 20.3105 24.5716Z" fill="white"/>
<path d="M20.4349 24.7571L20.4195 24.7186L20.3965 24.7109L20.4349 24.7571Z" fill="white"/>
<path d="M19.9197 24.6719L19.9043 24.741C19.9274 24.8025 19.9504 24.8333 19.9504 24.8102C19.9427 24.7641 19.9504 24.7334 19.9197 24.6719Z" fill="white"/>
<path d="M20.2041 25.1346C20.181 25.0961 20.1656 25.0577 20.1426 25.0039L20.2271 25.2268L20.2041 25.1346Z" fill="white"/>
<path d="M20.1426 25.2188C20.1656 25.2802 20.1733 25.4109 20.2041 25.3801C20.181 25.3187 20.1887 25.2572 20.1426 25.2188Z" fill="white"/>
<path d="M19.5729 25.1643V25.1567L19.373 24.8262L19.5729 25.1643Z" fill="white"/>
<path d="M19.7804 26.156C19.865 26.2098 19.6344 25.9638 19.7343 26.033C19.6805 25.9561 19.6574 25.9715 19.6113 25.9023C19.6574 25.9946 19.6113 25.9638 19.7804 26.156Z" fill="white"/>
<path d="M19.6128 25.9093C19.6051 25.8939 19.5974 25.8785 19.582 25.8555C19.5897 25.8785 19.6051 25.8939 19.6128 25.9093Z" fill="white"/>
<path d="M16.2916 29.9453L16.207 29.9607H16.3377L16.2916 29.9453Z" fill="white"/>
<path d="M16.576 30.0367L16.3301 30.0137L16.553 30.0598C16.5376 30.0444 16.5145 30.029 16.576 30.0367Z" fill="white"/>
<path d="M19.2967 27.2246L19.2429 27.1938C19.1814 27.1631 19.1814 27.1708 19.166 27.1708L19.2967 27.2246Z" fill="white"/>
<path d="M19.0045 27.3931H19.0122L18.8047 27.3086L19.0045 27.3931Z" fill="white"/>
<path d="M19.1814 27.7237C19.1968 27.7161 19.1507 27.6853 19.166 27.6853C19.1891 27.7161 18.9201 27.6238 19.1814 27.7237Z" fill="white"/>
</svg>
