<svg width="20" height="23" viewBox="0 0 20 23" fill="none" xmlns="http://www.w3.org/2000/svg">
<path d="M9.94312 8.76423C9.97387 8.84109 10.0891 8.71811 10.1199 8.71043C10.02 8.63357 9.90469 8.79497 9.94312 8.76423Z" fill="white"/>
<path d="M8.95046 7.71061H9.01963L8.78906 7.57227L8.95046 7.71061Z" fill="white"/>
<path d="M8.41355 6.38086C8.21372 6.61143 8.6518 6.85737 8.6518 7.13406L8.60569 7.19554L8.85163 7.2186C8.71329 6.9496 8.42892 6.61912 8.41355 6.38086Z" fill="white"/>
<path d="M8.65133 5.4043C8.57447 5.49653 8.49761 5.27364 8.69744 5.59644C8.69744 5.57338 8.70513 5.5657 8.70513 5.55033C8.69744 5.52727 8.67439 5.48115 8.65133 5.4043Z" fill="white"/>
<path d="M8.71289 5.55867C8.78206 5.7047 8.75132 5.42033 8.71289 5.55867V5.55867Z" fill="white"/>
<path d="M8.32812 4.87397L8.51258 5.03537C8.55101 4.9662 8.46647 4.77406 8.54332 4.82018C8.38961 4.63572 8.35887 4.71258 8.32812 4.87397Z" fill="white"/>
<path d="M8.05078 4.7832L8.14301 4.86775C8.15069 4.837 8.14301 4.79857 8.05078 4.7832Z" fill="white"/>
<path d="M8.32839 5.04383L8.14393 4.85938C8.12087 4.90549 8.04402 4.9516 8.22079 4.94392C8.13625 4.96697 8.22847 4.97466 8.32839 5.04383Z" fill="white"/>
<path d="M8.35111 5.18945C8.35111 5.3278 8.38185 5.48151 8.20508 5.3278C8.40491 5.68134 8.55862 5.55068 8.35111 5.18945Z" fill="white"/>
<path d="M8.12866 6.4195L8.11328 6.58858L8.24394 6.67313C8.17477 6.6347 8.19783 6.37338 8.12866 6.4195Z" fill="white"/>
<path d="M7.61333 3.52148C7.55953 3.54454 7.54416 3.68288 7.49805 3.74437L7.65945 3.84428C7.63639 3.75206 7.55185 3.59066 7.61333 3.52148Z" fill="white"/>
<path d="M7.4979 3.75358C7.42104 3.70746 7.3365 3.66135 7.25195 3.61523C7.39798 3.79201 7.45947 3.80738 7.4979 3.75358Z" fill="white"/>
<path d="M7.75913 4.88948C7.8821 4.97403 8.00507 5.05857 8.12804 5.14311C7.99739 5.03551 7.85905 4.92791 7.7207 4.82031L7.75913 4.88948Z" fill="white"/>
<path d="M6.861 2.76134L7.06852 2.76902L6.72266 2.73828L6.861 2.76134Z" fill="white"/>
<path d="M6.25373 2.35406C6.42281 2.32332 6.20762 2.10043 6.35365 2.1158C6.16919 2.01589 5.9463 2.02357 5.76953 2.02357C5.93862 2.062 6.11539 2.15423 6.25373 2.35406Z" fill="white"/>
<path d="M5.46875 2.03012C5.56098 2.0378 5.66089 2.03012 5.76849 2.02243C5.67626 2.00706 5.57635 2.00706 5.46875 2.03012Z" fill="white"/>
<path d="M6.95967 3.269C6.96735 3.23057 7.00578 3.13066 6.91356 3L6.88281 3.19214C6.90587 3.2152 6.92893 3.23826 6.95967 3.269Z" fill="white"/>
<path d="M6.88406 3.19851C6.79951 3.11397 6.74571 3.06017 6.72266 3.03711C6.73803 3.05248 6.79183 3.10628 6.88406 3.19851Z" fill="white"/>
<path d="M6.97505 3.28295L6.95967 3.26758C6.95199 3.28295 6.95199 3.29063 6.97505 3.28295Z" fill="white"/>
<path d="M7.54424 4.25274C7.38285 4.17588 7.12153 4.0068 7.18302 4.31422C7.33673 4.33728 7.2983 4.14514 7.54424 4.25274Z" fill="white"/>
<path d="M6.92188 3.52148C6.98336 3.59066 7.02947 3.66751 7.08327 3.74437C7.11402 3.71363 7.12939 3.62908 7.21393 3.65983C7.11402 3.61371 7.02179 3.55991 6.92188 3.52148Z" fill="white"/>
<path d="M6.79102 3.46824L6.92167 3.52204L6.86018 3.4375L6.79102 3.46824Z" fill="white"/>
<path d="M5.89133 2.40057C5.74531 2.40057 5.61465 2.33908 5.46094 2.29297C5.61465 2.3852 5.75299 2.48511 5.89902 2.56197C5.94514 2.53123 6.05273 2.48511 5.89133 2.40057Z" fill="white"/>
<path d="M6.39988 2.77722L6.36914 2.76953C6.37683 2.7849 6.38451 2.80027 6.39988 2.77722Z" fill="white"/>
<path d="M3.80859 2.01562L3.83934 2.03868L3.84702 2.01562H3.80859Z" fill="white"/>
<path d="M5.90776 2.59898C5.99999 2.6912 6.07684 2.69889 6.16907 2.6912C6.07684 2.65278 5.9923 2.60666 5.90007 2.56055C5.87702 2.57592 5.86933 2.59129 5.90776 2.59898Z" fill="white"/>
<path d="M4.99219 1.95432C5.05367 2.00812 5.12285 2.06192 5.1997 2.10804C5.1459 2.03887 5.02293 1.92358 4.99219 1.95432Z" fill="white"/>
<path d="M6.36133 2.70676L6.38438 2.71444C6.36901 2.65296 6.36133 2.67602 6.36133 2.70676Z" fill="white"/>
<path d="M6.36011 2.70678C6.29863 2.68372 6.22945 2.69141 6.16797 2.69909C6.23714 2.72983 6.30631 2.75289 6.3678 2.76826C6.36011 2.74521 6.36011 2.72215 6.36011 2.70678Z" fill="white"/>
<path d="M3.55652 3.12275C3.51809 2.96903 3.78709 2.76152 4.03303 2.92292C4.25592 2.79995 4.156 2.30038 3.84089 2.03906C3.84089 2.10823 3.83321 2.15435 3.54884 2.30038C3.67949 2.34649 4.2098 2.43872 3.97923 2.58475C3.63338 2.68466 3.68718 2.56938 3.48735 2.51558C3.66412 2.6616 3.12612 2.90755 3.31057 3.1458C3.37975 3.08432 3.4566 3.03052 3.53346 2.96903C3.54883 3.01515 3.47966 3.10737 3.55652 3.12275Z" fill="white"/>
<path d="M4.4547 2.07016C4.50082 2.07016 4.54693 2.06248 4.58536 2.07016C4.43933 2.02405 4.33941 1.95488 4.1319 1.82422C3.89364 1.90108 3.85522 1.96256 3.83984 2.01636C4.06273 2.00868 4.28561 2.02405 4.49313 2.05479L4.4547 2.07016Z" fill="white"/>
<path d="M5.14712 2.20084C5.00109 2.32381 4.71672 2.32381 4.832 2.53901C5.14712 2.63124 5.101 2.46984 5.3162 2.47753C4.77052 2.32381 5.50835 2.4391 5.14712 2.21621C5.27009 2.2239 5.37 2.25464 5.46223 2.28539C5.37769 2.2239 5.29315 2.1701 5.20092 2.10861L5.2086 2.12399C5.22397 2.15473 5.23166 2.16241 5.2086 2.14704H5.19323C5.17786 2.1701 5.16249 2.18547 5.14712 2.20084C4.99341 2.1163 5.13175 2.14704 5.19323 2.14704C5.20092 2.13936 5.2086 2.13167 5.2086 2.12399C5.00877 2.08556 4.80126 2.07019 4.59375 2.0625C4.70904 2.1163 4.87812 2.13167 5.14712 2.20084Z" fill="white"/>
<path d="M6.74487 4.33716C6.74487 4.3141 6.76024 4.30642 6.76793 4.29873C6.7295 4.29105 6.71413 4.29105 6.74487 4.33716Z" fill="white"/>
<path d="M6.69922 4.12156C6.73765 4.12924 6.81451 4.10619 6.86831 4.2061C6.89136 4.3137 6.80682 4.25221 6.76839 4.29833C6.84524 4.32138 7.00664 4.41361 6.93747 4.19073L6.89905 4.17536C6.82219 3.9909 6.79145 3.66041 6.82987 3.6681C6.76839 3.82181 6.72228 3.9371 6.69922 4.12156Z" fill="white"/>
<path d="M6.06958 3.12234C5.93892 3.06085 5.80058 3.01474 5.66992 2.96094C5.70835 3.03779 5.7391 3.11465 5.77753 3.19151L5.81595 3.11465C5.99272 3.27605 6.0081 3.16077 6.06958 3.12234Z" fill="white"/>
<path d="M3.74034 1.93849L3.80183 1.76172C3.69423 1.84626 3.60199 1.95386 3.50977 2.05378L3.74034 1.93849Z" fill="white"/>
<path d="M3.04787 2.11661L3.02481 1.96289C2.97101 2.01669 2.91721 2.05512 2.87109 2.11661C2.93258 2.10892 2.98638 2.11661 3.04787 2.11661Z" fill="white"/>
<path d="M12.3242 15.3047L12.355 15.1895C12.3319 15.2356 12.3242 15.274 12.3242 15.3047Z" fill="white"/>
<path d="M11.8555 15.957L11.9093 16.0184C11.8939 15.9646 11.8785 15.9339 11.8555 15.957Z" fill="white"/>
<path d="M3.01735 14.375C2.98661 14.5902 2.90975 14.8746 3.04041 14.7593L3.14801 14.6209C3.06346 14.5441 3.02504 14.4595 3.01735 14.375Z" fill="white"/>
<path d="M8.82011 20.4534C8.82011 20.4227 8.81243 20.3919 8.81243 20.3535C8.774 20.3919 8.72788 20.4227 8.68945 20.4534C8.72788 20.4534 8.774 20.4534 8.82011 20.4534Z" fill="white"/>
<path d="M9.08203 19.6543L9.12814 19.8926C9.12046 19.8157 9.10509 19.7388 9.08203 19.6543Z" fill="white"/>
<path d="M14.5233 11.5535L14.4388 11.3613C14.3465 11.5227 14.4618 11.492 14.5233 11.5535Z" fill="white"/>
<path d="M0.420451 7.34961C0.35128 7.51101 0.33591 7.64166 0.343596 7.74926C0.412767 7.54944 0.558794 7.39572 0.420451 7.34961Z" fill="white"/>
<path d="M13.6007 16.5641C13.616 16.4873 13.6007 16.4488 13.5699 16.4258C13.5546 16.5026 13.5622 16.5564 13.6007 16.5641Z" fill="white"/>
<path d="M0.381411 8.20346C0.396783 8.17271 0.404469 8.14197 0.412155 8.11891C0.373726 8.01131 0.342985 7.89603 0.335299 7.75C0.281499 7.89603 0.250754 8.06511 0.381411 8.20346Z" fill="white"/>
<path d="M13.7084 3.54492C13.693 3.54492 13.6853 3.55261 13.6699 3.54492C13.6853 3.56798 13.693 3.56029 13.7084 3.54492Z" fill="white"/>
<path d="M9.43555 5.8661C9.45092 5.81998 9.48935 5.75081 9.52778 5.68164C9.49703 5.7047 9.46629 5.7585 9.43555 5.8661Z" fill="white"/>
<path d="M1.01172 3.84535C1.06552 3.72238 1.01172 3.81461 1.01172 3.84535V3.84535Z" fill="white"/>
<path d="M1.89453 3.68359C1.89453 3.71434 1.90222 3.74508 1.93296 3.76814C1.9099 3.73739 1.89453 3.70665 1.89453 3.68359Z" fill="white"/>
<path d="M1.61133 9.09343V9.10112C1.63439 9.06269 1.63439 9.07038 1.61133 9.09343Z" fill="white"/>
<path d="M1.18144 3.70703C1.13532 3.73777 1.0969 3.78389 1.05078 3.83C1.07384 3.81463 1.11227 3.7762 1.18144 3.70703Z" fill="white"/>
<path d="M1.0957 3.69166C1.12645 3.65324 1.1495 3.63018 1.17256 3.59944C1.15719 3.56869 1.13413 3.57638 1.0957 3.69166Z" fill="white"/>
<path d="M0.935547 4.01453C0.96629 3.94536 1.00472 3.88388 1.05083 3.83008C1.02778 3.84545 1.0124 3.85314 1.0124 3.84545C0.997031 3.87619 0.973975 3.92999 0.935547 4.01453Z" fill="white"/>
<path d="M17.8667 5.16767C17.8744 5.15998 17.8821 5.15998 17.8898 5.15229C17.8436 5.02932 17.8437 5.08312 17.8667 5.16767Z" fill="white"/>
<path d="M6.03112 15.6113H6.02344V15.6267L6.03112 15.6113Z" fill="white"/>
<path d="M6.36031 15.8343C6.099 15.8343 6.06058 15.7421 6.02215 15.6191L5.70703 16.0034L6.36031 15.8343Z" fill="white"/>
<path d="M13.3477 13.6826L13.0787 13.8209C13.048 13.4213 13.2401 13.2829 12.9327 13.3675C13.3477 13.6826 12.4254 14.2359 12.8328 14.5587L12.6483 14.6433C12.679 14.6049 12.656 14.5818 12.6944 14.5434C12.3025 14.6817 12.8712 14.9584 12.5638 15.2812C12.4485 15.3811 12.3255 15.4272 12.3332 15.3043L12.2486 15.6578C12.1872 15.7347 12.1257 15.6655 12.1872 15.5886L11.9182 16.0344L11.9105 16.019C11.9335 16.1266 11.9489 16.3341 11.9412 16.4341C11.8029 16.5032 11.9335 16.3495 11.8567 16.3418L11.7952 16.6493C11.6184 16.6646 11.6415 16.3956 11.7721 16.2496C11.188 16.1727 11.7491 16.5186 11.165 16.8183L11.2649 16.557C10.919 16.534 10.8883 16.7645 10.5655 16.9106C10.6884 16.9029 11.2956 16.6723 11.2264 17.0028C11.1419 17.0489 11.065 17.1335 11.0574 17.3333C10.9036 17.2257 10.8499 17.3871 10.7423 17.5639L10.5501 17.4101C10.4809 17.633 10.5962 17.6868 10.6116 17.8559C10.4502 18.0481 10.2657 17.9789 10.0967 17.9328C9.84302 18.2325 10.504 17.879 10.2734 18.294C10.0198 18.5015 9.94294 18.7859 9.87376 19.1394C9.74311 19.1779 9.76617 19.0318 9.68931 19.0165C9.72774 19.0779 9.75848 19.1471 9.78922 19.224C9.77385 19.2393 9.73542 19.1855 9.72005 19.1625C9.72774 19.2855 9.88914 19.3546 9.83534 19.5468C9.90451 19.6928 9.78154 19.6851 9.68162 19.6621C9.57402 19.6467 9.50485 19.5929 9.48948 19.8849C9.45105 19.8235 9.46642 19.6544 9.43568 19.5314C9.38957 19.8311 9.36651 19.908 9.32039 20.1001C9.31271 20.1539 9.28197 20.2077 9.22817 20.2846C9.18974 20.1386 9.15131 20.0079 9.12057 19.8849C9.18205 20.2615 9.04371 20.446 8.81314 20.446C8.8362 20.6228 8.85925 20.7842 8.88231 20.8764C8.77471 20.8149 8.65943 20.738 8.54414 20.6535C8.52108 20.5613 8.59025 20.5152 8.6748 20.4537C8.65174 20.4537 8.621 20.4537 8.59794 20.4537C8.53646 20.2231 8.65942 20.1539 8.77471 20.0694C8.78239 20.1616 8.79008 20.2539 8.79777 20.3538C8.91306 20.2539 8.99759 20.0925 9.02065 19.8926C9.00528 19.9157 8.97454 19.9157 8.9438 19.908C8.96685 19.8696 8.98223 19.8388 8.98991 19.8004C8.98991 19.762 8.95917 19.8081 8.91305 19.8465C8.93611 19.7235 8.95917 19.6006 8.98223 19.493L8.92843 19.6006C8.89 19.4545 8.85925 19.3239 8.84388 19.2086C8.70554 19.2547 8.5134 19.2855 8.2444 19.1855C7.99846 19.1087 7.74483 19.0011 7.51425 18.7859C7.76788 18.7859 7.79094 18.6091 7.98308 18.4708C7.89085 18.7628 8.35968 18.7859 8.5134 19.0703C8.42885 18.9242 8.54414 18.8781 8.59794 18.8858L8.06763 18.5707C8.22903 18.4631 8.10606 18.3862 8.083 18.2171C7.84474 18.5399 7.62186 18.0327 7.3836 17.9174C7.47583 17.8252 7.61417 17.7944 7.76788 18.0327C7.80631 17.61 7.16071 17.9866 7.1684 17.5869C7.21451 17.6407 7.2222 17.6791 7.29137 17.6638C7.09923 17.6023 6.93014 17.2334 7.07617 17.2411L7.12229 17.2949C6.87635 16.9029 6.26917 16.1804 5.96175 16.3188C5.99249 16.288 6.31528 16.1343 6.38446 16.1189L4.99335 16.1113C5.26234 16.0037 5.63894 15.3888 6.00017 15.604C5.96174 15.4964 5.92331 15.3581 5.70043 15.2351C5.7158 15.3196 5.48523 15.6194 5.40069 15.5579C5.48523 15.1505 5.41606 15.3043 5.42374 14.8739C5.4468 14.9968 5.00872 15.1582 4.91649 15.0045C4.98566 14.9891 5.26235 14.7432 5.33921 14.7663L4.73203 14.6587C4.86269 14.7048 5.03946 14.4665 5.08558 14.3128C5.03946 14.3973 4.87806 13.9977 4.77815 13.9285L4.8012 14.136C4.57832 13.6903 4.02495 14.0669 3.77132 13.6365C3.87892 13.6365 4.317 13.4597 4.22478 13.2214C3.97883 13.2445 3.04887 13.3598 2.67227 13.0447L2.74143 12.9063L2.44169 12.6757C2.84135 12.7065 3.74058 12.8602 4.14023 12.9832C4.13255 12.7757 4.24015 12.8602 4.08643 12.6373C4.14023 12.4913 4.317 12.6681 4.36312 12.7372C4.27089 12.5451 4.18635 12.3529 4.10949 12.1608C3.90197 12.3145 3.64067 11.8764 3.47158 11.9994L4.04032 12.4605C3.84049 12.6143 3.20258 12.4913 3.02581 12.0532C3.06424 11.8995 3.47158 11.9149 3.54075 11.8611C3.43315 11.8534 3.19489 11.569 3.22564 11.4998L3.44084 11.6074C3.41009 11.3461 2.95663 11.3999 3.04118 11.0233C3.01043 10.9234 3.21795 10.6083 3.07192 10.6544C2.86441 10.9234 2.04972 11.3384 1.80378 11.3154C1.81146 11.2693 1.82684 10.6698 1.92675 10.5007C2.08047 10.2548 2.53392 10.5468 2.66458 10.3316C2.59541 10.3547 2.48012 10.2932 2.44169 10.2701C2.45706 10.1472 2.66458 10.2317 2.54929 10.0242C2.28798 10.078 2.40326 9.57073 2.30335 9.99344C2.14964 9.8013 2.27261 9.73981 2.18038 9.49387C2.04972 9.62453 1.55015 9.4247 1.41949 9.20181C1.48866 9.20181 1.55784 9.12495 1.58858 9.09421C1.48867 8.61001 1.57321 8.33333 1.51941 7.88756C1.5809 7.84144 1.63469 7.61856 1.75767 7.7031C1.70387 7.64161 1.61164 7.5955 1.59627 7.45716C1.81147 7.18816 1.65006 7.7569 1.91138 7.5417C1.74998 7.53402 1.69618 7.21122 1.59627 7.01907C1.3657 7.08056 1.54246 7.47253 1.66544 7.65699C1.33495 7.68773 0.973725 7.35724 0.827697 6.8423C0.773897 6.43496 1.05058 6.6809 1.01215 6.60404C1.05827 6.23513 0.950668 6.05836 0.85844 5.89696C0.766212 5.73556 0.681666 5.58185 0.873809 5.2821C1.14281 5.08228 1.27347 5.37433 1.43487 5.35896C1.42718 5.68176 1.21198 5.80473 1.18124 6.02762L1.31958 5.78167C1.37338 5.89696 1.38875 6.10447 1.31189 6.21207C1.42718 6.12753 1.46561 5.82779 1.55015 5.4973C1.6347 5.16682 1.78072 4.7979 1.97286 4.59808C1.94981 4.48279 1.97286 4.29833 1.85758 4.32908C1.83452 4.38288 1.81915 4.44436 1.80378 4.49816C1.57321 4.57502 1.75766 4.08313 1.58089 4.25991C1.58858 3.98322 1.60395 3.60662 1.93444 3.36836L2.15732 3.47596C2.10352 3.42985 1.88833 3.56819 1.88064 3.69885C1.9037 3.49134 2.47243 3.49134 2.40326 3.16854C2.29566 3.18391 2.19575 3.20696 2.08815 3.23002C2.19575 2.95334 2.36484 2.49988 2.77987 2.38459C2.50318 2.26162 2.71838 2.43839 2.31872 2.35385C2.51855 2.43071 2.28798 2.56137 2.10352 2.70739C1.91138 2.85342 1.77304 3.00714 2.03435 3.00714C1.61164 2.97639 1.60395 3.25308 1.17355 3.39142C1.25041 3.42985 1.3657 3.36836 1.15818 3.61431C1.17355 3.63736 1.17355 3.68348 1.18124 3.70654C1.17355 3.71422 1.17355 3.71422 1.16587 3.72191L1.18124 3.71422C1.18124 3.72959 1.18893 3.73728 1.18893 3.71422C1.2581 3.66811 1.31958 3.63736 1.37338 3.64505C1.43487 3.86793 1.21198 4.25991 1.24273 4.43668C1.14281 4.57502 1.18892 4.33676 1.07364 4.39056C1.08901 4.48279 1.0967 4.56733 1.11207 4.65188C0.942984 4.60576 0.689356 4.98236 0.727785 4.55965C0.68167 4.67493 0.643237 4.79022 0.597123 4.91319C0.443409 5.08996 0.328123 5.3897 0.374237 5.57416C0.312752 5.73556 0.49721 6.01993 0.381924 5.85853C0.381924 6.04299 0.397298 6.23513 0.420355 6.41959H0.374237C0.29738 6.97296 0.620181 7.51096 0.381924 8.14118C0.435724 8.31796 0.527955 8.48704 0.527955 8.78678L0.389612 8.87133C0.474155 9.08653 0.404982 9.57841 0.574067 9.6399C0.243582 9.99344 0.82001 10.7236 0.904552 11.1079L1.08901 11.0464C1.18892 11.2923 1.33495 11.5152 1.54247 11.7765L1.6885 11.6843C1.93444 11.8764 1.89601 12.3837 2.11889 12.768C2.04972 12.7757 2.01129 12.6681 2.00361 12.5758C1.91138 13.2368 2.79524 13.3982 2.80292 13.9439C2.91821 14.0131 2.94895 14.0899 2.95663 14.1821C2.94895 14.1745 2.94126 14.1668 2.93358 14.1591C2.94126 14.1668 2.94895 14.1821 2.95663 14.1975C2.95663 14.259 2.95664 14.3205 2.97201 14.382C2.97969 14.3205 2.98738 14.259 2.97201 14.2129C3.02581 14.2897 3.11804 14.3897 3.22564 14.4819L3.10266 14.6356C3.11035 14.6433 3.11803 14.651 3.12572 14.6587C3.14109 14.8047 3.25638 14.6971 3.33324 14.5587C3.39472 14.5972 3.46389 14.6279 3.52538 14.6433C3.34092 14.8969 3.80206 14.8739 3.62529 15.1736C3.80975 15.1582 4.1018 15.6578 4.41692 15.5195C4.38617 15.5502 4.39386 15.5886 4.34775 15.5348C4.40923 15.6732 4.46304 15.8115 4.62443 15.8576L4.47072 16.0421L4.92418 16.1113C4.92418 16.3495 4.9088 16.4648 4.64749 16.4187C5.15475 16.6262 4.9626 16.6569 5.43143 16.8107L5.30077 16.8875C5.393 16.9951 5.69274 17.0566 5.64663 17.1949C5.6082 17.6177 6.56891 18.4631 6.85328 19.2778C7.10691 18.8781 6.93014 19.7005 7.2222 19.516C7.1684 19.6159 7.19146 19.7466 7.03774 19.7005C7.20683 19.8311 7.26832 19.9849 7.33749 20.1078C7.40666 20.2308 7.57574 20.4383 7.79094 20.4844C7.76788 20.6305 7.60648 20.4998 7.60648 20.5997C7.6526 20.6304 7.79863 20.6919 7.79863 20.7995C7.80631 20.9071 7.68334 20.7995 7.58343 20.7457C8.04457 21.3222 8.23671 21.0301 8.39811 20.7304C8.50571 21.107 8.621 21.2299 8.79008 21.1223C8.82083 21.3222 8.90537 21.6142 8.6748 21.3683C8.75934 21.4989 9.15131 22.1292 9.35114 22.2829C9.41262 22.1522 9.45105 22.0369 9.44337 21.9293C9.4818 21.9754 9.60476 21.7295 9.62782 21.645C9.88145 21.3068 9.9122 21.2914 10.1581 20.9071L10.0736 20.9609C10.0352 20.4921 10.235 20.6151 10.4118 20.2923L10.4271 20.323C11.0036 19.8696 10.5808 19.9234 11.1112 19.5852L10.9421 19.5083C10.65 19.2393 11.434 19.2086 11.5031 18.8397L11.3494 18.8858C11.3417 18.6552 12.0949 18.7628 12.241 18.6322C12.2948 18.6168 12.2486 18.7167 12.241 18.7782C12.7175 18.5015 12.0796 18.5861 12.241 18.2556C12.387 18.2709 12.4638 18.5169 12.6252 18.3247C12.779 18.2863 12.6867 17.4947 13.0864 17.3563C12.9634 17.364 12.8404 17.364 12.8712 17.1796C12.9942 16.9413 13.586 16.8107 13.463 16.4341C13.5014 16.4187 13.5322 16.4264 13.5552 16.4417C13.6013 16.2265 13.8165 15.8269 13.7397 15.6271C14.3776 15.8269 14.1778 14.4127 14.662 14.7432L14.9771 14.2052L15.0155 14.2513C15.2691 13.9362 15.223 13.7441 15.1769 13.5442C15.2614 13.4904 15.2691 13.575 15.2922 13.598C15.6995 13.1676 15.7149 13.0985 15.7072 12.5297L15.8994 12.5835C15.8763 12.4144 16.5911 11.9994 16.6679 11.3846C16.6833 11.3999 16.714 11.4307 16.714 11.4845C16.8293 10.8158 17.913 10.3316 17.3827 9.80898L17.4058 9.34784C17.1291 9.82435 17.1675 9.14801 16.9677 9.30173C17.0215 9.09421 17.3904 8.8867 17.3135 9.14033L17.2674 9.16338C17.5595 9.40164 17.6594 8.58696 17.8746 8.69456C18.2819 7.68004 18.8122 6.71933 19.0889 5.70482L18.7892 5.75093L18.8891 5.40508C18.9736 5.32822 19.135 5.32822 19.0582 5.58185C19.2426 5.48193 19.0274 5.12839 18.966 5.10533C19.1888 4.6365 19.2426 5.36665 19.2811 5.22062L19.3118 5.00542L19.2657 5.04385C19.1888 4.8517 19.0735 4.81328 19.1427 4.49816C19.2273 4.29833 19.3272 4.41362 19.3502 4.33676C19.3656 4.33676 19.381 4.31371 19.3733 4.20611C19.3963 4.03702 19.4194 3.86025 19.4271 3.66811C19.3502 3.74496 19.2811 3.81413 19.2042 3.88331C19.1043 3.65273 19.2042 3.39142 18.966 3.63736C19.1581 3.47596 19.1658 2.93028 18.9198 2.45377C18.6816 1.96188 18.2666 1.67751 18.2128 1.56222C17.8362 1.47768 17.5672 1.33165 17.1982 1.19331C17.2828 1.27017 17.2444 1.51611 16.9523 1.40082C17.1982 0.916625 16.4143 1.04728 16.1222 0.716797C16.2529 0.839768 15.9993 0.85514 15.7764 0.908939C15.5535 0.962739 15.369 1.04728 15.5842 1.18563C15.3076 1.19331 15.5381 1.00117 15.2999 0.924311C14.7081 1.26248 13.878 1.28554 13.2478 1.75437C13.2708 1.81585 13.4322 1.83891 13.3554 2.008C13.1863 1.98494 13.0095 1.9542 12.8404 1.94651C12.7328 2.06179 12.948 2.34617 12.5945 2.31542C12.656 2.33848 12.7559 2.37691 12.6867 2.45377C12.0027 2.76119 11.4724 3.32225 10.9959 3.89868C10.5194 4.48279 10.0736 5.06691 9.42031 5.55879C9.63551 5.45119 9.57403 5.57416 9.50485 5.7125C9.58171 5.64333 9.65088 5.79705 9.73542 5.82779C9.55865 5.95845 9.38188 6.10447 9.21279 6.2505C9.38188 6.4657 8.93611 6.86536 9.13594 7.02676L9.17437 6.82693C9.32808 7.17279 9.90451 6.77313 10.2196 6.97296C10.0505 6.5733 10.9574 6.58867 10.7884 5.99687C10.9037 5.95845 10.8422 6.12753 10.9421 6.13522C10.8652 5.95845 10.9113 5.82779 11.1112 5.66639L11.1265 5.7125C11.4955 5.13608 11.8029 4.99773 12.4024 4.5289L12.2333 4.43668C12.3639 4.33676 12.4331 4.35982 12.5176 4.33676C12.4638 4.00628 12.1795 4.64419 12.0872 4.31371C12.4946 4.41362 12.9557 3.51439 13.34 3.76802C13.5398 3.62199 13.1556 3.64505 13.3554 3.49902L13.4784 3.55282L13.4399 3.39911C13.5936 3.32225 13.7397 3.39142 13.8012 3.46828C13.7627 3.48365 13.7243 3.55282 13.6936 3.58356C13.9395 3.56819 14.1547 3.22234 14.2392 3.21465L14.001 3.28382C14.5236 2.80731 15.2691 2.60748 15.7764 2.30005L15.7149 2.22319C16.1453 2.00799 16.0915 2.25394 16.5373 2.21551L16.5142 2.23088C16.6141 2.16171 16.7525 2.13865 16.8754 2.19245C16.7371 2.25394 17.0138 2.44608 16.837 2.49988C17.2828 2.50757 17.0676 2.44608 17.498 2.33079L17.4749 2.48451C17.6286 2.44608 17.6978 2.39228 17.89 2.55368C17.6748 2.49219 17.8131 2.79962 17.5672 2.76119C17.5825 3.01482 17.6901 3.06862 17.7977 3.16085C17.8976 3.25308 17.9668 3.36836 17.7516 3.49134C18.182 3.64505 17.8976 3.06862 17.9899 3.16854C18.0821 3.01482 18.3357 3.26845 18.3127 3.46828C18.3203 3.66811 17.8438 3.77571 17.7977 4.18305C17.8054 4.14462 17.7747 4.13693 17.7824 4.09082C17.6671 4.22916 17.8746 4.42899 17.6671 4.60576C17.8746 4.77485 17.5902 4.88245 17.8823 4.98236C17.8899 4.82865 17.9053 4.68262 17.9053 4.53659C17.9361 4.79022 18.2204 5.10533 17.9591 5.48193C17.9053 5.43582 17.8592 5.29748 17.8362 5.19756C17.7209 5.29748 17.8438 5.4435 17.7209 5.54342C17.4365 5.43582 17.7824 4.99773 17.6133 4.6903C17.4596 4.79022 17.7132 5.2283 17.4211 5.02848C17.7824 5.31285 17.2674 5.47425 17.4826 5.86622L17.3135 5.79705C17.3289 5.85085 17.3827 5.9815 17.3519 6.07373L17.1675 5.84316C17.2905 6.15059 16.8601 6.27356 16.8831 6.54256C17.0445 6.04299 17.1291 6.49645 17.3289 6.32736C17.3443 7.02676 16.7678 6.54256 16.5988 7.24964C16.6064 7.14973 16.8293 6.94221 16.8601 7.1113C16.7755 7.22659 16.6449 7.37262 16.5296 7.41873C16.3989 7.87987 16.7294 7.41873 16.7602 7.6493C16.4988 7.72616 16.7602 7.90293 16.7371 8.1335L16.568 8.06433C16.2452 8.53316 16.8678 8.3487 16.5373 8.75604L16.3836 8.4563L16.3374 8.7253L16.1684 8.58696C16.1914 8.90975 16.1146 8.97124 15.9455 9.20181C16.0915 9.20181 16.2375 9.37858 16.1299 9.60915C15.9532 9.70907 16.0146 9.44775 15.8763 9.77055C15.8071 9.64758 15.7149 9.50924 15.9378 9.44775C15.8917 9.40933 15.8686 9.32478 15.8225 9.28635C15.6304 9.39395 15.5919 9.67832 15.5381 9.79361C15.5689 9.75518 15.5996 9.70907 15.638 9.6937V10.2624C15.5381 10.3009 15.5228 10.2163 15.4997 10.1395C15.469 10.2394 15.5074 10.3393 15.4536 10.4853C15.3383 10.3777 15.2 10.3162 15.2384 10.0934L15.1538 10.6006C15.0847 10.6006 14.8772 10.7313 14.8618 10.6544C14.6543 10.8466 14.7926 11.3692 14.5082 11.6228C14.5236 11.6536 14.5313 11.6997 14.5082 11.7765C14.3084 12.0532 13.9933 12.2069 13.9549 12.6527L13.609 12.6988C13.4937 12.9985 14.0625 12.622 13.8703 13.1138C13.7397 13.4751 13.6013 13.1061 13.463 13.1753C13.4784 13.4059 13.5398 13.8286 13.1632 13.99C13.2247 13.8363 13.3093 13.7825 13.3477 13.6826ZM11.2418 16.9951C11.2572 16.9106 11.2418 16.7184 11.3648 16.7338C11.4878 16.9259 11.3648 16.9259 11.2418 16.9951ZM8.6748 19.6774C8.73628 19.6544 8.75166 19.7312 8.76703 19.8619C8.7286 19.8311 8.69017 19.7697 8.6748 19.6774ZM0.650923 5.19756L0.65861 5.20525C0.543325 5.38202 0.589437 5.32053 0.650923 5.19756ZM0.843065 4.82096C0.827694 4.77485 0.80464 4.76716 0.773897 4.77485C0.812325 4.82096 0.781582 4.9055 0.743153 5.00542C0.796953 4.99005 0.850751 4.95162 0.843065 4.82096ZM19.3195 4.27528L19.258 4.34445C19.2273 4.16768 19.2657 4.22148 19.3195 4.27528Z" fill="white"/>
<path d="M9.05053 19.7539C9.05053 19.8 9.04284 19.8538 9.03516 19.8999C9.05821 19.8692 9.0659 19.8231 9.05053 19.7539Z" fill="white"/>
<path d="M14.5388 11.5853L14.5465 11.5776C14.5388 11.5699 14.5311 11.5546 14.5234 11.5469L14.5388 11.5853Z" fill="white"/>
<path d="M2.71799 10.1699C2.71799 10.2468 2.70262 10.2929 2.67188 10.3313C2.71799 10.3159 2.74873 10.2775 2.71799 10.1699Z" fill="white"/>
<path d="M1.84241 2.64648C1.77324 2.73103 1.70406 2.81557 1.64258 2.9078C1.74249 2.79251 1.81166 2.78483 1.88852 2.75408C1.85778 2.72334 1.77324 2.71566 1.84241 2.64648Z" fill="white"/>
<path d="M4.41564 2.9528C4.45407 2.93743 4.48481 2.96049 4.52324 2.94512L4.53092 2.86058C4.3849 2.82983 4.27729 2.90669 4.41564 2.9528Z" fill="white"/>
<path d="M2.44922 2.94607C2.5645 3.06135 2.65673 2.91532 2.81045 2.80004C2.80276 2.80772 2.79508 2.81541 2.7797 2.81541C2.7259 2.59252 2.57219 2.76929 2.44922 2.94607Z" fill="white"/>
<path d="M2.84766 2.77757C2.89377 2.73914 2.94757 2.71608 3.00137 2.70071C2.99369 2.60848 2.9322 2.70071 2.84766 2.77757Z" fill="white"/>
<path d="M0.94238 4.28219C1.01155 4.21302 0.780976 4.14385 0.865518 4.12848C0.711804 3.95171 0.842466 4.78945 0.94238 4.28219Z" fill="white"/>
<path d="M2.86452 3.28313L2.70312 3.16016C2.70312 3.22164 2.71081 3.27544 2.71849 3.33693C2.76461 3.31387 2.81841 3.2985 2.86452 3.28313Z" fill="white"/>
<path d="M1.89587 4.12213C1.95736 4.05296 2.01884 3.99148 2.08801 3.92999C2.05727 3.91462 2.06496 3.87619 2.07264 3.83008C1.96505 3.96842 1.84207 4.09908 1.89587 4.12213Z" fill="white"/>
<path d="M2.07227 3.83667C2.12607 3.7675 2.17218 3.70602 2.17986 3.64453C2.14912 3.69065 2.09532 3.7675 2.07227 3.83667Z" fill="white"/>
<path d="M2.62523 3.53711L2.54069 3.56017C2.49457 3.5986 2.44846 3.63702 2.40234 3.67545C2.4792 3.62165 2.55606 3.58322 2.62523 3.53711Z" fill="white"/>
<path d="M1.15039 6.81192C1.15808 6.90415 1.18882 7.00406 1.20419 7.09629C1.27336 7.12703 1.31179 7.05018 1.28105 6.94258C1.23493 6.8734 1.21956 6.7658 1.15039 6.81192Z" fill="white"/>
<path d="M1.7571 6.03516C1.7033 6.09664 1.66487 6.09664 1.5957 6.12739L1.83396 6.16581L1.7571 6.03516Z" fill="white"/>
<path d="M1.73438 6.80439C1.78817 6.83513 1.91883 7.18099 1.90346 6.85819C1.84198 6.82744 1.81123 6.56613 1.73438 6.80439Z" fill="white"/>
<path d="M2.27283 10.7998L2.24208 10.7383L1.88086 10.8997L2.27283 10.7998Z" fill="white"/>
<path d="M4.82412 13.4908C4.73189 13.1757 4.57818 13.56 4.52438 13.2526C4.40909 13.2372 4.57049 13.5062 4.46289 13.4832C4.64735 13.5908 4.65503 13.706 4.82412 13.4908Z" fill="white"/>
<path d="M4.46319 13.4835C4.43245 13.4681 4.40171 13.4451 4.36328 13.4297C4.4094 13.4681 4.44014 13.4758 4.46319 13.4835Z" fill="white"/>
<path d="M8.86635 6.51172L8.69727 6.68849L8.87404 6.61163L8.86635 6.51172Z" fill="white"/>
<path d="M8.95871 7.02658L8.70508 6.98047L8.85879 7.18798C8.86648 7.14187 8.88954 7.04196 8.95871 7.02658Z" fill="white"/>
<path d="M10.4961 17.1944L10.5345 17.2405C10.6037 17.2482 10.6421 17.2098 10.7036 17.1406L10.4961 17.1944Z" fill="white"/>
<path d="M12.271 14.9512L12.2402 14.9819L12.4785 15.0357L12.271 14.9512Z" fill="white"/>
<path d="M13.3317 12.8145C13.2702 12.8913 13.2548 13.0143 13.1934 13.0911C13.2779 12.8913 13.5853 12.9451 13.3317 12.8145Z" fill="white"/>
</svg>
