<svg width="23" height="30" viewBox="0 0 23 30" fill="none" xmlns="http://www.w3.org/2000/svg">
<path d="M10.4865 1.97466C10.425 1.97466 10.4788 2.12838 10.4788 2.15912C10.571 2.09763 10.4788 1.92855 10.4865 1.97466Z" fill="white"/>
<path d="M11.3866 1.43768L11.3789 1.50685L11.5019 1.33008L11.3866 1.43768Z" fill="white"/>
<path d="M12.2932 1.36859C12.201 1.0919 11.9704 1.42239 11.8013 1.33784L11.7706 1.28405L11.7168 1.50693C11.9013 1.45313 12.1549 1.29173 12.2932 1.36859Z" fill="white"/>
<path d="M12.7094 1.97544C12.694 1.86784 12.8016 1.8909 12.6172 1.93701C12.6249 1.95238 12.6249 1.95238 12.6326 1.96775C12.6479 1.96775 12.671 1.96775 12.7094 1.97544Z" fill="white"/>
<path d="M12.6314 1.9668C12.5546 1.9668 12.6775 2.05903 12.6314 1.9668V1.9668Z" fill="white"/>
<path d="M13.0001 1.94531L12.8848 2.02217C12.9001 2.08366 12.9847 2.1144 12.9463 2.15283C13.0539 2.12208 13.0462 2.05291 13.0001 1.94531Z" fill="white"/>
<path d="M13.1396 1.75977L13.0781 1.79051C13.0781 1.82125 13.0935 1.82894 13.1396 1.75977Z" fill="white"/>
<path d="M12.9473 1.86021L13.0779 1.79872C13.0702 1.74492 13.0779 1.66038 13.0164 1.81409C13.0395 1.73724 13.0011 1.80641 12.9473 1.86021Z" fill="white"/>
<path d="M12.8862 1.80542C12.8324 1.73625 12.7555 1.69014 12.8785 1.61328C12.6556 1.62865 12.6786 1.8208 12.8862 1.80542Z" fill="white"/>
<path d="M12.3309 1.08467L12.231 1.00781L12.1465 1.10004C12.1926 1.05393 12.3386 1.16921 12.3309 1.08467Z" fill="white"/>
<path d="M13.5461 2.22862C13.5692 2.17482 13.5692 2.0749 13.5922 1.99805L13.5 2.03648C13.5231 2.09028 13.5769 2.15176 13.5461 2.22862Z" fill="white"/>
<path d="M13.5918 2.00541L13.7301 1.95161C13.6379 1.9055 13.6072 1.93624 13.5918 2.00541Z" fill="white"/>
<path d="M13.2148 1.46875L12.9766 1.64552C13.0688 1.58404 13.161 1.53024 13.2532 1.47644L13.2148 1.46875Z" fill="white"/>
<path d="M13.8848 2.3978L13.7695 2.49003C13.831 2.44392 13.8925 2.3978 13.954 2.35938L13.8848 2.3978Z" fill="white"/>
<path d="M14.1071 2.52148C14.0072 2.59066 14.0456 2.71363 13.9688 2.73668C14.0302 2.75974 14.1378 2.72131 14.2378 2.69057C14.1609 2.69057 14.1225 2.64446 14.1071 2.52148Z" fill="white"/>
<path d="M14.3997 2.66016C14.3613 2.66016 14.2998 2.67553 14.2383 2.6909C14.2844 2.6909 14.3305 2.68321 14.3997 2.66016Z" fill="white"/>
<path d="M13.8925 2.05273C13.8848 2.08348 13.8617 2.17571 13.8925 2.23719L13.9309 2.07579C13.9155 2.06811 13.9079 2.06042 13.8925 2.05273Z" fill="white"/>
<path d="M13.9297 2.06836C13.9681 2.0991 13.9912 2.12216 14.0065 2.12984C13.9989 2.12216 13.9758 2.10679 13.9297 2.06836Z" fill="white"/>
<path d="M13.8848 2.04353L13.8925 2.05122C13.8925 2.03585 13.8925 2.02816 13.8848 2.04353Z" fill="white"/>
<path d="M13.5 1.69049C13.5922 1.62132 13.7767 1.57521 13.6768 1.39844C13.5845 1.49067 13.6383 1.59058 13.5 1.69049Z" fill="white"/>
<path d="M13.923 1.8365L13.8231 1.75195C13.8077 1.79038 13.8077 1.85955 13.7539 1.8903L13.923 1.8365Z" fill="white"/>
<path d="M13.9987 1.82227L13.9219 1.83764L13.9526 1.87607L13.9987 1.82227Z" fill="white"/>
<path d="M14.3388 2.40605C14.4234 2.38299 14.4772 2.42142 14.5387 2.45216C14.5002 2.38299 14.4541 2.31382 14.3926 2.27539C14.3542 2.31382 14.2697 2.36762 14.3388 2.40605Z" fill="white"/>
<path d="M14.1543 2.22042H14.1697C14.1697 2.19736 14.162 2.19736 14.1543 2.22042Z" fill="white"/>
<path d="M15.037 2.95079L15.0524 2.92773L15.0293 2.94311L15.037 2.95079Z" fill="white"/>
<path d="M14.4002 2.24447C14.3771 2.18298 14.3233 2.19836 14.2695 2.22141C14.3156 2.2291 14.3541 2.24447 14.3925 2.27521C14.4079 2.25984 14.4156 2.24447 14.4002 2.24447Z" fill="white"/>
<path d="M14.5905 2.72831C14.5905 2.6822 14.5905 2.63608 14.5828 2.59766C14.5675 2.65146 14.5521 2.75137 14.5905 2.72831Z" fill="white"/>
<path d="M14.1534 2.26758H14.1458C14.1381 2.30601 14.1458 2.29064 14.1534 2.26758Z" fill="white"/>
<path d="M14.1543 2.26669C14.1927 2.259 14.2312 2.24363 14.2696 2.22058C14.2388 2.21289 14.2004 2.21289 14.1697 2.21289C14.162 2.22826 14.162 2.25132 14.1543 2.26669Z" fill="white"/>
<path d="M15.9904 2.44401C15.8674 2.52855 15.6445 2.49013 15.6599 2.26724C15.4678 2.2365 15.1834 2.65153 15.0527 2.92821C15.1065 2.88978 15.1526 2.84367 15.314 2.89747C15.3448 2.80524 15.2372 2.52855 15.4293 2.52087C15.6215 2.62078 15.4985 2.68227 15.4985 2.80524C15.5907 2.6131 15.8751 2.82061 16.0596 2.6131L15.8674 2.53624C15.8982 2.49781 15.9981 2.5055 15.9904 2.44401Z" fill="white"/>
<path d="M14.8836 2.72032L14.8298 2.69727C14.8529 2.75875 14.8452 2.83561 14.8145 2.98164C14.9297 2.99701 14.9835 2.97395 15.0297 2.94321L14.8529 2.72801L14.8836 2.72032Z" fill="white"/>
<path d="M14.6523 2.52919C14.7906 2.43697 14.9443 2.48308 15.0058 2.29094C14.8675 2.18334 14.8214 2.31399 14.6984 2.29862C14.9213 2.44465 14.5831 2.32168 14.66 2.51382C14.6062 2.49845 14.5677 2.47539 14.5293 2.45234C14.5524 2.49845 14.5677 2.54456 14.5754 2.59836V2.59068C14.5831 2.56762 14.5831 2.55994 14.5908 2.57531H14.5985C14.6138 2.55225 14.6369 2.53688 14.6523 2.52919C14.683 2.60605 14.6292 2.56762 14.5985 2.56762L14.5831 2.58299C14.6676 2.61374 14.7522 2.65216 14.829 2.69828C14.806 2.63679 14.7522 2.59068 14.6523 2.52919Z" fill="white"/>
<path d="M13.9296 1.11523C13.9296 1.13061 13.9296 1.14598 13.9219 1.15366C13.9526 1.13829 13.968 1.13061 13.9296 1.11523Z" fill="white"/>
<path d="M14.0071 1.24457C13.9763 1.25994 13.9379 1.31374 13.8764 1.27531C13.838 1.20614 13.9072 1.19846 13.9225 1.15234C13.8687 1.1754 13.7458 1.21383 13.838 1.3368L13.861 1.32143C13.9533 1.41366 13.9917 1.6596 13.961 1.67497C14.0071 1.52126 14.0301 1.41366 14.0071 1.24457Z" fill="white"/>
<path d="M14.4375 1.83599C14.5144 1.85905 14.5912 1.87442 14.6681 1.90516L14.6527 1.7207L14.6066 1.79756C14.522 1.68996 14.4836 1.78987 14.4375 1.83599Z" fill="white"/>
<path d="M14.9917 3.02734L14.8457 3.11957L15.1147 3.05809L14.9917 3.02734Z" fill="white"/>
<path d="M15.207 3.24414L15.084 3.32868L15.207 3.33637V3.24414Z" fill="white"/>
<path d="M9.64106 14.8945L9.54883 14.9099C9.58726 14.9099 9.618 14.9022 9.64106 14.8945Z" fill="white"/>
<path d="M10.2257 15.0555L10.2564 14.9863C10.218 15.0171 10.2026 15.0401 10.2257 15.0555Z" fill="white"/>
<path d="M17.281 9.94531C17.1273 10.0222 16.8891 10.076 17.0582 10.099H17.2272C17.2196 10.0299 17.2426 9.98374 17.281 9.94531Z" fill="white"/>
<path d="M14.8379 14.0877L14.884 14.1261C14.8917 14.0646 14.9071 14.0031 14.9147 13.957C14.8917 13.9955 14.8686 14.0416 14.8379 14.0877Z" fill="white"/>
<path d="M14.9365 14.7801L14.7598 14.7109C14.7982 14.7417 14.852 14.7647 14.9365 14.7801Z" fill="white"/>
<path d="M6.56702 13.3965L6.36719 13.4426C6.49784 13.5579 6.49785 13.4426 6.56702 13.3965Z" fill="white"/>
<path d="M17.0273 5.77995C16.9966 5.87986 16.9966 5.94135 17.0043 5.99515C17.0658 5.87986 17.1657 5.74921 17.0273 5.77995Z" fill="white"/>
<path d="M10.3111 13.25C10.265 13.2654 10.2419 13.2961 10.2266 13.3345C10.2804 13.3115 10.3111 13.2884 10.3111 13.25Z" fill="white"/>
<path d="M17.0826 6.19397C17.0979 6.1786 17.0979 6.16323 17.1056 6.14785C17.0595 6.10174 17.0211 6.06331 17.0057 5.99414C16.9673 6.07868 16.9519 6.16323 17.0826 6.19397Z" fill="white"/>
<path d="M6.67578 2.12122C6.68347 2.12122 6.69884 2.11353 6.70652 2.11353C6.69884 2.09047 6.69115 2.09816 6.67578 2.12122Z" fill="white"/>
<path d="M10.2034 1.84375C10.1804 1.85912 10.1419 1.87449 10.1035 1.88986C10.1266 1.89755 10.1573 1.88218 10.2034 1.84375Z" fill="white"/>
<path d="M15.9365 4.29623C15.8904 4.25012 15.9211 4.30392 15.9365 4.29623V4.29623Z" fill="white"/>
<path d="M16.2598 3.63621C16.2828 3.63621 16.3059 3.62853 16.3443 3.60547C16.3059 3.62853 16.2828 3.63621 16.2598 3.63621Z" fill="white"/>
<path d="M18.2422 6.56338C18.2652 6.54032 18.2652 6.54801 18.2422 6.56338V6.56338Z" fill="white"/>
<path d="M15.9355 4.17383C15.9355 4.20457 15.9432 4.243 15.9509 4.27374C15.9509 4.25068 15.9509 4.21994 15.9355 4.17383Z" fill="white"/>
<path d="M15.8823 4.22763C15.8746 4.20457 15.8669 4.1892 15.8592 4.17383C15.8285 4.18151 15.8208 4.19688 15.8823 4.22763Z" fill="white"/>
<path d="M16.0047 4.36554C15.9817 4.3348 15.9663 4.30405 15.9509 4.26562C15.9509 4.281 15.9432 4.29637 15.9355 4.29637C15.9509 4.31174 15.974 4.3348 16.0047 4.36554Z" fill="white"/>
<path d="M5.02192 8.09247C5.02961 8.08479 5.02961 8.08479 5.03729 8.0771C4.96812 8.00793 4.97581 8.03867 5.02192 8.09247Z" fill="white"/>
<path d="M18.3962 12.1892V12.1738L18.3809 12.1815L18.3962 12.1892Z" fill="white"/>
<path d="M18.3656 12.5119C18.2426 12.2967 18.2964 12.2506 18.3809 12.1814L17.9121 12.0508C18.0658 12.1968 18.2195 12.3505 18.3656 12.5119Z" fill="white"/>
<path d="M8.25078 14.4107C8.28921 14.4875 8.32763 14.5644 8.37375 14.6336C8.04326 14.7565 7.90492 14.5721 7.98946 14.8641C8.24309 14.4184 8.7734 15.1639 8.9886 14.6797L9.07315 14.8257C9.0424 14.8103 9.01935 14.8334 8.9886 14.818C9.15 15.1408 9.29603 14.5336 9.57272 14.695C9.66495 14.7642 9.72643 14.8564 9.6342 14.8949L9.91089 14.8411C9.98006 14.8718 9.94163 14.9564 9.87246 14.9256C10.0031 14.9487 10.1261 14.9564 10.2567 14.9717L10.2491 14.9871C10.3182 14.9179 10.4643 14.818 10.5334 14.7796C10.6103 14.8718 10.4796 14.8257 10.4873 14.8949C10.5642 14.8718 10.641 14.8334 10.7102 14.8026C10.7717 14.9487 10.5795 15.0563 10.4412 15.0102C10.5411 15.5635 10.6333 14.9102 11.0099 15.2792L10.8024 15.3176C10.887 15.6327 11.0637 15.5482 11.2789 15.7557C11.2251 15.6558 10.8716 15.2484 11.1175 15.1408C11.179 15.1869 11.2636 15.21 11.3942 15.1178C11.3789 15.3022 11.5018 15.2715 11.6555 15.2715L11.6325 15.5174C11.8016 15.4559 11.7939 15.3253 11.8938 15.2254C12.0706 15.2561 12.109 15.4482 12.1474 15.6096C12.4395 15.6481 11.9476 15.3022 12.2935 15.2561C12.5317 15.3483 12.7085 15.2561 12.9775 15.087C13.1466 15.1639 12.9544 15.2407 13.0236 15.3022L13.1619 15.0947C13.2004 15.0947 13.1927 15.1562 13.185 15.1869C13.3003 15.1024 13.1773 14.9487 13.3618 14.8564C13.3771 14.5798 13.7999 15.21 13.9997 14.8718C14.0689 14.9333 13.992 15.0255 14.0227 15.1178C14.3148 14.8641 14.2841 14.9256 14.4916 14.6105L14.7529 14.7181C14.5454 14.5798 14.7145 14.3184 14.8374 14.0956C14.7606 14.0264 14.6991 13.9572 14.653 13.9342L14.8835 13.7343C14.922 13.7651 14.922 13.8496 14.9066 13.9649C14.922 13.9418 14.9297 13.9188 14.9373 13.8957C15.0603 13.9572 15.0526 14.1032 15.0142 14.257C14.9681 14.2185 14.922 14.1801 14.8759 14.1417C14.8451 14.3031 14.8221 14.4798 14.8682 14.6182C14.8835 14.5874 14.9143 14.549 14.945 14.526C14.9373 14.5721 14.9297 14.6105 14.945 14.6336C14.9604 14.6566 14.9758 14.5951 15.0065 14.5183L15.1449 14.7642L15.1295 14.6566C15.2755 14.672 15.4215 14.6874 15.5752 14.695C15.7674 14.3261 15.8442 13.8727 16.1517 13.5652C16.1594 13.7958 16.29 13.865 16.4053 14.0725C16.1747 13.9188 16.1363 14.3415 15.875 14.3953C16.0057 14.3722 16.021 14.4875 16.0056 14.5336C16.1132 14.403 16.2132 14.2723 16.3054 14.134C16.3899 14.3108 16.4591 14.2185 16.6051 14.2262C16.3361 13.9418 16.7588 13.8342 16.828 13.6267C16.9126 13.719 16.9587 13.8573 16.7588 13.9649C17.1431 14.0494 16.7435 13.4192 17.074 13.4576C17.0355 13.4961 17.0048 13.4961 17.0278 13.5652C17.0509 13.4038 17.3276 13.2501 17.3583 13.3808L17.3199 13.4192C17.635 13.204 18.027 12.5507 17.758 12.3432C17.7964 12.3586 18.0731 12.5892 18.1115 12.643C17.9194 12.2664 17.6811 11.9205 17.4198 11.6131C17.6504 11.7822 18.3498 11.8667 18.3652 12.2049C18.442 12.1434 18.5266 12.0665 18.5035 11.859C18.442 11.8975 18.0731 11.8283 18.0808 11.7514C18.4497 11.6823 18.2883 11.6899 18.6342 11.5285C18.5496 11.59 18.1653 11.3518 18.2191 11.2442C18.2729 11.2826 18.6342 11.3671 18.6649 11.4286C18.5573 11.2749 18.4497 11.1289 18.3421 10.9905C18.3959 11.0905 18.6956 11.1058 18.8263 11.0597C18.7341 11.0751 18.9032 10.783 18.8801 10.6831L18.7494 10.7984C18.8878 10.4449 18.2268 10.3296 18.3037 9.99908C18.3882 10.0529 18.834 10.1835 18.9108 10.0068C18.7033 9.8838 17.8963 9.52257 17.7426 9.2382L17.8733 9.19209L17.7426 8.9692C18.0731 9.10754 18.7494 9.561 18.9877 9.83C19.103 9.70703 19.1414 9.80694 19.1491 9.59943C19.2721 9.53794 19.3182 9.73008 19.3182 9.79157C19.3643 9.63017 19.395 9.46877 19.4335 9.30737C19.1798 9.30737 19.1952 8.93077 18.98 8.93846C19.0646 9.10754 19.1414 9.28431 19.2183 9.46877C18.9646 9.46108 18.5112 9.12291 18.565 8.81549C18.6726 8.73863 19.0261 8.89234 19.1107 8.88466C19.0261 8.83854 18.9493 8.56954 19.0108 8.5388L19.1491 8.67714C19.249 8.49269 18.8109 8.3774 19.0569 8.15451C19.0722 8.07766 19.3874 7.92394 19.2336 7.90857C18.9416 8.03923 18.0347 8.08534 17.8118 8.01617C17.8348 7.99312 18.0808 7.63957 18.2191 7.54734C18.442 7.409 18.7802 7.69337 18.9723 7.58577C18.9032 7.58577 18.8109 7.52429 18.7802 7.49354C18.834 7.409 19.0031 7.5166 18.957 7.33983C18.6956 7.33215 18.9493 6.98629 18.7264 7.27835C18.6342 7.11695 18.7648 7.09389 18.7264 6.89406C18.565 6.9786 18.1346 6.79415 18.0347 6.6558C18.1038 6.6558 18.1807 6.602 18.2191 6.57895C18.1807 6.24846 18.2499 6.04095 18.15 5.74121C18.2038 5.69509 18.2191 5.51832 18.3498 5.54138C18.2883 5.51063 18.1961 5.50295 18.15 5.41072C18.2806 5.14172 18.2729 5.61055 18.4651 5.36461C18.319 5.40303 18.1653 5.19552 18.0193 5.11098C17.8272 5.24932 18.1115 5.41841 18.2576 5.52601C17.9501 5.63361 17.5582 5.54906 17.2892 5.35692C17.1124 5.18784 17.4275 5.16478 17.366 5.14941C17.1816 4.71901 16.6897 5.11098 16.682 4.67289C16.7665 4.43464 17.0202 4.43464 17.1201 4.31935C17.3045 4.45001 17.1892 4.65752 17.2661 4.76512L17.2584 4.56529C17.3506 4.58066 17.4736 4.67289 17.4582 4.77281C17.5582 4.55761 17.0509 4.07341 16.9587 3.68144C16.8664 3.66607 16.7358 3.61995 16.705 3.71218L16.7973 3.78904C16.7281 3.97349 16.4822 3.75061 16.5052 3.91969C16.3208 3.86589 16.0671 3.83515 16.0056 3.60458L16.167 3.42781C16.1132 3.47392 16.144 3.62764 16.2362 3.63532C16.0979 3.62764 16.2823 3.17418 15.9749 3.28178L15.9365 3.50467C15.7443 3.45087 15.4369 3.45855 15.3754 3.27409C15.2448 3.48929 15.4215 3.28947 15.2909 3.56615C15.483 3.25872 15.5752 3.95044 15.7443 3.58921C15.5829 3.88895 15.7905 3.86589 15.6829 4.17332C15.7443 4.11952 15.7597 4.03498 15.8289 4.18101C15.8519 4.17332 15.8827 4.16564 15.9057 4.16564V4.18101V4.16564C15.9211 4.16564 15.9211 4.16564 15.9057 4.15795C15.9057 4.10415 15.9211 4.05804 15.9518 4.01961C16.144 3.97349 16.29 4.18101 16.4207 4.19638C16.4437 4.29629 16.3284 4.21944 16.29 4.31166L16.4745 4.33472C16.3438 4.45001 16.3822 4.70364 16.1747 4.58835L16.2823 4.74975C16.267 4.89578 16.3208 5.04181 16.4284 5.08023C16.4437 5.17246 16.705 5.16478 16.5513 5.17246L16.7896 5.36461L16.7512 5.38766C16.8588 5.62592 17.2738 5.77963 17.074 6.16392C17.1431 6.23309 17.22 6.30226 17.2123 6.46366L17.074 6.52515C17.1508 6.62506 16.9971 6.88637 17.1585 6.90943C16.7819 7.0862 17.1431 7.48586 17.0816 7.71643H17.2738C17.2738 7.87014 17.3276 8.01617 17.4121 8.216L17.5812 8.20063C17.7272 8.36971 17.4659 8.63871 17.4659 8.90003C17.4044 8.87697 17.4198 8.81549 17.4582 8.76937C17.0586 9.06143 17.7119 9.4534 17.3891 9.70703C17.4429 9.78388 17.4121 9.83 17.366 9.87611C17.366 9.86843 17.366 9.86074 17.3583 9.86074C17.3583 9.86843 17.3506 9.87611 17.3506 9.89148C17.3199 9.91454 17.2815 9.94528 17.243 9.96834C17.2892 9.94528 17.3276 9.92223 17.343 9.90686C17.3353 9.96066 17.3506 10.0452 17.3737 10.1297H17.1816C17.1816 10.1374 17.1816 10.1374 17.1816 10.1451C17.097 10.2066 17.2584 10.222 17.3968 10.2066C17.4198 10.2527 17.4506 10.2911 17.489 10.3296C17.1892 10.3296 17.5428 10.5601 17.2123 10.5678C17.3583 10.6601 17.22 10.9675 17.512 11.1135C17.4736 11.1058 17.4429 11.1212 17.4582 11.0751C17.3891 11.1443 17.3276 11.2134 17.3891 11.3287L17.1585 11.2749C17.2354 11.3671 17.3045 11.4671 17.3737 11.5747C17.1969 11.6285 17.097 11.6208 16.9817 11.4517C17.1047 11.8129 16.9894 11.6899 17.1047 12.0281L16.9817 11.9359C16.951 12.0051 17.0432 12.2356 16.9049 12.2049C16.5898 12.1895 16.2823 12.8812 15.7213 12.8659C16.021 13.2117 15.4446 12.7967 15.5906 13.1041C15.5214 13.0196 15.4369 12.9965 15.46 12.8812C15.2986 13.0734 15.0911 12.8658 15.0373 13.1963C14.9758 13.1041 15.0296 13.0349 14.9911 12.9811C14.9835 13.0119 14.9527 13.0887 14.9066 13.0426C14.8605 12.9888 14.9066 12.9504 14.9297 12.8966C14.7221 12.9888 14.7836 13.3039 14.8528 13.6037C14.6837 13.5038 14.6299 13.5345 14.5838 13.7574C14.5146 13.6728 14.4147 13.5883 14.5607 13.5114C14.4685 13.5268 13.9843 13.4884 14.0227 13.7266C13.9843 13.6728 13.8921 13.7266 13.869 13.7651C13.6538 13.7804 13.6385 13.7651 13.4309 13.8112L13.4924 13.8419C13.4463 14.1417 13.3233 13.9265 13.1619 13.9803V13.9495C12.7623 13.7574 13.0005 14.0648 12.6086 13.8419L12.6316 14.0264C12.6009 14.4184 12.2858 13.8035 12.0706 13.9418L12.1474 14.0494C12.0168 14.1801 11.8323 13.4961 11.7247 13.4423C11.7017 13.4038 11.7708 13.3885 11.8016 13.3654C11.5172 13.1118 11.7478 13.6037 11.5172 13.6421C11.4865 13.5114 11.6017 13.3193 11.4557 13.2809C11.4019 13.1733 10.9715 13.6498 10.8024 13.3654C10.8255 13.473 10.8562 13.5729 10.7409 13.6344C10.5719 13.6344 10.3951 13.181 10.1799 13.4423C10.1645 13.4115 10.1645 13.3808 10.1722 13.3577C10.0339 13.4038 9.74949 13.3808 9.62652 13.5114C9.73412 12.8889 8.78109 13.5114 9.02703 12.9734L8.68886 12.8274L8.72729 12.7813C8.54283 12.6353 8.41218 12.7045 8.25846 12.7736C8.23541 12.7121 8.29689 12.6891 8.31995 12.666C8.10475 12.374 8.08169 12.3817 7.66666 12.4124L7.77426 12.251C7.62824 12.2741 7.63592 11.713 7.28238 11.5977C7.29775 11.59 7.33618 11.567 7.36692 11.5747C6.94421 11.3979 7.38229 10.6139 6.71364 10.783L6.46001 10.6139C6.53687 10.9521 6.16027 10.6754 6.10647 10.8522C6.01424 10.7292 6.17564 10.4372 6.26787 10.5832L6.24481 10.6216C6.59835 10.5525 6.22175 10.1759 6.46001 10.1067C6.24481 9.46877 6.32935 8.79243 6.3063 8.19294L6.02961 8.28517V8.06229C6.09109 8.0008 6.24481 7.97774 6.24481 8.13146C6.39852 8.04692 6.10647 7.88552 6.03729 7.87783C6.14489 7.57809 6.36778 7.98543 6.37547 7.8932L6.35241 7.77023L6.32167 7.80097C6.20638 7.70106 6.08341 7.69337 6.09878 7.50892C6.16027 7.39363 6.27555 7.45512 6.28324 7.409C6.30629 7.409 6.31398 7.39363 6.29861 7.33983L6.33704 7.07852L6.10647 7.17075C6.00655 7.04009 6.14489 6.91712 5.87589 7.01703C6.26018 6.86332 6.16027 6.01789 6.32167 5.93335C6.20638 5.73352 6.26018 5.56443 6.33704 5.37229C6.27555 5.40303 6.02961 5.35692 6.12184 5.19552C6.58298 5.43378 6.44464 4.95726 6.84429 4.98032C6.55992 4.99569 6.99801 4.51149 6.60604 4.53455C6.70595 4.41926 6.78281 4.61141 6.93652 4.57298C6.98264 4.13489 7.48221 3.95812 7.68972 3.61227C7.64361 3.56615 7.52064 3.55078 7.49758 3.42012C7.62824 3.42781 7.76658 3.45087 7.89724 3.47392C7.92798 3.39707 7.65898 3.15112 7.93566 3.20492C7.88186 3.18187 7.79732 3.14344 7.82038 3.08964C8.2354 2.90518 8.51209 2.59007 8.85795 2.33644C9.19612 2.08281 9.61883 1.89067 10.0953 2.05975C9.94932 1.97521 10.0108 1.9291 10.0953 1.90604C10.0339 1.89067 10.0492 1.74464 10.0108 1.6601C10.1491 1.70621 10.2875 1.75233 10.4181 1.81381C10.4258 1.5525 10.7717 1.72158 10.7717 1.48333L10.6641 1.54481C10.7717 1.2297 10.3336 0.953013 10.2721 0.599471C10.1645 0.953013 9.60346 0.2613 9.43438 0.830042C9.33446 0.783928 9.44975 0.699385 9.38826 0.630214C9.35752 0.806985 9.28066 0.86847 9.08083 0.883842L9.08852 0.837728C8.61969 1.09904 8.343 1.0683 7.76658 1.3373L7.91261 1.46027C7.78964 1.51407 7.73583 1.49101 7.65898 1.49101C7.70509 1.79844 7.96641 1.2835 8.03558 1.61398C7.66666 1.40647 7.32849 2.15967 6.96727 1.94447C6.82124 2.08281 7.15941 2.05207 7.01338 2.19041L6.88272 2.12893L6.95189 2.26727C6.84429 2.34413 6.69827 2.29801 6.62141 2.23653C6.65215 2.22115 6.66752 2.15198 6.68289 2.11355C6.46001 2.15198 6.38315 2.51321 6.31398 2.53627L6.49075 2.42867C6.20638 2.91287 5.69912 3.41244 5.66838 3.99655H5.76061C5.72987 4.41926 5.53004 4.24249 5.43013 4.68058L5.42244 4.66521C5.46855 4.78049 5.47624 4.90346 5.42244 5.01106C5.36095 4.87272 5.16881 5.14941 5.10732 4.97264C5.14575 5.44146 5.16881 5.22626 5.39938 5.57981L5.24567 5.60286C5.35327 5.72583 5.40707 5.74889 5.39938 5.9564C5.31484 5.76426 5.16112 6.04863 5.03815 5.81806C4.6385 6.21772 5.2303 6.52515 4.75378 6.67886C5.1227 6.9248 5.0151 6.31763 5.09195 6.4406C5.23798 6.36375 5.35327 6.64812 5.30715 6.77109C5.2841 6.90175 4.77684 6.96323 4.76915 7.33215C4.77684 7.29372 4.7461 7.29372 4.7461 7.25529C4.6385 7.39363 4.87675 7.52429 4.70767 7.69337C4.94592 7.7856 4.69998 7.91626 4.99973 7.93163C4.96898 7.82403 4.94593 7.71643 4.92287 7.60114C4.99973 7.79329 5.36095 7.947 5.20724 8.25443C5.14575 8.23906 5.05352 8.15451 5.00741 8.09303C4.92287 8.18526 5.07658 8.26212 4.99204 8.36203C4.68461 8.35434 4.89981 7.97006 4.66924 7.77023C4.54627 7.87783 4.89981 8.15451 4.56933 8.06229C4.99204 8.18526 4.53858 8.4312 4.88444 8.65409H4.69998C4.73073 8.69251 4.83064 8.76169 4.83064 8.83086L4.57701 8.73094C4.7999 8.90771 4.45404 9.14597 4.59238 9.33043C4.52321 8.92309 4.79221 9.19977 4.89981 9.01531C5.22261 9.46108 4.46941 9.37654 4.67693 9.92991C4.63081 9.86074 4.72304 9.62248 4.83064 9.7224C4.81527 9.83768 4.78452 9.9914 4.70767 10.0759C4.83832 10.4372 4.87675 9.97603 5.02278 10.099C4.83832 10.2758 5.15344 10.2527 5.26872 10.3834L5.09195 10.4372C5.10732 10.8829 5.49161 10.4218 5.47624 10.8291L5.1765 10.76L5.30715 10.9291L5.09195 10.9598C5.31484 11.1135 5.30715 11.1904 5.3379 11.4209C5.43781 11.321 5.65301 11.3133 5.74524 11.4747C5.70681 11.6438 5.55309 11.4901 5.70681 11.7207C5.57615 11.7207 5.41475 11.7207 5.51467 11.5362C5.45318 11.5516 5.38401 11.5285 5.32252 11.5439C5.26872 11.7361 5.46855 11.8898 5.52235 11.982C5.50698 11.9436 5.49161 11.8975 5.50698 11.859C5.64532 11.9436 5.79135 12.0204 5.93738 12.0819C5.91432 12.1741 5.83747 12.1588 5.76061 12.1434C5.8221 12.2049 5.92969 12.2049 6.01424 12.2971C5.86821 12.3586 5.74524 12.4508 5.58384 12.3432L5.96044 12.5815C5.92201 12.643 5.94507 12.8582 5.86821 12.8505C5.96044 13.0887 6.44464 13.0964 6.58298 13.3654C6.61372 13.3577 6.65984 13.3577 6.71364 13.3808C6.88272 13.596 6.98264 13.888 7.35924 13.9188L7.36692 14.2416C7.61286 14.3261 7.34387 13.8266 7.75121 13.9649C8.04326 14.0494 7.72815 14.2185 7.77426 14.3415C7.98178 14.2954 8.31226 14.1724 8.45829 14.4798C8.38143 14.4952 8.32763 14.4337 8.25078 14.4107ZM11.1175 15.1178C11.0561 15.1562 10.9331 15.2484 10.9023 15.1408C10.9946 14.941 11.0253 15.0486 11.1175 15.1178ZM15.3293 14.3184C15.3062 14.3876 15.2371 14.3799 15.1525 14.3338C15.191 14.3031 15.2524 14.2954 15.3293 14.3184ZM16.4898 4.79586H16.4975C16.4975 4.92652 16.4975 4.88041 16.4898 4.79586ZM16.4284 4.57298C16.3976 4.57298 16.3746 4.58835 16.3592 4.61141C16.4053 4.59604 16.436 4.63446 16.4591 4.68826C16.4898 4.64215 16.4975 4.60372 16.4284 4.57298ZM6.26787 7.34752L6.21407 7.38594C6.16795 7.29372 6.21407 7.32446 6.26787 7.34752Z" fill="white"/>
<path d="M14.9222 14.6957C14.8992 14.6727 14.8838 14.6343 14.8761 14.6035C14.8608 14.6419 14.8684 14.6804 14.9222 14.6957Z" fill="white"/>
<path d="M6.60679 13.3885L6.5991 13.3809C6.58373 13.3885 6.57605 13.3885 6.56836 13.3962L6.60679 13.3885Z" fill="white"/>
<path d="M19.0805 7.46289C19.0575 7.51669 19.0267 7.54743 18.9883 7.57049C19.0344 7.57049 19.0728 7.54743 19.0805 7.46289Z" fill="white"/>
<path d="M15.4375 3.78219L15.5682 3.86673C15.5144 3.81293 15.5374 3.7745 15.5374 3.7207C15.499 3.75913 15.4682 3.82062 15.4375 3.78219Z" fill="white"/>
<path d="M15.4823 2.07566C15.4516 2.07566 15.4439 2.04492 15.4132 2.04492L15.3594 2.11409C15.4285 2.16789 15.5285 2.16789 15.4823 2.07566Z" fill="white"/>
<path d="M15.8445 3.29736C15.9598 3.18976 15.8599 3.15133 15.7753 3.08984C15.783 3.09753 15.783 3.09753 15.783 3.10522C15.5909 3.21281 15.7139 3.25124 15.8445 3.29736Z" fill="white"/>
<path d="M15.7525 3.07503C15.7294 3.05197 15.7064 3.02892 15.691 3.00586C15.6141 3.04429 15.6987 3.04429 15.7525 3.07503Z" fill="white"/>
<path d="M16.1743 4.40345C16.1743 4.34196 15.9975 4.49568 16.0282 4.44188C15.8361 4.51105 16.4125 4.54948 16.1743 4.40345Z" fill="white"/>
<path d="M16.1894 2.91211L16.0664 3.05814L16.2201 3.01202L16.1894 2.91211Z" fill="white"/>
<path d="M16.5973 3.66518L16.5358 3.49609C16.5128 3.51915 16.482 3.51147 16.459 3.49609C16.5128 3.58832 16.5512 3.70361 16.5973 3.66518Z" fill="white"/>
<path d="M16.4514 3.49653C16.4206 3.45041 16.3899 3.41198 16.3438 3.4043C16.3668 3.43504 16.4052 3.48115 16.4514 3.49653Z" fill="white"/>
<path d="M16.3828 3.05859V3.12008L16.4443 3.22768L16.3828 3.05859Z" fill="white"/>
<path d="M17.5586 5.18717L17.6892 5.32551C17.7584 5.31783 17.7738 5.24865 17.72 5.20254C17.6585 5.17948 17.6047 5.13337 17.5586 5.18717Z" fill="white"/>
<path d="M17.7351 4.43555C17.7274 4.50472 17.6966 4.52778 17.6582 4.58158L17.8657 4.4586L17.7351 4.43555Z" fill="white"/>
<path d="M18.0649 4.90428C18.1341 4.88891 18.3647 5.08105 18.234 4.85817C18.1725 4.86586 18.0265 4.71983 18.0649 4.90428Z" fill="white"/>
<path d="M18.4426 7.79416L18.4349 7.74805L18.043 7.7711L18.4426 7.79416Z" fill="white"/>
<path d="M19.226 10.4457C19.3644 10.2151 18.9955 10.3457 19.1492 10.1459C19.0646 10.0767 19.0262 10.3073 18.957 10.2381C19.0262 10.3995 18.957 10.4687 19.226 10.4457Z" fill="white"/>
<path d="M18.9563 10.2447C18.9409 10.2216 18.9332 10.1909 18.9102 10.1602C18.9255 10.2063 18.9409 10.2293 18.9563 10.2447Z" fill="white"/>
<path d="M10.6797 1.94442L10.8103 2.0136L10.7104 1.89062L10.6797 1.94442Z" fill="white"/>
<path d="M10.8633 1.62891L10.9248 1.87485L10.9709 1.63659C10.9401 1.65196 10.8863 1.67502 10.8633 1.62891Z" fill="white"/>
<path d="M11.502 15.6635L11.5174 15.602C11.4943 15.5328 11.4636 15.5251 11.3867 15.5098L11.502 15.6635Z" fill="white"/>
<path d="M9.37305 15.0726L9.41148 15.088V14.8574L9.37305 15.0726Z" fill="white"/>
<path d="M7.49805 14.549C7.55953 14.6028 7.67482 14.6028 7.7363 14.6489C7.55953 14.6105 7.6287 14.2954 7.49805 14.549Z" fill="white"/>
<path d="M2.55575 29.1909C2.4789 29.1756 2.50964 29.337 2.50195 29.3677C2.62492 29.3293 2.55575 29.1448 2.55575 29.1909Z" fill="white"/>
<path d="M3.76915 28.7993L3.74609 28.8684L3.92286 28.707L3.76915 28.7993Z" fill="white"/>
<path d="M4.89994 28.7914C4.79234 28.5224 4.49259 28.8452 4.28508 28.7453L4.25434 28.6838L4.16211 28.9067C4.40805 28.8683 4.73085 28.7146 4.89994 28.7914Z" fill="white"/>
<path d="M5.51529 29.368C5.47686 29.2604 5.64595 29.2757 5.37695 29.3372C5.39232 29.3449 5.39232 29.3526 5.40001 29.3603C5.42307 29.368 5.45381 29.368 5.51529 29.368Z" fill="white"/>
<path d="M5.40045 29.3672C5.27748 29.3749 5.47731 29.4517 5.40045 29.3672V29.3672Z" fill="white"/>
<path d="M5.95254 29.2988L5.79883 29.3987C5.82957 29.4602 5.9756 29.4756 5.9218 29.5217C6.07551 29.4602 6.04477 29.3987 5.95254 29.2988Z" fill="white"/>
<path d="M6.09822 29.0898L6.01367 29.1283C6.02904 29.159 6.0521 29.1667 6.09822 29.0898Z" fill="white"/>
<path d="M5.8457 29.2205L6.01479 29.136C5.99173 29.0898 5.99173 29.0053 5.93793 29.1667C5.95331 29.0822 5.91487 29.1667 5.8457 29.2205Z" fill="white"/>
<path d="M5.74528 29.1824C5.65305 29.1209 5.54545 29.0901 5.69917 28.9902C5.39943 29.0363 5.44554 29.2285 5.74528 29.1824Z" fill="white"/>
<path d="M4.95348 28.4987L4.8382 28.4219L4.73828 28.5141C4.7844 28.468 4.96885 28.591 4.95348 28.4987Z" fill="white"/>
<path d="M6.9286 29.42C6.93628 29.3585 6.8748 29.2663 6.85942 29.1895L6.74414 29.2586C6.80563 29.2971 6.92091 29.3355 6.9286 29.42Z" fill="white"/>
<path d="M6.86683 29.1906L7.03591 29.0907C6.8822 29.083 6.85146 29.1291 6.86683 29.1906Z" fill="white"/>
<path d="M6.12226 28.7909L5.83789 29.0061L6.17606 28.7832L6.12226 28.7909Z" fill="white"/>
<path d="M7.59796 29.4207L7.49805 29.5591L7.67482 29.3516L7.59796 29.4207Z" fill="white"/>
<path d="M8.03655 29.3906C7.96738 29.5059 8.13647 29.5751 8.05961 29.6519C8.18258 29.6289 8.28249 29.529 8.37472 29.4444C8.27481 29.4905 8.1749 29.4752 8.03655 29.3906Z" fill="white"/>
<path d="M8.52676 29.3125C8.48065 29.3432 8.42685 29.3894 8.37305 29.4432C8.42685 29.4124 8.47296 29.374 8.52676 29.3125Z" fill="white"/>
<path d="M7.33594 29.1133C7.35131 29.1517 7.37437 29.2439 7.47428 29.2747L7.40511 29.1133C7.38205 29.1133 7.35899 29.1133 7.33594 29.1133Z" fill="white"/>
<path d="M7.39844 29.1133C7.47529 29.121 7.5291 29.121 7.55215 29.1287C7.5291 29.121 7.48298 29.1133 7.39844 29.1133Z" fill="white"/>
<path d="M7.3125 29.1142H7.32787C7.32787 29.0988 7.32019 29.0911 7.3125 29.1142Z" fill="white"/>
<path d="M6.57617 28.9281C6.67609 28.8359 6.89129 28.736 6.68377 28.5977C6.6146 28.7129 6.72989 28.7898 6.57617 28.9281Z" fill="white"/>
<path d="M7.22913 28.9136L7.04467 28.8828C7.05235 28.9289 7.0831 28.9904 7.0293 29.0365L7.22913 28.9136Z" fill="white"/>
<path d="M7.32074 28.8594L7.22852 28.9132L7.29769 28.9209L7.32074 28.8594Z" fill="white"/>
<path d="M8.20529 29.1598C8.28215 29.0907 8.37438 29.083 8.4666 29.0676C8.359 29.0369 8.25141 29.0215 8.14381 29.0215C8.13612 29.0753 8.09769 29.1675 8.20529 29.1598Z" fill="white"/>
<path d="M7.8125 29.1219L7.82787 29.1142C7.82019 29.0989 7.8125 29.0989 7.8125 29.1219Z" fill="white"/>
<path d="M9.44311 29.0522L9.42773 29.0215V29.0522H9.44311Z" fill="white"/>
<path d="M8.13588 28.9914C8.05903 28.9607 8.01291 28.9991 7.9668 29.0529C8.02828 29.0375 8.08977 29.0221 8.15894 29.0221C8.15894 28.9991 8.15894 28.9837 8.13588 28.9914Z" fill="white"/>
<path d="M8.79655 29.2291C8.75812 29.1983 8.70432 29.1676 8.6582 29.1445C8.69663 29.1906 8.78117 29.2752 8.79655 29.2291Z" fill="white"/>
<path d="M7.85912 29.1602L7.84375 29.1678C7.87449 29.1986 7.87449 29.1832 7.85912 29.1602Z" fill="white"/>
<path d="M7.859 29.1605C7.89743 29.1374 7.92817 29.099 7.9666 29.0605C7.92048 29.0759 7.87437 29.0913 7.83594 29.1143C7.84362 29.122 7.85131 29.1451 7.859 29.1605Z" fill="white"/>
<path d="M9.71874 28C9.70337 28.1537 9.50354 28.2997 9.31908 28.1383C9.14231 28.2536 9.26528 28.7532 9.42668 29.0299C9.43437 28.9607 9.42668 28.8992 9.61114 28.807C9.54966 28.7225 9.2038 28.6225 9.35751 28.4765C9.59577 28.392 9.55734 28.5303 9.67263 28.6072C9.57271 28.4227 9.97237 28.3228 9.91857 28.0461L9.71106 28.146C9.70337 28.1076 9.78023 28.0384 9.71874 28Z" fill="white"/>
<path d="M9.08077 29.0137L9.00391 29.0367C9.08845 29.0598 9.14993 29.1213 9.26522 29.2366C9.38819 29.1597 9.41125 29.1059 9.41893 29.0521L9.05002 29.0367L9.08077 29.0137Z" fill="white"/>
<path d="M8.66663 29.0439C8.72043 28.8748 8.90488 28.8057 8.7896 28.6289C8.56671 28.6443 8.63588 28.7672 8.50523 28.8441C8.85877 28.798 8.40531 28.9363 8.65894 29.0286C8.58977 29.0593 8.52828 29.067 8.4668 29.0747C8.52828 29.09 8.58977 29.1208 8.65125 29.1438L8.64357 29.1362C8.6282 29.1131 8.62051 29.1054 8.64357 29.1131H8.65125C8.65125 29.0824 8.65894 29.0593 8.66663 29.0439C8.76654 29.0747 8.682 29.09 8.65125 29.1054L8.64357 29.1285L8.99711 29.0286C8.92794 29.0132 8.83571 29.0209 8.66663 29.0439Z" fill="white"/>
<path d="M6.86719 28.2383C6.87487 28.2537 6.87487 28.2613 6.88256 28.2767C6.90562 28.2537 6.9133 28.246 6.86719 28.2383Z" fill="white"/>
<path d="M7.01328 28.337C6.99023 28.3601 6.96717 28.4292 6.88263 28.4139C6.80577 28.3677 6.88263 28.337 6.87494 28.2832C6.82114 28.3293 6.69817 28.4062 6.85957 28.483L6.88263 28.46C7.02866 28.5138 7.21311 28.7213 7.19005 28.7443C7.15163 28.5829 7.1132 28.483 7.01328 28.337Z" fill="white"/>
<path d="M7.85156 28.6448L8.14362 28.5602L7.98991 28.4219L7.99759 28.5064C7.83619 28.4757 7.87462 28.5833 7.85156 28.6448Z" fill="white"/>
<path d="M9.47984 29.1374L9.44141 29.3142L9.61049 29.0605L9.47984 29.1374Z" fill="white"/>
<path d="M9.86498 29.1055L9.84961 29.2592L9.94952 29.167L9.86498 29.1055Z" fill="white"/>
<path d="M16.5278 20.7048L16.4355 20.6895C16.4817 20.7048 16.5047 20.7048 16.5278 20.7048Z" fill="white"/>
<path d="M16.9747 21.0656L17.0362 21.0195C16.9901 21.0349 16.9593 21.0503 16.9747 21.0656Z" fill="white"/>
<path d="M19.334 28.9375C19.4646 29.0758 19.6107 29.2987 19.5953 29.122L19.5492 28.9529C19.4646 28.9913 19.3955 28.9759 19.334 28.9375Z" fill="white"/>
<path d="M20.6636 24.4551L20.6328 24.5089C20.6943 24.5089 20.7558 24.5166 20.8096 24.5166C20.7712 24.4935 20.7174 24.4704 20.6636 24.4551Z" fill="white"/>
<path d="M20.0098 24.6863L20.0328 24.4941C20.0175 24.5479 20.0098 24.6094 20.0098 24.6863Z" fill="white"/>
<path d="M13.7146 19.4688L13.584 19.6071C13.7146 19.6378 13.6762 19.5456 13.7146 19.4688Z" fill="white"/>
<path d="M13.8145 28.9821C13.9221 29.0436 14.0143 29.0744 14.0911 29.0821C13.9528 28.9821 13.8452 28.8438 13.8145 28.9821Z" fill="white"/>
<path d="M17.8046 19.4533C17.7431 19.4379 17.7047 19.4533 17.6816 19.484C17.7431 19.4917 17.7892 19.4917 17.8046 19.4533Z" fill="white"/>
<path d="M14.4068 29.0755C14.3837 29.0602 14.3684 29.0525 14.3453 29.0371C14.2684 29.0679 14.1839 29.0909 14.084 29.0832C14.1839 29.1524 14.2992 29.1908 14.4068 29.0755Z" fill="white"/>
<path d="M4.33934 23.7266C4.33165 23.7266 4.32397 23.7342 4.30859 23.7419C4.32397 23.7573 4.33165 23.7419 4.33934 23.7266Z" fill="white"/>
<path d="M1.44141 26.4311C1.44141 26.3926 1.45678 26.3311 1.47215 26.2773C1.44909 26.3004 1.44141 26.3465 1.44141 26.4311Z" fill="white"/>
<path d="M11.4182 29.1602C11.3336 29.1678 11.4028 29.1755 11.4182 29.1602V29.1602Z" fill="white"/>
<path d="M11.0098 28.5064C11.0251 28.491 11.0405 28.4603 11.0405 28.4219C11.0328 28.4603 11.0251 28.491 11.0098 28.5064Z" fill="white"/>
<path d="M15.199 28.0222C15.1837 27.9915 15.1837 27.9992 15.199 28.0222V28.0222Z" fill="white"/>
<path d="M11.2949 29.082C11.3257 29.1051 11.3641 29.1205 11.4025 29.1281C11.3795 29.1205 11.3487 29.1051 11.2949 29.082Z" fill="white"/>
<path d="M11.309 29.1599C11.2783 29.1522 11.2552 29.1522 11.2398 29.1445C11.2245 29.1753 11.2398 29.1906 11.309 29.1599Z" fill="white"/>
<path d="M11.533 29.1443C11.4869 29.1443 11.4408 29.1443 11.4023 29.1289C11.4177 29.1366 11.4254 29.152 11.4177 29.152C11.4408 29.152 11.4715 29.152 11.533 29.1443Z" fill="white"/>
<path d="M8.55793 19.2596C8.55024 19.2596 8.54255 19.252 8.53487 19.252C8.48875 19.3442 8.5195 19.3211 8.55793 19.2596Z" fill="white"/>
<path d="M20.6855 27.1836V27.1913L20.7009 27.199L20.6855 27.1836Z" fill="white"/>
<path d="M20.6777 27.0605C20.8699 27.2681 20.7853 27.2373 20.7008 27.1989C20.8699 27.3526 21.0543 27.514 21.2465 27.6677C21.0851 27.4679 20.8929 27.2681 20.6777 27.0605Z" fill="white"/>
<path d="M15.3527 20.0059L15.4449 20.2211C15.1298 20.3287 15.0376 20.1904 15.0837 20.4517C15.3604 19.9982 15.7139 20.7438 16.006 20.3287L16.0521 20.4901C16.029 20.4671 16.006 20.4901 15.9752 20.4671C16.029 20.8052 16.3365 20.2442 16.5517 20.4978C16.6208 20.5977 16.6362 20.6976 16.5363 20.7053C16.6285 20.713 16.7208 20.7361 16.8053 20.7514C16.8514 20.8052 16.7822 20.8667 16.7361 20.8129C16.8437 20.8821 16.9513 20.9436 17.0512 21.0128L17.0359 21.0204C17.1281 20.9897 17.3049 20.9743 17.3817 20.9743C17.4048 21.0973 17.3049 20.982 17.2818 21.0512L17.5201 21.0973C17.4893 21.251 17.2741 21.2356 17.1819 21.128C16.9821 21.643 17.4048 21.1434 17.4893 21.6507L17.3049 21.5661C17.1896 21.8659 17.3664 21.8889 17.3817 22.1656C17.4202 22.0657 17.4125 21.5354 17.6584 21.5969C17.6738 21.6737 17.7199 21.7429 17.8813 21.7583C17.7506 21.8889 17.8659 21.935 17.9658 22.0426L17.7737 22.1964C17.9274 22.2655 18.0196 22.1733 18.1657 22.1733C18.2656 22.327 18.1426 22.4807 18.0427 22.6114C18.1887 22.8496 18.158 22.2655 18.4039 22.4961C18.4808 22.742 18.6576 22.8112 18.9496 22.9572C18.9804 23.1417 18.8113 23.0187 18.7882 23.111L19.0342 23.1186C19.0495 23.1494 18.9957 23.1724 18.965 23.1878C19.1033 23.2493 19.1725 23.0572 19.3416 23.1878C19.6029 23.0879 19.234 23.7489 19.6183 23.795C19.5875 23.8795 19.4722 23.8488 19.4031 23.9103C19.7489 24.0947 19.6721 24.087 20.0487 24.2023L20.0179 24.4944C20.0948 24.2484 20.3945 24.3484 20.6482 24.4483C20.702 24.3484 20.7404 24.2638 20.7558 24.2177L21.0248 24.456C21.0094 24.5098 20.9172 24.5174 20.8019 24.5174C20.8326 24.5251 20.8557 24.5405 20.8787 24.5482C20.848 24.6942 20.6943 24.7019 20.5329 24.6865C20.5636 24.6327 20.5867 24.5712 20.6174 24.5174C20.4483 24.5098 20.2639 24.5251 20.1486 24.602C20.1793 24.6097 20.2254 24.6327 20.2562 24.6635C20.2101 24.6635 20.1716 24.6712 20.1563 24.6865C20.1409 24.7096 20.2024 24.7096 20.2792 24.7326L20.064 24.9171L20.187 24.8787L20.2101 25.3244C20.579 25.4705 21.0632 25.555 21.3475 25.97C21.117 25.9316 21.0324 26.07 20.8096 26.1468C21.0017 25.9316 20.5713 25.8471 20.5252 25.6011C20.5482 25.7318 20.433 25.7472 20.3868 25.7318L20.7634 26.0469C20.5713 26.093 20.6789 26.2237 20.6097 26.2852C20.9556 26.1084 20.9248 26.3928 21.0939 26.5004C20.9556 26.5004 20.8096 26.4773 20.8019 26.3697C20.6789 26.4465 20.8019 26.4619 20.9479 26.5157C21.0939 26.5618 21.2476 26.6387 21.14 26.7002C21.1247 26.6617 21.14 26.6464 21.0632 26.6233C21.2169 26.7232 21.1862 26.9077 21.0324 26.8155L21.0171 26.7847C21.0247 26.8769 21.0709 27.0153 21.1631 27.1844C21.2092 27.2689 21.2938 27.3765 21.3475 27.4611C21.3629 27.5072 21.4014 27.5763 21.4936 27.6532C21.4398 27.6148 21.0248 27.2689 20.9479 27.1997C21.3245 27.561 21.5397 27.9222 21.5858 28.2834C21.5013 28.1451 21.2476 27.9145 21.0478 27.6993C20.848 27.4841 20.6943 27.2766 20.6866 27.1997C20.602 27.1613 20.5252 27.1152 20.5175 27.2151C20.5636 27.2535 20.9172 27.6148 20.8787 27.6378C20.5021 27.3304 20.6328 27.4764 20.3407 27.2151C20.4176 27.2766 20.5867 27.7147 20.4483 27.6993C20.4406 27.6301 20.2792 27.2689 20.2869 27.2228C20.2869 27.3688 20.2562 27.5149 20.187 27.6532C20.2408 27.5763 20.1178 27.2843 20.0717 27.169C20.0871 27.2074 20.0487 27.2074 20.0026 27.1997C19.9257 27.1921 19.8104 27.1844 19.7643 27.2074L19.9103 27.3073C19.5184 27.2459 19.5337 27.9222 19.1494 27.9068C19.1956 27.8146 19.257 27.3535 19.0572 27.3073C18.9727 27.5302 18.6806 28.3757 18.3348 28.5524L18.2656 28.4295L18.0043 28.5755C18.1657 28.2373 18.6114 27.5302 18.8574 27.2535C18.7114 27.1536 18.8113 27.1075 18.5961 27.1229C18.5192 27.0076 18.7114 26.9384 18.7728 26.9307L18.2579 26.8616C18.2886 27.1229 17.8736 27.1306 17.8967 27.3381L18.45 27.0614C18.4808 27.315 18.1426 27.7992 17.7814 27.7608C17.6892 27.6609 17.8429 27.2997 17.8352 27.2151C17.7891 27.3074 17.497 27.3919 17.4586 27.3304L17.6046 27.1844C17.3971 27.0921 17.2818 27.5302 17.0359 27.292C16.9513 27.2766 16.7822 26.9615 16.7669 27.1152C16.9129 27.4073 16.9513 28.3219 16.8668 28.5447C16.836 28.5217 16.421 28.2681 16.3211 28.1297C16.1751 27.8991 16.5209 27.5763 16.398 27.3765C16.398 27.4457 16.3211 27.5379 16.2904 27.561C16.1981 27.4995 16.3211 27.3381 16.129 27.3765C16.0982 27.6378 15.737 27.3611 16.0444 27.5994C15.86 27.6763 15.8446 27.5456 15.6217 27.561C15.6986 27.7301 15.4372 28.1374 15.2528 28.2143C15.2605 28.1451 15.222 28.0605 15.199 28.0221C14.8147 28.0067 14.6072 27.8915 14.2537 27.8915C14.2229 27.83 14.0461 27.7531 14.1153 27.6378C14.0615 27.6839 14.0154 27.7762 13.9078 27.7839C13.6926 27.561 14.1537 27.7454 13.9846 27.4764C13.977 27.6301 13.7003 27.6916 13.5466 27.7915C13.6004 28.0221 13.9078 27.83 14.0692 27.7301C14.0769 28.0529 13.8079 28.3987 13.439 28.5524C13.1469 28.637 13.3083 28.3449 13.2545 28.391C12.6935 28.3449 12.7857 28.9675 12.3245 28.7369C12.1401 28.5371 12.3092 28.3295 12.2631 28.1758C12.5013 28.0913 12.6397 28.2988 12.8011 28.2911L12.6012 28.1989C12.6781 28.1297 12.8395 28.0759 12.924 28.1297C12.7626 27.9529 11.9787 28.122 11.5483 27.9529C11.4714 28.0221 11.3408 28.099 11.4023 28.1758L11.5406 28.1451C11.6713 28.3065 11.287 28.3833 11.4637 28.4525C11.2793 28.5755 11.0795 28.7599 10.8258 28.6677L10.7643 28.4448C10.772 28.514 10.9334 28.5832 11.0026 28.5063C10.895 28.6139 10.6029 28.1912 10.4877 28.5063L10.6721 28.6677C10.4877 28.7907 10.2648 29.0443 10.0419 28.9751C10.1495 29.2057 10.0957 28.9444 10.2571 29.2211C10.1111 28.8829 10.8412 29.2288 10.6106 28.8752C10.7797 29.1903 10.9027 29.0059 11.1256 29.2672C11.1179 29.1903 11.0487 29.1212 11.2409 29.1519C11.2485 29.1289 11.2716 29.0981 11.2793 29.0827L11.2947 29.0904L11.287 29.0827C11.2947 29.0674 11.2947 29.0674 11.2793 29.0827C11.2332 29.052 11.1947 29.0059 11.1794 28.9675C11.2716 28.7907 11.579 28.7907 11.6789 28.6908C11.7942 28.7292 11.6328 28.783 11.6943 28.8599L11.848 28.7215C11.8634 28.8906 12.1555 29.0059 11.8865 29.1058H12.1247C12.2707 29.198 12.4629 29.2365 12.5859 29.1596C12.7011 29.198 12.8702 28.9675 12.7703 29.0981L13.1469 28.9828L13.1546 29.0289C13.5312 29.0443 13.9155 28.7292 14.3459 29.0366C14.4688 28.9905 14.5995 28.9367 14.807 28.9828L14.8531 29.1289C15.0145 29.0751 15.3373 29.2672 15.4065 29.1135C15.591 29.5131 16.1904 29.1903 16.4748 29.2518L16.4825 29.0597C16.6746 29.0674 16.8668 29.0059 17.105 28.929L17.0897 28.7599C17.2972 28.6139 17.6277 28.8752 17.9582 28.8522C17.9351 28.9213 17.8506 28.906 17.7968 28.8599C18.1964 29.2441 18.6191 28.5601 18.988 28.8445C19.0726 28.783 19.1418 28.7984 19.2032 28.8445C19.1956 28.8445 19.1879 28.8445 19.1802 28.8522C19.1879 28.8522 19.2032 28.8522 19.2186 28.8522C19.257 28.8829 19.3032 28.9137 19.3416 28.9444C19.3032 28.906 19.2647 28.8675 19.234 28.8522C19.3032 28.8445 19.4031 28.8214 19.5107 28.783L19.5568 28.9675C19.5645 28.9675 19.5722 28.9675 19.5798 28.9598C19.6798 29.0289 19.6567 28.8675 19.6029 28.7292C19.6567 28.6985 19.7028 28.66 19.7336 28.6139C19.8412 28.9137 19.9564 28.5063 20.164 28.8214C20.2562 28.6677 20.9402 28.6908 20.8557 28.368C20.8787 28.4064 20.9248 28.4295 20.8557 28.4371C21.0171 28.4756 21.2015 28.5063 21.2784 28.4141L21.5013 28.6447C21.5474 28.5371 21.5781 28.4295 21.5858 28.3219C21.8932 28.4525 22.0777 28.5294 22.0239 28.7138C22.2775 28.4218 22.3621 28.5909 22.4389 28.3219L22.608 28.4679C22.8616 28.5294 22.4159 28.0529 22.5773 28.099C22.7156 28.0605 22.608 27.6455 22.4697 27.1767C22.3313 26.7002 22.1622 26.1852 22.1161 25.6934C21.7472 25.9777 22.1853 25.3168 21.8548 25.432C21.9394 25.3552 21.9547 25.2476 22.0854 25.3091C21.8625 25.0401 22.0393 24.7711 21.678 24.6788C21.7549 24.602 21.8471 24.6788 21.8932 24.625C21.8625 24.6097 21.7626 24.5636 21.8087 24.5098C21.8548 24.4483 21.9086 24.5174 21.9778 24.5482C21.8164 24.2331 21.5013 24.3484 21.2169 24.4636C21.2707 24.2484 21.2169 24.1716 20.9786 24.1562C21.0401 24.0563 21.0862 23.918 21.2169 24.0947C21.1785 23.9794 21.0017 23.38 20.7788 23.4876C20.8172 23.4261 20.7096 23.3338 20.6712 23.3185C20.5406 23.0802 20.5559 23.0495 20.3945 22.842L20.4022 22.9265C20.0948 22.9957 20.2254 22.7805 20.0794 22.6268L20.1102 22.6114C20.0102 22.0888 19.9103 22.4961 19.8258 21.9658L19.6951 22.0964C19.357 22.304 19.626 21.6199 19.3262 21.497L19.3108 21.643C19.1187 21.6122 19.4492 20.9666 19.3723 20.8129C19.3723 20.7668 19.4492 20.8129 19.503 20.836C19.3954 20.3672 19.2878 20.9513 19.0418 20.7668C19.0956 20.6362 19.3339 20.5977 19.2032 20.4286C19.2032 20.2672 18.4808 20.298 18.4347 19.9291C18.4116 20.0444 18.3962 20.1596 18.2348 20.1212C18.0581 20.0059 18.0273 19.4449 17.6738 19.5755C17.6661 19.5371 17.6738 19.5064 17.6892 19.491C17.5047 19.4526 17.1742 19.2758 16.9974 19.368C17.2203 18.7378 15.9752 19.0836 16.275 18.5918C16.1136 18.5226 15.9599 18.4457 15.8062 18.3842L15.8446 18.3381C15.5602 18.1614 15.3988 18.2382 15.2374 18.3228C15.1836 18.2536 15.2528 18.2305 15.2758 18.1998C14.8762 17.9077 14.807 17.9154 14.3459 18.0615L14.3612 17.8693C14.2306 17.9462 13.7618 17.3774 13.2391 17.5158C13.2468 17.4927 13.2622 17.462 13.3083 17.4389C12.7703 17.5542 12.0325 16.7626 11.8096 17.462L11.4637 17.6387C11.9095 17.6849 11.4099 17.9385 11.5867 18.0538C11.4253 18.0922 11.1409 17.8693 11.3485 17.8155L11.3869 17.8463C11.4484 17.4773 10.8258 17.754 10.8181 17.5158C9.93429 17.6311 9.03506 17.6695 8.23574 17.9846L8.42789 18.2075L8.15889 18.2997C8.06666 18.269 7.97443 18.1383 8.17426 18.0691C8.00517 17.9615 7.90526 18.3305 7.92832 18.3919C7.51329 18.4611 7.936 18.023 7.82072 18.0768L7.67469 18.1691L7.69006 18.1767C7.6132 18.3381 7.65163 18.4457 7.42875 18.5533C7.26735 18.5764 7.27503 18.4381 7.21355 18.4611C7.20586 18.4457 7.1828 18.4457 7.12132 18.4995C7.00603 18.5457 6.89843 18.6071 6.79083 18.6686L7.02909 18.7839C6.94455 18.9607 6.72935 18.953 7.00603 19.076C6.58332 18.8531 5.81475 19.7139 5.63798 19.7292C5.56112 19.9906 5.40741 20.1443 5.18452 20.3057C5.26907 20.2903 5.46121 20.444 5.27675 20.5824C4.97701 20.152 4.81561 20.7207 4.41595 20.6131C4.70801 20.6515 4.00861 21.1588 4.45438 21.1895C4.29298 21.3125 4.30067 21.0742 4.10852 21.1127C3.96249 21.5969 3.35532 21.8582 3.09401 22.3962C3.14781 22.4423 3.28615 22.4116 3.30153 22.573L2.85575 22.6575C2.82501 22.7728 3.13244 22.9419 2.8327 23.011C2.89418 23.011 2.9941 23.0187 2.97104 23.0956C2.54833 23.5106 2.35618 24.064 2.16404 24.6097C1.9719 25.1554 1.78744 25.6934 1.33398 26.1622C1.50307 26.0469 1.4877 26.1545 1.45696 26.2698C1.51076 26.2006 1.61836 26.3159 1.71059 26.3236C1.58761 26.4542 1.46464 26.5849 1.34167 26.7232C1.56456 26.8693 1.24176 27.2305 1.47233 27.3304L1.45696 27.1767C1.69521 27.4303 2.14098 27.046 2.49453 27.1613C2.22553 26.8693 3.09401 26.754 2.74047 26.3005C2.8327 26.2467 2.8327 26.3927 2.92492 26.3851C2.80195 26.2544 2.80195 26.1468 2.92492 25.9854L2.95567 26.0162C3.09401 25.4935 3.32458 25.3244 3.65507 24.8172L3.47061 24.7864C3.54747 24.6788 3.60895 24.6788 3.67812 24.6404C3.48598 24.3868 3.50904 24.9632 3.29384 24.7173C3.69349 24.7096 3.69349 23.8795 4.13158 23.9794C4.23149 23.8104 3.91638 23.9333 4.0163 23.7566L4.13927 23.7642L4.03935 23.649C4.12389 23.549 4.28529 23.5644 4.36984 23.6105C4.34678 23.6336 4.34678 23.7028 4.33909 23.7335C4.53892 23.6643 4.53892 23.3108 4.60809 23.2877L4.44669 23.4107C4.63884 22.8958 5.13841 22.4577 5.29981 21.9274L5.20758 21.9043C5.34592 21.497 5.49195 21.7275 5.73789 21.3586V21.3817C5.73789 21.2587 5.79169 21.1434 5.88392 21.0666C5.87624 21.2126 6.16829 21.0666 6.13755 21.251C6.33738 20.8437 6.19904 21.0128 6.21441 20.5824L6.36043 20.6515C6.35275 20.4901 6.31432 20.4286 6.46803 20.2596C6.39886 20.4671 6.71398 20.3441 6.65249 20.5977C7.19049 20.5747 7.0214 19.9444 7.4518 20.2058C7.41337 19.7523 7.00603 20.2442 7.05215 20.1058C6.89843 20.0597 7.03678 19.76 7.1828 19.7139C7.32115 19.6447 7.65932 20.0059 7.97443 19.8292C7.94369 19.8445 7.95137 19.8753 7.92063 19.8906C8.08972 19.9214 8.08972 19.637 8.3126 19.7139C8.28955 19.4602 8.51243 19.637 8.41252 19.345L8.13583 19.5525C8.27417 19.4064 8.28954 18.9914 8.65846 19.0298C8.65846 19.099 8.60466 19.2066 8.55855 19.2758C8.68152 19.3219 8.70457 19.1528 8.82754 19.1989C8.91977 19.491 8.474 19.4141 8.38946 19.7139C8.5278 19.7907 8.64309 19.3526 8.68152 19.6985C8.65077 19.2604 9.01969 19.6063 9.13497 19.2297L9.18109 19.4064C9.20414 19.368 9.25026 19.2604 9.31943 19.2374L9.281 19.4987C9.39629 19.2374 9.68066 19.5525 9.82668 19.3988C9.46546 19.514 9.68066 19.2143 9.48851 19.1298C9.89586 18.7532 9.88817 19.5064 10.3647 19.3065C10.3032 19.3373 10.0803 19.2604 10.1725 19.1528C10.2801 19.1605 10.4262 19.2143 10.503 19.2988C10.8335 19.1989 10.4185 19.1221 10.5415 18.9837C10.6952 19.1759 10.6952 18.8684 10.8489 18.7762L10.8719 18.9607C11.287 19.0298 10.9411 18.561 11.3254 18.6763L11.1871 18.9453L11.3715 18.8684L11.3408 19.0836C11.5329 18.9146 11.6021 18.9607 11.8019 19.0145C11.7558 18.8838 11.8327 18.6686 12.0171 18.6763C12.1401 18.7916 11.9403 18.8454 12.1939 18.8377C12.1247 18.953 12.0632 19.0913 11.9556 18.9146C11.9403 18.976 11.8941 19.0298 11.8865 19.0913C12.0094 19.222 12.2016 19.1374 12.2938 19.1374C12.2631 19.1298 12.2169 19.1144 12.2016 19.0913C12.3245 19.0068 12.4552 18.9453 12.5859 18.8684C12.632 18.9453 12.5782 18.9914 12.5321 19.0452C12.6089 19.0375 12.6704 18.953 12.778 18.953C12.7242 19.099 12.7088 19.2527 12.5551 19.3065C12.6704 19.2604 12.7934 19.222 12.9163 19.1912C12.9317 19.2604 13.0547 19.3988 13.0009 19.4449C13.1546 19.5678 13.5158 19.2527 13.731 19.4449C13.7541 19.4218 13.7848 19.3988 13.8463 19.3988C14.0692 19.5064 14.1998 19.7446 14.538 19.6601L14.5764 19.9675C14.807 19.9982 14.515 19.5678 14.8992 19.6293C15.1759 19.6678 14.8916 19.883 14.9454 19.9906C15.1221 19.9214 15.4603 19.7907 15.5679 20.0982C15.4603 20.0828 15.4296 20.0213 15.3527 20.0059ZM17.6661 21.5969C17.6046 21.5815 17.4355 21.5969 17.4816 21.4893C17.6815 21.374 17.6507 21.4816 17.6661 21.5969ZM20.5406 25.0093C20.4637 24.994 20.4637 24.9248 20.4944 24.8249C20.5329 24.871 20.5559 24.9325 20.5406 25.0093ZM12.3092 28.9905C12.3092 28.9905 12.3092 28.9828 12.3169 28.9828C12.4552 29.052 12.4014 29.0213 12.3092 28.9905ZM12.0325 28.9137C12.0017 28.9367 12.0094 28.9675 12.0171 28.9905C12.0325 28.9444 12.094 28.9367 12.1708 28.9521C12.1478 28.906 12.117 28.8752 12.0325 28.9137ZM7.21355 18.5303L7.2904 18.5457C7.19817 18.6609 7.21355 18.5994 7.21355 18.5303Z" fill="white"/>
<path d="M20.0859 24.6628C20.109 24.6321 20.1321 24.6167 20.1628 24.5936C20.1244 24.5859 20.0936 24.6013 20.0859 24.6628Z" fill="white"/>
<path d="M13.7379 19.4375C13.7225 19.4452 13.7148 19.4529 13.7148 19.4606L13.7379 19.4375Z" fill="white"/>
<path d="M16.291 27.2773C16.3448 27.3004 16.3832 27.3388 16.4063 27.3696C16.4063 27.3235 16.3756 27.285 16.291 27.2773Z" fill="white"/>
<path d="M10.5723 29.252L10.749 29.1982C10.6645 29.2059 10.6338 29.1675 10.5876 29.1367C10.5953 29.1905 10.6261 29.252 10.5723 29.252Z" fill="white"/>
<path d="M9.02022 28.1289C8.99716 28.152 8.96642 28.1289 8.94336 28.152L8.95104 28.2365C9.05864 28.2365 9.1355 28.1673 9.02022 28.1289Z" fill="white"/>
<path d="M10.3943 28.6371C10.3789 28.4834 10.2713 28.5372 10.1406 28.5679C10.1483 28.5679 10.156 28.5679 10.1637 28.5679C10.1329 28.7908 10.2636 28.7139 10.3943 28.6371Z" fill="white"/>
<path d="M10.1177 28.5762C10.0792 28.5839 10.0408 28.5915 10.0024 28.5839C9.98701 28.6684 10.0485 28.5992 10.1177 28.5762Z" fill="white"/>
<path d="M11.6864 29.0209C11.6249 28.9825 11.6557 29.2208 11.6172 29.1593C11.5558 29.3591 12.0015 28.9133 11.6864 29.0209Z" fill="white"/>
<path d="M10.2871 28.1289L10.3332 28.321L10.4024 28.1596L10.2871 28.1289Z" fill="white"/>
<path d="M11.2712 28.253L11.0714 28.1992C11.0714 28.23 11.0483 28.253 11.0176 28.2684C11.1405 28.2761 11.2789 28.3145 11.2712 28.253Z" fill="white"/>
<path d="M11.0169 28.2676C10.9554 28.2676 10.8939 28.2676 10.8555 28.2983C10.8939 28.2983 10.9708 28.2906 11.0169 28.2676Z" fill="white"/>
<path d="M10.5566 28.0684L10.6181 28.1068L10.7565 28.1145L10.5566 28.0684Z" fill="white"/>
<path d="M13.3996 28.2604L13.6148 28.1989C13.6379 28.1297 13.5764 28.0913 13.4995 28.122C13.4457 28.1682 13.3689 28.1912 13.3996 28.2604Z" fill="white"/>
<path d="M12.7402 27.7387C12.8017 27.7771 12.8017 27.8233 12.8401 27.8847V27.6465L12.7402 27.7387Z" fill="white"/>
<path d="M13.3694 27.6761C13.3925 27.607 13.6769 27.484 13.4079 27.4994C13.3848 27.5608 13.1696 27.6223 13.3694 27.6761Z" fill="white"/>
<path d="M16.6358 27.9219L16.582 27.9296L16.5974 28.3215L16.6358 27.9219Z" fill="white"/>
<path d="M19.4873 26.938C19.226 26.8458 19.4335 27.184 19.1952 27.0687C19.1338 27.1609 19.3874 27.1609 19.3259 27.2454C19.4796 27.1455 19.5641 27.1993 19.4873 26.938Z" fill="white"/>
<path d="M19.3327 27.2461C19.3097 27.2615 19.2789 27.2845 19.2559 27.3076C19.2943 27.2768 19.3173 27.2615 19.3327 27.2461Z" fill="white"/>
<path d="M1.08013 26.9922L0.964844 27.1459L1.11856 27.069L1.08013 26.9922Z" fill="white"/>
<path d="M1.29465 27.3846L1.04102 27.377L1.24085 27.523C1.24085 27.4769 1.23316 27.4 1.29465 27.3846Z" fill="white"/>
<path d="M17.5977 22.2432L17.6515 22.2124C17.6822 22.1509 17.6668 22.1202 17.6207 22.0664L17.5977 22.2432Z" fill="white"/>
<path d="M16.2363 20.7897L16.2594 20.8127L16.3362 20.5898L16.2363 20.7897Z" fill="white"/>
<path d="M14.6836 20.2137C14.7374 20.2522 14.8296 20.2368 14.8834 20.2752C14.7374 20.2522 14.7835 19.9524 14.6836 20.2137Z" fill="white"/>
</svg>
