<svg width="27" height="19" viewBox="0 0 27 19" fill="none" xmlns="http://www.w3.org/2000/svg">
<g clip-path="url(#clip0)">
<path d="M13.5167 18.9587C10.8377 18.9926 8.16153 18.922 5.48808 18.7483C4.75471 18.7003 4.00895 18.6593 3.30035 18.4362C1.82121 17.9702 0.845675 17.0268 0.592503 15.3929C0.182474 12.752 0.204489 10.0956 0.269158 7.43782C0.299428 6.20636 0.417759 4.98338 0.589751 3.76181C0.877322 1.73669 2.43351 0.736837 3.93465 0.563134C7.4887 0.152179 11.0593 0.14653 14.6298 0.179011C17.4257 0.204431 20.2244 0.241148 23.0065 0.578669C24.8984 0.808861 25.9593 1.81154 26.2799 3.73498C26.7917 6.80656 26.7766 9.90355 26.5826 13.0034C26.5303 13.8281 26.4078 14.6458 26.2909 15.4649C26.0212 17.3332 24.4746 18.3839 23.0271 18.5619C20.073 18.9262 17.1037 18.9403 14.1358 18.9573C13.9281 18.9587 13.7217 18.9587 13.5167 18.9587ZM11.0771 5.48754C10.8694 5.56239 10.9409 5.7601 10.9409 5.90839C10.9354 8.31904 10.9327 10.7311 10.9354 13.1418C10.9354 13.2915 10.8652 13.5047 11.0111 13.581C11.1776 13.6671 11.3234 13.4878 11.4638 13.4002C13.3185 12.2323 15.1692 11.0588 17.0239 9.89084C17.5303 9.57168 17.5385 9.56462 17.0184 9.23416C15.1238 8.03236 13.2263 6.83763 11.3289 5.64006C11.256 5.59487 11.1817 5.55109 11.0771 5.48754Z" fill="white"/>
<path d="M13.5187 18.9871C11.84 19.0111 10.16 18.9998 8.48136 18.973C7.64204 18.9588 6.80135 18.9363 5.96202 18.9024C5.12683 18.8586 4.2765 18.8671 3.42755 18.6566C3.00789 18.5451 2.59786 18.394 2.20985 18.1793C1.82321 17.9646 1.46822 17.6737 1.17652 17.3249C0.884819 16.9733 0.670173 16.5595 0.527075 16.1273C0.455526 15.9113 0.405993 15.6881 0.366091 15.4664C0.331692 15.2489 0.29867 15.0357 0.269775 14.8196C0.151444 13.9582 0.0798957 13.0911 0.0427454 12.2254C9.14028e-05 11.3597 -0.00128453 10.4926 0.00972296 9.62831C0.0234823 8.76262 0.0551289 7.90399 0.095031 7.03689C0.139061 6.16978 0.227121 5.30692 0.346827 4.4497L0.441767 3.80855C0.481669 3.5939 0.517444 3.37076 0.587616 3.16034C0.715578 2.73527 0.916465 2.32996 1.1834 1.97973C1.71451 1.27079 2.49742 0.799113 3.32711 0.585868C3.43168 0.559036 3.53625 0.539265 3.64082 0.516669C3.74677 0.501135 3.85271 0.484188 3.95866 0.471478L4.58609 0.405104L5.84232 0.293539C6.68026 0.22434 7.51958 0.1735 8.35891 0.136782C8.77857 0.118423 9.19823 0.102889 9.61926 0.0915913L10.8796 0.0534613C11.7203 0.0336903 12.5596 0.0223925 13.4003 0.0153314L15.9197 -0.000203015C16.7604 -0.00302745 17.6011 0.00120921 18.4418 0.0238047C19.2825 0.044988 20.1245 0.0774691 20.9666 0.131133C21.3876 0.159378 21.8087 0.191859 22.2283 0.232813C22.6494 0.27518 23.0635 0.309073 23.5025 0.390982C23.9345 0.475715 24.3652 0.615525 24.7642 0.840068C25.1618 1.0632 25.5223 1.3753 25.7975 1.74954C26.0768 2.12378 26.2681 2.55168 26.4002 2.98805L26.4882 3.3171L26.5557 3.64897L26.6602 4.29436C26.9175 6.01585 27.007 7.75712 27.0028 9.49132C26.996 10.3584 26.9657 11.2241 26.9189 12.0884C26.8941 12.5219 26.8721 12.9484 26.8336 13.3876C26.7951 13.824 26.7345 14.2562 26.6726 14.6841L26.5749 15.3238L26.5502 15.4834C26.5405 15.537 26.5281 15.5963 26.5171 15.6514C26.4937 15.7644 26.4745 15.8774 26.4373 15.9875C26.3094 16.431 26.0989 16.849 25.8223 17.2105C25.2678 17.9392 24.4629 18.4208 23.6139 18.634C23.5066 18.6552 23.3993 18.6821 23.2919 18.699C23.1846 18.7131 23.0718 18.7329 22.9686 18.74C22.7581 18.7583 22.5489 18.7809 22.3384 18.7964C21.9188 18.8303 21.4977 18.86 21.0781 18.8826C20.2374 18.9292 19.3967 18.956 18.5573 18.9673C17.7167 18.9758 16.8773 18.9857 16.038 18.9829C15.1973 18.9857 14.358 18.9927 13.5187 18.9871ZM13.5187 18.9306C15.1973 18.9207 16.876 18.9038 18.5518 18.8134C19.3898 18.7682 20.225 18.7075 21.0588 18.6256C21.4757 18.586 21.8912 18.538 22.3068 18.4858C22.5145 18.4617 22.7209 18.4293 22.9287 18.401C23.0346 18.3883 23.1282 18.3657 23.2287 18.3488C23.3263 18.329 23.424 18.2993 23.5203 18.2753C24.2909 18.0451 24.9885 17.5706 25.4522 16.9238C25.6833 16.6004 25.8526 16.2347 25.9516 15.8477C26.0479 15.4735 26.0878 15.0301 26.147 14.6078C26.2021 14.1827 26.2475 13.7591 26.2832 13.3382C26.3163 12.9202 26.3355 12.4852 26.3562 12.0587C26.3947 11.2015 26.4181 10.3457 26.4167 9.48991C26.4208 7.7783 26.3259 6.06952 26.0934 4.38191L25.9984 3.75206L25.9406 3.45126L25.8649 3.15611C25.7521 2.76916 25.5911 2.40057 25.3614 2.08706C25.1343 1.77213 24.8426 1.51228 24.5055 1.31881C24.1698 1.12392 23.7928 0.995412 23.402 0.913503C23.0154 0.835831 22.593 0.793464 22.1788 0.748273C21.7633 0.703082 21.3477 0.666365 20.9322 0.629647C20.0998 0.559036 19.2646 0.51102 18.428 0.47289C16.7549 0.403692 15.0762 0.359913 13.399 0.324607C12.5596 0.309073 11.7217 0.297775 10.8824 0.296363C10.4627 0.294951 10.0444 0.296363 9.62477 0.302012C9.20511 0.309073 8.78682 0.320371 8.36716 0.334493C7.52922 0.362737 6.69265 0.405104 5.85608 0.465829C5.43779 0.495486 5.02088 0.535028 4.60398 0.577395L3.97792 0.649418L3.67247 0.694609C3.57202 0.717205 3.47158 0.738388 3.37114 0.763808C2.5786 0.978465 1.84385 1.44591 1.36364 2.11954C1.12423 2.45565 0.949488 2.83695 0.84354 3.23802C0.784375 3.43714 0.758232 3.64191 0.72521 3.85092L0.650909 4.49065C0.560098 5.34364 0.49818 6.19803 0.477541 7.05383C0.462406 7.90964 0.462406 8.77392 0.466534 9.63113C0.473414 11.3484 0.538083 13.0614 0.748601 14.7547C0.774744 14.9651 0.805014 15.1783 0.835285 15.3873C0.869683 15.5879 0.910961 15.7884 0.971503 15.9805C1.08983 16.366 1.26595 16.7304 1.51087 17.0425C1.75716 17.3546 2.06262 17.6172 2.40385 17.8291C2.74646 18.0381 3.12622 18.1977 3.51423 18.3177C4.29439 18.5493 5.13921 18.5818 5.97441 18.658C6.81098 18.7258 7.64755 18.7823 8.48549 18.8303C9.32344 18.8812 10.1614 18.9038 11.0007 18.9249C11.84 18.9362 12.678 18.9362 13.5187 18.9306Z" fill="white"/>
<path d="M11.0745 5.51601C11.0662 5.52449 11.0621 5.52872 11.0511 5.53579C11.0401 5.54426 11.0304 5.55132 11.0222 5.56121C11.0057 5.57956 10.9947 5.60075 10.9892 5.62334C10.9782 5.66995 10.9864 5.72361 10.996 5.78292C11.0084 5.83941 11.0167 5.91426 11.0208 5.97357L11.0359 6.15857C11.0538 6.4043 11.0731 6.65144 11.0855 6.89716C11.1157 7.39003 11.1364 7.88148 11.1515 8.37435L11.1708 9.11294L11.1804 9.85153C11.1873 10.3444 11.1818 10.8358 11.1653 11.3287C11.1474 11.8216 11.1171 12.313 11.0869 12.8059L11.0648 13.183C11.058 13.255 11.0456 13.3129 11.0401 13.3651C11.0346 13.4174 11.0387 13.4555 11.0456 13.4668C11.0469 13.4795 11.0827 13.4993 11.1075 13.4979C11.1364 13.4993 11.179 13.4809 11.2244 13.4527C11.2699 13.4244 11.3166 13.3877 11.3717 13.351C11.4308 13.3115 11.479 13.2875 11.5313 13.2536C12.3596 12.7565 13.159 12.2099 13.9515 11.6521C14.3478 11.3739 14.7413 11.09 15.1404 10.8175C15.5394 10.5435 15.9425 10.2766 16.3471 10.0111L16.9525 9.61286C17.002 9.58038 17.0502 9.5479 17.0928 9.51683C17.1121 9.50271 17.1327 9.48717 17.1465 9.47446L17.163 9.46034C17.1602 9.46034 17.163 9.45893 17.1602 9.46317C17.1547 9.46882 17.1506 9.47729 17.1465 9.48435C17.1451 9.48859 17.1437 9.49282 17.1423 9.49706C17.1382 9.50553 17.1355 9.51401 17.1327 9.52248C17.1258 9.5592 17.1245 9.59591 17.1355 9.63122C17.1437 9.6524 17.141 9.6524 17.1465 9.66229C17.1492 9.66935 17.1575 9.67924 17.1589 9.68065C17.1575 9.68206 17.1602 9.68347 17.1589 9.68206C17.141 9.66653 17.0969 9.63546 17.0515 9.6058L16.4447 9.22733L15.8325 8.84038C15.022 8.31221 14.2157 7.7798 13.4218 7.2248C13.0242 6.948 12.6279 6.6698 12.2358 6.38453C12.039 6.24331 11.845 6.09785 11.6496 5.95239L11.3579 5.73491L11.0745 5.51601ZM11.08 5.46094C11.1859 5.51178 11.3125 5.56685 11.4185 5.62476L11.739 5.79422C11.9523 5.9072 12.1683 6.01876 12.3789 6.13598C12.804 6.36617 13.2251 6.60342 13.6447 6.8435C14.4854 7.32083 15.3123 7.82076 16.1365 8.32492L16.7488 8.71187C16.9552 8.8432 17.152 8.96465 17.3639 9.11152C17.4189 9.15107 17.4739 9.1892 17.5441 9.25698C17.5634 9.27675 17.5854 9.30217 17.6047 9.32618C17.6157 9.3403 17.6294 9.36431 17.6391 9.38408C17.6501 9.40809 17.6597 9.41939 17.6693 9.4561C17.6872 9.52107 17.6913 9.58885 17.6735 9.65523C17.6693 9.67217 17.6652 9.68771 17.6597 9.70324L17.6446 9.73572C17.6336 9.75691 17.6212 9.77809 17.6088 9.79645C17.5868 9.82469 17.5675 9.84588 17.5455 9.86847L17.4932 9.91366C17.4602 9.9405 17.4299 9.96027 17.401 9.98145C17.3446 10.0196 17.2909 10.0521 17.2373 10.0845L16.6167 10.4602C16.204 10.7102 15.7898 10.9601 15.3715 11.2002C14.9546 11.4431 14.5294 11.6747 14.1084 11.912C13.2663 12.3865 12.4311 12.8709 11.6248 13.4061C11.5767 13.4372 11.5189 13.4739 11.479 13.5049C11.435 13.5388 11.3896 13.5798 11.3345 13.6207C11.2795 13.6589 11.2148 13.7026 11.1213 13.7125C11.0758 13.7168 11.0263 13.7097 10.985 13.6928C10.9438 13.6786 10.897 13.6476 10.8653 13.6052C10.7979 13.5148 10.7979 13.423 10.7965 13.3538L10.8034 13.1688L10.7841 12.8073C10.7553 12.3144 10.7264 11.823 10.7085 11.3301C10.692 10.8373 10.6865 10.3458 10.6947 9.85294L10.7057 9.11435L10.7264 8.37576C10.7429 7.88289 10.7635 7.39144 10.7938 6.89858C10.8075 6.65285 10.8268 6.40571 10.8447 6.15999L10.8598 5.97499C10.8667 5.91002 10.8695 5.86201 10.8681 5.79705C10.8681 5.7335 10.8695 5.66147 10.9025 5.59086C10.919 5.55697 10.9451 5.5259 10.974 5.50613C10.9878 5.49483 11.0043 5.48777 11.0194 5.48071C11.0359 5.46941 11.0607 5.46376 11.08 5.46094Z" fill="white"/>
</g>
<defs>
<clipPath id="clip0">
<rect width="27" height="19" fill="white"/>
</clipPath>
</defs>
</svg>
