<svg width="21" height="15" viewBox="0 0 21 15" fill="none" xmlns="http://www.w3.org/2000/svg">
<g clip-path="url(#clip0)">
<path d="M10.534 14.7002C8.52712 14.7256 6.52224 14.6727 4.51943 14.5426C3.97003 14.5066 3.41134 14.476 2.88049 14.3088C1.7724 13.9597 1.04157 13.253 0.851908 12.0289C0.544735 10.0505 0.561228 8.06046 0.609674 6.06938C0.632352 5.14683 0.720999 4.23063 0.849847 3.3155C1.06528 1.79837 2.2311 1.04934 3.35568 0.919206C6.01819 0.611339 8.69307 0.607107 11.368 0.63144C13.4625 0.650484 15.5591 0.677991 17.6434 0.930844C19.0607 1.10329 19.8554 1.85445 20.0956 3.29539C20.479 5.59647 20.4677 7.91658 20.3224 10.2388C20.2832 10.8567 20.1915 11.4692 20.1038 12.0828C19.9018 13.4825 18.7432 14.2697 17.6588 14.403C15.4457 14.6759 13.2213 14.6865 10.9979 14.6992C10.8423 14.7002 10.6876 14.7002 10.534 14.7002ZM8.70647 4.60833C8.55082 4.6644 8.60442 4.81251 8.60442 4.9236C8.6003 6.72955 8.59824 8.53655 8.6003 10.3425C8.6003 10.4546 8.54773 10.6144 8.65699 10.6715C8.78172 10.7361 8.89098 10.6017 8.99612 10.5361C10.3856 9.66116 11.772 8.782 13.1615 7.90706C13.5408 7.66796 13.547 7.66267 13.1574 7.41511C11.738 6.51478 10.3166 5.61974 8.8951 4.72259C8.84047 4.68873 8.78481 4.65594 8.70647 4.60833Z" fill="#CF805E"/>
<path d="M10.5396 14.7227C9.28207 14.7407 8.02348 14.7322 6.76593 14.7121C6.13715 14.7016 5.50734 14.6846 4.87856 14.6592C4.25288 14.6264 3.61585 14.6328 2.97986 14.4751C2.66547 14.3916 2.3583 14.2784 2.06762 14.1176C1.77797 13.9567 1.51203 13.7388 1.2935 13.4775C1.07497 13.2141 0.914172 12.9041 0.806971 12.5803C0.75337 12.4185 0.716262 12.2513 0.686369 12.0852C0.6606 11.9223 0.635861 11.7625 0.614215 11.6007C0.525567 10.9553 0.471967 10.3057 0.444135 9.65718C0.412181 9.00865 0.41115 8.35906 0.419397 7.71158C0.429704 7.06305 0.453412 6.41981 0.483305 5.77022C0.51629 5.12063 0.58226 4.47421 0.671938 3.83203L0.743062 3.35171C0.772955 3.1909 0.799755 3.02374 0.852325 2.86611C0.948188 2.54766 1.09868 2.24402 1.29865 1.98165C1.69654 1.45055 2.28305 1.09719 2.90461 0.937437C2.98295 0.917336 3.06129 0.902525 3.13963 0.885597C3.219 0.87396 3.29837 0.861264 3.37774 0.851742L3.84778 0.802018L4.78888 0.718439C5.41663 0.666599 6.04541 0.628512 6.67419 0.601005C6.98857 0.587251 7.30296 0.575614 7.61838 0.56715L8.56258 0.538585C9.19239 0.523773 9.82117 0.51531 10.451 0.51002L12.3383 0.498382C12.9681 0.496266 13.598 0.49944 14.2278 0.516368C14.8576 0.532237 15.4884 0.55657 16.1192 0.596773C16.4347 0.617932 16.7501 0.642265 17.0645 0.672946C17.3799 0.704685 17.6902 0.730076 18.019 0.791438C18.3426 0.854916 18.6653 0.959655 18.9642 1.12787C19.2621 1.29503 19.5322 1.52884 19.7383 1.8092C19.9476 2.08956 20.0909 2.41012 20.1898 2.73703L20.2558 2.98354L20.3063 3.23216L20.3846 3.71565C20.5774 5.00531 20.6444 6.30978 20.6413 7.60896C20.6361 8.25855 20.6135 8.90708 20.5784 9.55456C20.5599 9.87935 20.5434 10.1989 20.5145 10.5279C20.4856 10.8548 20.4403 11.1785 20.3939 11.4991L20.3207 11.9784L20.3022 12.0979C20.2949 12.1381 20.2857 12.1825 20.2774 12.2238C20.2599 12.3084 20.2455 12.3931 20.2176 12.4756C20.1218 12.8078 19.9641 13.121 19.7569 13.3918C19.3415 13.9377 18.7385 14.2985 18.1025 14.4582C18.0221 14.4741 17.9417 14.4942 17.8613 14.5069C17.7809 14.5175 17.6963 14.5323 17.619 14.5376C17.4613 14.5513 17.3046 14.5682 17.1469 14.5799C16.8325 14.6053 16.5171 14.6275 16.2027 14.6444C15.5729 14.6793 14.9431 14.6994 14.3143 14.7079C13.6845 14.7142 13.0558 14.7217 12.427 14.7195C11.7972 14.7217 11.1684 14.7269 10.5396 14.7227ZM10.5396 14.6804C11.7972 14.673 13.0547 14.6603 14.3102 14.5926C14.938 14.5587 15.5637 14.5132 16.1883 14.4519C16.5006 14.4222 16.8119 14.3863 17.1232 14.3471C17.2789 14.3291 17.4335 14.3048 17.5891 14.2837C17.6685 14.2741 17.7386 14.2572 17.8139 14.2445C17.887 14.2297 17.9602 14.2075 18.0324 14.1895C18.6096 14.017 19.1322 13.6616 19.4796 13.177C19.6528 12.9348 19.7796 12.6607 19.8538 12.3709C19.9259 12.0905 19.9558 11.7583 20.0001 11.442C20.0414 11.1235 20.0754 10.8061 20.1022 10.4909C20.1269 10.1777 20.1414 9.85184 20.1568 9.53234C20.1857 8.89015 20.2032 8.24903 20.2022 7.6079C20.2053 6.32565 20.1341 5.04551 19.9599 3.78125L19.8888 3.30939L19.8455 3.08405L19.7888 2.86293C19.7043 2.57305 19.5837 2.29692 19.4116 2.06205C19.2415 1.82613 19.023 1.63146 18.7704 1.48652C18.5189 1.34052 18.2365 1.24425 17.9437 1.18289C17.6541 1.1247 17.3376 1.09296 17.0274 1.0591C16.7161 1.02525 16.4048 0.997741 16.0935 0.970234C15.4699 0.917336 14.8442 0.881365 14.2175 0.8528C12.964 0.80096 11.7065 0.768163 10.4499 0.741714C9.82117 0.730076 9.19342 0.721613 8.56464 0.720555C8.25025 0.719497 7.9369 0.720555 7.62251 0.724787C7.30812 0.730076 6.99476 0.73854 6.68037 0.74912C6.05262 0.770279 5.42591 0.802018 4.79919 0.84751C4.48583 0.869728 4.17351 0.899351 3.86118 0.93109L3.39217 0.985046L3.16334 1.0189C3.08809 1.03583 3.01285 1.0517 2.9376 1.07074C2.34387 1.23155 1.79343 1.58174 1.43369 2.08639C1.25433 2.33818 1.12342 2.62383 1.04405 2.92429C0.999727 3.07347 0.980142 3.22687 0.955404 3.38345L0.899741 3.86271C0.83171 4.50172 0.785325 5.14179 0.769863 5.78291C0.758524 6.42404 0.758524 7.07151 0.761616 7.7137C0.76677 9.00018 0.815217 10.2835 0.972927 11.552C0.992512 11.7096 1.01519 11.8694 1.03787 12.026C1.06364 12.1762 1.09456 12.3264 1.13991 12.4703C1.22856 12.7591 1.3605 13.0321 1.54398 13.2659C1.72849 13.4997 1.95732 13.6965 2.21296 13.8552C2.46962 14.0118 2.75412 14.1313 3.0448 14.2212C3.62925 14.3947 4.26215 14.4191 4.88784 14.4762C5.51456 14.527 6.14127 14.5693 6.76902 14.6053C7.39676 14.6434 8.02451 14.6603 8.65329 14.6762C9.28207 14.6846 9.90981 14.6846 10.5396 14.6804Z" fill="#CF805E"/>
<path d="M8.70433 4.62976C8.69814 4.63611 8.69505 4.63928 8.68681 4.64457C8.67856 4.65092 8.67134 4.65621 8.66516 4.66362C8.65279 4.67737 8.64454 4.69324 8.64042 4.71017C8.63217 4.74508 8.63836 4.78528 8.64557 4.82972C8.65485 4.87204 8.66104 4.92811 8.66413 4.97254L8.67547 5.11114C8.68887 5.29522 8.7033 5.48036 8.71258 5.66445C8.73525 6.03368 8.75071 6.40185 8.76205 6.77108L8.77648 7.3244L8.7837 7.87771C8.78885 8.24694 8.78473 8.61511 8.77236 8.98434C8.75896 9.35357 8.73628 9.72174 8.71361 10.091L8.69711 10.3734C8.69196 10.4274 8.68268 10.4708 8.67856 10.5099C8.67444 10.5491 8.67753 10.5776 8.68268 10.5861C8.68371 10.5956 8.71051 10.6104 8.72907 10.6094C8.75071 10.6104 8.78267 10.5967 8.81668 10.5755C8.8507 10.5544 8.88575 10.5269 8.92698 10.4993C8.9713 10.4697 9.00738 10.4517 9.04655 10.4263C9.66708 10.0539 10.266 9.64451 10.8597 9.22661C11.1566 9.0182 11.4514 8.80554 11.7503 8.60136C12.0492 8.39611 12.3512 8.19616 12.6543 7.99726L13.1078 7.69891C13.1449 7.67458 13.181 7.65025 13.213 7.62697C13.2274 7.61639 13.2429 7.60476 13.2532 7.59523L13.2655 7.58465C13.2635 7.58465 13.2655 7.5836 13.2635 7.58677C13.2594 7.591 13.2563 7.59735 13.2532 7.60264C13.2521 7.60581 13.2511 7.60899 13.2501 7.61216C13.247 7.61851 13.2449 7.62486 13.2429 7.6312C13.2377 7.65871 13.2367 7.68622 13.2449 7.71267C13.2511 7.72854 13.249 7.72854 13.2532 7.73594C13.2552 7.74123 13.2614 7.74864 13.2624 7.7497C13.2614 7.75075 13.2635 7.75181 13.2624 7.75075C13.249 7.73912 13.2161 7.71584 13.182 7.69362L12.7275 7.41009L12.2688 7.12021C11.6616 6.72453 11.0576 6.32568 10.4628 5.9099C10.1649 5.70254 9.86808 5.49412 9.57431 5.28041C9.42691 5.17461 9.28157 5.06564 9.1352 4.95667L8.91667 4.79375L8.70433 4.62976ZM8.70845 4.5885C8.78782 4.62659 8.88265 4.66785 8.96202 4.71123L9.2022 4.83818C9.36197 4.92282 9.5238 5.0064 9.68151 5.09421C10 5.26666 10.3154 5.44439 10.6298 5.62425C11.2596 5.98184 11.8791 6.35636 12.4966 6.73405L12.9553 7.02393C13.1099 7.12232 13.2573 7.21331 13.416 7.32334C13.4573 7.35296 13.4985 7.38153 13.5511 7.43231C13.5655 7.44712 13.582 7.46616 13.5964 7.48415C13.6047 7.49473 13.615 7.51271 13.6222 7.52752C13.6304 7.54551 13.6376 7.55397 13.6449 7.58148C13.6583 7.63015 13.6614 7.68093 13.648 7.73065C13.6449 7.74335 13.6418 7.75499 13.6377 7.76662L13.6263 7.79096C13.6181 7.80683 13.6088 7.8227 13.5995 7.83645C13.583 7.85761 13.5686 7.87348 13.5521 7.89041L13.5129 7.92426C13.4882 7.94436 13.4655 7.95917 13.4439 7.97504C13.4016 8.00361 13.3614 8.02794 13.3212 8.05227L12.8563 8.33369C12.5471 8.52095 12.2368 8.70821 11.9235 8.88807C11.6111 9.07003 11.2926 9.24354 10.9772 9.42128C10.3464 9.77675 9.72068 10.1396 9.11664 10.5406C9.08056 10.5639 9.03727 10.5914 9.00738 10.6147C8.97439 10.6401 8.94038 10.6707 8.89915 10.7014C8.85792 10.73 8.80947 10.7628 8.73938 10.7702C8.70536 10.7734 8.66825 10.7681 8.63733 10.7554C8.6064 10.7448 8.57136 10.7215 8.54765 10.6898C8.49714 10.6221 8.49714 10.5533 8.49611 10.5015L8.50126 10.3629L8.48683 10.092C8.46519 9.7228 8.44354 9.35463 8.43014 8.9854C8.41777 8.61617 8.41365 8.248 8.41983 7.87877L8.42808 7.32545L8.44354 6.77214C8.45591 6.40291 8.47137 6.03474 8.49405 5.66551C8.50436 5.48142 8.51879 5.29628 8.53219 5.11219L8.54353 4.9736C8.54868 4.92493 8.55074 4.88896 8.54971 4.8403C8.54971 4.79269 8.55074 4.73873 8.57548 4.68583C8.58785 4.66044 8.60744 4.63717 8.62908 4.62236C8.63939 4.61389 8.65176 4.6086 8.6631 4.60331C8.67547 4.59485 8.69402 4.59062 8.70845 4.5885Z" fill="#CF805E"/>
</g>
<defs>
<clipPath id="clip0">
<rect width="20.227" height="14.2338" fill="white" transform="translate(0.40918 0.498047)"/>
</clipPath>
</defs>
</svg>
